<?xml version="1.0" encoding="UTF-8" standalone="no"?>
<svg xmlns="http://www.w3.org/2000/svg"
     xmlns:xlink="http://www.w3.org/1999/xlink"
     width="2048pt" height="1081pt" viewBox="0 0 2048 1081">
<title>D:/3D_GM/Projects/UW105/Results/Taxonomic_assessment/UW105-074/3D_PCA_labelled_as_UM2.svg</title>
<desc>
Creator: GL2PS 1.4.2, (C) 1999-2020 C. Geuzaine
For: Generated by rgl
CreationDate: Tue Jan 27 17:50:45 2026
</desc>
<defs>
</defs>
<g>
<polygon fill="#ffffff" shape-rendering="crispEdges" points="0,1081 2048,1081 2048,0"/>
<polygon fill="#ffffff" shape-rendering="crispEdges" points="0,1081 2048,0 0,0"/>
<polyline fill="none" stroke="#000000" stroke-width="1" stroke-linecap="butt" stroke-linejoin="miter" points="794.704,908.648 903.596,348.612"/>
<polyline fill="none" stroke="#000000" stroke-width="1" stroke-linecap="butt" stroke-linejoin="miter" points="903.596,348.612 1456.38,381.934"/>
<polyline fill="none" stroke="#000000" stroke-width="1" stroke-linecap="butt" stroke-linejoin="miter" points="1456.38,381.934 1347.49,941.97"/>
<polyline fill="none" stroke="#0f0f0f" stroke-width="1" stroke-linecap="butt" stroke-linejoin="miter" points="1347.49,941.97 794.704,908.648"/>
<polyline fill="none" stroke="#000000" stroke-width="1" stroke-linecap="butt" stroke-linejoin="miter" points="591.617,699.066 700.509,139.03"/>
<polyline fill="none" stroke="#000000" stroke-width="1" stroke-linecap="butt" stroke-linejoin="miter" points="700.509,139.03 903.596,348.612"/>
<polyline fill="none" stroke="#000000" stroke-width="1" stroke-linecap="butt" stroke-linejoin="miter" points="903.596,348.612 794.704,908.648"/>
<polyline fill="none" stroke="#000000" stroke-width="1" stroke-linecap="butt" stroke-linejoin="miter" points="794.704,908.648 591.617,699.066"/>
<polyline fill="none" stroke="#000000" stroke-width="1" stroke-linecap="butt" stroke-linejoin="miter" points="700.509,139.03 1253.3,172.352"/>
<polyline fill="none" stroke="#000000" stroke-width="1" stroke-linecap="butt" stroke-linejoin="miter" points="1253.3,172.352 1456.38,381.934"/>
<polyline fill="none" stroke="#000000" stroke-width="1" stroke-linecap="butt" stroke-linejoin="miter" points="1456.38,381.934 903.596,348.612 700.509,139.03"/>
<polyline fill="none" stroke="#000000" stroke-width="1" stroke-linecap="butt" stroke-linejoin="miter" points="841.963,147.557 828.424,133.585"/>
<text fill="#000000" x="800.485" y="125.613" font-size="12" text-anchor="start" dy="0" font-family="Helvetica">-0.05</text>
<polyline fill="none" stroke="#000000" stroke-width="1" stroke-linecap="butt" stroke-linejoin="miter" points="994.118,156.729 980.579,142.757"/>
<text fill="#000000" x="963.439" y="134.785" font-size="12" text-anchor="start" dy="0" font-family="Helvetica">0</text>
<polyline fill="none" stroke="#000000" stroke-width="1" stroke-linecap="butt" stroke-linejoin="miter" points="1146.27,165.9 1132.73,151.928"/>
<text fill="#000000" x="1106.79" y="143.957" font-size="12" text-anchor="start" dy="0" font-family="Helvetica">0.05</text>
<polyline fill="none" stroke="#000000" stroke-width="1" stroke-linecap="butt" stroke-linejoin="miter" points="599.856,656.69 586.317,642.718"/>
<text fill="#000000" x="558.378" y="634.747" font-size="12" text-anchor="start" dy="0" font-family="Helvetica">-0.06</text>
<polyline fill="none" stroke="#000000" stroke-width="1" stroke-linecap="butt" stroke-linejoin="miter" points="617.424,566.336 603.885,552.364"/>
<text fill="#000000" x="575.946" y="544.392" font-size="12" text-anchor="start" dy="0" font-family="Helvetica">-0.04</text>
<polyline fill="none" stroke="#000000" stroke-width="1" stroke-linecap="butt" stroke-linejoin="miter" points="634.993,475.981 621.454,462.009"/>
<text fill="#000000" x="593.515" y="454.037" font-size="12" text-anchor="start" dy="0" font-family="Helvetica">-0.02</text>
<polyline fill="none" stroke="#000000" stroke-width="1" stroke-linecap="butt" stroke-linejoin="miter" points="652.561,385.626 639.022,371.654"/>
<text fill="#000000" x="621.883" y="363.682" font-size="12" text-anchor="start" dy="0" font-family="Helvetica">0</text>
<polyline fill="none" stroke="#000000" stroke-width="1" stroke-linecap="butt" stroke-linejoin="miter" points="670.129,295.272 656.59,281.3"/>
<text fill="#000000" x="630.651" y="273.328" font-size="12" text-anchor="start" dy="0" font-family="Helvetica">0.02</text>
<polyline fill="none" stroke="#000000" stroke-width="1" stroke-linecap="butt" stroke-linejoin="miter" points="687.698,204.917 674.159,190.945"/>
<text fill="#000000" x="648.22" y="182.973" font-size="12" text-anchor="start" dy="0" font-family="Helvetica">0.04</text>
<polyline fill="none" stroke="#000000" stroke-width="1" stroke-linecap="butt" stroke-linejoin="miter" points="1439.16,364.164 1476.02,366.386"/>
<text fill="#000000" x="1512" y="374.607" font-size="12" text-anchor="start" dy="0" font-family="Helvetica">-0.04</text>
<polyline fill="none" stroke="#000000" stroke-width="1" stroke-linecap="butt" stroke-linejoin="miter" points="1407.82,331.82 1444.67,334.042"/>
<text fill="#000000" x="1480.66" y="342.263" font-size="12" text-anchor="start" dy="0" font-family="Helvetica">-0.02</text>
<polyline fill="none" stroke="#000000" stroke-width="1" stroke-linecap="butt" stroke-linejoin="miter" points="1376.48,299.477 1413.33,301.698"/>
<text fill="#000000" x="1449.97" y="309.919" font-size="12" text-anchor="start" dy="0" font-family="Helvetica">0</text>
<polyline fill="none" stroke="#000000" stroke-width="1" stroke-linecap="butt" stroke-linejoin="miter" points="1345.14,267.132 1381.99,269.354"/>
<text fill="#000000" x="1418.1" y="277.575" font-size="12" text-anchor="start" dy="0" font-family="Helvetica">0.02</text>
<polyline fill="none" stroke="#000000" stroke-width="1" stroke-linecap="butt" stroke-linejoin="miter" points="1313.8,234.789 1350.65,237.01"/>
<text fill="#000000" x="1386.76" y="245.231" font-size="12" text-anchor="start" dy="0" font-family="Helvetica">0.04</text>
<polyline fill="none" stroke="#000000" stroke-width="1" stroke-linecap="butt" stroke-linejoin="miter" points="1282.46,202.445 1319.31,204.666"/>
<text fill="#000000" x="1355.41" y="212.888" font-size="12" text-anchor="start" dy="0" font-family="Helvetica">0.06</text>
<polyline fill="none" stroke="#000000" stroke-width="1" stroke-linecap="butt" stroke-linejoin="miter" points="794.704,908.648 794.704,908.648"/>
<polyline fill="none" stroke="#000000" stroke-width="1" stroke-linecap="butt" stroke-linejoin="miter" points="1253.3,172.352 1253.3,172.352"/>
<circle fill="#e41a1c" cx="1054.93" cy="442.43" r="5"/>
<circle fill="#e41a1c" cx="1009.15" cy="563.202" r="5"/>
<circle fill="#e41a1c" cx="1198.24" cy="487.873" r="5"/>
<circle fill="#e41a1c" cx="931.113" cy="271.151" r="5"/>
<circle fill="#4daf4a" cx="1097.88" cy="364.626" r="5"/>
<circle fill="#8b2323" cx="1033.23" cy="498.04" r="5"/>
<circle fill="#1874cd" cx="1111" cy="567.723" r="5"/>
<circle fill="#1874cd" cx="1193.38" cy="339.715" r="5"/>
<circle fill="#4daf4a" cx="1267.22" cy="516.476" r="5"/>
<circle fill="#4daf4a" cx="1120.71" cy="426.926" r="5"/>
<circle fill="#984ea3" cx="1117.97" cy="788.55" r="5"/>
<circle fill="#4daf4a" cx="1096.31" cy="343.786" r="5"/>
<circle fill="#4daf4a" cx="1093.28" cy="478.695" r="5"/>
<circle fill="#4daf4a" cx="1233.53" cy="822.995" r="5"/>
<circle fill="#4daf4a" cx="1198.75" cy="472.956" r="5"/>
<circle fill="#1874cd" cx="1168.01" cy="515.345" r="5"/>
<circle fill="#1874cd" cx="1172.68" cy="575.715" r="5"/>
<circle fill="#1874cd" cx="1085.82" cy="749.635" r="5"/>
<circle fill="#1874cd" cx="1111.6" cy="455.488" r="5"/>
<circle fill="#1874cd" cx="1039.44" cy="380.104" r="5"/>
<circle fill="#1874cd" cx="1176.03" cy="603.229" r="5"/>
<circle fill="#1874cd" cx="1099.33" cy="270.003" r="5"/>
<circle fill="#1874cd" cx="1163.47" cy="463.006" r="5"/>
<circle fill="#cd661d" cx="1047.64" cy="573.842" r="5"/>
<circle fill="#cd661d" cx="963.409" cy="540.206" r="5"/>
<circle fill="#cd661d" cx="751.665" cy="492.208" r="5"/>
<circle fill="#cd661d" cx="947.557" cy="613.279" r="5"/>
<circle fill="#cd661d" cx="870.779" cy="535.052" r="5"/>
<circle fill="#cd661d" cx="1035.44" cy="630.552" r="5"/>
<circle fill="#cd661d" cx="1082.14" cy="301.567" r="5"/>
<circle fill="#cd661d" cx="1019.54" cy="520.896" r="5"/>
<circle fill="#cd661d" cx="797.847" cy="680.586" r="5"/>
<circle fill="#cd661d" cx="850.919" cy="793.811" r="5"/>
<circle fill="#cd661d" cx="814.585" cy="679.401" r="5"/>
<circle fill="#cd661d" cx="900.535" cy="444.001" r="5"/>
<circle fill="#1874cd" cx="1094.25" cy="589.084" r="5"/>
<circle fill="#1874cd" cx="1093.49" cy="592.269" r="5"/>
<circle fill="#8b864e" cx="1148.9" cy="514.234" r="5"/>
<circle fill="#8b864e" cx="1198.21" cy="550.722" r="5"/>
<circle fill="#8b864e" cx="1063.13" cy="483.722" r="5"/>
<circle fill="#8b864e" cx="1172.23" cy="552.558" r="5"/>
<circle fill="#000000" cx="1287.58" cy="793.224" r="5"/>
<text fill="#000000" x="893.605" y="68.4668" font-size="12" text-anchor="start" dy="0" font-family="Helvetica">PC1 (26.1%)</text>
<text fill="#000000" x="518.654" y="366.938" font-size="12" text-anchor="start" dy="0" font-family="Helvetica">PC2 (14.7%)</text>
<text fill="#000000" x="1478.31" y="254.693" font-size="12" text-anchor="start" dy="0" font-family="Helvetica">PC3 (14%)</text>
<text fill="#000000" x="930.752" y="568.402" font-size="9" text-anchor="start" dy="0" font-family="Helvetica">AL200-1a_URM2</text>
<text fill="#000000" x="876.357" y="618.479" font-size="9" text-anchor="start" dy="0" font-family="Helvetica">STS_30_URM2</text>
<text fill="#000000" x="1107.01" y="555.922" font-size="9" text-anchor="start" dy="0" font-family="Helvetica">UW101_867_URM2</text>
<text fill="#000000" x="893.809" y="545.406" font-size="9" text-anchor="start" dy="0" font-family="Helvetica">STS_22_ULM2</text>
<polygon fill="#cd661d" fill-opacity="0.298039" shape-rendering="crispEdges" points="1047.64,573.842 1035.44,630.552 947.557,613.279"/>
<text fill="#000000" x="983.641" y="579.042" font-size="9" text-anchor="start" dy="0" font-family="Helvetica">STS_8_ULM2</text>
<polygon fill="#cd661d" fill-opacity="0.298039" shape-rendering="crispEdges" points="1047.64,573.842 947.557,613.279 1082.14,301.567"/>
<text fill="#000000" x="1121.44" y="493.073" font-size="9" text-anchor="start" dy="0" font-family="Helvetica">AL417-1d_ULM2</text>
<polygon fill="#cd661d" fill-opacity="0.298039" shape-rendering="crispEdges" points="1035.44,630.552 947.557,613.279 850.919,793.811"/>
<polygon fill="#e41a1c" fill-opacity="0.298039" shape-rendering="crispEdges" points="1054.93,442.43 1198.24,487.873 1009.15,563.202"/>
<text fill="#000000" x="976.432" y="503.24" font-size="9" text-anchor="start" dy="0" font-family="Helvetica">Ased_ULM2</text>
<text fill="#000000" x="941.145" y="526.097" font-size="9" text-anchor="start" dy="0" font-family="Helvetica">STW_183_ULM2</text>
<polygon fill="#cd661d" fill-opacity="0.298039" shape-rendering="crispEdges" points="1047.64,573.842 1035.44,630.552 1082.14,301.567"/>
<polygon fill="#8b864e" fill-opacity="0.298039" shape-rendering="crispEdges" points="1148.9,514.234 1198.21,550.722 1172.23,552.558"/>
<text fill="#000000" x="960.238" y="635.752" font-size="9" text-anchor="start" dy="0" font-family="Helvetica">STS_52a_ULM2</text>
<text fill="#000000" x="1087.47" y="468.206" font-size="9" text-anchor="start" dy="0" font-family="Helvetica">SKW_33_URM2</text>
<text fill="#000000" x="1156.82" y="521.676" font-size="9" text-anchor="start" dy="0" font-family="Helvetica">KNM-ER_1590M_ULM2</text>
<polygon fill="#cd661d" fill-opacity="0.298039" shape-rendering="crispEdges" points="947.557,613.279 1082.14,301.567 751.665,492.208"/>
<text fill="#000000" x="1077.03" y="557.758" font-size="9" text-anchor="start" dy="0" font-family="Helvetica">UW101_1277_ULM2</text>
<polygon fill="#e41a1c" fill-opacity="0.298039" shape-rendering="crispEdges" points="931.113,271.151 1198.24,487.873 1009.15,563.202"/>
<polygon fill="#cd661d" fill-opacity="0.298039" shape-rendering="crispEdges" points="947.557,613.279 850.919,793.811 751.665,492.208"/>
<text fill="#000000" x="1012.54" y="306.768" font-size="9" text-anchor="start" dy="0" font-family="Helvetica">STS_56_ULM2</text>
<text fill="#000000" x="1057.7" y="519.435" font-size="9" text-anchor="start" dy="0" font-family="Helvetica">UW101_593_URM2</text>
<polygon fill="#1874cd" fill-opacity="0.298039" shape-rendering="crispEdges" points="1094.25,589.084 1163.47,463.006 1176.03,603.229"/>
<polygon fill="#8b864e" fill-opacity="0.298039" shape-rendering="crispEdges" points="1198.21,550.722 1172.23,552.558 1063.13,483.722"/>
<polygon fill="#1874cd" fill-opacity="0.298039" shape-rendering="crispEdges" points="1094.25,589.084 1163.47,463.006 1039.44,380.104"/>
<polygon fill="#8b864e" fill-opacity="0.298039" shape-rendering="crispEdges" points="1148.9,514.234 1198.21,550.722 1063.13,483.722"/>
<text fill="#000000" x="1110.43" y="608.429" font-size="9" text-anchor="start" dy="0" font-family="Helvetica">SK_49_URM2</text>
<polygon fill="#4daf4a" fill-opacity="0.298039" shape-rendering="crispEdges" points="1093.28,478.695 1267.22,516.476 1096.31,343.786"/>
<text fill="#000000" x="973.841" y="385.304" font-size="9" text-anchor="start" dy="0" font-family="Helvetica">SK_47_URM2</text>
<text fill="#000000" x="1003.51" y="348.986" font-size="9" text-anchor="start" dy="0" font-family="Helvetica">KNMER1813_ULM2</text>
<polygon fill="#e41a1c" fill-opacity="0.298039" shape-rendering="crispEdges" points="1054.93,442.43 931.113,271.151 1009.15,563.202"/>
<polygon fill="#1874cd" fill-opacity="0.298039" shape-rendering="crispEdges" points="1099.33,270.003 1163.47,463.006 1039.44,380.104"/>
<text fill="#000000" x="770.12" y="799.011" font-size="9" text-anchor="start" dy="0" font-family="Helvetica">STW_252I_ULM2</text>
<polygon fill="#8b864e" fill-opacity="0.298039" shape-rendering="crispEdges" points="1148.9,514.234 1172.23,552.558 1063.13,483.722"/>
<text fill="#000000" x="1026.68" y="369.827" font-size="9" text-anchor="start" dy="0" font-family="Helvetica">AL666-1_ULM2</text>
<text fill="#000000" x="1013.45" y="594.284" font-size="9" text-anchor="start" dy="0" font-family="Helvetica">TM_1517a_ULM2</text>
<text fill="#000000" x="1009.49" y="597.469" font-size="9" text-anchor="start" dy="0" font-family="Helvetica">TM_1517C_URM2</text>
<text fill="#000000" x="1043.8" y="572.923" font-size="9" text-anchor="start" dy="0" font-family="Helvetica">DNH_7_URM2</text>
<polygon fill="#e41a1c" fill-opacity="0.298039" shape-rendering="crispEdges" points="1054.93,442.43 931.113,271.151 1198.24,487.873"/>
<text fill="#000000" x="1034.08" y="483.896" font-size="9" text-anchor="start" dy="0" font-family="Helvetica">OH13_ULM2</text>
<text fill="#000000" x="1074.28" y="580.916" font-size="9" text-anchor="start" dy="0" font-family="Helvetica">Prob_SK_834_URM2</text>
<text fill="#000000" x="982.132" y="447.63" font-size="9" text-anchor="start" dy="0" font-family="Helvetica">AL199-1_URM2</text>
<polygon fill="#1874cd" fill-opacity="0.298039" shape-rendering="crispEdges" points="1094.25,589.084 1176.03,603.229 1085.82,749.635"/>
<text fill="#000000" x="1139.55" y="478.156" font-size="9" text-anchor="start" dy="0" font-family="Helvetica">OH39_ULM2</text>
<polygon fill="#1874cd" fill-opacity="0.298039" shape-rendering="crispEdges" points="1094.25,589.084 1085.82,749.635 1039.44,380.104"/>
<polygon fill="#1874cd" fill-opacity="0.298039" shape-rendering="crispEdges" points="1172.68,575.715 1176.03,603.229 1085.82,749.635"/>
<text fill="#000000" x="680.465" y="497.408" font-size="9" text-anchor="start" dy="0" font-family="Helvetica">STS_28_URM2</text>
<polygon fill="#cd661d" fill-opacity="0.298039" shape-rendering="crispEdges" points="797.847,680.586 850.919,793.811 751.665,492.208"/>
<polygon fill="#1874cd" fill-opacity="0.298039" shape-rendering="crispEdges" points="1163.47,463.006 1176.03,603.229 1193.38,339.715"/>
<polygon fill="#cd661d" fill-opacity="0.298039" shape-rendering="crispEdges" points="1035.44,630.552 900.535,444.001 1082.14,301.567"/>
<polygon fill="#4daf4a" fill-opacity="0.298039" shape-rendering="crispEdges" points="1093.28,478.695 1267.22,516.476 1233.53,822.995"/>
<polygon fill="#4daf4a" fill-opacity="0.298039" shape-rendering="crispEdges" points="1120.71,426.926 1267.22,516.476 1096.31,343.786"/>
<polygon fill="#1874cd" fill-opacity="0.298039" shape-rendering="crispEdges" points="1099.33,270.003 1111.6,455.488 1039.44,380.104"/>
<polygon fill="#cd661d" fill-opacity="0.298039" shape-rendering="crispEdges" points="1035.44,630.552 900.535,444.001 850.919,793.811"/>
<text fill="#000000" x="1033.73" y="275.203" font-size="9" text-anchor="start" dy="0" font-family="Helvetica">SK_52_URM2</text>
<polygon fill="#cd661d" fill-opacity="0.298039" shape-rendering="crispEdges" points="797.847,680.586 814.585,679.401 850.919,793.811"/>
<polygon fill="#1874cd" fill-opacity="0.298039" shape-rendering="crispEdges" points="1111.6,455.488 1085.82,749.635 1039.44,380.104"/>
<polygon fill="#1874cd" fill-opacity="0.298039" shape-rendering="crispEdges" points="1099.33,270.003 1163.47,463.006 1193.38,339.715"/>
<polygon fill="#1874cd" fill-opacity="0.298039" shape-rendering="crispEdges" points="1172.68,575.715 1176.03,603.229 1193.38,339.715"/>
<polygon fill="#4daf4a" fill-opacity="0.298039" shape-rendering="crispEdges" points="1093.28,478.695 1120.71,426.926 1096.31,343.786"/>
<polygon fill="#cd661d" fill-opacity="0.298039" shape-rendering="crispEdges" points="797.847,680.586 814.585,679.401 751.665,492.208"/>
<polygon fill="#cd661d" fill-opacity="0.298039" shape-rendering="crispEdges" points="900.535,444.001 1082.14,301.567 751.665,492.208"/>
<text fill="#000000" x="717.847" y="685.787" font-size="9" text-anchor="start" dy="0" font-family="Helvetica">STW_188_URM2</text>
<text fill="#000000" x="967.929" y="488.922" font-size="9" text-anchor="start" dy="0" font-family="Helvetica">UW101_1015_ULM2</text>
<text fill="#000000" x="801.179" y="540.252" font-size="9" text-anchor="start" dy="0" font-family="Helvetica">STS_37_ULM2</text>
<text fill="#000000" x="1011.42" y="754.835" font-size="9" text-anchor="start" dy="0" font-family="Helvetica">SK13.14_URM2</text>
<text fill="#000000" x="1075.21" y="520.545" font-size="9" text-anchor="start" dy="0" font-family="Helvetica">Prob_SK_48_URM2</text>
<text fill="#000000" x="1196.38" y="798.424" font-size="9" text-anchor="start" dy="0" font-family="Helvetica">UW_105_074_URM</text>
<polygon fill="#4daf4a" fill-opacity="0.298039" shape-rendering="crispEdges" points="1120.71,426.926 1267.22,516.476 1233.53,822.995"/>
<polygon fill="#1874cd" fill-opacity="0.298039" shape-rendering="crispEdges" points="1172.68,575.715 1085.82,749.635 1193.38,339.715"/>
<text fill="#000000" x="859.913" y="276.352" font-size="9" text-anchor="start" dy="0" font-family="Helvetica">AL486-1_ULM2</text>
<text fill="#000000" x="736.186" y="684.602" font-size="9" text-anchor="start" dy="0" font-family="Helvetica">STW_280_ULM2</text>
<polygon fill="#cd661d" fill-opacity="0.298039" shape-rendering="crispEdges" points="814.585,679.401 900.535,444.001 850.919,793.811"/>
<text fill="#000000" x="1022" y="460.688" font-size="9" text-anchor="start" dy="0" font-family="Helvetica">SK_16.1591_ULM2</text>
<polygon fill="#cd661d" fill-opacity="0.298039" shape-rendering="crispEdges" points="814.585,679.401 900.535,444.001 751.665,492.208"/>
<polygon fill="#1874cd" fill-opacity="0.298039" shape-rendering="crispEdges" points="1099.33,270.003 1111.6,455.488 1193.38,339.715"/>
<polygon fill="#4daf4a" fill-opacity="0.298039" shape-rendering="crispEdges" points="1093.28,478.695 1120.71,426.926 1233.53,822.995"/>
<polygon fill="#1874cd" fill-opacity="0.298039" shape-rendering="crispEdges" points="1111.6,455.488 1085.82,749.635 1193.38,339.715"/>
<text fill="#000000" x="1174.33" y="828.195" font-size="9" text-anchor="start" dy="0" font-family="Helvetica">OH16_ULM2</text>
<text fill="#000000" x="1007.57" y="793.75" font-size="9" text-anchor="start" dy="0" font-family="Helvetica">KNM-WT_17400_URM2</text>
<text fill="#000000" x="1010.31" y="432.126" font-size="9" text-anchor="start" dy="0" font-family="Helvetica">KNM-ER_1808H_URM2</text>
<text fill="#000000" x="1114.98" y="344.915" font-size="9" text-anchor="start" dy="0" font-family="Helvetica">DNH_108_URM2</text>
<text fill="#000000" x="822.135" y="449.201" font-size="9" text-anchor="start" dy="0" font-family="Helvetica">STW_529_ULM2</text>
</g>
</svg>
