<?xml version="1.0" encoding="UTF-8" standalone="no"?>
<svg xmlns="http://www.w3.org/2000/svg"
     xmlns:xlink="http://www.w3.org/1999/xlink"
     width="1740pt" height="970pt" viewBox="0 0 1740 970">
<title>D:/3D_GM/Projects/UW105/Results/Taxonomic_assessment/UW105-074/3D_PCA_labelled_updated_V2.svg</title>
<desc>
Creator: GL2PS 1.4.2, (C) 1999-2020 C. Geuzaine
For: Generated by rgl
CreationDate: Thu Jan 29 12:42:16 2026
</desc>
<defs>
</defs>
<g>
<polygon fill="#ffffff" shape-rendering="crispEdges" points="0,970 1740,970 1740,0"/>
<polygon fill="#ffffff" shape-rendering="crispEdges" points="0,970 1740,0 0,0"/>
<polyline fill="none" stroke="#1d1d1d" stroke-width="1" stroke-linecap="butt" stroke-linejoin="miter" points="638.315,258.354 1171.81,254.857"/>
<polyline fill="none" stroke="#4c4c4c" stroke-width="1" stroke-linecap="butt" stroke-linejoin="miter" points="1171.81,254.857 1166.19,786.952"/>
<polyline fill="none" stroke="#f6f6f6" stroke-width="1" stroke-linecap="butt" stroke-linejoin="miter" points="1166.19,786.952 632.692,790.448"/>
<polyline fill="none" stroke="#595959" stroke-width="1" stroke-linecap="butt" stroke-linejoin="miter" points="632.692,790.448 638.315,258.354"/>
<polyline fill="none" stroke="#000000" stroke-width="1" stroke-linecap="butt" stroke-linejoin="miter" points="573.814,183.048 1107.31,179.552 1171.81,254.857 638.315,258.354 573.814,183.048"/>
<polyline fill="none" stroke="#000000" stroke-width="1" stroke-linecap="butt" stroke-linejoin="miter" points="638.315,258.354 632.692,790.448 568.191,715.143 573.814,183.048 638.315,258.354"/>
<polyline fill="none" stroke="#000000" stroke-width="1" stroke-linecap="butt" stroke-linejoin="miter" points="572.375,319.207 568.075,314.187"/>
<text fill="#000000" x="549.375" y="315.167" font-size="12" text-anchor="start" dy="0" font-family="Helvetica">-0.05</text>
<polyline fill="none" stroke="#000000" stroke-width="1" stroke-linecap="butt" stroke-linejoin="miter" points="570.827,465.667 566.527,460.646"/>
<text fill="#000000" x="558.627" y="461.625" font-size="12" text-anchor="start" dy="0" font-family="Helvetica">0</text>
<polyline fill="none" stroke="#000000" stroke-width="1" stroke-linecap="butt" stroke-linejoin="miter" points="569.279,612.125 564.979,607.105"/>
<text fill="#000000" x="548.279" y="608.085" font-size="12" text-anchor="start" dy="0" font-family="Helvetica">0.05</text>
<polyline fill="none" stroke="#000000" stroke-width="1" stroke-linecap="butt" stroke-linejoin="miter" points="614.181,182.784 609.881,177.763"/>
<text fill="#000000" x="591.181" y="178.743" font-size="12" text-anchor="start" dy="0" font-family="Helvetica">-0.06</text>
<polyline fill="none" stroke="#000000" stroke-width="1" stroke-linecap="butt" stroke-linejoin="miter" points="700.253,182.219 695.954,177.199"/>
<text fill="#000000" x="677.253" y="178.179" font-size="12" text-anchor="start" dy="0" font-family="Helvetica">-0.04</text>
<polyline fill="none" stroke="#000000" stroke-width="1" stroke-linecap="butt" stroke-linejoin="miter" points="786.326,181.655 782.026,176.635"/>
<text fill="#000000" x="763.326" y="177.615" font-size="12" text-anchor="start" dy="0" font-family="Helvetica">-0.02</text>
<polyline fill="none" stroke="#000000" stroke-width="1" stroke-linecap="butt" stroke-linejoin="miter" points="872.398,181.091 868.098,176.071"/>
<text fill="#000000" x="860.198" y="177.05" font-size="12" text-anchor="start" dy="0" font-family="Helvetica">0</text>
<polyline fill="none" stroke="#000000" stroke-width="1" stroke-linecap="butt" stroke-linejoin="miter" points="958.471,180.527 954.171,175.507"/>
<text fill="#000000" x="937.471" y="176.486" font-size="12" text-anchor="start" dy="0" font-family="Helvetica">0.02</text>
<polyline fill="none" stroke="#000000" stroke-width="1" stroke-linecap="butt" stroke-linejoin="miter" points="1044.54,179.963 1040.24,174.943"/>
<text fill="#000000" x="1023.54" y="175.922" font-size="12" text-anchor="start" dy="0" font-family="Helvetica">0.04</text>
<polyline fill="none" stroke="#000000" stroke-width="1" stroke-linecap="butt" stroke-linejoin="miter" points="627.224,784.063 626.849,819.536"/>
<text fill="#000000" x="612.074" y="861.009" font-size="12" text-anchor="start" dy="0" font-family="Helvetica">-0.04</text>
<polyline fill="none" stroke="#000000" stroke-width="1" stroke-linecap="butt" stroke-linejoin="miter" points="617.269,772.442 616.895,807.915"/>
<text fill="#000000" x="602.12" y="849.388" font-size="12" text-anchor="start" dy="0" font-family="Helvetica">-0.02</text>
<polyline fill="none" stroke="#000000" stroke-width="1" stroke-linecap="butt" stroke-linejoin="miter" points="607.315,760.82 606.94,796.293"/>
<text fill="#000000" x="602.965" y="837.766" font-size="12" text-anchor="start" dy="0" font-family="Helvetica">0</text>
<polyline fill="none" stroke="#000000" stroke-width="1" stroke-linecap="butt" stroke-linejoin="miter" points="597.361,749.199 596.986,784.671"/>
<text fill="#000000" x="584.211" y="826.145" font-size="12" text-anchor="start" dy="0" font-family="Helvetica">0.02</text>
<polyline fill="none" stroke="#000000" stroke-width="1" stroke-linecap="butt" stroke-linejoin="miter" points="587.406,737.577 587.032,773.05"/>
<text fill="#000000" x="574.257" y="814.523" font-size="12" text-anchor="start" dy="0" font-family="Helvetica">0.04</text>
<polyline fill="none" stroke="#000000" stroke-width="1" stroke-linecap="butt" stroke-linejoin="miter" points="577.452,725.956 577.077,761.428"/>
<text fill="#000000" x="564.303" y="802.901" font-size="12" text-anchor="start" dy="0" font-family="Helvetica">0.06</text>
<polyline fill="none" stroke="#000000" stroke-width="1" stroke-linecap="butt" stroke-linejoin="miter" points="638.315,258.354 638.315,258.354"/>
<polyline fill="none" stroke="#000000" stroke-width="1" stroke-linecap="butt" stroke-linejoin="miter" points="1101.68,711.646 1101.68,711.646"/>
<circle fill="#e41a1c" cx="975.343" cy="488.569" r="5"/>
<circle fill="#e41a1c" cx="957.086" cy="407.001" r="5"/>
<circle fill="#e41a1c" cx="1014.87" cy="586.245" r="5"/>
<circle fill="#e41a1c" cx="1045.34" cy="391.686" r="5"/>
<circle fill="#4daf4a" cx="1055.31" cy="511.702" r="5"/>
<circle fill="#8b2323" cx="971.792" cy="447.369" r="5"/>
<circle fill="#1874cd" cx="891.582" cy="545.95" r="5"/>
<circle fill="#1874cd" cx="990.794" cy="655.53" r="5"/>
<circle fill="#4daf4a" cx="994.481" cy="655.217" r="5"/>
<circle fill="#4daf4a" cx="912.465" cy="598.499" r="5"/>
<circle fill="#984ea3" cx="624.867" cy="631.461" r="5"/>
<circle fill="#4daf4a" cx="1076.71" cy="505.09" r="5"/>
<circle fill="#4daf4a" cx="955.436" cy="524.152" r="5"/>
<circle fill="#4daf4a" cx="633.795" cy="725.438" r="5"/>
<circle fill="#4daf4a" cx="976.405" cy="616.72" r="5"/>
<circle fill="#1874cd" cx="902.35" cy="615.966" r="5"/>
<circle fill="#1874cd" cx="891.927" cy="603.015" r="5"/>
<circle fill="#1874cd" cx="702.822" cy="566.744" r="5"/>
<circle fill="#1874cd" cx="931.18" cy="566.51" r="5"/>
<circle fill="#1874cd" cx="1039.67" cy="458.022" r="5"/>
<circle fill="#1874cd" cx="893.245" cy="594.515" r="5"/>
<circle fill="#1874cd" cx="1102.66" cy="521.226" r="5"/>
<circle fill="#1874cd" cx="1021.84" cy="557.712" r="5"/>
<circle fill="#cd661d" cx="927.8" cy="458.786" r="5"/>
<circle fill="#cd661d" cx="943.896" cy="379.562" r="5"/>
<circle fill="#cd661d" cx="872.685" cy="235.608" r="5"/>
<circle fill="#cd661d" cx="901.964" cy="361.116" r="5"/>
<circle fill="#cd661d" cx="836.096" cy="358.16" r="5"/>
<circle fill="#cd661d" cx="864.65" cy="463.689" r="5"/>
<circle fill="#cd661d" cx="1121.44" cy="480.074" r="5"/>
<circle fill="#cd661d" cx="950.163" cy="438.362" r="5"/>
<circle fill="#cd661d" cx="710.483" cy="307.18" r="5"/>
<circle fill="#cd661d" cx="669.328" cy="339.82" r="5"/>
<circle fill="#cd661d" cx="697.95" cy="331.889" r="5"/>
<circle fill="#cd661d" cx="842.84" cy="419.377" r="5"/>
<circle fill="#1874cd" cx="875.892" cy="530.833" r="5"/>
<circle fill="#1874cd" cx="870.797" cy="532.002" r="5"/>
<circle fill="#8b864e" cx="962.9" cy="559.857" r="5"/>
<circle fill="#8b864e" cx="985.833" cy="579.331" r="5"/>
<circle fill="#8b864e" cx="916.47" cy="516.938" r="5"/>
<circle fill="#8b864e" cx="942.489" cy="580.213" r="5"/>
<circle fill="#000000" cx="702.862" cy="747.124" r="5"/>
<text fill="#000000" x="481.835" y="435.247" font-size="12" text-anchor="start" dy="0" font-family="Helvetica">PC1 (26.1%)</text>
<text fill="#000000" x="787.335" y="131.746" font-size="12" text-anchor="start" dy="0" font-family="Helvetica">PC2 (14.7%)</text>
<text fill="#000000" x="532.176" y="900.92" font-size="12" text-anchor="start" dy="0" font-family="Helvetica">PC3 (14%)</text>
<text fill="#000000" x="830.764" y="366.316" font-size="9" text-anchor="start" dy="0" font-family="Helvetica">STS_30_URM2</text>
<text fill="#000000" x="878.687" y="412.201" font-size="9" text-anchor="start" dy="0" font-family="Helvetica">AL200-1a_URM2</text>
<text fill="#000000" x="894.632" y="584.531" font-size="9" text-anchor="start" dy="0" font-family="Helvetica">UW101_867_URM2</text>
<polygon fill="#cd661d" fill-opacity="0.298039" shape-rendering="crispEdges" points="927.8,458.786 864.65,463.689 901.964,361.116"/>
<text fill="#000000" x="863.8" y="463.986" font-size="9" text-anchor="start" dy="0" font-family="Helvetica">STS_8_ULM2</text>
<polygon fill="#cd661d" fill-opacity="0.298039" shape-rendering="crispEdges" points="864.65,463.689 901.964,361.116 669.328,339.82"/>
<text fill="#000000" x="789.45" y="468.889" font-size="9" text-anchor="start" dy="0" font-family="Helvetica">STS_52a_ULM2</text>
<text fill="#000000" x="874.296" y="384.762" font-size="9" text-anchor="start" dy="0" font-family="Helvetica">STS_22_ULM2</text>
<polygon fill="#8b864e" fill-opacity="0.298039" shape-rendering="crispEdges" points="962.9,559.857 985.833,579.331 942.489,580.213"/>
<text fill="#000000" x="938.075" y="591.445" font-size="9" text-anchor="start" dy="0" font-family="Helvetica">AL417-1d_ULM2</text>
<text fill="#000000" x="884.082" y="660.417" font-size="9" text-anchor="start" dy="0" font-family="Helvetica">KNM-ER_1590M_ULM2</text>
<polygon fill="#cd661d" fill-opacity="0.298039" shape-rendering="crispEdges" points="927.8,458.786 901.964,361.116 1121.44,480.074"/>
<text fill="#000000" x="588.528" y="345.02" font-size="9" text-anchor="start" dy="0" font-family="Helvetica">STW_252I_ULM2</text>
<text fill="#000000" x="827.645" y="599.715" font-size="9" text-anchor="start" dy="0" font-family="Helvetica">SK_49_URM2</text>
<text fill="#000000" x="847.289" y="585.413" font-size="9" text-anchor="start" dy="0" font-family="Helvetica">UW101_1277_ULM2</text>
<polygon fill="#e41a1c" fill-opacity="0.298039" shape-rendering="crispEdges" points="975.343,488.569 1014.87,586.245 957.086,407.001"/>
<text fill="#000000" x="871.763" y="443.562" font-size="9" text-anchor="start" dy="0" font-family="Helvetica">STW_183_ULM2</text>
<polygon fill="#cd661d" fill-opacity="0.298039" shape-rendering="crispEdges" points="927.8,458.786 864.65,463.689 1121.44,480.074"/>
<text fill="#000000" x="945.844" y="562.913" font-size="9" text-anchor="start" dy="0" font-family="Helvetica">SKW_33_URM2</text>
<text fill="#000000" x="914.992" y="452.569" font-size="9" text-anchor="start" dy="0" font-family="Helvetica">Ased_ULM2</text>
<polygon fill="#1874cd" fill-opacity="0.298039" shape-rendering="crispEdges" points="875.892,530.833 1021.84,557.712 893.245,594.515"/>
<polygon fill="#cd661d" fill-opacity="0.298039" shape-rendering="crispEdges" points="901.964,361.116 669.328,339.82 872.685,235.608"/>
<polygon fill="#8b864e" fill-opacity="0.298039" shape-rendering="crispEdges" points="985.833,579.331 942.489,580.213 916.47,516.938"/>
<text fill="#000000" x="871.7" y="565.058" font-size="9" text-anchor="start" dy="0" font-family="Helvetica">UW101_593_URM2</text>
<text fill="#000000" x="611.662" y="752.324" font-size="9" text-anchor="start" dy="0" font-family="Helvetica">UW_105_074_URM</text>
<polygon fill="#1874cd" fill-opacity="0.298039" shape-rendering="crispEdges" points="875.892,530.833 893.245,594.515 702.822,566.744"/>
<polygon fill="#8b864e" fill-opacity="0.298039" shape-rendering="crispEdges" points="962.9,559.857 985.833,579.331 916.47,516.938"/>
<polygon fill="#1874cd" fill-opacity="0.298039" shape-rendering="crispEdges" points="891.927,603.015 893.245,594.515 702.822,566.744"/>
<text fill="#000000" x="795.092" y="536.033" font-size="9" text-anchor="start" dy="0" font-family="Helvetica">TM_1517a_ULM2</text>
<text fill="#000000" x="786.797" y="537.203" font-size="9" text-anchor="start" dy="0" font-family="Helvetica">TM_1517C_URM2</text>
<text fill="#000000" x="793.527" y="608.215" font-size="9" text-anchor="start" dy="0" font-family="Helvetica">Prob_SK_834_URM2</text>
<text fill="#000000" x="824.381" y="551.15" font-size="9" text-anchor="start" dy="0" font-family="Helvetica">DNH_7_URM2</text>
<polygon fill="#1874cd" fill-opacity="0.298039" shape-rendering="crispEdges" points="875.892,530.833 1021.84,557.712 1039.67,458.022"/>
<polygon fill="#4daf4a" fill-opacity="0.298039" shape-rendering="crispEdges" points="955.436,524.152 994.481,655.217 633.795,725.438"/>
<polygon fill="#cd661d" fill-opacity="0.298039" shape-rendering="crispEdges" points="901.964,361.116 1121.44,480.074 872.685,235.608"/>
<polygon fill="#8b864e" fill-opacity="0.298039" shape-rendering="crispEdges" points="962.9,559.857 942.489,580.213 916.47,516.938"/>
<polygon fill="#e41a1c" fill-opacity="0.298039" shape-rendering="crispEdges" points="1045.34,391.686 1014.87,586.245 957.086,407.001"/>
<text fill="#000000" x="628.422" y="571.944" font-size="9" text-anchor="start" dy="0" font-family="Helvetica">SK13.14_URM2</text>
<polygon fill="#4daf4a" fill-opacity="0.298039" shape-rendering="crispEdges" points="955.436,524.152 994.481,655.217 1076.71,505.09"/>
<polygon fill="#1874cd" fill-opacity="0.298039" shape-rendering="crispEdges" points="875.892,530.833 702.822,566.744 1039.67,458.022"/>
<polygon fill="#cd661d" fill-opacity="0.298039" shape-rendering="crispEdges" points="710.483,307.18 697.95,331.889 669.328,339.82"/>
<text fill="#000000" x="917.205" y="621.92" font-size="9" text-anchor="start" dy="0" font-family="Helvetica">OH39_ULM2</text>
<polygon fill="#cd661d" fill-opacity="0.298039" shape-rendering="crispEdges" points="710.483,307.18 669.328,339.82 872.685,235.608"/>
<text fill="#000000" x="574.595" y="730.638" font-size="9" text-anchor="start" dy="0" font-family="Helvetica">OH16_ULM2</text>
<text fill="#000000" x="896.235" y="529.353" font-size="9" text-anchor="start" dy="0" font-family="Helvetica">OH13_ULM2</text>
<polygon fill="#cd661d" fill-opacity="0.298039" shape-rendering="crispEdges" points="864.65,463.689 842.84,419.377 669.328,339.82"/>
<polygon fill="#e41a1c" fill-opacity="0.298039" shape-rendering="crispEdges" points="975.343,488.569 1045.34,391.686 957.086,407.001"/>
<polygon fill="#1874cd" fill-opacity="0.298039" shape-rendering="crispEdges" points="1021.84,557.712 893.245,594.515 990.794,655.53"/>
<text fill="#000000" x="974.07" y="463.223" font-size="9" text-anchor="start" dy="0" font-family="Helvetica">SK_47_URM2</text>
<text fill="#000000" x="1051.84" y="485.274" font-size="9" text-anchor="start" dy="0" font-family="Helvetica">STS_56_ULM2</text>
<polygon fill="#1874cd" fill-opacity="0.298039" shape-rendering="crispEdges" points="1102.66,521.226 1021.84,557.712 1039.67,458.022"/>
<text fill="#000000" x="902.543" y="493.77" font-size="9" text-anchor="start" dy="0" font-family="Helvetica">AL199-1_URM2</text>
<text fill="#000000" x="983.907" y="510.29" font-size="9" text-anchor="start" dy="0" font-family="Helvetica">KNMER1813_ULM2</text>
<text fill="#000000" x="630.483" y="312.38" font-size="9" text-anchor="start" dy="0" font-family="Helvetica">STW_188_URM2</text>
<polygon fill="#1874cd" fill-opacity="0.298039" shape-rendering="crispEdges" points="891.927,603.015 893.245,594.515 990.794,655.53"/>
<polygon fill="#4daf4a" fill-opacity="0.298039" shape-rendering="crispEdges" points="912.465,598.499 994.481,655.217 633.795,725.438"/>
<text fill="#000000" x="984.106" y="516.902" font-size="9" text-anchor="start" dy="0" font-family="Helvetica">AL666-1_ULM2</text>
<polygon fill="#1874cd" fill-opacity="0.298039" shape-rendering="crispEdges" points="931.18,566.51 702.822,566.744 1039.67,458.022"/>
<polygon fill="#e41a1c" fill-opacity="0.298039" shape-rendering="crispEdges" points="975.343,488.569 1045.34,391.686 1014.87,586.245"/>
<polygon fill="#4daf4a" fill-opacity="0.298039" shape-rendering="crispEdges" points="912.465,598.499 994.481,655.217 1076.71,505.09"/>
<polygon fill="#cd661d" fill-opacity="0.298039" shape-rendering="crispEdges" points="864.65,463.689 842.84,419.377 1121.44,480.074"/>
<polygon fill="#cd661d" fill-opacity="0.298039" shape-rendering="crispEdges" points="710.483,307.18 697.95,331.889 872.685,235.608"/>
<polygon fill="#1874cd" fill-opacity="0.298039" shape-rendering="crispEdges" points="891.927,603.015 702.822,566.744 990.794,655.53"/>
<text fill="#000000" x="809.55" y="621.167" font-size="9" text-anchor="start" dy="0" font-family="Helvetica">Prob_SK_48_URM2</text>
<text fill="#000000" x="514.467" y="636.661" font-size="9" text-anchor="start" dy="0" font-family="Helvetica">KNM-WT_17400_URM2</text>
<text fill="#000000" x="619.55" y="337.089" font-size="9" text-anchor="start" dy="0" font-family="Helvetica">STW_280_ULM2</text>
<text fill="#000000" x="821.27" y="522.138" font-size="9" text-anchor="start" dy="0" font-family="Helvetica">UW101_1015_ULM2</text>
<text fill="#000000" x="801.485" y="240.808" font-size="9" text-anchor="start" dy="0" font-family="Helvetica">STS_28_URM2</text>
<polygon fill="#4daf4a" fill-opacity="0.298039" shape-rendering="crispEdges" points="955.436,524.152 912.465,598.499 633.795,725.438"/>
<polygon fill="#cd661d" fill-opacity="0.298039" shape-rendering="crispEdges" points="697.95,331.889 842.84,419.377 669.328,339.82"/>
<polygon fill="#4daf4a" fill-opacity="0.298039" shape-rendering="crispEdges" points="955.436,524.152 912.465,598.499 1076.71,505.09"/>
<polygon fill="#1874cd" fill-opacity="0.298039" shape-rendering="crispEdges" points="1102.66,521.226 931.18,566.51 1039.67,458.022"/>
<text fill="#000000" x="766.496" y="363.36" font-size="9" text-anchor="start" dy="0" font-family="Helvetica">STS_37_ULM2</text>
<polygon fill="#1874cd" fill-opacity="0.298039" shape-rendering="crispEdges" points="1102.66,521.226 1021.84,557.712 990.794,655.53"/>
<polygon fill="#1874cd" fill-opacity="0.298039" shape-rendering="crispEdges" points="931.18,566.51 702.822,566.744 990.794,655.53"/>
<text fill="#000000" x="841.58" y="571.71" font-size="9" text-anchor="start" dy="0" font-family="Helvetica">SK_16.1591_ULM2</text>
<polygon fill="#cd661d" fill-opacity="0.298039" shape-rendering="crispEdges" points="842.84,419.377 1121.44,480.074 872.685,235.608"/>
<text fill="#000000" x="1037.06" y="526.426" font-size="9" text-anchor="start" dy="0" font-family="Helvetica">SK_52_URM2</text>
<polygon fill="#cd661d" fill-opacity="0.298039" shape-rendering="crispEdges" points="697.95,331.889 842.84,419.377 872.685,235.608"/>
<polygon fill="#1874cd" fill-opacity="0.298039" shape-rendering="crispEdges" points="1102.66,521.226 931.18,566.51 990.794,655.53"/>
<text fill="#000000" x="974.141" y="396.886" font-size="9" text-anchor="start" dy="0" font-family="Helvetica">AL486-1_ULM2</text>
<text fill="#000000" x="802.065" y="603.699" font-size="9" text-anchor="start" dy="0" font-family="Helvetica">KNM-ER_1808H_URM2</text>
<text fill="#000000" x="912.395" y="660.73" font-size="9" text-anchor="start" dy="0" font-family="Helvetica">DNH_108_URM2</text>
<text fill="#000000" x="764.44" y="424.577" font-size="9" text-anchor="start" dy="0" font-family="Helvetica">STW_529_ULM2</text>
</g>
</svg>
