<?xml version="1.0" encoding="UTF-8" standalone="no"?>
<svg xmlns="http://www.w3.org/2000/svg"
     xmlns:xlink="http://www.w3.org/1999/xlink"
     width="1920pt" height="1129pt" viewBox="0 0 1920 1129">
<title>D:/3D_GM/Projects/UW105/Results/Taxonomic_assessment/UW105-074/3D_PCA_clean_updated_V2.svg</title>
<desc>
Creator: GL2PS 1.4.2, (C) 1999-2020 C. Geuzaine
For: Generated by rgl
CreationDate: Thu Jan 29 12:43:48 2026
</desc>
<defs>
</defs>
<g>
<polygon fill="#ffffff" shape-rendering="crispEdges" points="0,1129 1920,1129 1920,0"/>
<polygon fill="#ffffff" shape-rendering="crispEdges" points="0,1129 1920,0 0,0"/>
<polyline fill="none" stroke="#afafaf" stroke-width="1" stroke-linecap="butt" stroke-linejoin="miter" points="652.985,234.037 1278.17,228.065"/>
<polyline fill="none" stroke="#e0e0e0" stroke-width="1" stroke-linecap="butt" stroke-linejoin="miter" points="1278.17,228.065 1285.42,852.062"/>
<polyline fill="none" stroke="#818181" stroke-width="1" stroke-linecap="butt" stroke-linejoin="miter" points="1285.42,852.062 660.235,858.034"/>
<polyline fill="none" stroke="#656565" stroke-width="1" stroke-linecap="butt" stroke-linejoin="miter" points="660.235,858.034 652.985,234.037"/>
<polyline fill="none" stroke="#000000" stroke-width="1" stroke-linecap="butt" stroke-linejoin="miter" points="641.829,900.935 660.235,858.034 1285.42,852.062 1267.01,894.963 641.829,900.935"/>
<polyline fill="none" stroke="#000000" stroke-width="1" stroke-linecap="butt" stroke-linejoin="miter" points="652.985,234.037 660.235,858.034 641.829,900.935 634.58,276.938 652.985,234.037"/>
<polyline fill="none" stroke="#000000" stroke-width="1" stroke-linecap="butt" stroke-linejoin="miter" points="636.435,436.614 635.208,439.475"/>
<text fill="#000000" x="619.581" y="448.334" font-size="12" text-anchor="start" dy="0" font-family="Helvetica">-0.05</text>
<polyline fill="none" stroke="#000000" stroke-width="1" stroke-linecap="butt" stroke-linejoin="miter" points="638.43,608.37 637.203,611.23"/>
<text fill="#000000" x="632.375" y="620.09" font-size="12" text-anchor="start" dy="0" font-family="Helvetica">0</text>
<polyline fill="none" stroke="#000000" stroke-width="1" stroke-linecap="butt" stroke-linejoin="miter" points="640.425,780.125 639.198,782.985"/>
<text fill="#000000" x="625.571" y="791.845" font-size="12" text-anchor="start" dy="0" font-family="Helvetica">0.05</text>
<polyline fill="none" stroke="#000000" stroke-width="1" stroke-linecap="butt" stroke-linejoin="miter" points="689.134,900.483 687.907,903.343"/>
<text fill="#000000" x="672.28" y="912.204" font-size="12" text-anchor="start" dy="0" font-family="Helvetica">-0.06</text>
<polyline fill="none" stroke="#000000" stroke-width="1" stroke-linecap="butt" stroke-linejoin="miter" points="790,899.52 788.772,902.38"/>
<text fill="#000000" x="773.146" y="911.24" font-size="12" text-anchor="start" dy="0" font-family="Helvetica">-0.04</text>
<polyline fill="none" stroke="#000000" stroke-width="1" stroke-linecap="butt" stroke-linejoin="miter" points="890.865,898.556 889.638,901.417"/>
<text fill="#000000" x="874.011" y="910.276" font-size="12" text-anchor="start" dy="0" font-family="Helvetica">-0.02</text>
<polyline fill="none" stroke="#000000" stroke-width="1" stroke-linecap="butt" stroke-linejoin="miter" points="991.731,897.593 990.504,900.453"/>
<text fill="#000000" x="985.677" y="909.313" font-size="12" text-anchor="start" dy="0" font-family="Helvetica">0</text>
<polyline fill="none" stroke="#000000" stroke-width="1" stroke-linecap="butt" stroke-linejoin="miter" points="1092.6,896.629 1091.37,899.489"/>
<text fill="#000000" x="1077.74" y="908.349" font-size="12" text-anchor="start" dy="0" font-family="Helvetica">0.02</text>
<polyline fill="none" stroke="#000000" stroke-width="1" stroke-linecap="butt" stroke-linejoin="miter" points="1193.46,895.666 1192.24,898.526"/>
<text fill="#000000" x="1178.61" y="907.386" font-size="12" text-anchor="start" dy="0" font-family="Helvetica">0.04</text>
<polyline fill="none" stroke="#000000" stroke-width="1" stroke-linecap="butt" stroke-linejoin="miter" points="651.425,237.674 650.942,196.075"/>
<text fill="#000000" x="636.059" y="160.475" font-size="12" text-anchor="start" dy="0" font-family="Helvetica">-0.04</text>
<polyline fill="none" stroke="#000000" stroke-width="1" stroke-linecap="butt" stroke-linejoin="miter" points="648.584,244.295 648.101,202.695"/>
<text fill="#000000" x="633.218" y="167.096" font-size="12" text-anchor="start" dy="0" font-family="Helvetica">-0.02</text>
<polyline fill="none" stroke="#000000" stroke-width="1" stroke-linecap="butt" stroke-linejoin="miter" points="645.744,250.916 645.261,209.316"/>
<text fill="#000000" x="641.177" y="173.716" font-size="12" text-anchor="start" dy="0" font-family="Helvetica">0</text>
<polyline fill="none" stroke="#000000" stroke-width="1" stroke-linecap="butt" stroke-linejoin="miter" points="642.903,257.537 642.42,215.937"/>
<text fill="#000000" x="629.537" y="180.337" font-size="12" text-anchor="start" dy="0" font-family="Helvetica">0.02</text>
<polyline fill="none" stroke="#000000" stroke-width="1" stroke-linecap="butt" stroke-linejoin="miter" points="640.063,264.157 639.58,222.558"/>
<text fill="#000000" x="626.696" y="186.958" font-size="12" text-anchor="start" dy="0" font-family="Helvetica">0.04</text>
<polyline fill="none" stroke="#000000" stroke-width="1" stroke-linecap="butt" stroke-linejoin="miter" points="637.222,270.778 636.739,229.178"/>
<text fill="#000000" x="623.856" y="193.579" font-size="12" text-anchor="start" dy="0" font-family="Helvetica">0.06</text>
<polyline fill="none" stroke="#000000" stroke-width="1" stroke-linecap="butt" stroke-linejoin="miter" points="652.985,234.037 652.985,234.037"/>
<polyline fill="none" stroke="#000000" stroke-width="1" stroke-linecap="butt" stroke-linejoin="miter" points="1267.01,894.963 1267.01,894.963"/>
<circle fill="#e41a1c" cx="1080.9" cy="562.426" r="5"/>
<circle fill="#e41a1c" cx="1034.49" cy="416.138" r="5"/>
<circle fill="#e41a1c" cx="1112.05" cy="637.593" r="5"/>
<circle fill="#e41a1c" cx="1180.5" cy="493.042" r="5"/>
<circle fill="#4daf4a" cx="1174.16" cy="586.916" r="5"/>
<circle fill="#8b2323" cx="1063.98" cy="488.248" r="5"/>
<circle fill="#1874cd" cx="976.77" cy="613.511" r="5"/>
<circle fill="#1874cd" cx="1123.93" cy="803.728" r="5"/>
<circle fill="#4daf4a" cx="1089.16" cy="716.799" r="5"/>
<circle fill="#4daf4a" cx="1028.92" cy="733.315" r="5"/>
<circle fill="#984ea3" cx="680.126" cy="745.134" r="5"/>
<circle fill="#4daf4a" cx="1198.64" cy="578.148" r="5"/>
<circle fill="#4daf4a" cx="1055.56" cy="597.735" r="5"/>
<circle fill="#4daf4a" cx="684.603" cy="836.635" r="5"/>
<circle fill="#4daf4a" cx="1080.06" cy="700.707" r="5"/>
<circle fill="#1874cd" cx="1000.88" cy="716.989" r="5"/>
<circle fill="#1874cd" cx="977.487" cy="677.834" r="5"/>
<circle fill="#1874cd" cx="759.807" cy="646.82" r="5"/>
<circle fill="#1874cd" cx="1039.24" cy="671.853" r="5"/>
<circle fill="#1874cd" cx="1154.04" cy="523.143" r="5"/>
<circle fill="#1874cd" cx="972.464" cy="653.807" r="5"/>
<circle fill="#1874cd" cx="1239.73" cy="619.679" r="5"/>
<circle fill="#1874cd" cx="1122.96" cy="611.814" r="5"/>
<circle fill="#cd661d" cx="1006.43" cy="487.874" r="5"/>
<circle fill="#cd661d" cx="1025.98" cy="400.979" r="5"/>
<circle fill="#cd661d" cx="963.718" cy="287.663" r="5"/>
<circle fill="#cd661d" cx="969.855" cy="365.112" r="5"/>
<circle fill="#cd661d" cx="924.427" cy="432.401" r="5"/>
<circle fill="#cd661d" cx="934.669" cy="498.546" r="5"/>
<circle fill="#cd661d" cx="1249.12" cy="545.772" r="5"/>
<circle fill="#cd661d" cx="1038.26" cy="477.463" r="5"/>
<circle fill="#cd661d" cx="772.341" cy="365.229" r="5"/>
<circle fill="#cd661d" cx="710.166" cy="370.9" r="5"/>
<circle fill="#cd661d" cx="761.672" cy="401.728" r="5"/>
<circle fill="#cd661d" cx="952.774" cy="545.91" r="5"/>
<circle fill="#1874cd" cx="956.759" cy="593.119" r="5"/>
<circle fill="#1874cd" cx="951.299" cy="595.572" r="5"/>
<circle fill="#8b864e" cx="1056.25" cy="619.682" r="5"/>
<circle fill="#8b864e" cx="1070.75" cy="613.906" r="5"/>
<circle fill="#8b864e" cx="1017.39" cy="606.416" r="5"/>
<circle fill="#8b864e" cx="1029.43" cy="636.028" r="5"/>
<circle fill="#000000" cx="757.117" cy="841.898" r="5"/>
<text fill="#000000" x="555.217" y="606.775" font-size="12" text-anchor="start" dy="0" font-family="Helvetica">PC1 (26.1%)</text>
<text fill="#000000" x="913.597" y="956.989" font-size="12" text-anchor="start" dy="0" font-family="Helvetica">PC2 (14.7%)</text>
<text fill="#000000" x="568.97" y="95.4863" font-size="12" text-anchor="start" dy="0" font-family="Helvetica">PC3 (14%)</text>
<polygon fill="#cd661d" fill-opacity="0.298039" shape-rendering="crispEdges" points="1006.43,487.874 934.669,498.546 969.855,365.112"/>
<polygon fill="#8b864e" fill-opacity="0.298039" shape-rendering="crispEdges" points="1056.25,619.682 1070.75,613.906 1029.43,636.028"/>
<polygon fill="#cd661d" fill-opacity="0.298039" shape-rendering="crispEdges" points="934.669,498.546 969.855,365.112 710.166,370.9"/>
<polygon fill="#cd661d" fill-opacity="0.298039" shape-rendering="crispEdges" points="1006.43,487.874 969.855,365.112 1249.12,545.772"/>
<polygon fill="#e41a1c" fill-opacity="0.298039" shape-rendering="crispEdges" points="1080.9,562.426 1112.05,637.593 1034.49,416.138"/>
<polygon fill="#1874cd" fill-opacity="0.298039" shape-rendering="crispEdges" points="956.759,593.119 1122.96,611.814 972.464,653.807"/>
<polygon fill="#8b864e" fill-opacity="0.298039" shape-rendering="crispEdges" points="1070.75,613.906 1029.43,636.028 1017.39,606.416"/>
<polygon fill="#cd661d" fill-opacity="0.298039" shape-rendering="crispEdges" points="1006.43,487.874 934.669,498.546 1249.12,545.772"/>
<polygon fill="#8b864e" fill-opacity="0.298039" shape-rendering="crispEdges" points="1056.25,619.682 1070.75,613.906 1017.39,606.416"/>
<polygon fill="#1874cd" fill-opacity="0.298039" shape-rendering="crispEdges" points="977.487,677.834 972.464,653.807 759.807,646.82"/>
<polygon fill="#1874cd" fill-opacity="0.298039" shape-rendering="crispEdges" points="956.759,593.119 972.464,653.807 759.807,646.82"/>
<polygon fill="#4daf4a" fill-opacity="0.298039" shape-rendering="crispEdges" points="1055.56,597.735 1089.16,716.799 684.603,836.635"/>
<polygon fill="#1874cd" fill-opacity="0.298039" shape-rendering="crispEdges" points="956.759,593.119 1122.96,611.814 1154.04,523.143"/>
<polygon fill="#8b864e" fill-opacity="0.298039" shape-rendering="crispEdges" points="1056.25,619.682 1029.43,636.028 1017.39,606.416"/>
<polygon fill="#4daf4a" fill-opacity="0.298039" shape-rendering="crispEdges" points="1055.56,597.735 1089.16,716.799 1198.64,578.148"/>
<polygon fill="#e41a1c" fill-opacity="0.298039" shape-rendering="crispEdges" points="1180.5,493.042 1112.05,637.593 1034.49,416.138"/>
<polygon fill="#cd661d" fill-opacity="0.298039" shape-rendering="crispEdges" points="969.855,365.112 710.166,370.9 963.718,287.663"/>
<polygon fill="#1874cd" fill-opacity="0.298039" shape-rendering="crispEdges" points="956.759,593.119 759.807,646.82 1154.04,523.143"/>
<polygon fill="#cd661d" fill-opacity="0.298039" shape-rendering="crispEdges" points="969.855,365.112 1249.12,545.772 963.718,287.663"/>
<polygon fill="#1874cd" fill-opacity="0.298039" shape-rendering="crispEdges" points="1122.96,611.814 972.464,653.807 1123.93,803.728"/>
<polygon fill="#4daf4a" fill-opacity="0.298039" shape-rendering="crispEdges" points="1028.92,733.315 1089.16,716.799 684.603,836.635"/>
<polygon fill="#1874cd" fill-opacity="0.298039" shape-rendering="crispEdges" points="1239.73,619.679 1122.96,611.814 1154.04,523.143"/>
<polygon fill="#1874cd" fill-opacity="0.298039" shape-rendering="crispEdges" points="977.487,677.834 972.464,653.807 1123.93,803.728"/>
<polygon fill="#4daf4a" fill-opacity="0.298039" shape-rendering="crispEdges" points="1028.92,733.315 1089.16,716.799 1198.64,578.148"/>
<polygon fill="#e41a1c" fill-opacity="0.298039" shape-rendering="crispEdges" points="1080.9,562.426 1180.5,493.042 1034.49,416.138"/>
<polygon fill="#1874cd" fill-opacity="0.298039" shape-rendering="crispEdges" points="1039.24,671.853 759.807,646.82 1154.04,523.143"/>
<polygon fill="#e41a1c" fill-opacity="0.298039" shape-rendering="crispEdges" points="1080.9,562.426 1180.5,493.042 1112.05,637.593"/>
<polygon fill="#1874cd" fill-opacity="0.298039" shape-rendering="crispEdges" points="977.487,677.834 759.807,646.82 1123.93,803.728"/>
<polygon fill="#cd661d" fill-opacity="0.298039" shape-rendering="crispEdges" points="934.669,498.546 952.774,545.91 710.166,370.9"/>
<polygon fill="#cd661d" fill-opacity="0.298039" shape-rendering="crispEdges" points="772.341,365.229 761.672,401.728 710.166,370.9"/>
<polygon fill="#4daf4a" fill-opacity="0.298039" shape-rendering="crispEdges" points="1055.56,597.735 1028.92,733.315 684.603,836.635"/>
<polygon fill="#cd661d" fill-opacity="0.298039" shape-rendering="crispEdges" points="772.341,365.229 710.166,370.9 963.718,287.663"/>
<polygon fill="#cd661d" fill-opacity="0.298039" shape-rendering="crispEdges" points="934.669,498.546 952.774,545.91 1249.12,545.772"/>
<polygon fill="#4daf4a" fill-opacity="0.298039" shape-rendering="crispEdges" points="1055.56,597.735 1028.92,733.315 1198.64,578.148"/>
<polygon fill="#1874cd" fill-opacity="0.298039" shape-rendering="crispEdges" points="1239.73,619.679 1122.96,611.814 1123.93,803.728"/>
<polygon fill="#1874cd" fill-opacity="0.298039" shape-rendering="crispEdges" points="1239.73,619.679 1039.24,671.853 1154.04,523.143"/>
<polygon fill="#1874cd" fill-opacity="0.298039" shape-rendering="crispEdges" points="1039.24,671.853 759.807,646.82 1123.93,803.728"/>
<polygon fill="#cd661d" fill-opacity="0.298039" shape-rendering="crispEdges" points="772.341,365.229 761.672,401.728 963.718,287.663"/>
<polygon fill="#cd661d" fill-opacity="0.298039" shape-rendering="crispEdges" points="761.672,401.728 952.774,545.91 710.166,370.9"/>
<polygon fill="#1874cd" fill-opacity="0.298039" shape-rendering="crispEdges" points="1239.73,619.679 1039.24,671.853 1123.93,803.728"/>
<polygon fill="#cd661d" fill-opacity="0.298039" shape-rendering="crispEdges" points="952.774,545.91 1249.12,545.772 963.718,287.663"/>
<polygon fill="#cd661d" fill-opacity="0.298039" shape-rendering="crispEdges" points="761.672,401.728 952.774,545.91 963.718,287.663"/>
</g>
</svg>
