<?xml version="1.0" encoding="UTF-8" standalone="no"?>
<svg xmlns="http://www.w3.org/2000/svg"
     xmlns:xlink="http://www.w3.org/1999/xlink"
     width="2048pt" height="1081pt" viewBox="0 0 2048 1081">
<title>D:/3D_GM/Projects/UW105/Results/Taxonomic_assessment/UW105_001/3D_PCA_labelled_updated.svg</title>
<desc>
Creator: GL2PS 1.4.2, (C) 1999-2020 C. Geuzaine
For: Generated by rgl
CreationDate: Wed Jan 28 12:56:29 2026
</desc>
<defs>
</defs>
<g>
<polygon fill="#ffffff" shape-rendering="crispEdges" points="0,1081 2048,1081 2048,0"/>
<polygon fill="#ffffff" shape-rendering="crispEdges" points="0,1081 2048,0 0,0"/>
<polyline fill="none" stroke="#000000" stroke-width="1" stroke-linecap="butt" stroke-linejoin="miter" points="619.973,377.122 726.021,444.967 940.219,932.867 834.171,865.021 619.973,377.122"/>
<polyline fill="none" stroke="#000000" stroke-width="1" stroke-linecap="butt" stroke-linejoin="miter" points="1107.78,148.133 1213.83,215.979 726.021,444.967 619.973,377.122 1107.78,148.133"/>
<polyline fill="none" stroke="#282828" stroke-width="1" stroke-linecap="butt" stroke-linejoin="miter" points="1213.83,215.979 1428.03,703.878"/>
<polyline fill="none" stroke="#d2d2d2" stroke-width="1" stroke-linecap="butt" stroke-linejoin="miter" points="1428.03,703.878 940.219,932.867"/>
<polyline fill="none" stroke="#474747" stroke-width="1" stroke-linecap="butt" stroke-linejoin="miter" points="940.219,932.867 726.021,444.967"/>
<polyline fill="none" stroke="#0f0f0f" stroke-width="1" stroke-linecap="butt" stroke-linejoin="miter" points="726.021,444.967 1213.83,215.979"/>
<polyline fill="none" stroke="#000000" stroke-width="1" stroke-linecap="butt" stroke-linejoin="miter" points="1265.4,333.449 1297.92,318.183"/>
<text fill="#000000" x="1323.68" y="308.917" font-size="12" text-anchor="start" dy="0" font-family="Helvetica">-0.05</text>
<polyline fill="none" stroke="#000000" stroke-width="1" stroke-linecap="butt" stroke-linejoin="miter" points="1330.7,482.187 1363.22,466.921"/>
<text fill="#000000" x="1394.05" y="457.655" font-size="12" text-anchor="start" dy="0" font-family="Helvetica">0</text>
<polyline fill="none" stroke="#000000" stroke-width="1" stroke-linecap="butt" stroke-linejoin="miter" points="1396,630.924 1428.52,615.659"/>
<text fill="#000000" x="1455.22" y="606.393" font-size="12" text-anchor="start" dy="0" font-family="Helvetica">0.05</text>
<polyline fill="none" stroke="#000000" stroke-width="1" stroke-linecap="butt" stroke-linejoin="miter" points="861.799,882.696 876.079,915.223"/>
<text fill="#000000" x="875.959" y="953.75" font-size="12" text-anchor="start" dy="0" font-family="Helvetica">-0.05</text>
<polyline fill="none" stroke="#000000" stroke-width="1" stroke-linecap="butt" stroke-linejoin="miter" points="895.23,904.084 909.51,936.611"/>
<text fill="#000000" x="920.19" y="975.138" font-size="12" text-anchor="start" dy="0" font-family="Helvetica">0</text>
<polyline fill="none" stroke="#000000" stroke-width="1" stroke-linecap="butt" stroke-linejoin="miter" points="928.662,925.472 942.941,957.999"/>
<text fill="#000000" x="944.821" y="996.526" font-size="12" text-anchor="start" dy="0" font-family="Helvetica">0.05</text>
<polyline fill="none" stroke="#000000" stroke-width="1" stroke-linecap="butt" stroke-linejoin="miter" points="1008.79,900.679 1023.07,933.206"/>
<text fill="#000000" x="1022.95" y="971.732" font-size="12" text-anchor="start" dy="0" font-family="Helvetica">-0.05</text>
<polyline fill="none" stroke="#000000" stroke-width="1" stroke-linecap="butt" stroke-linejoin="miter" points="1177.67,821.402 1191.95,853.929"/>
<text fill="#000000" x="1202.63" y="892.456" font-size="12" text-anchor="start" dy="0" font-family="Helvetica">0</text>
<polyline fill="none" stroke="#000000" stroke-width="1" stroke-linecap="butt" stroke-linejoin="miter" points="1346.55,742.125 1360.83,774.652"/>
<text fill="#000000" x="1362.71" y="813.179" font-size="12" text-anchor="start" dy="0" font-family="Helvetica">0.05</text>
<polyline fill="none" stroke="#000000" stroke-width="1" stroke-linecap="butt" stroke-linejoin="miter" points="619.973,377.122 619.973,377.122"/>
<polyline fill="none" stroke="#000000" stroke-width="1" stroke-linecap="butt" stroke-linejoin="miter" points="1428.03,703.878 1428.03,703.878"/>
<circle fill="#e41a1c" cx="1204.4" cy="441.276" r="5"/>
<circle fill="#e41a1c" cx="1221.72" cy="380.317" r="5"/>
<circle fill="#e41a1c" cx="1141.99" cy="716.709" r="5"/>
<circle fill="#8b864e" cx="929.322" cy="666.9" r="5"/>
<circle fill="#8b864e" cx="982.785" cy="655.455" r="5"/>
<circle fill="#4daf4a" cx="1165.78" cy="733.07" r="5"/>
<circle fill="#4daf4a" cx="773.296" cy="599.44" r="5"/>
<circle fill="#4daf4a" cx="1014.39" cy="549.837" r="5"/>
<circle fill="#984ea3" cx="1140.58" cy="775.742" r="5"/>
<circle fill="#984ea3" cx="1191.18" cy="665.963" r="5"/>
<circle fill="#4daf4a" cx="995.044" cy="707.2" r="5"/>
<circle fill="#4daf4a" cx="1035.76" cy="711.904" r="5"/>
<circle fill="#4daf4a" cx="821.125" cy="524.679" r="5"/>
<circle fill="#984ea3" cx="1141.57" cy="359.806" r="5"/>
<circle fill="#1874cd" cx="1190.26" cy="529.386" r="5"/>
<circle fill="#1874cd" cx="959.052" cy="708.693" r="5"/>
<circle fill="#1874cd" cx="1153.93" cy="744.413" r="5"/>
<circle fill="#1874cd" cx="964.259" cy="655.686" r="5"/>
<circle fill="#1874cd" cx="1011.58" cy="560.027" r="5"/>
<circle fill="#1874cd" cx="1119.57" cy="580.104" r="5"/>
<circle fill="#1874cd" cx="1011.96" cy="682.819" r="5"/>
<circle fill="#1874cd" cx="1075.64" cy="405.273" r="5"/>
<circle fill="#1874cd" cx="1091.08" cy="492.431" r="5"/>
<circle fill="#1874cd" cx="1176.99" cy="610.585" r="5"/>
<circle fill="#1874cd" cx="982.579" cy="613.01" r="5"/>
<circle fill="#1874cd" cx="965.867" cy="490.426" r="5"/>
<circle fill="#1874cd" cx="925.438" cy="527.517" r="5"/>
<circle fill="#1874cd" cx="981.292" cy="445.168" r="5"/>
<circle fill="#1874cd" cx="1061.77" cy="492.5" r="5"/>
<circle fill="#1874cd" cx="1098.45" cy="431.694" r="5"/>
<circle fill="#1874cd" cx="1249.22" cy="618.813" r="5"/>
<circle fill="#1874cd" cx="1176.78" cy="574.742" r="5"/>
<circle fill="#1874cd" cx="1091.77" cy="701.045" r="5"/>
<circle fill="#1874cd" cx="1010.74" cy="461.512" r="5"/>
<circle fill="#cd661d" cx="912.634" cy="585.667" r="5"/>
<circle fill="#cd661d" cx="1032.11" cy="758.169" r="5"/>
<circle fill="#cd661d" cx="864.539" cy="509.164" r="5"/>
<circle fill="#cd661d" cx="982.144" cy="542.53" r="5"/>
<circle fill="#cd661d" cx="1083.83" cy="508.199" r="5"/>
<circle fill="#cd661d" cx="1071.41" cy="515.735" r="5"/>
<circle fill="#cd661d" cx="889.077" cy="619.343" r="5"/>
<circle fill="#cd661d" cx="976.214" cy="448.264" r="5"/>
<circle fill="#cd661d" cx="863.836" cy="776.675" r="5"/>
<circle fill="#cd661d" cx="1046.31" cy="355.272" r="5"/>
<circle fill="#cd661d" cx="785.585" cy="565.078" r="5"/>
<circle fill="#cd661d" cx="838.902" cy="350.134" r="5"/>
<circle fill="#cd661d" cx="994.524" cy="392.712" r="5"/>
<circle fill="#8b864e" cx="1110.79" cy="746.763" r="5"/>
<circle fill="#000000" cx="1223.19" cy="487.648" r="5"/>
<text fill="#000000" x="1426.88" y="409.388" font-size="12" text-anchor="start" dy="0" font-family="Helvetica">PC1 (16%)</text>
<text fill="#000000" x="875.395" y="1050.32" font-size="12" text-anchor="start" dy="0" font-family="Helvetica">PC2 (13.6%)</text>
<text fill="#000000" x="1217.11" y="959.002" font-size="12" text-anchor="start" dy="0" font-family="Helvetica">PC3 (12%)</text>
<text fill="#000000" x="852.634" y="590.868" font-size="9" text-anchor="start" dy="0" font-family="Helvetica">STW3_LLM3</text>
<text fill="#000000" x="882.659" y="660.886" font-size="9" text-anchor="start" dy="0" font-family="Helvetica">Pr_DNH18_LRM3</text>
<text fill="#000000" x="998.612" y="520.935" font-size="9" text-anchor="start" dy="0" font-family="Helvetica">STW384_LRM3</text>
<polygon fill="#1874cd" fill-opacity="0.298039" shape-rendering="crispEdges" points="1249.22,618.813 964.259,655.686 1075.64,405.273"/>
<text fill="#000000" x="1154.02" y="624.013" font-size="9" text-anchor="start" dy="0" font-family="Helvetica">Pr_SKX10642_LLM3</text>
<text fill="#000000" x="908.179" y="618.21" font-size="9" text-anchor="start" dy="0" font-family="Helvetica">Pr_SK34_LRM3</text>
<polygon fill="#cd661d" fill-opacity="0.298039" shape-rendering="crispEdges" points="1071.41,515.735 912.634,585.667 1032.11,758.169"/>
<polygon fill="#1874cd" fill-opacity="0.298039" shape-rendering="crispEdges" points="1249.22,618.813 964.259,655.686 1153.93,744.413"/>
<polygon fill="#cd661d" fill-opacity="0.298039" shape-rendering="crispEdges" points="864.539,509.164 785.585,565.078 912.634,585.667"/>
<polygon fill="#1874cd" fill-opacity="0.298039" shape-rendering="crispEdges" points="925.438,527.517 964.259,655.686 1075.64,405.273"/>
<text fill="#000000" x="791.739" y="514.364" font-size="9" text-anchor="start" dy="0" font-family="Helvetica">STW109_LRM3</text>
<text fill="#000000" x="1000.57" y="706.245" font-size="9" text-anchor="start" dy="0" font-family="Helvetica">Pr_TM1517b_LRM3</text>
<text fill="#000000" x="1006.84" y="410.474" font-size="9" text-anchor="start" dy="0" font-family="Helvetica">Pr_SK6_LRM3</text>
<polygon fill="#cd661d" fill-opacity="0.298039" shape-rendering="crispEdges" points="1071.41,515.735 912.634,585.667 838.902,350.134"/>
<text fill="#000000" x="1005.57" y="365.006" font-size="9" text-anchor="start" dy="0" font-family="Helvetica">Pb_Omo47-1973-1500_LRM3</text>
<text fill="#000000" x="1079.98" y="579.942" font-size="9" text-anchor="start" dy="0" font-family="Helvetica">Pr_SKX10643_LRM3</text>
<polygon fill="#cd661d" fill-opacity="0.298039" shape-rendering="crispEdges" points="864.539,509.164 912.634,585.667 838.902,350.134"/>
<polygon fill="#cd661d" fill-opacity="0.298039" shape-rendering="crispEdges" points="1083.83,508.199 1071.41,515.735 1032.11,758.169"/>
<text fill="#000000" x="1037.97" y="585.304" font-size="9" text-anchor="start" dy="0" font-family="Helvetica">Pr_DNH51_LRM3</text>
<polygon fill="#1874cd" fill-opacity="0.298039" shape-rendering="crispEdges" points="959.052,708.693 964.259,655.686 1153.93,744.413"/>
<polygon fill="#1874cd" fill-opacity="0.298039" shape-rendering="crispEdges" points="925.438,527.517 959.052,708.693 964.259,655.686"/>
<polygon fill="#cd661d" fill-opacity="0.298039" shape-rendering="crispEdges" points="863.836,776.675 912.634,585.667 1032.11,758.169"/>
<polygon fill="#cd661d" fill-opacity="0.298039" shape-rendering="crispEdges" points="785.585,565.078 863.836,776.675 912.634,585.667"/>
<text fill="#000000" x="1072.33" y="749.613" font-size="9" text-anchor="start" dy="0" font-family="Helvetica">Pr_DNH12_LRM3</text>
<text fill="#000000" x="1012.63" y="513.399" font-size="9" text-anchor="start" dy="0" font-family="Helvetica">STW237_LLM3</text>
<text fill="#000000" x="964.91" y="763.369" font-size="9" text-anchor="start" dy="0" font-family="Helvetica">STW14_LRM3</text>
<polygon fill="#1874cd" fill-opacity="0.298039" shape-rendering="crispEdges" points="1190.26,529.386 1249.22,618.813 1075.64,405.273"/>
<text fill="#000000" x="841.438" y="532.717" font-size="9" text-anchor="start" dy="0" font-family="Helvetica">Pr_SK841b_LLM3</text>
<text fill="#000000" x="714.385" y="570.278" font-size="9" text-anchor="start" dy="0" font-family="Helvetica">STW529_LLM3</text>
<text fill="#000000" x="1133.2" y="446.476" font-size="9" text-anchor="start" dy="0" font-family="Helvetica">AL188-1_LRM3</text>
<text fill="#000000" x="816.277" y="624.543" font-size="9" text-anchor="start" dy="0" font-family="Helvetica">STW404_LRM3</text>
<polygon fill="#cd661d" fill-opacity="0.298039" shape-rendering="crispEdges" points="864.539,509.164 785.585,565.078 838.902,350.134"/>
<text fill="#000000" x="931.583" y="565.228" font-size="9" text-anchor="start" dy="0" font-family="Helvetica">Pr_DNH21_LLM3</text>
<polygon fill="#984ea3" fill-opacity="0.298039" shape-rendering="crispEdges" points="1140.58,775.742 1191.18,665.963 1141.57,359.806"/>
<polygon fill="#cd661d" fill-opacity="0.298039" shape-rendering="crispEdges" points="1083.83,508.199 1071.41,515.735 1046.31,355.272"/>
<polygon fill="#cd661d" fill-opacity="0.298039" shape-rendering="crispEdges" points="1071.41,515.735 994.524,392.712 838.902,350.134"/>
<text fill="#000000" x="943.044" y="712.4" font-size="9" text-anchor="start" dy="0" font-family="Helvetica">OH4_LLM3</text>
<text fill="#000000" x="926.736" y="466.712" font-size="9" text-anchor="start" dy="0" font-family="Helvetica">Pr_TM1600_LLM3</text>
<polygon fill="#1874cd" fill-opacity="0.298039" shape-rendering="crispEdges" points="925.438,527.517 981.292,445.168 1075.64,405.273"/>
<polygon fill="#cd661d" fill-opacity="0.298039" shape-rendering="crispEdges" points="1083.83,508.199 1046.31,355.272 1032.11,758.169"/>
<polygon fill="#1874cd" fill-opacity="0.298039" shape-rendering="crispEdges" points="1190.26,529.386 1098.45,431.694 1075.64,405.273"/>
<text fill="#000000" x="1031.98" y="671.163" font-size="9" text-anchor="start" dy="0" font-family="Helvetica">LM3_Pboi_KNM-ER_25520_LRM3</text>
<polygon fill="#cd661d" fill-opacity="0.298039" shape-rendering="crispEdges" points="1071.41,515.735 994.524,392.712 1046.31,355.272"/>
<text fill="#000000" x="982.979" y="780.942" font-size="9" text-anchor="start" dy="0" font-family="Helvetica">LM3_Pboi_KNM-ER_15930_LLM3</text>
<text fill="#000000" x="930.357" y="688.019" font-size="9" text-anchor="start" dy="0" font-family="Helvetica">Pr_DNH68_LRM3</text>
<polygon fill="#cd661d" fill-opacity="0.298039" shape-rendering="crispEdges" points="785.585,565.078 863.836,776.675 838.902,350.134"/>
<text fill="#000000" x="1137.59" y="492.849" font-size="9" text-anchor="start" dy="0" font-family="Helvetica">UW105-001_LLM3</text>
<text fill="#000000" x="1064.18" y="738.271" font-size="9" text-anchor="start" dy="0" font-family="Helvetica">KNM-ER_806A_LLM3</text>
<polygon fill="#1874cd" fill-opacity="0.298039" shape-rendering="crispEdges" points="1098.45,431.694 981.292,445.168 1075.64,405.273"/>
<polygon fill="#4daf4a" fill-opacity="0.298039" shape-rendering="crispEdges" points="1014.39,549.837 995.044,707.2 1165.78,733.07"/>
<text fill="#000000" x="1007.25" y="436.895" font-size="9" text-anchor="start" dy="0" font-family="Helvetica">Pr_SKX5014_LRM3</text>
<text fill="#000000" x="884.652" y="713.894" font-size="9" text-anchor="start" dy="0" font-family="Helvetica">Pr_DNH8_LLM3</text>
<text fill="#000000" x="914.524" y="397.913" font-size="9" text-anchor="start" dy="0" font-family="Helvetica">STW560A_LRM3</text>
<text fill="#000000" x="905.014" y="453.464" font-size="9" text-anchor="start" dy="0" font-family="Helvetica">STW491_LLM3</text>
<polygon fill="#1874cd" fill-opacity="0.298039" shape-rendering="crispEdges" points="1249.22,618.813 1176.99,610.585 1153.93,744.413"/>
<polygon fill="#4daf4a" fill-opacity="0.298039" shape-rendering="crispEdges" points="1014.39,549.837 995.044,707.2 773.296,599.44"/>
<polygon fill="#cd661d" fill-opacity="0.298039" shape-rendering="crispEdges" points="1046.31,355.272 863.836,776.675 1032.11,758.169"/>
<polygon fill="#1874cd" fill-opacity="0.298039" shape-rendering="crispEdges" points="925.438,527.517 959.052,708.693 981.292,445.168"/>
<text fill="#000000" x="767.702" y="355.334" font-size="9" text-anchor="start" dy="0" font-family="Helvetica">STW537_LLM3</text>
<text fill="#000000" x="864.543" y="547.73" font-size="9" text-anchor="start" dy="0" font-family="Helvetica">STW142(STW312)_LLM3</text>
<text fill="#000000" x="787.037" y="781.875" font-size="9" text-anchor="start" dy="0" font-family="Helvetica">STW498c_LLM3</text>
<text fill="#000000" x="1150.52" y="385.517" font-size="9" text-anchor="start" dy="0" font-family="Helvetica">AL266-1_LRM3</text>
<polygon fill="#4daf4a" fill-opacity="0.298039" shape-rendering="crispEdges" points="1035.76,711.904 995.044,707.2 1165.78,733.07"/>
<text fill="#000000" x="890.785" y="660.655" font-size="9" text-anchor="start" dy="0" font-family="Helvetica">Hnal_UW516_LLM3</text>
<text fill="#000000" x="677.296" y="604.64" font-size="9" text-anchor="start" dy="0" font-family="Helvetica">KNM-ER_992_LRM3</text>
<polygon fill="#cd661d" fill-opacity="0.298039" shape-rendering="crispEdges" points="994.524,392.712 1046.31,355.272 838.902,350.134"/>
<text fill="#000000" x="907.194" y="555.038" font-size="9" text-anchor="start" dy="0" font-family="Helvetica">KNM-ER_1812C_LLM3</text>
<text fill="#000000" x="891.467" y="495.626" font-size="9" text-anchor="start" dy="0" font-family="Helvetica">Pr_SK75_LRM3</text>
<polygon fill="#4daf4a" fill-opacity="0.298039" shape-rendering="crispEdges" points="1035.76,711.904 995.044,707.2 773.296,599.44"/>
<polygon fill="#cd661d" fill-opacity="0.298039" shape-rendering="crispEdges" points="1046.31,355.272 863.836,776.675 838.902,350.134"/>
<text fill="#000000" x="1114.26" y="534.586" font-size="9" text-anchor="start" dy="0" font-family="Helvetica">Pr_DNH7_LRM3</text>
<polygon fill="#e41a1c" fill-opacity="0.298039" shape-rendering="crispEdges" points="1204.4,441.276 1221.72,380.317 1141.99,716.709"/>
<polygon fill="#1874cd" fill-opacity="0.298039" shape-rendering="crispEdges" points="1190.26,529.386 1249.22,618.813 1176.99,610.585"/>
<polygon fill="#4daf4a" fill-opacity="0.298039" shape-rendering="crispEdges" points="1014.39,549.837 1035.76,711.904 1165.78,733.07"/>
<polygon fill="#1874cd" fill-opacity="0.298039" shape-rendering="crispEdges" points="959.052,708.693 1176.99,610.585 1153.93,744.413"/>
<polygon fill="#4daf4a" fill-opacity="0.298039" shape-rendering="crispEdges" points="1014.39,549.837 773.296,599.44 821.125,524.679"/>
<polygon fill="#8b864e" fill-opacity="0.298039" shape-rendering="crispEdges" points="929.322,666.9 982.785,655.455 1110.79,746.763"/>
<text fill="#000000" x="973.513" y="360.473" font-size="9" text-anchor="start" dy="0" font-family="Helvetica">STW520_LRM3</text>
<text fill="#000000" x="835.722" y="672.1" font-size="9" text-anchor="start" dy="0" font-family="Helvetica">Hnal_UW101_LRM3</text>
<text fill="#000000" x="1015.59" y="751.963" font-size="9" text-anchor="start" dy="0" font-family="Helvetica">UW101_1261_LRM3</text>
<polygon fill="#4daf4a" fill-opacity="0.298039" shape-rendering="crispEdges" points="1035.76,711.904 773.296,599.44 821.125,524.679"/>
<polygon fill="#4daf4a" fill-opacity="0.298039" shape-rendering="crispEdges" points="1014.39,549.837 1035.76,711.904 821.125,524.679"/>
<text fill="#000000" x="902.893" y="450.369" font-size="9" text-anchor="start" dy="0" font-family="Helvetica">Pr_SK843_LLM3</text>
<polygon fill="#1874cd" fill-opacity="0.298039" shape-rendering="crispEdges" points="1190.26,529.386 1098.45,431.694 1176.99,610.585"/>
<text fill="#000000" x="984.168" y="497.7" font-size="9" text-anchor="start" dy="0" font-family="Helvetica">Pr_SKW5_LLM3</text>
<text fill="#000000" x="1016.68" y="497.631" font-size="9" text-anchor="start" dy="0" font-family="Helvetica">Pr_SK22_LRM3</text>
<polygon fill="#1874cd" fill-opacity="0.298039" shape-rendering="crispEdges" points="1098.45,431.694 981.292,445.168 1176.99,610.585"/>
<polygon fill="#1874cd" fill-opacity="0.298039" shape-rendering="crispEdges" points="959.052,708.693 981.292,445.168 1176.99,610.585"/>
<text fill="#000000" x="978.165" y="717.104" font-size="9" text-anchor="start" dy="0" font-family="Helvetica">OH13_LLM3</text>
<text fill="#000000" x="761.925" y="529.879" font-size="9" text-anchor="start" dy="0" font-family="Helvetica">OH16_LRM3</text>
<text fill="#000000" x="1070.79" y="721.909" font-size="9" text-anchor="start" dy="0" font-family="Helvetica">AL288-1_LRM3</text>
<text fill="#000000" x="1104.19" y="615.786" font-size="9" text-anchor="start" dy="0" font-family="Helvetica">Pr_SK23_LLM3</text>
</g>
</svg>
