<?xml version="1.0" encoding="UTF-8" standalone="no"?>
<svg xmlns="http://www.w3.org/2000/svg"
     xmlns:xlink="http://www.w3.org/1999/xlink"
     width="2048pt" height="1081pt" viewBox="0 0 2048 1081">
<title>D:/3D_GM/Projects/UW105/Results/Tooth_type_classifications/UW105_681/Shape_PCA_3D_dropped_landmarks_clean.svg</title>
<desc>
Creator: GL2PS 1.4.2, (C) 1999-2020 C. Geuzaine
For: Generated by rgl
CreationDate: Tue Jan 27 14:11:45 2026
</desc>
<defs>
</defs>
<g>
<polygon fill="#ffffff" shape-rendering="crispEdges" points="0,1081 2048,1081 2048,0"/>
<polygon fill="#ffffff" shape-rendering="crispEdges" points="0,1081 2048,0 0,0"/>
<polyline fill="none" stroke="#e9e9e9" stroke-width="1" stroke-linecap="butt" stroke-linejoin="miter" points="1542.63,592.662 997.267,1015.18"/>
<polyline fill="none" stroke="#676767" stroke-width="1" stroke-linecap="butt" stroke-linejoin="miter" points="997.267,1015.18 574.884,465.964"/>
<polyline fill="none" stroke="#4e4e4e" stroke-width="1" stroke-linecap="butt" stroke-linejoin="miter" points="574.884,465.964 1120.24,43.4487"/>
<polyline fill="none" stroke="#adadad" stroke-width="1" stroke-linecap="butt" stroke-linejoin="miter" points="1120.24,43.4487 1542.63,592.662"/>
<polyline fill="none" stroke="#000000" stroke-width="1" stroke-linecap="butt" stroke-linejoin="miter" points="1050.73,65.8228 1120.24,43.4487 574.884,465.964 505.374,488.338 1050.73,65.8228"/>
<polyline fill="none" stroke="#000000" stroke-width="1" stroke-linecap="butt" stroke-linejoin="miter" points="927.756,1037.55 505.374,488.338 574.884,465.964 997.267,1015.18 927.756,1037.55"/>
<polyline fill="none" stroke="#000000" stroke-width="1" stroke-linecap="butt" stroke-linejoin="miter" points="914.465,1020.27 909.831,1021.76"/>
<text fill="#000000" x="887.073" y="1029.25" font-size="12" text-anchor="start" dy="0" font-family="Helvetica">-0.1</text>
<polyline fill="none" stroke="#000000" stroke-width="1" stroke-linecap="butt" stroke-linejoin="miter" points="809.087,883.249 804.453,884.741"/>
<text fill="#000000" x="775.654" y="892.232" font-size="12" text-anchor="start" dy="0" font-family="Helvetica">-0.05</text>
<polyline fill="none" stroke="#000000" stroke-width="1" stroke-linecap="butt" stroke-linejoin="miter" points="703.709,746.229 699.075,747.721"/>
<text fill="#000000" x="688.4" y="755.212" font-size="12" text-anchor="start" dy="0" font-family="Helvetica">0</text>
<polyline fill="none" stroke="#000000" stroke-width="1" stroke-linecap="butt" stroke-linejoin="miter" points="598.332,609.209 593.697,610.701"/>
<text fill="#000000" x="568.255" y="618.192" font-size="12" text-anchor="start" dy="0" font-family="Helvetica">0.05</text>
<polyline fill="none" stroke="#000000" stroke-width="1" stroke-linecap="butt" stroke-linejoin="miter" points="953.347,141.272 948.712,142.764"/>
<text fill="#000000" x="919.914" y="150.256" font-size="12" text-anchor="start" dy="0" font-family="Helvetica">-0.05</text>
<polyline fill="none" stroke="#000000" stroke-width="1" stroke-linecap="butt" stroke-linejoin="miter" points="803.017,257.74 798.382,259.232"/>
<text fill="#000000" x="787.708" y="266.723" font-size="12" text-anchor="start" dy="0" font-family="Helvetica">0</text>
<polyline fill="none" stroke="#000000" stroke-width="1" stroke-linecap="butt" stroke-linejoin="miter" points="652.687,374.208 648.053,375.699"/>
<text fill="#000000" x="622.61" y="383.191" font-size="12" text-anchor="start" dy="0" font-family="Helvetica">0.05</text>
<polyline fill="none" stroke="#000000" stroke-width="1" stroke-linecap="butt" stroke-linejoin="miter" points="987.402,1018.35 1015.56,1054.97"/>
<polyline fill="none" stroke="#000000" stroke-width="1" stroke-linecap="butt" stroke-linejoin="miter" points="971.147,1023.58 999.306,1060.2"/>
<polyline fill="none" stroke="#000000" stroke-width="1" stroke-linecap="butt" stroke-linejoin="miter" points="954.892,1028.82 983.051,1065.43"/>
<polyline fill="none" stroke="#000000" stroke-width="1" stroke-linecap="butt" stroke-linejoin="miter" points="938.637,1034.05 966.796,1070.66"/>
<polyline fill="none" stroke="#000000" stroke-width="1" stroke-linecap="butt" stroke-linejoin="miter" points="1542.63,592.662 1542.63,592.662"/>
<polyline fill="none" stroke="#000000" stroke-width="1" stroke-linecap="butt" stroke-linejoin="miter" points="505.374,488.338 505.374,488.338"/>
<circle fill="#4daf4a" cx="1248.52" cy="558.881" r="5"/>
<circle fill="#4daf4a" cx="1198.61" cy="404.966" r="5"/>
<circle fill="#4daf4a" cx="1147.2" cy="527.14" r="5"/>
<circle fill="#4daf4a" cx="1218.15" cy="513.556" r="5"/>
<circle fill="#4daf4a" cx="1190.81" cy="547.49" r="5"/>
<circle fill="#4daf4a" cx="1083.09" cy="508.285" r="5"/>
<circle fill="#4daf4a" cx="1124.45" cy="424.966" r="5"/>
<circle fill="#4daf4a" cx="1144.41" cy="560.021" r="5"/>
<circle fill="#4daf4a" cx="1224.04" cy="660.093" r="5"/>
<circle fill="#4daf4a" cx="1209.87" cy="516.877" r="5"/>
<circle fill="#4daf4a" cx="1051.26" cy="355.146" r="5"/>
<circle fill="#4daf4a" cx="1115.11" cy="613.753" r="5"/>
<circle fill="#4daf4a" cx="1218.5" cy="729.225" r="5"/>
<circle fill="#4daf4a" cx="1305.42" cy="698.073" r="5"/>
<circle fill="#4daf4a" cx="1188.27" cy="444.896" r="5"/>
<circle fill="#4daf4a" cx="1202.93" cy="602.871" r="5"/>
<circle fill="#4daf4a" cx="1265.08" cy="751.66" r="5"/>
<circle fill="#4daf4a" cx="1157.32" cy="641.737" r="5"/>
<circle fill="#4daf4a" cx="1092.08" cy="452.676" r="5"/>
<circle fill="#4daf4a" cx="1235.33" cy="334.304" r="5"/>
<circle fill="#4daf4a" cx="1195.27" cy="775.009" r="5"/>
<circle fill="#4daf4a" cx="1156.35" cy="650.437" r="5"/>
<circle fill="#4daf4a" cx="1168.85" cy="606.327" r="5"/>
<circle fill="#4daf4a" cx="1157.05" cy="605.064" r="5"/>
<circle fill="#4daf4a" cx="1249.64" cy="613.084" r="5"/>
<circle fill="#4daf4a" cx="1124.71" cy="765.931" r="5"/>
<circle fill="#4daf4a" cx="1128.52" cy="681.686" r="5"/>
<circle fill="#4daf4a" cx="1072.16" cy="567.669" r="5"/>
<circle fill="#4daf4a" cx="1236.15" cy="384.996" r="5"/>
<circle fill="#4daf4a" cx="1098.45" cy="624.968" r="5"/>
<circle fill="#4daf4a" cx="999.729" cy="580.405" r="5"/>
<circle fill="#4daf4a" cx="1174.64" cy="354.321" r="5"/>
<circle fill="#4daf4a" cx="1192.51" cy="560.552" r="5"/>
<circle fill="#4daf4a" cx="1251.41" cy="597.886" r="5"/>
<circle fill="#4daf4a" cx="1166.79" cy="668.525" r="5"/>
<circle fill="#4daf4a" cx="1226.26" cy="550.62" r="5"/>
<circle fill="#4daf4a" cx="1201.02" cy="531.693" r="5"/>
<circle fill="#4daf4a" cx="1273.29" cy="383.068" r="5"/>
<circle fill="#4daf4a" cx="1252.33" cy="555.292" r="5"/>
<circle fill="#4daf4a" cx="1191.73" cy="576.903" r="5"/>
<circle fill="#4daf4a" cx="1199.52" cy="431.68" r="5"/>
<circle fill="#4daf4a" cx="1041.59" cy="689.355" r="5"/>
<circle fill="#4daf4a" cx="1155.46" cy="684.569" r="5"/>
<circle fill="#4daf4a" cx="1177.43" cy="755.495" r="5"/>
<circle fill="#e41a1c" cx="1040.5" cy="185.388" r="5"/>
<circle fill="#e41a1c" cx="1127.04" cy="324.388" r="5"/>
<circle fill="#e41a1c" cx="973.467" cy="414.618" r="5"/>
<circle fill="#e41a1c" cx="959.602" cy="325.386" r="5"/>
<circle fill="#e41a1c" cx="1050.19" cy="427.349" r="5"/>
<circle fill="#e41a1c" cx="1055.81" cy="545.763" r="5"/>
<circle fill="#e41a1c" cx="974.165" cy="353.318" r="5"/>
<circle fill="#e41a1c" cx="913.978" cy="310.949" r="5"/>
<circle fill="#e41a1c" cx="977.428" cy="573.463" r="5"/>
<circle fill="#e41a1c" cx="958.856" cy="199.77" r="5"/>
<circle fill="#e41a1c" cx="981.175" cy="285.504" r="5"/>
<circle fill="#e41a1c" cx="985.646" cy="327.972" r="5"/>
<circle fill="#e41a1c" cx="1058.54" cy="665.633" r="5"/>
<circle fill="#e41a1c" cx="930.601" cy="463.011" r="5"/>
<circle fill="#e41a1c" cx="948.368" cy="554.877" r="5"/>
<circle fill="#e41a1c" cx="950.684" cy="560.903" r="5"/>
<circle fill="#e41a1c" cx="948.955" cy="361" r="5"/>
<circle fill="#e41a1c" cx="1045.91" cy="379.073" r="5"/>
<circle fill="#e41a1c" cx="903.296" cy="626.824" r="5"/>
<circle fill="#e41a1c" cx="1050.92" cy="617.229" r="5"/>
<circle fill="#e41a1c" cx="981.906" cy="332.833" r="5"/>
<circle fill="#e41a1c" cx="900.384" cy="571.735" r="5"/>
<circle fill="#e41a1c" cx="1016.17" cy="581.531" r="5"/>
<circle fill="#e41a1c" cx="1050.1" cy="335.965" r="5"/>
<circle fill="#e41a1c" cx="1128.11" cy="419.069" r="5"/>
<circle fill="#e41a1c" cx="1118.51" cy="260.827" r="5"/>
<circle fill="#e41a1c" cx="1165.03" cy="466.658" r="5"/>
<circle fill="#e41a1c" cx="1033.41" cy="319.62" r="5"/>
<circle fill="#e41a1c" cx="1095.56" cy="290.482" r="5"/>
<circle fill="#e41a1c" cx="937.311" cy="345.463" r="5"/>
<circle fill="#e41a1c" cx="1100.65" cy="375.211" r="5"/>
<circle fill="#e41a1c" cx="1102.65" cy="306.596" r="5"/>
<circle fill="#e41a1c" cx="1142.49" cy="135.337" r="5"/>
<circle fill="#e41a1c" cx="1130.16" cy="322.65" r="5"/>
<circle fill="#e41a1c" cx="1051.21" cy="460.877" r="5"/>
<circle fill="#e41a1c" cx="969.22" cy="434.586" r="5"/>
<circle fill="#e41a1c" cx="964.904" cy="438.14" r="5"/>
<circle fill="#e41a1c" cx="1085.83" cy="528.718" r="5"/>
<circle fill="#e41a1c" cx="1096.7" cy="695.624" r="5"/>
<circle fill="#e41a1c" cx="1084.29" cy="629.736" r="5"/>
<circle fill="#e41a1c" cx="1079.69" cy="639.612" r="5"/>
<circle fill="#1874cd" cx="900.624" cy="460.638" r="5"/>
<circle fill="#1874cd" cx="1024.2" cy="410.897" r="5"/>
<circle fill="#1874cd" cx="881.062" cy="418.645" r="5"/>
<circle fill="#1874cd" cx="1013.97" cy="478.955" r="5"/>
<circle fill="#1874cd" cx="924.194" cy="344.176" r="5"/>
<circle fill="#1874cd" cx="795.558" cy="412.811" r="5"/>
<circle fill="#1874cd" cx="829.092" cy="569.126" r="5"/>
<circle fill="#1874cd" cx="918.932" cy="421.254" r="5"/>
<circle fill="#1874cd" cx="861.283" cy="688.015" r="5"/>
<circle fill="#1874cd" cx="841.829" cy="522.884" r="5"/>
<circle fill="#1874cd" cx="759.009" cy="686.91" r="5"/>
<circle fill="#1874cd" cx="857.083" cy="387.785" r="5"/>
<circle fill="#1874cd" cx="892.089" cy="516.85" r="5"/>
<circle fill="#1874cd" cx="892.751" cy="615.439" r="5"/>
<circle fill="#1874cd" cx="818.152" cy="586.793" r="5"/>
<circle fill="#1874cd" cx="1101.33" cy="497.455" r="5"/>
<circle fill="#1874cd" cx="900.867" cy="602.318" r="5"/>
<circle fill="#1874cd" cx="808.465" cy="582.221" r="5"/>
<circle fill="#1874cd" cx="967.891" cy="596.132" r="5"/>
<circle fill="#1874cd" cx="776.533" cy="617.096" r="5"/>
<circle fill="#1874cd" cx="898.319" cy="432.456" r="5"/>
<circle fill="#1874cd" cx="900.384" cy="571.735" r="5"/>
<circle fill="#1874cd" cx="1034.42" cy="417.783" r="5"/>
<circle fill="#1874cd" cx="849.611" cy="278.451" r="5"/>
<circle fill="#1874cd" cx="920.341" cy="400.859" r="5"/>
<circle fill="#1874cd" cx="834.313" cy="561.729" r="5"/>
<circle fill="#1874cd" cx="880.418" cy="395.668" r="5"/>
<circle fill="#1874cd" cx="954.959" cy="442.671" r="5"/>
<circle fill="#1874cd" cx="1053.85" cy="511.18" r="5"/>
<circle fill="#1874cd" cx="1067.11" cy="450.404" r="5"/>
<circle fill="#1874cd" cx="980.267" cy="455.979" r="5"/>
<circle fill="#1874cd" cx="820.996" cy="441.517" r="5"/>
<circle fill="#1874cd" cx="898.834" cy="250.026" r="5"/>
<circle fill="#1874cd" cx="1018.58" cy="752.842" r="5"/>
<circle fill="#1874cd" cx="986.751" cy="645.417" r="5"/>
<circle fill="#1874cd" cx="964.915" cy="571.581" r="5"/>
<circle fill="#1874cd" cx="743.806" cy="553.2" r="5"/>
<circle fill="#000000" cx="1055.4" cy="456.324" r="5"/>
<circle fill="#4daf4a" cx="1139.19" cy="764.335" r="5"/>
<text fill="#000000" x="625.271" y="803.079" font-size="12" text-anchor="start" dy="0" font-family="Helvetica">PC1 (21.4%)</text>
<text fill="#000000" x="694.958" y="252.433" font-size="12" text-anchor="start" dy="0" font-family="Helvetica">PC2 (12.2%)</text>
<polygon fill="#1874cd" fill-opacity="0.298039" shape-rendering="crispEdges" points="898.834,250.026 857.083,387.785 1101.33,497.455"/>
<polygon fill="#e41a1c" fill-opacity="0.298039" shape-rendering="crispEdges" points="1079.69,639.612 977.428,573.463 1096.7,695.624"/>
<polygon fill="#e41a1c" fill-opacity="0.298039" shape-rendering="crispEdges" points="1079.69,639.612 977.428,573.463 1142.49,135.337"/>
<polygon fill="#e41a1c" fill-opacity="0.298039" shape-rendering="crispEdges" points="930.601,463.011 977.428,573.463 1142.49,135.337"/>
<polygon fill="#1874cd" fill-opacity="0.298039" shape-rendering="crispEdges" points="857.083,387.785 1101.33,497.455 759.009,686.91"/>
<polygon fill="#e41a1c" fill-opacity="0.298039" shape-rendering="crispEdges" points="1079.69,639.612 1142.49,135.337 1096.7,695.624"/>
<polygon fill="#1874cd" fill-opacity="0.298039" shape-rendering="crispEdges" points="898.834,250.026 1067.11,450.404 1101.33,497.455"/>
<polygon fill="#e41a1c" fill-opacity="0.298039" shape-rendering="crispEdges" points="903.296,626.824 930.601,463.011 977.428,573.463"/>
<polygon fill="#4daf4a" fill-opacity="0.298039" shape-rendering="crispEdges" points="1139.19,764.335 1177.43,755.495 1041.59,689.355"/>
<polygon fill="#e41a1c" fill-opacity="0.298039" shape-rendering="crispEdges" points="903.296,626.824 977.428,573.463 1096.7,695.624"/>
<polygon fill="#e41a1c" fill-opacity="0.298039" shape-rendering="crispEdges" points="930.601,463.011 1142.49,135.337 958.856,199.77"/>
<polygon fill="#e41a1c" fill-opacity="0.298039" shape-rendering="crispEdges" points="1165.03,466.658 1142.49,135.337 1096.7,695.624"/>
<polygon fill="#1874cd" fill-opacity="0.298039" shape-rendering="crispEdges" points="820.996,441.517 857.083,387.785 759.009,686.91"/>
<polygon fill="#1874cd" fill-opacity="0.298039" shape-rendering="crispEdges" points="898.834,250.026 857.083,387.785 849.611,278.451"/>
<polygon fill="#4daf4a" fill-opacity="0.298039" shape-rendering="crispEdges" points="1305.42,698.073 1273.29,383.068 1177.43,755.495"/>
<polygon fill="#4daf4a" fill-opacity="0.298039" shape-rendering="crispEdges" points="1177.43,755.495 1041.59,689.355 1051.26,355.146"/>
<polygon fill="#4daf4a" fill-opacity="0.298039" shape-rendering="crispEdges" points="1195.27,775.009 1139.19,764.335 1177.43,755.495"/>
<polygon fill="#4daf4a" fill-opacity="0.298039" shape-rendering="crispEdges" points="1273.29,383.068 1177.43,755.495 1051.26,355.146"/>
<polygon fill="#e41a1c" fill-opacity="0.298039" shape-rendering="crispEdges" points="903.296,626.824 1058.54,665.633 1096.7,695.624"/>
<polygon fill="#1874cd" fill-opacity="0.298039" shape-rendering="crispEdges" points="820.996,441.517 795.558,412.811 857.083,387.785"/>
<polygon fill="#1874cd" fill-opacity="0.298039" shape-rendering="crispEdges" points="1101.33,497.455 759.009,686.91 1018.58,752.842"/>
<polygon fill="#4daf4a" fill-opacity="0.298039" shape-rendering="crispEdges" points="1305.42,698.073 1177.43,755.495 1265.08,751.66"/>
<polygon fill="#e41a1c" fill-opacity="0.298039" shape-rendering="crispEdges" points="900.384,571.735 903.296,626.824 930.601,463.011"/>
<polygon fill="#1874cd" fill-opacity="0.298039" shape-rendering="crispEdges" points="1067.11,450.404 1101.33,497.455 1018.58,752.842"/>
<polygon fill="#4daf4a" fill-opacity="0.298039" shape-rendering="crispEdges" points="1195.27,775.009 1177.43,755.495 1265.08,751.66"/>
<polygon fill="#1874cd" fill-opacity="0.298039" shape-rendering="crispEdges" points="795.558,412.811 857.083,387.785 849.611,278.451"/>
<polygon fill="#e41a1c" fill-opacity="0.298039" shape-rendering="crispEdges" points="1058.54,665.633 1050.92,617.229 1096.7,695.624"/>
<polygon fill="#e41a1c" fill-opacity="0.298039" shape-rendering="crispEdges" points="1118.51,260.827 1165.03,466.658 1142.49,135.337"/>
<polygon fill="#e41a1c" fill-opacity="0.298039" shape-rendering="crispEdges" points="1050.92,617.229 1165.03,466.658 1096.7,695.624"/>
<polygon fill="#e41a1c" fill-opacity="0.298039" shape-rendering="crispEdges" points="1040.5,185.388 1142.49,135.337 958.856,199.77"/>
<polygon fill="#4daf4a" fill-opacity="0.298039" shape-rendering="crispEdges" points="1124.71,765.931 1139.19,764.335 1041.59,689.355"/>
<polygon fill="#1874cd" fill-opacity="0.298039" shape-rendering="crispEdges" points="820.996,441.517 743.806,553.2 759.009,686.91"/>
<polygon fill="#e41a1c" fill-opacity="0.298039" shape-rendering="crispEdges" points="930.601,463.011 913.978,310.949 958.856,199.77"/>
<polygon fill="#4daf4a" fill-opacity="0.298039" shape-rendering="crispEdges" points="999.729,580.405 1041.59,689.355 1051.26,355.146"/>
<polygon fill="#e41a1c" fill-opacity="0.298039" shape-rendering="crispEdges" points="900.384,571.735 930.601,463.011 913.978,310.949"/>
<polygon fill="#4daf4a" fill-opacity="0.298039" shape-rendering="crispEdges" points="1235.33,334.304 1273.29,383.068 1051.26,355.146"/>
<polygon fill="#e41a1c" fill-opacity="0.298039" shape-rendering="crispEdges" points="903.296,626.824 1058.54,665.633 1050.92,617.229"/>
<polygon fill="#4daf4a" fill-opacity="0.298039" shape-rendering="crispEdges" points="1124.71,765.931 1195.27,775.009 1139.19,764.335"/>
<polygon fill="#1874cd" fill-opacity="0.298039" shape-rendering="crispEdges" points="820.996,441.517 795.558,412.811 743.806,553.2"/>
<polygon fill="#4daf4a" fill-opacity="0.298039" shape-rendering="crispEdges" points="1124.71,765.931 999.729,580.405 1041.59,689.355"/>
<polygon fill="#e41a1c" fill-opacity="0.298039" shape-rendering="crispEdges" points="1118.51,260.827 1040.5,185.388 1142.49,135.337"/>
<polygon fill="#1874cd" fill-opacity="0.298039" shape-rendering="crispEdges" points="861.283,688.015 759.009,686.91 1018.58,752.842"/>
<polygon fill="#e41a1c" fill-opacity="0.298039" shape-rendering="crispEdges" points="1118.51,260.827 1165.03,466.658 1127.04,324.388"/>
<polygon fill="#4daf4a" fill-opacity="0.298039" shape-rendering="crispEdges" points="1248.52,558.881 1305.42,698.073 1273.29,383.068"/>
<polygon fill="#e41a1c" fill-opacity="0.298039" shape-rendering="crispEdges" points="1050.92,617.229 1165.03,466.658 1127.04,324.388"/>
<polygon fill="#4daf4a" fill-opacity="0.298039" shape-rendering="crispEdges" points="1174.64,354.321 1235.33,334.304 1051.26,355.146"/>
<polygon fill="#e41a1c" fill-opacity="0.298039" shape-rendering="crispEdges" points="900.384,571.735 903.296,626.824 913.978,310.949"/>
<polygon fill="#1874cd" fill-opacity="0.298039" shape-rendering="crispEdges" points="834.313,561.729 861.283,688.015 759.009,686.91"/>
<polygon fill="#1874cd" fill-opacity="0.298039" shape-rendering="crispEdges" points="834.313,561.729 743.806,553.2 759.009,686.91"/>
<polygon fill="#4daf4a" fill-opacity="0.298039" shape-rendering="crispEdges" points="1235.33,334.304 1199.52,431.68 1273.29,383.068"/>
<polygon fill="#4daf4a" fill-opacity="0.298039" shape-rendering="crispEdges" points="1248.52,558.881 1305.42,698.073 1265.08,751.66"/>
<polygon fill="#e41a1c" fill-opacity="0.298039" shape-rendering="crispEdges" points="1118.51,260.827 1050.92,617.229 1127.04,324.388"/>
<polygon fill="#e41a1c" fill-opacity="0.298039" shape-rendering="crispEdges" points="1040.5,185.388 913.978,310.949 958.856,199.77"/>
<polygon fill="#1874cd" fill-opacity="0.298039" shape-rendering="crispEdges" points="898.834,250.026 1067.11,450.404 954.959,442.671"/>
<polygon fill="#e41a1c" fill-opacity="0.298039" shape-rendering="crispEdges" points="903.296,626.824 1050.92,617.229 913.978,310.949"/>
<polygon fill="#1874cd" fill-opacity="0.298039" shape-rendering="crispEdges" points="898.834,250.026 954.959,442.671 849.611,278.451"/>
<polygon fill="#4daf4a" fill-opacity="0.298039" shape-rendering="crispEdges" points="1199.52,431.68 999.729,580.405 1051.26,355.146"/>
<polygon fill="#4daf4a" fill-opacity="0.298039" shape-rendering="crispEdges" points="1124.71,765.931 1195.27,775.009 1128.52,681.686"/>
<polygon fill="#4daf4a" fill-opacity="0.298039" shape-rendering="crispEdges" points="1124.71,765.931 999.729,580.405 1128.52,681.686"/>
<polygon fill="#4daf4a" fill-opacity="0.298039" shape-rendering="crispEdges" points="1174.64,354.321 1199.52,431.68 1051.26,355.146"/>
<polygon fill="#4daf4a" fill-opacity="0.298039" shape-rendering="crispEdges" points="1195.27,775.009 1128.52,681.686 1265.08,751.66"/>
<polygon fill="#1874cd" fill-opacity="0.298039" shape-rendering="crispEdges" points="834.313,561.729 861.283,688.015 1018.58,752.842"/>
<polygon fill="#4daf4a" fill-opacity="0.298039" shape-rendering="crispEdges" points="1174.64,354.321 1235.33,334.304 1199.52,431.68"/>
<polygon fill="#e41a1c" fill-opacity="0.298039" shape-rendering="crispEdges" points="1118.51,260.827 1050.92,617.229 913.978,310.949"/>
<polygon fill="#4daf4a" fill-opacity="0.298039" shape-rendering="crispEdges" points="1248.52,558.881 1199.52,431.68 1273.29,383.068"/>
<polygon fill="#e41a1c" fill-opacity="0.298039" shape-rendering="crispEdges" points="1118.51,260.827 1040.5,185.388 913.978,310.949"/>
<polygon fill="#4daf4a" fill-opacity="0.298039" shape-rendering="crispEdges" points="1248.52,558.881 1128.52,681.686 1265.08,751.66"/>
<polygon fill="#4daf4a" fill-opacity="0.298039" shape-rendering="crispEdges" points="1199.52,431.68 999.729,580.405 1128.52,681.686"/>
<polygon fill="#1874cd" fill-opacity="0.298039" shape-rendering="crispEdges" points="795.558,412.811 954.959,442.671 849.611,278.451"/>
<polygon fill="#1874cd" fill-opacity="0.298039" shape-rendering="crispEdges" points="1067.11,450.404 954.959,442.671 1018.58,752.842"/>
<polygon fill="#1874cd" fill-opacity="0.298039" shape-rendering="crispEdges" points="795.558,412.811 743.806,553.2 954.959,442.671"/>
<polygon fill="#4daf4a" fill-opacity="0.298039" shape-rendering="crispEdges" points="1248.52,558.881 1199.52,431.68 1128.52,681.686"/>
<polygon fill="#1874cd" fill-opacity="0.298039" shape-rendering="crispEdges" points="834.313,561.729 743.806,553.2 954.959,442.671"/>
<polygon fill="#1874cd" fill-opacity="0.298039" shape-rendering="crispEdges" points="834.313,561.729 954.959,442.671 1018.58,752.842"/>
</g>
</svg>
