<?xml version="1.0" encoding="UTF-8" standalone="no"?>
<svg xmlns="http://www.w3.org/2000/svg"
     xmlns:xlink="http://www.w3.org/1999/xlink"
     width="2048pt" height="1081pt" viewBox="0 0 2048 1081">
<title>D:/3D_GM/Projects/UW105/Results/Taxonomic_assessment/UW105-042/3D_PCA_labelled.svg</title>
<desc>
Creator: GL2PS 1.4.2, (C) 1999-2020 C. Geuzaine
For: Generated by rgl
CreationDate: Tue Jan 27 12:13:10 2026
</desc>
<defs>
</defs>
<g>
<polygon fill="#ffffff" shape-rendering="crispEdges" points="0,1081 2048,1081 2048,0"/>
<polygon fill="#ffffff" shape-rendering="crispEdges" points="0,1081 2048,0 0,0"/>
<polyline fill="none" stroke="#080808" stroke-width="1" stroke-linecap="butt" stroke-linejoin="miter" points="609.791,765.225 650.031,131.832"/>
<polyline fill="none" stroke="#5d5d5d" stroke-width="1" stroke-linecap="butt" stroke-linejoin="miter" points="650.031,131.832 1292.85,129.318"/>
<polyline fill="none" stroke="#0c0c0c" stroke-width="1" stroke-linecap="butt" stroke-linejoin="miter" points="1292.85,129.318 1252.61,762.711"/>
<polyline fill="none" stroke="#010101" stroke-width="1" stroke-linecap="butt" stroke-linejoin="miter" points="1252.61,762.711 609.791,765.225"/>
<polyline fill="none" stroke="#000000" stroke-width="1" stroke-linecap="butt" stroke-linejoin="miter" points="1397.97,949.168 1252.61,762.711 1292.85,129.318 1438.21,315.775 1397.97,949.168"/>
<polyline fill="none" stroke="#000000" stroke-width="1" stroke-linecap="butt" stroke-linejoin="miter" points="609.791,765.225 1252.61,762.711 1397.97,949.168"/>
<polyline fill="none" stroke="#000000" stroke-width="1" stroke-linecap="butt" stroke-linejoin="miter" points="1397.97,949.168 755.153,951.682"/>
<polyline fill="none" stroke="#000000" stroke-width="1" stroke-linecap="butt" stroke-linejoin="miter" points="755.153,951.682 609.791,765.225"/>
<polyline fill="none" stroke="#000000" stroke-width="1" stroke-linecap="butt" stroke-linejoin="miter" points="846.833,951.324 856.523,963.754"/>
<text fill="#000000" x="851.814" y="982.185" font-size="12" text-anchor="start" dy="0" font-family="Helvetica">-0.05</text>
<polyline fill="none" stroke="#000000" stroke-width="1" stroke-linecap="butt" stroke-linejoin="miter" points="1038.47,950.574 1048.16,963.004"/>
<text fill="#000000" x="1054.25" y="981.435" font-size="12" text-anchor="start" dy="0" font-family="Helvetica">0</text>
<polyline fill="none" stroke="#000000" stroke-width="1" stroke-linecap="butt" stroke-linejoin="miter" points="1230.1,949.825 1239.79,962.255"/>
<text fill="#000000" x="1237.08" y="980.686" font-size="12" text-anchor="start" dy="0" font-family="Helvetica">0.05</text>
<polyline fill="none" stroke="#000000" stroke-width="1" stroke-linecap="butt" stroke-linejoin="miter" points="1398.79,936.256 1408.48,948.687"/>
<text fill="#000000" x="1403.77" y="967.117" font-size="12" text-anchor="start" dy="0" font-family="Helvetica">-0.06</text>
<polyline fill="none" stroke="#000000" stroke-width="1" stroke-linecap="butt" stroke-linejoin="miter" points="1405.46,831.238 1415.15,843.668"/>
<text fill="#000000" x="1410.44" y="862.099" font-size="12" text-anchor="start" dy="0" font-family="Helvetica">-0.04</text>
<polyline fill="none" stroke="#000000" stroke-width="1" stroke-linecap="butt" stroke-linejoin="miter" points="1412.13,726.219 1421.82,738.65"/>
<text fill="#000000" x="1417.11" y="757.081" font-size="12" text-anchor="start" dy="0" font-family="Helvetica">-0.02</text>
<polyline fill="none" stroke="#000000" stroke-width="1" stroke-linecap="butt" stroke-linejoin="miter" points="1418.81,621.201 1428.5,633.631"/>
<text fill="#000000" x="1434.59" y="652.062" font-size="12" text-anchor="start" dy="0" font-family="Helvetica">0</text>
<polyline fill="none" stroke="#000000" stroke-width="1" stroke-linecap="butt" stroke-linejoin="miter" points="1425.48,516.183 1435.17,528.613"/>
<text fill="#000000" x="1432.46" y="547.044" font-size="12" text-anchor="start" dy="0" font-family="Helvetica">0.02</text>
<polyline fill="none" stroke="#000000" stroke-width="1" stroke-linecap="butt" stroke-linejoin="miter" points="1432.15,411.165 1441.84,423.595"/>
<text fill="#000000" x="1439.13" y="442.025" font-size="12" text-anchor="start" dy="0" font-family="Helvetica">0.04</text>
<polyline fill="none" stroke="#000000" stroke-width="1" stroke-linecap="butt" stroke-linejoin="miter" points="644.086,809.217 601.232,809.384"/>
<text fill="#000000" x="529.634" y="815.552" font-size="12" text-anchor="start" dy="0" font-family="Helvetica">-0.05</text>
<polyline fill="none" stroke="#000000" stroke-width="1" stroke-linecap="butt" stroke-linejoin="miter" points="690.082,868.214 647.228,868.382"/>
<text fill="#000000" x="597.187" y="874.55" font-size="12" text-anchor="start" dy="0" font-family="Helvetica">0</text>
<polyline fill="none" stroke="#000000" stroke-width="1" stroke-linecap="butt" stroke-linejoin="miter" points="736.077,927.212 693.222,927.38"/>
<text fill="#000000" x="625.617" y="933.547" font-size="12" text-anchor="start" dy="0" font-family="Helvetica">0.05</text>
<polyline fill="none" stroke="#000000" stroke-width="1" stroke-linecap="butt" stroke-linejoin="miter" points="609.791,765.225 609.791,765.225"/>
<polyline fill="none" stroke="#000000" stroke-width="1" stroke-linecap="butt" stroke-linejoin="miter" points="1438.21,315.775 1438.21,315.775"/>
<polyline fill="none" stroke="#8b864e" stroke-width="1" stroke-linecap="butt" stroke-linejoin="miter" points="1184.81,543.174 1384.09,552.558"/>
<circle fill="#e41a1c" cx="898.853" cy="375.159" r="5"/>
<circle fill="#e41a1c" cx="830.481" cy="574.873" r="5"/>
<circle fill="#e41a1c" cx="894.281" cy="499.994" r="5"/>
<circle fill="#8b2323" cx="978.989" cy="530.967" r="5"/>
<circle fill="#4daf4a" cx="956.993" cy="622.7" r="5"/>
<circle fill="#4daf4a" cx="925.719" cy="691.816" r="5"/>
<circle fill="#1874cd" cx="810.953" cy="687.837" r="5"/>
<circle fill="#4daf4a" cx="1010.04" cy="634.315" r="5"/>
<circle fill="#4daf4a" cx="1123.5" cy="481.688" r="5"/>
<circle fill="#4daf4a" cx="933.532" cy="509.555" r="5"/>
<circle fill="#984ea3" cx="820.005" cy="804.724" r="5"/>
<circle fill="#e41a1c" cx="988.283" cy="586.913" r="5"/>
<circle fill="#4daf4a" cx="1154.99" cy="387.281" r="5"/>
<circle fill="#4daf4a" cx="1123.79" cy="265.249" r="5"/>
<circle fill="#4daf4a" cx="890.222" cy="474.852" r="5"/>
<circle fill="#4daf4a" cx="1078.59" cy="453.25" r="5"/>
<circle fill="#4daf4a" cx="1169.84" cy="300.669" r="5"/>
<circle fill="#1874cd" cx="951.35" cy="569.712" r="5"/>
<circle fill="#1874cd" cx="818.175" cy="756.7" r="5"/>
<circle fill="#1874cd" cx="740.996" cy="554.369" r="5"/>
<circle fill="#1874cd" cx="1175.39" cy="647.881" r="5"/>
<circle fill="#1874cd" cx="1067.33" cy="729.414" r="5"/>
<circle fill="#1874cd" cx="971.143" cy="702.072" r="5"/>
<circle fill="#1874cd" cx="903.652" cy="552.898" r="5"/>
<circle fill="#1874cd" cx="1122.92" cy="436.5" r="5"/>
<circle fill="#1874cd" cx="1095.77" cy="663.921" r="5"/>
<circle fill="#1874cd" cx="882.872" cy="580.387" r="5"/>
<circle fill="#1874cd" cx="1022.37" cy="868.64" r="5"/>
<circle fill="#1874cd" cx="777.035" cy="547.403" r="5"/>
<circle fill="#1874cd" cx="977.466" cy="806.644" r="5"/>
<circle fill="#1874cd" cx="953.955" cy="689.26" r="5"/>
<circle fill="#cd661d" cx="784.268" cy="374.451" r="5"/>
<circle fill="#cd661d" cx="1030.67" cy="498.322" r="5"/>
<circle fill="#cd661d" cx="1052.23" cy="250.684" r="5"/>
<circle fill="#cd661d" cx="1146.05" cy="441.625" r="5"/>
<circle fill="#cd661d" cx="1050.72" cy="333.663" r="5"/>
<circle fill="#cd661d" cx="919.782" cy="310.644" r="5"/>
<circle fill="#cd661d" cx="904.125" cy="347.773" r="5"/>
<circle fill="#cd661d" cx="969.547" cy="352.986" r="5"/>
<circle fill="#cd661d" cx="1060.19" cy="463.515" r="5"/>
<circle fill="#cd661d" cx="804.057" cy="289.972" r="5"/>
<circle fill="#1874cd" cx="1132.08" cy="789.259" r="5"/>
<circle fill="#8b864e" cx="1184.81" cy="543.174" r="5"/>
<circle fill="#8b864e" cx="1384.09" cy="552.558" r="5"/>
<circle fill="#000000" cx="1268.33" cy="725.005" r="5"/>
<text fill="#000000" x="1076.24" y="1048.37" font-size="12" text-anchor="start" dy="0" font-family="Helvetica">PC1 (21.4%)</text>
<text fill="#000000" x="1463.31" y="688.026" font-size="12" text-anchor="start" dy="0" font-family="Helvetica">PC2 (14.9%)</text>
<text fill="#000000" x="471.972" y="907.35" font-size="12" text-anchor="start" dy="0" font-family="Helvetica">PC3 (11.2%)</text>
<text fill="#000000" x="801.271" y="586.387" font-size="12" text-anchor="start" dy="0" font-family="Helvetica">SK_52_URM1</text>
<polygon fill="#1874cd" fill-opacity="0.298039" shape-rendering="crispEdges" points="1095.77,663.921 882.872,580.387 1175.39,647.881"/>
<text fill="#000000" x="1014.17" y="669.921" font-size="12" text-anchor="start" dy="0" font-family="Helvetica">SK_48_URM1</text>
<polygon fill="#1874cd" fill-opacity="0.298039" shape-rendering="crispEdges" points="977.466,806.644 1095.77,663.921 882.872,580.387"/>
<text fill="#000000" x="816.95" y="575.712" font-size="12" text-anchor="start" dy="0" font-family="Helvetica">Prob_DNH_57B_URM1</text>
<text fill="#000000" x="811.652" y="558.898" font-size="12" text-anchor="start" dy="0" font-family="Helvetica">SK13.14_URM1</text>
<text fill="#000000" x="1059.39" y="653.881" font-size="12" text-anchor="start" dy="0" font-family="Helvetica">Prob_SK_47_URM1</text>
<polygon fill="#1874cd" fill-opacity="0.298039" shape-rendering="crispEdges" points="977.466,806.644 818.175,756.7 882.872,580.387"/>
<polygon fill="#1874cd" fill-opacity="0.298039" shape-rendering="crispEdges" points="1095.77,663.921 1132.08,789.259 1175.39,647.881"/>
<polygon fill="#1874cd" fill-opacity="0.298039" shape-rendering="crispEdges" points="882.872,580.387 1122.92,436.5 1175.39,647.881"/>
<polygon fill="#1874cd" fill-opacity="0.298039" shape-rendering="crispEdges" points="977.466,806.644 1095.77,663.921 1022.37,868.64"/>
<text fill="#000000" x="881.466" y="812.644" font-size="12" text-anchor="start" dy="0" font-family="Helvetica">SK_838a_URM1</text>
<text fill="#000000" x="849.542" y="708.072" font-size="12" text-anchor="start" dy="0" font-family="Helvetica">Prob_SK_832_ULM1</text>
<polygon fill="#1874cd" fill-opacity="0.298039" shape-rendering="crispEdges" points="818.175,756.7 882.872,580.387 740.996,554.369"/>
<polygon fill="#1874cd" fill-opacity="0.298039" shape-rendering="crispEdges" points="1095.77,663.921 1132.08,789.259 1022.37,868.64"/>
<polygon fill="#1874cd" fill-opacity="0.298039" shape-rendering="crispEdges" points="777.035,547.403 882.872,580.387 1122.92,436.5"/>
<text fill="#000000" x="1081.39" y="393.281" font-size="12" text-anchor="start" dy="0" font-family="Helvetica">OH13_ULM1</text>
<polygon fill="#1874cd" fill-opacity="0.298039" shape-rendering="crispEdges" points="777.035,547.403 882.872,580.387 740.996,554.369"/>
<text fill="#000000" x="945.727" y="735.414" font-size="12" text-anchor="start" dy="0" font-family="Helvetica">Prob_SK_89a_ULM1</text>
<text fill="#000000" x="1103.44" y="306.669" font-size="12" text-anchor="start" dy="0" font-family="Helvetica">OH45_ULM</text>
<polygon fill="#4daf4a" fill-opacity="0.298039" shape-rendering="crispEdges" points="1154.99,387.281 1123.79,265.249 1169.84,300.669"/>
<text fill="#000000" x="802.053" y="381.159" font-size="12" text-anchor="start" dy="0" font-family="Helvetica">AL200-1a_ULM1</text>
<text fill="#000000" x="1048.59" y="271.249" font-size="12" text-anchor="start" dy="0" font-family="Helvetica">OH16_URM1</text>
<polygon fill="#4daf4a" fill-opacity="0.298039" shape-rendering="crispEdges" points="1123.5,481.688 1154.99,387.281 1169.84,300.669"/>
<polygon fill="#4daf4a" fill-opacity="0.298039" shape-rendering="crispEdges" points="1154.99,387.281 933.532,509.555 1123.79,265.249"/>
<text fill="#000000" x="922.683" y="592.913" font-size="12" text-anchor="start" dy="0" font-family="Helvetica">LH6_URM1</text>
<polygon fill="#1874cd" fill-opacity="0.298039" shape-rendering="crispEdges" points="1132.08,789.259 1122.92,436.5 1175.39,647.881"/>
<polygon fill="#e41a1c" fill-opacity="0.298039" shape-rendering="crispEdges" points="894.281,499.994 898.853,375.159 988.283,586.913"/>
<polygon fill="#1874cd" fill-opacity="0.298039" shape-rendering="crispEdges" points="977.466,806.644 818.175,756.7 1022.37,868.64"/>
<polygon fill="#4daf4a" fill-opacity="0.298039" shape-rendering="crispEdges" points="956.993,622.7 1154.99,387.281 933.532,509.555"/>
<polygon fill="#4daf4a" fill-opacity="0.298039" shape-rendering="crispEdges" points="1078.59,453.25 1123.79,265.249 1169.84,300.669"/>
<text fill="#000000" x="841.955" y="695.26" font-size="12" text-anchor="start" dy="0" font-family="Helvetica">SK_14129A_URM1</text>
<text fill="#000000" x="1030.48" y="795.259" font-size="12" text-anchor="start" dy="0" font-family="Helvetica">TM_1517a_ULM1</text>
<polygon fill="#4daf4a" fill-opacity="0.298039" shape-rendering="crispEdges" points="956.993,622.7 1154.99,387.281 925.719,691.816"/>
<text fill="#000000" x="685.375" y="762.7" font-size="12" text-anchor="start" dy="0" font-family="Helvetica">Prob_DNH_60A_ULM1</text>
<text fill="#000000" x="829.382" y="316.644" font-size="12" text-anchor="start" dy="0" font-family="Helvetica">STW183_ULM1</text>
<text fill="#000000" x="865.793" y="628.7" font-size="12" text-anchor="start" dy="0" font-family="Helvetica">DNH_39_URM1</text>
<polygon fill="#4daf4a" fill-opacity="0.298039" shape-rendering="crispEdges" points="1123.5,481.688 1154.99,387.281 925.719,691.816"/>
<polygon fill="#4daf4a" fill-opacity="0.298039" shape-rendering="crispEdges" points="1123.5,481.688 1078.59,453.25 1169.84,300.669"/>
<text fill="#000000" x="804.681" y="505.994" font-size="12" text-anchor="start" dy="0" font-family="Helvetica">AL486-1_ULM1</text>
<text fill="#000000" x="807.132" y="515.555" font-size="12" text-anchor="start" dy="0" font-family="Helvetica">KNM-ER_1813_ULM1</text>
<text fill="#000000" x="1147.54" y="731.005" font-size="12" text-anchor="start" dy="0" font-family="Helvetica">UW_105_042_URM1</text>
<text fill="#000000" x="988.299" y="487.688" font-size="12" text-anchor="start" dy="0" font-family="Helvetica">KNM-ER_1590K_ULM1</text>
<polygon fill="#4daf4a" fill-opacity="0.298039" shape-rendering="crispEdges" points="956.993,622.7 933.532,509.555 925.719,691.816"/>
<polygon fill="#e41a1c" fill-opacity="0.298039" shape-rendering="crispEdges" points="898.853,375.159 988.283,586.913 830.481,574.873"/>
<polygon fill="#1874cd" fill-opacity="0.298039" shape-rendering="crispEdges" points="810.953,687.837 818.175,756.7 1022.37,868.64"/>
<text fill="#000000" x="935.174" y="874.64" font-size="12" text-anchor="start" dy="0" font-family="Helvetica">SK_102_ULM1</text>
<polygon fill="#1874cd" fill-opacity="0.298039" shape-rendering="crispEdges" points="1132.08,789.259 1022.37,868.64 1122.92,436.5"/>
<polygon fill="#e41a1c" fill-opacity="0.298039" shape-rendering="crispEdges" points="894.281,499.994 898.853,375.159 830.481,574.873"/>
<polygon fill="#cd661d" fill-opacity="0.298039" shape-rendering="crispEdges" points="919.782,310.644 1052.23,250.684 1146.05,441.625"/>
<text fill="#000000" x="1004.99" y="459.25" font-size="12" text-anchor="start" dy="0" font-family="Helvetica">OH24_ULM1</text>
<text fill="#000000" x="836.119" y="697.816" font-size="12" text-anchor="start" dy="0" font-family="Helvetica">DNH_70_ULM1</text>
<polygon fill="#cd661d" fill-opacity="0.298039" shape-rendering="crispEdges" points="804.057,289.972 919.782,310.644 1052.23,250.684"/>
<polygon fill="#cd661d" fill-opacity="0.298039" shape-rendering="crispEdges" points="1030.67,498.322 919.782,310.644 1146.05,441.625"/>
<polygon fill="#4daf4a" fill-opacity="0.298039" shape-rendering="crispEdges" points="1123.5,481.688 1010.04,634.315 925.719,691.816"/>
<polygon fill="#e41a1c" fill-opacity="0.298039" shape-rendering="crispEdges" points="894.281,499.994 988.283,586.913 830.481,574.873"/>
<polygon fill="#4daf4a" fill-opacity="0.298039" shape-rendering="crispEdges" points="933.532,509.555 1123.79,265.249 890.222,474.852"/>
<text fill="#000000" x="689.834" y="553.403" font-size="12" text-anchor="start" dy="0" font-family="Helvetica">SK_829_ULM1</text>
<polygon fill="#1874cd" fill-opacity="0.298039" shape-rendering="crispEdges" points="810.953,687.837 818.175,756.7 740.996,554.369"/>
<text fill="#000000" x="963.433" y="256.684" font-size="12" text-anchor="start" dy="0" font-family="Helvetica">STS_24_URM1</text>
<text fill="#000000" x="1072.81" y="549.174" font-size="12" text-anchor="start" dy="0" font-family="Helvetica">UW101_445_ULM1</text>
<polygon fill="#4daf4a" fill-opacity="0.298039" shape-rendering="crispEdges" points="1078.59,453.25 1123.79,265.249 890.222,474.852"/>
<text fill="#000000" x="950.674" y="504.322" font-size="12" text-anchor="start" dy="0" font-family="Helvetica">STS_8_ULM1</text>
<text fill="#000000" x="714.153" y="693.837" font-size="12" text-anchor="start" dy="0" font-family="Helvetica">DNH_108_ULM1</text>
<polygon fill="#1874cd" fill-opacity="0.298039" shape-rendering="crispEdges" points="810.953,687.837 1022.37,868.64 740.996,554.369"/>
<polygon fill="#cd661d" fill-opacity="0.298039" shape-rendering="crispEdges" points="1030.67,498.322 919.782,310.644 784.268,374.451"/>
<polygon fill="#1874cd" fill-opacity="0.298039" shape-rendering="crispEdges" points="1022.37,868.64 1122.92,436.5 740.996,554.369"/>
<text fill="#000000" x="870.347" y="358.986" font-size="12" text-anchor="start" dy="0" font-family="Helvetica">STW_402_URM1</text>
<polygon fill="#4daf4a" fill-opacity="0.298039" shape-rendering="crispEdges" points="933.532,509.555 925.719,691.816 890.222,474.852"/>
<polygon fill="#4daf4a" fill-opacity="0.298039" shape-rendering="crispEdges" points="1123.5,481.688 1078.59,453.25 890.222,474.852"/>
<text fill="#000000" x="1058.85" y="447.625" font-size="12" text-anchor="start" dy="0" font-family="Helvetica">STS_56_ULM1</text>
<polygon fill="#cd661d" fill-opacity="0.298039" shape-rendering="crispEdges" points="1060.19,463.515 1030.67,498.322 1146.05,441.625"/>
<text fill="#000000" x="889.237" y="640.315" font-size="12" text-anchor="start" dy="0" font-family="Helvetica">KNM-ER_807_URM1</text>
<polygon fill="#1874cd" fill-opacity="0.298039" shape-rendering="crispEdges" points="777.035,547.403 1122.92,436.5 740.996,554.369"/>
<polygon fill="#cd661d" fill-opacity="0.298039" shape-rendering="crispEdges" points="804.057,289.972 919.782,310.644 784.268,374.451"/>
<text fill="#000000" x="1050.12" y="442.5" font-size="12" text-anchor="start" dy="0" font-family="Helvetica">SK27_ULM1</text>
<text fill="#000000" x="705.657" y="295.972" font-size="12" text-anchor="start" dy="0" font-family="Helvetica">TAUNG_1_ULM1</text>
<polygon fill="#4daf4a" fill-opacity="0.298039" shape-rendering="crispEdges" points="1123.5,481.688 1010.04,634.315 890.222,474.852"/>
<text fill="#000000" x="960.993" y="469.515" font-size="12" text-anchor="start" dy="0" font-family="Helvetica">STW_450_URM1</text>
<polygon fill="#4daf4a" fill-opacity="0.298039" shape-rendering="crispEdges" points="1010.04,634.315 925.719,691.816 890.222,474.852"/>
<polygon fill="#cd661d" fill-opacity="0.298039" shape-rendering="crispEdges" points="1050.72,333.663 1052.23,250.684 1146.05,441.625"/>
<text fill="#000000" x="626.596" y="560.369" font-size="12" text-anchor="start" dy="0" font-family="Helvetica">Prob_SK829_ULM1</text>
<text fill="#000000" x="908.589" y="536.967" font-size="12" text-anchor="start" dy="0" font-family="Helvetica">Ased_ULM1</text>
<polygon fill="#cd661d" fill-opacity="0.298039" shape-rendering="crispEdges" points="804.057,289.972 904.125,347.773 1052.23,250.684"/>
<polygon fill="#cd661d" fill-opacity="0.298039" shape-rendering="crispEdges" points="1060.19,463.515 1030.67,498.322 904.125,347.773"/>
<polygon fill="#cd661d" fill-opacity="0.298039" shape-rendering="crispEdges" points="1060.19,463.515 904.125,347.773 1146.05,441.625"/>
<polygon fill="#cd661d" fill-opacity="0.298039" shape-rendering="crispEdges" points="1030.67,498.322 904.125,347.773 784.268,374.451"/>
<text fill="#000000" x="704.268" y="380.451" font-size="12" text-anchor="start" dy="0" font-family="Helvetica">STS_1_ULM1</text>
<polygon fill="#cd661d" fill-opacity="0.298039" shape-rendering="crispEdges" points="1050.72,333.663 904.125,347.773 1052.23,250.684"/>
<text fill="#000000" x="732.081" y="580.873" font-size="12" text-anchor="start" dy="0" font-family="Helvetica">AL333-86_URM1</text>
<polygon fill="#cd661d" fill-opacity="0.298039" shape-rendering="crispEdges" points="804.057,289.972 904.125,347.773 784.268,374.451"/>
<polygon fill="#cd661d" fill-opacity="0.298039" shape-rendering="crispEdges" points="1050.72,333.663 904.125,347.773 1146.05,441.625"/>
<text fill="#000000" x="963.521" y="339.663" font-size="12" text-anchor="start" dy="0" font-family="Helvetica">STS_57_ULM1</text>
<text fill="#000000" x="816.622" y="480.852" font-size="12" text-anchor="start" dy="0" font-family="Helvetica">OH21_ULM1</text>
<text fill="#000000" x="1272.09" y="558.558" font-size="12" text-anchor="start" dy="0" font-family="Helvetica">UW101_708_ULM1</text>
<text fill="#000000" x="683.205" y="810.724" font-size="12" text-anchor="start" dy="0" font-family="Helvetica">KNM-WT_17400_URM1</text>
<text fill="#000000" x="807.325" y="353.773" font-size="12" text-anchor="start" dy="0" font-family="Helvetica">STW252J_ULM1</text>
</g>
</svg>
