<?xml version="1.0" encoding="UTF-8" standalone="no"?>
<svg xmlns="http://www.w3.org/2000/svg"
     xmlns:xlink="http://www.w3.org/1999/xlink"
     width="2048pt" height="1081pt" viewBox="0 0 2048 1081">
<title>D:/3D_GM/Projects/UW105/3D_PCA_clean_updated_oriented_for_002a.svg</title>
<desc>
Creator: GL2PS 1.4.2, (C) 1999-2020 C. Geuzaine
For: Generated by rgl
CreationDate: Thu Jan 29 16:39:46 2026
</desc>
<defs>
</defs>
<g>
<polygon fill="#ffffff" shape-rendering="crispEdges" points="0,1081 2048,1081 2048,0"/>
<polygon fill="#ffffff" shape-rendering="crispEdges" points="0,1081 2048,0 0,0"/>
<polyline fill="none" stroke="#000000" stroke-width="1" stroke-linecap="butt" stroke-linejoin="miter" points="1395.35,653.335 1263.71,936.857"/>
<polyline fill="none" stroke="#000000" stroke-width="1" stroke-linecap="butt" stroke-linejoin="miter" points="1263.71,936.857 1204.44,442.171 1336.08,158.649 1395.35,653.335"/>
<polyline fill="none" stroke="#000000" stroke-width="1" stroke-linecap="butt" stroke-linejoin="miter" points="1263.71,936.857 711.917,922.351"/>
<polyline fill="none" stroke="#030303" stroke-width="1" stroke-linecap="butt" stroke-linejoin="miter" points="711.917,922.351 652.646,427.665"/>
<polyline fill="none" stroke="#000000" stroke-width="1" stroke-linecap="butt" stroke-linejoin="miter" points="652.646,427.665 1204.44,442.171"/>
<polyline fill="none" stroke="#000000" stroke-width="1" stroke-linecap="butt" stroke-linejoin="miter" points="1204.44,442.171 1263.71,936.857"/>
<polyline fill="none" stroke="#000000" stroke-width="1" stroke-linecap="butt" stroke-linejoin="miter" points="1336.08,158.649 1204.44,442.171"/>
<polyline fill="none" stroke="#000000" stroke-width="1" stroke-linecap="butt" stroke-linejoin="miter" points="1204.44,442.171 652.646,427.665"/>
<polyline fill="none" stroke="#000000" stroke-width="1" stroke-linecap="butt" stroke-linejoin="miter" points="652.646,427.665 784.293,144.143"/>
<polyline fill="none" stroke="#000000" stroke-width="1" stroke-linecap="butt" stroke-linejoin="miter" points="784.293,144.143 1336.08,158.649"/>
<polyline fill="none" stroke="#000000" stroke-width="1" stroke-linecap="butt" stroke-linejoin="miter" points="750.21,217.545 713.424,216.578"/>
<text fill="#000000" x="648.217" y="221.611" font-size="12" text-anchor="start" dy="0" font-family="Helvetica">-0.05</text>
<polyline fill="none" stroke="#000000" stroke-width="1" stroke-linecap="butt" stroke-linejoin="miter" points="714.661,294.107 677.875,293.14"/>
<text fill="#000000" x="633.983" y="298.173" font-size="12" text-anchor="start" dy="0" font-family="Helvetica">0</text>
<polyline fill="none" stroke="#000000" stroke-width="1" stroke-linecap="butt" stroke-linejoin="miter" points="679.111,370.669 642.325,369.702"/>
<text fill="#000000" x="581.065" y="374.734" font-size="12" text-anchor="start" dy="0" font-family="Helvetica">0.05</text>
<polyline fill="none" stroke="#000000" stroke-width="1" stroke-linecap="butt" stroke-linejoin="miter" points="1378.69,514.238 1387.46,495.337"/>
<text fill="#000000" x="1381.84" y="482.435" font-size="12" text-anchor="start" dy="0" font-family="Helvetica">-0.05</text>
<polyline fill="none" stroke="#000000" stroke-width="1" stroke-linecap="butt" stroke-linejoin="miter" points="1359.63,355.144 1368.4,336.243"/>
<text fill="#000000" x="1373.58" y="323.341" font-size="12" text-anchor="start" dy="0" font-family="Helvetica">0</text>
<polyline fill="none" stroke="#000000" stroke-width="1" stroke-linecap="butt" stroke-linejoin="miter" points="1340.56,196.05 1349.34,177.148"/>
<text fill="#000000" x="1345.72" y="164.247" font-size="12" text-anchor="start" dy="0" font-family="Helvetica">0.05</text>
<polyline fill="none" stroke="#000000" stroke-width="1" stroke-linecap="butt" stroke-linejoin="miter" points="786.338,144.196 795.115,125.295"/>
<text fill="#000000" x="789.492" y="112.394" font-size="12" text-anchor="start" dy="0" font-family="Helvetica">-0.06</text>
<polyline fill="none" stroke="#000000" stroke-width="1" stroke-linecap="butt" stroke-linejoin="miter" points="882.623,146.728 891.4,127.826"/>
<text fill="#000000" x="885.776" y="114.925" font-size="12" text-anchor="start" dy="0" font-family="Helvetica">-0.04</text>
<polyline fill="none" stroke="#000000" stroke-width="1" stroke-linecap="butt" stroke-linejoin="miter" points="978.908,149.259 987.685,130.358"/>
<text fill="#000000" x="982.061" y="117.456" font-size="12" text-anchor="start" dy="0" font-family="Helvetica">-0.02</text>
<polyline fill="none" stroke="#000000" stroke-width="1" stroke-linecap="butt" stroke-linejoin="miter" points="1075.19,151.791 1083.97,132.889"/>
<text fill="#000000" x="1089.15" y="119.988" font-size="12" text-anchor="start" dy="0" font-family="Helvetica">0</text>
<polyline fill="none" stroke="#000000" stroke-width="1" stroke-linecap="butt" stroke-linejoin="miter" points="1171.48,154.322 1180.25,135.42"/>
<text fill="#000000" x="1176.63" y="122.519" font-size="12" text-anchor="start" dy="0" font-family="Helvetica">0.02</text>
<polyline fill="none" stroke="#000000" stroke-width="1" stroke-linecap="butt" stroke-linejoin="miter" points="1267.76,156.853 1276.54,137.952"/>
<text fill="#000000" x="1272.92" y="125.05" font-size="12" text-anchor="start" dy="0" font-family="Helvetica">0.04</text>
<polyline fill="none" stroke="#000000" stroke-width="1" stroke-linecap="butt" stroke-linejoin="miter" points="843.564,638.829 843.564,638.829"/>
<polyline fill="none" stroke="#000000" stroke-width="1" stroke-linecap="butt" stroke-linejoin="miter" points="1204.44,442.171 1204.44,442.171"/>
<circle fill="#cd661d" cx="1068.54" cy="437.967" r="5"/>
<circle fill="#cd661d" cx="1007.07" cy="575.255" r="5"/>
<circle fill="#cd661d" cx="986.457" cy="530.863" r="5"/>
<circle fill="#cd661d" cx="1098.26" cy="390.806" r="5"/>
<circle fill="#cd661d" cx="945.137" cy="722.083" r="5"/>
<circle fill="#cd661d" cx="1033.32" cy="564.417" r="5"/>
<circle fill="#cd661d" cx="992.56" cy="360.685" r="5"/>
<circle fill="#cd661d" cx="1060.84" cy="495.247" r="5"/>
<circle fill="#cd661d" cx="910.421" cy="415.278" r="5"/>
<circle fill="#cd661d" cx="1033.38" cy="430.491" r="5"/>
<circle fill="#cd661d" cx="864.852" cy="503.327" r="5"/>
<circle fill="#cd661d" cx="1004.46" cy="626.266" r="5"/>
<circle fill="#cd661d" cx="1007.31" cy="497.273" r="5"/>
<circle fill="#e41a1c" cx="1121.03" cy="397.669" r="5"/>
<circle fill="#e41a1c" cx="1139.65" cy="407.019" r="5"/>
<circle fill="#e41a1c" cx="1280.94" cy="493.307" r="5"/>
<circle fill="#e41a1c" cx="1156.87" cy="392.619" r="5"/>
<circle fill="#e41a1c" cx="1059.5" cy="573.147" r="5"/>
<circle fill="#e41a1c" cx="1107.81" cy="758.181" r="5"/>
<circle fill="#e41a1c" cx="1031.04" cy="616.67" r="5"/>
<circle fill="#e41a1c" cx="994.302" cy="527.186" r="5"/>
<circle fill="#e41a1c" cx="1088.74" cy="701.557" r="5"/>
<circle fill="#4daf4a" cx="839.676" cy="530.825" r="5"/>
<circle fill="#4daf4a" cx="761.354" cy="508.167" r="5"/>
<circle fill="#4daf4a" cx="1013.17" cy="457.698" r="5"/>
<circle fill="#4daf4a" cx="1044.73" cy="433.897" r="5"/>
<circle fill="#4daf4a" cx="886.292" cy="274.719" r="5"/>
<circle fill="#984ea3" cx="905.632" cy="443.183" r="5"/>
<circle fill="#4daf4a" cx="1047.72" cy="507.332" r="5"/>
<circle fill="#4daf4a" cx="945.772" cy="474.611" r="5"/>
<circle fill="#4daf4a" cx="875.039" cy="765.538" r="5"/>
<circle fill="#984ea3" cx="877.592" cy="424.013" r="5"/>
<circle fill="#984ea3" cx="1002.44" cy="621.786" r="5"/>
<circle fill="#984ea3" cx="1237.89" cy="406.343" r="5"/>
<circle fill="#984ea3" cx="882.291" cy="396.625" r="5"/>
<circle fill="#1874cd" cx="972.268" cy="556.956" r="5"/>
<circle fill="#1874cd" cx="877.566" cy="412.587" r="5"/>
<circle fill="#1874cd" cx="977.453" cy="361.175" r="5"/>
<circle fill="#1874cd" cx="896.265" cy="458.554" r="5"/>
<circle fill="#1874cd" cx="1028.09" cy="596.594" r="5"/>
<circle fill="#1874cd" cx="1162.37" cy="387.522" r="5"/>
<circle fill="#1874cd" cx="895.229" cy="602.144" r="5"/>
<circle fill="#1874cd" cx="1002.07" cy="511.416" r="5"/>
<circle fill="#1874cd" cx="935.744" cy="510.957" r="5"/>
<circle fill="#1874cd" cx="1099.42" cy="373.212" r="5"/>
<circle fill="#1874cd" cx="1113.64" cy="547.771" r="5"/>
<circle fill="#1874cd" cx="1140.23" cy="413.784" r="5"/>
<circle fill="#1874cd" cx="1003.73" cy="437.027" r="5"/>
<circle fill="#8b864e" cx="1207.01" cy="577.989" r="5"/>
<circle fill="#8b864e" cx="1125.74" cy="623.73" r="5"/>
<circle fill="#8b864e" cx="1017.94" cy="548.037" r="5"/>
<circle fill="#8b864e" cx="1237.27" cy="582.082" r="5"/>
<circle fill="#8b864e" cx="1060.88" cy="537.296" r="5"/>
<circle fill="#8b864e" cx="1170.1" cy="454.743" r="5"/>
<circle fill="#8b864e" cx="1135.06" cy="669.884" r="5"/>
<circle fill="#984ea3" cx="1199.91" cy="326.54" r="5"/>
<circle fill="#000000" cx="1119.16" cy="449.485" r="5"/>
<circle fill="#000000" cx="998.76" cy="296.928" r="5"/>
<text fill="#000000" x="536.174" y="255.056" font-size="12" text-anchor="start" dy="0" font-family="Helvetica">PC1 (24%)</text>
<text fill="#000000" x="1401.21" y="337.354" font-size="12" text-anchor="start" dy="0" font-family="Helvetica">PC2 (13.3%)</text>
<text fill="#000000" x="1058.54" y="48.811" font-size="12" text-anchor="start" dy="0" font-family="Helvetica">PC3 (7.9%)</text>
<polygon fill="#8b864e" fill-opacity="0.298039" shape-rendering="crispEdges" points="1060.88,537.296 1170.1,454.743 1125.74,623.73"/>
<polygon fill="#8b864e" fill-opacity="0.298039" shape-rendering="crispEdges" points="1060.88,537.296 1017.94,548.037 1125.74,623.73"/>
<polygon fill="#8b864e" fill-opacity="0.298039" shape-rendering="crispEdges" points="1060.88,537.296 1017.94,548.037 1170.1,454.743"/>
<polygon fill="#8b864e" fill-opacity="0.298039" shape-rendering="crispEdges" points="1135.06,669.884 1017.94,548.037 1125.74,623.73"/>
<polygon fill="#8b864e" fill-opacity="0.298039" shape-rendering="crispEdges" points="1237.27,582.082 1170.1,454.743 1125.74,623.73"/>
<polygon fill="#8b864e" fill-opacity="0.298039" shape-rendering="crispEdges" points="1237.27,582.082 1135.06,669.884 1125.74,623.73"/>
<polygon fill="#8b864e" fill-opacity="0.298039" shape-rendering="crispEdges" points="1017.94,548.037 1170.1,454.743 1207.01,577.989"/>
<polygon fill="#8b864e" fill-opacity="0.298039" shape-rendering="crispEdges" points="1135.06,669.884 1017.94,548.037 1207.01,577.989"/>
<polygon fill="#8b864e" fill-opacity="0.298039" shape-rendering="crispEdges" points="1237.27,582.082 1170.1,454.743 1207.01,577.989"/>
<polygon fill="#8b864e" fill-opacity="0.298039" shape-rendering="crispEdges" points="1237.27,582.082 1135.06,669.884 1207.01,577.989"/>
<polygon fill="#984ea3" fill-opacity="0.298039" shape-rendering="crispEdges" points="882.291,396.625 1237.89,406.343 905.632,443.183"/>
<polygon fill="#984ea3" fill-opacity="0.298039" shape-rendering="crispEdges" points="882.291,396.625 877.592,424.013 905.632,443.183"/>
<polygon fill="#1874cd" fill-opacity="0.298039" shape-rendering="crispEdges" points="1113.64,547.771 896.265,458.554 1099.42,373.212"/>
<polygon fill="#1874cd" fill-opacity="0.298039" shape-rendering="crispEdges" points="977.453,361.175 896.265,458.554 1099.42,373.212"/>
<polygon fill="#1874cd" fill-opacity="0.298039" shape-rendering="crispEdges" points="896.265,458.554 877.566,412.587 895.229,602.144"/>
<polygon fill="#1874cd" fill-opacity="0.298039" shape-rendering="crispEdges" points="1113.64,547.771 896.265,458.554 895.229,602.144"/>
<polygon fill="#1874cd" fill-opacity="0.298039" shape-rendering="crispEdges" points="977.453,361.175 896.265,458.554 877.566,412.587"/>
<polygon fill="#984ea3" fill-opacity="0.298039" shape-rendering="crispEdges" points="1237.89,406.343 1002.44,621.786 905.632,443.183"/>
<polygon fill="#984ea3" fill-opacity="0.298039" shape-rendering="crispEdges" points="877.592,424.013 1002.44,621.786 905.632,443.183"/>
<polygon fill="#1874cd" fill-opacity="0.298039" shape-rendering="crispEdges" points="1028.09,596.594 1113.64,547.771 895.229,602.144"/>
<polygon fill="#cd661d" fill-opacity="0.298039" shape-rendering="crispEdges" points="1004.46,626.266 986.457,530.863 945.137,722.083"/>
<polygon fill="#984ea3" fill-opacity="0.298039" shape-rendering="crispEdges" points="882.291,396.625 1237.89,406.343 1199.91,326.54"/>
<polygon fill="#cd661d" fill-opacity="0.298039" shape-rendering="crispEdges" points="1060.84,495.247 1004.46,626.266 986.457,530.863"/>
<polygon fill="#1874cd" fill-opacity="0.298039" shape-rendering="crispEdges" points="1113.64,547.771 1099.42,373.212 1162.37,387.522"/>
<polygon fill="#1874cd" fill-opacity="0.298039" shape-rendering="crispEdges" points="977.453,361.175 1099.42,373.212 1162.37,387.522"/>
<polygon fill="#984ea3" fill-opacity="0.298039" shape-rendering="crispEdges" points="882.291,396.625 877.592,424.013 1199.91,326.54"/>
<polygon fill="#1874cd" fill-opacity="0.298039" shape-rendering="crispEdges" points="935.744,510.957 877.566,412.587 895.229,602.144"/>
<polygon fill="#4daf4a" fill-opacity="0.298039" shape-rendering="crispEdges" points="1044.73,433.897 886.292,274.719 839.676,530.825"/>
<polygon fill="#1874cd" fill-opacity="0.298039" shape-rendering="crispEdges" points="1028.09,596.594 972.268,556.956 895.229,602.144"/>
<polygon fill="#cd661d" fill-opacity="0.298039" shape-rendering="crispEdges" points="910.421,415.278 986.457,530.863 992.56,360.685"/>
<polygon fill="#984ea3" fill-opacity="0.298039" shape-rendering="crispEdges" points="1237.89,406.343 1002.44,621.786 1199.91,326.54"/>
<polygon fill="#4daf4a" fill-opacity="0.298039" shape-rendering="crispEdges" points="1044.73,433.897 875.039,765.538 839.676,530.825"/>
<polygon fill="#1874cd" fill-opacity="0.298039" shape-rendering="crispEdges" points="1028.09,596.594 1113.64,547.771 1162.37,387.522"/>
<polygon fill="#1874cd" fill-opacity="0.298039" shape-rendering="crispEdges" points="1003.73,437.027 977.453,361.175 877.566,412.587"/>
<polygon fill="#cd661d" fill-opacity="0.298039" shape-rendering="crispEdges" points="1033.38,430.491 986.457,530.863 992.56,360.685"/>
<polygon fill="#cd661d" fill-opacity="0.298039" shape-rendering="crispEdges" points="910.421,415.278 986.457,530.863 864.852,503.327"/>
<polygon fill="#1874cd" fill-opacity="0.298039" shape-rendering="crispEdges" points="935.744,510.957 972.268,556.956 895.229,602.144"/>
<polygon fill="#cd661d" fill-opacity="0.298039" shape-rendering="crispEdges" points="986.457,530.863 864.852,503.327 945.137,722.083"/>
<polygon fill="#4daf4a" fill-opacity="0.298039" shape-rendering="crispEdges" points="886.292,274.719 761.354,508.167 839.676,530.825"/>
<polygon fill="#cd661d" fill-opacity="0.298039" shape-rendering="crispEdges" points="1033.32,564.417 1004.46,626.266 945.137,722.083"/>
<polygon fill="#984ea3" fill-opacity="0.298039" shape-rendering="crispEdges" points="877.592,424.013 1002.44,621.786 1199.91,326.54"/>
<polygon fill="#cd661d" fill-opacity="0.298039" shape-rendering="crispEdges" points="1060.84,495.247 1033.32,564.417 1004.46,626.266"/>
<polygon fill="#cd661d" fill-opacity="0.298039" shape-rendering="crispEdges" points="1033.38,430.491 986.457,530.863 1098.26,390.806"/>
<polygon fill="#cd661d" fill-opacity="0.298039" shape-rendering="crispEdges" points="1060.84,495.247 986.457,530.863 1098.26,390.806"/>
<polygon fill="#4daf4a" fill-opacity="0.298039" shape-rendering="crispEdges" points="1044.73,433.897 886.292,274.719 1013.17,457.698"/>
<polygon fill="#4daf4a" fill-opacity="0.298039" shape-rendering="crispEdges" points="761.354,508.167 875.039,765.538 839.676,530.825"/>
<polygon fill="#1874cd" fill-opacity="0.298039" shape-rendering="crispEdges" points="1028.09,596.594 972.268,556.956 1162.37,387.522"/>
<polygon fill="#4daf4a" fill-opacity="0.298039" shape-rendering="crispEdges" points="1047.72,507.332 1044.73,433.897 875.039,765.538"/>
<polygon fill="#1874cd" fill-opacity="0.298039" shape-rendering="crispEdges" points="935.744,510.957 1003.73,437.027 877.566,412.587"/>
<polygon fill="#4daf4a" fill-opacity="0.298039" shape-rendering="crispEdges" points="1047.72,507.332 1044.73,433.897 1013.17,457.698"/>
<polygon fill="#1874cd" fill-opacity="0.298039" shape-rendering="crispEdges" points="1003.73,437.027 977.453,361.175 1162.37,387.522"/>
<polygon fill="#4daf4a" fill-opacity="0.298039" shape-rendering="crispEdges" points="886.292,274.719 761.354,508.167 1013.17,457.698"/>
<polygon fill="#1874cd" fill-opacity="0.298039" shape-rendering="crispEdges" points="935.744,510.957 1003.73,437.027 972.268,556.956"/>
<polygon fill="#e41a1c" fill-opacity="0.298039" shape-rendering="crispEdges" points="1031.04,616.67 1139.65,407.019 1088.74,701.557"/>
<polygon fill="#1874cd" fill-opacity="0.298039" shape-rendering="crispEdges" points="1003.73,437.027 972.268,556.956 1162.37,387.522"/>
<polygon fill="#cd661d" fill-opacity="0.298039" shape-rendering="crispEdges" points="1033.32,564.417 1007.07,575.255 945.137,722.083"/>
<polygon fill="#e41a1c" fill-opacity="0.298039" shape-rendering="crispEdges" points="1031.04,616.67 994.302,527.186 1139.65,407.019"/>
<polygon fill="#4daf4a" fill-opacity="0.298039" shape-rendering="crispEdges" points="1047.72,507.332 875.039,765.538 1013.17,457.698"/>
<polygon fill="#cd661d" fill-opacity="0.298039" shape-rendering="crispEdges" points="910.421,415.278 864.852,503.327 992.56,360.685"/>
<polygon fill="#cd661d" fill-opacity="0.298039" shape-rendering="crispEdges" points="1060.84,495.247 1033.32,564.417 1098.26,390.806"/>
<polygon fill="#4daf4a" fill-opacity="0.298039" shape-rendering="crispEdges" points="761.354,508.167 875.039,765.538 1013.17,457.698"/>
<polygon fill="#e41a1c" fill-opacity="0.298039" shape-rendering="crispEdges" points="1031.04,616.67 1107.81,758.181 1088.74,701.557"/>
<polygon fill="#cd661d" fill-opacity="0.298039" shape-rendering="crispEdges" points="1033.38,430.491 992.56,360.685 1098.26,390.806"/>
<polygon fill="#e41a1c" fill-opacity="0.298039" shape-rendering="crispEdges" points="1031.04,616.67 994.302,527.186 1107.81,758.181"/>
<polygon fill="#cd661d" fill-opacity="0.298039" shape-rendering="crispEdges" points="1007.07,575.255 864.852,503.327 945.137,722.083"/>
<polygon fill="#cd661d" fill-opacity="0.298039" shape-rendering="crispEdges" points="1033.32,564.417 1007.07,575.255 1098.26,390.806"/>
<polygon fill="#e41a1c" fill-opacity="0.298039" shape-rendering="crispEdges" points="1139.65,407.019 1280.94,493.307 1088.74,701.557"/>
<polygon fill="#cd661d" fill-opacity="0.298039" shape-rendering="crispEdges" points="864.852,503.327 992.56,360.685 1098.26,390.806"/>
<polygon fill="#e41a1c" fill-opacity="0.298039" shape-rendering="crispEdges" points="1121.03,397.669 994.302,527.186 1139.65,407.019"/>
<polygon fill="#e41a1c" fill-opacity="0.298039" shape-rendering="crispEdges" points="1280.94,493.307 1107.81,758.181 1088.74,701.557"/>
<polygon fill="#cd661d" fill-opacity="0.298039" shape-rendering="crispEdges" points="1007.07,575.255 864.852,503.327 1098.26,390.806"/>
<polygon fill="#e41a1c" fill-opacity="0.298039" shape-rendering="crispEdges" points="1059.5,573.147 994.302,527.186 1107.81,758.181"/>
<polygon fill="#e41a1c" fill-opacity="0.298039" shape-rendering="crispEdges" points="1139.65,407.019 1280.94,493.307 1156.87,392.619"/>
<polygon fill="#e41a1c" fill-opacity="0.298039" shape-rendering="crispEdges" points="1121.03,397.669 1059.5,573.147 994.302,527.186"/>
<polygon fill="#e41a1c" fill-opacity="0.298039" shape-rendering="crispEdges" points="1121.03,397.669 1139.65,407.019 1156.87,392.619"/>
<polygon fill="#e41a1c" fill-opacity="0.298039" shape-rendering="crispEdges" points="1059.5,573.147 1280.94,493.307 1107.81,758.181"/>
<polygon fill="#e41a1c" fill-opacity="0.298039" shape-rendering="crispEdges" points="1059.5,573.147 1280.94,493.307 1156.87,392.619"/>
<polygon fill="#e41a1c" fill-opacity="0.298039" shape-rendering="crispEdges" points="1121.03,397.669 1059.5,573.147 1156.87,392.619"/>
</g>
</svg>
