<?xml version="1.0" encoding="UTF-8" standalone="no"?>
<svg xmlns="http://www.w3.org/2000/svg"
     xmlns:xlink="http://www.w3.org/1999/xlink"
     width="2048pt" height="1081pt" viewBox="0 0 2048 1081">
<title>D:/3D_GM/Projects/UW105/Results/Taxonomic_assessment/UW105-249/3D_PCA_lablled_updated.svg</title>
<desc>
Creator: GL2PS 1.4.2, (C) 1999-2020 C. Geuzaine
For: Generated by rgl
CreationDate: Wed Jan 28 10:05:21 2026
</desc>
<defs>
</defs>
<g>
<polygon fill="#ffffff" shape-rendering="crispEdges" points="0,1081 2048,1081 2048,0"/>
<polygon fill="#ffffff" shape-rendering="crispEdges" points="0,1081 2048,0 0,0"/>
<polyline fill="none" stroke="#000000" stroke-width="1" stroke-linecap="butt" stroke-linejoin="miter" points="899.345,768.542 861.134,154.594"/>
<polyline fill="none" stroke="#000000" stroke-width="1" stroke-linecap="butt" stroke-linejoin="miter" points="861.134,154.594 1424.8,178.568"/>
<polyline fill="none" stroke="#0c0c0c" stroke-width="1" stroke-linecap="butt" stroke-linejoin="miter" points="1424.8,178.568 1463.01,792.516"/>
<polyline fill="none" stroke="#010101" stroke-width="1" stroke-linecap="butt" stroke-linejoin="miter" points="1463.01,792.516 899.345,768.542"/>
<polyline fill="none" stroke="#000000" stroke-width="1" stroke-linecap="butt" stroke-linejoin="miter" points="623.201,902.432 584.99,288.484"/>
<polyline fill="none" stroke="#000000" stroke-width="1" stroke-linecap="butt" stroke-linejoin="miter" points="584.99,288.484 861.134,154.594"/>
<polyline fill="none" stroke="#000000" stroke-width="1" stroke-linecap="butt" stroke-linejoin="miter" points="861.134,154.594 899.345,768.542"/>
<polyline fill="none" stroke="#000000" stroke-width="1" stroke-linecap="butt" stroke-linejoin="miter" points="899.345,768.542 623.201,902.432"/>
<polyline fill="none" stroke="#000000" stroke-width="1" stroke-linecap="butt" stroke-linejoin="miter" points="899.345,768.542 1463.01,792.516 1186.87,926.406 623.201,902.432 899.345,768.542"/>
<polyline fill="none" stroke="#000000" stroke-width="1" stroke-linecap="butt" stroke-linejoin="miter" points="688.331,905.202 669.921,914.128"/>
<text fill="#000000" x="629.693" y="929.054" font-size="12" text-anchor="start" dy="0" font-family="Helvetica">-0.04</text>
<polyline fill="none" stroke="#000000" stroke-width="1" stroke-linecap="butt" stroke-linejoin="miter" points="771.292,908.73 752.882,917.657"/>
<text fill="#000000" x="712.654" y="932.583" font-size="12" text-anchor="start" dy="0" font-family="Helvetica">-0.02</text>
<polyline fill="none" stroke="#000000" stroke-width="1" stroke-linecap="butt" stroke-linejoin="miter" points="854.253,912.259 835.843,921.185"/>
<text fill="#000000" x="811.979" y="936.111" font-size="12" text-anchor="start" dy="0" font-family="Helvetica">0</text>
<polyline fill="none" stroke="#000000" stroke-width="1" stroke-linecap="butt" stroke-linejoin="miter" points="937.214,915.788 918.805,924.714"/>
<text fill="#000000" x="881.607" y="939.64" font-size="12" text-anchor="start" dy="0" font-family="Helvetica">0.02</text>
<polyline fill="none" stroke="#000000" stroke-width="1" stroke-linecap="butt" stroke-linejoin="miter" points="1020.18,919.316 1001.77,928.242"/>
<text fill="#000000" x="964.568" y="943.168" font-size="12" text-anchor="start" dy="0" font-family="Helvetica">0.04</text>
<polyline fill="none" stroke="#000000" stroke-width="1" stroke-linecap="butt" stroke-linejoin="miter" points="1103.14,922.845 1084.73,931.771"/>
<text fill="#000000" x="1047.53" y="946.697" font-size="12" text-anchor="start" dy="0" font-family="Helvetica">0.06</text>
<polyline fill="none" stroke="#000000" stroke-width="1" stroke-linecap="butt" stroke-linejoin="miter" points="1186.1,926.373 1167.69,935.299"/>
<text fill="#000000" x="1130.49" y="950.225" font-size="12" text-anchor="start" dy="0" font-family="Helvetica">0.08</text>
<polyline fill="none" stroke="#000000" stroke-width="1" stroke-linecap="butt" stroke-linejoin="miter" points="618.354,824.561 599.945,833.487"/>
<text fill="#000000" x="559.717" y="848.413" font-size="12" text-anchor="start" dy="0" font-family="Helvetica">-0.04</text>
<polyline fill="none" stroke="#000000" stroke-width="1" stroke-linecap="butt" stroke-linejoin="miter" points="609.843,687.811 591.434,696.737"/>
<text fill="#000000" x="551.206" y="711.663" font-size="12" text-anchor="start" dy="0" font-family="Helvetica">-0.02</text>
<polyline fill="none" stroke="#000000" stroke-width="1" stroke-linecap="butt" stroke-linejoin="miter" points="601.332,551.062 582.922,559.987"/>
<text fill="#000000" x="559.058" y="574.914" font-size="12" text-anchor="start" dy="0" font-family="Helvetica">0</text>
<polyline fill="none" stroke="#000000" stroke-width="1" stroke-linecap="butt" stroke-linejoin="miter" points="592.821,414.312 574.411,423.238"/>
<text fill="#000000" x="537.214" y="438.164" font-size="12" text-anchor="start" dy="0" font-family="Helvetica">0.02</text>
<polyline fill="none" stroke="#000000" stroke-width="1" stroke-linecap="butt" stroke-linejoin="miter" points="1396.85,824.596 1434.42,826.194"/>
<text fill="#000000" x="1471.39" y="833.792" font-size="12" text-anchor="start" dy="0" font-family="Helvetica">-0.02</text>
<polyline fill="none" stroke="#000000" stroke-width="1" stroke-linecap="butt" stroke-linejoin="miter" points="1323.46,860.18 1361.03,861.778"/>
<text fill="#000000" x="1398.46" y="869.376" font-size="12" text-anchor="start" dy="0" font-family="Helvetica">0</text>
<polyline fill="none" stroke="#000000" stroke-width="1" stroke-linecap="butt" stroke-linejoin="miter" points="1250.06,895.764 1287.64,897.362"/>
<text fill="#000000" x="1324.69" y="904.961" font-size="12" text-anchor="start" dy="0" font-family="Helvetica">0.02</text>
<polyline fill="none" stroke="#000000" stroke-width="1" stroke-linecap="butt" stroke-linejoin="miter" points="899.345,768.542 899.345,768.542"/>
<polyline fill="none" stroke="#000000" stroke-width="1" stroke-linecap="butt" stroke-linejoin="miter" points="1148.65,312.458 1148.65,312.458"/>
<polyline fill="none" stroke="#2f4f4f" stroke-width="1" stroke-linecap="butt" stroke-linejoin="miter" points="703.982,609.821 762.994,662.365"/>
<circle fill="#cd661d" cx="991.049" cy="446.404" r="5"/>
<circle fill="#cd661d" cx="853.117" cy="381.876" r="5"/>
<circle fill="#2f4f4f" cx="703.982" cy="609.821" r="5"/>
<circle fill="#8b864e" cx="968.619" cy="222.946" r="5"/>
<circle fill="#2f4f4f" cx="762.994" cy="662.365" r="5"/>
<circle fill="#e41a1c" cx="1059.22" cy="720.969" r="5"/>
<circle fill="#1874cd" cx="1071.42" cy="391.384" r="5"/>
<circle fill="#1874cd" cx="1222.59" cy="443.717" r="5"/>
<circle fill="#1874cd" cx="1159.16" cy="385.312" r="5"/>
<circle fill="#1874cd" cx="1006.71" cy="603.442" r="5"/>
<circle fill="#1874cd" cx="1027.3" cy="546.921" r="5"/>
<circle fill="#1874cd" cx="1127.94" cy="772.523" r="5"/>
<circle fill="#1874cd" cx="1026.47" cy="566.245" r="5"/>
<circle fill="#cd661d" cx="845.631" cy="465.1" r="5"/>
<circle fill="#4daf4a" cx="805.789" cy="354.565" r="5"/>
<circle fill="#cd661d" cx="784.701" cy="480.545" r="5"/>
<circle fill="#000000" cx="1055.86" cy="355.131" r="5"/>
<text fill="#000000" x="797.542" y="997.053" font-size="12" text-anchor="start" dy="0" font-family="Helvetica">PC1 (30.6%)</text>
<text fill="#000000" x="456.479" y="635.563" font-size="12" text-anchor="start" dy="0" font-family="Helvetica">PC2 (12.8%)</text>
<text fill="#000000" x="1441.4" y="912.784" font-size="12" text-anchor="start" dy="0" font-family="Helvetica">PC3 (10.4%)</text>
<text fill="#000000" x="973.021" y="396.584" font-size="9" text-anchor="start" dy="0" font-family="Helvetica">Prob_DNH_2_LLDM2</text>
<text fill="#000000" x="1035.14" y="777.723" font-size="9" text-anchor="start" dy="0" font-family="Helvetica">Prob_SK64_LRDM2</text>
<polygon fill="#1874cd" fill-opacity="0.298039" shape-rendering="crispEdges" points="1006.71,603.442 1127.94,772.523 1071.42,391.384"/>
<polygon fill="#1874cd" fill-opacity="0.298039" shape-rendering="crispEdges" points="1159.16,385.312 1127.94,772.523 1071.42,391.384"/>
<text fill="#000000" x="711.101" y="485.745" font-size="9" text-anchor="start" dy="0" font-family="Helvetica">Taung1_LRDM2</text>
<text fill="#000000" x="894.25" y="451.604" font-size="9" text-anchor="start" dy="0" font-family="Helvetica">Aafr_MLD_5_LRDM2</text>
<text fill="#000000" x="913.91" y="608.643" font-size="9" text-anchor="start" dy="0" font-family="Helvetica">Prob_SK61_LRDM2</text>
<polygon fill="#cd661d" fill-opacity="0.298039" shape-rendering="crispEdges" points="845.631,465.1 991.049,446.404 784.701,480.545"/>
<text fill="#000000" x="839.819" y="228.146" font-size="9" text-anchor="start" dy="0" font-family="Helvetica">Hnal_UW101_1686_LRDM2</text>
<polygon fill="#1874cd" fill-opacity="0.298039" shape-rendering="crispEdges" points="1006.71,603.442 1027.3,546.921 1071.42,391.384"/>
<polygon fill="#1874cd" fill-opacity="0.298039" shape-rendering="crispEdges" points="1006.71,603.442 1027.3,546.921 1127.94,772.523"/>
<text fill="#000000" x="774.431" y="470.3" font-size="9" text-anchor="start" dy="0" font-family="Helvetica">STS24_LRDM2</text>
<text fill="#000000" x="1052.76" y="390.512" font-size="9" text-anchor="start" dy="0" font-family="Helvetica">Prob_DNH_60i_LLDM2</text>
<polygon fill="#cd661d" fill-opacity="0.298039" shape-rendering="crispEdges" points="991.049,446.404 853.117,381.876 784.701,480.545"/>
<polygon fill="#1874cd" fill-opacity="0.298039" shape-rendering="crispEdges" points="1159.16,385.312 1027.3,546.921 1071.42,391.384"/>
<text fill="#000000" x="666.994" y="667.565" font-size="9" text-anchor="start" dy="0" font-family="Helvetica">KNM-ER820_LLDM2</text>
<polygon fill="#cd661d" fill-opacity="0.298039" shape-rendering="crispEdges" points="845.631,465.1 853.117,381.876 784.701,480.545"/>
<polygon fill="#1874cd" fill-opacity="0.298039" shape-rendering="crispEdges" points="1159.16,385.312 1127.94,772.523 1222.59,443.717"/>
<polygon fill="#cd661d" fill-opacity="0.298039" shape-rendering="crispEdges" points="845.631,465.1 991.049,446.404 853.117,381.876"/>
<text fill="#000000" x="725.789" y="359.765" font-size="9" text-anchor="start" dy="0" font-family="Helvetica">STW151_LRDM2</text>
<text fill="#000000" x="961.461" y="360.332" font-size="9" text-anchor="start" dy="0" font-family="Helvetica">UW105-249_LRDM2</text>
<polygon fill="#1874cd" fill-opacity="0.298039" shape-rendering="crispEdges" points="1027.3,546.921 1127.94,772.523 1222.59,443.717"/>
<text fill="#000000" x="922.471" y="571.445" font-size="9" text-anchor="start" dy="0" font-family="Helvetica">Prob_SK3978_LRDM2</text>
<text fill="#000000" x="1002.42" y="726.169" font-size="9" text-anchor="start" dy="0" font-family="Helvetica">LH2_LLDM2</text>
<polygon fill="#1874cd" fill-opacity="0.298039" shape-rendering="crispEdges" points="1159.16,385.312 1027.3,546.921 1222.59,443.717"/>
<text fill="#000000" x="635.982" y="615.021" font-size="9" text-anchor="start" dy="0" font-family="Helvetica">Garba_LRDM2</text>
<text fill="#000000" x="745.117" y="387.077" font-size="9" text-anchor="start" dy="0" font-family="Helvetica">Aafr_STW_428_LLDM2</text>
<text fill="#000000" x="936.098" y="552.121" font-size="9" text-anchor="start" dy="0" font-family="Helvetica">Prob_SK62_LLDM2</text>
<text fill="#000000" x="1109.79" y="448.917" font-size="9" text-anchor="start" dy="0" font-family="Helvetica">Prob_DNH_56B_LRDM2</text>
</g>
</svg>
