<?xml version="1.0" encoding="UTF-8" standalone="no"?>
<svg xmlns="http://www.w3.org/2000/svg"
     xmlns:xlink="http://www.w3.org/1999/xlink"
     width="2048pt" height="1081pt" viewBox="0 0 2048 1081">
<title>D:/3D_GM/Projects/UW105/Results/Taxonomic_assessment/UW105_811/Shape_PCA_3D_dropped_landmarks_clean.svg</title>
<desc>
Creator: GL2PS 1.4.2, (C) 1999-2020 C. Geuzaine
For: Generated by rgl
CreationDate: Wed Jan 28 11:21:05 2026
</desc>
<defs>
</defs>
<g>
<polygon fill="#ffffff" shape-rendering="crispEdges" points="0,1081 2048,1081 2048,0"/>
<polygon fill="#ffffff" shape-rendering="crispEdges" points="0,1081 2048,0 0,0"/>
<polyline fill="none" stroke="#000000" stroke-width="1" stroke-linecap="butt" stroke-linejoin="miter" points="584.583,861.336 639.411,299.626"/>
<polyline fill="none" stroke="#000000" stroke-width="1" stroke-linecap="butt" stroke-linejoin="miter" points="639.411,299.626 888.703,63.769"/>
<polyline fill="none" stroke="#000000" stroke-width="1" stroke-linecap="butt" stroke-linejoin="miter" points="888.703,63.769 833.874,625.479 584.583,861.336"/>
<polyline fill="none" stroke="#000000" stroke-width="1" stroke-linecap="butt" stroke-linejoin="miter" points="1408.59,781.374 833.874,625.479"/>
<polyline fill="none" stroke="#000000" stroke-width="1" stroke-linecap="butt" stroke-linejoin="miter" points="833.874,625.479 888.703,63.769"/>
<polyline fill="none" stroke="#000000" stroke-width="1" stroke-linecap="butt" stroke-linejoin="miter" points="888.703,63.769 1463.42,219.664"/>
<polyline fill="none" stroke="#040404" stroke-width="1" stroke-linecap="butt" stroke-linejoin="miter" points="1463.42,219.664 1408.59,781.374"/>
<polyline fill="none" stroke="#000000" stroke-width="1" stroke-linecap="butt" stroke-linejoin="miter" points="584.583,861.336 833.874,625.479"/>
<polyline fill="none" stroke="#000000" stroke-width="1" stroke-linecap="butt" stroke-linejoin="miter" points="833.874,625.479 1408.59,781.374"/>
<polyline fill="none" stroke="#000000" stroke-width="1" stroke-linecap="butt" stroke-linejoin="miter" points="1408.59,781.374 1159.3,1017.23"/>
<polyline fill="none" stroke="#000000" stroke-width="1" stroke-linecap="butt" stroke-linejoin="miter" points="1159.3,1017.23 584.583,861.336"/>
<polyline fill="none" stroke="#000000" stroke-width="1" stroke-linecap="butt" stroke-linejoin="miter" points="1196.82,981.731 1235.13,992.124"/>
<text fill="#000000" x="1269.54" y="1008.52" font-size="12" text-anchor="start" dy="0" font-family="Helvetica">-0.05</text>
<polyline fill="none" stroke="#000000" stroke-width="1" stroke-linecap="butt" stroke-linejoin="miter" points="1283.97,899.281 1322.28,909.674"/>
<text fill="#000000" x="1359.62" y="926.067" font-size="12" text-anchor="start" dy="0" font-family="Helvetica">0</text>
<polyline fill="none" stroke="#000000" stroke-width="1" stroke-linecap="butt" stroke-linejoin="miter" points="1371.11,816.832 1409.43,827.225"/>
<text fill="#000000" x="1444.38" y="843.618" font-size="12" text-anchor="start" dy="0" font-family="Helvetica">0.05</text>
<polyline fill="none" stroke="#000000" stroke-width="1" stroke-linecap="butt" stroke-linejoin="miter" points="590.125,804.554 573.505,820.278"/>
<text fill="#000000" x="541.71" y="842.002" font-size="12" text-anchor="start" dy="0" font-family="Helvetica">-0.04</text>
<polyline fill="none" stroke="#000000" stroke-width="1" stroke-linecap="butt" stroke-linejoin="miter" points="600.628,696.949 584.009,712.673"/>
<text fill="#000000" x="552.214" y="734.396" font-size="12" text-anchor="start" dy="0" font-family="Helvetica">-0.02</text>
<polyline fill="none" stroke="#000000" stroke-width="1" stroke-linecap="butt" stroke-linejoin="miter" points="611.132,589.343 594.512,605.067"/>
<text fill="#000000" x="574.099" y="626.791" font-size="12" text-anchor="start" dy="0" font-family="Helvetica">0</text>
<polyline fill="none" stroke="#000000" stroke-width="1" stroke-linecap="butt" stroke-linejoin="miter" points="621.635,481.738 605.016,497.462"/>
<text fill="#000000" x="575.328" y="519.186" font-size="12" text-anchor="start" dy="0" font-family="Helvetica">0.02</text>
<polyline fill="none" stroke="#000000" stroke-width="1" stroke-linecap="butt" stroke-linejoin="miter" points="632.139,374.133 615.519,389.856"/>
<text fill="#000000" x="585.831" y="411.58" font-size="12" text-anchor="start" dy="0" font-family="Helvetica">0.04</text>
<polyline fill="none" stroke="#000000" stroke-width="1" stroke-linecap="butt" stroke-linejoin="miter" points="631.783,874.14 615.164,889.864"/>
<text fill="#000000" x="583.368" y="911.587" font-size="12" text-anchor="start" dy="0" font-family="Helvetica">-0.04</text>
<polyline fill="none" stroke="#000000" stroke-width="1" stroke-linecap="butt" stroke-linejoin="miter" points="751.135,906.515 734.516,922.238"/>
<text fill="#000000" x="702.721" y="943.962" font-size="12" text-anchor="start" dy="0" font-family="Helvetica">-0.02</text>
<polyline fill="none" stroke="#000000" stroke-width="1" stroke-linecap="butt" stroke-linejoin="miter" points="870.487,938.89 853.868,954.613"/>
<text fill="#000000" x="833.455" y="976.337" font-size="12" text-anchor="start" dy="0" font-family="Helvetica">0</text>
<polyline fill="none" stroke="#000000" stroke-width="1" stroke-linecap="butt" stroke-linejoin="miter" points="989.839,971.265 973.22,986.988"/>
<text fill="#000000" x="943.532" y="1008.71" font-size="12" text-anchor="start" dy="0" font-family="Helvetica">0.02</text>
<polyline fill="none" stroke="#000000" stroke-width="1" stroke-linecap="butt" stroke-linejoin="miter" points="1109.19,1003.64 1092.57,1019.36"/>
<text fill="#000000" x="1062.88" y="1041.09" font-size="12" text-anchor="start" dy="0" font-family="Helvetica">0.04</text>
<polyline fill="none" stroke="#000000" stroke-width="1" stroke-linecap="butt" stroke-linejoin="miter" points="584.583,861.336 584.583,861.336"/>
<polyline fill="none" stroke="#000000" stroke-width="1" stroke-linecap="butt" stroke-linejoin="miter" points="1463.42,219.664 1463.42,219.664"/>
<polyline fill="none" stroke="#8b864e" stroke-width="1" stroke-linecap="butt" stroke-linejoin="miter" points="1342.27,346.945 1205.94,225.394"/>
<circle fill="#cd661d" cx="1079.7" cy="441.854" r="5"/>
<circle fill="#cd661d" cx="849.313" cy="321.692" r="5"/>
<circle fill="#cd661d" cx="1082.19" cy="549.729" r="5"/>
<circle fill="#cd661d" cx="868.605" cy="375.519" r="5"/>
<circle fill="#cd661d" cx="892.382" cy="381.274" r="5"/>
<circle fill="#cd661d" cx="952.751" cy="577.326" r="5"/>
<circle fill="#cd661d" cx="1122.66" cy="290.092" r="5"/>
<circle fill="#cd661d" cx="1089.29" cy="582.004" r="5"/>
<circle fill="#e41a1c" cx="760.369" cy="396.335" r="5"/>
<circle fill="#e41a1c" cx="711.02" cy="568.858" r="5"/>
<circle fill="#e41a1c" cx="851.375" cy="510.524" r="5"/>
<circle fill="#e41a1c" cx="895.546" cy="383.404" r="5"/>
<circle fill="#e41a1c" cx="879.379" cy="472.228" r="5"/>
<circle fill="#e41a1c" cx="1049.68" cy="480.725" r="5"/>
<circle fill="#8b864e" cx="1342.27" cy="346.945" r="5"/>
<circle fill="#8b864e" cx="1205.94" cy="225.394" r="5"/>
<circle fill="#4daf4a" cx="1131.93" cy="540.604" r="5"/>
<circle fill="#4daf4a" cx="1166.22" cy="326.935" r="5"/>
<circle fill="#4daf4a" cx="1117.91" cy="587.677" r="5"/>
<circle fill="#4daf4a" cx="1208.73" cy="535.494" r="5"/>
<circle fill="#4daf4a" cx="1022.28" cy="480.261" r="5"/>
<circle fill="#984ea3" cx="1233.8" cy="641.37" r="5"/>
<circle fill="#984ea3" cx="1169.34" cy="754.286" r="5"/>
<circle fill="#4daf4a" cx="952.854" cy="525.33" r="5"/>
<circle fill="#e41a1c" cx="823.281" cy="497.797" r="5"/>
<circle fill="#4daf4a" cx="1030.93" cy="377.165" r="5"/>
<circle fill="#4daf4a" cx="1195.25" cy="370.537" r="5"/>
<circle fill="#4daf4a" cx="1095.91" cy="287.401" r="5"/>
<circle fill="#984ea3" cx="1328.67" cy="748.527" r="5"/>
<circle fill="#1874cd" cx="1251.32" cy="591.751" r="5"/>
<circle fill="#1874cd" cx="982.974" cy="812.882" r="5"/>
<circle fill="#1874cd" cx="1076.38" cy="907.32" r="5"/>
<circle fill="#1874cd" cx="836.938" cy="808.619" r="5"/>
<circle fill="#1874cd" cx="1012.6" cy="606.091" r="5"/>
<circle fill="#1874cd" cx="999.622" cy="696.988" r="5"/>
<circle fill="#1874cd" cx="983.285" cy="588.726" r="5"/>
<circle fill="#1874cd" cx="886.643" cy="603.474" r="5"/>
<circle fill="#1874cd" cx="1049.36" cy="647.578" r="5"/>
<circle fill="#1874cd" cx="881.961" cy="520.898" r="5"/>
<circle fill="#1874cd" cx="844.532" cy="647.536" r="5"/>
<circle fill="#1874cd" cx="890.571" cy="745.564" r="5"/>
<circle fill="#1874cd" cx="1009.46" cy="479.798" r="5"/>
<circle fill="#1874cd" cx="1106.4" cy="853.012" r="5"/>
<circle fill="#1874cd" cx="1075.24" cy="720.787" r="5"/>
<circle fill="#1874cd" cx="1080.87" cy="739.642" r="5"/>
<circle fill="#000000" cx="920.695" cy="703.615" r="5"/>
<text fill="#000000" x="1397.15" y="984.322" font-size="12" text-anchor="start" dy="0" font-family="Helvetica">PC1 (18.7%)</text>
<text fill="#000000" x="470.805" y="638.983" font-size="12" text-anchor="start" dy="0" font-family="Helvetica">PC2 (13.4%)</text>
<text fill="#000000" x="769.007" y="1045.63" font-size="12" text-anchor="start" dy="0" font-family="Helvetica">PC3 (8.4%)</text>
<polygon fill="#1874cd" fill-opacity="0.298039" shape-rendering="crispEdges" points="890.571,745.564 886.643,603.474 1012.6,606.091"/>
<polygon fill="#1874cd" fill-opacity="0.298039" shape-rendering="crispEdges" points="890.571,745.564 1075.24,720.787 1012.6,606.091"/>
<polygon fill="#1874cd" fill-opacity="0.298039" shape-rendering="crispEdges" points="886.643,603.474 881.961,520.898 1012.6,606.091"/>
<polygon fill="#1874cd" fill-opacity="0.298039" shape-rendering="crispEdges" points="1075.24,720.787 1251.32,591.751 1012.6,606.091"/>
<polygon fill="#1874cd" fill-opacity="0.298039" shape-rendering="crispEdges" points="890.571,745.564 886.643,603.474 844.532,647.536"/>
<polygon fill="#1874cd" fill-opacity="0.298039" shape-rendering="crispEdges" points="886.643,603.474 881.961,520.898 844.532,647.536"/>
<polygon fill="#e41a1c" fill-opacity="0.298039" shape-rendering="crispEdges" points="823.281,497.797 895.546,383.404 879.379,472.228"/>
<polygon fill="#e41a1c" fill-opacity="0.298039" shape-rendering="crispEdges" points="823.281,497.797 1049.68,480.725 879.379,472.228"/>
<polygon fill="#1874cd" fill-opacity="0.298039" shape-rendering="crispEdges" points="881.961,520.898 1009.46,479.798 1012.6,606.091"/>
<polygon fill="#4daf4a" fill-opacity="0.298039" shape-rendering="crispEdges" points="1195.25,370.537 952.854,525.33 1095.91,287.401"/>
<polygon fill="#cd661d" fill-opacity="0.298039" shape-rendering="crispEdges" points="952.751,577.326 1089.29,582.004 1122.66,290.092"/>
<polygon fill="#4daf4a" fill-opacity="0.298039" shape-rendering="crispEdges" points="1030.93,377.165 952.854,525.33 1095.91,287.401"/>
<polygon fill="#1874cd" fill-opacity="0.298039" shape-rendering="crispEdges" points="890.571,745.564 1075.24,720.787 1076.38,907.32"/>
<polygon fill="#984ea3" fill-opacity="0.298039" shape-rendering="crispEdges" points="1233.8,641.37 1169.34,754.286 1328.67,748.527"/>
<polygon fill="#e41a1c" fill-opacity="0.298039" shape-rendering="crispEdges" points="823.281,497.797 760.369,396.335 895.546,383.404"/>
<polygon fill="#e41a1c" fill-opacity="0.298039" shape-rendering="crispEdges" points="823.281,497.797 760.369,396.335 711.02,568.858"/>
<polygon fill="#e41a1c" fill-opacity="0.298039" shape-rendering="crispEdges" points="823.281,497.797 711.02,568.858 1049.68,480.725"/>
<polygon fill="#1874cd" fill-opacity="0.298039" shape-rendering="crispEdges" points="890.571,745.564 836.938,808.619 844.532,647.536"/>
<polygon fill="#e41a1c" fill-opacity="0.298039" shape-rendering="crispEdges" points="1049.68,480.725 895.546,383.404 879.379,472.228"/>
<polygon fill="#1874cd" fill-opacity="0.298039" shape-rendering="crispEdges" points="1251.32,591.751 1009.46,479.798 1012.6,606.091"/>
<polygon fill="#1874cd" fill-opacity="0.298039" shape-rendering="crispEdges" points="881.961,520.898 844.532,647.536 1009.46,479.798"/>
<polygon fill="#1874cd" fill-opacity="0.298039" shape-rendering="crispEdges" points="1106.4,853.012 1075.24,720.787 1251.32,591.751"/>
<polygon fill="#cd661d" fill-opacity="0.298039" shape-rendering="crispEdges" points="952.751,577.326 849.313,321.692 1122.66,290.092"/>
<polygon fill="#cd661d" fill-opacity="0.298039" shape-rendering="crispEdges" points="1082.19,549.729 1089.29,582.004 1122.66,290.092"/>
<polygon fill="#1874cd" fill-opacity="0.298039" shape-rendering="crispEdges" points="890.571,745.564 836.938,808.619 1076.38,907.32"/>
<polygon fill="#1874cd" fill-opacity="0.298039" shape-rendering="crispEdges" points="1106.4,853.012 1075.24,720.787 1076.38,907.32"/>
<polygon fill="#cd661d" fill-opacity="0.298039" shape-rendering="crispEdges" points="952.751,577.326 1082.19,549.729 1089.29,582.004"/>
<polygon fill="#4daf4a" fill-opacity="0.298039" shape-rendering="crispEdges" points="1195.25,370.537 1208.73,535.494 952.854,525.33"/>
<polygon fill="#4daf4a" fill-opacity="0.298039" shape-rendering="crispEdges" points="1030.93,377.165 1022.28,480.261 952.854,525.33"/>
<polygon fill="#e41a1c" fill-opacity="0.298039" shape-rendering="crispEdges" points="760.369,396.335 895.546,383.404 851.375,510.524"/>
<polygon fill="#e41a1c" fill-opacity="0.298039" shape-rendering="crispEdges" points="760.369,396.335 711.02,568.858 851.375,510.524"/>
<polygon fill="#e41a1c" fill-opacity="0.298039" shape-rendering="crispEdges" points="1049.68,480.725 895.546,383.404 851.375,510.524"/>
<polygon fill="#e41a1c" fill-opacity="0.298039" shape-rendering="crispEdges" points="711.02,568.858 1049.68,480.725 851.375,510.524"/>
<polygon fill="#4daf4a" fill-opacity="0.298039" shape-rendering="crispEdges" points="1166.22,326.935 1195.25,370.537 1095.91,287.401"/>
<polygon fill="#1874cd" fill-opacity="0.298039" shape-rendering="crispEdges" points="1106.4,853.012 1076.38,907.32 1251.32,591.751"/>
<polygon fill="#4daf4a" fill-opacity="0.298039" shape-rendering="crispEdges" points="1166.22,326.935 1030.93,377.165 1095.91,287.401"/>
<polygon fill="#1874cd" fill-opacity="0.298039" shape-rendering="crispEdges" points="836.938,808.619 844.532,647.536 982.974,812.882"/>
<polygon fill="#1874cd" fill-opacity="0.298039" shape-rendering="crispEdges" points="844.532,647.536 1009.46,479.798 982.974,812.882"/>
<polygon fill="#cd661d" fill-opacity="0.298039" shape-rendering="crispEdges" points="849.313,321.692 1122.66,290.092 868.605,375.519"/>
<polygon fill="#4daf4a" fill-opacity="0.298039" shape-rendering="crispEdges" points="1022.28,480.261 952.854,525.33 1117.91,587.677"/>
<polygon fill="#cd661d" fill-opacity="0.298039" shape-rendering="crispEdges" points="1079.7,441.854 1082.19,549.729 1122.66,290.092"/>
<polygon fill="#4daf4a" fill-opacity="0.298039" shape-rendering="crispEdges" points="1208.73,535.494 952.854,525.33 1117.91,587.677"/>
<polygon fill="#cd661d" fill-opacity="0.298039" shape-rendering="crispEdges" points="952.751,577.326 849.313,321.692 868.605,375.519"/>
<polygon fill="#1874cd" fill-opacity="0.298039" shape-rendering="crispEdges" points="836.938,808.619 1076.38,907.32 982.974,812.882"/>
<polygon fill="#1874cd" fill-opacity="0.298039" shape-rendering="crispEdges" points="1251.32,591.751 1009.46,479.798 982.974,812.882"/>
<polygon fill="#1874cd" fill-opacity="0.298039" shape-rendering="crispEdges" points="1076.38,907.32 1251.32,591.751 982.974,812.882"/>
<polygon fill="#cd661d" fill-opacity="0.298039" shape-rendering="crispEdges" points="952.751,577.326 1082.19,549.729 868.605,375.519"/>
<polygon fill="#cd661d" fill-opacity="0.298039" shape-rendering="crispEdges" points="892.382,381.274 1079.7,441.854 1122.66,290.092"/>
<polygon fill="#cd661d" fill-opacity="0.298039" shape-rendering="crispEdges" points="892.382,381.274 1122.66,290.092 868.605,375.519"/>
<polygon fill="#4daf4a" fill-opacity="0.298039" shape-rendering="crispEdges" points="1166.22,326.935 1195.25,370.537 1208.73,535.494"/>
<polygon fill="#4daf4a" fill-opacity="0.298039" shape-rendering="crispEdges" points="1166.22,326.935 1030.93,377.165 1022.28,480.261"/>
<polygon fill="#4daf4a" fill-opacity="0.298039" shape-rendering="crispEdges" points="1166.22,326.935 1022.28,480.261 1117.91,587.677"/>
<polygon fill="#cd661d" fill-opacity="0.298039" shape-rendering="crispEdges" points="1079.7,441.854 1082.19,549.729 868.605,375.519"/>
<polygon fill="#4daf4a" fill-opacity="0.298039" shape-rendering="crispEdges" points="1166.22,326.935 1208.73,535.494 1117.91,587.677"/>
<polygon fill="#cd661d" fill-opacity="0.298039" shape-rendering="crispEdges" points="892.382,381.274 1079.7,441.854 868.605,375.519"/>
</g>
</svg>
