<?xml version="1.0" encoding="UTF-8" standalone="no"?>
<svg xmlns="http://www.w3.org/2000/svg"
     xmlns:xlink="http://www.w3.org/1999/xlink"
     width="2048pt" height="1081pt" viewBox="0 0 2048 1081">
<title>D:/3D_GM/Projects/UW105/Results/Taxonomic_assessment/UW105_811/UW105-811_Form_PCA_dropped_landmarks_clean.svg</title>
<desc>
Creator: GL2PS 1.4.2, (C) 1999-2020 C. Geuzaine
For: Generated by rgl
CreationDate: Wed Jan 21 15:50:29 2026
</desc>
<defs>
</defs>
<g>
<polygon fill="#ffffff" shape-rendering="crispEdges" points="0,1081 2048,1081 2048,0"/>
<polygon fill="#ffffff" shape-rendering="crispEdges" points="0,1081 2048,0 0,0"/>
<polyline fill="none" stroke="#000000" stroke-width="1" stroke-linecap="butt" stroke-linejoin="miter" points="1352.59,786.531 1357.4,935.068 697.131,937.832 692.322,789.294 1352.59,786.531"/>
<polyline fill="none" stroke="#000000" stroke-width="1" stroke-linecap="butt" stroke-linejoin="miter" points="1350.87,143.168 1355.68,291.706 1357.4,935.068 1352.59,786.531 1350.87,143.168"/>
<polyline fill="none" stroke="#171717" stroke-width="1" stroke-linecap="butt" stroke-linejoin="miter" points="1352.59,786.531 692.322,789.294"/>
<polyline fill="none" stroke="#181818" stroke-width="1" stroke-linecap="butt" stroke-linejoin="miter" points="692.322,789.294 690.597,145.932"/>
<polyline fill="none" stroke="#989898" stroke-width="1" stroke-linecap="butt" stroke-linejoin="miter" points="690.597,145.932 1350.87,143.168"/>
<polyline fill="none" stroke="#8f8f8f" stroke-width="1" stroke-linecap="butt" stroke-linejoin="miter" points="1350.87,143.168 1352.59,786.531"/>
<polyline fill="none" stroke="#000000" stroke-width="1" stroke-linecap="butt" stroke-linejoin="miter" points="1320.36,143.296 1320.24,100.406"/>
<text fill="#000000" x="1309.33" y="63.5146" font-size="12" text-anchor="start" dy="0" font-family="Helvetica">-0.2</text>
<polyline fill="none" stroke="#000000" stroke-width="1" stroke-linecap="butt" stroke-linejoin="miter" points="1143.45,144.037 1143.33,101.146"/>
<text fill="#000000" x="1132.42" y="64.2549" font-size="12" text-anchor="start" dy="0" font-family="Helvetica">-0.1</text>
<polyline fill="none" stroke="#000000" stroke-width="1" stroke-linecap="butt" stroke-linejoin="miter" points="966.537,144.777 966.421,101.886"/>
<text fill="#000000" x="962.707" y="64.9956" font-size="12" text-anchor="start" dy="0" font-family="Helvetica">0</text>
<polyline fill="none" stroke="#000000" stroke-width="1" stroke-linecap="butt" stroke-linejoin="miter" points="789.625,145.517 789.51,102.626"/>
<text fill="#000000" x="780.595" y="65.7358" font-size="12" text-anchor="start" dy="0" font-family="Helvetica">0.1</text>
<polyline fill="none" stroke="#000000" stroke-width="1" stroke-linecap="butt" stroke-linejoin="miter" points="1351.71,169.175 1351.6,126.284"/>
<text fill="#000000" x="1337.08" y="89.3936" font-size="12" text-anchor="start" dy="0" font-family="Helvetica">-0.05</text>
<polyline fill="none" stroke="#000000" stroke-width="1" stroke-linecap="butt" stroke-linejoin="miter" points="1353.33,219.064 1353.21,176.173"/>
<text fill="#000000" x="1349.5" y="139.282" font-size="12" text-anchor="start" dy="0" font-family="Helvetica">0</text>
<polyline fill="none" stroke="#000000" stroke-width="1" stroke-linecap="butt" stroke-linejoin="miter" points="1354.94,268.953 1354.83,226.062"/>
<text fill="#000000" x="1342.31" y="189.171" font-size="12" text-anchor="start" dy="0" font-family="Helvetica">0.05</text>
<polyline fill="none" stroke="#000000" stroke-width="1" stroke-linecap="butt" stroke-linejoin="miter" points="692.316,787.085 648.298,787.27"/>
<text fill="#000000" x="575.54" y="793.454" font-size="12" text-anchor="start" dy="0" font-family="Helvetica">-0.06</text>
<polyline fill="none" stroke="#000000" stroke-width="1" stroke-linecap="butt" stroke-linejoin="miter" points="691.987,664.359 647.969,664.543"/>
<text fill="#000000" x="575.211" y="670.728" font-size="12" text-anchor="start" dy="0" font-family="Helvetica">-0.04</text>
<polyline fill="none" stroke="#000000" stroke-width="1" stroke-linecap="butt" stroke-linejoin="miter" points="691.658,541.633 647.64,541.817"/>
<text fill="#000000" x="574.882" y="548.001" font-size="12" text-anchor="start" dy="0" font-family="Helvetica">-0.02</text>
<polyline fill="none" stroke="#000000" stroke-width="1" stroke-linecap="butt" stroke-linejoin="miter" points="691.329,418.907 647.311,419.091"/>
<text fill="#000000" x="596.107" y="425.275" font-size="12" text-anchor="start" dy="0" font-family="Helvetica">0</text>
<polyline fill="none" stroke="#000000" stroke-width="1" stroke-linecap="butt" stroke-linejoin="miter" points="691,296.18 646.981,296.364"/>
<text fill="#000000" x="578.215" y="302.548" font-size="12" text-anchor="start" dy="0" font-family="Helvetica">0.02</text>
<polyline fill="none" stroke="#000000" stroke-width="1" stroke-linecap="butt" stroke-linejoin="miter" points="690.67,173.454 646.652,173.638"/>
<text fill="#000000" x="577.886" y="179.822" font-size="12" text-anchor="start" dy="0" font-family="Helvetica">0.04</text>
<polyline fill="none" stroke="#000000" stroke-width="1" stroke-linecap="butt" stroke-linejoin="miter" points="1352.59,786.531 1352.59,786.531"/>
<polyline fill="none" stroke="#000000" stroke-width="1" stroke-linecap="butt" stroke-linejoin="miter" points="695.405,294.469 695.405,294.469"/>
<polyline fill="none" stroke="#8b864e" stroke-width="1" stroke-linecap="butt" stroke-linejoin="miter" points="1317.45,633.096 1283.33,475.765"/>
<circle fill="#e41a1c" cx="1169.19" cy="433.91" r="5"/>
<circle fill="#e41a1c" cx="1040.5" cy="262.141" r="5"/>
<circle fill="#e41a1c" cx="1096.17" cy="536.203" r="5"/>
<circle fill="#e41a1c" cx="1130.73" cy="346.555" r="5"/>
<circle fill="#e41a1c" cx="1032.09" cy="290.168" r="5"/>
<circle fill="#e41a1c" cx="828.411" cy="402.435" r="5"/>
<circle fill="#e41a1c" cx="1010.88" cy="272.46" r="5"/>
<circle fill="#e41a1c" cx="830.151" cy="450.513" r="5"/>
<circle fill="#e41a1c" cx="1000.15" cy="312.967" r="5"/>
<circle fill="#e41a1c" cx="1089.82" cy="583.682" r="5"/>
<circle fill="#e41a1c" cx="916.381" cy="382.183" r="5"/>
<circle fill="#e41a1c" cx="1104.14" cy="413.54" r="5"/>
<circle fill="#e41a1c" cx="984.125" cy="433.416" r="5"/>
<circle fill="#e41a1c" cx="1121.73" cy="541.268" r="5"/>
<circle fill="#8b864e" cx="1317.45" cy="633.096" r="5"/>
<circle fill="#8b864e" cx="1283.33" cy="475.765" r="5"/>
<circle fill="#4daf4a" cx="964.967" cy="449.307" r="5"/>
<circle fill="#4daf4a" cx="1114.33" cy="349.75" r="5"/>
<circle fill="#4daf4a" cx="1093.3" cy="562.276" r="5"/>
<circle fill="#4daf4a" cx="1021.95" cy="510.406" r="5"/>
<circle fill="#4daf4a" cx="841.951" cy="300.414" r="5"/>
<circle fill="#984ea3" cx="717.748" cy="425.038" r="5"/>
<circle fill="#984ea3" cx="962.95" cy="688.729" r="5"/>
<circle fill="#4daf4a" cx="839.091" cy="412.985" r="5"/>
<circle fill="#e41a1c" cx="882.797" cy="396.45" r="5"/>
<circle fill="#4daf4a" cx="991.749" cy="331.15" r="5"/>
<circle fill="#4daf4a" cx="1078.95" cy="391.26" r="5"/>
<circle fill="#4daf4a" cx="937.662" cy="228.154" r="5"/>
<circle fill="#984ea3" cx="744.693" cy="616.447" r="5"/>
<circle fill="#1874cd" cx="829.06" cy="444.846" r="5"/>
<circle fill="#1874cd" cx="974.119" cy="736.53" r="5"/>
<circle fill="#1874cd" cx="1030.86" cy="874.379" r="5"/>
<circle fill="#1874cd" cx="766.752" cy="612.5" r="5"/>
<circle fill="#1874cd" cx="859.729" cy="522.361" r="5"/>
<circle fill="#1874cd" cx="963.029" cy="675.837" r="5"/>
<circle fill="#1874cd" cx="930.783" cy="516.389" r="5"/>
<circle fill="#1874cd" cx="940.792" cy="537.762" r="5"/>
<circle fill="#1874cd" cx="773.808" cy="503.976" r="5"/>
<circle fill="#1874cd" cx="885.495" cy="436.501" r="5"/>
<circle fill="#1874cd" cx="879.361" cy="536.592" r="5"/>
<circle fill="#1874cd" cx="963.09" cy="730.213" r="5"/>
<circle fill="#1874cd" cx="982.269" cy="412.702" r="5"/>
<circle fill="#1874cd" cx="924.611" cy="771.286" r="5"/>
<circle fill="#1874cd" cx="968.67" cy="714.334" r="5"/>
<circle fill="#1874cd" cx="743.493" cy="552.436" r="5"/>
<circle fill="#000000" cx="1044.09" cy="696.444" r="5"/>
<text fill="#000000" x="1360.43" y="51.6899" font-size="12" text-anchor="start" dy="0" font-family="Helvetica">PC2 (13.4%)</text>
<text fill="#000000" x="482.266" y="464.447" font-size="12" text-anchor="start" dy="0" font-family="Helvetica">PC3 (8.4%)</text>
<polygon fill="#1874cd" fill-opacity="0.298039" shape-rendering="crispEdges" points="773.808,503.976 968.67,714.334 859.729,522.361"/>
<polygon fill="#4daf4a" fill-opacity="0.298039" shape-rendering="crispEdges" points="1078.95,391.26 937.662,228.154 839.091,412.985"/>
<polygon fill="#1874cd" fill-opacity="0.298039" shape-rendering="crispEdges" points="930.783,516.389 968.67,714.334 859.729,522.361"/>
<polygon fill="#1874cd" fill-opacity="0.298039" shape-rendering="crispEdges" points="885.495,436.501 773.808,503.976 859.729,522.361"/>
<polygon fill="#e41a1c" fill-opacity="0.298039" shape-rendering="crispEdges" points="830.151,450.513 1121.73,541.268 1010.88,272.46"/>
<polygon fill="#984ea3" fill-opacity="0.298039" shape-rendering="crispEdges" points="717.748,425.038 962.95,688.729 744.693,616.447"/>
<polygon fill="#e41a1c" fill-opacity="0.298039" shape-rendering="crispEdges" points="830.151,450.513 1010.88,272.46 828.411,402.435"/>
<polygon fill="#1874cd" fill-opacity="0.298039" shape-rendering="crispEdges" points="773.808,503.976 968.67,714.334 743.493,552.436"/>
<polygon fill="#4daf4a" fill-opacity="0.298039" shape-rendering="crispEdges" points="1078.95,391.26 937.662,228.154 1114.33,349.75"/>
<polygon fill="#1874cd" fill-opacity="0.298039" shape-rendering="crispEdges" points="930.783,516.389 982.269,412.702 859.729,522.361"/>
<polygon fill="#1874cd" fill-opacity="0.298039" shape-rendering="crispEdges" points="885.495,436.501 773.808,503.976 829.06,444.846"/>
<polygon fill="#1874cd" fill-opacity="0.298039" shape-rendering="crispEdges" points="885.495,436.501 982.269,412.702 859.729,522.361"/>
<polygon fill="#1874cd" fill-opacity="0.298039" shape-rendering="crispEdges" points="930.783,516.389 968.67,714.334 982.269,412.702"/>
<polygon fill="#1874cd" fill-opacity="0.298039" shape-rendering="crispEdges" points="773.808,503.976 829.06,444.846 743.493,552.436"/>
<polygon fill="#e41a1c" fill-opacity="0.298039" shape-rendering="crispEdges" points="1121.73,541.268 1010.88,272.46 1169.19,433.91"/>
<polygon fill="#4daf4a" fill-opacity="0.298039" shape-rendering="crispEdges" points="937.662,228.154 841.951,300.414 839.091,412.985"/>
<polygon fill="#e41a1c" fill-opacity="0.298039" shape-rendering="crispEdges" points="1040.5,262.141 1010.88,272.46 828.411,402.435"/>
<polygon fill="#4daf4a" fill-opacity="0.298039" shape-rendering="crispEdges" points="1078.95,391.26 1093.3,562.276 839.091,412.985"/>
<polygon fill="#1874cd" fill-opacity="0.298039" shape-rendering="crispEdges" points="924.611,771.286 968.67,714.334 743.493,552.436"/>
<polygon fill="#e41a1c" fill-opacity="0.298039" shape-rendering="crispEdges" points="1089.82,583.682 830.151,450.513 1121.73,541.268"/>
<polygon fill="#1874cd" fill-opacity="0.298039" shape-rendering="crispEdges" points="885.495,436.501 829.06,444.846 982.269,412.702"/>
<polygon fill="#e41a1c" fill-opacity="0.298039" shape-rendering="crispEdges" points="1089.82,583.682 830.151,450.513 828.411,402.435"/>
<polygon fill="#1874cd" fill-opacity="0.298039" shape-rendering="crispEdges" points="968.67,714.334 982.269,412.702 1030.86,874.379"/>
<polygon fill="#1874cd" fill-opacity="0.298039" shape-rendering="crispEdges" points="924.611,771.286 968.67,714.334 1030.86,874.379"/>
<polygon fill="#4daf4a" fill-opacity="0.298039" shape-rendering="crispEdges" points="937.662,228.154 841.951,300.414 1114.33,349.75"/>
<polygon fill="#4daf4a" fill-opacity="0.298039" shape-rendering="crispEdges" points="1078.95,391.26 1093.3,562.276 1114.33,349.75"/>
<polygon fill="#e41a1c" fill-opacity="0.298039" shape-rendering="crispEdges" points="1130.73,346.555 1040.5,262.141 1010.88,272.46"/>
<polygon fill="#1874cd" fill-opacity="0.298039" shape-rendering="crispEdges" points="829.06,444.846 766.752,612.5 743.493,552.436"/>
<polygon fill="#e41a1c" fill-opacity="0.298039" shape-rendering="crispEdges" points="1130.73,346.555 1010.88,272.46 1169.19,433.91"/>
<polygon fill="#e41a1c" fill-opacity="0.298039" shape-rendering="crispEdges" points="1089.82,583.682 1121.73,541.268 1169.19,433.91"/>
<polygon fill="#1874cd" fill-opacity="0.298039" shape-rendering="crispEdges" points="829.06,444.846 766.752,612.5 982.269,412.702"/>
<polygon fill="#4daf4a" fill-opacity="0.298039" shape-rendering="crispEdges" points="1093.3,562.276 841.951,300.414 839.091,412.985"/>
<polygon fill="#1874cd" fill-opacity="0.298039" shape-rendering="crispEdges" points="924.611,771.286 766.752,612.5 743.493,552.436"/>
<polygon fill="#e41a1c" fill-opacity="0.298039" shape-rendering="crispEdges" points="1089.82,583.682 916.381,382.183 828.411,402.435"/>
<polygon fill="#1874cd" fill-opacity="0.298039" shape-rendering="crispEdges" points="924.611,771.286 766.752,612.5 1030.86,874.379"/>
<polygon fill="#e41a1c" fill-opacity="0.298039" shape-rendering="crispEdges" points="1040.5,262.141 1032.09,290.168 828.411,402.435"/>
<polygon fill="#4daf4a" fill-opacity="0.298039" shape-rendering="crispEdges" points="1093.3,562.276 841.951,300.414 1114.33,349.75"/>
<polygon fill="#1874cd" fill-opacity="0.298039" shape-rendering="crispEdges" points="974.119,736.53 982.269,412.702 1030.86,874.379"/>
<polygon fill="#e41a1c" fill-opacity="0.298039" shape-rendering="crispEdges" points="916.381,382.183 1032.09,290.168 828.411,402.435"/>
<polygon fill="#e41a1c" fill-opacity="0.298039" shape-rendering="crispEdges" points="1089.82,583.682 1130.73,346.555 1169.19,433.91"/>
<polygon fill="#1874cd" fill-opacity="0.298039" shape-rendering="crispEdges" points="974.119,736.53 766.752,612.5 982.269,412.702"/>
<polygon fill="#e41a1c" fill-opacity="0.298039" shape-rendering="crispEdges" points="1089.82,583.682 1130.73,346.555 916.381,382.183"/>
<polygon fill="#1874cd" fill-opacity="0.298039" shape-rendering="crispEdges" points="974.119,736.53 766.752,612.5 1030.86,874.379"/>
<polygon fill="#e41a1c" fill-opacity="0.298039" shape-rendering="crispEdges" points="1130.73,346.555 1040.5,262.141 1032.09,290.168"/>
<polygon fill="#e41a1c" fill-opacity="0.298039" shape-rendering="crispEdges" points="1130.73,346.555 916.381,382.183 1032.09,290.168"/>
</g>
</svg>
