<?xml version="1.0" encoding="UTF-8" standalone="no"?>
<svg xmlns="http://www.w3.org/2000/svg"
     xmlns:xlink="http://www.w3.org/1999/xlink"
     width="2048pt" height="1081pt" viewBox="0 0 2048 1081">
<title>D:/3D_GM/Projects/UW105/Results/Taxonomic_assessment/UW105_076_249/3D_PCA_labelled_as_DM1s.svg</title>
<desc>
Creator: GL2PS 1.4.2, (C) 1999-2020 C. Geuzaine
For: Generated by rgl
CreationDate: Wed Jan 28 09:27:09 2026
</desc>
<defs>
</defs>
<g>
<polygon fill="#ffffff" shape-rendering="crispEdges" points="0,1081 2048,1081 2048,0"/>
<polygon fill="#ffffff" shape-rendering="crispEdges" points="0,1081 2048,0 0,0"/>
<polyline fill="none" stroke="#000000" stroke-width="1" stroke-linecap="butt" stroke-linejoin="miter" points="1157.9,154.207 1067.49,532.682"/>
<polyline fill="none" stroke="#000000" stroke-width="1" stroke-linecap="butt" stroke-linejoin="miter" points="1067.49,532.682 647.991,625.181"/>
<polyline fill="none" stroke="#000000" stroke-width="1" stroke-linecap="butt" stroke-linejoin="miter" points="647.991,625.181 738.403,246.706"/>
<polyline fill="none" stroke="#000000" stroke-width="1" stroke-linecap="butt" stroke-linejoin="miter" points="738.403,246.706 1157.9,154.207"/>
<polyline fill="none" stroke="#000000" stroke-width="1" stroke-linecap="butt" stroke-linejoin="miter" points="1400.01,455.819 1309.6,834.294"/>
<polyline fill="none" stroke="#000000" stroke-width="1" stroke-linecap="butt" stroke-linejoin="miter" points="1309.6,834.294 1067.49,532.682"/>
<polyline fill="none" stroke="#000000" stroke-width="1" stroke-linecap="butt" stroke-linejoin="miter" points="1067.49,532.682 1157.9,154.207"/>
<polyline fill="none" stroke="#000000" stroke-width="1" stroke-linecap="butt" stroke-linejoin="miter" points="1157.9,154.207 1400.01,455.819"/>
<polyline fill="none" stroke="#000000" stroke-width="1" stroke-linecap="butt" stroke-linejoin="miter" points="1309.6,834.294 890.097,926.793"/>
<polyline fill="none" stroke="#000000" stroke-width="1" stroke-linecap="butt" stroke-linejoin="miter" points="890.097,926.793 647.991,625.181"/>
<polyline fill="none" stroke="#000000" stroke-width="1" stroke-linecap="butt" stroke-linejoin="miter" points="647.991,625.181 1067.49,532.682"/>
<polyline fill="none" stroke="#000000" stroke-width="1" stroke-linecap="butt" stroke-linejoin="miter" points="1067.49,532.682 1309.6,834.294"/>
<polyline fill="none" stroke="#000000" stroke-width="1" stroke-linecap="butt" stroke-linejoin="miter" points="1262.47,844.685 1278.61,864.792"/>
<text fill="#000000" x="1280.35" y="890.9" font-size="12" text-anchor="start" dy="0" font-family="Helvetica">-0.05</text>
<polyline fill="none" stroke="#000000" stroke-width="1" stroke-linecap="butt" stroke-linejoin="miter" points="1139.43,871.815 1155.57,891.923"/>
<text fill="#000000" x="1168.11" y="918.031" font-size="12" text-anchor="start" dy="0" font-family="Helvetica">0</text>
<polyline fill="none" stroke="#000000" stroke-width="1" stroke-linecap="butt" stroke-linejoin="miter" points="1016.39,898.946 1032.53,919.054"/>
<text fill="#000000" x="1036.27" y="945.161" font-size="12" text-anchor="start" dy="0" font-family="Helvetica">0.05</text>
<polyline fill="none" stroke="#000000" stroke-width="1" stroke-linecap="butt" stroke-linejoin="miter" points="893.348,926.077 909.488,946.184"/>
<text fill="#000000" x="916.829" y="972.292" font-size="12" text-anchor="start" dy="0" font-family="Helvetica">0.1</text>
<polyline fill="none" stroke="#000000" stroke-width="1" stroke-linecap="butt" stroke-linejoin="miter" points="1386.58,512.032 1402.72,532.139"/>
<text fill="#000000" x="1404.46" y="558.247" font-size="12" text-anchor="start" dy="0" font-family="Helvetica">-0.05</text>
<polyline fill="none" stroke="#000000" stroke-width="1" stroke-linecap="butt" stroke-linejoin="miter" points="1357.68,632.996 1373.82,653.103"/>
<text fill="#000000" x="1386.36" y="679.21" font-size="12" text-anchor="start" dy="0" font-family="Helvetica">0</text>
<polyline fill="none" stroke="#000000" stroke-width="1" stroke-linecap="butt" stroke-linejoin="miter" points="1328.79,753.959 1344.93,774.067"/>
<text fill="#000000" x="1348.67" y="800.174" font-size="12" text-anchor="start" dy="0" font-family="Helvetica">0.05</text>
<polyline fill="none" stroke="#000000" stroke-width="1" stroke-linecap="butt" stroke-linejoin="miter" points="666.443,648.168 638.476,654.335"/>
<text fill="#000000" x="584.885" y="666.501" font-size="12" text-anchor="start" dy="0" font-family="Helvetica">-0.05</text>
<polyline fill="none" stroke="#000000" stroke-width="1" stroke-linecap="butt" stroke-linejoin="miter" points="740.087,739.913 712.12,746.08"/>
<text fill="#000000" x="677.747" y="758.247" font-size="12" text-anchor="start" dy="0" font-family="Helvetica">0</text>
<polyline fill="none" stroke="#000000" stroke-width="1" stroke-linecap="butt" stroke-linejoin="miter" points="813.731,831.658 785.764,837.825"/>
<text fill="#000000" x="735.732" y="849.991" font-size="12" text-anchor="start" dy="0" font-family="Helvetica">0.05</text>
<polyline fill="none" stroke="#000000" stroke-width="1" stroke-linecap="butt" stroke-linejoin="miter" points="887.375,923.403 859.408,929.569"/>
<text fill="#000000" x="815.782" y="941.736" font-size="12" text-anchor="start" dy="0" font-family="Helvetica">0.1</text>
<polyline fill="none" stroke="#000000" stroke-width="1" stroke-linecap="butt" stroke-linejoin="miter" points="1157.9,154.207 1157.9,154.207"/>
<polyline fill="none" stroke="#000000" stroke-width="1" stroke-linecap="butt" stroke-linejoin="miter" points="890.097,926.793 890.097,926.793"/>
<polyline fill="none" stroke="#cd661d" stroke-width="1" stroke-linecap="butt" stroke-linejoin="miter" points="1142.27,359.634 1105.93,513.475"/>
<circle fill="#e41a1c" cx="1212.79" cy="360.801" r="5"/>
<circle fill="#e41a1c" cx="1124.97" cy="383.133" r="5"/>
<circle fill="#4daf4a" cx="886.003" cy="506.218" r="5"/>
<circle fill="#8b864e" cx="991.131" cy="331.017" r="5"/>
<circle fill="#2f4f4f" cx="1172.04" cy="317.534" r="5"/>
<circle fill="#e41a1c" cx="1141.55" cy="565.75" r="5"/>
<circle fill="#e41a1c" cx="1014.88" cy="552.146" r="5"/>
<circle fill="#4daf4a" cx="1130.37" cy="635.588" r="5"/>
<circle fill="#1874cd" cx="855.992" cy="694.372" r="5"/>
<circle fill="#1874cd" cx="979.81" cy="481.345" r="5"/>
<circle fill="#1874cd" cx="847.644" cy="524.255" r="5"/>
<circle fill="#1874cd" cx="813.72" cy="551.707" r="5"/>
<circle fill="#1874cd" cx="914.912" cy="550.209" r="5"/>
<circle fill="#cd661d" cx="1142.27" cy="359.634" r="5"/>
<circle fill="#cd661d" cx="1105.93" cy="513.475" r="5"/>
<circle fill="#4daf4a" cx="1153.52" cy="387.946" r="5"/>
<circle fill="#000000" cx="1306.37" cy="612.095" r="5"/>
<circle fill="#000000" cx="881.253" cy="378.227" r="5"/>
<text fill="#000000" x="1127.18" y="992.206" font-size="12" text-anchor="start" dy="0" font-family="Helvetica">PC1 (39%)</text>
<text fill="#000000" x="1410.93" y="725.32" font-size="12" text-anchor="start" dy="0" font-family="Helvetica">PC2 (19.1%)</text>
<text fill="#000000" x="614.75" y="831.886" font-size="12" text-anchor="start" dy="0" font-family="Helvetica">PC3 (10.8%)</text>
<text fill="#000000" x="1039.97" y="640.789" font-size="9" text-anchor="start" dy="0" font-family="Helvetica">Omo222-1973-2744</text>
<text fill="#000000" x="1027.53" y="518.675" font-size="9" text-anchor="start" dy="0" font-family="Helvetica">STW104_LLDM1</text>
<text fill="#000000" x="954.077" y="557.347" font-size="9" text-anchor="start" dy="0" font-family="Helvetica">LH3l_LRDM1</text>
<text fill="#000000" x="862.331" y="336.217" font-size="9" text-anchor="start" dy="0" font-family="Helvetica">Hnal_UW101_1685_LRDM1</text>
<text fill="#000000" x="1073.52" y="393.146" font-size="9" text-anchor="start" dy="0" font-family="Helvetica">STW151_LRDM1</text>
<text fill="#000000" x="1074.44" y="322.734" font-size="9" text-anchor="start" dy="0" font-family="Helvetica">KNM-ER820_LRDM1</text>
<text fill="#000000" x="1083.15" y="570.951" font-size="9" text-anchor="start" dy="0" font-family="Helvetica">LH2_LRDM1</text>
<polygon fill="#4daf4a" fill-opacity="0.298039" shape-rendering="crispEdges" points="886.003,506.218 1130.37,635.588 1153.52,387.946"/>
<polygon fill="#e41a1c" fill-opacity="0.298039" shape-rendering="crispEdges" points="1124.97,383.133 1141.55,565.75 1014.88,552.146"/>
<polygon fill="#e41a1c" fill-opacity="0.298039" shape-rendering="crispEdges" points="1141.55,565.75 1014.88,552.146 1212.79,360.801"/>
<text fill="#000000" x="870.209" y="486.545" font-size="9" text-anchor="start" dy="0" font-family="Helvetica">Prob_TM1601a_LRDM1</text>
<text fill="#000000" x="839.712" y="555.409" font-size="9" text-anchor="start" dy="0" font-family="Helvetica">SK3978_LLDM1</text>
<polygon fill="#1874cd" fill-opacity="0.298039" shape-rendering="crispEdges" points="914.912,550.209 855.992,694.372 979.81,481.345"/>
<text fill="#000000" x="763.192" y="699.572" font-size="9" text-anchor="start" dy="0" font-family="Helvetica">Prob_SK64_LRDM1</text>
<text fill="#000000" x="1072.67" y="364.834" font-size="9" text-anchor="start" dy="0" font-family="Helvetica">STS24_LLDM1</text>
<polygon fill="#e41a1c" fill-opacity="0.298039" shape-rendering="crispEdges" points="1124.97,383.133 1014.88,552.146 1212.79,360.801"/>
<polygon fill="#e41a1c" fill-opacity="0.298039" shape-rendering="crispEdges" points="1124.97,383.133 1141.55,565.75 1212.79,360.801"/>
<polygon fill="#1874cd" fill-opacity="0.298039" shape-rendering="crispEdges" points="914.912,550.209 813.72,551.707 979.81,481.345"/>
<polygon fill="#1874cd" fill-opacity="0.298039" shape-rendering="crispEdges" points="914.912,550.209 813.72,551.707 855.992,694.372"/>
<text fill="#000000" x="1042.57" y="388.333" font-size="9" text-anchor="start" dy="0" font-family="Helvetica">AL1030-1_LLDM1</text>
<polygon fill="#1874cd" fill-opacity="0.298039" shape-rendering="crispEdges" points="855.992,694.372 847.644,524.255 979.81,481.345"/>
<text fill="#000000" x="1130.39" y="366.001" font-size="9" text-anchor="start" dy="0" font-family="Helvetica">AL333-43b_LRM1</text>
<polygon fill="#1874cd" fill-opacity="0.298039" shape-rendering="crispEdges" points="813.72,551.707 847.644,524.255 979.81,481.345"/>
<polygon fill="#1874cd" fill-opacity="0.298039" shape-rendering="crispEdges" points="813.72,551.707 855.992,694.372 847.644,524.255"/>
<text fill="#000000" x="748.12" y="556.907" font-size="9" text-anchor="start" dy="0" font-family="Helvetica">SK63_LRDM1</text>
<text fill="#000000" x="774.803" y="511.418" font-size="9" text-anchor="start" dy="0" font-family="Helvetica">DNH35_DNH35_LRDM1</text>
<text fill="#000000" x="1211.97" y="617.295" font-size="9" text-anchor="start" dy="0" font-family="Helvetica">UW105-076_LRDM1</text>
<text fill="#000000" x="782.044" y="529.455" font-size="9" text-anchor="start" dy="0" font-family="Helvetica">SK61_LRDM1</text>
<text fill="#000000" x="786.853" y="383.427" font-size="9" text-anchor="start" dy="0" font-family="Helvetica">UW105-249_LRDM2</text>
</g>
</svg>
