<?xml version="1.0" encoding="UTF-8" standalone="no"?>
<svg xmlns="http://www.w3.org/2000/svg"
     xmlns:xlink="http://www.w3.org/1999/xlink"
     width="2048pt" height="1081pt" viewBox="0 0 2048 1081">
<title>D:/3D_GM/Projects/UW105/Results/Taxonomic_assessment/UW105_076_249/3D_PCA_lablled_as_DM1s.svg</title>
<desc>
Creator: GL2PS 1.4.2, (C) 1999-2020 C. Geuzaine
For: Generated by rgl
CreationDate: Wed Jan 28 09:30:08 2026
</desc>
<defs>
</defs>
<g>
<polygon fill="#ffffff" shape-rendering="crispEdges" points="0,1081 2048,1081 2048,0"/>
<polygon fill="#ffffff" shape-rendering="crispEdges" points="0,1081 2048,0 0,0"/>
<polyline fill="none" stroke="#000000" stroke-width="1" stroke-linecap="butt" stroke-linejoin="miter" points="1175.89,203.648 1153.03,664.002"/>
<polyline fill="none" stroke="#000000" stroke-width="1" stroke-linecap="butt" stroke-linejoin="miter" points="1153.03,664.002 694.148,707.101"/>
<polyline fill="none" stroke="#000000" stroke-width="1" stroke-linecap="butt" stroke-linejoin="miter" points="694.148,707.101 717.003,246.746"/>
<polyline fill="none" stroke="#0c0c0c" stroke-width="1" stroke-linecap="butt" stroke-linejoin="miter" points="717.003,246.746 1175.89,203.648"/>
<polyline fill="none" stroke="#000000" stroke-width="1" stroke-linecap="butt" stroke-linejoin="miter" points="1353.85,373.899 1331,834.254"/>
<polyline fill="none" stroke="#000000" stroke-width="1" stroke-linecap="butt" stroke-linejoin="miter" points="1331,834.254 1153.03,664.002"/>
<polyline fill="none" stroke="#000000" stroke-width="1" stroke-linecap="butt" stroke-linejoin="miter" points="1153.03,664.002 1175.89,203.648"/>
<polyline fill="none" stroke="#000000" stroke-width="1" stroke-linecap="butt" stroke-linejoin="miter" points="1175.89,203.648 1353.85,373.899"/>
<polyline fill="none" stroke="#000000" stroke-width="1" stroke-linecap="butt" stroke-linejoin="miter" points="1331,834.254 872.11,877.352"/>
<polyline fill="none" stroke="#000000" stroke-width="1" stroke-linecap="butt" stroke-linejoin="miter" points="872.11,877.352 694.148,707.101"/>
<polyline fill="none" stroke="#000000" stroke-width="1" stroke-linecap="butt" stroke-linejoin="miter" points="694.148,707.101 1153.03,664.002"/>
<polyline fill="none" stroke="#000000" stroke-width="1" stroke-linecap="butt" stroke-linejoin="miter" points="1153.03,664.002 1331,834.254"/>
<polyline fill="none" stroke="#000000" stroke-width="1" stroke-linecap="butt" stroke-linejoin="miter" points="1279.45,839.096 1291.31,850.446"/>
<text fill="#000000" x="1289.4" y="867.796" font-size="12" text-anchor="start" dy="0" font-family="Helvetica">-0.05</text>
<polyline fill="none" stroke="#000000" stroke-width="1" stroke-linecap="butt" stroke-linejoin="miter" points="1144.85,851.737 1156.72,863.087"/>
<text fill="#000000" x="1165.14" y="880.437" font-size="12" text-anchor="start" dy="0" font-family="Helvetica">0</text>
<polyline fill="none" stroke="#000000" stroke-width="1" stroke-linecap="butt" stroke-linejoin="miter" points="1010.26,864.377 1022.12,875.728"/>
<text fill="#000000" x="1022.13" y="893.078" font-size="12" text-anchor="start" dy="0" font-family="Helvetica">0.05</text>
<polyline fill="none" stroke="#000000" stroke-width="1" stroke-linecap="butt" stroke-linejoin="miter" points="875.666,877.018 887.53,888.369"/>
<text fill="#000000" x="890.976" y="905.719" font-size="12" text-anchor="start" dy="0" font-family="Helvetica">0.1</text>
<polyline fill="none" stroke="#000000" stroke-width="1" stroke-linecap="butt" stroke-linejoin="miter" points="1350.46,442.273 1362.32,453.624"/>
<text fill="#000000" x="1360.41" y="470.974" font-size="12" text-anchor="start" dy="0" font-family="Helvetica">-0.05</text>
<polyline fill="none" stroke="#000000" stroke-width="1" stroke-linecap="butt" stroke-linejoin="miter" points="1343.15,589.406 1355.02,600.756"/>
<text fill="#000000" x="1363.44" y="618.107" font-size="12" text-anchor="start" dy="0" font-family="Helvetica">0</text>
<polyline fill="none" stroke="#000000" stroke-width="1" stroke-linecap="butt" stroke-linejoin="miter" points="1335.85,736.54 1347.71,747.89"/>
<text fill="#000000" x="1347.71" y="765.24" font-size="12" text-anchor="start" dy="0" font-family="Helvetica">0.05</text>
<polyline fill="none" stroke="#000000" stroke-width="1" stroke-linecap="butt" stroke-linejoin="miter" points="707.711,720.076 677.119,722.949"/>
<text fill="#000000" x="619.079" y="731.823" font-size="12" text-anchor="start" dy="0" font-family="Helvetica">-0.05</text>
<polyline fill="none" stroke="#000000" stroke-width="1" stroke-linecap="butt" stroke-linejoin="miter" points="761.844,771.863 731.252,774.737"/>
<text fill="#000000" x="693.797" y="783.61" font-size="12" text-anchor="start" dy="0" font-family="Helvetica">0</text>
<polyline fill="none" stroke="#000000" stroke-width="1" stroke-linecap="butt" stroke-linejoin="miter" points="815.977,823.651 785.384,826.524"/>
<text fill="#000000" x="731.157" y="835.397" font-size="12" text-anchor="start" dy="0" font-family="Helvetica">0.05</text>
<polyline fill="none" stroke="#000000" stroke-width="1" stroke-linecap="butt" stroke-linejoin="miter" points="870.109,875.438 839.517,878.312"/>
<text fill="#000000" x="792.151" y="887.185" font-size="12" text-anchor="start" dy="0" font-family="Helvetica">0.1</text>
<polyline fill="none" stroke="#000000" stroke-width="1" stroke-linecap="butt" stroke-linejoin="miter" points="1175.89,203.648 1175.89,203.648"/>
<polyline fill="none" stroke="#000000" stroke-width="1" stroke-linecap="butt" stroke-linejoin="miter" points="872.11,877.352 872.11,877.352"/>
<polyline fill="none" stroke="#cd661d" stroke-width="1" stroke-linecap="butt" stroke-linejoin="miter" points="1150.59,380.21 1142.19,568.057"/>
<circle fill="#e41a1c" cx="1204.14" cy="351.909" r="5"/>
<circle fill="#e41a1c" cx="1121.27" cy="384.151" r="5"/>
<circle fill="#4daf4a" cx="877.547" cy="501.53" r="5"/>
<circle fill="#8b864e" cx="1017.55" cy="388.261" r="5"/>
<circle fill="#2f4f4f" cx="1191.66" cy="357.311" r="5"/>
<circle fill="#e41a1c" cx="1164.32" cy="594.165" r="5"/>
<circle fill="#e41a1c" cx="1052.08" cy="609.416" r="5"/>
<circle fill="#4daf4a" cx="1185.32" cy="709.445" r="5"/>
<circle fill="#1874cd" cx="874.068" cy="718.803" r="5"/>
<circle fill="#1874cd" cx="993.877" cy="509.272" r="5"/>
<circle fill="#1874cd" cx="820.945" cy="491.667" r="5"/>
<circle fill="#1874cd" cx="809.165" cy="552.987" r="5"/>
<circle fill="#1874cd" cx="930.667" cy="578.695" r="5"/>
<circle fill="#cd661d" cx="1150.59" cy="380.21" r="5"/>
<circle fill="#cd661d" cx="1142.19" cy="568.057" r="5"/>
<circle fill="#4daf4a" cx="1176.34" cy="428.521" r="5"/>
<circle fill="#000000" cx="1289.32" cy="568.315" r="5"/>
<circle fill="#000000" cx="840.341" cy="332.483" r="5"/>
<text fill="#000000" x="1116.29" y="937.894" font-size="12" text-anchor="start" dy="0" font-family="Helvetica">PC1 (39%)</text>
<text fill="#000000" x="1384.07" y="652.604" font-size="12" text-anchor="start" dy="0" font-family="Helvetica">PC2 (19.1%)</text>
<text fill="#000000" x="622.836" y="840.41" font-size="12" text-anchor="start" dy="0" font-family="Helvetica">PC3 (10.8%)</text>
<text fill="#000000" x="1094.92" y="714.646" font-size="9" text-anchor="start" dy="0" font-family="Helvetica">Omo222-1973-2744</text>
<text fill="#000000" x="888.753" y="393.461" font-size="9" text-anchor="start" dy="0" font-family="Helvetica">Hnal_UW101_1685_LRDM1</text>
<text fill="#000000" x="1063.79" y="573.257" font-size="9" text-anchor="start" dy="0" font-family="Helvetica">STW104_LLDM1</text>
<text fill="#000000" x="991.284" y="614.616" font-size="9" text-anchor="start" dy="0" font-family="Helvetica">LH3l_LRDM1</text>
<text fill="#000000" x="1094.06" y="362.511" font-size="9" text-anchor="start" dy="0" font-family="Helvetica">KNM-ER820_LRDM1</text>
<text fill="#000000" x="1096.34" y="433.722" font-size="9" text-anchor="start" dy="0" font-family="Helvetica">STW151_LRDM1</text>
<polygon fill="#4daf4a" fill-opacity="0.298039" shape-rendering="crispEdges" points="877.547,501.53 1185.32,709.445 1176.34,428.521"/>
<text fill="#000000" x="1080.99" y="385.41" font-size="9" text-anchor="start" dy="0" font-family="Helvetica">STS24_LLDM1</text>
<polygon fill="#e41a1c" fill-opacity="0.298039" shape-rendering="crispEdges" points="1121.27,384.151 1164.32,594.165 1052.08,609.416"/>
<text fill="#000000" x="884.277" y="514.472" font-size="9" text-anchor="start" dy="0" font-family="Helvetica">Prob_TM1601a_LRDM1</text>
<polygon fill="#e41a1c" fill-opacity="0.298039" shape-rendering="crispEdges" points="1164.32,594.165 1052.08,609.416 1204.14,351.909"/>
<text fill="#000000" x="1105.92" y="599.365" font-size="9" text-anchor="start" dy="0" font-family="Helvetica">LH2_LRDM1</text>
<text fill="#000000" x="855.467" y="583.895" font-size="9" text-anchor="start" dy="0" font-family="Helvetica">SK3978_LLDM1</text>
<polygon fill="#1874cd" fill-opacity="0.298039" shape-rendering="crispEdges" points="930.667,578.695 874.068,718.803 993.877,509.272"/>
<polygon fill="#e41a1c" fill-opacity="0.298039" shape-rendering="crispEdges" points="1121.27,384.151 1052.08,609.416 1204.14,351.909"/>
<polygon fill="#1874cd" fill-opacity="0.298039" shape-rendering="crispEdges" points="930.667,578.695 809.165,552.987 993.877,509.272"/>
<polygon fill="#e41a1c" fill-opacity="0.298039" shape-rendering="crispEdges" points="1121.27,384.151 1164.32,594.165 1204.14,351.909"/>
<text fill="#000000" x="781.268" y="724.003" font-size="9" text-anchor="start" dy="0" font-family="Helvetica">Prob_SK64_LRDM1</text>
<polygon fill="#1874cd" fill-opacity="0.298039" shape-rendering="crispEdges" points="930.667,578.695 809.165,552.987 874.068,718.803"/>
<text fill="#000000" x="1038.87" y="389.352" font-size="9" text-anchor="start" dy="0" font-family="Helvetica">AL1030-1_LLDM1</text>
<polygon fill="#1874cd" fill-opacity="0.298039" shape-rendering="crispEdges" points="874.068,718.803 820.945,491.667 993.877,509.272"/>
<text fill="#000000" x="1121.74" y="357.109" font-size="9" text-anchor="start" dy="0" font-family="Helvetica">AL333-43b_LRM1</text>
<polygon fill="#1874cd" fill-opacity="0.298039" shape-rendering="crispEdges" points="809.165,552.987 820.945,491.667 993.877,509.272"/>
<text fill="#000000" x="743.564" y="558.187" font-size="9" text-anchor="start" dy="0" font-family="Helvetica">SK63_LRDM1</text>
<text fill="#000000" x="766.347" y="506.73" font-size="9" text-anchor="start" dy="0" font-family="Helvetica">DNH35_DNH35_LRDM1</text>
<polygon fill="#1874cd" fill-opacity="0.298039" shape-rendering="crispEdges" points="809.165,552.987 874.068,718.803 820.945,491.667"/>
<text fill="#000000" x="755.345" y="496.867" font-size="9" text-anchor="start" dy="0" font-family="Helvetica">SK61_LRDM1</text>
<text fill="#000000" x="745.941" y="337.684" font-size="9" text-anchor="start" dy="0" font-family="Helvetica">UW105-249_LRDM2</text>
<text fill="#000000" x="1194.92" y="573.515" font-size="9" text-anchor="start" dy="0" font-family="Helvetica">UW105-076_LRDM1</text>
</g>
</svg>
