<?xml version="1.0" encoding="UTF-8" standalone="no"?>
<svg xmlns="http://www.w3.org/2000/svg"
     xmlns:xlink="http://www.w3.org/1999/xlink"
     width="2048pt" height="1081pt" viewBox="0 0 2048 1081">
<title>D:/3D_GM/Projects/UW105/Results/Taxonomic_assessment/UW105_240_811_LP4/3D_PCA_labelled_updated.svg</title>
<desc>
Creator: GL2PS 1.4.2, (C) 1999-2020 C. Geuzaine
For: Generated by rgl
CreationDate: Wed Jan 28 12:03:14 2026
</desc>
<defs>
</defs>
<g>
<polygon fill="#ffffff" shape-rendering="crispEdges" points="0,1081 2048,1081 2048,0"/>
<polygon fill="#ffffff" shape-rendering="crispEdges" points="0,1081 2048,0 0,0"/>
<polyline fill="none" stroke="#000000" stroke-width="1" stroke-linecap="butt" stroke-linejoin="miter" points="868.216,80.4697 784.787,529.231 635.617,845.132 719.046,396.371 868.216,80.4697"/>
<polyline fill="none" stroke="#000000" stroke-width="1" stroke-linecap="butt" stroke-linejoin="miter" points="1412.38,235.868 1328.95,684.629"/>
<polyline fill="none" stroke="#000000" stroke-width="1" stroke-linecap="butt" stroke-linejoin="miter" points="1328.95,684.629 784.787,529.231"/>
<polyline fill="none" stroke="#000000" stroke-width="1" stroke-linecap="butt" stroke-linejoin="miter" points="784.787,529.231 868.216,80.4697"/>
<polyline fill="none" stroke="#000000" stroke-width="1" stroke-linecap="butt" stroke-linejoin="miter" points="868.216,80.4697 1412.38,235.868"/>
<polyline fill="none" stroke="#000000" stroke-width="1" stroke-linecap="butt" stroke-linejoin="miter" points="1328.95,684.629 1179.78,1000.53"/>
<polyline fill="none" stroke="#000000" stroke-width="1" stroke-linecap="butt" stroke-linejoin="miter" points="1179.78,1000.53 635.617,845.132"/>
<polyline fill="none" stroke="#000000" stroke-width="1" stroke-linecap="butt" stroke-linejoin="miter" points="635.617,845.132 784.787,529.231"/>
<polyline fill="none" stroke="#000000" stroke-width="1" stroke-linecap="butt" stroke-linejoin="miter" points="784.787,529.231 1328.95,684.629"/>
<polyline fill="none" stroke="#000000" stroke-width="1" stroke-linecap="butt" stroke-linejoin="miter" points="1319.7,704.217 1355.98,714.577"/>
<text fill="#000000" x="1389.18" y="730.937" font-size="12" text-anchor="start" dy="0" font-family="Helvetica">-0.1</text>
<polyline fill="none" stroke="#000000" stroke-width="1" stroke-linecap="butt" stroke-linejoin="miter" points="1289.66,767.838 1325.94,778.198"/>
<text fill="#000000" x="1358.11" y="794.558" font-size="12" text-anchor="start" dy="0" font-family="Helvetica">-0.05</text>
<polyline fill="none" stroke="#000000" stroke-width="1" stroke-linecap="butt" stroke-linejoin="miter" points="1259.62,831.459 1295.9,841.819"/>
<text fill="#000000" x="1331.15" y="858.179" font-size="12" text-anchor="start" dy="0" font-family="Helvetica">0</text>
<polyline fill="none" stroke="#000000" stroke-width="1" stroke-linecap="butt" stroke-linejoin="miter" points="1229.58,895.081 1265.86,905.441"/>
<text fill="#000000" x="1298.59" y="921.801" font-size="12" text-anchor="start" dy="0" font-family="Helvetica">0.05</text>
<polyline fill="none" stroke="#000000" stroke-width="1" stroke-linecap="butt" stroke-linejoin="miter" points="1199.54,958.702 1235.81,969.062"/>
<text fill="#000000" x="1269.58" y="985.422" font-size="12" text-anchor="start" dy="0" font-family="Helvetica">0.1</text>
<polyline fill="none" stroke="#000000" stroke-width="1" stroke-linecap="butt" stroke-linejoin="miter" points="716.305,411.112 706.361,432.172"/>
<text fill="#000000" x="682.016" y="459.232" font-size="12" text-anchor="start" dy="0" font-family="Helvetica">-0.05</text>
<polyline fill="none" stroke="#000000" stroke-width="1" stroke-linecap="butt" stroke-linejoin="miter" points="698.413,507.357 688.468,528.417"/>
<text fill="#000000" x="674.923" y="555.477" font-size="12" text-anchor="start" dy="0" font-family="Helvetica">0</text>
<polyline fill="none" stroke="#000000" stroke-width="1" stroke-linecap="butt" stroke-linejoin="miter" points="680.52,603.602 670.575,624.662"/>
<text fill="#000000" x="648.23" y="651.722" font-size="12" text-anchor="start" dy="0" font-family="Helvetica">0.05</text>
<polyline fill="none" stroke="#000000" stroke-width="1" stroke-linecap="butt" stroke-linejoin="miter" points="662.627,699.847 652.682,720.907"/>
<text fill="#000000" x="633.938" y="747.967" font-size="12" text-anchor="start" dy="0" font-family="Helvetica">0.1</text>
<polyline fill="none" stroke="#000000" stroke-width="1" stroke-linecap="butt" stroke-linejoin="miter" points="644.734,796.092 634.789,817.152"/>
<text fill="#000000" x="612.445" y="844.212" font-size="12" text-anchor="start" dy="0" font-family="Helvetica">0.15</text>
<polyline fill="none" stroke="#000000" stroke-width="1" stroke-linecap="butt" stroke-linejoin="miter" points="771.214,883.855 761.269,904.915"/>
<text fill="#000000" x="736.924" y="931.975" font-size="12" text-anchor="start" dy="0" font-family="Helvetica">-0.05</text>
<polyline fill="none" stroke="#000000" stroke-width="1" stroke-linecap="butt" stroke-linejoin="miter" points="949.706,934.827 939.761,955.887"/>
<text fill="#000000" x="926.217" y="982.947" font-size="12" text-anchor="start" dy="0" font-family="Helvetica">0</text>
<polyline fill="none" stroke="#000000" stroke-width="1" stroke-linecap="butt" stroke-linejoin="miter" points="1128.2,985.799 1118.25,1006.86"/>
<text fill="#000000" x="1095.91" y="1033.92" font-size="12" text-anchor="start" dy="0" font-family="Helvetica">0.05</text>
<polyline fill="none" stroke="#000000" stroke-width="1" stroke-linecap="butt" stroke-linejoin="miter" points="868.216,80.4697 868.216,80.4697"/>
<polyline fill="none" stroke="#000000" stroke-width="1" stroke-linecap="butt" stroke-linejoin="miter" points="1179.78,1000.53 1179.78,1000.53"/>
<polyline fill="none" stroke="#984ea3" stroke-width="1" stroke-linecap="butt" stroke-linejoin="miter" points="1101.38,395.83 1105.75,304.25"/>
<circle fill="#cd661d" cx="1177.82" cy="390.43" r="5"/>
<circle fill="#cd661d" cx="1074.34" cy="439.207" r="5"/>
<circle fill="#cd661d" cx="1147.07" cy="470.941" r="5"/>
<circle fill="#cd661d" cx="1050.25" cy="386.104" r="5"/>
<circle fill="#cd661d" cx="1119.76" cy="331.169" r="5"/>
<circle fill="#cd661d" cx="1142.22" cy="361.039" r="5"/>
<circle fill="#cd661d" cx="1111.95" cy="487.274" r="5"/>
<circle fill="#cd661d" cx="1137.86" cy="419.286" r="5"/>
<circle fill="#e41a1c" cx="1255.07" cy="316.144" r="5"/>
<circle fill="#e41a1c" cx="1137.03" cy="321.794" r="5"/>
<circle fill="#e41a1c" cx="1337.68" cy="417.693" r="5"/>
<circle fill="#e41a1c" cx="1179.94" cy="415.925" r="5"/>
<circle fill="#e41a1c" cx="1127.79" cy="435.647" r="5"/>
<circle fill="#e41a1c" cx="1208.79" cy="342.83" r="5"/>
<circle fill="#e41a1c" cx="1191.94" cy="321.477" r="5"/>
<circle fill="#1874cd" cx="1065.83" cy="329.881" r="5"/>
<circle fill="#1874cd" cx="1027.37" cy="378.465" r="5"/>
<circle fill="#4daf4a" cx="1248.35" cy="592.819" r="5"/>
<circle fill="#4daf4a" cx="1251.42" cy="492.315" r="5"/>
<circle fill="#4daf4a" cx="1165.51" cy="388.97" r="5"/>
<circle fill="#e41a1c" cx="1162.05" cy="385.014" r="5"/>
<circle fill="#4daf4a" cx="1185.93" cy="528.313" r="5"/>
<circle fill="#4daf4a" cx="1190.76" cy="536.366" r="5"/>
<circle fill="#4daf4a" cx="1191.01" cy="565.886" r="5"/>
<circle fill="#984ea3" cx="1101.38" cy="395.83" r="5"/>
<circle fill="#984ea3" cx="1105.75" cy="304.25" r="5"/>
<circle fill="#1874cd" cx="1054.92" cy="402.839" r="5"/>
<circle fill="#1874cd" cx="864.368" cy="439.049" r="5"/>
<circle fill="#1874cd" cx="1024.47" cy="363.507" r="5"/>
<circle fill="#1874cd" cx="810.583" cy="306.572" r="5"/>
<circle fill="#1874cd" cx="1014.71" cy="353.433" r="5"/>
<circle fill="#1874cd" cx="1001.91" cy="388.703" r="5"/>
<circle fill="#1874cd" cx="1031.41" cy="389.513" r="5"/>
<circle fill="#1874cd" cx="1004.35" cy="276.729" r="5"/>
<circle fill="#1874cd" cx="936.928" cy="337.756" r="5"/>
<circle fill="#1874cd" cx="883.995" cy="340.218" r="5"/>
<circle fill="#1874cd" cx="818.567" cy="720.596" r="5"/>
<circle fill="#1874cd" cx="988.963" cy="710.864" r="5"/>
<circle fill="#4daf4a" cx="1182.48" cy="485.993" r="5"/>
<circle fill="#8b864e" cx="1032.83" cy="639.172" r="5"/>
<circle fill="#8b864e" cx="1083.32" cy="556.354" r="5"/>
<circle fill="#8b864e" cx="1060.07" cy="514.563" r="5"/>
<circle fill="#8b864e" cx="1116.16" cy="579.263" r="5"/>
<circle fill="#8b864e" cx="1040.94" cy="548.077" r="5"/>
<circle fill="#000000" cx="1032.65" cy="287.726" r="5"/>
<circle fill="#000000" cx="1169.06" cy="291.11" r="5"/>
<text fill="#000000" x="1357.52" y="919.937" font-size="12" text-anchor="start" dy="0" font-family="Helvetica">PC1 (32.5%)</text>
<text fill="#000000" x="564.875" y="700.632" font-size="12" text-anchor="start" dy="0" font-family="Helvetica">PC2 (16.7%)</text>
<text fill="#000000" x="829.56" y="1042.99" font-size="12" text-anchor="start" dy="0" font-family="Helvetica">PC3 (9.1%)</text>
<text fill="#000000" x="717.767" y="725.796" font-size="9" text-anchor="start" dy="0" font-family="Helvetica">Prob_SKX4446_LRP4</text>
<text fill="#000000" x="939.363" y="716.064" font-size="9" text-anchor="start" dy="0" font-family="Helvetica">SK6_LLP4</text>
<text fill="#000000" x="1123.94" y="326.677" font-size="9" text-anchor="start" dy="0" font-family="Helvetica">AL443-1_LLP4</text>
<text fill="#000000" x="969.746" y="309.45" font-size="9" text-anchor="start" dy="0" font-family="Helvetica">Pboi_KNMER_15951D_LRP4</text>
<polygon fill="#1874cd" fill-opacity="0.298039" shape-rendering="crispEdges" points="1001.91,388.703 988.963,710.864 818.567,720.596"/>
<text fill="#000000" x="1179.87" y="321.344" font-size="9" text-anchor="start" dy="0" font-family="Helvetica">AL128-23_LRP4</text>
<text fill="#000000" x="1112.88" y="491.193" font-size="9" text-anchor="start" dy="0" font-family="Helvetica">STW151_LLP4</text>
<polygon fill="#e41a1c" fill-opacity="0.298039" shape-rendering="crispEdges" points="1255.07,316.144 1337.68,417.693 1191.94,321.477"/>
<polygon fill="#1874cd" fill-opacity="0.298039" shape-rendering="crispEdges" points="1001.91,388.703 818.567,720.596 1004.35,276.729"/>
<text fill="#000000" x="1048.62" y="366.239" font-size="9" text-anchor="start" dy="0" font-family="Helvetica">Aafr_STW537_LLP4</text>
<polygon fill="#1874cd" fill-opacity="0.298039" shape-rendering="crispEdges" points="1001.91,388.703 1054.92,402.839 988.963,710.864"/>
<text fill="#000000" x="919.515" y="393.903" font-size="9" text-anchor="start" dy="0" font-family="Helvetica">Prob_SK88_LLP4</text>
<text fill="#000000" x="974.977" y="401.03" font-size="9" text-anchor="start" dy="0" font-family="Helvetica">Pboi_KNM-ER_3885_LRP4</text>
<polygon fill="#e41a1c" fill-opacity="0.298039" shape-rendering="crispEdges" points="1255.07,316.144 1137.03,321.794 1191.94,321.477"/>
<text fill="#000000" x="1065.51" y="394.17" font-size="9" text-anchor="start" dy="0" font-family="Helvetica">KNM-ER_1802_LRP4</text>
<polygon fill="#e41a1c" fill-opacity="0.298039" shape-rendering="crispEdges" points="1179.94,415.925 1337.68,417.693 1191.94,321.477"/>
<polygon fill="#4daf4a" fill-opacity="0.298039" shape-rendering="crispEdges" points="1251.42,492.315 1182.48,485.993 1165.51,388.97"/>
<text fill="#000000" x="1269.68" y="422.893" font-size="9" text-anchor="start" dy="0" font-family="Helvetica">AL330-7_LLP4</text>
<polygon fill="#1874cd" fill-opacity="0.298039" shape-rendering="crispEdges" points="1001.91,388.703 1054.92,402.839 1004.35,276.729"/>
<text fill="#000000" x="905.148" y="281.929" font-size="9" text-anchor="start" dy="0" font-family="Helvetica">Prob_SK1587a_LLP4</text>
<polygon fill="#1874cd" fill-opacity="0.298039" shape-rendering="crispEdges" points="1065.83,329.881 1054.92,402.839 988.963,710.864"/>
<polygon fill="#1874cd" fill-opacity="0.298039" shape-rendering="crispEdges" points="988.963,710.864 818.567,720.596 864.368,439.049"/>
<polygon fill="#1874cd" fill-opacity="0.298039" shape-rendering="crispEdges" points="810.583,306.572 818.567,720.596 1004.35,276.729"/>
<polygon fill="#4daf4a" fill-opacity="0.298039" shape-rendering="crispEdges" points="1185.93,528.313 1182.48,485.993 1165.51,388.97"/>
<text fill="#000000" x="946.254" y="292.926" font-size="9" text-anchor="start" dy="0" font-family="Helvetica">UW105_811_LLP4</text>
<text fill="#000000" x="925.105" y="358.633" font-size="9" text-anchor="start" dy="0" font-family="Helvetica">Prob_SK55B_LLP4</text>
<polygon fill="#4daf4a" fill-opacity="0.298039" shape-rendering="crispEdges" points="1251.42,492.315 1182.48,485.993 1248.35,592.819"/>
<polygon fill="#e41a1c" fill-opacity="0.298039" shape-rendering="crispEdges" points="1208.79,342.83 1255.07,316.144 1337.68,417.693"/>
<text fill="#000000" x="1084.22" y="395.63" font-size="9" text-anchor="start" dy="0" font-family="Helvetica">Aafr_STS52B_LRP4</text>
<text fill="#000000" x="976.523" y="408.039" font-size="9" text-anchor="start" dy="0" font-family="Helvetica">Prob_SK7_LRP4</text>
<polygon fill="#cd661d" fill-opacity="0.298039" shape-rendering="crispEdges" points="1177.82,390.43 1111.95,487.274 1142.22,361.039"/>
<polygon fill="#cd661d" fill-opacity="0.298039" shape-rendering="crispEdges" points="1177.82,390.43 1119.76,331.169 1142.22,361.039"/>
<polygon fill="#1874cd" fill-opacity="0.298039" shape-rendering="crispEdges" points="1065.83,329.881 1054.92,402.839 1004.35,276.729"/>
<polygon fill="#4daf4a" fill-opacity="0.298039" shape-rendering="crispEdges" points="1185.93,528.313 1182.48,485.993 1248.35,592.819"/>
<polygon fill="#e41a1c" fill-opacity="0.298039" shape-rendering="crispEdges" points="1179.94,415.925 1127.79,435.647 1191.94,321.477"/>
<polygon fill="#1874cd" fill-opacity="0.298039" shape-rendering="crispEdges" points="1065.83,329.881 1031.41,389.513 988.963,710.864"/>
<polygon fill="#e41a1c" fill-opacity="0.298039" shape-rendering="crispEdges" points="1127.79,435.647 1137.03,321.794 1191.94,321.477"/>
<text fill="#000000" x="1153.02" y="497.515" font-size="9" text-anchor="start" dy="0" font-family="Helvetica">KNM-ER_1507_LLP4</text>
<text fill="#000000" x="1047.46" y="424.486" font-size="9" text-anchor="start" dy="0" font-family="Helvetica">Aafr_TM1523_LLP4</text>
<polygon fill="#e41a1c" fill-opacity="0.298039" shape-rendering="crispEdges" points="1208.79,342.83 1255.07,316.144 1137.03,321.794"/>
<text fill="#000000" x="963.366" y="383.666" font-size="9" text-anchor="start" dy="0" font-family="Helvetica">DNH51_LRP4</text>
<polygon fill="#e41a1c" fill-opacity="0.298039" shape-rendering="crispEdges" points="1179.94,415.925 1127.79,435.647 1337.68,417.693"/>
<text fill="#000000" x="1110.34" y="421.125" font-size="9" text-anchor="start" dy="0" font-family="Helvetica">AL330-5_LRP4</text>
<polygon fill="#1874cd" fill-opacity="0.298039" shape-rendering="crispEdges" points="810.583,306.572 818.567,720.596 864.368,439.049"/>
<text fill="#000000" x="1082.66" y="296.31" font-size="9" text-anchor="start" dy="0" font-family="Helvetica">UW_105_240_LLP</text>
<polygon fill="#cd661d" fill-opacity="0.298039" shape-rendering="crispEdges" points="1050.25,386.104 1111.95,487.274 1142.22,361.039"/>
<text fill="#000000" x="1153.95" y="598.02" font-size="9" text-anchor="start" dy="0" font-family="Helvetica">KNM-ER_992_LRP4</text>
<polygon fill="#1874cd" fill-opacity="0.298039" shape-rendering="crispEdges" points="936.928,337.756 1065.83,329.881 1004.35,276.729"/>
<text fill="#000000" x="1009.03" y="335.082" font-size="9" text-anchor="start" dy="0" font-family="Helvetica">DNH8_LLP4</text>
<polygon fill="#cd661d" fill-opacity="0.298039" shape-rendering="crispEdges" points="1050.25,386.104 1119.76,331.169 1142.22,361.039"/>
<polygon fill="#1874cd" fill-opacity="0.298039" shape-rendering="crispEdges" points="1031.41,389.513 988.963,710.864 864.368,439.049"/>
<polygon fill="#4daf4a" fill-opacity="0.298039" shape-rendering="crispEdges" points="1190.76,536.366 1251.42,492.315 1165.51,388.97"/>
<polygon fill="#1874cd" fill-opacity="0.298039" shape-rendering="crispEdges" points="936.928,337.756 810.583,306.572 1004.35,276.729"/>
<text fill="#000000" x="1133.93" y="533.514" font-size="9" text-anchor="start" dy="0" font-family="Helvetica">OH7_LRP4</text>
<text fill="#000000" x="1067.43" y="326.995" font-size="9" text-anchor="start" dy="0" font-family="Helvetica">AL266-1_LRP4</text>
<text fill="#000000" x="1018.35" y="492.474" font-size="9" text-anchor="start" dy="0" font-family="Helvetica">Aafr_STW_14_LLP4</text>
<polygon fill="#cd661d" fill-opacity="0.298039" shape-rendering="crispEdges" points="1177.82,390.43 1147.07,470.941 1111.95,487.274"/>
<polygon fill="#4daf4a" fill-opacity="0.298039" shape-rendering="crispEdges" points="1185.93,528.313 1191.01,565.886 1165.51,388.97"/>
<text fill="#000000" x="728.183" y="311.772" font-size="9" text-anchor="start" dy="0" font-family="Helvetica">Prob_SK25_LLP4</text>
<polygon fill="#cd661d" fill-opacity="0.298039" shape-rendering="crispEdges" points="1177.82,390.43 1119.76,331.169 1147.07,470.941"/>
<polygon fill="#1874cd" fill-opacity="0.298039" shape-rendering="crispEdges" points="1024.47,363.507 1065.83,329.881 1031.41,389.513"/>
<polygon fill="#e41a1c" fill-opacity="0.298039" shape-rendering="crispEdges" points="1208.79,342.83 1337.68,417.693 1162.05,385.014"/>
<polygon fill="#e41a1c" fill-opacity="0.298039" shape-rendering="crispEdges" points="1127.79,435.647 1337.68,417.693 1162.05,385.014"/>
<text fill="#000000" x="1024.56" y="336.37" font-size="9" text-anchor="start" dy="0" font-family="Helvetica">Aafr_STW404_LRP4</text>
<polygon fill="#1874cd" fill-opacity="0.298039" shape-rendering="crispEdges" points="1024.47,363.507 936.928,337.756 1065.83,329.881"/>
<polygon fill="#4daf4a" fill-opacity="0.298039" shape-rendering="crispEdges" points="1251.42,492.315 1248.35,592.819 1191.01,565.886"/>
<text fill="#000000" x="1135.19" y="348.03" font-size="9" text-anchor="start" dy="0" font-family="Helvetica">AL417-1a_LLP4</text>
<text fill="#000000" x="1052.59" y="440.847" font-size="9" text-anchor="start" dy="0" font-family="Helvetica">AL333w-1_LLP4</text>
<text fill="#000000" x="940.473" y="368.708" font-size="9" text-anchor="start" dy="0" font-family="Helvetica">Prob_SK23_LRP4</text>
<text fill="#000000" x="936.206" y="394.713" font-size="9" text-anchor="start" dy="0" font-family="Helvetica">Prob_SK826B_LLP4</text>
<polygon fill="#1874cd" fill-opacity="0.298039" shape-rendering="crispEdges" points="883.995,340.218 936.928,337.756 810.583,306.572"/>
<polygon fill="#4daf4a" fill-opacity="0.298039" shape-rendering="crispEdges" points="1185.93,528.313 1248.35,592.819 1191.01,565.886"/>
<polygon fill="#e41a1c" fill-opacity="0.298039" shape-rendering="crispEdges" points="1208.79,342.83 1137.03,321.794 1162.05,385.014"/>
<polygon fill="#e41a1c" fill-opacity="0.298039" shape-rendering="crispEdges" points="1127.79,435.647 1137.03,321.794 1162.05,385.014"/>
<text fill="#000000" x="841.728" y="342.957" font-size="9" text-anchor="start" dy="0" font-family="Helvetica">Prob_SK1588_LRP4</text>
<polygon fill="#4daf4a" fill-opacity="0.298039" shape-rendering="crispEdges" points="1190.76,536.366 1191.01,565.886 1165.51,388.97"/>
<polygon fill="#1874cd" fill-opacity="0.298039" shape-rendering="crispEdges" points="883.995,340.218 810.583,306.572 864.368,439.049"/>
<polygon fill="#1874cd" fill-opacity="0.298039" shape-rendering="crispEdges" points="1024.47,363.507 1031.41,389.513 864.368,439.049"/>
<text fill="#000000" x="955.05" y="391.304" font-size="9" text-anchor="start" dy="0" font-family="Helvetica">Aafr_STW327_LRP4</text>
<text fill="#000000" x="795.195" y="345.418" font-size="9" text-anchor="start" dy="0" font-family="Helvetica">Prob_SKW5_LRP4</text>
<polygon fill="#1874cd" fill-opacity="0.298039" shape-rendering="crispEdges" points="1024.47,363.507 936.928,337.756 864.368,439.049"/>
<polygon fill="#1874cd" fill-opacity="0.298039" shape-rendering="crispEdges" points="883.995,340.218 936.928,337.756 864.368,439.049"/>
<polygon fill="#cd661d" fill-opacity="0.298039" shape-rendering="crispEdges" points="1050.25,386.104 1111.95,487.274 1074.34,439.207"/>
<polygon fill="#4daf4a" fill-opacity="0.298039" shape-rendering="crispEdges" points="1190.76,536.366 1251.42,492.315 1191.01,565.886"/>
<polygon fill="#cd661d" fill-opacity="0.298039" shape-rendering="crispEdges" points="1050.25,386.104 1119.76,331.169 1074.34,439.207"/>
<polygon fill="#cd661d" fill-opacity="0.298039" shape-rendering="crispEdges" points="1147.07,470.941 1111.95,487.274 1074.34,439.207"/>
<polygon fill="#cd661d" fill-opacity="0.298039" shape-rendering="crispEdges" points="1119.76,331.169 1147.07,470.941 1074.34,439.207"/>
<text fill="#000000" x="1051.87" y="476.141" font-size="9" text-anchor="start" dy="0" font-family="Helvetica">Aafr_STW213_LRP4</text>
<text fill="#000000" x="787.568" y="444.25" font-size="9" text-anchor="start" dy="0" font-family="Helvetica">Prob_SK9_LLP4</text>
<text fill="#000000" x="1110.85" y="390.214" font-size="9" text-anchor="start" dy="0" font-family="Helvetica">LH3r_LLP4</text>
<text fill="#000000" x="1133.16" y="541.566" font-size="9" text-anchor="start" dy="0" font-family="Helvetica">OH13_LRP4</text>
<text fill="#000000" x="948.944" y="553.277" font-size="9" text-anchor="start" dy="0" font-family="Helvetica">UW101_1261_LLP4</text>
<text fill="#000000" x="995.324" y="561.554" font-size="9" text-anchor="start" dy="0" font-family="Helvetica">UW101_377_LRP4</text>
<text fill="#000000" x="980.741" y="444.407" font-size="9" text-anchor="start" dy="0" font-family="Helvetica">Aafr_STW131_LLP4</text>
<polygon fill="#8b864e" fill-opacity="0.298039" shape-rendering="crispEdges" points="1040.94,548.077 1032.83,639.172 1083.32,556.354"/>
<text fill="#000000" x="1135.01" y="571.086" font-size="9" text-anchor="start" dy="0" font-family="Helvetica">OH16_LLP4</text>
<polygon fill="#8b864e" fill-opacity="0.298039" shape-rendering="crispEdges" points="1040.94,548.077 1060.07,514.563 1083.32,556.354"/>
<text fill="#000000" x="946.431" y="644.373" font-size="9" text-anchor="start" dy="0" font-family="Helvetica">UW101_184_LLP4</text>
<polygon fill="#8b864e" fill-opacity="0.298039" shape-rendering="crispEdges" points="1040.94,548.077 1060.07,514.563 1032.83,639.172"/>
<polygon fill="#8b864e" fill-opacity="0.298039" shape-rendering="crispEdges" points="1116.16,579.263 1032.83,639.172 1083.32,556.354"/>
<polygon fill="#8b864e" fill-opacity="0.298039" shape-rendering="crispEdges" points="1116.16,579.263 1060.07,514.563 1083.32,556.354"/>
<polygon fill="#8b864e" fill-opacity="0.298039" shape-rendering="crispEdges" points="1116.16,579.263 1060.07,514.563 1032.83,639.172"/>
<text fill="#000000" x="972.065" y="519.764" font-size="9" text-anchor="start" dy="0" font-family="Helvetica">UW101_383_LRP4</text>
<text fill="#000000" x="1029.76" y="584.463" font-size="9" text-anchor="start" dy="0" font-family="Helvetica">UW101_887_LLP4</text>
</g>
</svg>
