<?xml version="1.0" encoding="UTF-8" standalone="no"?>
<svg xmlns="http://www.w3.org/2000/svg"
     xmlns:xlink="http://www.w3.org/1999/xlink"
     width="1740pt" height="970pt" viewBox="0 0 1740 970">
<title>D:/3D_GM/Projects/UW105/Results/Taxonomic_assessment/UW105_240_811_LP4/Shape_PCA_3D_dropped_landmarks_clean.svg</title>
<desc>
Creator: GL2PS 1.4.2, (C) 1999-2020 C. Geuzaine
For: Generated by rgl
CreationDate: Wed Jan 21 16:50:52 2026
</desc>
<defs>
</defs>
<g>
<polygon fill="#ffffff" shape-rendering="crispEdges" points="0,970 1740,970 1740,0"/>
<polygon fill="#ffffff" shape-rendering="crispEdges" points="0,970 1740,0 0,0"/>
<polyline fill="none" stroke="#000000" stroke-width="1" stroke-linecap="butt" stroke-linejoin="miter" points="671.267,499.483 601.177,836.97 563.177,452.618 633.267,115.131 671.267,499.483"/>
<polyline fill="none" stroke="#000000" stroke-width="1" stroke-linecap="butt" stroke-linejoin="miter" points="671.267,499.483 633.267,115.131"/>
<polyline fill="none" stroke="#000000" stroke-width="1" stroke-linecap="butt" stroke-linejoin="miter" points="633.267,115.131 1138.82,133.03"/>
<polyline fill="none" stroke="#000000" stroke-width="1" stroke-linecap="butt" stroke-linejoin="miter" points="1138.82,133.03 1176.82,517.382"/>
<polyline fill="none" stroke="#000000" stroke-width="1" stroke-linecap="butt" stroke-linejoin="miter" points="1176.82,517.382 671.267,499.483"/>
<polyline fill="none" stroke="#000000" stroke-width="1" stroke-linecap="butt" stroke-linejoin="miter" points="1176.82,517.382 1106.73,854.869"/>
<polyline fill="none" stroke="#000000" stroke-width="1" stroke-linecap="butt" stroke-linejoin="miter" points="1106.73,854.869 601.177,836.97"/>
<polyline fill="none" stroke="#000000" stroke-width="1" stroke-linecap="butt" stroke-linejoin="miter" points="601.177,836.97 671.267,499.483"/>
<polyline fill="none" stroke="#000000" stroke-width="1" stroke-linecap="butt" stroke-linejoin="miter" points="671.267,499.483 1176.82,517.382"/>
<polyline fill="none" stroke="#000000" stroke-width="1" stroke-linecap="butt" stroke-linejoin="miter" points="1176.66,518.168 1210.36,519.362"/>
<text fill="#000000" x="1243.68" y="526.555" font-size="12" text-anchor="start" dy="0" font-family="Helvetica">-0.1</text>
<polyline fill="none" stroke="#000000" stroke-width="1" stroke-linecap="butt" stroke-linejoin="miter" points="1161.4,591.655 1195.1,592.848"/>
<text fill="#000000" x="1228.3" y="600.042" font-size="12" text-anchor="start" dy="0" font-family="Helvetica">-0.05</text>
<polyline fill="none" stroke="#000000" stroke-width="1" stroke-linecap="butt" stroke-linejoin="miter" points="1146.14,665.142 1179.84,666.334"/>
<text fill="#000000" x="1213.42" y="673.528" font-size="12" text-anchor="start" dy="0" font-family="Helvetica">0</text>
<polyline fill="none" stroke="#000000" stroke-width="1" stroke-linecap="butt" stroke-linejoin="miter" points="1130.87,738.628 1164.58,739.821"/>
<text fill="#000000" x="1197.84" y="747.014" font-size="12" text-anchor="start" dy="0" font-family="Helvetica">0.05</text>
<polyline fill="none" stroke="#000000" stroke-width="1" stroke-linecap="butt" stroke-linejoin="miter" points="1115.61,812.114 1149.32,813.308"/>
<text fill="#000000" x="1182.71" y="820.5" font-size="12" text-anchor="start" dy="0" font-family="Helvetica">0.1</text>
<polyline fill="none" stroke="#000000" stroke-width="1" stroke-linecap="butt" stroke-linejoin="miter" points="593.474,759.054 588.801,781.553"/>
<text fill="#000000" x="573.329" y="810.052" font-size="12" text-anchor="start" dy="0" font-family="Helvetica">-0.1</text>
<polyline fill="none" stroke="#000000" stroke-width="1" stroke-linecap="butt" stroke-linejoin="miter" points="583.572,658.902 578.899,681.401"/>
<text fill="#000000" x="559.827" y="709.9" font-size="12" text-anchor="start" dy="0" font-family="Helvetica">-0.05</text>
<polyline fill="none" stroke="#000000" stroke-width="1" stroke-linecap="butt" stroke-linejoin="miter" points="573.67,558.75 568.998,581.249"/>
<text fill="#000000" x="560.725" y="609.748" font-size="12" text-anchor="start" dy="0" font-family="Helvetica">0</text>
<polyline fill="none" stroke="#000000" stroke-width="1" stroke-linecap="butt" stroke-linejoin="miter" points="563.769,458.598 559.096,481.097"/>
<text fill="#000000" x="542.023" y="509.596" font-size="12" text-anchor="start" dy="0" font-family="Helvetica">0.05</text>
<polyline fill="none" stroke="#000000" stroke-width="1" stroke-linecap="butt" stroke-linejoin="miter" points="1007.76,851.365 1003.09,873.864"/>
<text fill="#000000" x="984.013" y="902.363" font-size="12" text-anchor="start" dy="0" font-family="Helvetica">-0.05</text>
<polyline fill="none" stroke="#000000" stroke-width="1" stroke-linecap="butt" stroke-linejoin="miter" points="868.898,846.448 864.226,868.947"/>
<text fill="#000000" x="855.953" y="897.446" font-size="12" text-anchor="start" dy="0" font-family="Helvetica">0</text>
<polyline fill="none" stroke="#000000" stroke-width="1" stroke-linecap="butt" stroke-linejoin="miter" points="730.038,841.532 725.365,864.031"/>
<text fill="#000000" x="708.293" y="892.53" font-size="12" text-anchor="start" dy="0" font-family="Helvetica">0.05</text>
<polyline fill="none" stroke="#000000" stroke-width="1" stroke-linecap="butt" stroke-linejoin="miter" points="1176.82,517.382 1176.82,517.382"/>
<polyline fill="none" stroke="#000000" stroke-width="1" stroke-linecap="butt" stroke-linejoin="miter" points="563.177,452.618 563.177,452.618"/>
<polyline fill="none" stroke="#984ea3" stroke-width="1" stroke-linecap="butt" stroke-linejoin="miter" points="842.927,324.534 841.783,237.548"/>
<circle fill="#e41a1c" cx="963.405" cy="322.368" r="5"/>
<circle fill="#e41a1c" cx="869.006" cy="400.224" r="5"/>
<circle fill="#e41a1c" cx="841.882" cy="431.684" r="5"/>
<circle fill="#e41a1c" cx="845.201" cy="334.588" r="5"/>
<circle fill="#e41a1c" cx="884.963" cy="289.692" r="5"/>
<circle fill="#e41a1c" cx="934.808" cy="288.192" r="5"/>
<circle fill="#e41a1c" cx="927.323" cy="437.821" r="5"/>
<circle fill="#e41a1c" cx="885.647" cy="359.845" r="5"/>
<circle fill="#e41a1c" cx="1011.67" cy="249.765" r="5"/>
<circle fill="#e41a1c" cx="940.204" cy="275.24" r="5"/>
<circle fill="#e41a1c" cx="995.705" cy="334.083" r="5"/>
<circle fill="#e41a1c" cx="943.632" cy="353.828" r="5"/>
<circle fill="#e41a1c" cx="917.542" cy="393.918" r="5"/>
<circle fill="#e41a1c" cx="1017.15" cy="295.716" r="5"/>
<circle fill="#e41a1c" cx="911.398" cy="255.003" r="5"/>
<circle fill="#1874cd" cx="839.389" cy="303.342" r="5"/>
<circle fill="#1874cd" cx="814.349" cy="335.41" r="5"/>
<circle fill="#4daf4a" cx="1041.14" cy="545.351" r="5"/>
<circle fill="#4daf4a" cx="995.958" cy="413.681" r="5"/>
<circle fill="#4daf4a" cx="907.082" cy="307.538" r="5"/>
<circle fill="#4daf4a" cx="911.051" cy="321.469" r="5"/>
<circle fill="#e41a1c" cx="947.767" cy="334.014" r="5"/>
<circle fill="#4daf4a" cx="927.031" cy="445.991" r="5"/>
<circle fill="#4daf4a" cx="931.314" cy="484.879" r="5"/>
<circle fill="#4daf4a" cx="961.61" cy="527.583" r="5"/>
<circle fill="#4daf4a" cx="1103.11" cy="575.75" r="5"/>
<circle fill="#984ea3" cx="842.927" cy="324.534" r="5"/>
<circle fill="#984ea3" cx="841.783" cy="237.548" r="5"/>
<circle fill="#1874cd" cx="884.522" cy="355.001" r="5"/>
<circle fill="#1874cd" cx="741.773" cy="437.357" r="5"/>
<circle fill="#1874cd" cx="854.875" cy="330.764" r="5"/>
<circle fill="#1874cd" cx="743.082" cy="293.868" r="5"/>
<circle fill="#1874cd" cx="794.712" cy="302.892" r="5"/>
<circle fill="#1874cd" cx="854.131" cy="324.566" r="5"/>
<circle fill="#1874cd" cx="809.748" cy="352.782" r="5"/>
<circle fill="#1874cd" cx="805.454" cy="226.308" r="5"/>
<circle fill="#1874cd" cx="798.333" cy="304.484" r="5"/>
<circle fill="#1874cd" cx="726.95" cy="322.856" r="5"/>
<circle fill="#1874cd" cx="654.614" cy="658.65" r="5"/>
<circle fill="#1874cd" cx="769.261" cy="633.992" r="5"/>
<circle fill="#4daf4a" cx="923.459" cy="422.328" r="5"/>
<circle fill="#8b864e" cx="777.603" cy="585.74" r="5"/>
<circle fill="#8b864e" cx="863.397" cy="495.465" r="5"/>
<circle fill="#8b864e" cx="882.555" cy="470.794" r="5"/>
<circle fill="#8b864e" cx="889.203" cy="527.837" r="5"/>
<circle fill="#8b864e" cx="833.452" cy="495.91" r="5"/>
<circle fill="#000000" cx="809.725" cy="239.229" r="5"/>
<circle fill="#000000" cx="907.199" cy="208.181" r="5"/>
<text fill="#000000" x="1242.73" y="722.522" font-size="12" text-anchor="start" dy="0" font-family="Helvetica">PC1 (31.9%)</text>
<text fill="#000000" x="493.383" y="739.597" font-size="12" text-anchor="start" dy="0" font-family="Helvetica">PC2 (16.5%)</text>
<text fill="#000000" x="804.999" y="967.539" font-size="12" text-anchor="start" dy="0" font-family="Helvetica">PC3 (9.4%)</text>
<polygon fill="#1874cd" fill-opacity="0.298039" shape-rendering="crispEdges" points="654.614,658.65 769.261,633.992 805.454,226.308"/>
<polygon fill="#e41a1c" fill-opacity="0.298039" shape-rendering="crispEdges" points="911.398,255.003 995.705,334.083 1011.67,249.765"/>
<polygon fill="#1874cd" fill-opacity="0.298039" shape-rendering="crispEdges" points="854.131,324.566 769.261,633.992 805.454,226.308"/>
<polygon fill="#1874cd" fill-opacity="0.298039" shape-rendering="crispEdges" points="854.131,324.566 884.522,355.001 769.261,633.992"/>
<polygon fill="#4daf4a" fill-opacity="0.298039" shape-rendering="crispEdges" points="995.958,413.681 923.459,422.328 907.082,307.538"/>
<polygon fill="#e41a1c" fill-opacity="0.298039" shape-rendering="crispEdges" points="885.647,359.845 911.398,255.003 995.705,334.083"/>
<polygon fill="#1874cd" fill-opacity="0.298039" shape-rendering="crispEdges" points="654.614,658.65 769.261,633.992 741.773,437.357"/>
<polygon fill="#4daf4a" fill-opacity="0.298039" shape-rendering="crispEdges" points="995.958,413.681 923.459,422.328 1103.11,575.75"/>
<polygon fill="#4daf4a" fill-opacity="0.298039" shape-rendering="crispEdges" points="1041.14,545.351 923.459,422.328 1103.11,575.75"/>
<polygon fill="#e41a1c" fill-opacity="0.298039" shape-rendering="crispEdges" points="940.204,275.24 911.398,255.003 1011.67,249.765"/>
<polygon fill="#4daf4a" fill-opacity="0.298039" shape-rendering="crispEdges" points="995.958,413.681 911.051,321.469 907.082,307.538"/>
<polygon fill="#1874cd" fill-opacity="0.298039" shape-rendering="crispEdges" points="854.875,330.764 884.522,355.001 769.261,633.992"/>
<polygon fill="#1874cd" fill-opacity="0.298039" shape-rendering="crispEdges" points="743.082,293.868 654.614,658.65 805.454,226.308"/>
<polygon fill="#1874cd" fill-opacity="0.298039" shape-rendering="crispEdges" points="854.131,324.566 884.522,355.001 805.454,226.308"/>
<polygon fill="#e41a1c" fill-opacity="0.298039" shape-rendering="crispEdges" points="1017.15,295.716 995.705,334.083 1011.67,249.765"/>
<polygon fill="#4daf4a" fill-opacity="0.298039" shape-rendering="crispEdges" points="931.314,484.879 923.459,422.328 907.082,307.538"/>
<polygon fill="#e41a1c" fill-opacity="0.298039" shape-rendering="crispEdges" points="885.647,359.845 927.323,437.821 995.705,334.083"/>
<polygon fill="#4daf4a" fill-opacity="0.298039" shape-rendering="crispEdges" points="995.958,413.681 911.051,321.469 1103.11,575.75"/>
<polygon fill="#e41a1c" fill-opacity="0.298039" shape-rendering="crispEdges" points="885.647,359.845 911.398,255.003 841.882,431.684"/>
<polygon fill="#4daf4a" fill-opacity="0.298039" shape-rendering="crispEdges" points="1041.14,545.351 923.459,422.328 961.61,527.583"/>
<polygon fill="#e41a1c" fill-opacity="0.298039" shape-rendering="crispEdges" points="884.963,289.692 940.204,275.24 911.398,255.003"/>
<polygon fill="#e41a1c" fill-opacity="0.298039" shape-rendering="crispEdges" points="940.204,275.24 1017.15,295.716 1011.67,249.765"/>
<polygon fill="#e41a1c" fill-opacity="0.298039" shape-rendering="crispEdges" points="927.323,437.821 1017.15,295.716 995.705,334.083"/>
<polygon fill="#4daf4a" fill-opacity="0.298039" shape-rendering="crispEdges" points="931.314,484.879 911.051,321.469 907.082,307.538"/>
<polygon fill="#1874cd" fill-opacity="0.298039" shape-rendering="crispEdges" points="854.875,330.764 884.522,355.001 805.454,226.308"/>
<polygon fill="#e41a1c" fill-opacity="0.298039" shape-rendering="crispEdges" points="884.963,289.692 845.201,334.588 911.398,255.003"/>
<polygon fill="#1874cd" fill-opacity="0.298039" shape-rendering="crispEdges" points="743.082,293.868 726.95,322.856 654.614,658.65"/>
<polygon fill="#1874cd" fill-opacity="0.298039" shape-rendering="crispEdges" points="854.875,330.764 769.261,633.992 741.773,437.357"/>
<polygon fill="#e41a1c" fill-opacity="0.298039" shape-rendering="crispEdges" points="845.201,334.588 911.398,255.003 841.882,431.684"/>
<polygon fill="#e41a1c" fill-opacity="0.298039" shape-rendering="crispEdges" points="885.647,359.845 927.323,437.821 841.882,431.684"/>
<polygon fill="#4daf4a" fill-opacity="0.298039" shape-rendering="crispEdges" points="1041.14,545.351 1103.11,575.75 961.61,527.583"/>
<polygon fill="#1874cd" fill-opacity="0.298039" shape-rendering="crispEdges" points="726.95,322.856 654.614,658.65 741.773,437.357"/>
<polygon fill="#4daf4a" fill-opacity="0.298039" shape-rendering="crispEdges" points="911.051,321.469 1103.11,575.75 961.61,527.583"/>
<polygon fill="#4daf4a" fill-opacity="0.298039" shape-rendering="crispEdges" points="931.314,484.879 923.459,422.328 961.61,527.583"/>
<polygon fill="#1874cd" fill-opacity="0.298039" shape-rendering="crispEdges" points="798.333,304.484 854.875,330.764 805.454,226.308"/>
<polygon fill="#1874cd" fill-opacity="0.298039" shape-rendering="crispEdges" points="743.082,293.868 798.333,304.484 805.454,226.308"/>
<polygon fill="#e41a1c" fill-opacity="0.298039" shape-rendering="crispEdges" points="947.767,334.014 927.323,437.821 1017.15,295.716"/>
<polygon fill="#e41a1c" fill-opacity="0.298039" shape-rendering="crispEdges" points="947.767,334.014 884.963,289.692 940.204,275.24"/>
<polygon fill="#4daf4a" fill-opacity="0.298039" shape-rendering="crispEdges" points="931.314,484.879 911.051,321.469 961.61,527.583"/>
<polygon fill="#e41a1c" fill-opacity="0.298039" shape-rendering="crispEdges" points="947.767,334.014 940.204,275.24 1017.15,295.716"/>
<polygon fill="#e41a1c" fill-opacity="0.298039" shape-rendering="crispEdges" points="927.323,437.821 841.882,431.684 869.006,400.224"/>
<polygon fill="#e41a1c" fill-opacity="0.298039" shape-rendering="crispEdges" points="947.767,334.014 884.963,289.692 845.201,334.588"/>
<polygon fill="#1874cd" fill-opacity="0.298039" shape-rendering="crispEdges" points="743.082,293.868 798.333,304.484 726.95,322.856"/>
<polygon fill="#1874cd" fill-opacity="0.298039" shape-rendering="crispEdges" points="798.333,304.484 854.875,330.764 741.773,437.357"/>
<polygon fill="#e41a1c" fill-opacity="0.298039" shape-rendering="crispEdges" points="845.201,334.588 841.882,431.684 869.006,400.224"/>
<polygon fill="#e41a1c" fill-opacity="0.298039" shape-rendering="crispEdges" points="947.767,334.014 927.323,437.821 869.006,400.224"/>
<polygon fill="#1874cd" fill-opacity="0.298039" shape-rendering="crispEdges" points="798.333,304.484 726.95,322.856 741.773,437.357"/>
<polygon fill="#e41a1c" fill-opacity="0.298039" shape-rendering="crispEdges" points="947.767,334.014 845.201,334.588 869.006,400.224"/>
<polygon fill="#8b864e" fill-opacity="0.298039" shape-rendering="crispEdges" points="833.452,495.91 777.603,585.74 863.397,495.465"/>
<polygon fill="#8b864e" fill-opacity="0.298039" shape-rendering="crispEdges" points="889.203,527.837 777.603,585.74 863.397,495.465"/>
<polygon fill="#8b864e" fill-opacity="0.298039" shape-rendering="crispEdges" points="833.452,495.91 882.555,470.794 863.397,495.465"/>
<polygon fill="#8b864e" fill-opacity="0.298039" shape-rendering="crispEdges" points="833.452,495.91 882.555,470.794 777.603,585.74"/>
<polygon fill="#8b864e" fill-opacity="0.298039" shape-rendering="crispEdges" points="889.203,527.837 882.555,470.794 863.397,495.465"/>
<polygon fill="#8b864e" fill-opacity="0.298039" shape-rendering="crispEdges" points="889.203,527.837 882.555,470.794 777.603,585.74"/>
</g>
</svg>
