<?xml version="1.0" encoding="UTF-8" standalone="no"?>
<svg xmlns="http://www.w3.org/2000/svg"
     xmlns:xlink="http://www.w3.org/1999/xlink"
     width="2048pt" height="1081pt" viewBox="0 0 2048 1081">
<title>D:/3D_GM/Projects/UW105/Results/Taxonomic_assessment/UW105_240_811_LP4/Shape_PCA_3D_dropped_landmarks.svg</title>
<desc>
Creator: GL2PS 1.4.2, (C) 1999-2020 C. Geuzaine
For: Generated by rgl
CreationDate: Wed Jan 21 16:50:08 2026
</desc>
<defs>
</defs>
<g>
<polygon fill="#ffffff" shape-rendering="crispEdges" points="0,1081 2048,1081 2048,0"/>
<polygon fill="#ffffff" shape-rendering="crispEdges" points="0,1081 2048,0 0,0"/>
<polyline fill="none" stroke="#000000" stroke-width="1" stroke-linecap="butt" stroke-linejoin="miter" points="835.271,476.662 725.55,918.778 657.199,561.033 766.92,118.917 835.271,476.662"/>
<polyline fill="none" stroke="#000000" stroke-width="1" stroke-linecap="butt" stroke-linejoin="miter" points="835.271,476.662 766.92,118.917"/>
<polyline fill="none" stroke="#000000" stroke-width="1" stroke-linecap="butt" stroke-linejoin="miter" points="766.92,118.917 1322.45,162.222"/>
<polyline fill="none" stroke="#000000" stroke-width="1" stroke-linecap="butt" stroke-linejoin="miter" points="1322.45,162.222 1390.8,519.968"/>
<polyline fill="none" stroke="#000000" stroke-width="1" stroke-linecap="butt" stroke-linejoin="miter" points="1390.8,519.968 835.271,476.662"/>
<polyline fill="none" stroke="#000000" stroke-width="1" stroke-linecap="butt" stroke-linejoin="miter" points="1390.8,519.968 1281.08,962.083"/>
<polyline fill="none" stroke="#000000" stroke-width="1" stroke-linecap="butt" stroke-linejoin="miter" points="1281.08,962.083 725.55,918.778"/>
<polyline fill="none" stroke="#000000" stroke-width="1" stroke-linecap="butt" stroke-linejoin="miter" points="725.55,918.778 835.271,476.662"/>
<polyline fill="none" stroke="#000000" stroke-width="1" stroke-linecap="butt" stroke-linejoin="miter" points="835.271,476.662 1390.8,519.968"/>
<polyline fill="none" stroke="#000000" stroke-width="1" stroke-linecap="butt" stroke-linejoin="miter" points="1390.54,520.998 1427.58,523.885"/>
<text fill="#000000" x="1463.77" y="532.772" font-size="12" text-anchor="start" dy="0" font-family="Helvetica">-0.1</text>
<polyline fill="none" stroke="#000000" stroke-width="1" stroke-linecap="butt" stroke-linejoin="miter" points="1366.65,617.267 1403.69,620.154"/>
<text fill="#000000" x="1439.6" y="629.041" font-size="12" text-anchor="start" dy="0" font-family="Helvetica">-0.05</text>
<polyline fill="none" stroke="#000000" stroke-width="1" stroke-linecap="butt" stroke-linejoin="miter" points="1342.76,713.536 1379.8,716.423"/>
<text fill="#000000" x="1416.55" y="725.31" font-size="12" text-anchor="start" dy="0" font-family="Helvetica">0</text>
<polyline fill="none" stroke="#000000" stroke-width="1" stroke-linecap="butt" stroke-linejoin="miter" points="1318.87,809.805 1355.91,812.692"/>
<text fill="#000000" x="1391.97" y="821.579" font-size="12" text-anchor="start" dy="0" font-family="Helvetica">0.05</text>
<polyline fill="none" stroke="#000000" stroke-width="1" stroke-linecap="butt" stroke-linejoin="miter" points="1294.98,906.074 1332.02,908.961"/>
<text fill="#000000" x="1368.36" y="917.848" font-size="12" text-anchor="start" dy="0" font-family="Helvetica">0.1</text>
<polyline fill="none" stroke="#000000" stroke-width="1" stroke-linecap="butt" stroke-linejoin="miter" points="711.694,846.256 704.379,875.73"/>
<text fill="#000000" x="686.265" y="911.205" font-size="12" text-anchor="start" dy="0" font-family="Helvetica">-0.1</text>
<polyline fill="none" stroke="#000000" stroke-width="1" stroke-linecap="butt" stroke-linejoin="miter" points="693.884,753.037 686.569,782.511"/>
<text fill="#000000" x="664.854" y="817.986" font-size="12" text-anchor="start" dy="0" font-family="Helvetica">-0.05</text>
<polyline fill="none" stroke="#000000" stroke-width="1" stroke-linecap="butt" stroke-linejoin="miter" points="676.073,659.818 668.758,689.292"/>
<text fill="#000000" x="657.844" y="724.767" font-size="12" text-anchor="start" dy="0" font-family="Helvetica">0</text>
<polyline fill="none" stroke="#000000" stroke-width="1" stroke-linecap="butt" stroke-linejoin="miter" points="658.263,566.599 650.948,596.073"/>
<text fill="#000000" x="631.233" y="631.548" font-size="12" text-anchor="start" dy="0" font-family="Helvetica">0.05</text>
<polyline fill="none" stroke="#000000" stroke-width="1" stroke-linecap="butt" stroke-linejoin="miter" points="1172.32,953.605 1165.01,983.08"/>
<text fill="#000000" x="1143.29" y="1018.55" font-size="12" text-anchor="start" dy="0" font-family="Helvetica">-0.05</text>
<polyline fill="none" stroke="#000000" stroke-width="1" stroke-linecap="butt" stroke-linejoin="miter" points="1019.73,941.711 1012.42,971.186"/>
<text fill="#000000" x="1001.5" y="1006.66" font-size="12" text-anchor="start" dy="0" font-family="Helvetica">0</text>
<polyline fill="none" stroke="#000000" stroke-width="1" stroke-linecap="butt" stroke-linejoin="miter" points="867.148,929.816 859.833,959.291"/>
<text fill="#000000" x="840.119" y="994.765" font-size="12" text-anchor="start" dy="0" font-family="Helvetica">0.05</text>
<polyline fill="none" stroke="#000000" stroke-width="1" stroke-linecap="butt" stroke-linejoin="miter" points="1390.8,519.968 1390.8,519.968"/>
<polyline fill="none" stroke="#000000" stroke-width="1" stroke-linecap="butt" stroke-linejoin="miter" points="657.199,561.033 657.199,561.033"/>
<polyline fill="none" stroke="#984ea3" stroke-width="1" stroke-linecap="butt" stroke-linejoin="miter" points="998.817,353.475 1001.65,248.891"/>
<circle fill="#e41a1c" cx="1129.04" cy="361.923" r="5"/>
<circle fill="#e41a1c" cx="1005.04" cy="490.381" r="5"/>
<circle fill="#e41a1c" cx="983.033" cy="504.923" r="5"/>
<circle fill="#e41a1c" cx="985.723" cy="401.501" r="5"/>
<circle fill="#e41a1c" cx="1033.52" cy="344.698" r="5"/>
<circle fill="#e41a1c" cx="1101.87" cy="313.236" r="5"/>
<circle fill="#e41a1c" cx="1082.76" cy="501.79" r="5"/>
<circle fill="#e41a1c" cx="1042.79" cy="401.028" r="5"/>
<circle fill="#e41a1c" cx="1188.91" cy="268.853" r="5"/>
<circle fill="#e41a1c" cx="1096.27" cy="326.7" r="5"/>
<circle fill="#e41a1c" cx="1168.61" cy="366.546" r="5"/>
<circle fill="#e41a1c" cx="1102.26" cy="407.244" r="5"/>
<circle fill="#e41a1c" cx="1068.76" cy="461.175" r="5"/>
<circle fill="#e41a1c" cx="1179.12" cy="356.67" r="5"/>
<circle fill="#e41a1c" cx="1079.26" cy="268.559" r="5"/>
<circle fill="#1874cd" cx="987.358" cy="348.152" r="5"/>
<circle fill="#1874cd" cx="961.31" cy="378.453" r="5"/>
<circle fill="#4daf4a" cx="1214.79" cy="607.864" r="5"/>
<circle fill="#4daf4a" cx="1165.56" cy="461.221" r="5"/>
<circle fill="#4daf4a" cx="1070.05" cy="336.219" r="5"/>
<circle fill="#4daf4a" cx="1068.82" cy="364.839" r="5"/>
<circle fill="#e41a1c" cx="1094.71" cy="414.507" r="5"/>
<circle fill="#4daf4a" cx="1085.27" cy="503.982" r="5"/>
<circle fill="#4daf4a" cx="1079.24" cy="572.023" r="5"/>
<circle fill="#4daf4a" cx="1109.53" cy="627.104" r="5"/>
<circle fill="#4daf4a" cx="1282.5" cy="644.835" r="5"/>
<circle fill="#984ea3" cx="998.817" cy="353.475" r="5"/>
<circle fill="#984ea3" cx="1001.65" cy="248.891" r="5"/>
<circle fill="#1874cd" cx="1039.95" cy="399.479" r="5"/>
<circle fill="#1874cd" cx="865.908" cy="523.273" r="5"/>
<circle fill="#1874cd" cx="997.583" cy="394.872" r="5"/>
<circle fill="#1874cd" cx="873.208" cy="353.02" r="5"/>
<circle fill="#1874cd" cx="941.232" cy="338.527" r="5"/>
<circle fill="#1874cd" cx="1009.9" cy="356.949" r="5"/>
<circle fill="#1874cd" cx="947.728" cy="417.382" r="5"/>
<circle fill="#1874cd" cx="953.608" cy="254.191" r="5"/>
<circle fill="#1874cd" cx="932.243" cy="371.169" r="5"/>
<circle fill="#1874cd" cx="852.273" cy="391.464" r="5"/>
<circle fill="#1874cd" cx="797.235" cy="696.169" r="5"/>
<circle fill="#1874cd" cx="926.172" cy="667.677" r="5"/>
<circle fill="#4daf4a" cx="1094.3" cy="447.308" r="5"/>
<circle fill="#8b864e" cx="904.414" cy="688.764" r="5"/>
<circle fill="#8b864e" cx="1000.18" cy="590.847" r="5"/>
<circle fill="#8b864e" cx="1017.64" cy="573.383" r="5"/>
<circle fill="#8b864e" cx="1026.86" cy="631.34" r="5"/>
<circle fill="#8b864e" cx="965.476" cy="594.198" r="5"/>
<circle fill="#000000" cx="958.35" cy="268.361" r="5"/>
<circle fill="#000000" cx="1062.31" cy="246.568" r="5"/>
<text fill="#000000" x="1452.24" y="782.423" font-size="12" text-anchor="start" dy="0" font-family="Helvetica">PC1 (31.9%)</text>
<text fill="#000000" x="588.681" y="860.916" font-size="12" text-anchor="start" dy="0" font-family="Helvetica">PC2 (16.5%)</text>
<text fill="#000000" x="883.772" y="672.077" font-size="8" text-anchor="start" dy="0" font-family="Helvetica">SK6_LLP4</text>
<text fill="#000000" x="709.235" y="700.569" font-size="8" text-anchor="start" dy="0" font-family="Helvetica">Prob_SKX4446_LRP4</text>
<polygon fill="#1874cd" fill-opacity="0.298039" shape-rendering="crispEdges" points="797.235,696.169 926.172,667.677 953.608,254.191"/>
<text fill="#000000" x="1034.3" y="451.708" font-size="8" text-anchor="start" dy="0" font-family="Helvetica">STW151_LLP4</text>
<polygon fill="#1874cd" fill-opacity="0.298039" shape-rendering="crispEdges" points="797.235,696.169 926.172,667.677 865.908,523.273"/>
<polygon fill="#1874cd" fill-opacity="0.298039" shape-rendering="crispEdges" points="1009.9,356.949 1039.95,399.479 926.172,667.677"/>
<polygon fill="#1874cd" fill-opacity="0.298039" shape-rendering="crispEdges" points="1009.9,356.949 926.172,667.677 953.608,254.191"/>
<text fill="#000000" x="1018.46" y="272.959" font-size="8" text-anchor="start" dy="0" font-family="Helvetica">AL443-1_LLP4</text>
<text fill="#000000" x="887.255" y="253.291" font-size="8" text-anchor="start" dy="0" font-family="Helvetica">Pboi_KNMER_15951D_LRP4</text>
<polygon fill="#4daf4a" fill-opacity="0.298039" shape-rendering="crispEdges" points="1165.56,461.221 1094.3,447.308 1070.05,336.219"/>
<polygon fill="#4daf4a" fill-opacity="0.298039" shape-rendering="crispEdges" points="1214.79,607.864 1094.3,447.308 1282.5,644.835"/>
<polygon fill="#e41a1c" fill-opacity="0.298039" shape-rendering="crispEdges" points="1079.26,268.559 1168.61,366.546 1188.91,268.853"/>
<polygon fill="#4daf4a" fill-opacity="0.298039" shape-rendering="crispEdges" points="1165.56,461.221 1094.3,447.308 1282.5,644.835"/>
<text fill="#000000" x="1123.31" y="273.252" font-size="8" text-anchor="start" dy="0" font-family="Helvetica">AL128-23_LRP4</text>
<text fill="#000000" x="891.617" y="357.875" font-size="8" text-anchor="start" dy="0" font-family="Helvetica">Pboi_KNM-ER_3885_LRP4</text>
<text fill="#000000" x="1018.67" y="317.636" font-size="8" text-anchor="start" dy="0" font-family="Helvetica">Aafr_STW537_LLP4</text>
<polygon fill="#e41a1c" fill-opacity="0.298039" shape-rendering="crispEdges" points="1042.79,401.028 1079.26,268.559 1168.61,366.546"/>
<text fill="#000000" x="986.851" y="340.619" font-size="8" text-anchor="start" dy="0" font-family="Helvetica">KNM-ER_1802_LRP4</text>
<text fill="#000000" x="1107.81" y="370.946" font-size="8" text-anchor="start" dy="0" font-family="Helvetica">AL330-7_LLP4</text>
<polygon fill="#1874cd" fill-opacity="0.298039" shape-rendering="crispEdges" points="997.583,394.872 1039.95,399.479 926.172,667.677"/>
<text fill="#000000" x="937.101" y="361.349" font-size="8" text-anchor="start" dy="0" font-family="Helvetica">Prob_SK88_LLP4</text>
<text fill="#000000" x="1136.39" y="612.264" font-size="8" text-anchor="start" dy="0" font-family="Helvetica">KNM-ER_992_LRP4</text>
<polygon fill="#1874cd" fill-opacity="0.298039" shape-rendering="crispEdges" points="873.208,353.02 797.235,696.169 953.608,254.191"/>
<text fill="#000000" x="1234.5" y="649.235" font-size="8" text-anchor="start" dy="0" font-family="Helvetica">OH22_LRP4</text>
<text fill="#000000" x="1082.36" y="465.621" font-size="8" text-anchor="start" dy="0" font-family="Helvetica">KNM-ER_1507_LLP4</text>
<polygon fill="#4daf4a" fill-opacity="0.298039" shape-rendering="crispEdges" points="1079.24,572.023 1094.3,447.308 1070.05,336.219"/>
<polygon fill="#e41a1c" fill-opacity="0.298039" shape-rendering="crispEdges" points="1096.27,326.7 1079.26,268.559 1188.91,268.853"/>
<text fill="#000000" x="960.386" y="405.428" font-size="8" text-anchor="start" dy="0" font-family="Helvetica">Aafr_TM1523_LLP4</text>
<polygon fill="#4daf4a" fill-opacity="0.298039" shape-rendering="crispEdges" points="1165.56,461.221 1068.82,364.839 1070.05,336.219"/>
<polygon fill="#1874cd" fill-opacity="0.298039" shape-rendering="crispEdges" points="1009.9,356.949 1039.95,399.479 953.608,254.191"/>
<polygon fill="#4daf4a" fill-opacity="0.298039" shape-rendering="crispEdges" points="1165.56,461.221 1068.82,364.839 1282.5,644.835"/>
<text fill="#000000" x="862.832" y="342.927" font-size="8" text-anchor="start" dy="0" font-family="Helvetica">Prob_SK55B_LLP4</text>
<polygon fill="#e41a1c" fill-opacity="0.298039" shape-rendering="crispEdges" points="1042.79,401.028 1082.76,501.79 1168.61,366.546"/>
<polygon fill="#4daf4a" fill-opacity="0.298039" shape-rendering="crispEdges" points="1214.79,607.864 1094.3,447.308 1109.53,627.104"/>
<polygon fill="#e41a1c" fill-opacity="0.298039" shape-rendering="crispEdges" points="1042.79,401.028 1079.26,268.559 983.033,504.923"/>
<text fill="#000000" x="1047.44" y="366.323" font-size="8" text-anchor="start" dy="0" font-family="Helvetica">Aafr_STS52B_LRP4</text>
<text fill="#000000" x="971.953" y="403.879" font-size="8" text-anchor="start" dy="0" font-family="Helvetica">Prob_SK7_LRP4</text>
<text fill="#000000" x="884.75" y="272.761" font-size="8" text-anchor="start" dy="0" font-family="Helvetica">UW105_811_LLP4</text>
<text fill="#000000" x="866.408" y="258.591" font-size="8" text-anchor="start" dy="0" font-family="Helvetica">Prob_SK1587a_LLP4</text>
<polygon fill="#e41a1c" fill-opacity="0.298039" shape-rendering="crispEdges" points="1179.12,356.67 1168.61,366.546 1188.91,268.853"/>
<text fill="#000000" x="908.51" y="382.853" font-size="8" text-anchor="start" dy="0" font-family="Helvetica">DNH51_LRP4</text>
<text fill="#000000" x="1042.07" y="508.382" font-size="8" text-anchor="start" dy="0" font-family="Helvetica">OH7_LRP4</text>
<polygon fill="#1874cd" fill-opacity="0.298039" shape-rendering="crispEdges" points="873.208,353.02 852.273,391.464 797.235,696.169"/>
<polygon fill="#1874cd" fill-opacity="0.298039" shape-rendering="crispEdges" points="997.583,394.872 926.172,667.677 865.908,523.273"/>
<text fill="#000000" x="985.623" y="369.239" font-size="8" text-anchor="start" dy="0" font-family="Helvetica">KNM-ER_5431_LLP4</text>
<polygon fill="#1874cd" fill-opacity="0.298039" shape-rendering="crispEdges" points="852.273,391.464 797.235,696.169 865.908,523.273"/>
<polygon fill="#e41a1c" fill-opacity="0.298039" shape-rendering="crispEdges" points="1033.52,344.698 1096.27,326.7 1079.26,268.559"/>
<polygon fill="#4daf4a" fill-opacity="0.298039" shape-rendering="crispEdges" points="1079.24,572.023 1068.82,364.839 1070.05,336.219"/>
<polygon fill="#4daf4a" fill-opacity="0.298039" shape-rendering="crispEdges" points="1214.79,607.864 1282.5,644.835 1109.53,627.104"/>
<text fill="#000000" x="939.358" y="352.552" font-size="8" text-anchor="start" dy="0" font-family="Helvetica">DNH8_LLP4</text>
<polygon fill="#e41a1c" fill-opacity="0.298039" shape-rendering="crispEdges" points="1082.76,501.79 1179.12,356.67 1168.61,366.546"/>
<polygon fill="#e41a1c" fill-opacity="0.298039" shape-rendering="crispEdges" points="1042.79,401.028 1082.76,501.79 983.033,504.923"/>
<polygon fill="#1874cd" fill-opacity="0.298039" shape-rendering="crispEdges" points="997.583,394.872 1039.95,399.479 953.608,254.191"/>
<text fill="#000000" x="999.561" y="506.189" font-size="8" text-anchor="start" dy="0" font-family="Helvetica">Aafr_STW_14_LLP4</text>
<polygon fill="#e41a1c" fill-opacity="0.298039" shape-rendering="crispEdges" points="985.723,401.501 1079.26,268.559 983.033,504.923"/>
<polygon fill="#e41a1c" fill-opacity="0.298039" shape-rendering="crispEdges" points="1033.52,344.698 985.723,401.501 1079.26,268.559"/>
<text fill="#000000" x="1041.46" y="411.644" font-size="8" text-anchor="start" dy="0" font-family="Helvetica">AL330-5_LRP4</text>
<polygon fill="#4daf4a" fill-opacity="0.298039" shape-rendering="crispEdges" points="1079.24,572.023 1094.3,447.308 1109.53,627.104"/>
<polygon fill="#e41a1c" fill-opacity="0.298039" shape-rendering="crispEdges" points="1096.27,326.7 1179.12,356.67 1188.91,268.853"/>
<polygon fill="#4daf4a" fill-opacity="0.298039" shape-rendering="crispEdges" points="1068.82,364.839 1282.5,644.835 1109.53,627.104"/>
<text fill="#000000" x="988.709" y="250.968" font-size="8" text-anchor="start" dy="0" font-family="Helvetica">UW_105_240_LLP</text>
<text fill="#000000" x="1035.47" y="331.1" font-size="8" text-anchor="start" dy="0" font-family="Helvetica">AL266-1_LRP4</text>
<polygon fill="#1874cd" fill-opacity="0.298039" shape-rendering="crispEdges" points="932.243,371.169 997.583,394.872 953.608,254.191"/>
<text fill="#000000" x="999.962" y="465.575" font-size="8" text-anchor="start" dy="0" font-family="Helvetica">AL333w-1_LLP4</text>
<polygon fill="#1874cd" fill-opacity="0.298039" shape-rendering="crispEdges" points="873.208,353.02 932.243,371.169 953.608,254.191"/>
<text fill="#000000" x="899.833" y="509.323" font-size="8" text-anchor="start" dy="0" font-family="Helvetica">Aafr_STW213_LRP4</text>
<text fill="#000000" x="950.321" y="349.098" font-size="8" text-anchor="start" dy="0" font-family="Helvetica">Aafr_STW404_LRP4</text>
<polygon fill="#4daf4a" fill-opacity="0.298039" shape-rendering="crispEdges" points="1079.24,572.023 1068.82,364.839 1109.53,627.104"/>
<text fill="#000000" x="864.528" y="421.782" font-size="8" text-anchor="start" dy="0" font-family="Helvetica">Prob_SK826B_LLP4</text>
<polygon fill="#e41a1c" fill-opacity="0.298039" shape-rendering="crispEdges" points="1082.76,501.79 983.033,504.923 1005.04,490.381"/>
<text fill="#000000" x="924.784" y="399.272" font-size="8" text-anchor="start" dy="0" font-family="Helvetica">Prob_SK23_LRP4</text>
<text fill="#000000" x="800.408" y="357.42" font-size="8" text-anchor="start" dy="0" font-family="Helvetica">Prob_SK25_LLP4</text>
<polygon fill="#e41a1c" fill-opacity="0.298039" shape-rendering="crispEdges" points="1094.71,414.507 1082.76,501.79 1179.12,356.67"/>
<text fill="#000000" x="1113.52" y="361.07" font-size="8" text-anchor="start" dy="0" font-family="Helvetica">AL417-1a_LLP4</text>
<polygon fill="#e41a1c" fill-opacity="0.298039" shape-rendering="crispEdges" points="1094.71,414.507 1033.52,344.698 1096.27,326.7"/>
<text fill="#000000" x="902.522" y="405.901" font-size="8" text-anchor="start" dy="0" font-family="Helvetica">Aafr_STW327_LRP4</text>
<text fill="#000000" x="1031.24" y="576.423" font-size="8" text-anchor="start" dy="0" font-family="Helvetica">OH13_LRP4</text>
<polygon fill="#e41a1c" fill-opacity="0.298039" shape-rendering="crispEdges" points="1094.71,414.507 1096.27,326.7 1179.12,356.67"/>
<polygon fill="#1874cd" fill-opacity="0.298039" shape-rendering="crispEdges" points="873.208,353.02 932.243,371.169 852.273,391.464"/>
<polygon fill="#e41a1c" fill-opacity="0.298039" shape-rendering="crispEdges" points="1094.71,414.507 1033.52,344.698 985.723,401.501"/>
<polygon fill="#1874cd" fill-opacity="0.298039" shape-rendering="crispEdges" points="932.243,371.169 997.583,394.872 865.908,523.273"/>
<polygon fill="#e41a1c" fill-opacity="0.298039" shape-rendering="crispEdges" points="985.723,401.501 983.033,504.923 1005.04,490.381"/>
<text fill="#000000" x="830.814" y="693.164" font-size="8" text-anchor="start" dy="0" font-family="Helvetica">UW101_184_LLP4</text>
<text fill="#000000" x="776.273" y="395.864" font-size="8" text-anchor="start" dy="0" font-family="Helvetica">Prob_SKW5_LRP4</text>
<polygon fill="#e41a1c" fill-opacity="0.298039" shape-rendering="crispEdges" points="1094.71,414.507 1082.76,501.79 1005.04,490.381"/>
<text fill="#000000" x="849.843" y="375.569" font-size="8" text-anchor="start" dy="0" font-family="Helvetica">Prob_SK1588_LRP4</text>
<polygon fill="#1874cd" fill-opacity="0.298039" shape-rendering="crispEdges" points="932.243,371.169 852.273,391.464 865.908,523.273"/>
<text fill="#000000" x="797.908" y="527.673" font-size="8" text-anchor="start" dy="0" font-family="Helvetica">Prob_SK9_LLP4</text>
<text fill="#000000" x="1061.53" y="631.504" font-size="8" text-anchor="start" dy="0" font-family="Helvetica">OH16_LLP4</text>
<polygon fill="#8b864e" fill-opacity="0.298039" shape-rendering="crispEdges" points="965.476,594.198 904.414,688.764 1000.18,590.847"/>
<polygon fill="#8b864e" fill-opacity="0.298039" shape-rendering="crispEdges" points="1026.86,631.34 904.414,688.764 1000.18,590.847"/>
<text fill="#000000" x="926.584" y="595.247" font-size="8" text-anchor="start" dy="0" font-family="Helvetica">UW101_377_LRP4</text>
<polygon fill="#e41a1c" fill-opacity="0.298039" shape-rendering="crispEdges" points="1094.71,414.507 985.723,401.501 1005.04,490.381"/>
<text fill="#000000" x="887.076" y="598.598" font-size="8" text-anchor="start" dy="0" font-family="Helvetica">UW101_1261_LLP4</text>
<polygon fill="#8b864e" fill-opacity="0.298039" shape-rendering="crispEdges" points="965.476,594.198 1017.64,573.383 904.414,688.764"/>
<polygon fill="#8b864e" fill-opacity="0.298039" shape-rendering="crispEdges" points="1026.86,631.34 1017.64,573.383 904.414,688.764"/>
<text fill="#000000" x="953.258" y="635.74" font-size="8" text-anchor="start" dy="0" font-family="Helvetica">UW101_887_LLP4</text>
<polygon fill="#8b864e" fill-opacity="0.298039" shape-rendering="crispEdges" points="965.476,594.198 1017.64,573.383 1000.18,590.847"/>
<polygon fill="#8b864e" fill-opacity="0.298039" shape-rendering="crispEdges" points="1026.86,631.34 1017.64,573.383 1000.18,590.847"/>
<text fill="#000000" x="1048.31" y="418.907" font-size="8" text-anchor="start" dy="0" font-family="Helvetica">LH3r_LLP4</text>
<text fill="#000000" x="921.842" y="494.781" font-size="8" text-anchor="start" dy="0" font-family="Helvetica">Aafr_STW131_LLP4</text>
<text fill="#000000" x="944.038" y="577.783" font-size="8" text-anchor="start" dy="0" font-family="Helvetica">UW101_383_LRP4</text>
</g>
</svg>
