<?xml version="1.0" encoding="UTF-8" standalone="no"?>
<svg xmlns="http://www.w3.org/2000/svg"
     xmlns:xlink="http://www.w3.org/1999/xlink"
     width="2048pt" height="1081pt" viewBox="0 0 2048 1081">
<title>D:/3D_GM/Projects/UW105/Results/Taxonomic_assessment/UW105-074_676/3D_PCA_clean_as_UM3.svg</title>
<desc>
Creator: GL2PS 1.4.2, (C) 1999-2020 C. Geuzaine
For: Generated by rgl
CreationDate: Tue Jan 27 18:54:05 2026
</desc>
<defs>
</defs>
<g>
<polygon fill="#ffffff" shape-rendering="crispEdges" points="0,1081 2048,1081 2048,0"/>
<polygon fill="#ffffff" shape-rendering="crispEdges" points="0,1081 2048,0 0,0"/>
<polyline fill="none" stroke="#0d0d0d" stroke-width="1" stroke-linecap="butt" stroke-linejoin="miter" points="1298.26,771.717 674.69,794.455"/>
<polyline fill="none" stroke="#212121" stroke-width="1" stroke-linecap="butt" stroke-linejoin="miter" points="674.69,794.455 668.724,179.562"/>
<polyline fill="none" stroke="#c6c6c6" stroke-width="1" stroke-linecap="butt" stroke-linejoin="miter" points="668.724,179.562 1292.29,156.824"/>
<polyline fill="none" stroke="#434343" stroke-width="1" stroke-linecap="butt" stroke-linejoin="miter" points="1292.29,156.824 1298.26,771.717"/>
<polyline fill="none" stroke="#000000" stroke-width="1" stroke-linecap="butt" stroke-linejoin="miter" points="1298.26,771.717 1292.29,156.824 1373.31,286.545 1379.28,901.438 1298.26,771.717"/>
<polyline fill="none" stroke="#000000" stroke-width="1" stroke-linecap="butt" stroke-linejoin="miter" points="1379.28,901.438 755.707,924.176 674.69,794.455 1298.26,771.717 1379.28,901.438"/>
<polyline fill="none" stroke="#000000" stroke-width="1" stroke-linecap="butt" stroke-linejoin="miter" points="1297.67,904.414 1303.07,913.062"/>
<text fill="#000000" x="1297.67" y="927.71" font-size="12" text-anchor="start" dy="0" font-family="Helvetica">-0.1</text>
<polyline fill="none" stroke="#000000" stroke-width="1" stroke-linecap="butt" stroke-linejoin="miter" points="1183.91,908.562 1189.31,917.21"/>
<text fill="#000000" x="1180.31" y="931.858" font-size="12" text-anchor="start" dy="0" font-family="Helvetica">-0.05</text>
<polyline fill="none" stroke="#000000" stroke-width="1" stroke-linecap="butt" stroke-linejoin="miter" points="1070.14,912.71 1075.54,921.358"/>
<text fill="#000000" x="1077.34" y="936.006" font-size="12" text-anchor="start" dy="0" font-family="Helvetica">0</text>
<polyline fill="none" stroke="#000000" stroke-width="1" stroke-linecap="butt" stroke-linejoin="miter" points="956.378,916.858 961.779,925.506"/>
<text fill="#000000" x="954.78" y="940.155" font-size="12" text-anchor="start" dy="0" font-family="Helvetica">0.05</text>
<polyline fill="none" stroke="#000000" stroke-width="1" stroke-linecap="butt" stroke-linejoin="miter" points="842.613,921.007 848.015,929.655"/>
<text fill="#000000" x="844.616" y="944.303" font-size="12" text-anchor="start" dy="0" font-family="Helvetica">0.1</text>
<polyline fill="none" stroke="#000000" stroke-width="1" stroke-linecap="butt" stroke-linejoin="miter" points="1379.27,900.967 1384.67,909.615"/>
<text fill="#000000" x="1379.27" y="924.263" font-size="12" text-anchor="start" dy="0" font-family="Helvetica">-0.1</text>
<polyline fill="none" stroke="#000000" stroke-width="1" stroke-linecap="butt" stroke-linejoin="miter" points="1377.84,753.543 1383.24,762.191"/>
<text fill="#000000" x="1374.24" y="776.839" font-size="12" text-anchor="start" dy="0" font-family="Helvetica">-0.05</text>
<polyline fill="none" stroke="#000000" stroke-width="1" stroke-linecap="butt" stroke-linejoin="miter" points="1376.41,606.12 1381.81,614.768"/>
<text fill="#000000" x="1383.61" y="629.416" font-size="12" text-anchor="start" dy="0" font-family="Helvetica">0</text>
<polyline fill="none" stroke="#000000" stroke-width="1" stroke-linecap="butt" stroke-linejoin="miter" points="1374.98,458.696 1380.38,467.344"/>
<text fill="#000000" x="1373.38" y="481.992" font-size="12" text-anchor="start" dy="0" font-family="Helvetica">0.05</text>
<polyline fill="none" stroke="#000000" stroke-width="1" stroke-linecap="butt" stroke-linejoin="miter" points="1373.55,311.272 1378.95,319.92"/>
<text fill="#000000" x="1375.55" y="334.568" font-size="12" text-anchor="start" dy="0" font-family="Helvetica">0.1</text>
<polyline fill="none" stroke="#000000" stroke-width="1" stroke-linecap="butt" stroke-linejoin="miter" points="737.053,894.308 695.481,895.823"/>
<text fill="#000000" x="625.635" y="903.339" font-size="12" text-anchor="start" dy="0" font-family="Helvetica">-0.05</text>
<polyline fill="none" stroke="#000000" stroke-width="1" stroke-linecap="butt" stroke-linejoin="miter" points="717.076,862.321 675.504,863.837"/>
<text fill="#000000" x="626.864" y="871.353" font-size="12" text-anchor="start" dy="0" font-family="Helvetica">0</text>
<polyline fill="none" stroke="#000000" stroke-width="1" stroke-linecap="butt" stroke-linejoin="miter" points="697.099,830.335 655.528,831.851"/>
<text fill="#000000" x="589.608" y="839.367" font-size="12" text-anchor="start" dy="0" font-family="Helvetica">0.05</text>
<polyline fill="none" stroke="#000000" stroke-width="1" stroke-linecap="butt" stroke-linejoin="miter" points="677.122,798.349 635.551,799.864"/>
<text fill="#000000" x="576.7" y="807.38" font-size="12" text-anchor="start" dy="0" font-family="Helvetica">0.1</text>
<polyline fill="none" stroke="#000000" stroke-width="1" stroke-linecap="butt" stroke-linejoin="miter" points="1379.28,901.438 1379.28,901.438"/>
<polyline fill="none" stroke="#000000" stroke-width="1" stroke-linecap="butt" stroke-linejoin="miter" points="668.724,179.562 668.724,179.562"/>
<circle fill="#e41a1c" cx="1175.75" cy="543.108" r="5"/>
<circle fill="#e41a1c" cx="1184.96" cy="658.692" r="5"/>
<circle fill="#e41a1c" cx="1016.5" cy="598.481" r="5"/>
<circle fill="#8b2323" cx="1069.42" cy="733.41" r="5"/>
<circle fill="#1874cd" cx="916.27" cy="728.115" r="5"/>
<circle fill="#4daf4a" cx="1007.46" cy="247.408" r="5"/>
<circle fill="#4daf4a" cx="916.72" cy="462.482" r="5"/>
<circle fill="#4daf4a" cx="958.597" cy="562.684" r="5"/>
<circle fill="#4daf4a" cx="883.138" cy="400.374" r="5"/>
<circle fill="#4daf4a" cx="903.714" cy="538.44" r="5"/>
<circle fill="#4daf4a" cx="898.43" cy="286.129" r="5"/>
<circle fill="#1874cd" cx="1273.37" cy="373.806" r="5"/>
<circle fill="#1874cd" cx="1097.63" cy="550.001" r="5"/>
<circle fill="#1874cd" cx="1066.58" cy="541.601" r="5"/>
<circle fill="#1874cd" cx="1017.65" cy="515.311" r="5"/>
<circle fill="#1874cd" cx="1327.61" cy="798.627" r="5"/>
<circle fill="#1874cd" cx="1068.2" cy="547.866" r="5"/>
<circle fill="#1874cd" cx="991.217" cy="514.945" r="5"/>
<circle fill="#1874cd" cx="1112.02" cy="530.647" r="5"/>
<circle fill="#1874cd" cx="1043.72" cy="487.3" r="5"/>
<circle fill="#1874cd" cx="1234.8" cy="438.393" r="5"/>
<circle fill="#1874cd" cx="1032.66" cy="573.555" r="5"/>
<circle fill="#1874cd" cx="1202.86" cy="684.639" r="5"/>
<circle fill="#1874cd" cx="885.583" cy="463.927" r="5"/>
<circle fill="#cd661d" cx="960.366" cy="660.02" r="5"/>
<circle fill="#cd661d" cx="896.933" cy="582.547" r="5"/>
<circle fill="#cd661d" cx="973.971" cy="570.529" r="5"/>
<circle fill="#cd661d" cx="728.342" cy="807.119" r="5"/>
<circle fill="#cd661d" cx="1063.09" cy="621.412" r="5"/>
<circle fill="#cd661d" cx="1086.84" cy="629.159" r="5"/>
<circle fill="#cd661d" cx="919.891" cy="698.804" r="5"/>
<circle fill="#cd661d" cx="1000.23" cy="616.568" r="5"/>
<circle fill="#cd661d" cx="1103.46" cy="586.932" r="5"/>
<circle fill="#8b864e" cx="907.46" cy="611.565" r="5"/>
<circle fill="#8b864e" cx="1018.76" cy="552.421" r="5"/>
<circle fill="#8b864e" cx="999.091" cy="660.879" r="5"/>
<circle fill="#000000" cx="885.017" cy="357.803" r="5"/>
<circle fill="#000000" cx="1260.23" cy="374.713" r="5"/>
<text fill="#000000" x="1058.29" y="994.392" font-size="12" text-anchor="start" dy="0" font-family="Helvetica">PC1 (31%)</text>
<text fill="#000000" x="1403.07" y="633.068" font-size="12" text-anchor="start" dy="0" font-family="Helvetica">PC2 (17.8%)</text>
<text fill="#000000" x="512.911" y="912.372" font-size="12" text-anchor="start" dy="0" font-family="Helvetica">PC3 (13.3%)</text>
<polygon fill="#cd661d" fill-opacity="0.298039" shape-rendering="crispEdges" points="1086.84,629.159 960.366,660.02 728.342,807.119"/>
<polygon fill="#cd661d" fill-opacity="0.298039" shape-rendering="crispEdges" points="896.933,582.547 960.366,660.02 728.342,807.119"/>
<polygon fill="#cd661d" fill-opacity="0.298039" shape-rendering="crispEdges" points="1086.84,629.159 896.933,582.547 960.366,660.02"/>
<polygon fill="#4daf4a" fill-opacity="0.298039" shape-rendering="crispEdges" points="883.138,400.374 958.597,562.684 1007.46,247.408"/>
<polygon fill="#1874cd" fill-opacity="0.298039" shape-rendering="crispEdges" points="916.27,728.115 1017.65,515.311 1273.37,373.806"/>
<polygon fill="#1874cd" fill-opacity="0.298039" shape-rendering="crispEdges" points="991.217,514.945 916.27,728.115 1017.65,515.311"/>
<polygon fill="#8b864e" fill-opacity="0.298039" shape-rendering="crispEdges" points="907.46,611.565 1018.76,552.421 999.091,660.879"/>
<polygon fill="#cd661d" fill-opacity="0.298039" shape-rendering="crispEdges" points="1086.84,629.159 919.891,698.804 728.342,807.119"/>
<polygon fill="#1874cd" fill-opacity="0.298039" shape-rendering="crispEdges" points="916.27,728.115 1273.37,373.806 1327.61,798.627"/>
<polygon fill="#cd661d" fill-opacity="0.298039" shape-rendering="crispEdges" points="1086.84,629.159 896.933,582.547 1103.46,586.932"/>
<polygon fill="#4daf4a" fill-opacity="0.298039" shape-rendering="crispEdges" points="883.138,400.374 898.43,286.129 1007.46,247.408"/>
<polygon fill="#1874cd" fill-opacity="0.298039" shape-rendering="crispEdges" points="1234.8,438.393 1273.37,373.806 1327.61,798.627"/>
<polygon fill="#4daf4a" fill-opacity="0.298039" shape-rendering="crispEdges" points="958.597,562.684 903.714,538.44 1007.46,247.408"/>
<polygon fill="#cd661d" fill-opacity="0.298039" shape-rendering="crispEdges" points="896.933,582.547 1000.23,616.568 728.342,807.119"/>
<polygon fill="#1874cd" fill-opacity="0.298039" shape-rendering="crispEdges" points="1017.65,515.311 1273.37,373.806 885.583,463.927"/>
<polygon fill="#cd661d" fill-opacity="0.298039" shape-rendering="crispEdges" points="896.933,582.547 973.971,570.529 1103.46,586.932"/>
<polygon fill="#e41a1c" fill-opacity="0.298039" shape-rendering="crispEdges" points="1175.75,543.108 1184.96,658.692 1016.5,598.481"/>
<polygon fill="#cd661d" fill-opacity="0.298039" shape-rendering="crispEdges" points="1086.84,629.159 919.891,698.804 1063.09,621.412"/>
<polygon fill="#1874cd" fill-opacity="0.298039" shape-rendering="crispEdges" points="991.217,514.945 1017.65,515.311 885.583,463.927"/>
<polygon fill="#1874cd" fill-opacity="0.298039" shape-rendering="crispEdges" points="991.217,514.945 916.27,728.115 885.583,463.927"/>
<polygon fill="#cd661d" fill-opacity="0.298039" shape-rendering="crispEdges" points="1086.84,629.159 1063.09,621.412 1103.46,586.932"/>
<polygon fill="#cd661d" fill-opacity="0.298039" shape-rendering="crispEdges" points="919.891,698.804 1000.23,616.568 728.342,807.119"/>
<polygon fill="#1874cd" fill-opacity="0.298039" shape-rendering="crispEdges" points="1234.8,438.393 1273.37,373.806 885.583,463.927"/>
<polygon fill="#1874cd" fill-opacity="0.298039" shape-rendering="crispEdges" points="916.27,728.115 885.583,463.927 1327.61,798.627"/>
<polygon fill="#1874cd" fill-opacity="0.298039" shape-rendering="crispEdges" points="1202.86,684.639 1234.8,438.393 1327.61,798.627"/>
<polygon fill="#cd661d" fill-opacity="0.298039" shape-rendering="crispEdges" points="896.933,582.547 1000.23,616.568 973.971,570.529"/>
<polygon fill="#4daf4a" fill-opacity="0.298039" shape-rendering="crispEdges" points="883.138,400.374 958.597,562.684 903.714,538.44"/>
<polygon fill="#4daf4a" fill-opacity="0.298039" shape-rendering="crispEdges" points="898.43,286.129 903.714,538.44 1007.46,247.408"/>
<polygon fill="#cd661d" fill-opacity="0.298039" shape-rendering="crispEdges" points="1000.23,616.568 973.971,570.529 1103.46,586.932"/>
<polygon fill="#cd661d" fill-opacity="0.298039" shape-rendering="crispEdges" points="919.891,698.804 1063.09,621.412 1000.23,616.568"/>
<polygon fill="#1874cd" fill-opacity="0.298039" shape-rendering="crispEdges" points="1202.86,684.639 1234.8,438.393 885.583,463.927"/>
<polygon fill="#cd661d" fill-opacity="0.298039" shape-rendering="crispEdges" points="1063.09,621.412 1000.23,616.568 1103.46,586.932"/>
<polygon fill="#1874cd" fill-opacity="0.298039" shape-rendering="crispEdges" points="1202.86,684.639 885.583,463.927 1327.61,798.627"/>
<polygon fill="#4daf4a" fill-opacity="0.298039" shape-rendering="crispEdges" points="883.138,400.374 898.43,286.129 903.714,538.44"/>
</g>
</svg>
