<?xml version="1.0" encoding="UTF-8" standalone="no"?>
<svg xmlns="http://www.w3.org/2000/svg"
     xmlns:xlink="http://www.w3.org/1999/xlink"
     width="2048pt" height="1081pt" viewBox="0 0 2048 1081">
<title>D:/3D_GM/Projects/UW105/Results/Taxonomic_assessment/UW105-750_and_1007/3D_PCA_clean_updated_as_UP3s.svg</title>
<desc>
Creator: GL2PS 1.4.2, (C) 1999-2020 C. Geuzaine
For: Generated by rgl
CreationDate: Thu Jan 29 15:06:08 2026
</desc>
<defs>
</defs>
<g>
<polygon fill="#ffffff" shape-rendering="crispEdges" points="0,1081 2048,1081 2048,0"/>
<polygon fill="#ffffff" shape-rendering="crispEdges" points="0,1081 2048,0 0,0"/>
<polyline fill="none" stroke="#000000" stroke-width="1" stroke-linecap="butt" stroke-linejoin="miter" points="1003.58,776.879 567.339,834.377"/>
<polyline fill="none" stroke="#000000" stroke-width="1" stroke-linecap="butt" stroke-linejoin="miter" points="567.339,834.377 592.186,214.603"/>
<polyline fill="none" stroke="#000000" stroke-width="1" stroke-linecap="butt" stroke-linejoin="miter" points="592.186,214.603 1028.43,157.105"/>
<polyline fill="none" stroke="#000000" stroke-width="1" stroke-linecap="butt" stroke-linejoin="miter" points="1028.43,157.105 1003.58,776.879"/>
<polyline fill="none" stroke="#000000" stroke-width="1" stroke-linecap="butt" stroke-linejoin="miter" points="1003.58,776.879 1028.43,157.105"/>
<polyline fill="none" stroke="#000000" stroke-width="1" stroke-linecap="butt" stroke-linejoin="miter" points="1028.43,157.105 1480.66,246.623"/>
<polyline fill="none" stroke="#000000" stroke-width="1" stroke-linecap="butt" stroke-linejoin="miter" points="1480.66,246.623 1455.81,866.397"/>
<polyline fill="none" stroke="#000000" stroke-width="1" stroke-linecap="butt" stroke-linejoin="miter" points="1455.81,866.397 1003.58,776.879"/>
<polyline fill="none" stroke="#000000" stroke-width="1" stroke-linecap="butt" stroke-linejoin="miter" points="1455.81,866.397 1019.57,923.895 567.339,834.377 1003.58,776.879 1455.81,866.397"/>
<polyline fill="none" stroke="#000000" stroke-width="1" stroke-linecap="butt" stroke-linejoin="miter" points="1424.35,870.544 1454.5,876.512"/>
<text fill="#000000" x="1482.51" y="888.48" font-size="12" text-anchor="start" dy="0" font-family="Helvetica">-0.1</text>
<polyline fill="none" stroke="#000000" stroke-width="1" stroke-linecap="butt" stroke-linejoin="miter" points="1335.34,882.276 1365.49,888.244"/>
<text fill="#000000" x="1392.79" y="900.211" font-size="12" text-anchor="start" dy="0" font-family="Helvetica">-0.05</text>
<polyline fill="none" stroke="#000000" stroke-width="1" stroke-linecap="butt" stroke-linejoin="miter" points="1246.33,894.007 1276.48,899.975"/>
<text fill="#000000" x="1305.92" y="911.943" font-size="12" text-anchor="start" dy="0" font-family="Helvetica">0</text>
<polyline fill="none" stroke="#000000" stroke-width="1" stroke-linecap="butt" stroke-linejoin="miter" points="1157.32,905.739 1187.47,911.707"/>
<text fill="#000000" x="1215.17" y="923.674" font-size="12" text-anchor="start" dy="0" font-family="Helvetica">0.05</text>
<polyline fill="none" stroke="#000000" stroke-width="1" stroke-linecap="butt" stroke-linejoin="miter" points="1068.32,917.47 1098.46,923.438"/>
<text fill="#000000" x="1126.87" y="935.406" font-size="12" text-anchor="start" dy="0" font-family="Helvetica">0.1</text>
<polyline fill="none" stroke="#000000" stroke-width="1" stroke-linecap="butt" stroke-linejoin="miter" points="571.27,736.326 542.187,740.159"/>
<text fill="#000000" x="486.202" y="749.993" font-size="12" text-anchor="start" dy="0" font-family="Helvetica">-0.05</text>
<polyline fill="none" stroke="#000000" stroke-width="1" stroke-linecap="butt" stroke-linejoin="miter" points="579.855,522.179 550.772,526.012"/>
<text fill="#000000" x="514.963" y="535.845" font-size="12" text-anchor="start" dy="0" font-family="Helvetica">0</text>
<polyline fill="none" stroke="#000000" stroke-width="1" stroke-linecap="butt" stroke-linejoin="miter" points="588.44,308.032 559.357,311.865"/>
<text fill="#000000" x="507.109" y="321.698" font-size="12" text-anchor="start" dy="0" font-family="Helvetica">0.05</text>
<polyline fill="none" stroke="#000000" stroke-width="1" stroke-linecap="butt" stroke-linejoin="miter" points="947.105,909.55 918.022,913.384"/>
<text fill="#000000" x="862.037" y="923.217" font-size="12" text-anchor="start" dy="0" font-family="Helvetica">-0.04</text>
<polyline fill="none" stroke="#000000" stroke-width="1" stroke-linecap="butt" stroke-linejoin="miter" points="873.547,894.99 844.464,898.823"/>
<text fill="#000000" x="788.479" y="908.656" font-size="12" text-anchor="start" dy="0" font-family="Helvetica">-0.02</text>
<polyline fill="none" stroke="#000000" stroke-width="1" stroke-linecap="butt" stroke-linejoin="miter" points="799.989,880.43 770.906,884.263"/>
<text fill="#000000" x="735.097" y="894.096" font-size="12" text-anchor="start" dy="0" font-family="Helvetica">0</text>
<polyline fill="none" stroke="#000000" stroke-width="1" stroke-linecap="butt" stroke-linejoin="miter" points="726.431,865.869 697.348,869.702"/>
<text fill="#000000" x="645.099" y="879.536" font-size="12" text-anchor="start" dy="0" font-family="Helvetica">0.02</text>
<polyline fill="none" stroke="#000000" stroke-width="1" stroke-linecap="butt" stroke-linejoin="miter" points="652.873,851.309 623.79,855.142"/>
<text fill="#000000" x="571.541" y="864.975" font-size="12" text-anchor="start" dy="0" font-family="Helvetica">0.04</text>
<polyline fill="none" stroke="#000000" stroke-width="1" stroke-linecap="butt" stroke-linejoin="miter" points="579.314,836.748 550.231,840.582"/>
<text fill="#000000" x="497.983" y="850.415" font-size="12" text-anchor="start" dy="0" font-family="Helvetica">0.06</text>
<polyline fill="none" stroke="#000000" stroke-width="1" stroke-linecap="butt" stroke-linejoin="miter" points="1455.81,866.397 1455.81,866.397"/>
<polyline fill="none" stroke="#000000" stroke-width="1" stroke-linecap="butt" stroke-linejoin="miter" points="592.186,214.603 592.186,214.603"/>
<polyline fill="none" stroke="#000000" stroke-width="1" stroke-linecap="butt" stroke-linejoin="miter" points="1101.46,816.758 1074.21,835.559"/>
<circle fill="#e41a1c" cx="1117.23" cy="365.747" r="5"/>
<circle fill="#e41a1c" cx="1148.4" cy="565.153" r="5"/>
<circle fill="#e41a1c" cx="1031.82" cy="577.004" r="5"/>
<circle fill="#4daf4a" cx="1009.63" cy="443.09" r="5"/>
<circle fill="#4daf4a" cx="1069.73" cy="334.477" r="5"/>
<circle fill="#4daf4a" cx="1047.33" cy="282.675" r="5"/>
<circle fill="#e41a1c" cx="1158.25" cy="404.943" r="5"/>
<circle fill="#cd661d" cx="1001.75" cy="254.413" r="5"/>
<circle fill="#8b2323" cx="1025.79" cy="466.07" r="5"/>
<circle fill="#cd661d" cx="953.619" cy="287.204" r="5"/>
<circle fill="#4daf4a" cx="952.354" cy="636.62" r="5"/>
<circle fill="#4daf4a" cx="1082.82" cy="371.518" r="5"/>
<circle fill="#4daf4a" cx="981.146" cy="444.221" r="5"/>
<circle fill="#1874cd" cx="798.226" cy="658.749" r="5"/>
<circle fill="#1874cd" cx="827.255" cy="688.363" r="5"/>
<circle fill="#1874cd" cx="810.655" cy="802.075" r="5"/>
<circle fill="#1874cd" cx="989.805" cy="710.23" r="5"/>
<circle fill="#cd661d" cx="981.537" cy="529.736" r="5"/>
<circle fill="#cd661d" cx="984.166" cy="616.556" r="5"/>
<circle fill="#cd661d" cx="1049.12" cy="340.792" r="5"/>
<circle fill="#cd661d" cx="855.483" cy="400.314" r="5"/>
<circle fill="#cd661d" cx="841.305" cy="432.168" r="5"/>
<circle fill="#8b864e" cx="1325.04" cy="562.151" r="5"/>
<circle fill="#8b864e" cx="1154.97" cy="711.091" r="5"/>
<circle fill="#8b864e" cx="1245.93" cy="607.438" r="5"/>
<circle fill="#8b864e" cx="1331.11" cy="628.223" r="5"/>
<circle fill="#8b864e" cx="1332.91" cy="650.19" r="5"/>
<circle fill="#1874cd" cx="894.865" cy="726.771" r="5"/>
<circle fill="#000000" cx="1101.46" cy="816.758" r="5"/>
<circle fill="#000000" cx="1074.21" cy="835.559" r="5"/>
<text fill="#000000" x="1320.23" y="966.335" font-size="12" text-anchor="start" dy="0" font-family="Helvetica">PC1 (34.8%)</text>
<text fill="#000000" x="402.082" y="539.855" font-size="12" text-anchor="start" dy="0" font-family="Helvetica">PC2 (18%)</text>
<text fill="#000000" x="639.067" y="941.788" font-size="12" text-anchor="start" dy="0" font-family="Helvetica">PC3 (10.7%)</text>
<polygon fill="#4daf4a" fill-opacity="0.298039" shape-rendering="crispEdges" points="1047.33,282.675 952.354,636.62 1082.82,371.518"/>
<polygon fill="#4daf4a" fill-opacity="0.298039" shape-rendering="crispEdges" points="1069.73,334.477 1047.33,282.675 1082.82,371.518"/>
<polygon fill="#4daf4a" fill-opacity="0.298039" shape-rendering="crispEdges" points="1009.63,443.09 952.354,636.62 1082.82,371.518"/>
<polygon fill="#4daf4a" fill-opacity="0.298039" shape-rendering="crispEdges" points="1069.73,334.477 1009.63,443.09 1082.82,371.518"/>
<polygon fill="#4daf4a" fill-opacity="0.298039" shape-rendering="crispEdges" points="1047.33,282.675 952.354,636.62 981.146,444.221"/>
<polygon fill="#1874cd" fill-opacity="0.298039" shape-rendering="crispEdges" points="894.865,726.771 810.655,802.075 827.255,688.363"/>
<polygon fill="#1874cd" fill-opacity="0.298039" shape-rendering="crispEdges" points="798.226,658.749 810.655,802.075 827.255,688.363"/>
<polygon fill="#4daf4a" fill-opacity="0.298039" shape-rendering="crispEdges" points="1069.73,334.477 1009.63,443.09 1047.33,282.675"/>
<polygon fill="#1874cd" fill-opacity="0.298039" shape-rendering="crispEdges" points="894.865,726.771 989.805,710.23 827.255,688.363"/>
<polygon fill="#1874cd" fill-opacity="0.298039" shape-rendering="crispEdges" points="989.805,710.23 798.226,658.749 827.255,688.363"/>
<polygon fill="#4daf4a" fill-opacity="0.298039" shape-rendering="crispEdges" points="1009.63,443.09 952.354,636.62 981.146,444.221"/>
<polygon fill="#8b864e" fill-opacity="0.298039" shape-rendering="crispEdges" points="1331.11,628.223 1154.97,711.091 1325.04,562.151"/>
<polygon fill="#cd661d" fill-opacity="0.298039" shape-rendering="crispEdges" points="984.166,616.556 1001.75,254.413 841.305,432.168"/>
<polygon fill="#4daf4a" fill-opacity="0.298039" shape-rendering="crispEdges" points="1009.63,443.09 1047.33,282.675 981.146,444.221"/>
<polygon fill="#8b864e" fill-opacity="0.298039" shape-rendering="crispEdges" points="1154.97,711.091 1245.93,607.438 1325.04,562.151"/>
<polygon fill="#cd661d" fill-opacity="0.298039" shape-rendering="crispEdges" points="953.619,287.204 1001.75,254.413 841.305,432.168"/>
<polygon fill="#1874cd" fill-opacity="0.298039" shape-rendering="crispEdges" points="894.865,726.771 989.805,710.23 810.655,802.075"/>
<polygon fill="#1874cd" fill-opacity="0.298039" shape-rendering="crispEdges" points="989.805,710.23 798.226,658.749 810.655,802.075"/>
<polygon fill="#cd661d" fill-opacity="0.298039" shape-rendering="crispEdges" points="984.166,616.556 855.483,400.314 841.305,432.168"/>
<polygon fill="#8b864e" fill-opacity="0.298039" shape-rendering="crispEdges" points="1331.11,628.223 1332.91,650.19 1325.04,562.151"/>
<polygon fill="#cd661d" fill-opacity="0.298039" shape-rendering="crispEdges" points="953.619,287.204 855.483,400.314 841.305,432.168"/>
<polygon fill="#8b864e" fill-opacity="0.298039" shape-rendering="crispEdges" points="1331.11,628.223 1332.91,650.19 1154.97,711.091"/>
<polygon fill="#e41a1c" fill-opacity="0.298039" shape-rendering="crispEdges" points="1158.25,404.943 1117.23,365.747 1148.4,565.153"/>
<polygon fill="#8b864e" fill-opacity="0.298039" shape-rendering="crispEdges" points="1332.91,650.19 1245.93,607.438 1325.04,562.151"/>
<polygon fill="#8b864e" fill-opacity="0.298039" shape-rendering="crispEdges" points="1332.91,650.19 1154.97,711.091 1245.93,607.438"/>
<polygon fill="#e41a1c" fill-opacity="0.298039" shape-rendering="crispEdges" points="1117.23,365.747 1031.82,577.004 1148.4,565.153"/>
<polygon fill="#cd661d" fill-opacity="0.298039" shape-rendering="crispEdges" points="1049.12,340.792 984.166,616.556 1001.75,254.413"/>
<polygon fill="#cd661d" fill-opacity="0.298039" shape-rendering="crispEdges" points="953.619,287.204 1049.12,340.792 1001.75,254.413"/>
<polygon fill="#cd661d" fill-opacity="0.298039" shape-rendering="crispEdges" points="981.537,529.736 984.166,616.556 855.483,400.314"/>
<polygon fill="#e41a1c" fill-opacity="0.298039" shape-rendering="crispEdges" points="1158.25,404.943 1031.82,577.004 1148.4,565.153"/>
<polygon fill="#cd661d" fill-opacity="0.298039" shape-rendering="crispEdges" points="953.619,287.204 1049.12,340.792 855.483,400.314"/>
<polygon fill="#cd661d" fill-opacity="0.298039" shape-rendering="crispEdges" points="981.537,529.736 1049.12,340.792 984.166,616.556"/>
<polygon fill="#cd661d" fill-opacity="0.298039" shape-rendering="crispEdges" points="981.537,529.736 1049.12,340.792 855.483,400.314"/>
<polygon fill="#e41a1c" fill-opacity="0.298039" shape-rendering="crispEdges" points="1158.25,404.943 1117.23,365.747 1031.82,577.004"/>
</g>
</svg>
