<?xml version="1.0" encoding="UTF-8" standalone="no"?>
<svg xmlns="http://www.w3.org/2000/svg"
     xmlns:xlink="http://www.w3.org/1999/xlink"
     width="2048pt" height="1081pt" viewBox="0 0 2048 1081">
<title>D:/3D_GM/Projects/UW105/Results/Taxonomic_assessment/UW105-750_and_1007/Shape_PCA_UP4s_clean.svg</title>
<desc>
Creator: GL2PS 1.4.2, (C) 1999-2020 C. Geuzaine
For: Generated by rgl
CreationDate: Mon Jan 26 15:08:26 2026
</desc>
<defs>
</defs>
<g>
<polygon fill="#ffffff" shape-rendering="crispEdges" points="0,1081 2048,1081 2048,0"/>
<polygon fill="#ffffff" shape-rendering="crispEdges" points="0,1081 2048,0 0,0"/>
<polyline fill="none" stroke="#000000" stroke-width="1" stroke-linecap="butt" stroke-linejoin="miter" points="749.633,368.684 1346.46,414.698"/>
<polyline fill="none" stroke="#000000" stroke-width="1" stroke-linecap="butt" stroke-linejoin="miter" points="1346.46,414.698 1296.72,958.644"/>
<polyline fill="none" stroke="#1a1a1a" stroke-width="1" stroke-linecap="butt" stroke-linejoin="miter" points="1296.72,958.644 699.894,912.63"/>
<polyline fill="none" stroke="#131313" stroke-width="1" stroke-linecap="butt" stroke-linejoin="miter" points="699.894,912.63 749.633,368.684"/>
<polyline fill="none" stroke="#000000" stroke-width="1" stroke-linecap="butt" stroke-linejoin="miter" points="749.633,368.684 699.894,912.63 701.545,666.302 751.284,122.356 749.633,368.684"/>
<polyline fill="none" stroke="#000000" stroke-width="1" stroke-linecap="butt" stroke-linejoin="miter" points="751.284,122.356 1348.11,168.37"/>
<polyline fill="none" stroke="#000000" stroke-width="1" stroke-linecap="butt" stroke-linejoin="miter" points="1348.11,168.37 1346.46,414.698"/>
<polyline fill="none" stroke="#000000" stroke-width="1" stroke-linecap="butt" stroke-linejoin="miter" points="1346.46,414.698 749.633,368.684"/>
<polyline fill="none" stroke="#000000" stroke-width="1" stroke-linecap="butt" stroke-linejoin="miter" points="749.633,368.684 751.284,122.356"/>
<polyline fill="none" stroke="#000000" stroke-width="1" stroke-linecap="butt" stroke-linejoin="miter" points="841.681,129.326 841.791,112.904"/>
<text fill="#000000" x="831.101" y="102.482" font-size="12" text-anchor="start" dy="0" font-family="Helvetica">-0.1</text>
<polyline fill="none" stroke="#000000" stroke-width="1" stroke-linecap="butt" stroke-linejoin="miter" points="953.463,137.944 953.573,121.522"/>
<text fill="#000000" x="939.283" y="111.1" font-size="12" text-anchor="start" dy="0" font-family="Helvetica">-0.05</text>
<polyline fill="none" stroke="#000000" stroke-width="1" stroke-linecap="butt" stroke-linejoin="miter" points="1065.25,146.562 1065.36,130.14"/>
<text fill="#000000" x="1061.87" y="119.718" font-size="12" text-anchor="start" dy="0" font-family="Helvetica">0</text>
<polyline fill="none" stroke="#000000" stroke-width="1" stroke-linecap="butt" stroke-linejoin="miter" points="1177.03,155.18 1177.14,138.758"/>
<text fill="#000000" x="1164.85" y="128.336" font-size="12" text-anchor="start" dy="0" font-family="Helvetica">0.05</text>
<polyline fill="none" stroke="#000000" stroke-width="1" stroke-linecap="butt" stroke-linejoin="miter" points="1288.81,163.798 1288.92,147.376"/>
<text fill="#000000" x="1280.23" y="136.955" font-size="12" text-anchor="start" dy="0" font-family="Helvetica">0.1</text>
<polyline fill="none" stroke="#000000" stroke-width="1" stroke-linecap="butt" stroke-linejoin="miter" points="749.208,145.065 749.317,128.643"/>
<text fill="#000000" x="735.028" y="118.221" font-size="12" text-anchor="start" dy="0" font-family="Helvetica">-0.06</text>
<polyline fill="none" stroke="#000000" stroke-width="1" stroke-linecap="butt" stroke-linejoin="miter" points="741.405,230.39 741.515,213.968"/>
<text fill="#000000" x="727.226" y="203.546" font-size="12" text-anchor="start" dy="0" font-family="Helvetica">-0.04</text>
<polyline fill="none" stroke="#000000" stroke-width="1" stroke-linecap="butt" stroke-linejoin="miter" points="733.603,315.714 733.713,299.292"/>
<text fill="#000000" x="719.423" y="288.871" font-size="12" text-anchor="start" dy="0" font-family="Helvetica">-0.02</text>
<polyline fill="none" stroke="#000000" stroke-width="1" stroke-linecap="butt" stroke-linejoin="miter" points="725.801,401.039 725.911,384.617"/>
<text fill="#000000" x="722.421" y="374.195" font-size="12" text-anchor="start" dy="0" font-family="Helvetica">0</text>
<polyline fill="none" stroke="#000000" stroke-width="1" stroke-linecap="butt" stroke-linejoin="miter" points="717.999,486.364 718.109,469.942"/>
<text fill="#000000" x="705.819" y="459.52" font-size="12" text-anchor="start" dy="0" font-family="Helvetica">0.02</text>
<polyline fill="none" stroke="#000000" stroke-width="1" stroke-linecap="butt" stroke-linejoin="miter" points="710.196,571.688 710.307,555.267"/>
<text fill="#000000" x="698.017" y="544.845" font-size="12" text-anchor="start" dy="0" font-family="Helvetica">0.04</text>
<polyline fill="none" stroke="#000000" stroke-width="1" stroke-linecap="butt" stroke-linejoin="miter" points="702.395,657.013 702.504,640.591"/>
<text fill="#000000" x="690.214" y="630.169" font-size="12" text-anchor="start" dy="0" font-family="Helvetica">0.06</text>
<polyline fill="none" stroke="#000000" stroke-width="1" stroke-linecap="butt" stroke-linejoin="miter" points="1347.96,190.146 1387.75,193.214"/>
<text fill="#000000" x="1426.43" y="202.282" font-size="12" text-anchor="start" dy="0" font-family="Helvetica">-0.04</text>
<polyline fill="none" stroke="#000000" stroke-width="1" stroke-linecap="butt" stroke-linejoin="miter" points="1347.7,229.598 1387.48,232.666"/>
<text fill="#000000" x="1426.16" y="241.733" font-size="12" text-anchor="start" dy="0" font-family="Helvetica">-0.02</text>
<polyline fill="none" stroke="#000000" stroke-width="1" stroke-linecap="butt" stroke-linejoin="miter" points="1347.43,269.05 1387.22,272.118"/>
<text fill="#000000" x="1426.73" y="281.185" font-size="12" text-anchor="start" dy="0" font-family="Helvetica">0</text>
<polyline fill="none" stroke="#000000" stroke-width="1" stroke-linecap="butt" stroke-linejoin="miter" points="1347.17,308.502 1386.96,311.569"/>
<text fill="#000000" x="1425.79" y="320.637" font-size="12" text-anchor="start" dy="0" font-family="Helvetica">0.02</text>
<polyline fill="none" stroke="#000000" stroke-width="1" stroke-linecap="butt" stroke-linejoin="miter" points="1346.9,347.954 1386.69,351.021"/>
<text fill="#000000" x="1425.52" y="360.089" font-size="12" text-anchor="start" dy="0" font-family="Helvetica">0.04</text>
<polyline fill="none" stroke="#000000" stroke-width="1" stroke-linecap="butt" stroke-linejoin="miter" points="1346.64,387.405 1386.43,390.473"/>
<text fill="#000000" x="1425.26" y="399.541" font-size="12" text-anchor="start" dy="0" font-family="Helvetica">0.06</text>
<polyline fill="none" stroke="#000000" stroke-width="1" stroke-linecap="butt" stroke-linejoin="miter" points="751.284,122.356 751.284,122.356"/>
<polyline fill="none" stroke="#000000" stroke-width="1" stroke-linecap="butt" stroke-linejoin="miter" points="1296.72,958.644 1296.72,958.644"/>
<polyline fill="none" stroke="#000000" stroke-width="1" stroke-linecap="butt" stroke-linejoin="miter" points="1068.09,656.432 1060.62,629.832"/>
<circle fill="#e41a1c" cx="957.221" cy="427.611" r="5"/>
<circle fill="#e41a1c" cx="999.566" cy="376.164" r="5"/>
<circle fill="#e41a1c" cx="1050.7" cy="370.042" r="5"/>
<circle fill="#e41a1c" cx="1065.4" cy="435.912" r="5"/>
<circle fill="#e41a1c" cx="1059.12" cy="354.509" r="5"/>
<circle fill="#e41a1c" cx="759.951" cy="557.911" r="5"/>
<circle fill="#4daf4a" cx="1013.5" cy="401.379" r="5"/>
<circle fill="#1874cd" cx="949.496" cy="677.981" r="5"/>
<circle fill="#1874cd" cx="832.372" cy="668.342" r="5"/>
<circle fill="#1874cd" cx="895.376" cy="693.536" r="5"/>
<circle fill="#1874cd" cx="1003.58" cy="821.547" r="5"/>
<circle fill="#4daf4a" cx="1180.83" cy="397.046" r="5"/>
<circle fill="#4daf4a" cx="983.708" cy="332.617" r="5"/>
<circle fill="#4daf4a" cx="1040.71" cy="403.386" r="5"/>
<circle fill="#cd661d" cx="956.432" cy="513.864" r="5"/>
<circle fill="#4daf4a" cx="1122.4" cy="293.452" r="5"/>
<circle fill="#4daf4a" cx="1287.96" cy="242.67" r="5"/>
<circle fill="#4daf4a" cx="1106.27" cy="310.859" r="5"/>
<circle fill="#4daf4a" cx="1025.51" cy="298.632" r="5"/>
<circle fill="#1874cd" cx="972.247" cy="747.174" r="5"/>
<circle fill="#1874cd" cx="978.36" cy="802.468" r="5"/>
<circle fill="#cd661d" cx="942.373" cy="534.154" r="5"/>
<circle fill="#cd661d" cx="1047.99" cy="382.497" r="5"/>
<circle fill="#cd661d" cx="1005.1" cy="593.348" r="5"/>
<circle fill="#cd661d" cx="868.059" cy="445.63" r="5"/>
<circle fill="#cd661d" cx="1054.58" cy="422.031" r="5"/>
<circle fill="#8b864e" cx="1282.59" cy="745.274" r="5"/>
<circle fill="#8b864e" cx="1164.68" cy="714.417" r="5"/>
<circle fill="#8b864e" cx="1159.98" cy="553.977" r="5"/>
<circle fill="#8b864e" cx="1189.35" cy="782.287" r="5"/>
<circle fill="#8b864e" cx="1205.77" cy="768.537" r="5"/>
<circle fill="#000000" cx="1068.09" cy="656.432" r="5"/>
<circle fill="#000000" cx="1060.62" cy="629.832" r="5"/>
<text fill="#000000" x="1017.05" y="49.4126" font-size="12" text-anchor="start" dy="0" font-family="Helvetica">PC1 (33.4%)</text>
<text fill="#000000" x="650.667" y="331.574" font-size="12" text-anchor="start" dy="0" font-family="Helvetica">PC2 (17.3%)</text>
<text fill="#000000" x="1473.35" y="273.542" font-size="12" text-anchor="start" dy="0" font-family="Helvetica">PC3 (12.6%)</text>
<polygon fill="#e41a1c" fill-opacity="0.298039" shape-rendering="crispEdges" points="1050.7,370.042 1065.4,435.912 759.951,557.911"/>
<polygon fill="#e41a1c" fill-opacity="0.298039" shape-rendering="crispEdges" points="1059.12,354.509 1050.7,370.042 759.951,557.911"/>
<polygon fill="#e41a1c" fill-opacity="0.298039" shape-rendering="crispEdges" points="1059.12,354.509 1050.7,370.042 1065.4,435.912"/>
<polygon fill="#e41a1c" fill-opacity="0.298039" shape-rendering="crispEdges" points="1059.12,354.509 999.566,376.164 759.951,557.911"/>
<polygon fill="#e41a1c" fill-opacity="0.298039" shape-rendering="crispEdges" points="957.221,427.611 1065.4,435.912 759.951,557.911"/>
<polygon fill="#e41a1c" fill-opacity="0.298039" shape-rendering="crispEdges" points="1059.12,354.509 999.566,376.164 1065.4,435.912"/>
<polygon fill="#8b864e" fill-opacity="0.298039" shape-rendering="crispEdges" points="1189.35,782.287 1205.77,768.537 1282.59,745.274"/>
<polygon fill="#8b864e" fill-opacity="0.298039" shape-rendering="crispEdges" points="1189.35,782.287 1164.68,714.417 1205.77,768.537"/>
<polygon fill="#cd661d" fill-opacity="0.298039" shape-rendering="crispEdges" points="1047.99,382.497 956.432,513.864 868.059,445.63"/>
<polygon fill="#8b864e" fill-opacity="0.298039" shape-rendering="crispEdges" points="1189.35,782.287 1164.68,714.417 1282.59,745.274"/>
<polygon fill="#e41a1c" fill-opacity="0.298039" shape-rendering="crispEdges" points="999.566,376.164 957.221,427.611 759.951,557.911"/>
<polygon fill="#4daf4a" fill-opacity="0.298039" shape-rendering="crispEdges" points="1025.51,298.632 1106.27,310.859 983.708,332.617"/>
<polygon fill="#4daf4a" fill-opacity="0.298039" shape-rendering="crispEdges" points="1106.27,310.859 1180.83,397.046 983.708,332.617"/>
<polygon fill="#8b864e" fill-opacity="0.298039" shape-rendering="crispEdges" points="1205.77,768.537 1282.59,745.274 1159.98,553.977"/>
<polygon fill="#e41a1c" fill-opacity="0.298039" shape-rendering="crispEdges" points="999.566,376.164 957.221,427.611 1065.4,435.912"/>
<polygon fill="#4daf4a" fill-opacity="0.298039" shape-rendering="crispEdges" points="1180.83,397.046 1013.5,401.379 983.708,332.617"/>
<polygon fill="#8b864e" fill-opacity="0.298039" shape-rendering="crispEdges" points="1164.68,714.417 1205.77,768.537 1159.98,553.977"/>
<polygon fill="#cd661d" fill-opacity="0.298039" shape-rendering="crispEdges" points="1047.99,382.497 956.432,513.864 1005.1,593.348"/>
<polygon fill="#cd661d" fill-opacity="0.298039" shape-rendering="crispEdges" points="942.373,534.154 956.432,513.864 868.059,445.63"/>
<polygon fill="#4daf4a" fill-opacity="0.298039" shape-rendering="crispEdges" points="1025.51,298.632 1106.27,310.859 1287.96,242.67"/>
<polygon fill="#4daf4a" fill-opacity="0.298039" shape-rendering="crispEdges" points="1025.51,298.632 1040.71,403.386 983.708,332.617"/>
<polygon fill="#4daf4a" fill-opacity="0.298039" shape-rendering="crispEdges" points="1106.27,310.859 1180.83,397.046 1287.96,242.67"/>
<polygon fill="#1874cd" fill-opacity="0.298039" shape-rendering="crispEdges" points="972.247,747.174 978.36,802.468 1003.58,821.547"/>
<polygon fill="#1874cd" fill-opacity="0.298039" shape-rendering="crispEdges" points="978.36,802.468 1003.58,821.547 832.372,668.342"/>
<polygon fill="#4daf4a" fill-opacity="0.298039" shape-rendering="crispEdges" points="1013.5,401.379 1040.71,403.386 983.708,332.617"/>
<polygon fill="#cd661d" fill-opacity="0.298039" shape-rendering="crispEdges" points="1047.99,382.497 1054.58,422.031 868.059,445.63"/>
<polygon fill="#1874cd" fill-opacity="0.298039" shape-rendering="crispEdges" points="972.247,747.174 949.496,677.981 1003.58,821.547"/>
<polygon fill="#1874cd" fill-opacity="0.298039" shape-rendering="crispEdges" points="949.496,677.981 1003.58,821.547 832.372,668.342"/>
<polygon fill="#8b864e" fill-opacity="0.298039" shape-rendering="crispEdges" points="1164.68,714.417 1282.59,745.274 1159.98,553.977"/>
<polygon fill="#4daf4a" fill-opacity="0.298039" shape-rendering="crispEdges" points="1025.51,298.632 1122.4,293.452 1287.96,242.67"/>
<polygon fill="#4daf4a" fill-opacity="0.298039" shape-rendering="crispEdges" points="1180.83,397.046 1013.5,401.379 1040.71,403.386"/>
<polygon fill="#4daf4a" fill-opacity="0.298039" shape-rendering="crispEdges" points="1025.51,298.632 1122.4,293.452 1040.71,403.386"/>
<polygon fill="#4daf4a" fill-opacity="0.298039" shape-rendering="crispEdges" points="1180.83,397.046 1040.71,403.386 1287.96,242.67"/>
<polygon fill="#4daf4a" fill-opacity="0.298039" shape-rendering="crispEdges" points="1122.4,293.452 1040.71,403.386 1287.96,242.67"/>
<polygon fill="#cd661d" fill-opacity="0.298039" shape-rendering="crispEdges" points="942.373,534.154 956.432,513.864 1005.1,593.348"/>
<polygon fill="#1874cd" fill-opacity="0.298039" shape-rendering="crispEdges" points="972.247,747.174 978.36,802.468 895.376,693.536"/>
<polygon fill="#1874cd" fill-opacity="0.298039" shape-rendering="crispEdges" points="978.36,802.468 895.376,693.536 832.372,668.342"/>
<polygon fill="#cd661d" fill-opacity="0.298039" shape-rendering="crispEdges" points="1047.99,382.497 1005.1,593.348 1054.58,422.031"/>
<polygon fill="#cd661d" fill-opacity="0.298039" shape-rendering="crispEdges" points="942.373,534.154 1054.58,422.031 868.059,445.63"/>
<polygon fill="#1874cd" fill-opacity="0.298039" shape-rendering="crispEdges" points="972.247,747.174 949.496,677.981 895.376,693.536"/>
<polygon fill="#1874cd" fill-opacity="0.298039" shape-rendering="crispEdges" points="949.496,677.981 895.376,693.536 832.372,668.342"/>
<polygon fill="#cd661d" fill-opacity="0.298039" shape-rendering="crispEdges" points="942.373,534.154 1005.1,593.348 1054.58,422.031"/>
</g>
</svg>
