<?xml version="1.0" encoding="UTF-8" standalone="no"?>
<svg xmlns="http://www.w3.org/2000/svg"
     xmlns:xlink="http://www.w3.org/1999/xlink"
     width="1920pt" height="1129pt" viewBox="0 0 1920 1129">
<title>D:/3D_GM/Projects/UW105/Results/Tooth_type_classifications/UW105_966/UW105_966_shape_PCA_clean.svg</title>
<desc>
Creator: GL2PS 1.4.2, (C) 1999-2020 C. Geuzaine
For: Generated by rgl
CreationDate: Fri Jan 23 15:18:36 2026
</desc>
<defs>
</defs>
<g>
<polygon fill="#ffffff" shape-rendering="crispEdges" points="0,1129 1920,1129 1920,0"/>
<polygon fill="#ffffff" shape-rendering="crispEdges" points="0,1129 1920,0 0,0"/>
<polyline fill="none" stroke="#8a8a8a" stroke-width="1" stroke-linecap="butt" stroke-linejoin="miter" points="613.123,871.19 695.458,220.683"/>
<polyline fill="none" stroke="#575757" stroke-width="1" stroke-linecap="butt" stroke-linejoin="miter" points="695.458,220.683 1345.88,300.471"/>
<polyline fill="none" stroke="#959595" stroke-width="1" stroke-linecap="butt" stroke-linejoin="miter" points="1345.88,300.471 1263.54,950.979"/>
<polyline fill="none" stroke="#eeeeee" stroke-width="1" stroke-linecap="butt" stroke-linejoin="miter" points="1263.54,950.979 613.123,871.19"/>
<polyline fill="none" stroke="#000000" stroke-width="1" stroke-linecap="butt" stroke-linejoin="miter" points="574.122,828.529 656.457,178.021 695.458,220.683 613.123,871.19 574.122,828.529"/>
<polyline fill="none" stroke="#000000" stroke-width="1" stroke-linecap="butt" stroke-linejoin="miter" points="656.457,178.021 1306.88,257.81 1345.88,300.471 695.458,220.683 656.457,178.021"/>
<polyline fill="none" stroke="#000000" stroke-width="1" stroke-linecap="butt" stroke-linejoin="miter" points="694.144,182.644 691.543,179.8"/>
<text fill="#000000" x="678.144" y="182.956" font-size="12" text-anchor="start" dy="0" font-family="Helvetica">-0.2</text>
<polyline fill="none" stroke="#000000" stroke-width="1" stroke-linecap="butt" stroke-linejoin="miter" points="825.101,198.709 822.5,195.865"/>
<text fill="#000000" x="809.101" y="199.021" font-size="12" text-anchor="start" dy="0" font-family="Helvetica">-0.1</text>
<polyline fill="none" stroke="#000000" stroke-width="1" stroke-linecap="butt" stroke-linejoin="miter" points="956.057,214.774 953.457,211.93"/>
<text fill="#000000" x="947.257" y="215.085" font-size="12" text-anchor="start" dy="0" font-family="Helvetica">0</text>
<polyline fill="none" stroke="#000000" stroke-width="1" stroke-linecap="butt" stroke-linejoin="miter" points="1087.01,230.838 1084.41,227.994"/>
<text fill="#000000" x="1073.01" y="231.15" font-size="12" text-anchor="start" dy="0" font-family="Helvetica">0.1</text>
<polyline fill="none" stroke="#000000" stroke-width="1" stroke-linecap="butt" stroke-linejoin="miter" points="1217.97,246.903 1215.37,244.059"/>
<text fill="#000000" x="1203.97" y="247.215" font-size="12" text-anchor="start" dy="0" font-family="Helvetica">0.2</text>
<polyline fill="none" stroke="#000000" stroke-width="1" stroke-linecap="butt" stroke-linejoin="miter" points="586.171,733.329 583.571,730.485"/>
<text fill="#000000" x="570.171" y="733.641" font-size="12" text-anchor="start" dy="0" font-family="Helvetica">-0.1</text>
<polyline fill="none" stroke="#000000" stroke-width="1" stroke-linecap="butt" stroke-linejoin="miter" points="607.279,566.559 604.679,563.715"/>
<text fill="#000000" x="598.479" y="566.871" font-size="12" text-anchor="start" dy="0" font-family="Helvetica">0</text>
<polyline fill="none" stroke="#000000" stroke-width="1" stroke-linecap="butt" stroke-linejoin="miter" points="628.388,399.789 625.788,396.945"/>
<text fill="#000000" x="614.388" y="400.101" font-size="12" text-anchor="start" dy="0" font-family="Helvetica">0.1</text>
<polyline fill="none" stroke="#000000" stroke-width="1" stroke-linecap="butt" stroke-linejoin="miter" points="649.496,233.019 646.896,230.174"/>
<text fill="#000000" x="635.496" y="233.331" font-size="12" text-anchor="start" dy="0" font-family="Helvetica">0.2</text>
<polyline fill="none" stroke="#000000" stroke-width="1" stroke-linecap="butt" stroke-linejoin="miter" points="1343.19,297.528 1386.55,302.847"/>
<text fill="#000000" x="1428.59" y="314.166" font-size="12" text-anchor="start" dy="0" font-family="Helvetica">-0.1</text>
<polyline fill="none" stroke="#000000" stroke-width="1" stroke-linecap="butt" stroke-linejoin="miter" points="1335.5,289.113 1378.86,294.432"/>
<text fill="#000000" x="1420.45" y="305.751" font-size="12" text-anchor="start" dy="0" font-family="Helvetica">-0.05</text>
<polyline fill="none" stroke="#000000" stroke-width="1" stroke-linecap="butt" stroke-linejoin="miter" points="1327.8,280.699 1371.16,286.018"/>
<text fill="#000000" x="1414.08" y="297.337" font-size="12" text-anchor="start" dy="0" font-family="Helvetica">0</text>
<polyline fill="none" stroke="#000000" stroke-width="1" stroke-linecap="butt" stroke-linejoin="miter" points="1320.11,272.284 1363.47,277.604"/>
<text fill="#000000" x="1405.31" y="288.922" font-size="12" text-anchor="start" dy="0" font-family="Helvetica">0.05</text>
<polyline fill="none" stroke="#000000" stroke-width="1" stroke-linecap="butt" stroke-linejoin="miter" points="1312.42,263.87 1355.78,269.189"/>
<text fill="#000000" x="1398.06" y="280.508" font-size="12" text-anchor="start" dy="0" font-family="Helvetica">0.1</text>
<polyline fill="none" stroke="#000000" stroke-width="1" stroke-linecap="butt" stroke-linejoin="miter" points="613.123,871.19 613.123,871.19"/>
<polyline fill="none" stroke="#000000" stroke-width="1" stroke-linecap="butt" stroke-linejoin="miter" points="1306.88,257.81 1306.88,257.81"/>
<circle fill="#4daf4a" cx="663.08" cy="586.896" r="5"/>
<circle fill="#4daf4a" cx="671.392" cy="607.624" r="5"/>
<circle fill="#4daf4a" cx="719.496" cy="576.641" r="5"/>
<circle fill="#4daf4a" cx="771.014" cy="667.572" r="5"/>
<circle fill="#4daf4a" cx="646.427" cy="635.992" r="5"/>
<circle fill="#4daf4a" cx="748.88" cy="619.502" r="5"/>
<circle fill="#4daf4a" cx="805.47" cy="533.619" r="5"/>
<circle fill="#4daf4a" cx="738.339" cy="649.255" r="5"/>
<circle fill="#4daf4a" cx="844.682" cy="614.145" r="5"/>
<circle fill="#4daf4a" cx="815.371" cy="609.17" r="5"/>
<circle fill="#4daf4a" cx="714.151" cy="675.943" r="5"/>
<circle fill="#4daf4a" cx="795.139" cy="578.016" r="5"/>
<circle fill="#4daf4a" cx="835.063" cy="614.888" r="5"/>
<circle fill="#4daf4a" cx="761.088" cy="677.599" r="5"/>
<circle fill="#4daf4a" cx="686.625" cy="691.602" r="5"/>
<circle fill="#4daf4a" cx="747.744" cy="656.625" r="5"/>
<circle fill="#4daf4a" cx="807.515" cy="579.181" r="5"/>
<circle fill="#4daf4a" cx="841.402" cy="626.101" r="5"/>
<circle fill="#4daf4a" cx="808.477" cy="649.905" r="5"/>
<circle fill="#4daf4a" cx="846.991" cy="590.015" r="5"/>
<circle fill="#4daf4a" cx="778.769" cy="601.625" r="5"/>
<circle fill="#4daf4a" cx="935.338" cy="596.334" r="5"/>
<circle fill="#4daf4a" cx="926.718" cy="556.381" r="5"/>
<circle fill="#4daf4a" cx="904.428" cy="540.776" r="5"/>
<circle fill="#4daf4a" cx="877.669" cy="611.545" r="5"/>
<circle fill="#e41a1c" cx="1104.56" cy="731.418" r="5"/>
<circle fill="#e41a1c" cx="1167.08" cy="771.556" r="5"/>
<circle fill="#e41a1c" cx="895.584" cy="855.972" r="5"/>
<circle fill="#e41a1c" cx="956.764" cy="864.367" r="5"/>
<circle fill="#e41a1c" cx="707.992" cy="815.925" r="5"/>
<circle fill="#e41a1c" cx="1058.3" cy="660.3" r="5"/>
<circle fill="#e41a1c" cx="1123.99" cy="666.738" r="5"/>
<circle fill="#e41a1c" cx="1223.15" cy="691.627" r="5"/>
<circle fill="#e41a1c" cx="1049.44" cy="782.53" r="5"/>
<circle fill="#e41a1c" cx="906.467" cy="728.88" r="5"/>
<circle fill="#e41a1c" cx="1085.14" cy="852.203" r="5"/>
<circle fill="#e41a1c" cx="1007.41" cy="847.699" r="5"/>
<circle fill="#e41a1c" cx="1101.32" cy="771.056" r="5"/>
<circle fill="#e41a1c" cx="1067.49" cy="718.482" r="5"/>
<circle fill="#e41a1c" cx="1251.59" cy="710.111" r="5"/>
<circle fill="#e41a1c" cx="1078.4" cy="747.755" r="5"/>
<circle fill="#e41a1c" cx="1136.98" cy="742.539" r="5"/>
<circle fill="#e41a1c" cx="1164.84" cy="763.526" r="5"/>
<circle fill="#1874cd" cx="970.37" cy="760.967" r="5"/>
<circle fill="#1874cd" cx="1047.32" cy="859.608" r="5"/>
<circle fill="#1874cd" cx="838.539" cy="806.668" r="5"/>
<circle fill="#ffa500" cx="959.208" cy="533.196" r="5"/>
<circle fill="#1874cd" cx="1132.09" cy="728.765" r="5"/>
<circle fill="#1874cd" cx="991.971" cy="762.421" r="5"/>
<circle fill="#1874cd" cx="933.474" cy="638.503" r="5"/>
<circle fill="#1874cd" cx="1134.83" cy="627.37" r="5"/>
<circle fill="#1874cd" cx="842.288" cy="770.998" r="5"/>
<circle fill="#1874cd" cx="860.846" cy="827.258" r="5"/>
<circle fill="#1874cd" cx="952.334" cy="713.432" r="5"/>
<circle fill="#1874cd" cx="1019.98" cy="791.261" r="5"/>
<circle fill="#1874cd" cx="983.068" cy="798.067" r="5"/>
<circle fill="#1874cd" cx="1078.58" cy="741.601" r="5"/>
<circle fill="#1874cd" cx="1032.18" cy="733.198" r="5"/>
<circle fill="#1874cd" cx="1111.92" cy="707.482" r="5"/>
<circle fill="#1874cd" cx="1100.7" cy="742.301" r="5"/>
<circle fill="#000000" cx="674.87" cy="731.282" r="5"/>
<circle fill="#984ea3" cx="754.833" cy="596.619" r="5"/>
<circle fill="#984ea3" cx="785.09" cy="719.378" r="5"/>
<circle fill="#984ea3" cx="779.671" cy="628.757" r="5"/>
<circle fill="#984ea3" cx="743.519" cy="639.283" r="5"/>
<circle fill="#984ea3" cx="713.64" cy="630.373" r="5"/>
<circle fill="#984ea3" cx="731.877" cy="592.396" r="5"/>
<circle fill="#984ea3" cx="850.924" cy="563.488" r="5"/>
<circle fill="#984ea3" cx="832.33" cy="679.092" r="5"/>
<circle fill="#984ea3" cx="775.431" cy="501.176" r="5"/>
<circle fill="#984ea3" cx="795.289" cy="572.865" r="5"/>
<circle fill="#984ea3" cx="829.781" cy="550.855" r="5"/>
<circle fill="#984ea3" cx="796.602" cy="637.103" r="5"/>
<circle fill="#984ea3" cx="758.786" cy="644.312" r="5"/>
<circle fill="#984ea3" cx="836.003" cy="561.238" r="5"/>
<circle fill="#984ea3" cx="733.046" cy="646.58" r="5"/>
<circle fill="#984ea3" cx="717.297" cy="653.167" r="5"/>
<circle fill="#984ea3" cx="813.85" cy="641.509" r="5"/>
<circle fill="#984ea3" cx="721.632" cy="676.742" r="5"/>
<circle fill="#984ea3" cx="723.312" cy="584.363" r="5"/>
<circle fill="#984ea3" cx="772.799" cy="616.012" r="5"/>
<circle fill="#984ea3" cx="798.393" cy="590.2" r="5"/>
<circle fill="#984ea3" cx="943.419" cy="553.664" r="5"/>
<circle fill="#984ea3" cx="669.867" cy="596.586" r="5"/>
<circle fill="#984ea3" cx="1088.6" cy="642.157" r="5"/>
<circle fill="#984ea3" cx="1050.75" cy="574.132" r="5"/>
<circle fill="#984ea3" cx="1084.28" cy="617.436" r="5"/>
<circle fill="#984ea3" cx="1031.47" cy="587.479" r="5"/>
<circle fill="#984ea3" cx="1108.46" cy="622.582" r="5"/>
<circle fill="#ffa500" cx="900.758" cy="400.037" r="5"/>
<circle fill="#ffa500" cx="889.307" cy="455.219" r="5"/>
<circle fill="#ffa500" cx="885.467" cy="447.656" r="5"/>
<circle fill="#ffa500" cx="957.289" cy="480.151" r="5"/>
<circle fill="#ffa500" cx="852.725" cy="370.172" r="5"/>
<circle fill="#ffa500" cx="1057.73" cy="340.077" r="5"/>
<circle fill="#ffa500" cx="917.207" cy="259.453" r="5"/>
<circle fill="#ffa500" cx="1063.61" cy="513.235" r="5"/>
<circle fill="#ffa500" cx="980.442" cy="344.958" r="5"/>
<circle fill="#ffa500" cx="912.806" cy="389.152" r="5"/>
<circle fill="#ffa500" cx="961.565" cy="500.666" r="5"/>
<circle fill="#ffa500" cx="943.769" cy="428.642" r="5"/>
<circle fill="#ffa500" cx="935.209" cy="503.497" r="5"/>
<circle fill="#ffa500" cx="968.302" cy="447.954" r="5"/>
<circle fill="#ffa500" cx="1020.44" cy="373.037" r="5"/>
<circle fill="#ffa500" cx="1004.52" cy="504.306" r="5"/>
<circle fill="#ffa500" cx="974.644" cy="514.1" r="5"/>
<circle fill="#ffa500" cx="1076.39" cy="404.29" r="5"/>
<circle fill="#ffa500" cx="1024.1" cy="492.015" r="5"/>
<circle fill="#ffa500" cx="984.159" cy="283.299" r="5"/>
<circle fill="#ffa500" cx="1233.07" cy="407.122" r="5"/>
<circle fill="#ffa500" cx="1004.92" cy="350.618" r="5"/>
<circle fill="#ffa500" cx="1079.74" cy="497.086" r="5"/>
<circle fill="#ffa500" cx="1144.64" cy="493.215" r="5"/>
<circle fill="#ffa500" cx="1108.02" cy="410.965" r="5"/>
<circle fill="#ffa500" cx="1099.14" cy="506.411" r="5"/>
<circle fill="#ffa500" cx="988.222" cy="390.08" r="5"/>
<circle fill="#53868b" cx="1007.12" cy="687.757" r="5"/>
<circle fill="#53868b" cx="995.171" cy="811.378" r="5"/>
<circle fill="#53868b" cx="933.022" cy="685.059" r="5"/>
<circle fill="#53868b" cx="852.783" cy="586.15" r="5"/>
<circle fill="#53868b" cx="928.408" cy="781.195" r="5"/>
<circle fill="#53868b" cx="883.685" cy="751.325" r="5"/>
<circle fill="#53868b" cx="903.664" cy="562.942" r="5"/>
<circle fill="#53868b" cx="886.944" cy="696.702" r="5"/>
<circle fill="#53868b" cx="872.146" cy="712.498" r="5"/>
<circle fill="#53868b" cx="1006.69" cy="695.605" r="5"/>
<circle fill="#53868b" cx="923.335" cy="695.769" r="5"/>
<circle fill="#53868b" cx="891.994" cy="604.699" r="5"/>
<circle fill="#53868b" cx="1040.49" cy="672.307" r="5"/>
<circle fill="#53868b" cx="1228.02" cy="570.772" r="5"/>
<circle fill="#53868b" cx="977.674" cy="831.487" r="5"/>
<circle fill="#53868b" cx="958.756" cy="679.567" r="5"/>
<circle fill="#53868b" cx="923.609" cy="780.556" r="5"/>
<circle fill="#53868b" cx="1177.06" cy="681.791" r="5"/>
<circle fill="#53868b" cx="956.391" cy="662.033" r="5"/>
<circle fill="#53868b" cx="975.78" cy="740.464" r="5"/>
<circle fill="#53868b" cx="1002.99" cy="742.604" r="5"/>
<circle fill="#53868b" cx="982.693" cy="715.003" r="5"/>
<circle fill="#53868b" cx="1004.99" cy="723.233" r="5"/>
<text fill="#000000" x="940.356" y="169.171" font-size="12" text-anchor="start" dy="0" font-family="Helvetica">PC1 (49.4%)</text>
<text fill="#000000" x="525.128" y="492.579" font-size="12" text-anchor="start" dy="0" font-family="Helvetica">PC2 (24.6%)</text>
<text fill="#000000" x="1472.51" y="263.05" font-size="12" text-anchor="start" dy="0" font-family="Helvetica">PC3 (9.2%)</text>
<polygon fill="#4daf4a" fill-opacity="0.298039" shape-rendering="crispEdges" points="926.718,556.381 904.428,540.776 935.338,596.334"/>
<polygon fill="#4daf4a" fill-opacity="0.298039" shape-rendering="crispEdges" points="738.339,649.255 904.428,540.776 935.338,596.334"/>
<polygon fill="#4daf4a" fill-opacity="0.298039" shape-rendering="crispEdges" points="761.088,677.599 738.339,649.255 935.338,596.334"/>
<polygon fill="#4daf4a" fill-opacity="0.298039" shape-rendering="crispEdges" points="719.496,576.641 738.339,649.255 904.428,540.776"/>
<polygon fill="#4daf4a" fill-opacity="0.298039" shape-rendering="crispEdges" points="841.402,626.101 926.718,556.381 935.338,596.334"/>
<polygon fill="#4daf4a" fill-opacity="0.298039" shape-rendering="crispEdges" points="714.151,675.943 761.088,677.599 738.339,649.255"/>
<polygon fill="#4daf4a" fill-opacity="0.298039" shape-rendering="crispEdges" points="805.47,533.619 926.718,556.381 904.428,540.776"/>
<polygon fill="#1874cd" fill-opacity="0.298039" shape-rendering="crispEdges" points="933.474,638.503 860.846,827.258 1134.83,627.37"/>
<polygon fill="#984ea3" fill-opacity="0.298039" shape-rendering="crispEdges" points="1084.28,617.436 850.924,563.488 813.85,641.509"/>
<polygon fill="#4daf4a" fill-opacity="0.298039" shape-rendering="crispEdges" points="714.151,675.943 719.496,576.641 738.339,649.255"/>
<polygon fill="#4daf4a" fill-opacity="0.298039" shape-rendering="crispEdges" points="771.014,667.572 761.088,677.599 935.338,596.334"/>
<polygon fill="#e41a1c" fill-opacity="0.298039" shape-rendering="crispEdges" points="1104.56,731.418 1058.3,660.3 1251.59,710.111"/>
<polygon fill="#4daf4a" fill-opacity="0.298039" shape-rendering="crispEdges" points="719.496,576.641 805.47,533.619 904.428,540.776"/>
<polygon fill="#984ea3" fill-opacity="0.298039" shape-rendering="crispEdges" points="723.312,584.363 850.924,563.488 813.85,641.509"/>
<polygon fill="#984ea3" fill-opacity="0.298039" shape-rendering="crispEdges" points="1084.28,617.436 1088.6,642.157 813.85,641.509"/>
<polygon fill="#4daf4a" fill-opacity="0.298039" shape-rendering="crispEdges" points="714.151,675.943 761.088,677.599 686.625,691.602"/>
<polygon fill="#1874cd" fill-opacity="0.298039" shape-rendering="crispEdges" points="933.474,638.503 1111.92,707.482 1134.83,627.37"/>
<polygon fill="#984ea3" fill-opacity="0.298039" shape-rendering="crispEdges" points="1031.47,587.479 1084.28,617.436 850.924,563.488"/>
<polygon fill="#e41a1c" fill-opacity="0.298039" shape-rendering="crispEdges" points="1123.99,666.738 1058.3,660.3 1251.59,710.111"/>
<polygon fill="#e41a1c" fill-opacity="0.298039" shape-rendering="crispEdges" points="1104.56,731.418 1007.41,847.699 1251.59,710.111"/>
<polygon fill="#1874cd" fill-opacity="0.298039" shape-rendering="crispEdges" points="1111.92,707.482 1134.83,627.37 1132.09,728.765"/>
<polygon fill="#1874cd" fill-opacity="0.298039" shape-rendering="crispEdges" points="1134.83,627.37 1047.32,859.608 1132.09,728.765"/>
<polygon fill="#ffa500" fill-opacity="0.298039" shape-rendering="crispEdges" points="957.289,480.151 935.209,503.497 959.208,533.196"/>
<polygon fill="#1874cd" fill-opacity="0.298039" shape-rendering="crispEdges" points="860.846,827.258 1134.83,627.37 1047.32,859.608"/>
<polygon fill="#4daf4a" fill-opacity="0.298039" shape-rendering="crispEdges" points="841.402,626.101 808.477,649.905 935.338,596.334"/>
<polygon fill="#984ea3" fill-opacity="0.298039" shape-rendering="crispEdges" points="731.877,592.396 717.297,653.167 813.85,641.509"/>
<polygon fill="#984ea3" fill-opacity="0.298039" shape-rendering="crispEdges" points="731.877,592.396 723.312,584.363 813.85,641.509"/>
<polygon fill="#4daf4a" fill-opacity="0.298039" shape-rendering="crispEdges" points="771.014,667.572 808.477,649.905 935.338,596.334"/>
<polygon fill="#ffa500" fill-opacity="0.298039" shape-rendering="crispEdges" points="957.289,480.151 959.208,533.196 1233.07,407.122"/>
<polygon fill="#984ea3" fill-opacity="0.298039" shape-rendering="crispEdges" points="1031.47,587.479 1050.75,574.132 850.924,563.488"/>
<polygon fill="#e41a1c" fill-opacity="0.298039" shape-rendering="crispEdges" points="1123.99,666.738 1223.15,691.627 1251.59,710.111"/>
<polygon fill="#53868b" fill-opacity="0.298039" shape-rendering="crispEdges" points="958.756,679.567 1177.06,681.791 956.391,662.033"/>
<polygon fill="#e41a1c" fill-opacity="0.298039" shape-rendering="crispEdges" points="1104.56,731.418 1058.3,660.3 707.992,815.925"/>
<polygon fill="#53868b" fill-opacity="0.298039" shape-rendering="crispEdges" points="1177.06,681.791 903.664,562.942 956.391,662.033"/>
<polygon fill="#4daf4a" fill-opacity="0.298039" shape-rendering="crispEdges" points="714.151,675.943 719.496,576.641 646.427,635.992"/>
<polygon fill="#984ea3" fill-opacity="0.298039" shape-rendering="crispEdges" points="1084.28,617.436 1088.6,642.157 1108.46,622.582"/>
<polygon fill="#4daf4a" fill-opacity="0.298039" shape-rendering="crispEdges" points="771.014,667.572 761.088,677.599 686.625,691.602"/>
<polygon fill="#984ea3" fill-opacity="0.298039" shape-rendering="crispEdges" points="1031.47,587.479 1050.75,574.132 1084.28,617.436"/>
<polygon fill="#984ea3" fill-opacity="0.298039" shape-rendering="crispEdges" points="717.297,653.167 813.85,641.509 785.09,719.378"/>
<polygon fill="#984ea3" fill-opacity="0.298039" shape-rendering="crispEdges" points="1088.6,642.157 813.85,641.509 785.09,719.378"/>
<polygon fill="#1874cd" fill-opacity="0.298039" shape-rendering="crispEdges" points="933.474,638.503 860.846,827.258 842.288,770.998"/>
<polygon fill="#984ea3" fill-opacity="0.298039" shape-rendering="crispEdges" points="1050.75,574.132 1084.28,617.436 1108.46,622.582"/>
<polygon fill="#ffa500" fill-opacity="0.298039" shape-rendering="crispEdges" points="957.289,480.151 1057.73,340.077 1233.07,407.122"/>
<polygon fill="#53868b" fill-opacity="0.298039" shape-rendering="crispEdges" points="958.756,679.567 883.685,751.325 956.391,662.033"/>
<polygon fill="#e41a1c" fill-opacity="0.298039" shape-rendering="crispEdges" points="1123.99,666.738 906.467,728.88 1058.3,660.3"/>
<polygon fill="#53868b" fill-opacity="0.298039" shape-rendering="crispEdges" points="958.756,679.567 1177.06,681.791 883.685,751.325"/>
<polygon fill="#53868b" fill-opacity="0.298039" shape-rendering="crispEdges" points="1177.06,681.791 903.664,562.942 1228.02,570.772"/>
<polygon fill="#53868b" fill-opacity="0.298039" shape-rendering="crispEdges" points="883.685,751.325 903.664,562.942 956.391,662.033"/>
<polygon fill="#4daf4a" fill-opacity="0.298039" shape-rendering="crispEdges" points="714.151,675.943 686.625,691.602 646.427,635.992"/>
<polygon fill="#984ea3" fill-opacity="0.298039" shape-rendering="crispEdges" points="731.877,592.396 723.312,584.363 717.297,653.167"/>
<polygon fill="#e41a1c" fill-opacity="0.298039" shape-rendering="crispEdges" points="1104.56,731.418 1007.41,847.699 707.992,815.925"/>
<polygon fill="#e41a1c" fill-opacity="0.298039" shape-rendering="crispEdges" points="1085.14,852.203 1007.41,847.699 1251.59,710.111"/>
<polygon fill="#4daf4a" fill-opacity="0.298039" shape-rendering="crispEdges" points="719.496,576.641 805.47,533.619 663.08,586.896"/>
<polygon fill="#984ea3" fill-opacity="0.298039" shape-rendering="crispEdges" points="775.431,501.176 723.312,584.363 850.924,563.488"/>
<polygon fill="#ffa500" fill-opacity="0.298039" shape-rendering="crispEdges" points="885.467,447.656 935.209,503.497 959.208,533.196"/>
<polygon fill="#ffa500" fill-opacity="0.298039" shape-rendering="crispEdges" points="957.289,480.151 1057.73,340.077 917.207,259.453"/>
<polygon fill="#1874cd" fill-opacity="0.298039" shape-rendering="crispEdges" points="933.474,638.503 1111.92,707.482 842.288,770.998"/>
<polygon fill="#984ea3" fill-opacity="0.298039" shape-rendering="crispEdges" points="1050.75,574.132 775.431,501.176 850.924,563.488"/>
<polygon fill="#ffa500" fill-opacity="0.298039" shape-rendering="crispEdges" points="957.289,480.151 935.209,503.497 852.725,370.172"/>
<polygon fill="#4daf4a" fill-opacity="0.298039" shape-rendering="crispEdges" points="805.47,533.619 926.718,556.381 671.392,607.624"/>
<polygon fill="#53868b" fill-opacity="0.298039" shape-rendering="crispEdges" points="903.664,562.942 1228.02,570.772 852.783,586.15"/>
<polygon fill="#984ea3" fill-opacity="0.298039" shape-rendering="crispEdges" points="1088.6,642.157 785.09,719.378 1108.46,622.582"/>
<polygon fill="#984ea3" fill-opacity="0.298039" shape-rendering="crispEdges" points="723.312,584.363 717.297,653.167 669.867,596.586"/>
<polygon fill="#4daf4a" fill-opacity="0.298039" shape-rendering="crispEdges" points="719.496,576.641 663.08,586.896 646.427,635.992"/>
<polygon fill="#e41a1c" fill-opacity="0.298039" shape-rendering="crispEdges" points="906.467,728.88 1058.3,660.3 707.992,815.925"/>
<polygon fill="#4daf4a" fill-opacity="0.298039" shape-rendering="crispEdges" points="841.402,626.101 926.718,556.381 671.392,607.624"/>
<polygon fill="#53868b" fill-opacity="0.298039" shape-rendering="crispEdges" points="883.685,751.325 903.664,562.942 852.783,586.15"/>
<polygon fill="#1874cd" fill-opacity="0.298039" shape-rendering="crispEdges" points="1100.7,742.301 1111.92,707.482 1132.09,728.765"/>
<polygon fill="#1874cd" fill-opacity="0.298039" shape-rendering="crispEdges" points="1100.7,742.301 1047.32,859.608 1132.09,728.765"/>
<polygon fill="#e41a1c" fill-opacity="0.298039" shape-rendering="crispEdges" points="1085.14,852.203 1167.08,771.556 1251.59,710.111"/>
<polygon fill="#53868b" fill-opacity="0.298039" shape-rendering="crispEdges" points="1177.06,681.791 883.685,751.325 977.674,831.487"/>
<polygon fill="#1874cd" fill-opacity="0.298039" shape-rendering="crispEdges" points="838.539,806.668 860.846,827.258 1047.32,859.608"/>
<polygon fill="#1874cd" fill-opacity="0.298039" shape-rendering="crispEdges" points="838.539,806.668 860.846,827.258 842.288,770.998"/>
<polygon fill="#ffa500" fill-opacity="0.298039" shape-rendering="crispEdges" points="1144.64,493.215 959.208,533.196 1233.07,407.122"/>
<polygon fill="#e41a1c" fill-opacity="0.298039" shape-rendering="crispEdges" points="1223.15,691.627 1136.98,742.539 1251.59,710.111"/>
<polygon fill="#ffa500" fill-opacity="0.298039" shape-rendering="crispEdges" points="984.159,283.299 1057.73,340.077 1233.07,407.122"/>
<polygon fill="#53868b" fill-opacity="0.298039" shape-rendering="crispEdges" points="995.171,811.378 1177.06,681.791 1228.02,570.772"/>
<polygon fill="#984ea3" fill-opacity="0.298039" shape-rendering="crispEdges" points="721.632,676.742 717.297,653.167 785.09,719.378"/>
<polygon fill="#984ea3" fill-opacity="0.298039" shape-rendering="crispEdges" points="721.632,676.742 717.297,653.167 669.867,596.586"/>
<polygon fill="#e41a1c" fill-opacity="0.298039" shape-rendering="crispEdges" points="1123.99,666.738 1223.15,691.627 1136.98,742.539"/>
<polygon fill="#ffa500" fill-opacity="0.298039" shape-rendering="crispEdges" points="957.289,480.151 917.207,259.453 852.725,370.172"/>
<polygon fill="#e41a1c" fill-opacity="0.298039" shape-rendering="crispEdges" points="895.584,855.972 1007.41,847.699 707.992,815.925"/>
<polygon fill="#984ea3" fill-opacity="0.298039" shape-rendering="crispEdges" points="775.431,501.176 723.312,584.363 669.867,596.586"/>
<polygon fill="#e41a1c" fill-opacity="0.298039" shape-rendering="crispEdges" points="1085.14,852.203 1007.41,847.699 956.764,864.367"/>
<polygon fill="#1874cd" fill-opacity="0.298039" shape-rendering="crispEdges" points="838.539,806.668 1111.92,707.482 842.288,770.998"/>
<polygon fill="#53868b" fill-opacity="0.298039" shape-rendering="crispEdges" points="872.146,712.498 883.685,751.325 852.783,586.15"/>
<polygon fill="#53868b" fill-opacity="0.298039" shape-rendering="crispEdges" points="891.994,604.699 1228.02,570.772 852.783,586.15"/>
<polygon fill="#1874cd" fill-opacity="0.298039" shape-rendering="crispEdges" points="1100.7,742.301 838.539,806.668 1111.92,707.482"/>
<polygon fill="#1874cd" fill-opacity="0.298039" shape-rendering="crispEdges" points="1100.7,742.301 838.539,806.668 1047.32,859.608"/>
<polygon fill="#984ea3" fill-opacity="0.298039" shape-rendering="crispEdges" points="1050.75,574.132 779.671,628.757 1108.46,622.582"/>
<polygon fill="#e41a1c" fill-opacity="0.298039" shape-rendering="crispEdges" points="1167.08,771.556 1136.98,742.539 1251.59,710.111"/>
<polygon fill="#4daf4a" fill-opacity="0.298039" shape-rendering="crispEdges" points="841.402,626.101 808.477,649.905 671.392,607.624"/>
<polygon fill="#4daf4a" fill-opacity="0.298039" shape-rendering="crispEdges" points="771.014,667.572 686.625,691.602 671.392,607.624"/>
<polygon fill="#ffa500" fill-opacity="0.298039" shape-rendering="crispEdges" points="984.159,283.299 1057.73,340.077 917.207,259.453"/>
<polygon fill="#ffa500" fill-opacity="0.298039" shape-rendering="crispEdges" points="885.467,447.656 889.307,455.219 959.208,533.196"/>
<polygon fill="#ffa500" fill-opacity="0.298039" shape-rendering="crispEdges" points="1063.61,513.235 1144.64,493.215 959.208,533.196"/>
<polygon fill="#53868b" fill-opacity="0.298039" shape-rendering="crispEdges" points="995.171,811.378 1177.06,681.791 977.674,831.487"/>
<polygon fill="#ffa500" fill-opacity="0.298039" shape-rendering="crispEdges" points="885.467,447.656 935.209,503.497 852.725,370.172"/>
<polygon fill="#e41a1c" fill-opacity="0.298039" shape-rendering="crispEdges" points="1123.99,666.738 906.467,728.88 1136.98,742.539"/>
<polygon fill="#4daf4a" fill-opacity="0.298039" shape-rendering="crispEdges" points="805.47,533.619 663.08,586.896 671.392,607.624"/>
<polygon fill="#4daf4a" fill-opacity="0.298039" shape-rendering="crispEdges" points="771.014,667.572 808.477,649.905 671.392,607.624"/>
<polygon fill="#4daf4a" fill-opacity="0.298039" shape-rendering="crispEdges" points="686.625,691.602 671.392,607.624 646.427,635.992"/>
<polygon fill="#e41a1c" fill-opacity="0.298039" shape-rendering="crispEdges" points="895.584,855.972 1007.41,847.699 956.764,864.367"/>
<polygon fill="#984ea3" fill-opacity="0.298039" shape-rendering="crispEdges" points="779.671,628.757 785.09,719.378 1108.46,622.582"/>
<polygon fill="#53868b" fill-opacity="0.298039" shape-rendering="crispEdges" points="883.685,751.325 923.609,780.556 977.674,831.487"/>
<polygon fill="#4daf4a" fill-opacity="0.298039" shape-rendering="crispEdges" points="663.08,586.896 671.392,607.624 646.427,635.992"/>
<polygon fill="#984ea3" fill-opacity="0.298039" shape-rendering="crispEdges" points="1050.75,574.132 775.431,501.176 779.671,628.757"/>
<polygon fill="#53868b" fill-opacity="0.298039" shape-rendering="crispEdges" points="872.146,712.498 883.685,751.325 923.609,780.556"/>
<polygon fill="#e41a1c" fill-opacity="0.298039" shape-rendering="crispEdges" points="895.584,855.972 956.764,864.367 707.992,815.925"/>
<polygon fill="#e41a1c" fill-opacity="0.298039" shape-rendering="crispEdges" points="1085.14,852.203 1167.08,771.556 1136.98,742.539"/>
<polygon fill="#e41a1c" fill-opacity="0.298039" shape-rendering="crispEdges" points="906.467,728.88 1136.98,742.539 707.992,815.925"/>
<polygon fill="#53868b" fill-opacity="0.298039" shape-rendering="crispEdges" points="872.146,712.498 886.944,696.702 852.783,586.15"/>
<polygon fill="#ffa500" fill-opacity="0.298039" shape-rendering="crispEdges" points="1063.61,513.235 1099.14,506.411 959.208,533.196"/>
<polygon fill="#53868b" fill-opacity="0.298039" shape-rendering="crispEdges" points="886.944,696.702 891.994,604.699 852.783,586.15"/>
<polygon fill="#984ea3" fill-opacity="0.298039" shape-rendering="crispEdges" points="721.632,676.742 779.671,628.757 785.09,719.378"/>
<polygon fill="#984ea3" fill-opacity="0.298039" shape-rendering="crispEdges" points="721.632,676.742 779.671,628.757 669.867,596.586"/>
<polygon fill="#984ea3" fill-opacity="0.298039" shape-rendering="crispEdges" points="775.431,501.176 779.671,628.757 669.867,596.586"/>
<polygon fill="#53868b" fill-opacity="0.298039" shape-rendering="crispEdges" points="891.994,604.699 1004.99,723.233 1228.02,570.772"/>
<polygon fill="#ffa500" fill-opacity="0.298039" shape-rendering="crispEdges" points="889.307,455.219 1099.14,506.411 959.208,533.196"/>
<polygon fill="#e41a1c" fill-opacity="0.298039" shape-rendering="crispEdges" points="1085.14,852.203 1136.98,742.539 956.764,864.367"/>
<polygon fill="#e41a1c" fill-opacity="0.298039" shape-rendering="crispEdges" points="1136.98,742.539 956.764,864.367 707.992,815.925"/>
<polygon fill="#ffa500" fill-opacity="0.298039" shape-rendering="crispEdges" points="984.159,283.299 1099.14,506.411 1233.07,407.122"/>
<polygon fill="#ffa500" fill-opacity="0.298039" shape-rendering="crispEdges" points="912.806,389.152 917.207,259.453 852.725,370.172"/>
<polygon fill="#ffa500" fill-opacity="0.298039" shape-rendering="crispEdges" points="885.467,447.656 889.307,455.219 852.725,370.172"/>
<polygon fill="#53868b" fill-opacity="0.298039" shape-rendering="crispEdges" points="995.171,811.378 1004.99,723.233 1228.02,570.772"/>
<polygon fill="#53868b" fill-opacity="0.298039" shape-rendering="crispEdges" points="995.171,811.378 923.609,780.556 977.674,831.487"/>
<polygon fill="#ffa500" fill-opacity="0.298039" shape-rendering="crispEdges" points="1144.64,493.215 1099.14,506.411 1233.07,407.122"/>
<polygon fill="#53868b" fill-opacity="0.298039" shape-rendering="crispEdges" points="872.146,712.498 886.944,696.702 923.609,780.556"/>
<polygon fill="#ffa500" fill-opacity="0.298039" shape-rendering="crispEdges" points="984.159,283.299 917.207,259.453 1099.14,506.411"/>
<polygon fill="#53868b" fill-opacity="0.298039" shape-rendering="crispEdges" points="886.944,696.702 891.994,604.699 1004.99,723.233"/>
<polygon fill="#ffa500" fill-opacity="0.298039" shape-rendering="crispEdges" points="912.806,389.152 917.207,259.453 1099.14,506.411"/>
<polygon fill="#ffa500" fill-opacity="0.298039" shape-rendering="crispEdges" points="1063.61,513.235 1144.64,493.215 1099.14,506.411"/>
<polygon fill="#ffa500" fill-opacity="0.298039" shape-rendering="crispEdges" points="912.806,389.152 1099.14,506.411 852.725,370.172"/>
<polygon fill="#53868b" fill-opacity="0.298039" shape-rendering="crispEdges" points="975.78,740.464 995.171,811.378 923.609,780.556"/>
<polygon fill="#53868b" fill-opacity="0.298039" shape-rendering="crispEdges" points="975.78,740.464 886.944,696.702 923.609,780.556"/>
<polygon fill="#ffa500" fill-opacity="0.298039" shape-rendering="crispEdges" points="889.307,455.219 1099.14,506.411 852.725,370.172"/>
<polygon fill="#53868b" fill-opacity="0.298039" shape-rendering="crispEdges" points="975.78,740.464 995.171,811.378 1004.99,723.233"/>
<polygon fill="#53868b" fill-opacity="0.298039" shape-rendering="crispEdges" points="975.78,740.464 886.944,696.702 1004.99,723.233"/>
</g>
</svg>
