<?xml version="1.0" encoding="UTF-8" standalone="no"?>
<svg xmlns="http://www.w3.org/2000/svg"
     xmlns:xlink="http://www.w3.org/1999/xlink"
     width="2048pt" height="1081pt" viewBox="0 0 2048 1081">
<title>D:/3D_GM/Projects/UW105/Results/Taxonomic_assessment/UW105-676/3D_PCA_clean.svg</title>
<desc>
Creator: GL2PS 1.4.2, (C) 1999-2020 C. Geuzaine
For: Generated by rgl
CreationDate: Tue Jan 27 13:03:45 2026
</desc>
<defs>
</defs>
<g>
<polygon fill="#ffffff" shape-rendering="crispEdges" points="0,1081 2048,1081 2048,0"/>
<polygon fill="#ffffff" shape-rendering="crispEdges" points="0,1081 2048,0 0,0"/>
<polyline fill="none" stroke="#b0b0b0" stroke-width="1" stroke-linecap="butt" stroke-linejoin="miter" points="688.271,843.901 694.025,215.315"/>
<polyline fill="none" stroke="#dbdbdb" stroke-width="1" stroke-linecap="butt" stroke-linejoin="miter" points="694.025,215.315 1321.68,220.043"/>
<polyline fill="none" stroke="#868686" stroke-width="1" stroke-linecap="butt" stroke-linejoin="miter" points="1321.68,220.043 1315.93,848.629"/>
<polyline fill="none" stroke="#6c6c6c" stroke-width="1" stroke-linecap="butt" stroke-linejoin="miter" points="1315.93,848.629 688.271,843.901"/>
<polyline fill="none" stroke="#000000" stroke-width="1" stroke-linecap="butt" stroke-linejoin="miter" points="1353.98,865.685 1315.93,848.629 1321.68,220.043 1359.73,237.099 1353.98,865.685"/>
<polyline fill="none" stroke="#000000" stroke-width="1" stroke-linecap="butt" stroke-linejoin="miter" points="688.271,843.901 1315.93,848.629 1353.98,865.685 726.317,860.957 688.271,843.901"/>
<polyline fill="none" stroke="#000000" stroke-width="1" stroke-linecap="butt" stroke-linejoin="miter" points="878.772,862.105 881.309,863.242"/>
<text fill="#000000" x="877.39" y="870.379" font-size="12" text-anchor="start" dy="0" font-family="Helvetica">-0.05</text>
<polyline fill="none" stroke="#000000" stroke-width="1" stroke-linecap="butt" stroke-linejoin="miter" points="1050.66,863.4 1053.19,864.537"/>
<text fill="#000000" x="1054.12" y="871.674" font-size="12" text-anchor="start" dy="0" font-family="Helvetica">0</text>
<polyline fill="none" stroke="#000000" stroke-width="1" stroke-linecap="butt" stroke-linejoin="miter" points="1222.54,864.695 1225.08,865.832"/>
<text fill="#000000" x="1222.06" y="872.969" font-size="12" text-anchor="start" dy="0" font-family="Helvetica">0.05</text>
<polyline fill="none" stroke="#000000" stroke-width="1" stroke-linecap="butt" stroke-linejoin="miter" points="1354.48,810.12 1357.02,811.257"/>
<text fill="#000000" x="1354.71" y="818.394" font-size="12" text-anchor="start" dy="0" font-family="Helvetica">-0.1</text>
<polyline fill="none" stroke="#000000" stroke-width="1" stroke-linecap="butt" stroke-linejoin="miter" points="1355.8,665.977 1358.34,667.114"/>
<text fill="#000000" x="1354.42" y="674.251" font-size="12" text-anchor="start" dy="0" font-family="Helvetica">-0.05</text>
<polyline fill="none" stroke="#000000" stroke-width="1" stroke-linecap="butt" stroke-linejoin="miter" points="1357.12,521.834 1359.66,522.971"/>
<text fill="#000000" x="1360.58" y="530.108" font-size="12" text-anchor="start" dy="0" font-family="Helvetica">0</text>
<polyline fill="none" stroke="#000000" stroke-width="1" stroke-linecap="butt" stroke-linejoin="miter" points="1358.44,377.691 1360.98,378.828"/>
<text fill="#000000" x="1357.96" y="385.965" font-size="12" text-anchor="start" dy="0" font-family="Helvetica">0.05</text>
<polyline fill="none" stroke="#000000" stroke-width="1" stroke-linecap="butt" stroke-linejoin="miter" points="692.707,845.889 650.862,845.574"/>
<text fill="#000000" x="580.327" y="851.259" font-size="12" text-anchor="start" dy="0" font-family="Helvetica">-0.05</text>
<polyline fill="none" stroke="#000000" stroke-width="1" stroke-linecap="butt" stroke-linejoin="miter" points="703.763,850.846 661.918,850.53"/>
<text fill="#000000" x="612.902" y="856.215" font-size="12" text-anchor="start" dy="0" font-family="Helvetica">0</text>
<polyline fill="none" stroke="#000000" stroke-width="1" stroke-linecap="butt" stroke-linejoin="miter" points="714.818,855.802 672.975,855.487"/>
<text fill="#000000" x="606.424" y="861.172" font-size="12" text-anchor="start" dy="0" font-family="Helvetica">0.05</text>
<polyline fill="none" stroke="#000000" stroke-width="1" stroke-linecap="butt" stroke-linejoin="miter" points="725.875,860.758 684.031,860.443"/>
<text fill="#000000" x="624.653" y="866.128" font-size="12" text-anchor="start" dy="0" font-family="Helvetica">0.1</text>
<polyline fill="none" stroke="#000000" stroke-width="1" stroke-linecap="butt" stroke-linejoin="miter" points="688.271,843.901 688.271,843.901"/>
<polyline fill="none" stroke="#000000" stroke-width="1" stroke-linecap="butt" stroke-linejoin="miter" points="1359.73,237.099 1359.73,237.099"/>
<circle fill="#e41a1c" cx="786.499" cy="454.532" r="5"/>
<circle fill="#e41a1c" cx="907.235" cy="648.008" r="5"/>
<circle fill="#e41a1c" cx="927.972" cy="436.173" r="5"/>
<circle fill="#8b2323" cx="990.754" cy="524.279" r="5"/>
<circle fill="#1874cd" cx="1018.1" cy="343.668" r="5"/>
<circle fill="#4daf4a" cx="1027.92" cy="373.131" r="5"/>
<circle fill="#4daf4a" cx="1122.16" cy="553.912" r="5"/>
<circle fill="#4daf4a" cx="1045.17" cy="483.303" r="5"/>
<circle fill="#4daf4a" cx="1223.35" cy="646.559" r="5"/>
<circle fill="#4daf4a" cx="1097.86" cy="639.633" r="5"/>
<circle fill="#4daf4a" cx="1241.9" cy="823.083" r="5"/>
<circle fill="#1874cd" cx="796.869" cy="598.631" r="5"/>
<circle fill="#1874cd" cx="994.504" cy="536.425" r="5"/>
<circle fill="#1874cd" cx="1042.59" cy="560.099" r="5"/>
<circle fill="#1874cd" cx="1091.21" cy="454.748" r="5"/>
<circle fill="#1874cd" cx="751.566" cy="568.632" r="5"/>
<circle fill="#1874cd" cx="1043.26" cy="545.85" r="5"/>
<circle fill="#1874cd" cx="1089.74" cy="488.039" r="5"/>
<circle fill="#1874cd" cx="1000.02" cy="377.858" r="5"/>
<circle fill="#1874cd" cx="1037.31" cy="441.425" r="5"/>
<circle fill="#1874cd" cx="932.735" cy="691.542" r="5"/>
<circle fill="#1874cd" cx="981.501" cy="469.799" r="5"/>
<circle fill="#1874cd" cx="733.081" cy="325.135" r="5"/>
<circle fill="#1874cd" cx="1038.19" cy="514.664" r="5"/>
<circle fill="#cd661d" cx="1166.57" cy="408.489" r="5"/>
<circle fill="#cd661d" cx="1232.54" cy="437.726" r="5"/>
<circle fill="#cd661d" cx="1067.96" cy="555.667" r="5"/>
<circle fill="#cd661d" cx="1317.92" cy="256.502" r="5"/>
<circle fill="#cd661d" cx="1020.3" cy="493.325" r="5"/>
<circle fill="#cd661d" cx="968.072" cy="552.35" r="5"/>
<circle fill="#cd661d" cx="1133.48" cy="553.933" r="5"/>
<circle fill="#cd661d" cx="995.193" cy="490.793" r="5"/>
<circle fill="#cd661d" cx="885.91" cy="586.233" r="5"/>
<circle fill="#8b864e" cx="1181.51" cy="471.498" r="5"/>
<circle fill="#8b864e" cx="1045.14" cy="539.637" r="5"/>
<circle fill="#8b864e" cx="1010.84" cy="479.151" r="5"/>
<circle fill="#000000" cx="1209.34" cy="524.774" r="5"/>
<text fill="#000000" x="1013.51" y="915.775" font-size="12" text-anchor="start" dy="0" font-family="Helvetica">PC1 (15.4%)</text>
<text fill="#000000" x="1372.44" y="562.255" font-size="12" text-anchor="start" dy="0" font-family="Helvetica">PC2 (13.9%)</text>
<text fill="#000000" x="503.135" y="899.074" font-size="12" text-anchor="start" dy="0" font-family="Helvetica">PC3 (11.3%)</text>
<polygon fill="#1874cd" fill-opacity="0.298039" shape-rendering="crispEdges" points="1042.59,560.099 1000.02,377.858 1091.21,454.748"/>
<polygon fill="#8b864e" fill-opacity="0.298039" shape-rendering="crispEdges" points="1181.51,471.498 1045.14,539.637 1010.84,479.151"/>
<polygon fill="#1874cd" fill-opacity="0.298039" shape-rendering="crispEdges" points="1042.59,560.099 1000.02,377.858 751.566,568.632"/>
<polygon fill="#1874cd" fill-opacity="0.298039" shape-rendering="crispEdges" points="1042.59,560.099 1089.74,488.039 1091.21,454.748"/>
<polygon fill="#1874cd" fill-opacity="0.298039" shape-rendering="crispEdges" points="1000.02,377.858 751.566,568.632 733.081,325.135"/>
<polygon fill="#1874cd" fill-opacity="0.298039" shape-rendering="crispEdges" points="1000.02,377.858 1018.1,343.668 1091.21,454.748"/>
<polygon fill="#1874cd" fill-opacity="0.298039" shape-rendering="crispEdges" points="1042.59,560.099 1089.74,488.039 932.735,691.542"/>
<polygon fill="#1874cd" fill-opacity="0.298039" shape-rendering="crispEdges" points="1042.59,560.099 751.566,568.632 932.735,691.542"/>
<polygon fill="#4daf4a" fill-opacity="0.298039" shape-rendering="crispEdges" points="1097.86,639.633 1223.35,646.559 1241.9,823.083"/>
<polygon fill="#1874cd" fill-opacity="0.298039" shape-rendering="crispEdges" points="796.869,598.631 751.566,568.632 733.081,325.135"/>
<polygon fill="#1874cd" fill-opacity="0.298039" shape-rendering="crispEdges" points="1000.02,377.858 1018.1,343.668 733.081,325.135"/>
<polygon fill="#4daf4a" fill-opacity="0.298039" shape-rendering="crispEdges" points="1045.17,483.303 1223.35,646.559 1241.9,823.083"/>
<polygon fill="#4daf4a" fill-opacity="0.298039" shape-rendering="crispEdges" points="1097.86,639.633 1223.35,646.559 1027.92,373.131"/>
<polygon fill="#cd661d" fill-opacity="0.298039" shape-rendering="crispEdges" points="1133.48,553.933 1232.54,437.726 1020.3,493.325"/>
<polygon fill="#cd661d" fill-opacity="0.298039" shape-rendering="crispEdges" points="968.072,552.35 1133.48,553.933 1020.3,493.325"/>
<polygon fill="#4daf4a" fill-opacity="0.298039" shape-rendering="crispEdges" points="1045.17,483.303 1223.35,646.559 1027.92,373.131"/>
<polygon fill="#e41a1c" fill-opacity="0.298039" shape-rendering="crispEdges" points="786.499,454.532 907.235,648.008 927.972,436.173"/>
<polygon fill="#1874cd" fill-opacity="0.298039" shape-rendering="crispEdges" points="796.869,598.631 751.566,568.632 932.735,691.542"/>
<polygon fill="#cd661d" fill-opacity="0.298039" shape-rendering="crispEdges" points="1232.54,437.726 1020.3,493.325 1317.92,256.502"/>
<polygon fill="#4daf4a" fill-opacity="0.298039" shape-rendering="crispEdges" points="1097.86,639.633 1045.17,483.303 1241.9,823.083"/>
<polygon fill="#1874cd" fill-opacity="0.298039" shape-rendering="crispEdges" points="1089.74,488.039 1038.19,514.664 1091.21,454.748"/>
<polygon fill="#cd661d" fill-opacity="0.298039" shape-rendering="crispEdges" points="1133.48,553.933 1232.54,437.726 1317.92,256.502"/>
<polygon fill="#cd661d" fill-opacity="0.298039" shape-rendering="crispEdges" points="968.072,552.35 1020.3,493.325 885.91,586.233"/>
<polygon fill="#4daf4a" fill-opacity="0.298039" shape-rendering="crispEdges" points="1097.86,639.633 1045.17,483.303 1027.92,373.131"/>
<polygon fill="#cd661d" fill-opacity="0.298039" shape-rendering="crispEdges" points="995.193,490.793 1020.3,493.325 1317.92,256.502"/>
<polygon fill="#cd661d" fill-opacity="0.298039" shape-rendering="crispEdges" points="968.072,552.35 1133.48,553.933 885.91,586.233"/>
<polygon fill="#cd661d" fill-opacity="0.298039" shape-rendering="crispEdges" points="1067.96,555.667 1133.48,553.933 1317.92,256.502"/>
<polygon fill="#cd661d" fill-opacity="0.298039" shape-rendering="crispEdges" points="995.193,490.793 1020.3,493.325 885.91,586.233"/>
<polygon fill="#1874cd" fill-opacity="0.298039" shape-rendering="crispEdges" points="796.869,598.631 1038.19,514.664 733.081,325.135"/>
<polygon fill="#1874cd" fill-opacity="0.298039" shape-rendering="crispEdges" points="1089.74,488.039 1038.19,514.664 932.735,691.542"/>
<polygon fill="#1874cd" fill-opacity="0.298039" shape-rendering="crispEdges" points="1018.1,343.668 1038.19,514.664 1091.21,454.748"/>
<polygon fill="#cd661d" fill-opacity="0.298039" shape-rendering="crispEdges" points="1067.96,555.667 1133.48,553.933 885.91,586.233"/>
<polygon fill="#1874cd" fill-opacity="0.298039" shape-rendering="crispEdges" points="1018.1,343.668 1038.19,514.664 733.081,325.135"/>
<polygon fill="#cd661d" fill-opacity="0.298039" shape-rendering="crispEdges" points="1067.96,555.667 1317.92,256.502 885.91,586.233"/>
<polygon fill="#1874cd" fill-opacity="0.298039" shape-rendering="crispEdges" points="796.869,598.631 1038.19,514.664 932.735,691.542"/>
<polygon fill="#cd661d" fill-opacity="0.298039" shape-rendering="crispEdges" points="995.193,490.793 1317.92,256.502 885.91,586.233"/>
</g>
</svg>
