<?xml version="1.0" encoding="UTF-8" standalone="no"?>
<svg xmlns="http://www.w3.org/2000/svg"
     xmlns:xlink="http://www.w3.org/1999/xlink"
     width="2048pt" height="1081pt" viewBox="0 0 2048 1081">
<title>D:/3D_GM/Projects/UW105/Results/Taxonomic_assessment/UW105-676/3D_PCA_labelled.svg</title>
<desc>
Creator: GL2PS 1.4.2, (C) 1999-2020 C. Geuzaine
For: Generated by rgl
CreationDate: Tue Jan 27 13:02:26 2026
</desc>
<defs>
</defs>
<g>
<polygon fill="#ffffff" shape-rendering="crispEdges" points="0,1081 2048,1081 2048,0"/>
<polygon fill="#ffffff" shape-rendering="crispEdges" points="0,1081 2048,0 0,0"/>
<polyline fill="none" stroke="#313131" stroke-width="1" stroke-linecap="butt" stroke-linejoin="miter" points="666.212,803.241 667.19,184.089"/>
<polyline fill="none" stroke="#dbdbdb" stroke-width="1" stroke-linecap="butt" stroke-linejoin="miter" points="667.19,184.089 1289.18,168.846"/>
<polyline fill="none" stroke="#3f3f3f" stroke-width="1" stroke-linecap="butt" stroke-linejoin="miter" points="1289.18,168.846 1288.2,787.998"/>
<polyline fill="none" stroke="#101010" stroke-width="1" stroke-linecap="butt" stroke-linejoin="miter" points="1288.2,787.998 666.212,803.241"/>
<polyline fill="none" stroke="#000000" stroke-width="1" stroke-linecap="butt" stroke-linejoin="miter" points="1380.81,896.911 1288.2,787.998 1289.18,168.846 1381.79,277.759 1380.81,896.911"/>
<polyline fill="none" stroke="#000000" stroke-width="1" stroke-linecap="butt" stroke-linejoin="miter" points="666.212,803.241 1288.2,787.998 1380.81,896.911 758.824,912.154 666.212,803.241"/>
<polyline fill="none" stroke="#000000" stroke-width="1" stroke-linecap="butt" stroke-linejoin="miter" points="909.902,908.452 916.076,915.713"/>
<text fill="#000000" x="907.85" y="928.974" font-size="12" text-anchor="start" dy="0" font-family="Helvetica">-0.05</text>
<polyline fill="none" stroke="#000000" stroke-width="1" stroke-linecap="butt" stroke-linejoin="miter" points="1080.23,904.277 1086.41,911.538"/>
<text fill="#000000" x="1088.98" y="924.799" font-size="12" text-anchor="start" dy="0" font-family="Helvetica">0</text>
<polyline fill="none" stroke="#000000" stroke-width="1" stroke-linecap="butt" stroke-linejoin="miter" points="1250.56,900.103 1256.74,907.364"/>
<text fill="#000000" x="1250.51" y="920.625" font-size="12" text-anchor="start" dy="0" font-family="Helvetica">0.05</text>
<polyline fill="none" stroke="#000000" stroke-width="1" stroke-linecap="butt" stroke-linejoin="miter" points="1380.9,842.18 1387.07,849.441"/>
<text fill="#000000" x="1382.44" y="862.702" font-size="12" text-anchor="start" dy="0" font-family="Helvetica">-0.1</text>
<polyline fill="none" stroke="#000000" stroke-width="1" stroke-linecap="butt" stroke-linejoin="miter" points="1381.12,700.201 1387.29,707.461"/>
<text fill="#000000" x="1379.07" y="720.722" font-size="12" text-anchor="start" dy="0" font-family="Helvetica">-0.05</text>
<polyline fill="none" stroke="#000000" stroke-width="1" stroke-linecap="butt" stroke-linejoin="miter" points="1381.34,558.221 1387.52,565.482"/>
<text fill="#000000" x="1390.09" y="578.743" font-size="12" text-anchor="start" dy="0" font-family="Helvetica">0</text>
<polyline fill="none" stroke="#000000" stroke-width="1" stroke-linecap="butt" stroke-linejoin="miter" points="1381.57,416.241 1387.74,423.502"/>
<text fill="#000000" x="1381.52" y="436.763" font-size="12" text-anchor="start" dy="0" font-family="Helvetica">0.05</text>
<polyline fill="none" stroke="#000000" stroke-width="1" stroke-linecap="butt" stroke-linejoin="miter" points="677.008,815.937 635.542,816.953"/>
<text fill="#000000" x="565.629" y="823.969" font-size="12" text-anchor="start" dy="0" font-family="Helvetica">-0.05</text>
<polyline fill="none" stroke="#000000" stroke-width="1" stroke-linecap="butt" stroke-linejoin="miter" points="703.921,847.587 662.456,848.604"/>
<text fill="#000000" x="613.878" y="855.62" font-size="12" text-anchor="start" dy="0" font-family="Helvetica">0</text>
<polyline fill="none" stroke="#000000" stroke-width="1" stroke-linecap="butt" stroke-linejoin="miter" points="730.834,879.238 689.369,880.254"/>
<text fill="#000000" x="623.407" y="887.271" font-size="12" text-anchor="start" dy="0" font-family="Helvetica">0.05</text>
<polyline fill="none" stroke="#000000" stroke-width="1" stroke-linecap="butt" stroke-linejoin="miter" points="757.748,910.889 716.282,911.905"/>
<text fill="#000000" x="657.432" y="918.921" font-size="12" text-anchor="start" dy="0" font-family="Helvetica">0.1</text>
<polyline fill="none" stroke="#000000" stroke-width="1" stroke-linecap="butt" stroke-linejoin="miter" points="666.212,803.241 666.212,803.241"/>
<polyline fill="none" stroke="#000000" stroke-width="1" stroke-linecap="butt" stroke-linejoin="miter" points="1381.79,277.759 1381.79,277.759"/>
<circle fill="#e41a1c" cx="773.813" cy="439.189" r="5"/>
<circle fill="#e41a1c" cx="909.815" cy="651.275" r="5"/>
<circle fill="#e41a1c" cx="927.581" cy="439.995" r="5"/>
<circle fill="#8b2323" cx="985.533" cy="516.379" r="5"/>
<circle fill="#1874cd" cx="1024.64" cy="360.435" r="5"/>
<circle fill="#4daf4a" cx="1024.31" cy="371.623" r="5"/>
<circle fill="#4daf4a" cx="1115.93" cy="541.338" r="5"/>
<circle fill="#4daf4a" cx="1048.05" cy="489.482" r="5"/>
<circle fill="#4daf4a" cx="1207.67" cy="613.625" r="5"/>
<circle fill="#4daf4a" cx="1098.83" cy="637.308" r="5"/>
<circle fill="#4daf4a" cx="1235.14" cy="800.1" r="5"/>
<circle fill="#1874cd" cx="797.025" cy="600.947" r="5"/>
<circle fill="#1874cd" cx="988.615" cy="526.986" r="5"/>
<circle fill="#1874cd" cx="1024.47" cy="528.379" r="5"/>
<circle fill="#1874cd" cx="1074.9" cy="428.274" r="5"/>
<circle fill="#1874cd" cx="741.065" cy="554.368" r="5"/>
<circle fill="#1874cd" cx="1025.1" cy="514.442" r="5"/>
<circle fill="#1874cd" cx="1076.87" cy="466.526" r="5"/>
<circle fill="#1874cd" cx="977.586" cy="344.596" r="5"/>
<circle fill="#1874cd" cx="1022" cy="417.919" r="5"/>
<circle fill="#1874cd" cx="938.923" cy="699.32" r="5"/>
<circle fill="#1874cd" cx="965.426" cy="445.09" r="5"/>
<circle fill="#1874cd" cx="721.88" cy="316.822" r="5"/>
<circle fill="#1874cd" cx="1062.3" cy="556.242" r="5"/>
<circle fill="#cd661d" cx="1170.5" cy="416.588" r="5"/>
<circle fill="#cd661d" cx="1225.15" cy="424.654" r="5"/>
<circle fill="#cd661d" cx="1073.19" cy="563.446" r="5"/>
<circle fill="#cd661d" cx="1320.36" cy="263.863" r="5"/>
<circle fill="#cd661d" cx="1010.71" cy="478.368" r="5"/>
<circle fill="#cd661d" cx="962.961" cy="544.216" r="5"/>
<circle fill="#cd661d" cx="1133.18" cy="551.27" r="5"/>
<circle fill="#cd661d" cx="1000.53" cy="501.754" r="5"/>
<circle fill="#cd661d" cx="902.385" cy="615.251" r="5"/>
<circle fill="#8b864e" cx="1154.2" cy="424.352" r="5"/>
<circle fill="#8b864e" cx="1028.16" cy="510.381" r="5"/>
<circle fill="#8b864e" cx="999.373" cy="461.562" r="5"/>
<circle fill="#000000" cx="1208.86" cy="521.383" r="5"/>
<text fill="#000000" x="1058.05" y="980.853" font-size="12" text-anchor="start" dy="0" font-family="Helvetica">PC1 (15.4%)</text>
<text fill="#000000" x="1411.06" y="621.363" font-size="12" text-anchor="start" dy="0" font-family="Helvetica">PC2 (13.9%)</text>
<text fill="#000000" x="510.19" y="909.039" font-size="12" text-anchor="start" dy="0" font-family="Helvetica">PC3 (11.3%)</text>
<text fill="#000000" x="1040.6" y="430.352" font-size="12" text-anchor="start" dy="0" font-family="Helvetica">UW101_594_URM3</text>
<text fill="#000000" x="1132.47" y="619.625" font-size="12" text-anchor="start" dy="0" font-family="Helvetica">OH13_URM3</text>
<text fill="#000000" x="902.866" y="534.379" font-size="12" text-anchor="start" dy="0" font-family="Helvetica">Prob_SK3975_ULM3</text>
<text fill="#000000" x="838.386" y="350.596" font-size="12" text-anchor="start" dy="0" font-family="Helvetica">Prob_SKX21841_URM3</text>
<text fill="#000000" x="896.298" y="520.442" font-size="12" text-anchor="start" dy="0" font-family="Helvetica">Prob_SK_3975_ULM3</text>
<polygon fill="#8b864e" fill-opacity="0.298039" shape-rendering="crispEdges" points="1154.2,424.352 1028.16,510.381 999.373,461.562"/>
<polygon fill="#1874cd" fill-opacity="0.298039" shape-rendering="crispEdges" points="1024.47,528.379 977.586,344.596 1074.9,428.274"/>
<text fill="#000000" x="908.958" y="516.381" font-size="12" text-anchor="start" dy="0" font-family="Helvetica">UW101_1269_ULM3</text>
<polygon fill="#1874cd" fill-opacity="0.298039" shape-rendering="crispEdges" points="1024.47,528.379 977.586,344.596 741.065,554.368"/>
<polygon fill="#1874cd" fill-opacity="0.298039" shape-rendering="crispEdges" points="1024.47,528.379 1076.87,466.526 1074.9,428.274"/>
<text fill="#000000" x="951.697" y="434.274" font-size="12" text-anchor="start" dy="0" font-family="Helvetica">Prob_SK3977_URM3</text>
<text fill="#000000" x="883.826" y="451.09" font-size="12" text-anchor="start" dy="0" font-family="Helvetica">SK_52_URM3</text>
<text fill="#000000" x="1161.54" y="806.1" font-size="12" text-anchor="start" dy="0" font-family="Helvetica">OH16_ULM3</text>
<text fill="#000000" x="889.203" y="423.919" font-size="12" text-anchor="start" dy="0" font-family="Helvetica">Prob_TM1517C_URM3</text>
<text fill="#000000" x="946.474" y="472.526" font-size="12" text-anchor="start" dy="0" font-family="Helvetica">Prob_SK_3977_URM3</text>
<polygon fill="#4daf4a" fill-opacity="0.298039" shape-rendering="crispEdges" points="1098.83,637.308 1207.67,613.625 1235.14,800.1"/>
<polygon fill="#1874cd" fill-opacity="0.298039" shape-rendering="crispEdges" points="977.586,344.596 741.065,554.368 721.88,316.822"/>
<text fill="#000000" x="610.665" y="560.368" font-size="12" text-anchor="start" dy="0" font-family="Helvetica">Prob_SK_831A_ULM3</text>
<text fill="#000000" x="871.373" y="467.562" font-size="12" text-anchor="start" dy="0" font-family="Helvetica">UW101_1398a_URM3</text>
<text fill="#000000" x="675.414" y="445.189" font-size="12" text-anchor="start" dy="0" font-family="Helvetica">AL200-1a_URM3</text>
<polygon fill="#4daf4a" fill-opacity="0.298039" shape-rendering="crispEdges" points="1048.05,489.482 1207.67,613.625 1235.14,800.1"/>
<polygon fill="#1874cd" fill-opacity="0.298039" shape-rendering="crispEdges" points="1024.47,528.379 1076.87,466.526 938.923,699.32"/>
<polygon fill="#1874cd" fill-opacity="0.298039" shape-rendering="crispEdges" points="1024.47,528.379 741.065,554.368 938.923,699.32"/>
<text fill="#000000" x="934.706" y="484.368" font-size="12" text-anchor="start" dy="0" font-family="Helvetica">STW6_ULM3</text>
<polygon fill="#1874cd" fill-opacity="0.298039" shape-rendering="crispEdges" points="977.586,344.596 1024.64,360.435 1074.9,428.274"/>
<text fill="#000000" x="989.53" y="547.338" font-size="12" text-anchor="start" dy="0" font-family="Helvetica">KNM-ER_1813_ULM3</text>
<polygon fill="#4daf4a" fill-opacity="0.298039" shape-rendering="crispEdges" points="1098.83,637.308 1207.67,613.625 1024.31,371.623"/>
<text fill="#000000" x="1137.95" y="430.654" font-size="12" text-anchor="start" dy="0" font-family="Helvetica">STS_37_ULM3</text>
<text fill="#000000" x="881.415" y="532.986" font-size="12" text-anchor="start" dy="0" font-family="Helvetica">Prob_SK16_ULM3</text>
<polygon fill="#1874cd" fill-opacity="0.298039" shape-rendering="crispEdges" points="797.025,600.947 741.065,554.368 721.88,316.822"/>
<text fill="#000000" x="872.561" y="550.216" font-size="12" text-anchor="start" dy="0" font-family="Helvetica">STW179_ULM3</text>
<text fill="#000000" x="634.68" y="322.822" font-size="12" text-anchor="start" dy="0" font-family="Helvetica">SK_105_ULM3</text>
<polygon fill="#cd661d" fill-opacity="0.298039" shape-rendering="crispEdges" points="1133.18,551.27 1225.15,424.654 1010.71,478.368"/>
<polygon fill="#cd661d" fill-opacity="0.298039" shape-rendering="crispEdges" points="962.961,544.216 1133.18,551.27 1010.71,478.368"/>
<polygon fill="#4daf4a" fill-opacity="0.298039" shape-rendering="crispEdges" points="1048.05,489.482 1207.67,613.625 1024.31,371.623"/>
<text fill="#000000" x="915.133" y="522.379" font-size="12" text-anchor="start" dy="0" font-family="Helvetica">Ased_ULM3</text>
<polygon fill="#1874cd" fill-opacity="0.298039" shape-rendering="crispEdges" points="977.586,344.596 1024.64,360.435 721.88,316.822"/>
<polygon fill="#4daf4a" fill-opacity="0.298039" shape-rendering="crispEdges" points="1098.83,637.308 1048.05,489.482 1235.14,800.1"/>
<polygon fill="#1874cd" fill-opacity="0.298039" shape-rendering="crispEdges" points="797.025,600.947 741.065,554.368 938.923,699.32"/>
<polygon fill="#e41a1c" fill-opacity="0.298039" shape-rendering="crispEdges" points="773.813,439.189 909.815,651.275 927.581,439.995"/>
<polygon fill="#cd661d" fill-opacity="0.298039" shape-rendering="crispEdges" points="1225.15,424.654 1010.71,478.368 1320.36,263.863"/>
<text fill="#000000" x="1023.63" y="643.308" font-size="12" text-anchor="start" dy="0" font-family="Helvetica">OH15_URM3</text>
<text fill="#000000" x="1041.18" y="557.27" font-size="12" text-anchor="start" dy="0" font-family="Helvetica">STW183_URM3</text>
<text fill="#000000" x="1105.66" y="527.383" font-size="12" text-anchor="start" dy="0" font-family="Helvetica">UW105-676_URM</text>
<polygon fill="#1874cd" fill-opacity="0.298039" shape-rendering="crispEdges" points="1076.87,466.526 1062.3,556.242 1074.9,428.274"/>
<text fill="#000000" x="680.226" y="606.947" font-size="12" text-anchor="start" dy="0" font-family="Helvetica">Prob_DNH_3_ULM3</text>
<text fill="#000000" x="903.513" y="377.623" font-size="12" text-anchor="start" dy="0" font-family="Helvetica">KNM-ER_807_URM3</text>
<polygon fill="#cd661d" fill-opacity="0.298039" shape-rendering="crispEdges" points="1133.18,551.27 1225.15,424.654 1320.36,263.863"/>
<text fill="#000000" x="813.015" y="657.275" font-size="12" text-anchor="start" dy="0" font-family="Helvetica">AL333x-1_URM3</text>
<polygon fill="#cd661d" fill-opacity="0.298039" shape-rendering="crispEdges" points="962.961,544.216 1010.71,478.368 902.385,615.251"/>
<polygon fill="#4daf4a" fill-opacity="0.298039" shape-rendering="crispEdges" points="1098.83,637.308 1048.05,489.482 1024.31,371.623"/>
<polygon fill="#cd661d" fill-opacity="0.298039" shape-rendering="crispEdges" points="1000.53,501.754 1010.71,478.368 1320.36,263.863"/>
<text fill="#000000" x="837.98" y="445.995" font-size="12" text-anchor="start" dy="0" font-family="Helvetica">AL486-1_ULM3</text>
<text fill="#000000" x="839.723" y="705.32" font-size="12" text-anchor="start" dy="0" font-family="Helvetica">SK_13.14_URM3</text>
<polygon fill="#cd661d" fill-opacity="0.298039" shape-rendering="crispEdges" points="962.961,544.216 1133.18,551.27 902.385,615.251"/>
<polygon fill="#cd661d" fill-opacity="0.298039" shape-rendering="crispEdges" points="1073.19,563.446 1133.18,551.27 1320.36,263.863"/>
<text fill="#000000" x="952.851" y="495.482" font-size="12" text-anchor="start" dy="0" font-family="Helvetica">L398-573_ULM3</text>
<polygon fill="#cd661d" fill-opacity="0.298039" shape-rendering="crispEdges" points="1000.53,501.754 1010.71,478.368 902.385,615.251"/>
<text fill="#000000" x="977.194" y="569.446" font-size="12" text-anchor="start" dy="0" font-family="Helvetica">STS_52a_URM3</text>
<polygon fill="#1874cd" fill-opacity="0.298039" shape-rendering="crispEdges" points="1076.87,466.526 1062.3,556.242 938.923,699.32"/>
<polygon fill="#1874cd" fill-opacity="0.298039" shape-rendering="crispEdges" points="797.025,600.947 1062.3,556.242 721.88,316.822"/>
<text fill="#000000" x="1081.7" y="422.588" font-size="12" text-anchor="start" dy="0" font-family="Helvetica">STS_28_URM3</text>
<polygon fill="#cd661d" fill-opacity="0.298039" shape-rendering="crispEdges" points="1073.19,563.446 1133.18,551.27 902.385,615.251"/>
<text fill="#000000" x="910.134" y="507.754" font-size="12" text-anchor="start" dy="0" font-family="Helvetica">STW189_ULM3</text>
<polygon fill="#1874cd" fill-opacity="0.298039" shape-rendering="crispEdges" points="1024.64,360.435 1062.3,556.242 1074.9,428.274"/>
<text fill="#000000" x="1233.16" y="269.863" font-size="12" text-anchor="start" dy="0" font-family="Helvetica">STS_53_ULM3</text>
<polygon fill="#1874cd" fill-opacity="0.298039" shape-rendering="crispEdges" points="797.025,600.947 1062.3,556.242 938.923,699.32"/>
<polygon fill="#cd661d" fill-opacity="0.298039" shape-rendering="crispEdges" points="1073.19,563.446 1320.36,263.863 902.385,615.251"/>
<polygon fill="#cd661d" fill-opacity="0.298039" shape-rendering="crispEdges" points="1000.53,501.754 1320.36,263.863 902.385,615.251"/>
<polygon fill="#1874cd" fill-opacity="0.298039" shape-rendering="crispEdges" points="1024.64,360.435 1062.3,556.242 721.88,316.822"/>
<text fill="#000000" x="935.042" y="366.435" font-size="12" text-anchor="start" dy="0" font-family="Helvetica">DNH_54_ULM3</text>
<text fill="#000000" x="801.585" y="621.251" font-size="12" text-anchor="start" dy="0" font-family="Helvetica">STW252H_URM3</text>
<text fill="#000000" x="982.304" y="562.242" font-size="12" text-anchor="start" dy="0" font-family="Helvetica">SK_847_UM3</text>
</g>
</svg>
