<?xml version="1.0" encoding="UTF-8" standalone="no"?>
<svg xmlns="http://www.w3.org/2000/svg"
     xmlns:xlink="http://www.w3.org/1999/xlink"
     width="2048pt" height="1081pt" viewBox="0 0 2048 1081">
<title>D:/3D_GM/Projects/UW105/Results/Taxonomic_assessment/UW105-966/3D_PCA_clean_updated.svg</title>
<desc>
Creator: GL2PS 1.4.2, (C) 1999-2020 C. Geuzaine
For: Generated by rgl
CreationDate: Thu Jan 29 09:23:51 2026
</desc>
<defs>
</defs>
<g>
<polygon fill="#ffffff" shape-rendering="crispEdges" points="0,1081 2048,1081 2048,0"/>
<polygon fill="#ffffff" shape-rendering="crispEdges" points="0,1081 2048,0 0,0"/>
<polyline fill="none" stroke="#000000" stroke-width="1" stroke-linecap="butt" stroke-linejoin="miter" points="984.166,113.193 1469.89,188.119"/>
<polyline fill="none" stroke="#000000" stroke-width="1" stroke-linecap="butt" stroke-linejoin="miter" points="1469.89,188.119 1509.33,829.338"/>
<polyline fill="none" stroke="#000000" stroke-width="1" stroke-linecap="butt" stroke-linejoin="miter" points="1509.33,829.338 1023.61,754.412"/>
<polyline fill="none" stroke="#000000" stroke-width="1" stroke-linecap="butt" stroke-linejoin="miter" points="1023.61,754.412 984.166,113.193"/>
<polyline fill="none" stroke="#000000" stroke-width="1" stroke-linecap="butt" stroke-linejoin="miter" points="984.166,113.193 1023.61,754.412"/>
<polyline fill="none" stroke="#000000" stroke-width="1" stroke-linecap="butt" stroke-linejoin="miter" points="1023.61,754.412 578.114,892.881"/>
<polyline fill="none" stroke="#000000" stroke-width="1" stroke-linecap="butt" stroke-linejoin="miter" points="578.114,892.881 538.666,251.662"/>
<polyline fill="none" stroke="#000000" stroke-width="1" stroke-linecap="butt" stroke-linejoin="miter" points="538.666,251.662 984.166,113.193"/>
<polyline fill="none" stroke="#000000" stroke-width="1" stroke-linecap="butt" stroke-linejoin="miter" points="1023.61,754.412 1509.33,829.338 1063.83,967.807"/>
<polyline fill="none" stroke="#000000" stroke-width="1" stroke-linecap="butt" stroke-linejoin="miter" points="1063.83,967.807 578.114,892.881"/>
<polyline fill="none" stroke="#000000" stroke-width="1" stroke-linecap="butt" stroke-linejoin="miter" points="578.114,892.881 1023.61,754.412"/>
<polyline fill="none" stroke="#000000" stroke-width="1" stroke-linecap="butt" stroke-linejoin="miter" points="618.845,899.164 589.145,908.395"/>
<text fill="#000000" x="541.201" y="923.626" font-size="12" text-anchor="start" dy="0" font-family="Helvetica">-0.1</text>
<polyline fill="none" stroke="#000000" stroke-width="1" stroke-linecap="butt" stroke-linejoin="miter" points="748.879,919.223 719.18,928.454"/>
<text fill="#000000" x="683.398" y="943.685" font-size="12" text-anchor="start" dy="0" font-family="Helvetica">0</text>
<polyline fill="none" stroke="#000000" stroke-width="1" stroke-linecap="butt" stroke-linejoin="miter" points="878.915,939.282 849.215,948.513"/>
<text fill="#000000" x="804.65" y="963.744" font-size="12" text-anchor="start" dy="0" font-family="Helvetica">0.1</text>
<polyline fill="none" stroke="#000000" stroke-width="1" stroke-linecap="butt" stroke-linejoin="miter" points="1008.95,959.34 979.25,968.572"/>
<text fill="#000000" x="934.685" y="983.803" font-size="12" text-anchor="start" dy="0" font-family="Helvetica">0.2</text>
<polyline fill="none" stroke="#000000" stroke-width="1" stroke-linecap="butt" stroke-linejoin="miter" points="541.966,305.312 512.267,314.543"/>
<text fill="#000000" x="464.323" y="329.774" font-size="12" text-anchor="start" dy="0" font-family="Helvetica">-0.1</text>
<polyline fill="none" stroke="#000000" stroke-width="1" stroke-linecap="butt" stroke-linejoin="miter" points="549.299,424.501 519.599,433.732"/>
<text fill="#000000" x="465.575" y="448.964" font-size="12" text-anchor="start" dy="0" font-family="Helvetica">-0.05</text>
<polyline fill="none" stroke="#000000" stroke-width="1" stroke-linecap="butt" stroke-linejoin="miter" points="556.632,543.69 526.932,552.922"/>
<text fill="#000000" x="491.15" y="568.153" font-size="12" text-anchor="start" dy="0" font-family="Helvetica">0</text>
<polyline fill="none" stroke="#000000" stroke-width="1" stroke-linecap="butt" stroke-linejoin="miter" points="563.964,662.88 534.264,672.111"/>
<text fill="#000000" x="483.619" y="687.342" font-size="12" text-anchor="start" dy="0" font-family="Helvetica">0.05</text>
<polyline fill="none" stroke="#000000" stroke-width="1" stroke-linecap="butt" stroke-linejoin="miter" points="571.297,782.069 541.597,791.3"/>
<text fill="#000000" x="497.032" y="806.532" font-size="12" text-anchor="start" dy="0" font-family="Helvetica">0.1</text>
<polyline fill="none" stroke="#000000" stroke-width="1" stroke-linecap="butt" stroke-linejoin="miter" points="1172.73,933.961 1205.11,938.956"/>
<text fill="#000000" x="1235.27" y="949.951" font-size="12" text-anchor="start" dy="0" font-family="Helvetica">-0.05</text>
<polyline fill="none" stroke="#000000" stroke-width="1" stroke-linecap="butt" stroke-linejoin="miter" points="1296.06,895.627 1328.44,900.623"/>
<text fill="#000000" x="1360.27" y="911.618" font-size="12" text-anchor="start" dy="0" font-family="Helvetica">0</text>
<polyline fill="none" stroke="#000000" stroke-width="1" stroke-linecap="butt" stroke-linejoin="miter" points="1419.39,857.293 1451.77,862.289"/>
<text fill="#000000" x="1482.24" y="873.284" font-size="12" text-anchor="start" dy="0" font-family="Helvetica">0.05</text>
<polyline fill="none" stroke="#000000" stroke-width="1" stroke-linecap="butt" stroke-linejoin="miter" points="538.666,251.662 538.666,251.662"/>
<polyline fill="none" stroke="#000000" stroke-width="1" stroke-linecap="butt" stroke-linejoin="miter" points="1509.33,829.338 1509.33,829.338"/>
<circle fill="#000000" cx="594.767" cy="563.894" r="5"/>
<circle fill="#e41a1c" cx="973.715" cy="253.791" r="5"/>
<circle fill="#e41a1c" cx="805.688" cy="434.064" r="5"/>
<circle fill="#e41a1c" cx="826.3" cy="255.537" r="5"/>
<circle fill="#1874cd" cx="818.6" cy="484.106" r="5"/>
<circle fill="#1874cd" cx="839.331" cy="589.055" r="5"/>
<circle fill="#1874cd" cx="939.336" cy="529.732" r="5"/>
<circle fill="#4daf4a" cx="1102.71" cy="530.977" r="5"/>
<circle fill="#4daf4a" cx="870.599" cy="623.551" r="5"/>
<circle fill="#e41a1c" cx="1020.24" cy="258.904" r="5"/>
<circle fill="#8b2323" cx="911.29" cy="620.383" r="5"/>
<circle fill="#cd661d" cx="1158.27" cy="391.306" r="5"/>
<circle fill="#4daf4a" cx="986.44" cy="495.735" r="5"/>
<circle fill="#4daf4a" cx="962.959" cy="452.451" r="5"/>
<circle fill="#4daf4a" cx="983.273" cy="477.654" r="5"/>
<circle fill="#1874cd" cx="814.049" cy="516.085" r="5"/>
<circle fill="#1874cd" cx="809.568" cy="600.781" r="5"/>
<circle fill="#1874cd" cx="994.502" cy="793.155" r="5"/>
<circle fill="#1874cd" cx="731.142" cy="545.553" r="5"/>
<circle fill="#1874cd" cx="963.333" cy="565.713" r="5"/>
<circle fill="#1874cd" cx="931.556" cy="474.202" r="5"/>
<circle fill="#cd661d" cx="917.56" cy="334.338" r="5"/>
<circle fill="#cd661d" cx="1054.33" cy="435.049" r="5"/>
<circle fill="#cd661d" cx="882.943" cy="371.315" r="5"/>
<circle fill="#8b864e" cx="1160.05" cy="612.496" r="5"/>
<circle fill="#8b864e" cx="1180.07" cy="546.033" r="5"/>
<circle fill="#8b864e" cx="1216.38" cy="592.061" r="5"/>
<circle fill="#8b864e" cx="1183.57" cy="560.836" r="5"/>
<circle fill="#8b864e" cx="1196.48" cy="528.978" r="5"/>
<text fill="#000000" x="668.404" y="1016.02" font-size="12" text-anchor="start" dy="0" font-family="Helvetica">PC1 (59.5%)</text>
<text fill="#000000" x="370.809" y="610.202" font-size="12" text-anchor="start" dy="0" font-family="Helvetica">PC2 (15.4%)</text>
<text fill="#000000" x="1385.94" y="967.3" font-size="12" text-anchor="start" dy="0" font-family="Helvetica">PC3 (7.7%)</text>
<polygon fill="#1874cd" fill-opacity="0.298039" shape-rendering="crispEdges" points="963.333,565.713 994.502,793.155 839.331,589.055"/>
<polygon fill="#1874cd" fill-opacity="0.298039" shape-rendering="crispEdges" points="939.336,529.732 931.556,474.202 963.333,565.713"/>
<polygon fill="#1874cd" fill-opacity="0.298039" shape-rendering="crispEdges" points="931.556,474.202 963.333,565.713 994.502,793.155"/>
<polygon fill="#1874cd" fill-opacity="0.298039" shape-rendering="crispEdges" points="939.336,529.732 731.142,545.553 963.333,565.713"/>
<polygon fill="#1874cd" fill-opacity="0.298039" shape-rendering="crispEdges" points="809.568,600.781 994.502,793.155 839.331,589.055"/>
<polygon fill="#cd661d" fill-opacity="0.298039" shape-rendering="crispEdges" points="1158.27,391.306 917.56,334.338 882.943,371.315"/>
<polygon fill="#1874cd" fill-opacity="0.298039" shape-rendering="crispEdges" points="731.142,545.553 963.333,565.713 839.331,589.055"/>
<polygon fill="#1874cd" fill-opacity="0.298039" shape-rendering="crispEdges" points="939.336,529.732 931.556,474.202 818.6,484.106"/>
<polygon fill="#1874cd" fill-opacity="0.298039" shape-rendering="crispEdges" points="931.556,474.202 818.6,484.106 994.502,793.155"/>
<polygon fill="#4daf4a" fill-opacity="0.298039" shape-rendering="crispEdges" points="983.273,477.654 1102.71,530.977 962.959,452.451"/>
<polygon fill="#cd661d" fill-opacity="0.298039" shape-rendering="crispEdges" points="1158.27,391.306 1054.33,435.049 882.943,371.315"/>
<polygon fill="#1874cd" fill-opacity="0.298039" shape-rendering="crispEdges" points="809.568,600.781 731.142,545.553 994.502,793.155"/>
<polygon fill="#4daf4a" fill-opacity="0.298039" shape-rendering="crispEdges" points="870.599,623.551 1102.71,530.977 962.959,452.451"/>
<polygon fill="#1874cd" fill-opacity="0.298039" shape-rendering="crispEdges" points="809.568,600.781 731.142,545.553 839.331,589.055"/>
<polygon fill="#1874cd" fill-opacity="0.298039" shape-rendering="crispEdges" points="939.336,529.732 731.142,545.553 818.6,484.106"/>
<polygon fill="#1874cd" fill-opacity="0.298039" shape-rendering="crispEdges" points="731.142,545.553 818.6,484.106 994.502,793.155"/>
<polygon fill="#e41a1c" fill-opacity="0.298039" shape-rendering="crispEdges" points="1020.24,258.904 805.688,434.064 973.715,253.791"/>
<polygon fill="#e41a1c" fill-opacity="0.298039" shape-rendering="crispEdges" points="1020.24,258.904 826.3,255.537 973.715,253.791"/>
<polygon fill="#4daf4a" fill-opacity="0.298039" shape-rendering="crispEdges" points="870.599,623.551 983.273,477.654 962.959,452.451"/>
<polygon fill="#4daf4a" fill-opacity="0.298039" shape-rendering="crispEdges" points="870.599,623.551 983.273,477.654 1102.71,530.977"/>
<polygon fill="#cd661d" fill-opacity="0.298039" shape-rendering="crispEdges" points="917.56,334.338 1054.33,435.049 882.943,371.315"/>
<polygon fill="#cd661d" fill-opacity="0.298039" shape-rendering="crispEdges" points="1158.27,391.306 917.56,334.338 1054.33,435.049"/>
<polygon fill="#e41a1c" fill-opacity="0.298039" shape-rendering="crispEdges" points="1020.24,258.904 805.688,434.064 826.3,255.537"/>
<polygon fill="#e41a1c" fill-opacity="0.298039" shape-rendering="crispEdges" points="805.688,434.064 826.3,255.537 973.715,253.791"/>
<polygon fill="#8b864e" fill-opacity="0.298039" shape-rendering="crispEdges" points="1180.07,546.033 1160.05,612.496 1183.57,560.836"/>
<polygon fill="#8b864e" fill-opacity="0.298039" shape-rendering="crispEdges" points="1216.38,592.061 1160.05,612.496 1183.57,560.836"/>
<polygon fill="#8b864e" fill-opacity="0.298039" shape-rendering="crispEdges" points="1180.07,546.033 1196.48,528.978 1183.57,560.836"/>
<polygon fill="#8b864e" fill-opacity="0.298039" shape-rendering="crispEdges" points="1216.38,592.061 1196.48,528.978 1183.57,560.836"/>
<polygon fill="#8b864e" fill-opacity="0.298039" shape-rendering="crispEdges" points="1180.07,546.033 1160.05,612.496 1196.48,528.978"/>
<polygon fill="#8b864e" fill-opacity="0.298039" shape-rendering="crispEdges" points="1216.38,592.061 1160.05,612.496 1196.48,528.978"/>
</g>
</svg>
