<?xml version="1.0" encoding="UTF-8" standalone="no"?>
<svg xmlns="http://www.w3.org/2000/svg"
     xmlns:xlink="http://www.w3.org/1999/xlink"
     width="1740pt" height="970pt" viewBox="0 0 1740 970">
<title>D:/3D_GM/Projects/UW105/Results/Taxonomic_assessment/UW105-966/ULC_shape_PCA_labelled.svg</title>
<desc>
Creator: GL2PS 1.4.2, (C) 1999-2020 C. Geuzaine
For: Generated by rgl
CreationDate: Wed Jan  7 12:33:33 2026
</desc>
<defs>
</defs>
<g>
<polygon fill="#ffffff" shape-rendering="crispEdges" points="0,970 1740,970 1740,0"/>
<polygon fill="#ffffff" shape-rendering="crispEdges" points="0,970 1740,0 0,0"/>
<polyline fill="none" stroke="#000000" stroke-width="1" stroke-linecap="butt" stroke-linejoin="miter" points="1212.5,459.061 719.211,426.997"/>
<polyline fill="none" stroke="#000000" stroke-width="1" stroke-linecap="butt" stroke-linejoin="miter" points="719.211,426.997 634.188,110.229"/>
<polyline fill="none" stroke="#000000" stroke-width="1" stroke-linecap="butt" stroke-linejoin="miter" points="634.188,110.229 1127.47,142.293"/>
<polyline fill="none" stroke="#000000" stroke-width="1" stroke-linecap="butt" stroke-linejoin="miter" points="1127.47,142.293 1212.5,459.061"/>
<polyline fill="none" stroke="#000000" stroke-width="1" stroke-linecap="butt" stroke-linejoin="miter" points="719.211,426.997 612.527,827.707 527.505,510.939"/>
<polyline fill="none" stroke="#000000" stroke-width="1" stroke-linecap="butt" stroke-linejoin="miter" points="527.505,510.939 634.188,110.229"/>
<polyline fill="none" stroke="#000000" stroke-width="1" stroke-linecap="butt" stroke-linejoin="miter" points="634.188,110.229 719.211,426.997"/>
<polyline fill="none" stroke="#000000" stroke-width="1" stroke-linecap="butt" stroke-linejoin="miter" points="1105.81,859.771 612.527,827.707"/>
<polyline fill="none" stroke="#000000" stroke-width="1" stroke-linecap="butt" stroke-linejoin="miter" points="612.527,827.707 719.211,426.997"/>
<polyline fill="none" stroke="#000000" stroke-width="1" stroke-linecap="butt" stroke-linejoin="miter" points="719.211,426.997 1212.5,459.061"/>
<polyline fill="none" stroke="#000000" stroke-width="1" stroke-linecap="butt" stroke-linejoin="miter" points="1212.5,459.061 1105.81,859.771"/>
<polyline fill="none" stroke="#000000" stroke-width="1" stroke-linecap="butt" stroke-linejoin="miter" points="1063.22,857.002 1056.11,883.716"/>
<text fill="#000000" x="1038.2" y="916.431" font-size="12" text-anchor="start" dy="0" font-family="Helvetica">-0.1</text>
<polyline fill="none" stroke="#000000" stroke-width="1" stroke-linecap="butt" stroke-linejoin="miter" points="956.019,850.034 948.906,876.749"/>
<text fill="#000000" x="927.394" y="909.462" font-size="12" text-anchor="start" dy="0" font-family="Helvetica">-0.05</text>
<polyline fill="none" stroke="#000000" stroke-width="1" stroke-linecap="butt" stroke-linejoin="miter" points="848.814,843.066 841.702,869.78"/>
<text fill="#000000" x="830.99" y="902.494" font-size="12" text-anchor="start" dy="0" font-family="Helvetica">0</text>
<polyline fill="none" stroke="#000000" stroke-width="1" stroke-linecap="butt" stroke-linejoin="miter" points="741.61,836.098 734.498,862.812"/>
<text fill="#000000" x="714.986" y="895.526" font-size="12" text-anchor="start" dy="0" font-family="Helvetica">0.05</text>
<polyline fill="none" stroke="#000000" stroke-width="1" stroke-linecap="butt" stroke-linejoin="miter" points="634.406,829.129 627.294,855.843"/>
<text fill="#000000" x="611.382" y="888.557" font-size="12" text-anchor="start" dy="0" font-family="Helvetica">0.1</text>
<polyline fill="none" stroke="#000000" stroke-width="1" stroke-linecap="butt" stroke-linejoin="miter" points="593.412,756.486 586.299,783.2"/>
<text fill="#000000" x="564.787" y="815.914" font-size="12" text-anchor="start" dy="0" font-family="Helvetica">-0.05</text>
<polyline fill="none" stroke="#000000" stroke-width="1" stroke-linecap="butt" stroke-linejoin="miter" points="571.628,675.329 564.516,702.043"/>
<text fill="#000000" x="553.804" y="734.757" font-size="12" text-anchor="start" dy="0" font-family="Helvetica">0</text>
<polyline fill="none" stroke="#000000" stroke-width="1" stroke-linecap="butt" stroke-linejoin="miter" points="549.845,594.172 542.733,620.886"/>
<text fill="#000000" x="523.221" y="653.6" font-size="12" text-anchor="start" dy="0" font-family="Helvetica">0.05</text>
<polyline fill="none" stroke="#000000" stroke-width="1" stroke-linecap="butt" stroke-linejoin="miter" points="528.062,513.015 520.95,539.729"/>
<text fill="#000000" x="505.038" y="572.443" font-size="12" text-anchor="start" dy="0" font-family="Helvetica">0.1</text>
<polyline fill="none" stroke="#000000" stroke-width="1" stroke-linecap="butt" stroke-linejoin="miter" points="1122.34,797.696 1155.22,799.834"/>
<text fill="#000000" x="1187.17" y="807.972" font-size="12" text-anchor="start" dy="0" font-family="Helvetica">-0.04</text>
<polyline fill="none" stroke="#000000" stroke-width="1" stroke-linecap="butt" stroke-linejoin="miter" points="1139.21,734.335 1172.09,736.473"/>
<text fill="#000000" x="1204.04" y="744.61" font-size="12" text-anchor="start" dy="0" font-family="Helvetica">-0.02</text>
<polyline fill="none" stroke="#000000" stroke-width="1" stroke-linecap="butt" stroke-linejoin="miter" points="1156.08,670.974 1188.96,673.112"/>
<text fill="#000000" x="1221.61" y="681.25" font-size="12" text-anchor="start" dy="0" font-family="Helvetica">0</text>
<polyline fill="none" stroke="#000000" stroke-width="1" stroke-linecap="butt" stroke-linejoin="miter" points="1172.94,607.613 1205.83,609.751"/>
<text fill="#000000" x="1237.91" y="617.889" font-size="12" text-anchor="start" dy="0" font-family="Helvetica">0.02</text>
<polyline fill="none" stroke="#000000" stroke-width="1" stroke-linecap="butt" stroke-linejoin="miter" points="1189.81,544.252 1222.7,546.39"/>
<text fill="#000000" x="1254.78" y="554.527" font-size="12" text-anchor="start" dy="0" font-family="Helvetica">0.04</text>
<polyline fill="none" stroke="#000000" stroke-width="1" stroke-linecap="butt" stroke-linejoin="miter" points="1206.68,480.892 1239.57,483.029"/>
<text fill="#000000" x="1271.65" y="491.167" font-size="12" text-anchor="start" dy="0" font-family="Helvetica">0.06</text>
<polyline fill="none" stroke="#000000" stroke-width="1" stroke-linecap="butt" stroke-linejoin="miter" points="1105.81,859.771 1105.81,859.771"/>
<polyline fill="none" stroke="#000000" stroke-width="1" stroke-linecap="butt" stroke-linejoin="miter" points="634.188,110.229 634.188,110.229"/>
<circle fill="#000000" cx="976.624" cy="820.302" r="5"/>
<circle fill="#e41a1c" cx="755.462" cy="424.311" r="5"/>
<circle fill="#e41a1c" cx="757.417" cy="674.897" r="5"/>
<circle fill="#e41a1c" cx="645.084" cy="670.968" r="5"/>
<circle fill="#1c86ee" cx="872.326" cy="605.657" r="5"/>
<circle fill="#1c86ee" cx="1013.13" cy="527.031" r="5"/>
<circle fill="#1c86ee" cx="979.419" cy="407.381" r="5"/>
<circle fill="#4daf4a" cx="824.727" cy="310.557" r="5"/>
<circle fill="#4daf4a" cx="839.002" cy="602.431" r="5"/>
<circle fill="#e41a1c" cx="734.891" cy="385.675" r="5"/>
<circle fill="#e41a1c" cx="914.198" cy="511.708" r="5"/>
<circle fill="#e41a1c" cx="797.283" cy="228.972" r="5"/>
<circle fill="#4daf4a" cx="853.901" cy="420.209" r="5"/>
<circle fill="#4daf4a" cx="885.749" cy="416.328" r="5"/>
<circle fill="#4daf4a" cx="754.283" cy="482.612" r="5"/>
<circle fill="#1874cd" cx="905.999" cy="594.001" r="5"/>
<circle fill="#1874cd" cx="986.169" cy="566.432" r="5"/>
<circle fill="#1874cd" cx="1054.98" cy="378.373" r="5"/>
<circle fill="#1874cd" cx="923.821" cy="690.95" r="5"/>
<circle fill="#1874cd" cx="1038.79" cy="356.025" r="5"/>
<circle fill="#1874cd" cx="866.956" cy="459.732" r="5"/>
<circle fill="#e41a1c" cx="698.063" cy="554.974" r="5"/>
<circle fill="#e41a1c" cx="558.232" cy="507.616" r="5"/>
<circle fill="#e41a1c" cx="959.808" cy="448.247" r="5"/>
<text fill="#000000" x="472.282" y="780.042" font-size="12" text-anchor="start" dy="0" font-family="Helvetica">PC2 (23.2%)</text>
<text fill="#000000" x="1259.96" y="695.084" font-size="12" text-anchor="start" dy="0" font-family="Helvetica">PC3 (13.3%)</text>
<text fill="#000000" x="906.208" y="452.646" font-size="8" text-anchor="start" dy="0" font-family="Helvetica">STW252_ULC</text>
<text fill="#000000" x="700.262" y="428.711" font-size="8" text-anchor="start" dy="0" font-family="Helvetica">AL199-1_URC</text>
<polygon fill="#e41a1c" fill-opacity="0.298039" shape-rendering="crispEdges" points="755.462,424.311 645.084,670.968 959.808,448.247"/>
<polygon fill="#e41a1c" fill-opacity="0.298039" shape-rendering="crispEdges" points="755.462,424.311 797.283,228.972 959.808,448.247"/>
<text fill="#000000" x="698.091" y="390.075" font-size="8" text-anchor="start" dy="0" font-family="Helvetica">LH5_URC</text>
<polygon fill="#e41a1c" fill-opacity="0.298039" shape-rendering="crispEdges" points="734.891,385.675 755.462,424.311 645.084,670.968"/>
<polygon fill="#e41a1c" fill-opacity="0.298039" shape-rendering="crispEdges" points="734.891,385.675 755.462,424.311 797.283,228.972"/>
<polygon fill="#e41a1c" fill-opacity="0.298039" shape-rendering="crispEdges" points="757.417,674.897 645.084,670.968 959.808,448.247"/>
<text fill="#000000" x="585.084" y="675.368" font-size="8" text-anchor="start" dy="0" font-family="Helvetica">AL417-1d_URC</text>
<text fill="#000000" x="842.549" y="420.728" font-size="8" text-anchor="start" dy="0" font-family="Helvetica">OH39_URC</text>
<text fill="#000000" x="734.883" y="233.372" font-size="8" text-anchor="start" dy="0" font-family="Helvetica">MLD11_30_URC</text>
<text fill="#000000" x="977.187" y="360.425" font-size="8" text-anchor="start" dy="0" font-family="Helvetica">SKX25296_ULC</text>
<polygon fill="#e41a1c" fill-opacity="0.298039" shape-rendering="crispEdges" points="797.283,228.972 959.808,448.247 914.198,511.708"/>
<text fill="#000000" x="927.419" y="411.781" font-size="8" text-anchor="start" dy="0" font-family="Helvetica">DNH108_ULC</text>
<text fill="#000000" x="646.063" y="559.374" font-size="8" text-anchor="start" dy="0" font-family="Helvetica">STS52a_URC</text>
<polygon fill="#1874cd" fill-opacity="0.298039" shape-rendering="crispEdges" points="905.999,594.001 1038.79,356.025 866.956,459.732"/>
<polygon fill="#e41a1c" fill-opacity="0.298039" shape-rendering="crispEdges" points="757.417,674.897 959.808,448.247 914.198,511.708"/>
<polygon fill="#1c86ee" fill-opacity="0.298039" shape-rendering="crispEdges" points="872.326,605.657 1013.13,527.031 979.419,407.381"/>
<text fill="#000000" x="804.556" y="464.132" font-size="8" text-anchor="start" dy="0" font-family="Helvetica">SKX28724_URC</text>
<polygon fill="#1874cd" fill-opacity="0.298039" shape-rendering="crispEdges" points="905.999,594.001 1038.79,356.025 923.821,690.95"/>
<text fill="#000000" x="965.925" y="531.431" font-size="8" text-anchor="start" dy="0" font-family="Helvetica">DNH73_ULC</text>
<polygon fill="#e41a1c" fill-opacity="0.298039" shape-rendering="crispEdges" points="734.891,385.675 645.084,670.968 558.232,507.616"/>
<text fill="#000000" x="929.423" y="824.702" font-size="8" text-anchor="start" dy="0" font-family="Helvetica">UW105_966</text>
<text fill="#000000" x="829.926" y="610.057" font-size="8" text-anchor="start" dy="0" font-family="Helvetica">DNH7_ULC</text>
<polygon fill="#1874cd" fill-opacity="0.298039" shape-rendering="crispEdges" points="986.169,566.432 1038.79,356.025 923.821,690.95"/>
<text fill="#000000" x="868.398" y="598.401" font-size="8" text-anchor="start" dy="0" font-family="Helvetica">SK4_URC</text>
<polygon fill="#e41a1c" fill-opacity="0.298039" shape-rendering="crispEdges" points="734.891,385.675 797.283,228.972 558.232,507.616"/>
<polygon fill="#1874cd" fill-opacity="0.298039" shape-rendering="crispEdges" points="905.999,594.001 923.821,690.95 866.956,459.732"/>
<text fill="#000000" x="810.701" y="424.609" font-size="8" text-anchor="start" dy="0" font-family="Helvetica">OH15_URC</text>
<text fill="#000000" x="698.217" y="679.297" font-size="8" text-anchor="start" dy="0" font-family="Helvetica">AL200-1a_ULC</text>
<text fill="#000000" x="871.021" y="695.35" font-size="8" text-anchor="start" dy="0" font-family="Helvetica">SKX162_URC</text>
<text fill="#000000" x="938.969" y="570.832" font-size="8" text-anchor="start" dy="0" font-family="Helvetica">SK65a_URC</text>
<polygon fill="#4daf4a" fill-opacity="0.298039" shape-rendering="crispEdges" points="824.727,310.557 885.749,416.328 754.283,482.612"/>
<polygon fill="#1874cd" fill-opacity="0.298039" shape-rendering="crispEdges" points="1038.79,356.025 866.956,459.732 1054.98,378.373"/>
<polygon fill="#e41a1c" fill-opacity="0.298039" shape-rendering="crispEdges" points="757.417,674.897 645.084,670.968 558.232,507.616"/>
<polygon fill="#1874cd" fill-opacity="0.298039" shape-rendering="crispEdges" points="986.169,566.432 1038.79,356.025 1054.98,378.373"/>
<polygon fill="#4daf4a" fill-opacity="0.298039" shape-rendering="crispEdges" points="824.727,310.557 885.749,416.328 839.002,602.431"/>
<polygon fill="#1874cd" fill-opacity="0.298039" shape-rendering="crispEdges" points="923.821,690.95 866.956,459.732 1054.98,378.373"/>
<polygon fill="#4daf4a" fill-opacity="0.298039" shape-rendering="crispEdges" points="885.749,416.328 754.283,482.612 839.002,602.431"/>
<text fill="#000000" x="752.727" y="314.957" font-size="8" text-anchor="start" dy="0" font-family="Helvetica">KNM-ER1813_URC</text>
<polygon fill="#1874cd" fill-opacity="0.298039" shape-rendering="crispEdges" points="986.169,566.432 923.821,690.95 1054.98,378.373"/>
<polygon fill="#e41a1c" fill-opacity="0.298039" shape-rendering="crispEdges" points="797.283,228.972 558.232,507.616 914.198,511.708"/>
<text fill="#000000" x="711.083" y="487.012" font-size="8" text-anchor="start" dy="0" font-family="Helvetica">OH62_URC</text>
<text fill="#000000" x="870.998" y="516.108" font-size="8" text-anchor="start" dy="0" font-family="Helvetica">MH1_URC1</text>
<polygon fill="#e41a1c" fill-opacity="0.298039" shape-rendering="crispEdges" points="757.417,674.897 558.232,507.616 914.198,511.708"/>
<polygon fill="#4daf4a" fill-opacity="0.298039" shape-rendering="crispEdges" points="824.727,310.557 754.283,482.612 839.002,602.431"/>
<text fill="#000000" x="756.603" y="606.831" font-size="8" text-anchor="start" dy="0" font-family="Helvetica">KNM-ER_1590D_URC</text>
<text fill="#000000" x="1013.38" y="382.772" font-size="8" text-anchor="start" dy="0" font-family="Helvetica">SK93_ULC</text>
<text fill="#000000" x="503.832" y="512.016" font-size="8" text-anchor="start" dy="0" font-family="Helvetica">STW126_URC</text>
</g>
</svg>
