<?xml version="1.0" encoding="UTF-8" standalone="no"?>
<svg xmlns="http://www.w3.org/2000/svg"
     xmlns:xlink="http://www.w3.org/1999/xlink"
     width="1920pt" height="1129pt" viewBox="0 0 1920 1129">
<title>D:/3D_GM/Projects/UW105/Results/Taxonomic_assessment/UW105-966/ULC_shape_PCA_clean.svg</title>
<desc>
Creator: GL2PS 1.4.2, (C) 1999-2020 C. Geuzaine
For: Generated by rgl
CreationDate: Wed Jan  7 12:31:45 2026
</desc>
<defs>
</defs>
<g>
<polygon fill="#ffffff" shape-rendering="crispEdges" points="0,1129 1920,1129 1920,0"/>
<polygon fill="#ffffff" shape-rendering="crispEdges" points="0,1129 1920,0 0,0"/>
<polyline fill="none" stroke="#000000" stroke-width="1" stroke-linecap="butt" stroke-linejoin="miter" points="1358.64,534.309 784.494,496.989"/>
<polyline fill="none" stroke="#000000" stroke-width="1" stroke-linecap="butt" stroke-linejoin="miter" points="784.494,496.989 685.535,128.297"/>
<polyline fill="none" stroke="#000000" stroke-width="1" stroke-linecap="butt" stroke-linejoin="miter" points="685.535,128.297 1259.68,165.617"/>
<polyline fill="none" stroke="#000000" stroke-width="1" stroke-linecap="butt" stroke-linejoin="miter" points="1259.68,165.617 1358.64,534.309"/>
<polyline fill="none" stroke="#000000" stroke-width="1" stroke-linecap="butt" stroke-linejoin="miter" points="784.494,496.989 660.323,963.383 561.364,594.691"/>
<polyline fill="none" stroke="#000000" stroke-width="1" stroke-linecap="butt" stroke-linejoin="miter" points="561.364,594.691 685.535,128.297"/>
<polyline fill="none" stroke="#000000" stroke-width="1" stroke-linecap="butt" stroke-linejoin="miter" points="685.535,128.297 784.494,496.989"/>
<polyline fill="none" stroke="#000000" stroke-width="1" stroke-linecap="butt" stroke-linejoin="miter" points="1234.47,1000.7 660.323,963.383"/>
<polyline fill="none" stroke="#000000" stroke-width="1" stroke-linecap="butt" stroke-linejoin="miter" points="660.323,963.383 784.494,496.989"/>
<polyline fill="none" stroke="#000000" stroke-width="1" stroke-linecap="butt" stroke-linejoin="miter" points="784.494,496.989 1358.64,534.309"/>
<polyline fill="none" stroke="#000000" stroke-width="1" stroke-linecap="butt" stroke-linejoin="miter" points="1358.64,534.309 1234.47,1000.7"/>
<polyline fill="none" stroke="#000000" stroke-width="1" stroke-linecap="butt" stroke-linejoin="miter" points="1184.9,997.48 1176.62,1028.57"/>
<text fill="#000000" x="1157.54" y="1065.67" font-size="12" text-anchor="start" dy="0" font-family="Helvetica">-0.1</text>
<polyline fill="none" stroke="#000000" stroke-width="1" stroke-linecap="butt" stroke-linejoin="miter" points="1060.12,989.37 1051.84,1020.46"/>
<text fill="#000000" x="1029.16" y="1057.56" font-size="12" text-anchor="start" dy="0" font-family="Helvetica">-0.05</text>
<polyline fill="none" stroke="#000000" stroke-width="1" stroke-linecap="butt" stroke-linejoin="miter" points="935.342,981.259 927.063,1012.35"/>
<text fill="#000000" x="915.186" y="1049.44" font-size="12" text-anchor="start" dy="0" font-family="Helvetica">0</text>
<polyline fill="none" stroke="#000000" stroke-width="1" stroke-linecap="butt" stroke-linejoin="miter" points="810.565,973.149 802.287,1004.24"/>
<text fill="#000000" x="781.609" y="1041.33" font-size="12" text-anchor="start" dy="0" font-family="Helvetica">0.05</text>
<polyline fill="none" stroke="#000000" stroke-width="1" stroke-linecap="butt" stroke-linejoin="miter" points="685.789,965.038 677.51,996.131"/>
<text fill="#000000" x="660.433" y="1033.22" font-size="12" text-anchor="start" dy="0" font-family="Helvetica">0.1</text>
<polyline fill="none" stroke="#000000" stroke-width="1" stroke-linecap="butt" stroke-linejoin="miter" points="638.074,880.488 629.796,911.581"/>
<text fill="#000000" x="607.118" y="948.673" font-size="12" text-anchor="start" dy="0" font-family="Helvetica">-0.05</text>
<polyline fill="none" stroke="#000000" stroke-width="1" stroke-linecap="butt" stroke-linejoin="miter" points="612.72,786.027 604.442,817.12"/>
<text fill="#000000" x="592.564" y="854.213" font-size="12" text-anchor="start" dy="0" font-family="Helvetica">0</text>
<polyline fill="none" stroke="#000000" stroke-width="1" stroke-linecap="butt" stroke-linejoin="miter" points="587.366,691.567 579.088,722.66"/>
<text fill="#000000" x="558.41" y="759.753" font-size="12" text-anchor="start" dy="0" font-family="Helvetica">0.05</text>
<polyline fill="none" stroke="#000000" stroke-width="1" stroke-linecap="butt" stroke-linejoin="miter" points="562.013,597.107 553.734,628.2"/>
<text fill="#000000" x="536.657" y="665.292" font-size="12" text-anchor="start" dy="0" font-family="Helvetica">0.1</text>
<polyline fill="none" stroke="#000000" stroke-width="1" stroke-linecap="butt" stroke-linejoin="miter" points="1253.7,928.453 1291.98,930.941"/>
<text fill="#000000" x="1329.32" y="939.429" font-size="12" text-anchor="start" dy="0" font-family="Helvetica">-0.04</text>
<polyline fill="none" stroke="#000000" stroke-width="1" stroke-linecap="butt" stroke-linejoin="miter" points="1273.33,854.706 1311.61,857.194"/>
<text fill="#000000" x="1348.95" y="865.682" font-size="12" text-anchor="start" dy="0" font-family="Helvetica">-0.02</text>
<polyline fill="none" stroke="#000000" stroke-width="1" stroke-linecap="butt" stroke-linejoin="miter" points="1292.97,780.959 1331.25,783.447"/>
<text fill="#000000" x="1369.29" y="791.935" font-size="12" text-anchor="start" dy="0" font-family="Helvetica">0</text>
<polyline fill="none" stroke="#000000" stroke-width="1" stroke-linecap="butt" stroke-linejoin="miter" points="1312.6,707.212 1350.88,709.7"/>
<text fill="#000000" x="1388.35" y="718.188" font-size="12" text-anchor="start" dy="0" font-family="Helvetica">0.02</text>
<polyline fill="none" stroke="#000000" stroke-width="1" stroke-linecap="butt" stroke-linejoin="miter" points="1332.24,633.465 1370.51,635.953"/>
<text fill="#000000" x="1407.98" y="644.441" font-size="12" text-anchor="start" dy="0" font-family="Helvetica">0.04</text>
<polyline fill="none" stroke="#000000" stroke-width="1" stroke-linecap="butt" stroke-linejoin="miter" points="1351.87,559.718 1390.15,562.206"/>
<text fill="#000000" x="1427.62" y="570.694" font-size="12" text-anchor="start" dy="0" font-family="Helvetica">0.06</text>
<polyline fill="none" stroke="#000000" stroke-width="1" stroke-linecap="butt" stroke-linejoin="miter" points="1234.47,1000.7 1234.47,1000.7"/>
<polyline fill="none" stroke="#000000" stroke-width="1" stroke-linecap="butt" stroke-linejoin="miter" points="685.535,128.297 685.535,128.297"/>
<circle fill="#000000" cx="1084.1" cy="954.764" r="5"/>
<circle fill="#e41a1c" cx="826.688" cy="493.863" r="5"/>
<circle fill="#e41a1c" cx="828.963" cy="785.524" r="5"/>
<circle fill="#e41a1c" cx="698.217" cy="780.952" r="5"/>
<circle fill="#1c86ee" cx="962.708" cy="704.935" r="5"/>
<circle fill="#1c86ee" cx="1126.59" cy="613.42" r="5"/>
<circle fill="#1c86ee" cx="1087.35" cy="474.158" r="5"/>
<circle fill="#4daf4a" cx="907.306" cy="361.462" r="5"/>
<circle fill="#4daf4a" cx="923.921" cy="701.18" r="5"/>
<circle fill="#e41a1c" cx="802.744" cy="448.894" r="5"/>
<circle fill="#e41a1c" cx="1011.44" cy="595.586" r="5"/>
<circle fill="#e41a1c" cx="875.363" cy="266.504" r="5"/>
<circle fill="#4daf4a" cx="941.263" cy="489.089" r="5"/>
<circle fill="#4daf4a" cx="978.331" cy="484.571" r="5"/>
<circle fill="#4daf4a" cx="825.314" cy="561.721" r="5"/>
<circle fill="#1874cd" cx="1001.9" cy="691.368" r="5"/>
<circle fill="#1874cd" cx="1095.21" cy="659.28" r="5"/>
<circle fill="#1874cd" cx="1175.3" cy="440.395" r="5"/>
<circle fill="#1874cd" cx="1022.64" cy="804.209" r="5"/>
<circle fill="#1874cd" cx="1156.45" cy="414.384" r="5"/>
<circle fill="#1874cd" cx="956.457" cy="535.09" r="5"/>
<circle fill="#e41a1c" cx="759.88" cy="645.943" r="5"/>
<circle fill="#e41a1c" cx="597.128" cy="590.824" r="5"/>
<circle fill="#e41a1c" cx="1064.53" cy="521.722" r="5"/>
<text fill="#000000" x="503.056" y="906.921" font-size="12" text-anchor="start" dy="0" font-family="Helvetica">PC2 (23.2%)</text>
<text fill="#000000" x="1419.85" y="808.037" font-size="12" text-anchor="start" dy="0" font-family="Helvetica">PC3 (13.3%)</text>
<polygon fill="#e41a1c" fill-opacity="0.298039" shape-rendering="crispEdges" points="826.688,493.863 698.217,780.952 1064.53,521.722"/>
<polygon fill="#e41a1c" fill-opacity="0.298039" shape-rendering="crispEdges" points="826.688,493.863 875.363,266.504 1064.53,521.722"/>
<polygon fill="#e41a1c" fill-opacity="0.298039" shape-rendering="crispEdges" points="802.744,448.894 826.688,493.863 698.217,780.952"/>
<polygon fill="#e41a1c" fill-opacity="0.298039" shape-rendering="crispEdges" points="802.744,448.894 826.688,493.863 875.363,266.504"/>
<polygon fill="#e41a1c" fill-opacity="0.298039" shape-rendering="crispEdges" points="828.963,785.524 698.217,780.952 1064.53,521.722"/>
<polygon fill="#e41a1c" fill-opacity="0.298039" shape-rendering="crispEdges" points="875.363,266.504 1064.53,521.722 1011.44,595.586"/>
<polygon fill="#1874cd" fill-opacity="0.298039" shape-rendering="crispEdges" points="1001.9,691.368 1156.45,414.384 956.457,535.09"/>
<polygon fill="#e41a1c" fill-opacity="0.298039" shape-rendering="crispEdges" points="828.963,785.524 1064.53,521.722 1011.44,595.586"/>
<polygon fill="#1c86ee" fill-opacity="0.298039" shape-rendering="crispEdges" points="962.708,704.935 1126.59,613.42 1087.35,474.158"/>
<polygon fill="#1874cd" fill-opacity="0.298039" shape-rendering="crispEdges" points="1001.9,691.368 1156.45,414.384 1022.64,804.209"/>
<polygon fill="#e41a1c" fill-opacity="0.298039" shape-rendering="crispEdges" points="802.744,448.894 698.217,780.952 597.128,590.824"/>
<polygon fill="#1874cd" fill-opacity="0.298039" shape-rendering="crispEdges" points="1095.21,659.28 1156.45,414.384 1022.64,804.209"/>
<polygon fill="#e41a1c" fill-opacity="0.298039" shape-rendering="crispEdges" points="802.744,448.894 875.363,266.504 597.128,590.824"/>
<polygon fill="#1874cd" fill-opacity="0.298039" shape-rendering="crispEdges" points="1001.9,691.368 1022.64,804.209 956.457,535.09"/>
<polygon fill="#4daf4a" fill-opacity="0.298039" shape-rendering="crispEdges" points="907.306,361.462 978.331,484.571 825.314,561.721"/>
<polygon fill="#1874cd" fill-opacity="0.298039" shape-rendering="crispEdges" points="1156.45,414.384 956.457,535.09 1175.3,440.395"/>
<polygon fill="#e41a1c" fill-opacity="0.298039" shape-rendering="crispEdges" points="828.963,785.524 698.217,780.952 597.128,590.824"/>
<polygon fill="#1874cd" fill-opacity="0.298039" shape-rendering="crispEdges" points="1095.21,659.28 1156.45,414.384 1175.3,440.395"/>
<polygon fill="#4daf4a" fill-opacity="0.298039" shape-rendering="crispEdges" points="907.306,361.462 978.331,484.571 923.921,701.18"/>
<polygon fill="#1874cd" fill-opacity="0.298039" shape-rendering="crispEdges" points="1022.64,804.209 956.457,535.09 1175.3,440.395"/>
<polygon fill="#4daf4a" fill-opacity="0.298039" shape-rendering="crispEdges" points="978.331,484.571 825.314,561.721 923.921,701.18"/>
<polygon fill="#1874cd" fill-opacity="0.298039" shape-rendering="crispEdges" points="1095.21,659.28 1022.64,804.209 1175.3,440.395"/>
<polygon fill="#e41a1c" fill-opacity="0.298039" shape-rendering="crispEdges" points="875.363,266.504 597.128,590.824 1011.44,595.586"/>
<polygon fill="#e41a1c" fill-opacity="0.298039" shape-rendering="crispEdges" points="828.963,785.524 597.128,590.824 1011.44,595.586"/>
<polygon fill="#4daf4a" fill-opacity="0.298039" shape-rendering="crispEdges" points="907.306,361.462 825.314,561.721 923.921,701.18"/>
</g>
</svg>
