<?xml version="1.0" encoding="UTF-8" standalone="no"?>
<svg xmlns="http://www.w3.org/2000/svg"
     xmlns:xlink="http://www.w3.org/1999/xlink"
     width="1920pt" height="1129pt" viewBox="0 0 1920 1129">
<title>D:/3D_GM/Projects/UW105/Results/Taxonomic_assessment/UW105-966/ULC_shape_PCA.svg</title>
<desc>
Creator: GL2PS 1.4.2, (C) 1999-2020 C. Geuzaine
For: Generated by rgl
CreationDate: Tue Jan  6 16:26:30 2026
</desc>
<defs>
</defs>
<g>
<polygon fill="#ffffff" shape-rendering="crispEdges" points="0,1129 1920,1129 1920,0"/>
<polygon fill="#ffffff" shape-rendering="crispEdges" points="0,1129 1920,0 0,0"/>
<polyline fill="none" stroke="#000000" stroke-width="1" stroke-linecap="butt" stroke-linejoin="miter" points="1290.96,601.304 789.28,595.526"/>
<polyline fill="none" stroke="#000000" stroke-width="1" stroke-linecap="butt" stroke-linejoin="miter" points="789.28,595.526 720.662,199.36"/>
<polyline fill="none" stroke="#000000" stroke-width="1" stroke-linecap="butt" stroke-linejoin="miter" points="720.662,199.36 1222.34,205.138"/>
<polyline fill="none" stroke="#000000" stroke-width="1" stroke-linecap="butt" stroke-linejoin="miter" points="1222.34,205.138 1290.96,601.304"/>
<polyline fill="none" stroke="#000000" stroke-width="1" stroke-linecap="butt" stroke-linejoin="miter" points="789.28,595.526 697.657,923.862 629.04,527.696"/>
<polyline fill="none" stroke="#000000" stroke-width="1" stroke-linecap="butt" stroke-linejoin="miter" points="629.04,527.696 720.662,199.36"/>
<polyline fill="none" stroke="#000000" stroke-width="1" stroke-linecap="butt" stroke-linejoin="miter" points="720.662,199.36 789.28,595.526"/>
<polyline fill="none" stroke="#000000" stroke-width="1" stroke-linecap="butt" stroke-linejoin="miter" points="1199.34,929.64 697.657,923.862"/>
<polyline fill="none" stroke="#000000" stroke-width="1" stroke-linecap="butt" stroke-linejoin="miter" points="697.657,923.862 789.28,595.526"/>
<polyline fill="none" stroke="#000000" stroke-width="1" stroke-linecap="butt" stroke-linejoin="miter" points="789.28,595.526 1290.96,601.304"/>
<polyline fill="none" stroke="#000000" stroke-width="1" stroke-linecap="butt" stroke-linejoin="miter" points="1290.96,601.304 1199.34,929.64"/>
<polyline fill="none" stroke="#000000" stroke-width="1" stroke-linecap="butt" stroke-linejoin="miter" points="1128.77,928.827 1122.67,950.716"/>
<text fill="#000000" x="1105.76" y="978.605" font-size="12" text-anchor="start" dy="0" font-family="Helvetica">-0.1</text>
<polyline fill="none" stroke="#000000" stroke-width="1" stroke-linecap="butt" stroke-linejoin="miter" points="1024.82,927.63 1018.71,949.519"/>
<text fill="#000000" x="998.202" y="977.408" font-size="12" text-anchor="start" dy="0" font-family="Helvetica">-0.05</text>
<polyline fill="none" stroke="#000000" stroke-width="1" stroke-linecap="butt" stroke-linejoin="miter" points="920.862,926.433 914.754,948.322"/>
<text fill="#000000" x="905.046" y="976.211" font-size="12" text-anchor="start" dy="0" font-family="Helvetica">0</text>
<polyline fill="none" stroke="#000000" stroke-width="1" stroke-linecap="butt" stroke-linejoin="miter" points="816.906,925.236 810.798,947.125"/>
<text fill="#000000" x="792.29" y="975.014" font-size="12" text-anchor="start" dy="0" font-family="Helvetica">0.05</text>
<polyline fill="none" stroke="#000000" stroke-width="1" stroke-linecap="butt" stroke-linejoin="miter" points="712.951,924.039 706.842,945.928"/>
<text fill="#000000" x="691.935" y="973.817" font-size="12" text-anchor="start" dy="0" font-family="Helvetica">0.1</text>
<polyline fill="none" stroke="#000000" stroke-width="1" stroke-linecap="butt" stroke-linejoin="miter" points="696.616,917.847 690.507,939.736"/>
<text fill="#000000" x="673.6" y="967.625" font-size="12" text-anchor="start" dy="0" font-family="Helvetica">-0.1</text>
<polyline fill="none" stroke="#000000" stroke-width="1" stroke-linecap="butt" stroke-linejoin="miter" points="680.385,824.142 674.277,846.031"/>
<text fill="#000000" x="653.769" y="873.92" font-size="12" text-anchor="start" dy="0" font-family="Helvetica">-0.05</text>
<polyline fill="none" stroke="#000000" stroke-width="1" stroke-linecap="butt" stroke-linejoin="miter" points="664.155,730.437 658.047,752.326"/>
<text fill="#000000" x="648.339" y="780.215" font-size="12" text-anchor="start" dy="0" font-family="Helvetica">0</text>
<polyline fill="none" stroke="#000000" stroke-width="1" stroke-linecap="butt" stroke-linejoin="miter" points="647.925,636.731 641.817,658.621"/>
<text fill="#000000" x="623.309" y="686.51" font-size="12" text-anchor="start" dy="0" font-family="Helvetica">0.05</text>
<polyline fill="none" stroke="#000000" stroke-width="1" stroke-linecap="butt" stroke-linejoin="miter" points="631.695,543.026 625.587,564.916"/>
<text fill="#000000" x="610.679" y="592.805" font-size="12" text-anchor="start" dy="0" font-family="Helvetica">0.1</text>
<polyline fill="none" stroke="#000000" stroke-width="1" stroke-linecap="butt" stroke-linejoin="miter" points="1201.05,923.503 1234.5,923.888"/>
<text fill="#000000" x="1267.78" y="930.273" font-size="12" text-anchor="start" dy="0" font-family="Helvetica">-0.06</text>
<polyline fill="none" stroke="#000000" stroke-width="1" stroke-linecap="butt" stroke-linejoin="miter" points="1215.3,872.438 1248.75,872.824"/>
<text fill="#000000" x="1282.02" y="879.209" font-size="12" text-anchor="start" dy="0" font-family="Helvetica">-0.04</text>
<polyline fill="none" stroke="#000000" stroke-width="1" stroke-linecap="butt" stroke-linejoin="miter" points="1229.55,821.375 1263,821.759"/>
<text fill="#000000" x="1296.27" y="828.145" font-size="12" text-anchor="start" dy="0" font-family="Helvetica">-0.02</text>
<polyline fill="none" stroke="#000000" stroke-width="1" stroke-linecap="butt" stroke-linejoin="miter" points="1243.8,770.31 1277.24,770.695"/>
<text fill="#000000" x="1310.65" y="777.081" font-size="12" text-anchor="start" dy="0" font-family="Helvetica">0</text>
<polyline fill="none" stroke="#000000" stroke-width="1" stroke-linecap="butt" stroke-linejoin="miter" points="1258.05,719.246 1291.49,719.631"/>
<text fill="#000000" x="1324.8" y="726.016" font-size="12" text-anchor="start" dy="0" font-family="Helvetica">0.02</text>
<polyline fill="none" stroke="#000000" stroke-width="1" stroke-linecap="butt" stroke-linejoin="miter" points="1272.3,668.182 1305.74,668.567"/>
<text fill="#000000" x="1339.05" y="674.952" font-size="12" text-anchor="start" dy="0" font-family="Helvetica">0.04</text>
<polyline fill="none" stroke="#000000" stroke-width="1" stroke-linecap="butt" stroke-linejoin="miter" points="1286.55,617.117 1319.99,617.502"/>
<text fill="#000000" x="1353.3" y="623.888" font-size="12" text-anchor="start" dy="0" font-family="Helvetica">0.06</text>
<polyline fill="none" stroke="#000000" stroke-width="1" stroke-linecap="butt" stroke-linejoin="miter" points="1199.34,929.64 1199.34,929.64"/>
<polyline fill="none" stroke="#000000" stroke-width="1" stroke-linecap="butt" stroke-linejoin="miter" points="720.662,199.36 720.662,199.36"/>
<circle fill="#000000" cx="1049.63" cy="881.251" r="5"/>
<circle fill="#e41a1c" cx="823.437" cy="539.891" r="5"/>
<circle fill="#e41a1c" cx="849.915" cy="731.75" r="5"/>
<circle fill="#e41a1c" cx="722.542" cy="749.66" r="5"/>
<circle fill="#4daf4a" cx="927.673" cy="378.813" r="5"/>
<circle fill="#4daf4a" cx="953.956" cy="635.387" r="5"/>
<circle fill="#e41a1c" cx="804.121" cy="494.679" r="5"/>
<circle fill="#e41a1c" cx="1010.85" cy="562.375" r="5"/>
<circle fill="#e41a1c" cx="886.113" cy="333.822" r="5"/>
<circle fill="#4daf4a" cx="946.459" cy="494.398" r="5"/>
<circle fill="#4daf4a" cx="964.15" cy="507.523" r="5"/>
<circle fill="#4daf4a" cx="854.946" cy="534.993" r="5"/>
<circle fill="#1874cd" cx="986.091" cy="665.983" r="5"/>
<circle fill="#1874cd" cx="1071.42" cy="636.143" r="5"/>
<circle fill="#1874cd" cx="1166.99" cy="423.776" r="5"/>
<circle fill="#1874cd" cx="1005.22" cy="749.49" r="5"/>
<circle fill="#1874cd" cx="1113.3" cy="455.482" r="5"/>
<circle fill="#1874cd" cx="952.207" cy="539.409" r="5"/>
<circle fill="#e41a1c" cx="781.863" cy="627.681" r="5"/>
<circle fill="#e41a1c" cx="685.271" cy="532.207" r="5"/>
<circle fill="#e41a1c" cx="1012.1" cy="572.511" r="5"/>
<text fill="#000000" x="892.24" y="1046.72" font-size="12" text-anchor="start" dy="0" font-family="Helvetica">PC1 (33.4%)</text>
<text fill="#000000" x="569.071" y="818.95" font-size="12" text-anchor="start" dy="0" font-family="Helvetica">PC2 (24.3%)</text>
<text fill="#000000" x="1347.11" y="799.424" font-size="12" text-anchor="start" dy="0" font-family="Helvetica">PC3 (13.5%)</text>
<text fill="#000000" x="958.497" y="576.911" font-size="8" text-anchor="start" dy="0" font-family="Helvetica">STW252_ULC</text>
<text fill="#000000" x="768.236" y="544.291" font-size="8" text-anchor="start" dy="0" font-family="Helvetica">AL199-1_URC</text>
<polygon fill="#e41a1c" fill-opacity="0.298039" shape-rendering="crispEdges" points="823.437,539.891 1012.1,572.511 886.113,333.822"/>
<text fill="#000000" x="767.321" y="499.079" font-size="8" text-anchor="start" dy="0" font-family="Helvetica">LH5_URC</text>
<polygon fill="#e41a1c" fill-opacity="0.298039" shape-rendering="crispEdges" points="804.121,494.679 823.437,539.891 886.113,333.822"/>
<polygon fill="#e41a1c" fill-opacity="0.298039" shape-rendering="crispEdges" points="823.437,539.891 1012.1,572.511 722.542,749.66"/>
<polygon fill="#e41a1c" fill-opacity="0.298039" shape-rendering="crispEdges" points="804.121,494.679 823.437,539.891 722.542,749.66"/>
<text fill="#000000" x="1051.7" y="459.882" font-size="8" text-anchor="start" dy="0" font-family="Helvetica">SKX25296_ULC</text>
<text fill="#000000" x="823.713" y="338.222" font-size="8" text-anchor="start" dy="0" font-family="Helvetica">MLD11_30_URC</text>
<text fill="#000000" x="920.95" y="511.923" font-size="8" text-anchor="start" dy="0" font-family="Helvetica">OH39_URC</text>
<polygon fill="#e41a1c" fill-opacity="0.298039" shape-rendering="crispEdges" points="1012.1,572.511 886.113,333.822 1010.85,562.375"/>
<polygon fill="#e41a1c" fill-opacity="0.298039" shape-rendering="crispEdges" points="849.915,731.75 1012.1,572.511 722.542,749.66"/>
<polygon fill="#1874cd" fill-opacity="0.298039" shape-rendering="crispEdges" points="986.091,665.983 1113.3,455.482 952.207,539.409"/>
<text fill="#000000" x="889.807" y="543.809" font-size="8" text-anchor="start" dy="0" font-family="Helvetica">SKX28724_URC</text>
<polygon fill="#e41a1c" fill-opacity="0.298039" shape-rendering="crispEdges" points="849.915,731.75 1012.1,572.511 1010.85,562.375"/>
<text fill="#000000" x="662.542" y="754.06" font-size="8" text-anchor="start" dy="0" font-family="Helvetica">AL417-1d_URC</text>
<polygon fill="#1874cd" fill-opacity="0.298039" shape-rendering="crispEdges" points="986.091,665.983 1113.3,455.482 1005.22,749.49"/>
<polygon fill="#1874cd" fill-opacity="0.298039" shape-rendering="crispEdges" points="1071.42,636.143 1113.3,455.482 1005.22,749.49"/>
<polygon fill="#1874cd" fill-opacity="0.298039" shape-rendering="crispEdges" points="1113.3,455.482 952.207,539.409 1166.99,423.776"/>
<text fill="#000000" x="903.259" y="498.798" font-size="8" text-anchor="start" dy="0" font-family="Helvetica">OH15_URC</text>
<polygon fill="#e41a1c" fill-opacity="0.298039" shape-rendering="crispEdges" points="804.121,494.679 886.113,333.822 685.271,532.207"/>
<text fill="#000000" x="729.863" y="632.081" font-size="8" text-anchor="start" dy="0" font-family="Helvetica">STS52a_URC</text>
<polygon fill="#1874cd" fill-opacity="0.298039" shape-rendering="crispEdges" points="986.091,665.983 1005.22,749.49 952.207,539.409"/>
<text fill="#000000" x="948.491" y="670.383" font-size="8" text-anchor="start" dy="0" font-family="Helvetica">SK4_URC</text>
<polygon fill="#1874cd" fill-opacity="0.298039" shape-rendering="crispEdges" points="1071.42,636.143 1113.3,455.482 1166.99,423.776"/>
<polygon fill="#4daf4a" fill-opacity="0.298039" shape-rendering="crispEdges" points="927.673,378.813 964.15,507.523 854.946,534.993"/>
<text fill="#000000" x="1024.22" y="640.542" font-size="8" text-anchor="start" dy="0" font-family="Helvetica">SK65a_URC</text>
<polygon fill="#e41a1c" fill-opacity="0.298039" shape-rendering="crispEdges" points="804.121,494.679 685.271,532.207 722.542,749.66"/>
<text fill="#000000" x="1002.43" y="885.651" font-size="8" text-anchor="start" dy="0" font-family="Helvetica">UW105_966</text>
<text fill="#000000" x="855.673" y="383.213" font-size="8" text-anchor="start" dy="0" font-family="Helvetica">KNM-ER1813_URC</text>
<text fill="#000000" x="952.417" y="753.89" font-size="8" text-anchor="start" dy="0" font-family="Helvetica">SKX162_URC</text>
<polygon fill="#1874cd" fill-opacity="0.298039" shape-rendering="crispEdges" points="1005.22,749.49 952.207,539.409 1166.99,423.776"/>
<polygon fill="#4daf4a" fill-opacity="0.298039" shape-rendering="crispEdges" points="927.673,378.813 964.15,507.523 953.956,635.387"/>
<text fill="#000000" x="790.714" y="736.15" font-size="8" text-anchor="start" dy="0" font-family="Helvetica">AL200-1a_ULC</text>
<polygon fill="#1874cd" fill-opacity="0.298039" shape-rendering="crispEdges" points="1071.42,636.143 1005.22,749.49 1166.99,423.776"/>
<polygon fill="#4daf4a" fill-opacity="0.298039" shape-rendering="crispEdges" points="964.15,507.523 854.946,534.993 953.956,635.387"/>
<polygon fill="#e41a1c" fill-opacity="0.298039" shape-rendering="crispEdges" points="886.113,333.822 685.271,532.207 1010.85,562.375"/>
<polygon fill="#e41a1c" fill-opacity="0.298039" shape-rendering="crispEdges" points="849.915,731.75 685.271,532.207 722.542,749.66"/>
<text fill="#000000" x="811.746" y="539.393" font-size="8" text-anchor="start" dy="0" font-family="Helvetica">OH62_URC</text>
<text fill="#000000" x="967.653" y="566.775" font-size="8" text-anchor="start" dy="0" font-family="Helvetica">MH1_URC1</text>
<polygon fill="#4daf4a" fill-opacity="0.298039" shape-rendering="crispEdges" points="927.673,378.813 854.946,534.993 953.956,635.387"/>
<text fill="#000000" x="1125.39" y="428.176" font-size="8" text-anchor="start" dy="0" font-family="Helvetica">SK93_ULC</text>
<polygon fill="#e41a1c" fill-opacity="0.298039" shape-rendering="crispEdges" points="849.915,731.75 685.271,532.207 1010.85,562.375"/>
<text fill="#000000" x="871.556" y="639.787" font-size="8" text-anchor="start" dy="0" font-family="Helvetica">KNM-ER_1590D_URC</text>
<text fill="#000000" x="630.871" y="536.606" font-size="8" text-anchor="start" dy="0" font-family="Helvetica">STW126_URC</text>
</g>
</svg>
