<?xml version="1.0" encoding="UTF-8" standalone="no"?>
<svg xmlns="http://www.w3.org/2000/svg"
     xmlns:xlink="http://www.w3.org/1999/xlink"
     width="2048pt" height="1081pt" viewBox="0 0 2048 1081">
<title>D:/3D_GM/Projects/UW105/Results/Taxonomic_assessment/UW105-966/UW105_966_shape_PCA_w_naledi_labelled.svg</title>
<desc>
Creator: GL2PS 1.4.2, (C) 1999-2020 C. Geuzaine
For: Generated by rgl
CreationDate: Fri Jan 23 15:28:01 2026
</desc>
<defs>
</defs>
<g>
<polygon fill="#ffffff" shape-rendering="crispEdges" points="0,1081 2048,1081 2048,0"/>
<polygon fill="#ffffff" shape-rendering="crispEdges" points="0,1081 2048,0 0,0"/>
<polyline fill="none" stroke="#000000" stroke-width="1" stroke-linecap="butt" stroke-linejoin="miter" points="922.263,198.956 1298.89,278.852"/>
<polyline fill="none" stroke="#000000" stroke-width="1" stroke-linecap="butt" stroke-linejoin="miter" points="1298.89,278.852 1358.75,656.018"/>
<polyline fill="none" stroke="#000000" stroke-width="1" stroke-linecap="butt" stroke-linejoin="miter" points="1358.75,656.018 982.117,576.122"/>
<polyline fill="none" stroke="#000000" stroke-width="1" stroke-linecap="butt" stroke-linejoin="miter" points="982.117,576.122 922.263,198.956"/>
<polyline fill="none" stroke="#000000" stroke-width="1" stroke-linecap="butt" stroke-linejoin="miter" points="922.263,198.956 982.117,576.122"/>
<polyline fill="none" stroke="#000000" stroke-width="1" stroke-linecap="butt" stroke-linejoin="miter" points="982.117,576.122 749.107,802.148"/>
<polyline fill="none" stroke="#000000" stroke-width="1" stroke-linecap="butt" stroke-linejoin="miter" points="749.107,802.148 689.253,424.982"/>
<polyline fill="none" stroke="#000000" stroke-width="1" stroke-linecap="butt" stroke-linejoin="miter" points="689.253,424.982 922.263,198.956"/>
<polyline fill="none" stroke="#000000" stroke-width="1" stroke-linecap="butt" stroke-linejoin="miter" points="982.117,576.122 1358.75,656.018"/>
<polyline fill="none" stroke="#000000" stroke-width="1" stroke-linecap="butt" stroke-linejoin="miter" points="1358.75,656.018 1125.74,882.044"/>
<polyline fill="none" stroke="#000000" stroke-width="1" stroke-linecap="butt" stroke-linejoin="miter" points="1125.74,882.044 749.107,802.148"/>
<polyline fill="none" stroke="#000000" stroke-width="1" stroke-linecap="butt" stroke-linejoin="miter" points="749.107,802.148 982.117,576.122"/>
<polyline fill="none" stroke="#000000" stroke-width="1" stroke-linecap="butt" stroke-linejoin="miter" points="779.745,808.647 764.211,823.716"/>
<text fill="#000000" x="737.554" y="844.784" font-size="12" text-anchor="start" dy="0" font-family="Helvetica">-0.1</text>
<polyline fill="none" stroke="#000000" stroke-width="1" stroke-linecap="butt" stroke-linejoin="miter" points="880.801,830.085 865.268,845.153"/>
<text fill="#000000" x="846.025" y="866.222" font-size="12" text-anchor="start" dy="0" font-family="Helvetica">0</text>
<polyline fill="none" stroke="#000000" stroke-width="1" stroke-linecap="butt" stroke-linejoin="miter" points="981.858,851.522 966.324,866.591"/>
<text fill="#000000" x="941.727" y="887.66" font-size="12" text-anchor="start" dy="0" font-family="Helvetica">0.1</text>
<polyline fill="none" stroke="#000000" stroke-width="1" stroke-linecap="butt" stroke-linejoin="miter" points="1082.91,872.96 1067.38,888.029"/>
<text fill="#000000" x="1042.78" y="909.097" font-size="12" text-anchor="start" dy="0" font-family="Helvetica">0.2</text>
<polyline fill="none" stroke="#000000" stroke-width="1" stroke-linecap="butt" stroke-linejoin="miter" points="694.593,458.634 679.06,473.702"/>
<text fill="#000000" x="652.402" y="494.771" font-size="12" text-anchor="start" dy="0" font-family="Helvetica">-0.1</text>
<polyline fill="none" stroke="#000000" stroke-width="1" stroke-linecap="butt" stroke-linejoin="miter" points="705.539,527.604 690.005,542.672"/>
<text fill="#000000" x="659.639" y="563.741" font-size="12" text-anchor="start" dy="0" font-family="Helvetica">-0.05</text>
<polyline fill="none" stroke="#000000" stroke-width="1" stroke-linecap="butt" stroke-linejoin="miter" points="716.484,596.573 700.95,611.642"/>
<text fill="#000000" x="681.708" y="632.71" font-size="12" text-anchor="start" dy="0" font-family="Helvetica">0</text>
<polyline fill="none" stroke="#000000" stroke-width="1" stroke-linecap="butt" stroke-linejoin="miter" points="727.429,665.543 711.895,680.612"/>
<text fill="#000000" x="683.589" y="701.68" font-size="12" text-anchor="start" dy="0" font-family="Helvetica">0.05</text>
<polyline fill="none" stroke="#000000" stroke-width="1" stroke-linecap="butt" stroke-linejoin="miter" points="738.374,734.513 722.84,749.582"/>
<text fill="#000000" x="698.242" y="770.65" font-size="12" text-anchor="start" dy="0" font-family="Helvetica">0.1</text>
<polyline fill="none" stroke="#000000" stroke-width="1" stroke-linecap="butt" stroke-linejoin="miter" points="1182.92,826.571 1208.03,831.897"/>
<text fill="#000000" x="1230.09" y="843.224" font-size="12" text-anchor="start" dy="0" font-family="Helvetica">-0.05</text>
<polyline fill="none" stroke="#000000" stroke-width="1" stroke-linecap="butt" stroke-linejoin="miter" points="1248.17,763.279 1273.28,768.605"/>
<text fill="#000000" x="1297.63" y="779.932" font-size="12" text-anchor="start" dy="0" font-family="Helvetica">0</text>
<polyline fill="none" stroke="#000000" stroke-width="1" stroke-linecap="butt" stroke-linejoin="miter" points="1313.42,699.986 1338.53,705.313"/>
<text fill="#000000" x="1361.01" y="716.639" font-size="12" text-anchor="start" dy="0" font-family="Helvetica">0.05</text>
<polyline fill="none" stroke="#000000" stroke-width="1" stroke-linecap="butt" stroke-linejoin="miter" points="689.253,424.982 689.253,424.982"/>
<polyline fill="none" stroke="#000000" stroke-width="1" stroke-linecap="butt" stroke-linejoin="miter" points="1358.75,656.018 1358.75,656.018"/>
<circle fill="#000000" cx="741.318" cy="599.229" r="5"/>
<circle fill="#e41a1c" cx="952.838" cy="333.183" r="5"/>
<circle fill="#e41a1c" cx="876.511" cy="503.83" r="5"/>
<circle fill="#e41a1c" cx="879.274" cy="389.515" r="5"/>
<circle fill="#1874cd" cx="876.326" cy="510.694" r="5"/>
<circle fill="#1874cd" cx="883.547" cy="554.537" r="5"/>
<circle fill="#1874cd" cx="940.844" cy="494.534" r="5"/>
<circle fill="#4daf4a" cx="1055.82" cy="489.819" r="5"/>
<circle fill="#4daf4a" cx="926.154" cy="607.823" r="5"/>
<circle fill="#e41a1c" cx="981.89" cy="326.932" r="5"/>
<circle fill="#e41a1c" cx="937.965" cy="577.216" r="5"/>
<circle fill="#e41a1c" cx="1073.09" cy="384.075" r="5"/>
<circle fill="#4daf4a" cx="978.894" cy="489.504" r="5"/>
<circle fill="#4daf4a" cx="956.267" cy="453.758" r="5"/>
<circle fill="#4daf4a" cx="986.475" cy="489.622" r="5"/>
<circle fill="#1874cd" cx="874.522" cy="528.834" r="5"/>
<circle fill="#1874cd" cx="872.976" cy="574.083" r="5"/>
<circle fill="#1874cd" cx="996.432" cy="662.197" r="5"/>
<circle fill="#1874cd" cx="825.479" cy="565.794" r="5"/>
<circle fill="#1874cd" cx="950.617" cy="504.185" r="5"/>
<circle fill="#1874cd" cx="942.677" cy="478.648" r="5"/>
<circle fill="#e41a1c" cx="936.67" cy="411.526" r="5"/>
<circle fill="#e41a1c" cx="1047.33" cy="483.966" r="5"/>
<circle fill="#e41a1c" cx="887.6" cy="399.54" r="5"/>
<circle fill="#8b864e" cx="1144.51" cy="611.13" r="5"/>
<circle fill="#8b864e" cx="1142.58" cy="549.584" r="5"/>
<circle fill="#8b864e" cx="1172.19" cy="580.411" r="5"/>
<circle fill="#8b864e" cx="1141.57" cy="549.763" r="5"/>
<circle fill="#8b864e" cx="1165.39" cy="562.662" r="5"/>
<text fill="#000000" x="842.877" y="933.515" font-size="12" text-anchor="start" dy="0" font-family="Helvetica">PC1 (59.5%)</text>
<text fill="#000000" x="595.536" y="674.512" font-size="12" text-anchor="start" dy="0" font-family="Helvetica">PC2 (15.6%)</text>
<text fill="#000000" x="1313.87" y="821.481" font-size="12" text-anchor="start" dy="0" font-family="Helvetica">PC3 (7.6%)</text>
<text fill="#000000" x="889.017" y="508.585" font-size="8" text-anchor="start" dy="0" font-family="Helvetica">SKX25296_ULC</text>
<text fill="#000000" x="954.832" y="666.597" font-size="8" text-anchor="start" dy="0" font-family="Helvetica">SK93_ULC</text>
<polygon fill="#1874cd" fill-opacity="0.298039" shape-rendering="crispEdges" points="950.617,504.185 996.432,662.197 883.547,554.537"/>
<polygon fill="#1874cd" fill-opacity="0.298039" shape-rendering="crispEdges" points="942.677,478.648 950.617,504.185 996.432,662.197"/>
<text fill="#000000" x="888.844" y="498.934" font-size="8" text-anchor="start" dy="0" font-family="Helvetica">DNH108_ULC</text>
<text fill="#000000" x="1010.69" y="388.475" font-size="8" text-anchor="start" dy="0" font-family="Helvetica">MLD11_30_URC</text>
<polygon fill="#1874cd" fill-opacity="0.298039" shape-rendering="crispEdges" points="940.844,494.534 942.677,478.648 950.617,504.185"/>
<polygon fill="#1874cd" fill-opacity="0.298039" shape-rendering="crispEdges" points="872.976,574.083 996.432,662.197 883.547,554.537"/>
<text fill="#000000" x="834" y="403.939" font-size="8" text-anchor="start" dy="0" font-family="Helvetica">STW252_ULC</text>
<text fill="#000000" x="983.82" y="494.219" font-size="8" text-anchor="start" dy="0" font-family="Helvetica">KNM-ER1813_URC</text>
<polygon fill="#e41a1c" fill-opacity="0.298039" shape-rendering="crispEdges" points="1073.09,384.075 937.965,577.216 887.6,399.54"/>
<polygon fill="#1874cd" fill-opacity="0.298039" shape-rendering="crispEdges" points="940.844,494.534 825.479,565.794 950.617,504.185"/>
<text fill="#000000" x="836.347" y="558.937" font-size="8" text-anchor="start" dy="0" font-family="Helvetica">DNH73_ULC</text>
<polygon fill="#e41a1c" fill-opacity="0.298039" shape-rendering="crispEdges" points="981.89,326.932 1073.09,384.075 887.6,399.54"/>
<polygon fill="#1874cd" fill-opacity="0.298039" shape-rendering="crispEdges" points="825.479,565.794 950.617,504.185 883.547,554.537"/>
<text fill="#000000" x="913.066" y="458.158" font-size="8" text-anchor="start" dy="0" font-family="Helvetica">OH39_URC</text>
<polygon fill="#1874cd" fill-opacity="0.298039" shape-rendering="crispEdges" points="942.677,478.648 876.326,510.694 996.432,662.197"/>
<polygon fill="#1874cd" fill-opacity="0.298039" shape-rendering="crispEdges" points="872.976,574.083 825.479,565.794 996.432,662.197"/>
<text fill="#000000" x="894.765" y="581.616" font-size="8" text-anchor="start" dy="0" font-family="Helvetica">MH1_URC1</text>
<polygon fill="#4daf4a" fill-opacity="0.298039" shape-rendering="crispEdges" points="986.475,489.622 1055.82,489.819 956.267,453.758"/>
<text fill="#000000" x="825.776" y="578.482" font-size="8" text-anchor="start" dy="0" font-family="Helvetica">SK65a_URC</text>
<polygon fill="#1874cd" fill-opacity="0.298039" shape-rendering="crispEdges" points="940.844,494.534 942.677,478.648 876.326,510.694"/>
<text fill="#000000" x="935.694" y="493.904" font-size="8" text-anchor="start" dy="0" font-family="Helvetica">OH15_URC</text>
<polygon fill="#4daf4a" fill-opacity="0.298039" shape-rendering="crispEdges" points="926.154,607.823 1055.82,489.819 956.267,453.758"/>
<text fill="#000000" x="880.277" y="483.048" font-size="8" text-anchor="start" dy="0" font-family="Helvetica">SKX28724_URC</text>
<polygon fill="#e41a1c" fill-opacity="0.298039" shape-rendering="crispEdges" points="952.838,333.183 981.89,326.932 887.6,399.54"/>
<polygon fill="#1874cd" fill-opacity="0.298039" shape-rendering="crispEdges" points="825.479,565.794 876.326,510.694 996.432,662.197"/>
<polygon fill="#1874cd" fill-opacity="0.298039" shape-rendering="crispEdges" points="872.976,574.083 825.479,565.794 883.547,554.537"/>
<polygon fill="#1874cd" fill-opacity="0.298039" shape-rendering="crispEdges" points="940.844,494.534 825.479,565.794 876.326,510.694"/>
<text fill="#000000" x="945.09" y="331.332" font-size="8" text-anchor="start" dy="0" font-family="Helvetica">LH5_URC</text>
<polygon fill="#e41a1c" fill-opacity="0.298039" shape-rendering="crispEdges" points="1073.09,384.075 937.965,577.216 1047.33,483.966"/>
<polygon fill="#4daf4a" fill-opacity="0.298039" shape-rendering="crispEdges" points="926.154,607.823 986.475,489.622 1055.82,489.819"/>
<polygon fill="#e41a1c" fill-opacity="0.298039" shape-rendering="crispEdges" points="876.511,503.83 937.965,577.216 887.6,399.54"/>
<polygon fill="#4daf4a" fill-opacity="0.298039" shape-rendering="crispEdges" points="926.154,607.823 986.475,489.622 956.267,453.758"/>
<polygon fill="#e41a1c" fill-opacity="0.298039" shape-rendering="crispEdges" points="981.89,326.932 1073.09,384.075 1047.33,483.966"/>
<text fill="#000000" x="897.638" y="337.583" font-size="8" text-anchor="start" dy="0" font-family="Helvetica">AL199-1_URC</text>
<text fill="#000000" x="836.922" y="533.234" font-size="8" text-anchor="start" dy="0" font-family="Helvetica">SK4_URC</text>
<text fill="#000000" x="943.274" y="494.022" font-size="8" text-anchor="start" dy="0" font-family="Helvetica">OH62_URC</text>
<polygon fill="#e41a1c" fill-opacity="0.298039" shape-rendering="crispEdges" points="952.838,333.183 879.274,389.515 887.6,399.54"/>
<text fill="#000000" x="833.926" y="515.094" font-size="8" text-anchor="start" dy="0" font-family="Helvetica">DNH7_ULC</text>
<text fill="#000000" x="843.754" y="612.223" font-size="8" text-anchor="start" dy="0" font-family="Helvetica">KNM-ER_1590D_URC</text>
<text fill="#000000" x="772.68" y="570.194" font-size="8" text-anchor="start" dy="0" font-family="Helvetica">SKX162_URC</text>
<polygon fill="#e41a1c" fill-opacity="0.298039" shape-rendering="crispEdges" points="952.838,333.183 981.89,326.932 879.274,389.515"/>
<polygon fill="#e41a1c" fill-opacity="0.298039" shape-rendering="crispEdges" points="876.511,503.83 937.965,577.216 1047.33,483.966"/>
<polygon fill="#e41a1c" fill-opacity="0.298039" shape-rendering="crispEdges" points="876.511,503.83 879.274,389.515 887.6,399.54"/>
<text fill="#000000" x="884.67" y="415.926" font-size="8" text-anchor="start" dy="0" font-family="Helvetica">STS52a_URC</text>
<text fill="#000000" x="1073.57" y="554.163" font-size="8" text-anchor="start" dy="0" font-family="Helvetica">UW101_706_ULC</text>
<text fill="#000000" x="694.118" y="603.628" font-size="8" text-anchor="start" dy="0" font-family="Helvetica">UW105_966</text>
<polygon fill="#e41a1c" fill-opacity="0.298039" shape-rendering="crispEdges" points="981.89,326.932 879.274,389.515 1047.33,483.966"/>
<text fill="#000000" x="1074.58" y="553.984" font-size="8" text-anchor="start" dy="0" font-family="Helvetica">UW101_412_ULC</text>
<text fill="#000000" x="817.311" y="508.229" font-size="8" text-anchor="start" dy="0" font-family="Helvetica">AL200-1a_ULC</text>
<text fill="#000000" x="1104.19" y="584.811" font-size="8" text-anchor="start" dy="0" font-family="Helvetica">UW101_501_ULC</text>
<text fill="#000000" x="992.931" y="488.366" font-size="8" text-anchor="start" dy="0" font-family="Helvetica">STW126_URC</text>
<polygon fill="#8b864e" fill-opacity="0.298039" shape-rendering="crispEdges" points="1142.58,549.584 1144.51,611.13 1141.57,549.763"/>
<polygon fill="#8b864e" fill-opacity="0.298039" shape-rendering="crispEdges" points="1172.19,580.411 1144.51,611.13 1141.57,549.763"/>
<polygon fill="#8b864e" fill-opacity="0.298039" shape-rendering="crispEdges" points="1142.58,549.584 1165.39,562.662 1141.57,549.763"/>
<polygon fill="#e41a1c" fill-opacity="0.298039" shape-rendering="crispEdges" points="876.511,503.83 879.274,389.515 1047.33,483.966"/>
<polygon fill="#8b864e" fill-opacity="0.298039" shape-rendering="crispEdges" points="1172.19,580.411 1165.39,562.662 1141.57,549.763"/>
<polygon fill="#8b864e" fill-opacity="0.298039" shape-rendering="crispEdges" points="1142.58,549.584 1144.51,611.13 1165.39,562.662"/>
<polygon fill="#8b864e" fill-opacity="0.298039" shape-rendering="crispEdges" points="1172.19,580.411 1144.51,611.13 1165.39,562.662"/>
<text fill="#000000" x="1075.71" y="615.53" font-size="8" text-anchor="start" dy="0" font-family="Helvetica">UW101_337_URC</text>
<text fill="#000000" x="819.274" y="393.915" font-size="8" text-anchor="start" dy="0" font-family="Helvetica">AL417-1d_URC</text>
<text fill="#000000" x="1092.59" y="567.062" font-size="8" text-anchor="start" dy="0" font-family="Helvetica">UW101_1556_ULC</text>
</g>
</svg>
