<?xml version="1.0" encoding="UTF-8" standalone="no"?>
<svg xmlns="http://www.w3.org/2000/svg"
     xmlns:xlink="http://www.w3.org/1999/xlink"
     width="1740pt" height="970pt" viewBox="0 0 1740 970">
<title>D:/3D_GM/Projects/UW105/Results/Taxonomic_assessment/UW105-966/UW105_966_shape_PCA_w_naledi_clean.svg</title>
<desc>
Creator: GL2PS 1.4.2, (C) 1999-2020 C. Geuzaine
For: Generated by rgl
CreationDate: Fri Jan 23 15:28:23 2026
</desc>
<defs>
</defs>
<g>
<polygon fill="#ffffff" shape-rendering="crispEdges" points="0,970 1740,970 1740,0"/>
<polygon fill="#ffffff" shape-rendering="crispEdges" points="0,970 1740,0 0,0"/>
<polyline fill="none" stroke="#000000" stroke-width="1" stroke-linecap="butt" stroke-linejoin="miter" points="778.709,178.526 1116.67,250.219"/>
<polyline fill="none" stroke="#000000" stroke-width="1" stroke-linecap="butt" stroke-linejoin="miter" points="1116.67,250.219 1170.37,588.656"/>
<polyline fill="none" stroke="#000000" stroke-width="1" stroke-linecap="butt" stroke-linejoin="miter" points="1170.37,588.656 832.418,516.964"/>
<polyline fill="none" stroke="#000000" stroke-width="1" stroke-linecap="butt" stroke-linejoin="miter" points="832.418,516.964 778.709,178.526"/>
<polyline fill="none" stroke="#000000" stroke-width="1" stroke-linecap="butt" stroke-linejoin="miter" points="778.709,178.526 832.418,516.964"/>
<polyline fill="none" stroke="#000000" stroke-width="1" stroke-linecap="butt" stroke-linejoin="miter" points="832.418,516.964 623.334,719.781"/>
<polyline fill="none" stroke="#000000" stroke-width="1" stroke-linecap="butt" stroke-linejoin="miter" points="623.334,719.781 569.626,381.344"/>
<polyline fill="none" stroke="#000000" stroke-width="1" stroke-linecap="butt" stroke-linejoin="miter" points="569.626,381.344 778.709,178.526"/>
<polyline fill="none" stroke="#000000" stroke-width="1" stroke-linecap="butt" stroke-linejoin="miter" points="832.418,516.964 1170.37,588.656"/>
<polyline fill="none" stroke="#000000" stroke-width="1" stroke-linecap="butt" stroke-linejoin="miter" points="1170.37,588.656 961.291,791.474"/>
<polyline fill="none" stroke="#000000" stroke-width="1" stroke-linecap="butt" stroke-linejoin="miter" points="961.291,791.474 623.334,719.781"/>
<polyline fill="none" stroke="#000000" stroke-width="1" stroke-linecap="butt" stroke-linejoin="miter" points="623.334,719.781 832.418,516.964"/>
<polyline fill="none" stroke="#000000" stroke-width="1" stroke-linecap="butt" stroke-linejoin="miter" points="650.826,725.613 636.887,739.134"/>
<text fill="#000000" x="611.824" y="758.656" font-size="12" text-anchor="start" dy="0" font-family="Helvetica">-0.1</text>
<polyline fill="none" stroke="#000000" stroke-width="1" stroke-linecap="butt" stroke-linejoin="miter" points="741.505,744.85 727.566,758.371"/>
<text fill="#000000" x="709.919" y="777.892" font-size="12" text-anchor="start" dy="0" font-family="Helvetica">0</text>
<polyline fill="none" stroke="#000000" stroke-width="1" stroke-linecap="butt" stroke-linejoin="miter" points="832.185,764.086 818.246,777.607"/>
<text fill="#000000" x="795.243" y="797.128" font-size="12" text-anchor="start" dy="0" font-family="Helvetica">0.1</text>
<polyline fill="none" stroke="#000000" stroke-width="1" stroke-linecap="butt" stroke-linejoin="miter" points="922.865,783.322 908.926,796.843"/>
<text fill="#000000" x="885.923" y="816.365" font-size="12" text-anchor="start" dy="0" font-family="Helvetica">0.2</text>
<polyline fill="none" stroke="#000000" stroke-width="1" stroke-linecap="butt" stroke-linejoin="miter" points="574.418,411.54 560.479,425.062"/>
<text fill="#000000" x="535.417" y="444.583" font-size="12" text-anchor="start" dy="0" font-family="Helvetica">-0.1</text>
<polyline fill="none" stroke="#000000" stroke-width="1" stroke-linecap="butt" stroke-linejoin="miter" points="584.239,473.428 570.3,486.949"/>
<text fill="#000000" x="541.53" y="506.47" font-size="12" text-anchor="start" dy="0" font-family="Helvetica">-0.05</text>
<polyline fill="none" stroke="#000000" stroke-width="1" stroke-linecap="butt" stroke-linejoin="miter" points="594.061,535.315 580.122,548.837"/>
<text fill="#000000" x="562.475" y="568.358" font-size="12" text-anchor="start" dy="0" font-family="Helvetica">0</text>
<polyline fill="none" stroke="#000000" stroke-width="1" stroke-linecap="butt" stroke-linejoin="miter" points="603.882,597.204 589.943,610.725"/>
<text fill="#000000" x="563.232" y="630.246" font-size="12" text-anchor="start" dy="0" font-family="Helvetica">0.05</text>
<polyline fill="none" stroke="#000000" stroke-width="1" stroke-linecap="butt" stroke-linejoin="miter" points="613.703,659.091 599.764,672.612"/>
<text fill="#000000" x="576.761" y="692.133" font-size="12" text-anchor="start" dy="0" font-family="Helvetica">0.1</text>
<polyline fill="none" stroke="#000000" stroke-width="1" stroke-linecap="butt" stroke-linejoin="miter" points="1012.61,741.697 1035.14,746.476"/>
<text fill="#000000" x="1054.61" y="757.255" font-size="12" text-anchor="start" dy="0" font-family="Helvetica">-0.05</text>
<polyline fill="none" stroke="#000000" stroke-width="1" stroke-linecap="butt" stroke-linejoin="miter" points="1071.15,684.903 1093.68,689.683"/>
<text fill="#000000" x="1115.45" y="700.462" font-size="12" text-anchor="start" dy="0" font-family="Helvetica">0</text>
<polyline fill="none" stroke="#000000" stroke-width="1" stroke-linecap="butt" stroke-linejoin="miter" points="1129.7,628.11 1152.23,632.89"/>
<text fill="#000000" x="1172.13" y="643.669" font-size="12" text-anchor="start" dy="0" font-family="Helvetica">0.05</text>
<polyline fill="none" stroke="#000000" stroke-width="1" stroke-linecap="butt" stroke-linejoin="miter" points="569.626,381.344 569.626,381.344"/>
<polyline fill="none" stroke="#000000" stroke-width="1" stroke-linecap="butt" stroke-linejoin="miter" points="1170.37,588.656 1170.37,588.656"/>
<circle fill="#000000" cx="616.345" cy="537.698" r="5"/>
<circle fill="#e41a1c" cx="806.145" cy="298.971" r="5"/>
<circle fill="#e41a1c" cx="737.656" cy="452.095" r="5"/>
<circle fill="#e41a1c" cx="740.135" cy="349.519" r="5"/>
<circle fill="#1874cd" cx="737.489" cy="458.255" r="5"/>
<circle fill="#1874cd" cx="743.969" cy="497.596" r="5"/>
<circle fill="#1874cd" cx="795.383" cy="443.753" r="5"/>
<circle fill="#4daf4a" cx="898.553" cy="439.523" r="5"/>
<circle fill="#4daf4a" cx="782.201" cy="545.411" r="5"/>
<circle fill="#e41a1c" cx="832.213" cy="293.361" r="5"/>
<circle fill="#e41a1c" cx="792.799" cy="517.946" r="5"/>
<circle fill="#e41a1c" cx="914.051" cy="344.637" r="5"/>
<circle fill="#4daf4a" cx="829.525" cy="439.241" r="5"/>
<circle fill="#4daf4a" cx="809.222" cy="407.165" r="5"/>
<circle fill="#4daf4a" cx="836.328" cy="439.346" r="5"/>
<circle fill="#1874cd" cx="735.871" cy="474.532" r="5"/>
<circle fill="#1874cd" cx="734.483" cy="515.134" r="5"/>
<circle fill="#1874cd" cx="845.263" cy="594.201" r="5"/>
<circle fill="#1874cd" cx="691.864" cy="507.697" r="5"/>
<circle fill="#1874cd" cx="804.152" cy="452.414" r="5"/>
<circle fill="#1874cd" cx="797.027" cy="429.5" r="5"/>
<circle fill="#e41a1c" cx="791.638" cy="369.27" r="5"/>
<circle fill="#e41a1c" cx="890.935" cy="434.271" r="5"/>
<circle fill="#e41a1c" cx="747.606" cy="358.514" r="5"/>
<circle fill="#8b864e" cx="978.138" cy="548.377" r="5"/>
<circle fill="#8b864e" cx="976.404" cy="493.151" r="5"/>
<circle fill="#8b864e" cx="1002.98" cy="520.813" r="5"/>
<circle fill="#8b864e" cx="975.501" cy="493.312" r="5"/>
<circle fill="#8b864e" cx="996.874" cy="504.886" r="5"/>
<text fill="#000000" x="703.737" y="838.275" font-size="12" text-anchor="start" dy="0" font-family="Helvetica">PC1 (59.5%)</text>
<text fill="#000000" x="481.794" y="605.868" font-size="12" text-anchor="start" dy="0" font-family="Helvetica">PC2 (15.6%)</text>
<text fill="#000000" x="1126.73" y="737.746" font-size="12" text-anchor="start" dy="0" font-family="Helvetica">PC3 (7.6%)</text>
<polygon fill="#1874cd" fill-opacity="0.298039" shape-rendering="crispEdges" points="804.152,452.414 845.263,594.201 743.969,497.596"/>
<polygon fill="#1874cd" fill-opacity="0.298039" shape-rendering="crispEdges" points="797.027,429.5 804.152,452.414 845.263,594.201"/>
<polygon fill="#1874cd" fill-opacity="0.298039" shape-rendering="crispEdges" points="795.383,443.753 797.027,429.5 804.152,452.414"/>
<polygon fill="#1874cd" fill-opacity="0.298039" shape-rendering="crispEdges" points="734.483,515.134 845.263,594.201 743.969,497.596"/>
<polygon fill="#e41a1c" fill-opacity="0.298039" shape-rendering="crispEdges" points="914.051,344.637 792.799,517.946 747.606,358.514"/>
<polygon fill="#1874cd" fill-opacity="0.298039" shape-rendering="crispEdges" points="795.383,443.753 691.864,507.697 804.152,452.414"/>
<polygon fill="#e41a1c" fill-opacity="0.298039" shape-rendering="crispEdges" points="832.213,293.361 914.051,344.637 747.606,358.514"/>
<polygon fill="#1874cd" fill-opacity="0.298039" shape-rendering="crispEdges" points="691.864,507.697 804.152,452.414 743.969,497.596"/>
<polygon fill="#1874cd" fill-opacity="0.298039" shape-rendering="crispEdges" points="797.027,429.5 737.489,458.255 845.263,594.201"/>
<polygon fill="#1874cd" fill-opacity="0.298039" shape-rendering="crispEdges" points="734.483,515.134 691.864,507.697 845.263,594.201"/>
<polygon fill="#4daf4a" fill-opacity="0.298039" shape-rendering="crispEdges" points="836.328,439.346 898.553,439.523 809.222,407.165"/>
<polygon fill="#1874cd" fill-opacity="0.298039" shape-rendering="crispEdges" points="795.383,443.753 797.027,429.5 737.489,458.255"/>
<polygon fill="#4daf4a" fill-opacity="0.298039" shape-rendering="crispEdges" points="782.201,545.411 898.553,439.523 809.222,407.165"/>
<polygon fill="#e41a1c" fill-opacity="0.298039" shape-rendering="crispEdges" points="806.145,298.971 832.213,293.361 747.606,358.514"/>
<polygon fill="#1874cd" fill-opacity="0.298039" shape-rendering="crispEdges" points="691.864,507.697 737.489,458.255 845.263,594.201"/>
<polygon fill="#1874cd" fill-opacity="0.298039" shape-rendering="crispEdges" points="734.483,515.134 691.864,507.697 743.969,497.596"/>
<polygon fill="#1874cd" fill-opacity="0.298039" shape-rendering="crispEdges" points="795.383,443.753 691.864,507.697 737.489,458.255"/>
<polygon fill="#e41a1c" fill-opacity="0.298039" shape-rendering="crispEdges" points="914.051,344.637 792.799,517.946 890.935,434.271"/>
<polygon fill="#4daf4a" fill-opacity="0.298039" shape-rendering="crispEdges" points="782.201,545.411 836.328,439.346 898.553,439.523"/>
<polygon fill="#e41a1c" fill-opacity="0.298039" shape-rendering="crispEdges" points="737.656,452.095 792.799,517.946 747.606,358.514"/>
<polygon fill="#4daf4a" fill-opacity="0.298039" shape-rendering="crispEdges" points="782.201,545.411 836.328,439.346 809.222,407.165"/>
<polygon fill="#e41a1c" fill-opacity="0.298039" shape-rendering="crispEdges" points="832.213,293.361 914.051,344.637 890.935,434.271"/>
<polygon fill="#e41a1c" fill-opacity="0.298039" shape-rendering="crispEdges" points="806.145,298.971 740.135,349.519 747.606,358.514"/>
<polygon fill="#e41a1c" fill-opacity="0.298039" shape-rendering="crispEdges" points="806.145,298.971 832.213,293.361 740.135,349.519"/>
<polygon fill="#e41a1c" fill-opacity="0.298039" shape-rendering="crispEdges" points="737.656,452.095 792.799,517.946 890.935,434.271"/>
<polygon fill="#e41a1c" fill-opacity="0.298039" shape-rendering="crispEdges" points="737.656,452.095 740.135,349.519 747.606,358.514"/>
<polygon fill="#e41a1c" fill-opacity="0.298039" shape-rendering="crispEdges" points="832.213,293.361 740.135,349.519 890.935,434.271"/>
<polygon fill="#8b864e" fill-opacity="0.298039" shape-rendering="crispEdges" points="976.404,493.151 978.138,548.377 975.501,493.312"/>
<polygon fill="#8b864e" fill-opacity="0.298039" shape-rendering="crispEdges" points="1002.98,520.813 978.138,548.377 975.501,493.312"/>
<polygon fill="#8b864e" fill-opacity="0.298039" shape-rendering="crispEdges" points="976.404,493.151 996.874,504.886 975.501,493.312"/>
<polygon fill="#e41a1c" fill-opacity="0.298039" shape-rendering="crispEdges" points="737.656,452.095 740.135,349.519 890.935,434.271"/>
<polygon fill="#8b864e" fill-opacity="0.298039" shape-rendering="crispEdges" points="1002.98,520.813 996.874,504.886 975.501,493.312"/>
<polygon fill="#8b864e" fill-opacity="0.298039" shape-rendering="crispEdges" points="976.404,493.151 978.138,548.377 996.874,504.886"/>
<polygon fill="#8b864e" fill-opacity="0.298039" shape-rendering="crispEdges" points="1002.98,520.813 978.138,548.377 996.874,504.886"/>
</g>
</svg>
