<?xml version="1.0" encoding="UTF-8" standalone="no"?>
<svg xmlns="http://www.w3.org/2000/svg"
     xmlns:xlink="http://www.w3.org/1999/xlink"
     width="2048pt" height="1081pt" viewBox="0 0 2048 1081">
<title>D:/3D_GM/Projects/UW105/Results/Tooth_type_classifications/UW105_240/UW105-240_Shape_PCA_labelled.svg</title>
<desc>
Creator: GL2PS 1.4.2, (C) 1999-2020 C. Geuzaine
For: Generated by rgl
CreationDate: Wed Jan 21 16:14:36 2026
</desc>
<defs>
</defs>
<g>
<polygon fill="#ffffff" shape-rendering="crispEdges" points="0,1081 2048,1081 2048,0"/>
<polygon fill="#ffffff" shape-rendering="crispEdges" points="0,1081 2048,0 0,0"/>
<polyline fill="none" stroke="#010101" stroke-width="1" stroke-linecap="butt" stroke-linejoin="miter" points="743.364,946.588 657.526,472.778"/>
<polyline fill="none" stroke="#000000" stroke-width="1" stroke-linecap="butt" stroke-linejoin="miter" points="657.526,472.778 1214.1,451.24"/>
<polyline fill="none" stroke="#000000" stroke-width="1" stroke-linecap="butt" stroke-linejoin="miter" points="1214.1,451.24 1299.94,925.051"/>
<polyline fill="none" stroke="#000000" stroke-width="1" stroke-linecap="butt" stroke-linejoin="miter" points="1299.94,925.051 743.364,946.588"/>
<polyline fill="none" stroke="#000000" stroke-width="1" stroke-linecap="butt" stroke-linejoin="miter" points="1390.47,608.222 1299.94,925.051 1214.1,451.24 1304.64,134.412 1390.47,608.222"/>
<polyline fill="none" stroke="#000000" stroke-width="1" stroke-linecap="butt" stroke-linejoin="miter" points="748.06,155.949 1304.64,134.412"/>
<polyline fill="none" stroke="#000000" stroke-width="1" stroke-linecap="butt" stroke-linejoin="miter" points="1304.64,134.412 1214.1,451.24"/>
<polyline fill="none" stroke="#000000" stroke-width="1" stroke-linecap="butt" stroke-linejoin="miter" points="1214.1,451.24 657.526,472.778"/>
<polyline fill="none" stroke="#000000" stroke-width="1" stroke-linecap="butt" stroke-linejoin="miter" points="657.526,472.778 748.06,155.949"/>
<polyline fill="none" stroke="#000000" stroke-width="1" stroke-linecap="butt" stroke-linejoin="miter" points="837.649,152.482 843.685,131.36"/>
<text fill="#000000" x="838.92" y="116.238" font-size="12" text-anchor="start" dy="0" font-family="Helvetica">-0.1</text>
<polyline fill="none" stroke="#000000" stroke-width="1" stroke-linecap="butt" stroke-linejoin="miter" points="953.377,148.004 959.413,126.882"/>
<text fill="#000000" x="951.049" y="111.76" font-size="12" text-anchor="start" dy="0" font-family="Helvetica">-0.05</text>
<polyline fill="none" stroke="#000000" stroke-width="1" stroke-linecap="butt" stroke-linejoin="miter" points="1069.11,143.526 1075.14,122.404"/>
<text fill="#000000" x="1077.58" y="107.282" font-size="12" text-anchor="start" dy="0" font-family="Helvetica">0</text>
<polyline fill="none" stroke="#000000" stroke-width="1" stroke-linecap="butt" stroke-linejoin="miter" points="1184.83,139.047 1190.87,117.926"/>
<text fill="#000000" x="1184.51" y="102.804" font-size="12" text-anchor="start" dy="0" font-family="Helvetica">0.05</text>
<polyline fill="none" stroke="#000000" stroke-width="1" stroke-linecap="butt" stroke-linejoin="miter" points="1300.56,134.569 1306.6,113.447"/>
<text fill="#000000" x="1303.83" y="98.3257" font-size="12" text-anchor="start" dy="0" font-family="Helvetica">0.1</text>
<polyline fill="none" stroke="#000000" stroke-width="1" stroke-linecap="butt" stroke-linejoin="miter" points="1389.31,601.796 1395.35,580.674"/>
<text fill="#000000" x="1386.98" y="565.552" font-size="12" text-anchor="start" dy="0" font-family="Helvetica">-0.05</text>
<polyline fill="none" stroke="#000000" stroke-width="1" stroke-linecap="butt" stroke-linejoin="miter" points="1368.33,486.018 1374.37,464.896"/>
<text fill="#000000" x="1376.81" y="449.774" font-size="12" text-anchor="start" dy="0" font-family="Helvetica">0</text>
<polyline fill="none" stroke="#000000" stroke-width="1" stroke-linecap="butt" stroke-linejoin="miter" points="1347.36,370.239 1353.4,349.118"/>
<text fill="#000000" x="1347.03" y="333.996" font-size="12" text-anchor="start" dy="0" font-family="Helvetica">0.05</text>
<polyline fill="none" stroke="#000000" stroke-width="1" stroke-linecap="butt" stroke-linejoin="miter" points="1326.38,254.461 1332.42,233.339"/>
<text fill="#000000" x="1329.66" y="218.217" font-size="12" text-anchor="start" dy="0" font-family="Helvetica">0.1</text>
<polyline fill="none" stroke="#000000" stroke-width="1" stroke-linecap="butt" stroke-linejoin="miter" points="1305.41,138.683 1311.45,117.561"/>
<text fill="#000000" x="1305.08" y="102.438" font-size="12" text-anchor="start" dy="0" font-family="Helvetica">0.15</text>
<polyline fill="none" stroke="#000000" stroke-width="1" stroke-linecap="butt" stroke-linejoin="miter" points="672.695,419.694 635.59,421.129"/>
<text fill="#000000" x="570.242" y="428.565" font-size="12" text-anchor="start" dy="0" font-family="Helvetica">-0.05</text>
<polyline fill="none" stroke="#000000" stroke-width="1" stroke-linecap="butt" stroke-linejoin="miter" points="700.5,322.386 663.396,323.822"/>
<text fill="#000000" x="619.23" y="331.258" font-size="12" text-anchor="start" dy="0" font-family="Helvetica">0</text>
<polyline fill="none" stroke="#000000" stroke-width="1" stroke-linecap="butt" stroke-linejoin="miter" points="728.306,225.079 691.201,226.515"/>
<text fill="#000000" x="629.776" y="233.951" font-size="12" text-anchor="start" dy="0" font-family="Helvetica">0.05</text>
<polyline fill="none" stroke="#000000" stroke-width="1" stroke-linecap="butt" stroke-linejoin="miter" points="743.364,946.588 743.364,946.588"/>
<polyline fill="none" stroke="#000000" stroke-width="1" stroke-linecap="butt" stroke-linejoin="miter" points="1304.64,134.412 1304.64,134.412"/>
<circle fill="#4daf4a" cx="1061.01" cy="742.049" r="5"/>
<circle fill="#4daf4a" cx="1131.7" cy="783.018" r="5"/>
<circle fill="#4daf4a" cx="980.38" cy="681.832" r="5"/>
<circle fill="#4daf4a" cx="892.889" cy="701.332" r="5"/>
<circle fill="#4daf4a" cx="917.083" cy="708.434" r="5"/>
<circle fill="#4daf4a" cx="950.107" cy="727.239" r="5"/>
<circle fill="#4daf4a" cx="797.521" cy="748.098" r="5"/>
<circle fill="#4daf4a" cx="844.362" cy="708.519" r="5"/>
<circle fill="#4daf4a" cx="827.642" cy="674.625" r="5"/>
<circle fill="#e41a1c" cx="1204.47" cy="692.021" r="5"/>
<circle fill="#e41a1c" cx="1222.62" cy="614.942" r="5"/>
<circle fill="#e41a1c" cx="1193.41" cy="660.973" r="5"/>
<circle fill="#e41a1c" cx="1268.76" cy="728.705" r="5"/>
<circle fill="#e41a1c" cx="1063.81" cy="676.847" r="5"/>
<circle fill="#e41a1c" cx="1042.82" cy="555.248" r="5"/>
<circle fill="#e41a1c" cx="1139.35" cy="690.132" r="5"/>
<circle fill="#e41a1c" cx="1119.91" cy="679.028" r="5"/>
<circle fill="#e41a1c" cx="1191.87" cy="658.992" r="5"/>
<circle fill="#e41a1c" cx="1124.12" cy="672.45" r="5"/>
<circle fill="#e41a1c" cx="1148.26" cy="645.66" r="5"/>
<circle fill="#e41a1c" cx="1245.59" cy="732.162" r="5"/>
<circle fill="#e41a1c" cx="1141.69" cy="684.906" r="5"/>
<circle fill="#e41a1c" cx="1176.49" cy="628.148" r="5"/>
<circle fill="#e41a1c" cx="1094.47" cy="203.826" r="5"/>
<circle fill="#e41a1c" cx="1076.17" cy="284.456" r="5"/>
<circle fill="#e41a1c" cx="1279.01" cy="721.762" r="5"/>
<circle fill="#000000" cx="1166.1" cy="856.971" r="5"/>
<text fill="#000000" x="1008.37" y="35.1055" font-size="12" text-anchor="start" dy="0" font-family="Helvetica">PC1 (32.5%)</text>
<text fill="#000000" x="1372.4" y="291.394" font-size="12" text-anchor="start" dy="0" font-family="Helvetica">PC2 (20.2%)</text>
<text fill="#000000" x="517.45" y="294.519" font-size="12" text-anchor="start" dy="0" font-family="Helvetica">PC3 (13%)</text>
<text fill="#000000" x="1154.36" y="733.105" font-size="8" text-anchor="start" dy="0" font-family="Helvetica">Pboi_KNMER_15951D_LRP4</text>
<text fill="#000000" x="825.883" y="712.834" font-size="8" text-anchor="start" dy="0" font-family="Helvetica">KNM-WT_16005_LLP3</text>
<text fill="#000000" x="745.521" y="752.498" font-size="8" text-anchor="start" dy="0" font-family="Helvetica">SK100_LRP3</text>
<polygon fill="#4daf4a" fill-opacity="0.298039" shape-rendering="crispEdges" points="892.889,701.332 797.521,748.098 917.083,708.434"/>
<polygon fill="#4daf4a" fill-opacity="0.298039" shape-rendering="crispEdges" points="797.521,748.098 917.083,708.434 1131.7,783.018"/>
<text fill="#000000" x="1086.21" y="665.373" font-size="8" text-anchor="start" dy="0" font-family="Helvetica">Pboi_KNM-ER_3885_LRP4</text>
<text fill="#000000" x="840.089" y="705.731" font-size="8" text-anchor="start" dy="0" font-family="Helvetica">DNH68_LRP3</text>
<polygon fill="#4daf4a" fill-opacity="0.298039" shape-rendering="crispEdges" points="892.889,701.332 980.38,681.832 917.083,708.434"/>
<polygon fill="#e41a1c" fill-opacity="0.298039" shape-rendering="crispEdges" points="1063.81,676.847 1076.17,284.456 1268.76,728.705"/>
<text fill="#000000" x="1033.77" y="288.855" font-size="8" text-anchor="start" dy="0" font-family="Helvetica">SK6_LLP4</text>
<polygon fill="#4daf4a" fill-opacity="0.298039" shape-rendering="crispEdges" points="980.38,681.832 917.083,708.434 1131.7,783.018"/>
<text fill="#000000" x="1092.5" y="861.371" font-size="8" text-anchor="start" dy="0" font-family="Helvetica">UW_105_240_LLP</text>
<polygon fill="#e41a1c" fill-opacity="0.298039" shape-rendering="crispEdges" points="1094.47,203.826 1076.17,284.456 1268.76,728.705"/>
<polygon fill="#e41a1c" fill-opacity="0.298039" shape-rendering="crispEdges" points="1245.59,732.162 1063.81,676.847 1268.76,728.705"/>
<text fill="#000000" x="1078.9" y="787.417" font-size="8" text-anchor="start" dy="0" font-family="Helvetica">DNH46_LRP3</text>
<polygon fill="#e41a1c" fill-opacity="0.298039" shape-rendering="crispEdges" points="1245.59,732.162 1279.01,721.762 1268.76,728.705"/>
<polygon fill="#e41a1c" fill-opacity="0.298039" shape-rendering="crispEdges" points="1279.01,721.762 1094.47,203.826 1268.76,728.705"/>
<text fill="#000000" x="1051.32" y="676.85" font-size="8" text-anchor="start" dy="0" font-family="Helvetica">Prob_SK88_LLP4</text>
<text fill="#000000" x="995.808" y="681.247" font-size="8" text-anchor="start" dy="0" font-family="Helvetica">Prob_SK7_LRP4</text>
<text fill="#000000" x="927.58" y="686.231" font-size="8" text-anchor="start" dy="0" font-family="Helvetica">DNH51_LRP3</text>
<polygon fill="#4daf4a" fill-opacity="0.298039" shape-rendering="crispEdges" points="1061.01,742.049 980.38,681.832 1131.7,783.018"/>
<polygon fill="#4daf4a" fill-opacity="0.298039" shape-rendering="crispEdges" points="892.889,701.332 797.521,748.098 827.642,674.625"/>
<text fill="#000000" x="1013.01" y="746.449" font-size="8" text-anchor="start" dy="0" font-family="Helvetica">DNH8_LLP3</text>
<polygon fill="#4daf4a" fill-opacity="0.298039" shape-rendering="crispEdges" points="950.107,727.239 797.521,748.098 1131.7,783.018"/>
<text fill="#000000" x="1113.47" y="663.392" font-size="8" text-anchor="start" dy="0" font-family="Helvetica">Prob_SK55B_LLP4</text>
<text fill="#000000" x="1205.41" y="726.162" font-size="8" text-anchor="start" dy="0" font-family="Helvetica">UW105_811_LLP4</text>
<text fill="#000000" x="1158.39" y="736.562" font-size="8" text-anchor="start" dy="0" font-family="Helvetica">Prob_SK1587a_LLP4</text>
<text fill="#000000" x="1006.47" y="208.226" font-size="8" text-anchor="start" dy="0" font-family="Helvetica">Prob_SKX4446_LRP4</text>
<polygon fill="#e41a1c" fill-opacity="0.298039" shape-rendering="crispEdges" points="1245.59,732.162 1139.35,690.132 1063.81,676.847"/>
<polygon fill="#4daf4a" fill-opacity="0.298039" shape-rendering="crispEdges" points="892.889,701.332 980.38,681.832 827.642,674.625"/>
<polygon fill="#4daf4a" fill-opacity="0.298039" shape-rendering="crispEdges" points="1061.01,742.049 950.107,727.239 1131.7,783.018"/>
<polygon fill="#e41a1c" fill-opacity="0.298039" shape-rendering="crispEdges" points="1063.81,676.847 1076.17,284.456 1042.82,555.248"/>
<text fill="#000000" x="1156.47" y="696.42" font-size="8" text-anchor="start" dy="0" font-family="Helvetica">DNH8_LLP4</text>
<text fill="#000000" x="792.362" y="712.918" font-size="8" text-anchor="start" dy="0" font-family="Helvetica">SK857_LRP3</text>
<polygon fill="#4daf4a" fill-opacity="0.298039" shape-rendering="crispEdges" points="1061.01,742.049 950.107,727.239 980.38,681.832"/>
<text fill="#000000" x="1169.82" y="619.342" font-size="8" text-anchor="start" dy="0" font-family="Helvetica">DNH51_LRP4</text>
<polygon fill="#e41a1c" fill-opacity="0.298039" shape-rendering="crispEdges" points="1245.59,732.162 1279.01,721.762 1141.69,684.906"/>
<polygon fill="#e41a1c" fill-opacity="0.298039" shape-rendering="crispEdges" points="1094.47,203.826 1076.17,284.456 1042.82,555.248"/>
<polygon fill="#e41a1c" fill-opacity="0.298039" shape-rendering="crispEdges" points="1279.01,721.762 1176.49,628.148 1094.47,203.826"/>
<polygon fill="#e41a1c" fill-opacity="0.298039" shape-rendering="crispEdges" points="1139.35,690.132 1119.91,679.028 1063.81,676.847"/>
<polygon fill="#4daf4a" fill-opacity="0.298039" shape-rendering="crispEdges" points="950.107,727.239 797.521,748.098 827.642,674.625"/>
<polygon fill="#e41a1c" fill-opacity="0.298039" shape-rendering="crispEdges" points="1245.59,732.162 1139.35,690.132 1119.91,679.028"/>
<text fill="#000000" x="1065.06" y="650.06" font-size="8" text-anchor="start" dy="0" font-family="Helvetica">Prob_SK826B_LLP4</text>
<text fill="#000000" x="1066.55" y="694.532" font-size="8" text-anchor="start" dy="0" font-family="Helvetica">Prob_SK23_LRP4</text>
<polygon fill="#e41a1c" fill-opacity="0.298039" shape-rendering="crispEdges" points="1245.59,732.162 1119.91,679.028 1141.69,684.906"/>
<polygon fill="#4daf4a" fill-opacity="0.298039" shape-rendering="crispEdges" points="950.107,727.239 980.38,681.832 827.642,674.625"/>
<polygon fill="#e41a1c" fill-opacity="0.298039" shape-rendering="crispEdges" points="1279.01,721.762 1176.49,628.148 1141.69,684.906"/>
<polygon fill="#e41a1c" fill-opacity="0.298039" shape-rendering="crispEdges" points="1119.91,679.028 1063.81,676.847 1042.82,555.248"/>
<polygon fill="#e41a1c" fill-opacity="0.298039" shape-rendering="crispEdges" points="1176.49,628.148 1094.47,203.826 1042.82,555.248"/>
<text fill="#000000" x="1059.29" y="689.306" font-size="8" text-anchor="start" dy="0" font-family="Helvetica">Prob_SK1588_LRP4</text>
<text fill="#000000" x="1047.11" y="683.428" font-size="8" text-anchor="start" dy="0" font-family="Helvetica">Prob_SK25_LLP4</text>
<text fill="#000000" x="893.307" y="731.639" font-size="8" text-anchor="start" dy="0" font-family="Helvetica">SK96_2_LLP3</text>
<polygon fill="#e41a1c" fill-opacity="0.298039" shape-rendering="crispEdges" points="1176.49,628.148 1119.91,679.028 1141.69,684.906"/>
<text fill="#000000" x="777.242" y="679.024" font-size="8" text-anchor="start" dy="0" font-family="Helvetica">SKW5_LRP3</text>
<polygon fill="#e41a1c" fill-opacity="0.298039" shape-rendering="crispEdges" points="1176.49,628.148 1119.91,679.028 1042.82,555.248"/>
<text fill="#000000" x="1100.49" y="632.548" font-size="8" text-anchor="start" dy="0" font-family="Helvetica">Prob_SKW5_LRP4</text>
<text fill="#000000" x="974.815" y="559.648" font-size="8" text-anchor="start" dy="0" font-family="Helvetica">Prob_SK9_LLP4</text>
</g>
</svg>
