<?xml version="1.0" encoding="UTF-8" standalone="no"?>
<svg xmlns="http://www.w3.org/2000/svg"
     xmlns:xlink="http://www.w3.org/1999/xlink"
     width="1740pt" height="970pt" viewBox="0 0 1740 970">
<title>D:/3D_GM/Projects/UW105/Results/Tooth_type_classifications/UW105_750_1007/Only_Paranthropus_clean.svg</title>
<desc>
Creator: GL2PS 1.4.2, (C) 1999-2020 C. Geuzaine
For: Generated by rgl
CreationDate: Fri Jan 23 17:10:44 2026
</desc>
<defs>
</defs>
<g>
<polygon fill="#ffffff" shape-rendering="crispEdges" points="0,970 1740,970 1740,0"/>
<polygon fill="#ffffff" shape-rendering="crispEdges" points="0,970 1740,0 0,0"/>
<polyline fill="none" stroke="#000000" stroke-width="1" stroke-linecap="butt" stroke-linejoin="miter" points="1163.51,476.32 1054.69,841.957"/>
<polyline fill="none" stroke="#000000" stroke-width="1" stroke-linecap="butt" stroke-linejoin="miter" points="1054.69,841.957 604.251,770.691"/>
<polyline fill="none" stroke="#000000" stroke-width="1" stroke-linecap="butt" stroke-linejoin="miter" points="604.251,770.691 713.074,405.054"/>
<polyline fill="none" stroke="#000000" stroke-width="1" stroke-linecap="butt" stroke-linejoin="miter" points="713.074,405.054 1163.51,476.32"/>
<polyline fill="none" stroke="#000000" stroke-width="1" stroke-linecap="butt" stroke-linejoin="miter" points="685.314,128.043 713.074,405.054 604.251,770.691 576.491,493.68 685.314,128.043"/>
<polyline fill="none" stroke="#000000" stroke-width="1" stroke-linecap="butt" stroke-linejoin="miter" points="1163.51,476.32 713.074,405.054"/>
<polyline fill="none" stroke="#000000" stroke-width="1" stroke-linecap="butt" stroke-linejoin="miter" points="713.074,405.054 685.314,128.043"/>
<polyline fill="none" stroke="#000000" stroke-width="1" stroke-linecap="butt" stroke-linejoin="miter" points="685.314,128.043 1135.75,199.309"/>
<polyline fill="none" stroke="#000000" stroke-width="1" stroke-linecap="butt" stroke-linejoin="miter" points="1135.75,199.309 1163.51,476.32"/>
<polyline fill="none" stroke="#000000" stroke-width="1" stroke-linecap="butt" stroke-linejoin="miter" points="1111.94,195.542 1110.09,177.075"/>
<text fill="#000000" x="1093.84" y="164.607" font-size="12" text-anchor="start" dy="0" font-family="Helvetica">-0.06</text>
<polyline fill="none" stroke="#000000" stroke-width="1" stroke-linecap="butt" stroke-linejoin="miter" points="1038.56,183.932 1036.71,165.465"/>
<text fill="#000000" x="1020.46" y="152.998" font-size="12" text-anchor="start" dy="0" font-family="Helvetica">-0.04</text>
<polyline fill="none" stroke="#000000" stroke-width="1" stroke-linecap="butt" stroke-linejoin="miter" points="965.183,172.323 963.332,153.855"/>
<text fill="#000000" x="947.082" y="141.388" font-size="12" text-anchor="start" dy="0" font-family="Helvetica">-0.02</text>
<polyline fill="none" stroke="#000000" stroke-width="1" stroke-linecap="butt" stroke-linejoin="miter" points="891.803,160.713 889.953,142.246"/>
<text fill="#000000" x="884.502" y="129.778" font-size="12" text-anchor="start" dy="0" font-family="Helvetica">0</text>
<polyline fill="none" stroke="#000000" stroke-width="1" stroke-linecap="butt" stroke-linejoin="miter" points="818.423,149.103 816.573,130.636"/>
<text fill="#000000" x="802.322" y="118.168" font-size="12" text-anchor="start" dy="0" font-family="Helvetica">0.02</text>
<polyline fill="none" stroke="#000000" stroke-width="1" stroke-linecap="butt" stroke-linejoin="miter" points="745.044,137.493 743.193,119.026"/>
<text fill="#000000" x="728.942" y="106.559" font-size="12" text-anchor="start" dy="0" font-family="Helvetica">0.04</text>
<polyline fill="none" stroke="#000000" stroke-width="1" stroke-linecap="butt" stroke-linejoin="miter" points="671.37,174.895 669.52,156.428"/>
<text fill="#000000" x="653.269" y="143.96" font-size="12" text-anchor="start" dy="0" font-family="Helvetica">-0.04</text>
<polyline fill="none" stroke="#000000" stroke-width="1" stroke-linecap="butt" stroke-linejoin="miter" points="653.966,233.372 652.115,214.904"/>
<text fill="#000000" x="635.865" y="202.437" font-size="12" text-anchor="start" dy="0" font-family="Helvetica">-0.02</text>
<polyline fill="none" stroke="#000000" stroke-width="1" stroke-linecap="butt" stroke-linejoin="miter" points="636.562,291.848 634.711,273.381"/>
<text fill="#000000" x="629.26" y="260.913" font-size="12" text-anchor="start" dy="0" font-family="Helvetica">0</text>
<polyline fill="none" stroke="#000000" stroke-width="1" stroke-linecap="butt" stroke-linejoin="miter" points="619.158,350.325 617.307,331.857"/>
<text fill="#000000" x="603.056" y="319.39" font-size="12" text-anchor="start" dy="0" font-family="Helvetica">0.02</text>
<polyline fill="none" stroke="#000000" stroke-width="1" stroke-linecap="butt" stroke-linejoin="miter" points="601.753,408.801 599.903,390.334"/>
<text fill="#000000" x="585.652" y="377.867" font-size="12" text-anchor="start" dy="0" font-family="Helvetica">0.04</text>
<polyline fill="none" stroke="#000000" stroke-width="1" stroke-linecap="butt" stroke-linejoin="miter" points="584.349,467.278 582.499,448.811"/>
<text fill="#000000" x="568.248" y="436.343" font-size="12" text-anchor="start" dy="0" font-family="Helvetica">0.06</text>
<polyline fill="none" stroke="#000000" stroke-width="1" stroke-linecap="butt" stroke-linejoin="miter" points="1161.64,457.713 1191.67,462.465"/>
<text fill="#000000" x="1219.42" y="473.216" font-size="12" text-anchor="start" dy="0" font-family="Helvetica">-0.04</text>
<polyline fill="none" stroke="#000000" stroke-width="1" stroke-linecap="butt" stroke-linejoin="miter" points="1155.3,394.419 1185.33,399.17"/>
<text fill="#000000" x="1213.08" y="409.921" font-size="12" text-anchor="start" dy="0" font-family="Helvetica">-0.02</text>
<polyline fill="none" stroke="#000000" stroke-width="1" stroke-linecap="butt" stroke-linejoin="miter" points="1148.96,331.125 1178.99,335.876"/>
<text fill="#000000" x="1208.45" y="346.627" font-size="12" text-anchor="start" dy="0" font-family="Helvetica">0</text>
<polyline fill="none" stroke="#000000" stroke-width="1" stroke-linecap="butt" stroke-linejoin="miter" points="1142.62,267.831 1172.65,272.582"/>
<text fill="#000000" x="1200.71" y="283.333" font-size="12" text-anchor="start" dy="0" font-family="Helvetica">0.02</text>
<polyline fill="none" stroke="#000000" stroke-width="1" stroke-linecap="butt" stroke-linejoin="miter" points="1136.27,204.537 1166.3,209.288"/>
<text fill="#000000" x="1194.37" y="220.039" font-size="12" text-anchor="start" dy="0" font-family="Helvetica">0.04</text>
<polyline fill="none" stroke="#000000" stroke-width="1" stroke-linecap="butt" stroke-linejoin="miter" points="1163.51,476.32 1163.51,476.32"/>
<polyline fill="none" stroke="#000000" stroke-width="1" stroke-linecap="butt" stroke-linejoin="miter" points="576.491,493.68 576.491,493.68"/>
<polyline fill="none" stroke="#000000" stroke-width="1" stroke-linecap="butt" stroke-linejoin="miter" points="818.773,207.941 860.152,183.091"/>
<circle fill="#4daf4a" cx="1062.3" cy="638.803" r="5"/>
<circle fill="#4daf4a" cx="1085.71" cy="456.891" r="5"/>
<circle fill="#4daf4a" cx="923.779" cy="476.286" r="5"/>
<circle fill="#4daf4a" cx="962.872" cy="419.753" r="5"/>
<circle fill="#e41a1c" cx="737.403" cy="547.765" r="5"/>
<circle fill="#e41a1c" cx="682.802" cy="602.206" r="5"/>
<circle fill="#e41a1c" cx="750.848" cy="433.74" r="5"/>
<circle fill="#e41a1c" cx="703.818" cy="484.552" r="5"/>
<circle fill="#e41a1c" cx="977.071" cy="494.76" r="5"/>
<circle fill="#e41a1c" cx="790.835" cy="517.305" r="5"/>
<circle fill="#e41a1c" cx="775.017" cy="469.25" r="5"/>
<circle fill="#000000" cx="818.773" cy="207.941" r="5"/>
<circle fill="#000000" cx="860.152" cy="183.091" r="5"/>
<text fill="#000000" x="873.984" y="71.4307" font-size="12" text-anchor="start" dy="0" font-family="Helvetica">PC1 (26.6%)</text>
<text fill="#000000" x="557.071" y="238.241" font-size="12" text-anchor="start" dy="0" font-family="Helvetica">PC2 (24.5%)</text>
<text fill="#000000" x="1240.6" y="338.442" font-size="12" text-anchor="start" dy="0" font-family="Helvetica">PC3 (14.3%)</text>
<polygon fill="#e41a1c" fill-opacity="0.298039" shape-rendering="crispEdges" points="775.017,469.25 703.818,484.552 977.071,494.76"/>
<polygon fill="#e41a1c" fill-opacity="0.298039" shape-rendering="crispEdges" points="775.017,469.25 750.848,433.74 703.818,484.552"/>
<polygon fill="#e41a1c" fill-opacity="0.298039" shape-rendering="crispEdges" points="682.802,602.206 703.818,484.552 977.071,494.76"/>
<polygon fill="#4daf4a" fill-opacity="0.298039" shape-rendering="crispEdges" points="1062.3,638.803 962.872,419.753 1085.71,456.891"/>
<polygon fill="#e41a1c" fill-opacity="0.298039" shape-rendering="crispEdges" points="775.017,469.25 750.848,433.74 977.071,494.76"/>
<polygon fill="#4daf4a" fill-opacity="0.298039" shape-rendering="crispEdges" points="1062.3,638.803 923.779,476.286 962.872,419.753"/>
<polygon fill="#e41a1c" fill-opacity="0.298039" shape-rendering="crispEdges" points="750.848,433.74 682.802,602.206 703.818,484.552"/>
<polygon fill="#4daf4a" fill-opacity="0.298039" shape-rendering="crispEdges" points="923.779,476.286 962.872,419.753 1085.71,456.891"/>
<polygon fill="#4daf4a" fill-opacity="0.298039" shape-rendering="crispEdges" points="1062.3,638.803 923.779,476.286 1085.71,456.891"/>
<polygon fill="#e41a1c" fill-opacity="0.298039" shape-rendering="crispEdges" points="750.848,433.74 682.802,602.206 977.071,494.76"/>
</g>
</svg>
