<?xml version="1.0" encoding="UTF-8" standalone="no"?>
<svg xmlns="http://www.w3.org/2000/svg"
     xmlns:xlink="http://www.w3.org/1999/xlink"
     width="2048pt" height="1081pt" viewBox="0 0 2048 1081">
<title>D:/3D_GM/Projects/UW105/Results/Tooth_type_classifications/UW105_750_1007/Only_Paranthropus_labelled.svg</title>
<desc>
Creator: GL2PS 1.4.2, (C) 1999-2020 C. Geuzaine
For: Generated by rgl
CreationDate: Fri Jan 23 17:10:23 2026
</desc>
<defs>
</defs>
<g>
<polygon fill="#ffffff" shape-rendering="crispEdges" points="0,1081 2048,1081 2048,0"/>
<polygon fill="#ffffff" shape-rendering="crispEdges" points="0,1081 2048,0 0,0"/>
<polyline fill="none" stroke="#000000" stroke-width="1" stroke-linecap="butt" stroke-linejoin="miter" points="1351.1,530.827 1229.82,938.304"/>
<polyline fill="none" stroke="#000000" stroke-width="1" stroke-linecap="butt" stroke-linejoin="miter" points="1229.82,938.304 727.84,858.884"/>
<polyline fill="none" stroke="#000000" stroke-width="1" stroke-linecap="butt" stroke-linejoin="miter" points="727.84,858.884 849.117,451.406"/>
<polyline fill="none" stroke="#000000" stroke-width="1" stroke-linecap="butt" stroke-linejoin="miter" points="849.117,451.406 1351.1,530.827"/>
<polyline fill="none" stroke="#000000" stroke-width="1" stroke-linecap="butt" stroke-linejoin="miter" points="818.18,142.696 849.117,451.406 727.84,858.884 696.904,550.173 818.18,142.696"/>
<polyline fill="none" stroke="#000000" stroke-width="1" stroke-linecap="butt" stroke-linejoin="miter" points="1351.1,530.827 849.117,451.406"/>
<polyline fill="none" stroke="#000000" stroke-width="1" stroke-linecap="butt" stroke-linejoin="miter" points="849.117,451.406 818.18,142.696"/>
<polyline fill="none" stroke="#000000" stroke-width="1" stroke-linecap="butt" stroke-linejoin="miter" points="818.18,142.696 1320.16,222.116"/>
<polyline fill="none" stroke="#000000" stroke-width="1" stroke-linecap="butt" stroke-linejoin="miter" points="1320.16,222.116 1351.1,530.827"/>
<polyline fill="none" stroke="#000000" stroke-width="1" stroke-linecap="butt" stroke-linejoin="miter" points="1293.63,217.918 1291.57,197.338"/>
<text fill="#000000" x="1275.1" y="182.757" font-size="12" text-anchor="start" dy="0" font-family="Helvetica">-0.06</text>
<polyline fill="none" stroke="#000000" stroke-width="1" stroke-linecap="butt" stroke-linejoin="miter" points="1211.85,204.98 1209.79,184.399"/>
<text fill="#000000" x="1193.33" y="169.819" font-size="12" text-anchor="start" dy="0" font-family="Helvetica">-0.04</text>
<polyline fill="none" stroke="#000000" stroke-width="1" stroke-linecap="butt" stroke-linejoin="miter" points="1130.07,192.042 1128.01,171.461"/>
<text fill="#000000" x="1111.55" y="156.88" font-size="12" text-anchor="start" dy="0" font-family="Helvetica">-0.02</text>
<polyline fill="none" stroke="#000000" stroke-width="1" stroke-linecap="butt" stroke-linejoin="miter" points="1048.3,179.104 1046.24,158.523"/>
<text fill="#000000" x="1040.57" y="143.942" font-size="12" text-anchor="start" dy="0" font-family="Helvetica">0</text>
<polyline fill="none" stroke="#000000" stroke-width="1" stroke-linecap="butt" stroke-linejoin="miter" points="966.521,166.166 964.459,145.585"/>
<text fill="#000000" x="949.997" y="131.004" font-size="12" text-anchor="start" dy="0" font-family="Helvetica">0.02</text>
<polyline fill="none" stroke="#000000" stroke-width="1" stroke-linecap="butt" stroke-linejoin="miter" points="884.745,153.227 882.682,132.646"/>
<text fill="#000000" x="868.22" y="118.066" font-size="12" text-anchor="start" dy="0" font-family="Helvetica">0.04</text>
<polyline fill="none" stroke="#000000" stroke-width="1" stroke-linecap="butt" stroke-linejoin="miter" points="802.64,194.909 800.578,174.328"/>
<text fill="#000000" x="784.116" y="159.748" font-size="12" text-anchor="start" dy="0" font-family="Helvetica">-0.04</text>
<polyline fill="none" stroke="#000000" stroke-width="1" stroke-linecap="butt" stroke-linejoin="miter" points="783.245,260.077 781.182,239.496"/>
<text fill="#000000" x="764.72" y="224.916" font-size="12" text-anchor="start" dy="0" font-family="Helvetica">-0.02</text>
<polyline fill="none" stroke="#000000" stroke-width="1" stroke-linecap="butt" stroke-linejoin="miter" points="763.849,325.245 761.786,304.665"/>
<text fill="#000000" x="756.124" y="290.084" font-size="12" text-anchor="start" dy="0" font-family="Helvetica">0</text>
<polyline fill="none" stroke="#000000" stroke-width="1" stroke-linecap="butt" stroke-linejoin="miter" points="744.453,390.414 742.391,369.833"/>
<text fill="#000000" x="727.928" y="355.252" font-size="12" text-anchor="start" dy="0" font-family="Helvetica">0.02</text>
<polyline fill="none" stroke="#000000" stroke-width="1" stroke-linecap="butt" stroke-linejoin="miter" points="725.057,455.582 722.995,435.001"/>
<text fill="#000000" x="708.532" y="420.42" font-size="12" text-anchor="start" dy="0" font-family="Helvetica">0.04</text>
<polyline fill="none" stroke="#000000" stroke-width="1" stroke-linecap="butt" stroke-linejoin="miter" points="705.661,520.75 703.599,500.169"/>
<text fill="#000000" x="689.136" y="485.588" font-size="12" text-anchor="start" dy="0" font-family="Helvetica">0.06</text>
<polyline fill="none" stroke="#000000" stroke-width="1" stroke-linecap="butt" stroke-linejoin="miter" points="1349.02,510.091 1382.48,515.386"/>
<text fill="#000000" x="1413.67" y="526.681" font-size="12" text-anchor="start" dy="0" font-family="Helvetica">-0.04</text>
<polyline fill="none" stroke="#000000" stroke-width="1" stroke-linecap="butt" stroke-linejoin="miter" points="1341.95,439.554 1375.42,444.849"/>
<text fill="#000000" x="1406.6" y="456.144" font-size="12" text-anchor="start" dy="0" font-family="Helvetica">-0.02</text>
<polyline fill="none" stroke="#000000" stroke-width="1" stroke-linecap="butt" stroke-linejoin="miter" points="1334.88,369.017 1368.35,374.312"/>
<text fill="#000000" x="1401.24" y="385.606" font-size="12" text-anchor="start" dy="0" font-family="Helvetica">0</text>
<polyline fill="none" stroke="#000000" stroke-width="1" stroke-linecap="butt" stroke-linejoin="miter" points="1327.81,298.479 1361.28,303.774"/>
<text fill="#000000" x="1392.78" y="315.069" font-size="12" text-anchor="start" dy="0" font-family="Helvetica">0.02</text>
<polyline fill="none" stroke="#000000" stroke-width="1" stroke-linecap="butt" stroke-linejoin="miter" points="1320.74,227.942 1354.21,233.237"/>
<text fill="#000000" x="1385.71" y="244.532" font-size="12" text-anchor="start" dy="0" font-family="Helvetica">0.04</text>
<polyline fill="none" stroke="#000000" stroke-width="1" stroke-linecap="butt" stroke-linejoin="miter" points="1351.1,530.827 1351.1,530.827"/>
<polyline fill="none" stroke="#000000" stroke-width="1" stroke-linecap="butt" stroke-linejoin="miter" points="696.904,550.173 696.904,550.173"/>
<polyline fill="none" stroke="#000000" stroke-width="1" stroke-linecap="butt" stroke-linejoin="miter" points="966.912,231.736 1013.03,204.043"/>
<circle fill="#4daf4a" cx="1238.3" cy="711.903" r="5"/>
<circle fill="#4daf4a" cx="1264.4" cy="509.174" r="5"/>
<circle fill="#4daf4a" cx="1083.93" cy="530.789" r="5"/>
<circle fill="#4daf4a" cx="1127.5" cy="467.787" r="5"/>
<circle fill="#e41a1c" cx="876.23" cy="610.447" r="5"/>
<circle fill="#e41a1c" cx="815.38" cy="671.118" r="5"/>
<circle fill="#e41a1c" cx="891.213" cy="483.375" r="5"/>
<circle fill="#e41a1c" cx="838.801" cy="540.001" r="5"/>
<circle fill="#e41a1c" cx="1143.32" cy="551.377" r="5"/>
<circle fill="#e41a1c" cx="935.776" cy="576.502" r="5"/>
<circle fill="#e41a1c" cx="918.148" cy="522.947" r="5"/>
<circle fill="#000000" cx="966.912" cy="231.736" r="5"/>
<circle fill="#000000" cx="1013.03" cy="204.043" r="5"/>
<text fill="#000000" x="1032.61" y="78.918" font-size="12" text-anchor="start" dy="0" font-family="Helvetica">PC1 (26.6%)</text>
<text fill="#000000" x="679.427" y="264.817" font-size="12" text-anchor="start" dy="0" font-family="Helvetica">PC2 (24.5%)</text>
<text fill="#000000" x="1441.17" y="376.485" font-size="12" text-anchor="start" dy="0" font-family="Helvetica">PC3 (14.3%)</text>
<text fill="#000000" x="782.801" y="544.401" font-size="8" text-anchor="start" dy="0" font-family="Helvetica">DNH116_ULP4</text>
<text fill="#000000" x="833.348" y="527.347" font-size="8" text-anchor="start" dy="0" font-family="Helvetica">SKX_26625_ULP4_28</text>
<polygon fill="#e41a1c" fill-opacity="0.298039" shape-rendering="crispEdges" points="918.148,522.947 838.801,540.001 1143.32,551.377"/>
<text fill="#000000" x="1051.5" y="472.187" font-size="8" text-anchor="start" dy="0" font-family="Helvetica">SKX_162_URP3_28</text>
<polygon fill="#e41a1c" fill-opacity="0.298039" shape-rendering="crispEdges" points="918.148,522.947 891.213,483.375 838.801,540.001"/>
<text fill="#000000" x="1173.5" y="716.303" font-size="8" text-anchor="start" dy="0" font-family="Helvetica">SK_24_ULP3_28</text>
<polygon fill="#e41a1c" fill-opacity="0.298039" shape-rendering="crispEdges" points="815.38,671.118 838.801,540.001 1143.32,551.377"/>
<text fill="#000000" x="859.776" y="580.902" font-size="8" text-anchor="start" dy="0" font-family="Helvetica">SKX_162_URP4_28</text>
<polygon fill="#4daf4a" fill-opacity="0.298039" shape-rendering="crispEdges" points="1238.3,711.903 1127.5,467.787 1264.4,509.174"/>
<text fill="#000000" x="1092.92" y="555.777" font-size="8" text-anchor="start" dy="0" font-family="Helvetica">SK_28_ULP4</text>
<polygon fill="#e41a1c" fill-opacity="0.298039" shape-rendering="crispEdges" points="918.148,522.947 891.213,483.375 1143.32,551.377"/>
<text fill="#000000" x="891.711" y="236.136" font-size="8" text-anchor="start" dy="0" font-family="Helvetica">UW105-1007_ULP4</text>
<polygon fill="#4daf4a" fill-opacity="0.298039" shape-rendering="crispEdges" points="1238.3,711.903 1083.93,530.789 1127.5,467.787"/>
<polygon fill="#e41a1c" fill-opacity="0.298039" shape-rendering="crispEdges" points="891.213,483.375 815.38,671.118 838.801,540.001"/>
<text fill="#000000" x="1214" y="513.574" font-size="8" text-anchor="start" dy="0" font-family="Helvetica">SK_52_ULP3</text>
<text fill="#000000" x="817.83" y="614.847" font-size="8" text-anchor="start" dy="0" font-family="Helvetica">DNH22A_URP4</text>
<text fill="#000000" x="946.625" y="208.443" font-size="8" text-anchor="start" dy="0" font-family="Helvetica">UW105-750_URP</text>
<polygon fill="#4daf4a" fill-opacity="0.298039" shape-rendering="crispEdges" points="1083.93,530.789 1127.5,467.787 1264.4,509.174"/>
<polygon fill="#4daf4a" fill-opacity="0.298039" shape-rendering="crispEdges" points="1238.3,711.903 1083.93,530.789 1264.4,509.174"/>
<polygon fill="#e41a1c" fill-opacity="0.298039" shape-rendering="crispEdges" points="891.213,483.375 815.38,671.118 1143.32,551.377"/>
<text fill="#000000" x="763.38" y="675.518" font-size="8" text-anchor="start" dy="0" font-family="Helvetica">DNH59_URP4</text>
<text fill="#000000" x="1027.93" y="535.189" font-size="8" text-anchor="start" dy="0" font-family="Helvetica">SK_74c_URP3</text>
<text fill="#000000" x="834.413" y="487.774" font-size="8" text-anchor="start" dy="0" font-family="Helvetica">DNH108_URP4</text>
</g>
</svg>
