<?xml version="1.0" encoding="UTF-8" standalone="no"?>
<svg xmlns="http://www.w3.org/2000/svg"
     xmlns:xlink="http://www.w3.org/1999/xlink"
     width="2048pt" height="1081pt" viewBox="0 0 2048 1081">
<title>D:/3D_GM/Projects/UW105/Results/Tooth_type_classifications/UW105_750_1007/Only_Paranthropus_clean.svg</title>
<desc>
Creator: GL2PS 1.4.2, (C) 1999-2020 C. Geuzaine
For: Generated by rgl
CreationDate: Mon Jan 26 14:19:28 2026
</desc>
<defs>
</defs>
<g>
<polygon fill="#ffffff" shape-rendering="crispEdges" points="0,1081 2048,1081 2048,0"/>
<polygon fill="#ffffff" shape-rendering="crispEdges" points="0,1081 2048,0 0,0"/>
<polyline fill="none" stroke="#000000" stroke-width="1" stroke-linecap="butt" stroke-linejoin="miter" points="777.899,150.494 1319.47,179.931"/>
<polyline fill="none" stroke="#010101" stroke-width="1" stroke-linecap="butt" stroke-linejoin="miter" points="1319.47,179.931 1311.13,634.278"/>
<polyline fill="none" stroke="#000000" stroke-width="1" stroke-linecap="butt" stroke-linejoin="miter" points="1311.13,634.278 769.562,604.841"/>
<polyline fill="none" stroke="#000000" stroke-width="1" stroke-linecap="butt" stroke-linejoin="miter" points="769.562,604.841 777.899,150.494"/>
<polyline fill="none" stroke="#000000" stroke-width="1" stroke-linecap="butt" stroke-linejoin="miter" points="777.899,150.494 769.562,604.841 728.531,901.069 736.869,446.722 777.899,150.494"/>
<polyline fill="none" stroke="#000000" stroke-width="1" stroke-linecap="butt" stroke-linejoin="miter" points="769.562,604.841 1311.13,634.278"/>
<polyline fill="none" stroke="#000000" stroke-width="1" stroke-linecap="butt" stroke-linejoin="miter" points="1311.13,634.278 1270.1,930.506"/>
<polyline fill="none" stroke="#000000" stroke-width="1" stroke-linecap="butt" stroke-linejoin="miter" points="1270.1,930.506 728.531,901.069"/>
<polyline fill="none" stroke="#000000" stroke-width="1" stroke-linecap="butt" stroke-linejoin="miter" points="728.531,901.069 769.562,604.841"/>
<polyline fill="none" stroke="#000000" stroke-width="1" stroke-linecap="butt" stroke-linejoin="miter" points="757.155,902.625 754.42,922.374"/>
<text fill="#000000" x="737.285" y="948.122" font-size="12" text-anchor="start" dy="0" font-family="Helvetica">-0.06</text>
<polyline fill="none" stroke="#000000" stroke-width="1" stroke-linecap="butt" stroke-linejoin="miter" points="845.381,907.42 842.646,927.169"/>
<text fill="#000000" x="825.511" y="952.917" font-size="12" text-anchor="start" dy="0" font-family="Helvetica">-0.04</text>
<polyline fill="none" stroke="#000000" stroke-width="1" stroke-linecap="butt" stroke-linejoin="miter" points="933.608,912.216 930.873,931.964"/>
<text fill="#000000" x="913.737" y="957.713" font-size="12" text-anchor="start" dy="0" font-family="Helvetica">-0.02</text>
<polyline fill="none" stroke="#000000" stroke-width="1" stroke-linecap="butt" stroke-linejoin="miter" points="1021.83,917.012 1019.1,936.76"/>
<text fill="#000000" x="1012.76" y="962.509" font-size="12" text-anchor="start" dy="0" font-family="Helvetica">0</text>
<polyline fill="none" stroke="#000000" stroke-width="1" stroke-linecap="butt" stroke-linejoin="miter" points="1110.06,921.807 1107.32,941.556"/>
<text fill="#000000" x="1092.19" y="967.304" font-size="12" text-anchor="start" dy="0" font-family="Helvetica">0.02</text>
<polyline fill="none" stroke="#000000" stroke-width="1" stroke-linecap="butt" stroke-linejoin="miter" points="1198.29,926.603 1195.55,946.351"/>
<text fill="#000000" x="1180.42" y="972.1" font-size="12" text-anchor="start" dy="0" font-family="Helvetica">0.04</text>
<polyline fill="none" stroke="#000000" stroke-width="1" stroke-linecap="butt" stroke-linejoin="miter" points="735.801,504.94 733.065,524.689"/>
<text fill="#000000" x="715.93" y="550.438" font-size="12" text-anchor="start" dy="0" font-family="Helvetica">-0.04</text>
<polyline fill="none" stroke="#000000" stroke-width="1" stroke-linecap="butt" stroke-linejoin="miter" points="734.467,577.604 731.732,597.353"/>
<text fill="#000000" x="714.597" y="623.102" font-size="12" text-anchor="start" dy="0" font-family="Helvetica">-0.02</text>
<polyline fill="none" stroke="#000000" stroke-width="1" stroke-linecap="butt" stroke-linejoin="miter" points="733.134,650.269 730.398,670.017"/>
<text fill="#000000" x="724.063" y="695.766" font-size="12" text-anchor="start" dy="0" font-family="Helvetica">0</text>
<polyline fill="none" stroke="#000000" stroke-width="1" stroke-linecap="butt" stroke-linejoin="miter" points="731.8,722.933 729.065,742.681"/>
<text fill="#000000" x="713.93" y="768.43" font-size="12" text-anchor="start" dy="0" font-family="Helvetica">0.02</text>
<polyline fill="none" stroke="#000000" stroke-width="1" stroke-linecap="butt" stroke-linejoin="miter" points="730.467,795.597 727.731,815.345"/>
<text fill="#000000" x="712.596" y="841.094" font-size="12" text-anchor="start" dy="0" font-family="Helvetica">0.04</text>
<polyline fill="none" stroke="#000000" stroke-width="1" stroke-linecap="butt" stroke-linejoin="miter" points="729.133,868.261 726.398,888.009"/>
<text fill="#000000" x="711.263" y="913.758" font-size="12" text-anchor="start" dy="0" font-family="Helvetica">0.06</text>
<polyline fill="none" stroke="#000000" stroke-width="1" stroke-linecap="butt" stroke-linejoin="miter" points="1272.86,910.609 1308.96,912.572"/>
<text fill="#000000" x="1344.28" y="920.534" font-size="12" text-anchor="start" dy="0" font-family="Helvetica">-0.04</text>
<polyline fill="none" stroke="#000000" stroke-width="1" stroke-linecap="butt" stroke-linejoin="miter" points="1282.23,842.924 1318.34,844.887"/>
<text fill="#000000" x="1353.66" y="852.849" font-size="12" text-anchor="start" dy="0" font-family="Helvetica">-0.02</text>
<polyline fill="none" stroke="#000000" stroke-width="1" stroke-linecap="butt" stroke-linejoin="miter" points="1291.61,775.239 1327.71,777.202"/>
<text fill="#000000" x="1363.62" y="785.164" font-size="12" text-anchor="start" dy="0" font-family="Helvetica">0</text>
<polyline fill="none" stroke="#000000" stroke-width="1" stroke-linecap="butt" stroke-linejoin="miter" points="1300.98,707.554 1337.09,709.517"/>
<text fill="#000000" x="1372.52" y="717.479" font-size="12" text-anchor="start" dy="0" font-family="Helvetica">0.02</text>
<polyline fill="none" stroke="#000000" stroke-width="1" stroke-linecap="butt" stroke-linejoin="miter" points="1310.36,639.869 1346.46,641.832"/>
<text fill="#000000" x="1381.89" y="649.794" font-size="12" text-anchor="start" dy="0" font-family="Helvetica">0.04</text>
<polyline fill="none" stroke="#000000" stroke-width="1" stroke-linecap="butt" stroke-linejoin="miter" points="736.869,446.722 736.869,446.722"/>
<polyline fill="none" stroke="#000000" stroke-width="1" stroke-linecap="butt" stroke-linejoin="miter" points="1311.13,634.278 1311.13,634.278"/>
<polyline fill="none" stroke="#000000" stroke-width="1" stroke-linecap="butt" stroke-linejoin="miter" points="1149.95,237.127 1103.26,199.613"/>
<circle fill="#4daf4a" cx="780.776" cy="664.728" r="5"/>
<circle fill="#4daf4a" cx="782.908" cy="454.672" r="5"/>
<circle fill="#4daf4a" cx="935.247" cy="523.645" r="5"/>
<circle fill="#4daf4a" cx="948.39" cy="439.486" r="5"/>
<circle fill="#e41a1c" cx="1154.98" cy="646.545" r="5"/>
<circle fill="#e41a1c" cx="1187.18" cy="726.149" r="5"/>
<circle fill="#e41a1c" cx="1140.34" cy="519.071" r="5"/>
<circle fill="#e41a1c" cx="1255.78" cy="572.314" r="5"/>
<circle fill="#4daf4a" cx="906.005" cy="523.3" r="5"/>
<circle fill="#e41a1c" cx="1115.22" cy="595.289" r="5"/>
<circle fill="#e41a1c" cx="1163.22" cy="540.335" r="5"/>
<circle fill="#000000" cx="1149.95" cy="237.127" r="5"/>
<circle fill="#000000" cx="1103.26" cy="199.613" r="5"/>
<text fill="#000000" x="951.419" y="1031.07" font-size="12" text-anchor="start" dy="0" font-family="Helvetica">PC1 (26.6%)</text>
<text fill="#000000" x="649.254" y="756.927" font-size="12" text-anchor="start" dy="0" font-family="Helvetica">PC2 (24.5%)</text>
<text fill="#000000" x="1398.08" y="826.532" font-size="12" text-anchor="start" dy="0" font-family="Helvetica">PC3 (14.3%)</text>
<polygon fill="#e41a1c" fill-opacity="0.298039" shape-rendering="crispEdges" points="1140.34,519.071 1187.18,726.149 1115.22,595.289"/>
<polygon fill="#e41a1c" fill-opacity="0.298039" shape-rendering="crispEdges" points="1140.34,519.071 1187.18,726.149 1255.78,572.314"/>
<polygon fill="#4daf4a" fill-opacity="0.298039" shape-rendering="crispEdges" points="935.247,523.645 948.39,439.486 782.908,454.672"/>
<polygon fill="#4daf4a" fill-opacity="0.298039" shape-rendering="crispEdges" points="780.776,664.728 935.247,523.645 782.908,454.672"/>
<polygon fill="#4daf4a" fill-opacity="0.298039" shape-rendering="crispEdges" points="906.005,523.3 935.247,523.645 948.39,439.486"/>
<polygon fill="#4daf4a" fill-opacity="0.298039" shape-rendering="crispEdges" points="906.005,523.3 780.776,664.728 935.247,523.645"/>
<polygon fill="#e41a1c" fill-opacity="0.298039" shape-rendering="crispEdges" points="1163.22,540.335 1140.34,519.071 1115.22,595.289"/>
<polygon fill="#e41a1c" fill-opacity="0.298039" shape-rendering="crispEdges" points="1187.18,726.149 1255.78,572.314 1115.22,595.289"/>
<polygon fill="#e41a1c" fill-opacity="0.298039" shape-rendering="crispEdges" points="1163.22,540.335 1140.34,519.071 1255.78,572.314"/>
<polygon fill="#4daf4a" fill-opacity="0.298039" shape-rendering="crispEdges" points="780.776,664.728 948.39,439.486 782.908,454.672"/>
<polygon fill="#4daf4a" fill-opacity="0.298039" shape-rendering="crispEdges" points="906.005,523.3 780.776,664.728 948.39,439.486"/>
<polygon fill="#e41a1c" fill-opacity="0.298039" shape-rendering="crispEdges" points="1163.22,540.335 1255.78,572.314 1115.22,595.289"/>
</g>
</svg>
