<?xml version="1.0" encoding="UTF-8" standalone="no"?>
<svg xmlns="http://www.w3.org/2000/svg"
     xmlns:xlink="http://www.w3.org/1999/xlink"
     width="2048pt" height="1081pt" viewBox="0 0 2048 1081">
<title>D:/3D_GM/Projects/UW105/Results/Taxonomic_assessment/UW105_002a_825/3D_PCA_clean_updated.svg</title>
<desc>
Creator: GL2PS 1.4.2, (C) 1999-2020 C. Geuzaine
For: Generated by rgl
CreationDate: Wed Jan 28 10:36:19 2026
</desc>
<defs>
</defs>
<g>
<polygon fill="#ffffff" shape-rendering="crispEdges" points="0,1081 2048,1081 2048,0"/>
<polygon fill="#ffffff" shape-rendering="crispEdges" points="0,1081 2048,0 0,0"/>
<polyline fill="none" stroke="#000000" stroke-width="1" stroke-linecap="butt" stroke-linejoin="miter" points="614.377,798.006 645.276,121.999 748.785,275.729 717.886,951.736 614.377,798.006"/>
<polyline fill="none" stroke="#b5b5b5" stroke-width="1" stroke-linecap="butt" stroke-linejoin="miter" points="1402.72,959.001 717.886,951.736"/>
<polyline fill="none" stroke="#2e2e2e" stroke-width="1" stroke-linecap="butt" stroke-linejoin="miter" points="717.886,951.736 748.785,275.729"/>
<polyline fill="none" stroke="#080808" stroke-width="1" stroke-linecap="butt" stroke-linejoin="miter" points="748.785,275.729 1433.62,282.994"/>
<polyline fill="none" stroke="#1c1c1c" stroke-width="1" stroke-linecap="butt" stroke-linejoin="miter" points="1433.62,282.994 1402.72,959.001"/>
<polyline fill="none" stroke="#000000" stroke-width="1" stroke-linecap="butt" stroke-linejoin="miter" points="1330.11,129.264 1433.62,282.994 748.785,275.729 645.276,121.999 1330.11,129.264"/>
<polyline fill="none" stroke="#000000" stroke-width="1" stroke-linecap="butt" stroke-linejoin="miter" points="1356.91,169.063 1402.57,169.548"/>
<text fill="#000000" x="1448.07" y="176.032" font-size="12" text-anchor="start" dy="0" font-family="Helvetica">-0.05</text>
<polyline fill="none" stroke="#000000" stroke-width="1" stroke-linecap="butt" stroke-linejoin="miter" points="1384.86,210.577 1430.52,211.061"/>
<text fill="#000000" x="1476.14" y="217.545" font-size="12" text-anchor="start" dy="0" font-family="Helvetica">0</text>
<polyline fill="none" stroke="#000000" stroke-width="1" stroke-linecap="butt" stroke-linejoin="miter" points="1412.81,252.09 1458.47,252.574"/>
<text fill="#000000" x="1503.99" y="259.058" font-size="12" text-anchor="start" dy="0" font-family="Helvetica">0.05</text>
<polyline fill="none" stroke="#000000" stroke-width="1" stroke-linecap="butt" stroke-linejoin="miter" points="623.065,607.925 616.165,597.676"/>
<text fill="#000000" x="594.865" y="593.427" font-size="12" text-anchor="start" dy="0" font-family="Helvetica">-0.05</text>
<polyline fill="none" stroke="#000000" stroke-width="1" stroke-linecap="butt" stroke-linejoin="miter" points="633.003,390.517 626.102,380.268"/>
<text fill="#000000" x="615.602" y="376.019" font-size="12" text-anchor="start" dy="0" font-family="Helvetica">0</text>
<polyline fill="none" stroke="#000000" stroke-width="1" stroke-linecap="butt" stroke-linejoin="miter" points="642.94,173.108 636.039,162.859"/>
<text fill="#000000" x="616.739" y="158.61" font-size="12" text-anchor="start" dy="0" font-family="Helvetica">0.05</text>
<polyline fill="none" stroke="#000000" stroke-width="1" stroke-linecap="butt" stroke-linejoin="miter" points="647.814,122.026 640.914,111.777"/>
<text fill="#000000" x="619.613" y="107.528" font-size="12" text-anchor="start" dy="0" font-family="Helvetica">-0.06</text>
<polyline fill="none" stroke="#000000" stroke-width="1" stroke-linecap="butt" stroke-linejoin="miter" points="767.315,123.293 760.415,113.045"/>
<text fill="#000000" x="739.115" y="108.796" font-size="12" text-anchor="start" dy="0" font-family="Helvetica">-0.04</text>
<polyline fill="none" stroke="#000000" stroke-width="1" stroke-linecap="butt" stroke-linejoin="miter" points="886.817,124.561 879.916,114.313"/>
<text fill="#000000" x="858.616" y="110.064" font-size="12" text-anchor="start" dy="0" font-family="Helvetica">-0.02</text>
<polyline fill="none" stroke="#000000" stroke-width="1" stroke-linecap="butt" stroke-linejoin="miter" points="1006.32,125.829 999.417,115.58"/>
<text fill="#000000" x="988.917" y="111.332" font-size="12" text-anchor="start" dy="0" font-family="Helvetica">0</text>
<polyline fill="none" stroke="#000000" stroke-width="1" stroke-linecap="butt" stroke-linejoin="miter" points="1125.82,127.096 1118.92,116.848"/>
<text fill="#000000" x="1099.62" y="112.599" font-size="12" text-anchor="start" dy="0" font-family="Helvetica">0.02</text>
<polyline fill="none" stroke="#000000" stroke-width="1" stroke-linecap="butt" stroke-linejoin="miter" points="1245.32,128.364 1238.42,118.115"/>
<text fill="#000000" x="1219.12" y="113.867" font-size="12" text-anchor="start" dy="0" font-family="Helvetica">0.04</text>
<polyline fill="none" stroke="#000000" stroke-width="1" stroke-linecap="butt" stroke-linejoin="miter" points="614.377,798.006 614.377,798.006"/>
<polyline fill="none" stroke="#000000" stroke-width="1" stroke-linecap="butt" stroke-linejoin="miter" points="1433.62,282.994 1433.62,282.994"/>
<circle fill="#cd661d" cx="1051.96" cy="434.813" r="5"/>
<circle fill="#cd661d" cx="962.353" cy="612.524" r="5"/>
<circle fill="#cd661d" cx="1058.45" cy="470.749" r="5"/>
<circle fill="#cd661d" cx="1052.6" cy="403.183" r="5"/>
<circle fill="#cd661d" cx="967.937" cy="732.435" r="5"/>
<circle fill="#cd661d" cx="1043.6" cy="563.576" r="5"/>
<circle fill="#cd661d" cx="961.174" cy="339.733" r="5"/>
<circle fill="#cd661d" cx="1066.8" cy="486.907" r="5"/>
<circle fill="#cd661d" cx="909.339" cy="371.333" r="5"/>
<circle fill="#cd661d" cx="1032.96" cy="408.518" r="5"/>
<circle fill="#cd661d" cx="814.19" cy="507.204" r="5"/>
<circle fill="#cd661d" cx="1047.69" cy="610.387" r="5"/>
<circle fill="#cd661d" cx="963.065" cy="517.411" r="5"/>
<circle fill="#e41a1c" cx="1053.09" cy="431.226" r="5"/>
<circle fill="#e41a1c" cx="1117.24" cy="412.5" r="5"/>
<circle fill="#e41a1c" cx="1246.09" cy="548.459" r="5"/>
<circle fill="#e41a1c" cx="1072.89" cy="442.304" r="5"/>
<circle fill="#e41a1c" cx="960.635" cy="657.377" r="5"/>
<circle fill="#e41a1c" cx="1077.73" cy="840.014" r="5"/>
<circle fill="#e41a1c" cx="1048.63" cy="621.46" r="5"/>
<circle fill="#e41a1c" cx="981.839" cy="528.714" r="5"/>
<circle fill="#e41a1c" cx="1109.85" cy="731.102" r="5"/>
<circle fill="#4daf4a" cx="869.599" cy="478.303" r="5"/>
<circle fill="#4daf4a" cx="723.411" cy="487.729" r="5"/>
<circle fill="#4daf4a" cx="986.512" cy="457.465" r="5"/>
<circle fill="#4daf4a" cx="1074.05" cy="392.883" r="5"/>
<circle fill="#4daf4a" cx="870.48" cy="207.36" r="5"/>
<circle fill="#984ea3" cx="977.746" cy="351.462" r="5"/>
<circle fill="#4daf4a" cx="1058.09" cy="496.355" r="5"/>
<circle fill="#4daf4a" cx="952.97" cy="442.979" r="5"/>
<circle fill="#4daf4a" cx="861.041" cy="801.002" r="5"/>
<circle fill="#984ea3" cx="902.556" cy="357.955" r="5"/>
<circle fill="#984ea3" cx="1023.55" cy="620.664" r="5"/>
<circle fill="#984ea3" cx="1318.48" cy="352.353" r="5"/>
<circle fill="#984ea3" cx="924.511" cy="312.884" r="5"/>
<circle fill="#1874cd" cx="969.458" cy="554.475" r="5"/>
<circle fill="#1874cd" cx="894.5" cy="349.881" r="5"/>
<circle fill="#1874cd" cx="1001.65" cy="297.69" r="5"/>
<circle fill="#1874cd" cx="967.652" cy="369.215" r="5"/>
<circle fill="#1874cd" cx="1066.91" cy="581.203" r="5"/>
<circle fill="#1874cd" cx="1162.69" cy="375.874" r="5"/>
<circle fill="#1874cd" cx="947.127" cy="557.747" r="5"/>
<circle fill="#1874cd" cx="1056.19" cy="462.499" r="5"/>
<circle fill="#1874cd" cx="926.034" cy="497.856" r="5"/>
<circle fill="#1874cd" cx="1168.02" cy="299.164" r="5"/>
<circle fill="#1874cd" cx="1167.15" cy="524.538" r="5"/>
<circle fill="#1874cd" cx="1143.21" cy="402.415" r="5"/>
<circle fill="#1874cd" cx="977.646" cy="430.447" r="5"/>
<circle fill="#8b864e" cx="1324.65" cy="529.362" r="5"/>
<circle fill="#8b864e" cx="1283.02" cy="543.564" r="5"/>
<circle fill="#8b864e" cx="1141.28" cy="459.323" r="5"/>
<circle fill="#8b864e" cx="1366.34" cy="530.769" r="5"/>
<circle fill="#8b864e" cx="1207.12" cy="436.363" r="5"/>
<circle fill="#8b864e" cx="1308.34" cy="358.835" r="5"/>
<circle fill="#8b864e" cx="1273.95" cy="614.461" r="5"/>
<circle fill="#984ea3" cx="1194.48" cy="311.751" r="5"/>
<circle fill="#000000" cx="1160.01" cy="415.086" r="5"/>
<circle fill="#000000" cx="979.506" cy="254.396" r="5"/>
<text fill="#000000" x="1535.35" y="168.999" font-size="12" text-anchor="start" dy="0" font-family="Helvetica">PC1 (24%)</text>
<text fill="#000000" x="520.168" y="424.523" font-size="12" text-anchor="start" dy="0" font-family="Helvetica">PC2 (13.3%)</text>
<text fill="#000000" x="929.353" y="45.5693" font-size="12" text-anchor="start" dy="0" font-family="Helvetica">PC3 (7.9%)</text>
<polygon fill="#8b864e" fill-opacity="0.298039" shape-rendering="crispEdges" points="1207.12,436.363 1141.28,459.323 1283.02,543.564"/>
<polygon fill="#8b864e" fill-opacity="0.298039" shape-rendering="crispEdges" points="1273.95,614.461 1141.28,459.323 1283.02,543.564"/>
<polygon fill="#8b864e" fill-opacity="0.298039" shape-rendering="crispEdges" points="1207.12,436.363 1308.34,358.835 1283.02,543.564"/>
<polygon fill="#8b864e" fill-opacity="0.298039" shape-rendering="crispEdges" points="1207.12,436.363 1141.28,459.323 1308.34,358.835"/>
<polygon fill="#8b864e" fill-opacity="0.298039" shape-rendering="crispEdges" points="1366.34,530.769 1273.95,614.461 1283.02,543.564"/>
<polygon fill="#8b864e" fill-opacity="0.298039" shape-rendering="crispEdges" points="1273.95,614.461 1141.28,459.323 1324.65,529.362"/>
<polygon fill="#8b864e" fill-opacity="0.298039" shape-rendering="crispEdges" points="1366.34,530.769 1308.34,358.835 1283.02,543.564"/>
<polygon fill="#8b864e" fill-opacity="0.298039" shape-rendering="crispEdges" points="1141.28,459.323 1308.34,358.835 1324.65,529.362"/>
<polygon fill="#1874cd" fill-opacity="0.298039" shape-rendering="crispEdges" points="967.652,369.215 894.5,349.881 947.127,557.747"/>
<polygon fill="#984ea3" fill-opacity="0.298039" shape-rendering="crispEdges" points="924.511,312.884 902.556,357.955 977.746,351.462"/>
<polygon fill="#8b864e" fill-opacity="0.298039" shape-rendering="crispEdges" points="1366.34,530.769 1273.95,614.461 1324.65,529.362"/>
<polygon fill="#1874cd" fill-opacity="0.298039" shape-rendering="crispEdges" points="1167.15,524.538 967.652,369.215 947.127,557.747"/>
<polygon fill="#cd661d" fill-opacity="0.298039" shape-rendering="crispEdges" points="1047.69,610.387 1058.45,470.749 967.937,732.435"/>
<polygon fill="#8b864e" fill-opacity="0.298039" shape-rendering="crispEdges" points="1366.34,530.769 1308.34,358.835 1324.65,529.362"/>
<polygon fill="#984ea3" fill-opacity="0.298039" shape-rendering="crispEdges" points="902.556,357.955 1023.55,620.664 977.746,351.462"/>
<polygon fill="#4daf4a" fill-opacity="0.298039" shape-rendering="crispEdges" points="723.411,487.729 861.041,801.002 869.599,478.303"/>
<polygon fill="#1874cd" fill-opacity="0.298039" shape-rendering="crispEdges" points="1001.65,297.69 967.652,369.215 894.5,349.881"/>
<polygon fill="#984ea3" fill-opacity="0.298039" shape-rendering="crispEdges" points="924.511,312.884 1318.48,352.353 977.746,351.462"/>
<polygon fill="#1874cd" fill-opacity="0.298039" shape-rendering="crispEdges" points="926.034,497.856 894.5,349.881 947.127,557.747"/>
<polygon fill="#1874cd" fill-opacity="0.298039" shape-rendering="crispEdges" points="1066.91,581.203 1167.15,524.538 947.127,557.747"/>
<polygon fill="#1874cd" fill-opacity="0.298039" shape-rendering="crispEdges" points="1001.65,297.69 967.652,369.215 1168.02,299.164"/>
<polygon fill="#1874cd" fill-opacity="0.298039" shape-rendering="crispEdges" points="1167.15,524.538 967.652,369.215 1168.02,299.164"/>
<polygon fill="#4daf4a" fill-opacity="0.298039" shape-rendering="crispEdges" points="1074.05,392.883 861.041,801.002 869.599,478.303"/>
<polygon fill="#1874cd" fill-opacity="0.298039" shape-rendering="crispEdges" points="1066.91,581.203 969.458,554.475 947.127,557.747"/>
<polygon fill="#cd661d" fill-opacity="0.298039" shape-rendering="crispEdges" points="1058.45,470.749 814.19,507.204 967.937,732.435"/>
<polygon fill="#4daf4a" fill-opacity="0.298039" shape-rendering="crispEdges" points="870.48,207.36 723.411,487.729 869.599,478.303"/>
<polygon fill="#984ea3" fill-opacity="0.298039" shape-rendering="crispEdges" points="1318.48,352.353 1023.55,620.664 977.746,351.462"/>
<polygon fill="#1874cd" fill-opacity="0.298039" shape-rendering="crispEdges" points="926.034,497.856 969.458,554.475 947.127,557.747"/>
<polygon fill="#cd661d" fill-opacity="0.298039" shape-rendering="crispEdges" points="1066.8,486.907 1047.69,610.387 1058.45,470.749"/>
<polygon fill="#cd661d" fill-opacity="0.298039" shape-rendering="crispEdges" points="1043.6,563.576 1047.69,610.387 967.937,732.435"/>
<polygon fill="#4daf4a" fill-opacity="0.298039" shape-rendering="crispEdges" points="1074.05,392.883 870.48,207.36 869.599,478.303"/>
<polygon fill="#cd661d" fill-opacity="0.298039" shape-rendering="crispEdges" points="909.339,371.333 1058.45,470.749 814.19,507.204"/>
<polygon fill="#cd661d" fill-opacity="0.298039" shape-rendering="crispEdges" points="909.339,371.333 1058.45,470.749 961.174,339.733"/>
<polygon fill="#4daf4a" fill-opacity="0.298039" shape-rendering="crispEdges" points="723.411,487.729 861.041,801.002 986.512,457.465"/>
<polygon fill="#4daf4a" fill-opacity="0.298039" shape-rendering="crispEdges" points="1058.09,496.355 1074.05,392.883 861.041,801.002"/>
<polygon fill="#984ea3" fill-opacity="0.298039" shape-rendering="crispEdges" points="924.511,312.884 902.556,357.955 1194.48,311.751"/>
<polygon fill="#cd661d" fill-opacity="0.298039" shape-rendering="crispEdges" points="1066.8,486.907 1043.6,563.576 1047.69,610.387"/>
<polygon fill="#1874cd" fill-opacity="0.298039" shape-rendering="crispEdges" points="977.646,430.447 1001.65,297.69 894.5,349.881"/>
<polygon fill="#1874cd" fill-opacity="0.298039" shape-rendering="crispEdges" points="926.034,497.856 977.646,430.447 894.5,349.881"/>
<polygon fill="#cd661d" fill-opacity="0.298039" shape-rendering="crispEdges" points="1043.6,563.576 962.353,612.524 967.937,732.435"/>
<polygon fill="#cd661d" fill-opacity="0.298039" shape-rendering="crispEdges" points="1032.96,408.518 1058.45,470.749 961.174,339.733"/>
<polygon fill="#cd661d" fill-opacity="0.298039" shape-rendering="crispEdges" points="962.353,612.524 814.19,507.204 967.937,732.435"/>
<polygon fill="#4daf4a" fill-opacity="0.298039" shape-rendering="crispEdges" points="870.48,207.36 723.411,487.729 986.512,457.465"/>
<polygon fill="#4daf4a" fill-opacity="0.298039" shape-rendering="crispEdges" points="1058.09,496.355 861.041,801.002 986.512,457.465"/>
<polygon fill="#984ea3" fill-opacity="0.298039" shape-rendering="crispEdges" points="902.556,357.955 1023.55,620.664 1194.48,311.751"/>
<polygon fill="#1874cd" fill-opacity="0.298039" shape-rendering="crispEdges" points="1066.91,581.203 1167.15,524.538 1162.69,375.874"/>
<polygon fill="#1874cd" fill-opacity="0.298039" shape-rendering="crispEdges" points="926.034,497.856 977.646,430.447 969.458,554.475"/>
<polygon fill="#1874cd" fill-opacity="0.298039" shape-rendering="crispEdges" points="1066.91,581.203 969.458,554.475 1162.69,375.874"/>
<polygon fill="#1874cd" fill-opacity="0.298039" shape-rendering="crispEdges" points="1001.65,297.69 1168.02,299.164 1162.69,375.874"/>
<polygon fill="#1874cd" fill-opacity="0.298039" shape-rendering="crispEdges" points="1167.15,524.538 1168.02,299.164 1162.69,375.874"/>
<polygon fill="#e41a1c" fill-opacity="0.298039" shape-rendering="crispEdges" points="1048.63,621.46 1077.73,840.014 1109.85,731.102"/>
<polygon fill="#984ea3" fill-opacity="0.298039" shape-rendering="crispEdges" points="924.511,312.884 1318.48,352.353 1194.48,311.751"/>
<polygon fill="#4daf4a" fill-opacity="0.298039" shape-rendering="crispEdges" points="1074.05,392.883 870.48,207.36 986.512,457.465"/>
<polygon fill="#cd661d" fill-opacity="0.298039" shape-rendering="crispEdges" points="1066.8,486.907 1058.45,470.749 1052.6,403.183"/>
<polygon fill="#cd661d" fill-opacity="0.298039" shape-rendering="crispEdges" points="909.339,371.333 814.19,507.204 961.174,339.733"/>
<polygon fill="#cd661d" fill-opacity="0.298039" shape-rendering="crispEdges" points="1032.96,408.518 1058.45,470.749 1052.6,403.183"/>
<polygon fill="#4daf4a" fill-opacity="0.298039" shape-rendering="crispEdges" points="1058.09,496.355 1074.05,392.883 986.512,457.465"/>
<polygon fill="#e41a1c" fill-opacity="0.298039" shape-rendering="crispEdges" points="1048.63,621.46 981.839,528.714 1077.73,840.014"/>
<polygon fill="#e41a1c" fill-opacity="0.298039" shape-rendering="crispEdges" points="1048.63,621.46 1117.24,412.5 1109.85,731.102"/>
<polygon fill="#984ea3" fill-opacity="0.298039" shape-rendering="crispEdges" points="1318.48,352.353 1023.55,620.664 1194.48,311.751"/>
<polygon fill="#e41a1c" fill-opacity="0.298039" shape-rendering="crispEdges" points="1048.63,621.46 981.839,528.714 1117.24,412.5"/>
<polygon fill="#1874cd" fill-opacity="0.298039" shape-rendering="crispEdges" points="977.646,430.447 1001.65,297.69 1162.69,375.874"/>
<polygon fill="#1874cd" fill-opacity="0.298039" shape-rendering="crispEdges" points="977.646,430.447 969.458,554.475 1162.69,375.874"/>
<polygon fill="#cd661d" fill-opacity="0.298039" shape-rendering="crispEdges" points="1066.8,486.907 1043.6,563.576 1052.6,403.183"/>
<polygon fill="#cd661d" fill-opacity="0.298039" shape-rendering="crispEdges" points="1043.6,563.576 962.353,612.524 1052.6,403.183"/>
<polygon fill="#cd661d" fill-opacity="0.298039" shape-rendering="crispEdges" points="814.19,507.204 961.174,339.733 1052.6,403.183"/>
<polygon fill="#cd661d" fill-opacity="0.298039" shape-rendering="crispEdges" points="962.353,612.524 814.19,507.204 1052.6,403.183"/>
<polygon fill="#cd661d" fill-opacity="0.298039" shape-rendering="crispEdges" points="1032.96,408.518 961.174,339.733 1052.6,403.183"/>
<polygon fill="#e41a1c" fill-opacity="0.298039" shape-rendering="crispEdges" points="1246.09,548.459 1077.73,840.014 1109.85,731.102"/>
<polygon fill="#e41a1c" fill-opacity="0.298039" shape-rendering="crispEdges" points="960.635,657.377 981.839,528.714 1077.73,840.014"/>
<polygon fill="#e41a1c" fill-opacity="0.298039" shape-rendering="crispEdges" points="1117.24,412.5 1246.09,548.459 1109.85,731.102"/>
<polygon fill="#e41a1c" fill-opacity="0.298039" shape-rendering="crispEdges" points="1053.09,431.226 981.839,528.714 1117.24,412.5"/>
<polygon fill="#e41a1c" fill-opacity="0.298039" shape-rendering="crispEdges" points="1053.09,431.226 960.635,657.377 981.839,528.714"/>
<polygon fill="#e41a1c" fill-opacity="0.298039" shape-rendering="crispEdges" points="960.635,657.377 1246.09,548.459 1077.73,840.014"/>
<polygon fill="#e41a1c" fill-opacity="0.298039" shape-rendering="crispEdges" points="1053.09,431.226 1117.24,412.5 1072.89,442.304"/>
<polygon fill="#e41a1c" fill-opacity="0.298039" shape-rendering="crispEdges" points="1117.24,412.5 1246.09,548.459 1072.89,442.304"/>
<polygon fill="#e41a1c" fill-opacity="0.298039" shape-rendering="crispEdges" points="1053.09,431.226 960.635,657.377 1072.89,442.304"/>
<polygon fill="#e41a1c" fill-opacity="0.298039" shape-rendering="crispEdges" points="960.635,657.377 1246.09,548.459 1072.89,442.304"/>
</g>
</svg>
