<?xml version="1.0" encoding="UTF-8" standalone="no"?>
<svg xmlns="http://www.w3.org/2000/svg"
     xmlns:xlink="http://www.w3.org/1999/xlink"
     width="2048pt" height="1081pt" viewBox="0 0 2048 1081">
<title>D:/3D_GM/Projects/UW105/Results/Taxonomic_assessment/UW105_002a_825/3D_PCA_labelled_updated_oriented_for_002a.svg</title>
<desc>
Creator: GL2PS 1.4.2, (C) 1999-2020 C. Geuzaine
For: Generated by rgl
CreationDate: Thu Jan 29 16:40:24 2026
</desc>
<defs>
</defs>
<g>
<polygon fill="#ffffff" shape-rendering="crispEdges" points="0,1081 2048,1081 2048,0"/>
<polygon fill="#ffffff" shape-rendering="crispEdges" points="0,1081 2048,0 0,0"/>
<polyline fill="none" stroke="#000000" stroke-width="1" stroke-linecap="butt" stroke-linejoin="miter" points="1395.35,653.335 1263.71,936.857"/>
<polyline fill="none" stroke="#000000" stroke-width="1" stroke-linecap="butt" stroke-linejoin="miter" points="1263.71,936.857 1204.44,442.171 1336.08,158.649 1395.35,653.335"/>
<polyline fill="none" stroke="#000000" stroke-width="1" stroke-linecap="butt" stroke-linejoin="miter" points="1263.71,936.857 711.917,922.351"/>
<polyline fill="none" stroke="#030303" stroke-width="1" stroke-linecap="butt" stroke-linejoin="miter" points="711.917,922.351 652.646,427.665"/>
<polyline fill="none" stroke="#000000" stroke-width="1" stroke-linecap="butt" stroke-linejoin="miter" points="652.646,427.665 1204.44,442.171"/>
<polyline fill="none" stroke="#000000" stroke-width="1" stroke-linecap="butt" stroke-linejoin="miter" points="1204.44,442.171 1263.71,936.857"/>
<polyline fill="none" stroke="#000000" stroke-width="1" stroke-linecap="butt" stroke-linejoin="miter" points="1336.08,158.649 1204.44,442.171"/>
<polyline fill="none" stroke="#000000" stroke-width="1" stroke-linecap="butt" stroke-linejoin="miter" points="1204.44,442.171 652.646,427.665"/>
<polyline fill="none" stroke="#000000" stroke-width="1" stroke-linecap="butt" stroke-linejoin="miter" points="652.646,427.665 784.293,144.143"/>
<polyline fill="none" stroke="#000000" stroke-width="1" stroke-linecap="butt" stroke-linejoin="miter" points="784.293,144.143 1336.08,158.649"/>
<polyline fill="none" stroke="#000000" stroke-width="1" stroke-linecap="butt" stroke-linejoin="miter" points="750.21,217.545 713.424,216.578"/>
<text fill="#000000" x="648.217" y="221.611" font-size="12" text-anchor="start" dy="0" font-family="Helvetica">-0.05</text>
<polyline fill="none" stroke="#000000" stroke-width="1" stroke-linecap="butt" stroke-linejoin="miter" points="714.661,294.107 677.875,293.14"/>
<text fill="#000000" x="633.983" y="298.173" font-size="12" text-anchor="start" dy="0" font-family="Helvetica">0</text>
<polyline fill="none" stroke="#000000" stroke-width="1" stroke-linecap="butt" stroke-linejoin="miter" points="679.111,370.669 642.325,369.702"/>
<text fill="#000000" x="581.065" y="374.734" font-size="12" text-anchor="start" dy="0" font-family="Helvetica">0.05</text>
<polyline fill="none" stroke="#000000" stroke-width="1" stroke-linecap="butt" stroke-linejoin="miter" points="1378.69,514.238 1387.46,495.337"/>
<text fill="#000000" x="1381.84" y="482.435" font-size="12" text-anchor="start" dy="0" font-family="Helvetica">-0.05</text>
<polyline fill="none" stroke="#000000" stroke-width="1" stroke-linecap="butt" stroke-linejoin="miter" points="1359.63,355.144 1368.4,336.243"/>
<text fill="#000000" x="1373.58" y="323.341" font-size="12" text-anchor="start" dy="0" font-family="Helvetica">0</text>
<polyline fill="none" stroke="#000000" stroke-width="1" stroke-linecap="butt" stroke-linejoin="miter" points="1340.56,196.05 1349.34,177.148"/>
<text fill="#000000" x="1345.72" y="164.247" font-size="12" text-anchor="start" dy="0" font-family="Helvetica">0.05</text>
<polyline fill="none" stroke="#000000" stroke-width="1" stroke-linecap="butt" stroke-linejoin="miter" points="786.338,144.196 795.115,125.295"/>
<text fill="#000000" x="789.492" y="112.394" font-size="12" text-anchor="start" dy="0" font-family="Helvetica">-0.06</text>
<polyline fill="none" stroke="#000000" stroke-width="1" stroke-linecap="butt" stroke-linejoin="miter" points="882.623,146.728 891.4,127.826"/>
<text fill="#000000" x="885.776" y="114.925" font-size="12" text-anchor="start" dy="0" font-family="Helvetica">-0.04</text>
<polyline fill="none" stroke="#000000" stroke-width="1" stroke-linecap="butt" stroke-linejoin="miter" points="978.908,149.259 987.685,130.358"/>
<text fill="#000000" x="982.061" y="117.456" font-size="12" text-anchor="start" dy="0" font-family="Helvetica">-0.02</text>
<polyline fill="none" stroke="#000000" stroke-width="1" stroke-linecap="butt" stroke-linejoin="miter" points="1075.19,151.791 1083.97,132.889"/>
<text fill="#000000" x="1089.15" y="119.988" font-size="12" text-anchor="start" dy="0" font-family="Helvetica">0</text>
<polyline fill="none" stroke="#000000" stroke-width="1" stroke-linecap="butt" stroke-linejoin="miter" points="1171.48,154.322 1180.25,135.42"/>
<text fill="#000000" x="1176.63" y="122.519" font-size="12" text-anchor="start" dy="0" font-family="Helvetica">0.02</text>
<polyline fill="none" stroke="#000000" stroke-width="1" stroke-linecap="butt" stroke-linejoin="miter" points="1267.76,156.853 1276.54,137.952"/>
<text fill="#000000" x="1272.92" y="125.05" font-size="12" text-anchor="start" dy="0" font-family="Helvetica">0.04</text>
<polyline fill="none" stroke="#000000" stroke-width="1" stroke-linecap="butt" stroke-linejoin="miter" points="843.564,638.829 843.564,638.829"/>
<polyline fill="none" stroke="#000000" stroke-width="1" stroke-linecap="butt" stroke-linejoin="miter" points="1204.44,442.171 1204.44,442.171"/>
<circle fill="#cd661d" cx="1068.54" cy="437.967" r="5"/>
<circle fill="#cd661d" cx="1007.07" cy="575.255" r="5"/>
<circle fill="#cd661d" cx="986.457" cy="530.863" r="5"/>
<circle fill="#cd661d" cx="1098.26" cy="390.806" r="5"/>
<circle fill="#cd661d" cx="945.137" cy="722.083" r="5"/>
<circle fill="#cd661d" cx="1033.32" cy="564.417" r="5"/>
<circle fill="#cd661d" cx="992.56" cy="360.685" r="5"/>
<circle fill="#cd661d" cx="1060.84" cy="495.247" r="5"/>
<circle fill="#cd661d" cx="910.421" cy="415.278" r="5"/>
<circle fill="#cd661d" cx="1033.38" cy="430.491" r="5"/>
<circle fill="#cd661d" cx="864.852" cy="503.327" r="5"/>
<circle fill="#cd661d" cx="1004.46" cy="626.266" r="5"/>
<circle fill="#cd661d" cx="1007.31" cy="497.273" r="5"/>
<circle fill="#e41a1c" cx="1121.03" cy="397.669" r="5"/>
<circle fill="#e41a1c" cx="1139.65" cy="407.019" r="5"/>
<circle fill="#e41a1c" cx="1280.94" cy="493.307" r="5"/>
<circle fill="#e41a1c" cx="1156.87" cy="392.619" r="5"/>
<circle fill="#e41a1c" cx="1059.5" cy="573.147" r="5"/>
<circle fill="#e41a1c" cx="1107.81" cy="758.181" r="5"/>
<circle fill="#e41a1c" cx="1031.04" cy="616.67" r="5"/>
<circle fill="#e41a1c" cx="994.302" cy="527.186" r="5"/>
<circle fill="#e41a1c" cx="1088.74" cy="701.557" r="5"/>
<circle fill="#4daf4a" cx="839.676" cy="530.825" r="5"/>
<circle fill="#4daf4a" cx="761.354" cy="508.167" r="5"/>
<circle fill="#4daf4a" cx="1013.17" cy="457.698" r="5"/>
<circle fill="#4daf4a" cx="1044.73" cy="433.897" r="5"/>
<circle fill="#4daf4a" cx="886.292" cy="274.719" r="5"/>
<circle fill="#984ea3" cx="905.632" cy="443.183" r="5"/>
<circle fill="#4daf4a" cx="1047.72" cy="507.332" r="5"/>
<circle fill="#4daf4a" cx="945.772" cy="474.611" r="5"/>
<circle fill="#4daf4a" cx="875.039" cy="765.538" r="5"/>
<circle fill="#984ea3" cx="877.592" cy="424.013" r="5"/>
<circle fill="#984ea3" cx="1002.44" cy="621.786" r="5"/>
<circle fill="#984ea3" cx="1237.89" cy="406.343" r="5"/>
<circle fill="#984ea3" cx="882.291" cy="396.625" r="5"/>
<circle fill="#1874cd" cx="972.268" cy="556.956" r="5"/>
<circle fill="#1874cd" cx="877.566" cy="412.587" r="5"/>
<circle fill="#1874cd" cx="977.453" cy="361.175" r="5"/>
<circle fill="#1874cd" cx="896.265" cy="458.554" r="5"/>
<circle fill="#1874cd" cx="1028.09" cy="596.594" r="5"/>
<circle fill="#1874cd" cx="1162.37" cy="387.522" r="5"/>
<circle fill="#1874cd" cx="895.229" cy="602.144" r="5"/>
<circle fill="#1874cd" cx="1002.07" cy="511.416" r="5"/>
<circle fill="#1874cd" cx="935.744" cy="510.957" r="5"/>
<circle fill="#1874cd" cx="1099.42" cy="373.212" r="5"/>
<circle fill="#1874cd" cx="1113.64" cy="547.771" r="5"/>
<circle fill="#1874cd" cx="1140.23" cy="413.784" r="5"/>
<circle fill="#1874cd" cx="1003.73" cy="437.027" r="5"/>
<circle fill="#8b864e" cx="1207.01" cy="577.989" r="5"/>
<circle fill="#8b864e" cx="1125.74" cy="623.73" r="5"/>
<circle fill="#8b864e" cx="1017.94" cy="548.037" r="5"/>
<circle fill="#8b864e" cx="1237.27" cy="582.082" r="5"/>
<circle fill="#8b864e" cx="1060.88" cy="537.296" r="5"/>
<circle fill="#8b864e" cx="1170.1" cy="454.743" r="5"/>
<circle fill="#8b864e" cx="1135.06" cy="669.884" r="5"/>
<circle fill="#984ea3" cx="1199.91" cy="326.54" r="5"/>
<circle fill="#000000" cx="1119.16" cy="449.485" r="5"/>
<circle fill="#000000" cx="998.76" cy="296.928" r="5"/>
<text fill="#000000" x="536.174" y="255.056" font-size="12" text-anchor="start" dy="0" font-family="Helvetica">PC1 (24%)</text>
<text fill="#000000" x="1401.21" y="337.354" font-size="12" text-anchor="start" dy="0" font-family="Helvetica">PC2 (13.3%)</text>
<text fill="#000000" x="1058.54" y="48.811" font-size="12" text-anchor="start" dy="0" font-family="Helvetica">PC3 (7.9%)</text>
<text fill="#000000" x="1004.08" y="542.496" font-size="9" text-anchor="start" dy="0" font-family="Helvetica">UW101_789</text>
<text fill="#000000" x="1068.94" y="628.93" font-size="9" text-anchor="start" dy="0" font-family="Helvetica">UW101_284</text>
<polygon fill="#8b864e" fill-opacity="0.298039" shape-rendering="crispEdges" points="1060.88,537.296 1170.1,454.743 1125.74,623.73"/>
<polygon fill="#8b864e" fill-opacity="0.298039" shape-rendering="crispEdges" points="1060.88,537.296 1017.94,548.037 1125.74,623.73"/>
<polygon fill="#8b864e" fill-opacity="0.298039" shape-rendering="crispEdges" points="1060.88,537.296 1017.94,548.037 1170.1,454.743"/>
<text fill="#000000" x="1074.9" y="459.943" font-size="9" text-anchor="start" dy="0" font-family="Helvetica">UW101_1142_LRM2</text>
<polygon fill="#8b864e" fill-opacity="0.298039" shape-rendering="crispEdges" points="1135.06,669.884 1017.94,548.037 1125.74,623.73"/>
<text fill="#000000" x="928.336" y="553.237" font-size="9" text-anchor="start" dy="0" font-family="Helvetica">UW101_377_LRM2</text>
<polygon fill="#8b864e" fill-opacity="0.298039" shape-rendering="crispEdges" points="1237.27,582.082 1170.1,454.743 1125.74,623.73"/>
<polygon fill="#8b864e" fill-opacity="0.298039" shape-rendering="crispEdges" points="1237.27,582.082 1135.06,669.884 1125.74,623.73"/>
<text fill="#000000" x="1041.46" y="675.084" font-size="9" text-anchor="start" dy="0" font-family="Helvetica">UW101_1283_LLM2</text>
<polygon fill="#8b864e" fill-opacity="0.298039" shape-rendering="crispEdges" points="1017.94,548.037 1170.1,454.743 1207.01,577.989"/>
<polygon fill="#8b864e" fill-opacity="0.298039" shape-rendering="crispEdges" points="1135.06,669.884 1017.94,548.037 1207.01,577.989"/>
<polygon fill="#8b864e" fill-opacity="0.298039" shape-rendering="crispEdges" points="1237.27,582.082 1170.1,454.743 1207.01,577.989"/>
<polygon fill="#8b864e" fill-opacity="0.298039" shape-rendering="crispEdges" points="1237.27,582.082 1135.06,669.884 1207.01,577.989"/>
<text fill="#000000" x="1180.47" y="587.282" font-size="9" text-anchor="start" dy="0" font-family="Helvetica">UW101_507</text>
<text fill="#000000" x="1150.21" y="583.189" font-size="9" text-anchor="start" dy="0" font-family="Helvetica">UW101_145</text>
<text fill="#000000" x="748.032" y="448.383" font-size="9" text-anchor="start" dy="0" font-family="Helvetica">LM2_Pboi_KNM-ER_15930_LLM2</text>
<text fill="#000000" x="819.465" y="463.754" font-size="9" text-anchor="start" dy="0" font-family="Helvetica">Pr_GDA2_LRM2</text>
<text fill="#000000" x="895.257" y="536.063" font-size="9" text-anchor="start" dy="0" font-family="Helvetica">Aafr_STW14_LRM2</text>
<polygon fill="#984ea3" fill-opacity="0.298039" shape-rendering="crispEdges" points="882.291,396.625 1237.89,406.343 905.632,443.183"/>
<text fill="#000000" x="1006.62" y="378.413" font-size="9" text-anchor="start" dy="0" font-family="Helvetica">Pr_SK1587B_LRM2</text>
<polygon fill="#984ea3" fill-opacity="0.298039" shape-rendering="crispEdges" points="882.291,396.625 877.592,424.013 905.632,443.183"/>
<polygon fill="#1874cd" fill-opacity="0.298039" shape-rendering="crispEdges" points="1113.64,547.771 896.265,458.554 1099.42,373.212"/>
<polygon fill="#1874cd" fill-opacity="0.298039" shape-rendering="crispEdges" points="977.453,361.175 896.265,458.554 1099.42,373.212"/>
<text fill="#000000" x="785.491" y="401.825" font-size="9" text-anchor="start" dy="0" font-family="Helvetica">Pb_OmoF203_LRM2</text>
<text fill="#000000" x="1151.49" y="411.543" font-size="9" text-anchor="start" dy="0" font-family="Helvetica">Pb_L157-35_LLM2</text>
<polygon fill="#1874cd" fill-opacity="0.298039" shape-rendering="crispEdges" points="896.265,458.554 877.566,412.587 895.229,602.144"/>
<polygon fill="#1874cd" fill-opacity="0.298039" shape-rendering="crispEdges" points="1113.64,547.771 896.265,458.554 895.229,602.144"/>
<text fill="#000000" x="822.43" y="607.344" font-size="9" text-anchor="start" dy="0" font-family="Helvetica">Pr_SK23_LLM2</text>
<polygon fill="#1874cd" fill-opacity="0.298039" shape-rendering="crispEdges" points="977.453,361.175 896.265,458.554 877.566,412.587"/>
<polygon fill="#984ea3" fill-opacity="0.298039" shape-rendering="crispEdges" points="1237.89,406.343 1002.44,621.786 905.632,443.183"/>
<text fill="#000000" x="927.672" y="516.616" font-size="9" text-anchor="start" dy="0" font-family="Helvetica">Pr_SK25_LRM2</text>
<polygon fill="#984ea3" fill-opacity="0.298039" shape-rendering="crispEdges" points="877.592,424.013 1002.44,621.786 905.632,443.183"/>
<text fill="#000000" x="738.076" y="536.025" font-size="9" text-anchor="start" dy="0" font-family="Helvetica">KNM-ER_806B_LLM2</text>
<text fill="#000000" x="751.992" y="429.213" font-size="9" text-anchor="start" dy="0" font-family="Helvetica">Pb_KNM-ER_25520_LRM2</text>
<polygon fill="#1874cd" fill-opacity="0.298039" shape-rendering="crispEdges" points="1028.09,596.594 1113.64,547.771 895.229,602.144"/>
<polygon fill="#cd661d" fill-opacity="0.298039" shape-rendering="crispEdges" points="1004.46,626.266 986.457,530.863 945.137,722.083"/>
<text fill="#000000" x="803.167" y="417.788" font-size="9" text-anchor="start" dy="0" font-family="Helvetica">Pr_DNH8_LLM2</text>
<text fill="#000000" x="1036.04" y="552.972" font-size="9" text-anchor="start" dy="0" font-family="Helvetica">Pr_SKW5_LLM2</text>
<text fill="#000000" x="888.653" y="366.375" font-size="9" text-anchor="start" dy="0" font-family="Helvetica">Pr_DNH60C_LRM2</text>
<polygon fill="#984ea3" fill-opacity="0.298039" shape-rendering="crispEdges" points="882.291,396.625 1237.89,406.343 1199.91,326.54"/>
<polygon fill="#cd661d" fill-opacity="0.298039" shape-rendering="crispEdges" points="1060.84,495.247 1004.46,626.266 986.457,530.863"/>
<text fill="#000000" x="903.659" y="631.466" font-size="9" text-anchor="start" dy="0" font-family="Helvetica">Aafr_STW498c_LLM2</text>
<polygon fill="#1874cd" fill-opacity="0.298039" shape-rendering="crispEdges" points="1113.64,547.771 1099.42,373.212 1162.37,387.522"/>
<polygon fill="#1874cd" fill-opacity="0.298039" shape-rendering="crispEdges" points="977.453,361.175 1099.42,373.212 1162.37,387.522"/>
<text fill="#000000" x="1031.96" y="454.686" font-size="9" text-anchor="start" dy="0" font-family="Helvetica">UW105-825_LRM2</text>
<polygon fill="#984ea3" fill-opacity="0.298039" shape-rendering="crispEdges" points="882.291,396.625 877.592,424.013 1199.91,326.54"/>
<polygon fill="#1874cd" fill-opacity="0.298039" shape-rendering="crispEdges" points="935.744,510.957 877.566,412.587 895.229,602.144"/>
<polygon fill="#4daf4a" fill-opacity="0.298039" shape-rendering="crispEdges" points="1044.73,433.897 886.292,274.719 839.676,530.825"/>
<text fill="#000000" x="943.134" y="439.098" font-size="9" text-anchor="start" dy="0" font-family="Helvetica">KNM-ER_1802_LRM2</text>
<text fill="#000000" x="960.894" y="601.794" font-size="9" text-anchor="start" dy="0" font-family="Helvetica">Pr_SK1_LLM2</text>
<polygon fill="#1874cd" fill-opacity="0.298039" shape-rendering="crispEdges" points="1028.09,596.594 972.268,556.956 895.229,602.144"/>
<polygon fill="#cd661d" fill-opacity="0.298039" shape-rendering="crispEdges" points="910.421,415.278 986.457,530.863 992.56,360.685"/>
<polygon fill="#984ea3" fill-opacity="0.298039" shape-rendering="crispEdges" points="1237.89,406.343 1002.44,621.786 1199.91,326.54"/>
<polygon fill="#4daf4a" fill-opacity="0.298039" shape-rendering="crispEdges" points="1044.73,433.897 875.039,765.538 839.676,530.825"/>
<polygon fill="#1874cd" fill-opacity="0.298039" shape-rendering="crispEdges" points="1028.09,596.594 1113.64,547.771 1162.37,387.522"/>
<polygon fill="#1874cd" fill-opacity="0.298039" shape-rendering="crispEdges" points="1003.73,437.027 977.453,361.175 877.566,412.587"/>
<polygon fill="#cd661d" fill-opacity="0.298039" shape-rendering="crispEdges" points="1033.38,430.491 986.457,530.863 992.56,360.685"/>
<polygon fill="#cd661d" fill-opacity="0.298039" shape-rendering="crispEdges" points="910.421,415.278 986.457,530.863 864.852,503.327"/>
<polygon fill="#1874cd" fill-opacity="0.298039" shape-rendering="crispEdges" points="935.744,510.957 972.268,556.956 895.229,602.144"/>
<polygon fill="#cd661d" fill-opacity="0.298039" shape-rendering="crispEdges" points="986.457,530.863 864.852,503.327 945.137,722.083"/>
<polygon fill="#4daf4a" fill-opacity="0.298039" shape-rendering="crispEdges" points="886.292,274.719 761.354,508.167 839.676,530.825"/>
<polygon fill="#cd661d" fill-opacity="0.298039" shape-rendering="crispEdges" points="1033.32,564.417 1004.46,626.266 945.137,722.083"/>
<text fill="#000000" x="813.621" y="420.479" font-size="9" text-anchor="start" dy="0" font-family="Helvetica">Aafr_STW404_LRM2</text>
<text fill="#000000" x="886.572" y="479.812" font-size="9" text-anchor="start" dy="0" font-family="Helvetica">OH13_LRM2</text>
<text fill="#000000" x="776.692" y="279.919" font-size="9" text-anchor="start" dy="0" font-family="Helvetica">KNM-ER_1808G_LRM2</text>
<polygon fill="#984ea3" fill-opacity="0.298039" shape-rendering="crispEdges" points="877.592,424.013 1002.44,621.786 1199.91,326.54"/>
<text fill="#000000" x="849.937" y="727.283" font-size="9" text-anchor="start" dy="0" font-family="Helvetica">Aafr_STW133_LLM2</text>
<text fill="#000000" x="920.041" y="626.986" font-size="9" text-anchor="start" dy="0" font-family="Helvetica">Pb_L62-17_LRM2</text>
<polygon fill="#cd661d" fill-opacity="0.298039" shape-rendering="crispEdges" points="1060.84,495.247 1033.32,564.417 1004.46,626.266"/>
<polygon fill="#cd661d" fill-opacity="0.298039" shape-rendering="crispEdges" points="1033.38,430.491 986.457,530.863 1098.26,390.806"/>
<polygon fill="#cd661d" fill-opacity="0.298039" shape-rendering="crispEdges" points="1060.84,495.247 986.457,530.863 1098.26,390.806"/>
<polygon fill="#4daf4a" fill-opacity="0.298039" shape-rendering="crispEdges" points="1044.73,433.897 886.292,274.719 1013.17,457.698"/>
<text fill="#000000" x="954.244" y="621.871" font-size="9" text-anchor="start" dy="0" font-family="Helvetica">AL333w-1_LLM2</text>
<polygon fill="#4daf4a" fill-opacity="0.298039" shape-rendering="crispEdges" points="761.354,508.167 875.039,765.538 839.676,530.825"/>
<polygon fill="#1874cd" fill-opacity="0.298039" shape-rendering="crispEdges" points="1028.09,596.594 972.268,556.956 1162.37,387.522"/>
<polygon fill="#4daf4a" fill-opacity="0.298039" shape-rendering="crispEdges" points="1047.72,507.332 1044.73,433.897 875.039,765.538"/>
<text fill="#000000" x="995.717" y="512.532" font-size="9" text-anchor="start" dy="0" font-family="Helvetica">OH7_LLM2</text>
<polygon fill="#1874cd" fill-opacity="0.298039" shape-rendering="crispEdges" points="935.744,510.957 1003.73,437.027 877.566,412.587"/>
<polygon fill="#4daf4a" fill-opacity="0.298039" shape-rendering="crispEdges" points="1047.72,507.332 1044.73,433.897 1013.17,457.698"/>
<polygon fill="#1874cd" fill-opacity="0.298039" shape-rendering="crispEdges" points="1003.73,437.027 977.453,361.175 1162.37,387.522"/>
<text fill="#000000" x="938.12" y="569.617" font-size="9" text-anchor="start" dy="0" font-family="Helvetica">Aafr_STW213_LLM2</text>
<text fill="#000000" x="930.976" y="435.691" font-size="9" text-anchor="start" dy="0" font-family="Helvetica">Aafr_STW412B_LLM2</text>
<text fill="#000000" x="965.638" y="500.447" font-size="9" text-anchor="start" dy="0" font-family="Helvetica">Aafr_STW327_LLM2</text>
<text fill="#000000" x="857.344" y="516.157" font-size="9" text-anchor="start" dy="0" font-family="Helvetica">Pr_SK843_LLM2</text>
<text fill="#000000" x="896.268" y="562.156" font-size="9" text-anchor="start" dy="0" font-family="Helvetica">Pr_DNH7_LRM2</text>
<text fill="#000000" x="1017.54" y="706.757" font-size="9" text-anchor="start" dy="0" font-family="Helvetica">AL440-1_LRM2</text>
<text fill="#000000" x="897.96" y="302.128" font-size="9" text-anchor="start" dy="0" font-family="Helvetica">UW_105_002A_LLM2</text>
<text fill="#000000" x="1049.03" y="418.984" font-size="9" text-anchor="start" dy="0" font-family="Helvetica">Pr_SKX4446_LRM2</text>
<polygon fill="#4daf4a" fill-opacity="0.298039" shape-rendering="crispEdges" points="886.292,274.719 761.354,508.167 1013.17,457.698"/>
<polygon fill="#1874cd" fill-opacity="0.298039" shape-rendering="crispEdges" points="935.744,510.957 1003.73,437.027 972.268,556.956"/>
<text fill="#000000" x="1093.57" y="392.723" font-size="9" text-anchor="start" dy="0" font-family="Helvetica">Pr_SK6_LRM2</text>
<polygon fill="#e41a1c" fill-opacity="0.298039" shape-rendering="crispEdges" points="1031.04,616.67 1139.65,407.019 1088.74,701.557"/>
<text fill="#000000" x="666.955" y="513.367" font-size="9" text-anchor="start" dy="0" font-family="Helvetica">KNM-ER_992_LLM2</text>
<polygon fill="#1874cd" fill-opacity="0.298039" shape-rendering="crispEdges" points="1003.73,437.027 972.268,556.956 1162.37,387.522"/>
<polygon fill="#cd661d" fill-opacity="0.298039" shape-rendering="crispEdges" points="1033.32,564.417 1007.07,575.255 945.137,722.083"/>
<polygon fill="#e41a1c" fill-opacity="0.298039" shape-rendering="crispEdges" points="1031.04,616.67 994.302,527.186 1139.65,407.019"/>
<polygon fill="#4daf4a" fill-opacity="0.298039" shape-rendering="crispEdges" points="1047.72,507.332 875.039,765.538 1013.17,457.698"/>
<polygon fill="#cd661d" fill-opacity="0.298039" shape-rendering="crispEdges" points="910.421,415.278 864.852,503.327 992.56,360.685"/>
<text fill="#000000" x="919.102" y="532.386" font-size="9" text-anchor="start" dy="0" font-family="Helvetica">AL417-1a_LLM2</text>
<text fill="#000000" x="1063.91" y="331.74" font-size="9" text-anchor="start" dy="0" font-family="Helvetica">Pb_Omo47-1973-1500_LRM3</text>
<polygon fill="#cd661d" fill-opacity="0.298039" shape-rendering="crispEdges" points="1060.84,495.247 1033.32,564.417 1098.26,390.806"/>
<polygon fill="#4daf4a" fill-opacity="0.298039" shape-rendering="crispEdges" points="761.354,508.167 875.039,765.538 1013.17,457.698"/>
<text fill="#000000" x="815.838" y="770.738" font-size="9" text-anchor="start" dy="0" font-family="Helvetica">OH16_LRM2</text>
<text fill="#000000" x="984.541" y="443.167" font-size="9" text-anchor="start" dy="0" font-family="Helvetica">Aafr_MLD2_LRM2</text>
<polygon fill="#e41a1c" fill-opacity="0.298039" shape-rendering="crispEdges" points="1031.04,616.67 1107.81,758.181 1088.74,701.557"/>
<text fill="#000000" x="895.76" y="365.885" font-size="9" text-anchor="start" dy="0" font-family="Helvetica">Aafr_STW234_LRM2</text>
<text fill="#000000" x="919.73" y="442.227" font-size="9" text-anchor="start" dy="0" font-family="Helvetica">Pr_TM1600_LLM2</text>
<polygon fill="#cd661d" fill-opacity="0.298039" shape-rendering="crispEdges" points="1033.38,430.491 992.56,360.685 1098.26,390.806"/>
<polygon fill="#e41a1c" fill-opacity="0.298039" shape-rendering="crispEdges" points="1031.04,616.67 994.302,527.186 1107.81,758.181"/>
<polygon fill="#cd661d" fill-opacity="0.298039" shape-rendering="crispEdges" points="1007.07,575.255 864.852,503.327 945.137,722.083"/>
<text fill="#000000" x="913.169" y="462.898" font-size="9" text-anchor="start" dy="0" font-family="Helvetica">KNM-ER_1507_LLM2</text>
<text fill="#000000" x="1064.45" y="412.219" font-size="9" text-anchor="start" dy="0" font-family="Helvetica">AL145-35_LLM2</text>
<polygon fill="#cd661d" fill-opacity="0.298039" shape-rendering="crispEdges" points="1033.32,564.417 1007.07,575.255 1098.26,390.806"/>
<polygon fill="#e41a1c" fill-opacity="0.298039" shape-rendering="crispEdges" points="1139.65,407.019 1280.94,493.307 1088.74,701.557"/>
<polygon fill="#cd661d" fill-opacity="0.298039" shape-rendering="crispEdges" points="864.852,503.327 992.56,360.685 1098.26,390.806"/>
<text fill="#000000" x="769.651" y="508.527" font-size="9" text-anchor="start" dy="0" font-family="Helvetica">Aafr_STW491_LLM2</text>
<polygon fill="#e41a1c" fill-opacity="0.298039" shape-rendering="crispEdges" points="1121.03,397.669 994.302,527.186 1139.65,407.019"/>
<polygon fill="#e41a1c" fill-opacity="0.298039" shape-rendering="crispEdges" points="1280.94,493.307 1107.81,758.181 1088.74,701.557"/>
<text fill="#000000" x="903.31" y="502.474" font-size="9" text-anchor="start" dy="0" font-family="Helvetica">Aafr_STW560E_LRM2</text>
<polygon fill="#cd661d" fill-opacity="0.298039" shape-rendering="crispEdges" points="1007.07,575.255 864.852,503.327 1098.26,390.806"/>
<text fill="#000000" x="1001.46" y="396.006" font-size="9" text-anchor="start" dy="0" font-family="Helvetica">Aafr_STW109_LRM2</text>
<text fill="#000000" x="913.472" y="580.456" font-size="9" text-anchor="start" dy="0" font-family="Helvetica">Aafr_STS52b_LRM2</text>
<text fill="#000000" x="1036.61" y="763.381" font-size="9" text-anchor="start" dy="0" font-family="Helvetica">AL330-5_LRM2</text>
<polygon fill="#e41a1c" fill-opacity="0.298039" shape-rendering="crispEdges" points="1059.5,573.147 994.302,527.186 1107.81,758.181"/>
<polygon fill="#e41a1c" fill-opacity="0.298039" shape-rendering="crispEdges" points="1139.65,407.019 1280.94,493.307 1156.87,392.619"/>
<polygon fill="#e41a1c" fill-opacity="0.298039" shape-rendering="crispEdges" points="1121.03,397.669 1059.5,573.147 994.302,527.186"/>
<text fill="#000000" x="1209.74" y="498.507" font-size="9" text-anchor="start" dy="0" font-family="Helvetica">AL188-1_LRM2</text>
<polygon fill="#e41a1c" fill-opacity="0.298039" shape-rendering="crispEdges" points="1121.03,397.669 1139.65,407.019 1156.87,392.619"/>
<text fill="#000000" x="1044.23" y="402.87" font-size="9" text-anchor="start" dy="0" font-family="Helvetica">AL128-23_LRM2</text>
<polygon fill="#e41a1c" fill-opacity="0.298039" shape-rendering="crispEdges" points="1059.5,573.147 1280.94,493.307 1107.81,758.181"/>
<polygon fill="#e41a1c" fill-opacity="0.298039" shape-rendering="crispEdges" points="1059.5,573.147 1280.94,493.307 1156.87,392.619"/>
<polygon fill="#e41a1c" fill-opacity="0.298039" shape-rendering="crispEdges" points="1121.03,397.669 1059.5,573.147 1156.87,392.619"/>
<text fill="#000000" x="1081.67" y="397.819" font-size="9" text-anchor="start" dy="0" font-family="Helvetica">AL241-14_LLM2</text>
<text fill="#000000" x="988.298" y="578.347" font-size="9" text-anchor="start" dy="0" font-family="Helvetica">AL266-1_LRM2</text>
</g>
</svg>
