<?xml version="1.0" encoding="UTF-8" standalone="no"?>
<svg xmlns="http://www.w3.org/2000/svg"
     xmlns:xlink="http://www.w3.org/1999/xlink"
     width="2048pt" height="1081pt" viewBox="0 0 2048 1081">
<title>D:/3D_GM/Projects/UW105/Results/Taxonomic_assessment/UW105_681/Shape_PCA_3D_dropped_landmarks_labelled.svg</title>
<desc>
Creator: GL2PS 1.4.2, (C) 1999-2020 C. Geuzaine
For: Generated by rgl
CreationDate: Tue Jan 27 14:49:22 2026
</desc>
<defs>
</defs>
<g>
<polygon fill="#ffffff" shape-rendering="crispEdges" points="0,1081 2048,1081 2048,0"/>
<polygon fill="#ffffff" shape-rendering="crispEdges" points="0,1081 2048,0 0,0"/>
<polyline fill="none" stroke="#1c1c1c" stroke-width="1" stroke-linecap="butt" stroke-linejoin="miter" points="737.234,147.638 1295.44,178.923"/>
<polyline fill="none" stroke="#040404" stroke-width="1" stroke-linecap="butt" stroke-linejoin="miter" points="1295.44,178.923 1220.66,697.106"/>
<polyline fill="none" stroke="#000000" stroke-width="1" stroke-linecap="butt" stroke-linejoin="miter" points="1220.66,697.106 662.45,665.821"/>
<polyline fill="none" stroke="#000000" stroke-width="1" stroke-linecap="butt" stroke-linejoin="miter" points="662.45,665.821 737.234,147.638"/>
<polyline fill="none" stroke="#000000" stroke-width="1" stroke-linecap="butt" stroke-linejoin="miter" points="752.557,902.077 662.45,665.821"/>
<polyline fill="none" stroke="#000000" stroke-width="1" stroke-linecap="butt" stroke-linejoin="miter" points="662.45,665.821 1220.66,697.106"/>
<polyline fill="none" stroke="#000000" stroke-width="1" stroke-linecap="butt" stroke-linejoin="miter" points="1220.66,697.106 1310.77,933.362"/>
<polyline fill="none" stroke="#000000" stroke-width="1" stroke-linecap="butt" stroke-linejoin="miter" points="1310.77,933.362 752.557,902.077"/>
<polyline fill="none" stroke="#000000" stroke-width="1" stroke-linecap="butt" stroke-linejoin="miter" points="1385.55,415.179 1310.77,933.362 1220.66,697.106 1295.44,178.923 1385.55,415.179"/>
<polyline fill="none" stroke="#000000" stroke-width="1" stroke-linecap="butt" stroke-linejoin="miter" points="1373.72,497.179 1379.72,512.929"/>
<text fill="#000000" x="1371.33" y="534.68" font-size="12" text-anchor="start" dy="0" font-family="Helvetica">-0.05</text>
<polyline fill="none" stroke="#000000" stroke-width="1" stroke-linecap="butt" stroke-linejoin="miter" points="1351.29,652.583 1357.29,668.334"/>
<text fill="#000000" x="1359.7" y="690.084" font-size="12" text-anchor="start" dy="0" font-family="Helvetica">0</text>
<polyline fill="none" stroke="#000000" stroke-width="1" stroke-linecap="butt" stroke-linejoin="miter" points="1328.86,807.988 1334.87,823.738"/>
<text fill="#000000" x="1328.47" y="845.489" font-size="12" text-anchor="start" dy="0" font-family="Helvetica">0.05</text>
<polyline fill="none" stroke="#000000" stroke-width="1" stroke-linecap="butt" stroke-linejoin="miter" points="758.104,902.388 764.111,918.139"/>
<text fill="#000000" x="755.719" y="939.889" font-size="12" text-anchor="start" dy="0" font-family="Helvetica">-0.06</text>
<polyline fill="none" stroke="#000000" stroke-width="1" stroke-linecap="butt" stroke-linejoin="miter" points="844.615,907.237 850.622,922.987"/>
<text fill="#000000" x="842.229" y="944.737" font-size="12" text-anchor="start" dy="0" font-family="Helvetica">-0.04</text>
<polyline fill="none" stroke="#000000" stroke-width="1" stroke-linecap="butt" stroke-linejoin="miter" points="931.125,912.085 937.132,927.835"/>
<text fill="#000000" x="928.739" y="949.586" font-size="12" text-anchor="start" dy="0" font-family="Helvetica">-0.02</text>
<polyline fill="none" stroke="#000000" stroke-width="1" stroke-linecap="butt" stroke-linejoin="miter" points="1017.64,916.934 1023.64,932.684"/>
<text fill="#000000" x="1026.05" y="954.435" font-size="12" text-anchor="start" dy="0" font-family="Helvetica">0</text>
<polyline fill="none" stroke="#000000" stroke-width="1" stroke-linecap="butt" stroke-linejoin="miter" points="1104.15,921.782 1110.15,937.533"/>
<text fill="#000000" x="1103.76" y="959.283" font-size="12" text-anchor="start" dy="0" font-family="Helvetica">0.02</text>
<polyline fill="none" stroke="#000000" stroke-width="1" stroke-linecap="butt" stroke-linejoin="miter" points="1190.66,926.631 1196.66,942.381"/>
<text fill="#000000" x="1190.27" y="964.131" font-size="12" text-anchor="start" dy="0" font-family="Helvetica">0.04</text>
<polyline fill="none" stroke="#000000" stroke-width="1" stroke-linecap="butt" stroke-linejoin="miter" points="1277.17,931.479 1283.17,947.23"/>
<text fill="#000000" x="1276.78" y="968.98" font-size="12" text-anchor="start" dy="0" font-family="Helvetica">0.06</text>
<polyline fill="none" stroke="#000000" stroke-width="1" stroke-linecap="butt" stroke-linejoin="miter" points="1308.54,213.253 1313.52,178.708"/>
<text fill="#000000" x="1304.11" y="150.162" font-size="12" text-anchor="start" dy="0" font-family="Helvetica">-0.04</text>
<polyline fill="none" stroke="#000000" stroke-width="1" stroke-linecap="butt" stroke-linejoin="miter" points="1323.77,253.193 1328.75,218.647"/>
<text fill="#000000" x="1319.34" y="190.102" font-size="12" text-anchor="start" dy="0" font-family="Helvetica">-0.02</text>
<polyline fill="none" stroke="#000000" stroke-width="1" stroke-linecap="butt" stroke-linejoin="miter" points="1339,293.132 1343.99,258.586"/>
<text fill="#000000" x="1345.37" y="230.041" font-size="12" text-anchor="start" dy="0" font-family="Helvetica">0</text>
<polyline fill="none" stroke="#000000" stroke-width="1" stroke-linecap="butt" stroke-linejoin="miter" points="1354.23,333.071 1359.22,298.526"/>
<text fill="#000000" x="1351.81" y="269.98" font-size="12" text-anchor="start" dy="0" font-family="Helvetica">0.02</text>
<polyline fill="none" stroke="#000000" stroke-width="1" stroke-linecap="butt" stroke-linejoin="miter" points="1369.47,373.011 1374.45,338.465"/>
<text fill="#000000" x="1367.04" y="309.919" font-size="12" text-anchor="start" dy="0" font-family="Helvetica">0.04</text>
<polyline fill="none" stroke="#000000" stroke-width="1" stroke-linecap="butt" stroke-linejoin="miter" points="1384.7,412.95 1389.69,378.404"/>
<text fill="#000000" x="1382.27" y="349.859" font-size="12" text-anchor="start" dy="0" font-family="Helvetica">0.06</text>
<polyline fill="none" stroke="#000000" stroke-width="1" stroke-linecap="butt" stroke-linejoin="miter" points="737.234,147.638 737.234,147.638"/>
<polyline fill="none" stroke="#000000" stroke-width="1" stroke-linecap="butt" stroke-linejoin="miter" points="1310.77,933.362 1310.77,933.362"/>
<circle fill="#e41a1c" cx="997.276" cy="299.212" r="5"/>
<circle fill="#e41a1c" cx="1055.02" cy="427.099" r="5"/>
<circle fill="#e41a1c" cx="1038.72" cy="582.369" r="5"/>
<circle fill="#e41a1c" cx="989.86" cy="455.503" r="5"/>
<circle fill="#4daf4a" cx="1038.25" cy="493.05" r="5"/>
<circle fill="#8b2323" cx="1059.4" cy="659.103" r="5"/>
<circle fill="#1874cd" cx="949.022" cy="408.184" r="5"/>
<circle fill="#1874cd" cx="814.332" cy="385.633" r="5"/>
<circle fill="#4daf4a" cx="950.271" cy="578.451" r="5"/>
<circle fill="#4daf4a" cx="903.262" cy="246.359" r="5"/>
<circle fill="#984ea3" cx="993.45" cy="473.97" r="5"/>
<circle fill="#4daf4a" cx="1016.35" cy="370.938" r="5"/>
<circle fill="#4daf4a" cx="994.526" cy="705.721" r="5"/>
<circle fill="#4daf4a" cx="1148.19" cy="591.377" r="5"/>
<circle fill="#4daf4a" cx="1066.3" cy="654.349" r="5"/>
<circle fill="#1874cd" cx="769.344" cy="576.618" r="5"/>
<circle fill="#1874cd" cx="862.392" cy="461.234" r="5"/>
<circle fill="#1874cd" cx="1001" cy="474.215" r="5"/>
<circle fill="#1874cd" cx="854.274" cy="668.823" r="5"/>
<circle fill="#1874cd" cx="879.465" cy="664.958" r="5"/>
<circle fill="#1874cd" cx="798.798" cy="422.683" r="5"/>
<circle fill="#1874cd" cx="768.29" cy="519.657" r="5"/>
<circle fill="#1874cd" cx="825.823" cy="588.61" r="5"/>
<circle fill="#cd661d" cx="1100.41" cy="407.504" r="5"/>
<circle fill="#cd661d" cx="1073.42" cy="474.481" r="5"/>
<circle fill="#cd661d" cx="1230.14" cy="426.001" r="5"/>
<circle fill="#cd661d" cx="1167.08" cy="590.599" r="5"/>
<circle fill="#cd661d" cx="1132.26" cy="439.273" r="5"/>
<circle fill="#cd661d" cx="1198.68" cy="369.88" r="5"/>
<circle fill="#cd661d" cx="1119.19" cy="511.049" r="5"/>
<circle fill="#cd661d" cx="1060.31" cy="424.105" r="5"/>
<circle fill="#cd661d" cx="1193.22" cy="429.438" r="5"/>
<circle fill="#cd661d" cx="1290.2" cy="290.366" r="5"/>
<circle fill="#cd661d" cx="1112.49" cy="368.998" r="5"/>
<circle fill="#cd661d" cx="915.223" cy="529.646" r="5"/>
<circle fill="#1874cd" cx="885.849" cy="504.575" r="5"/>
<circle fill="#1874cd" cx="903.249" cy="520.168" r="5"/>
<circle fill="#8b864e" cx="1068.88" cy="668.703" r="5"/>
<circle fill="#8b864e" cx="1182.35" cy="866.209" r="5"/>
<circle fill="#8b864e" cx="1093.66" cy="782.709" r="5"/>
<circle fill="#8b864e" cx="1072.81" cy="779.736" r="5"/>
<circle fill="#000000" cx="914.568" cy="500.971" r="5"/>
<text fill="#000000" x="1373" y="745.358" font-size="12" text-anchor="start" dy="0" font-family="Helvetica">PC1 (23.3%)</text>
<text fill="#000000" x="1014.3" y="1021.27" font-size="12" text-anchor="start" dy="0" font-family="Helvetica">PC2 (11.9%)</text>
<text fill="#000000" x="1364.85" y="166.954" font-size="12" text-anchor="start" dy="0" font-family="Helvetica">PC3 (9.5%)</text>
<text fill="#000000" x="856.671" y="582.851" font-size="8" text-anchor="start" dy="0" font-family="Helvetica">KNM-ER_1590M_ULM2</text>
<text fill="#000000" x="1045.29" y="373.397" font-size="8" text-anchor="start" dy="0" font-family="Helvetica">STW_280_ULM2</text>
<text fill="#000000" x="713.89" y="524.057" font-size="8" text-anchor="start" dy="0" font-family="Helvetica">SK_52_URM2</text>
<polygon fill="#4daf4a" fill-opacity="0.298039" shape-rendering="crispEdges" points="950.271,578.451 1148.19,591.377 994.526,705.721"/>
<polygon fill="#4daf4a" fill-opacity="0.298039" shape-rendering="crispEdges" points="1016.35,370.938 950.271,578.451 1148.19,591.377"/>
<text fill="#000000" x="944.126" y="710.121" font-size="8" text-anchor="start" dy="0" font-family="Helvetica">OH13_ULM2</text>
<text fill="#000000" x="938.746" y="375.337" font-size="8" text-anchor="start" dy="0" font-family="Helvetica">KNMER1813_ULM2</text>
<polygon fill="#4daf4a" fill-opacity="0.298039" shape-rendering="crispEdges" points="950.271,578.451 994.526,705.721 903.262,246.359"/>
<polygon fill="#4daf4a" fill-opacity="0.298039" shape-rendering="crispEdges" points="1016.35,370.938 950.271,578.451 903.262,246.359"/>
<polygon fill="#cd661d" fill-opacity="0.298039" shape-rendering="crispEdges" points="1198.68,369.88 1112.49,368.998 1290.2,290.366"/>
<text fill="#000000" x="1133.88" y="374.28" font-size="8" text-anchor="start" dy="0" font-family="Helvetica">STS_52a_ULM2</text>
<text fill="#000000" x="993.115" y="428.505" font-size="8" text-anchor="start" dy="0" font-family="Helvetica">STW_183_ULM2</text>
<polygon fill="#cd661d" fill-opacity="0.298039" shape-rendering="crispEdges" points="1198.68,369.88 1112.49,368.998 1167.08,590.599"/>
<polygon fill="#1874cd" fill-opacity="0.298039" shape-rendering="crispEdges" points="769.344,576.618 768.29,519.657 854.274,668.823"/>
<polygon fill="#1874cd" fill-opacity="0.298039" shape-rendering="crispEdges" points="949.022,408.184 768.29,519.657 854.274,668.823"/>
<text fill="#000000" x="1013.42" y="478.881" font-size="8" text-anchor="start" dy="0" font-family="Helvetica">STS_22_ULM2</text>
<polygon fill="#4daf4a" fill-opacity="0.298039" shape-rendering="crispEdges" points="1066.3,654.349 1148.19,591.377 994.526,705.721"/>
<polygon fill="#cd661d" fill-opacity="0.298039" shape-rendering="crispEdges" points="1112.49,368.998 915.223,529.646 1290.2,290.366"/>
<text fill="#000000" x="689.344" y="581.018" font-size="8" text-anchor="start" dy="0" font-family="Helvetica">Prob_SK_48_URM2</text>
<text fill="#000000" x="1045.21" y="411.904" font-size="8" text-anchor="start" dy="0" font-family="Helvetica">STS_8_ULM2</text>
<text fill="#000000" x="763.423" y="593.01" font-size="8" text-anchor="start" dy="0" font-family="Helvetica">SKW_33_URM2</text>
<polygon fill="#4daf4a" fill-opacity="0.298039" shape-rendering="crispEdges" points="1016.35,370.938 1148.19,591.377 903.262,246.359"/>
<text fill="#000000" x="893.822" y="412.583" font-size="8" text-anchor="start" dy="0" font-family="Helvetica">DNH_7_URM2</text>
<text fill="#000000" x="1097.79" y="595.777" font-size="8" text-anchor="start" dy="0" font-family="Helvetica">OH16_ULM2</text>
<polygon fill="#4daf4a" fill-opacity="0.298039" shape-rendering="crispEdges" points="1066.3,654.349 994.526,705.721 903.262,246.359"/>
<polygon fill="#cd661d" fill-opacity="0.298039" shape-rendering="crispEdges" points="1112.49,368.998 915.223,529.646 1167.08,590.599"/>
<polygon fill="#cd661d" fill-opacity="0.298039" shape-rendering="crispEdges" points="1198.68,369.88 1167.08,590.599 1290.2,290.366"/>
<text fill="#000000" x="975.046" y="497.45" font-size="8" text-anchor="start" dy="0" font-family="Helvetica">AL666-1_ULM2</text>
<text fill="#000000" x="1220.6" y="294.766" font-size="8" text-anchor="start" dy="0" font-family="Helvetica">STW_252I_ULM2</text>
<text fill="#000000" x="1015.9" y="658.749" font-size="8" text-anchor="start" dy="0" font-family="Helvetica">OH39_ULM2</text>
<polygon fill="#4daf4a" fill-opacity="0.298039" shape-rendering="crispEdges" points="1066.3,654.349 1148.19,591.377 903.262,246.359"/>
<text fill="#000000" x="778.274" y="673.223" font-size="8" text-anchor="start" dy="0" font-family="Helvetica">SK_16.1591_ULM2</text>
<polygon fill="#1874cd" fill-opacity="0.298039" shape-rendering="crispEdges" points="798.798,422.683 769.344,576.618 768.29,519.657"/>
<text fill="#000000" x="843.368" y="505.371" font-size="8" text-anchor="start" dy="0" font-family="Helvetica">UW105_681_URM</text>
<polygon fill="#1874cd" fill-opacity="0.298039" shape-rendering="crispEdges" points="949.022,408.184 768.29,519.657 814.332,385.633"/>
<polygon fill="#1874cd" fill-opacity="0.298039" shape-rendering="crispEdges" points="769.344,576.618 879.465,664.958 854.274,668.823"/>
<text fill="#000000" x="992.009" y="784.136" font-size="8" text-anchor="start" dy="0" font-family="Helvetica">UW101_1277_ULM2</text>
<polygon fill="#1874cd" fill-opacity="0.298039" shape-rendering="crispEdges" points="949.022,408.184 1001,474.215 854.274,668.823"/>
<text fill="#000000" x="812.062" y="250.759" font-size="8" text-anchor="start" dy="0" font-family="Helvetica">KNM-ER_1808H_URM2</text>
<text fill="#000000" x="848.023" y="534.045" font-size="8" text-anchor="start" dy="0" font-family="Helvetica">STW_529_ULM2</text>
<polygon fill="#1874cd" fill-opacity="0.298039" shape-rendering="crispEdges" points="879.465,664.958 1001,474.215 854.274,668.823"/>
<polygon fill="#8b864e" fill-opacity="0.298039" shape-rendering="crispEdges" points="1093.66,782.709 1072.81,779.736 1068.88,668.703"/>
<text fill="#000000" x="1126.02" y="433.838" font-size="8" text-anchor="start" dy="0" font-family="Helvetica">STW_188_URM2</text>
<text fill="#000000" x="1107.08" y="594.999" font-size="8" text-anchor="start" dy="0" font-family="Helvetica">STS_30_URM2</text>
<polygon fill="#8b864e" fill-opacity="0.298039" shape-rendering="crispEdges" points="1093.66,782.709 1072.81,779.736 1182.35,866.209"/>
<polygon fill="#8b864e" fill-opacity="0.298039" shape-rendering="crispEdges" points="1072.81,779.736 1182.35,866.209 1068.88,668.703"/>
<text fill="#000000" x="1012.86" y="787.109" font-size="8" text-anchor="start" dy="0" font-family="Helvetica">UW101_1015_ULM2</text>
<text fill="#000000" x="1007.4" y="663.503" font-size="8" text-anchor="start" dy="0" font-family="Helvetica">Ased_ULM2</text>
<text fill="#000000" x="992.879" y="673.103" font-size="8" text-anchor="start" dy="0" font-family="Helvetica">UW101_593_URM2</text>
<text fill="#000000" x="825.065" y="669.357" font-size="8" text-anchor="start" dy="0" font-family="Helvetica">SK_47_URM2</text>
<polygon fill="#8b864e" fill-opacity="0.298039" shape-rendering="crispEdges" points="1093.66,782.709 1182.35,866.209 1068.88,668.703"/>
<text fill="#000000" x="939.396" y="478.615" font-size="8" text-anchor="start" dy="0" font-family="Helvetica">SK13.14_URM2</text>
<polygon fill="#1874cd" fill-opacity="0.298039" shape-rendering="crispEdges" points="798.798,422.683 769.344,576.618 879.465,664.958"/>
<polygon fill="#1874cd" fill-opacity="0.298039" shape-rendering="crispEdges" points="949.022,408.184 1001,474.215 814.332,385.633"/>
<polygon fill="#1874cd" fill-opacity="0.298039" shape-rendering="crispEdges" points="798.798,422.683 768.29,519.657 814.332,385.633"/>
<polygon fill="#cd661d" fill-opacity="0.298039" shape-rendering="crispEdges" points="1230.14,426.001 1167.08,590.599 1290.2,290.366"/>
<text fill="#000000" x="1106.35" y="870.609" font-size="8" text-anchor="start" dy="0" font-family="Helvetica">UW101_867_URM2</text>
<text fill="#000000" x="814.649" y="508.975" font-size="8" text-anchor="start" dy="0" font-family="Helvetica">TM_1517a_ULM2</text>
<polygon fill="#cd661d" fill-opacity="0.298039" shape-rendering="crispEdges" points="1119.19,511.049 915.223,529.646 1290.2,290.366"/>
<text fill="#000000" x="1072.26" y="443.673" font-size="8" text-anchor="start" dy="0" font-family="Helvetica">STS_37_ULM2</text>
<polygon fill="#1874cd" fill-opacity="0.298039" shape-rendering="crispEdges" points="862.392,461.234 879.465,664.958 1001,474.215"/>
<text fill="#000000" x="987.019" y="431.499" font-size="8" text-anchor="start" dy="0" font-family="Helvetica">AL200-1a_URM2</text>
<text fill="#000000" x="830.449" y="524.568" font-size="8" text-anchor="start" dy="0" font-family="Helvetica">TM_1517C_URM2</text>
<polygon fill="#cd661d" fill-opacity="0.298039" shape-rendering="crispEdges" points="1119.19,511.049 915.223,529.646 1167.08,590.599"/>
<text fill="#000000" x="934.076" y="303.612" font-size="8" text-anchor="start" dy="0" font-family="Helvetica">AL199-1_URM2</text>
<polygon fill="#1874cd" fill-opacity="0.298039" shape-rendering="crispEdges" points="862.392,461.234 1001,474.215 814.332,385.633"/>
<polygon fill="#1874cd" fill-opacity="0.298039" shape-rendering="crispEdges" points="798.798,422.683 862.392,461.234 879.465,664.958"/>
<polygon fill="#cd661d" fill-opacity="0.298039" shape-rendering="crispEdges" points="1230.14,426.001 1119.19,511.049 1290.2,290.366"/>
<polygon fill="#e41a1c" fill-opacity="0.298039" shape-rendering="crispEdges" points="989.86,455.503 1055.02,427.099 997.276,299.212"/>
<polygon fill="#cd661d" fill-opacity="0.298039" shape-rendering="crispEdges" points="1230.14,426.001 1119.19,511.049 1167.08,590.599"/>
<polygon fill="#e41a1c" fill-opacity="0.298039" shape-rendering="crispEdges" points="1055.02,427.099 1038.72,582.369 997.276,299.212"/>
<text fill="#000000" x="749.532" y="390.033" font-size="8" text-anchor="start" dy="0" font-family="Helvetica">DNH_108_URM2</text>
<polygon fill="#1874cd" fill-opacity="0.298039" shape-rendering="crispEdges" points="798.798,422.683 862.392,461.234 814.332,385.633"/>
<text fill="#000000" x="777.592" y="465.634" font-size="8" text-anchor="start" dy="0" font-family="Helvetica">Prob_SK_834_URM2</text>
<text fill="#000000" x="744.398" y="427.083" font-size="8" text-anchor="start" dy="0" font-family="Helvetica">SK_49_URM2</text>
<polygon fill="#e41a1c" fill-opacity="0.298039" shape-rendering="crispEdges" points="989.86,455.503 1055.02,427.099 1038.72,582.369"/>
<text fill="#000000" x="1170.14" y="430.401" font-size="8" text-anchor="start" dy="0" font-family="Helvetica">STS_28_URM2</text>
<text fill="#000000" x="926.66" y="459.903" font-size="8" text-anchor="start" dy="0" font-family="Helvetica">AL486-1_ULM2</text>
<polygon fill="#e41a1c" fill-opacity="0.298039" shape-rendering="crispEdges" points="989.86,455.503 1038.72,582.369 997.276,299.212"/>
<text fill="#000000" x="899.85" y="478.37" font-size="8" text-anchor="start" dy="0" font-family="Helvetica">KNM-WT_17400_URM2</text>
<text fill="#000000" x="1059.19" y="515.449" font-size="8" text-anchor="start" dy="0" font-family="Helvetica">STS_56_ULM2</text>
<text fill="#000000" x="969.916" y="586.769" font-size="8" text-anchor="start" dy="0" font-family="Helvetica">AL417-1d_ULM2</text>
</g>
</svg>
