<?xml version="1.0" encoding="UTF-8" standalone="no"?>
<svg xmlns="http://www.w3.org/2000/svg"
     xmlns:xlink="http://www.w3.org/1999/xlink"
     width="2048pt" height="1081pt" viewBox="0 0 2048 1081">
<title>D:/3D_GM/Projects/UW105/Results/Taxonomic_assessment/UW105-074_681/Shape_PCA_3D_dropped_landmarks_labelled.svg</title>
<desc>
Creator: GL2PS 1.4.2, (C) 1999-2020 C. Geuzaine
For: Generated by rgl
CreationDate: Tue Jan 27 18:36:39 2026
</desc>
<defs>
</defs>
<g>
<polygon fill="#ffffff" shape-rendering="crispEdges" points="0,1081 2048,1081 2048,0"/>
<polygon fill="#ffffff" shape-rendering="crispEdges" points="0,1081 2048,0 0,0"/>
<polyline fill="none" stroke="#000000" stroke-width="1" stroke-linecap="butt" stroke-linejoin="miter" points="626.573,248.135 1109.25,125.723"/>
<polyline fill="none" stroke="#000000" stroke-width="1" stroke-linecap="butt" stroke-linejoin="miter" points="1109.25,125.723 1117.65,652.951"/>
<polyline fill="none" stroke="#000000" stroke-width="1" stroke-linecap="butt" stroke-linejoin="miter" points="1117.65,652.951 634.979,775.363"/>
<polyline fill="none" stroke="#000000" stroke-width="1" stroke-linecap="butt" stroke-linejoin="miter" points="634.979,775.363 626.573,248.135"/>
<polyline fill="none" stroke="#000000" stroke-width="1" stroke-linecap="butt" stroke-linejoin="miter" points="1109.25,125.723 1413.02,305.637"/>
<polyline fill="none" stroke="#000000" stroke-width="1" stroke-linecap="butt" stroke-linejoin="miter" points="1413.02,305.637 1421.43,832.865"/>
<polyline fill="none" stroke="#000000" stroke-width="1" stroke-linecap="butt" stroke-linejoin="miter" points="1421.43,832.865 1117.65,652.951"/>
<polyline fill="none" stroke="#000000" stroke-width="1" stroke-linecap="butt" stroke-linejoin="miter" points="1117.65,652.951 1109.25,125.723"/>
<polyline fill="none" stroke="#000000" stroke-width="1" stroke-linecap="butt" stroke-linejoin="miter" points="634.979,775.363 1117.65,652.951"/>
<polyline fill="none" stroke="#000000" stroke-width="1" stroke-linecap="butt" stroke-linejoin="miter" points="1117.65,652.951 1421.43,832.865"/>
<polyline fill="none" stroke="#000000" stroke-width="1" stroke-linecap="butt" stroke-linejoin="miter" points="1421.43,832.865 938.753,955.277"/>
<polyline fill="none" stroke="#000000" stroke-width="1" stroke-linecap="butt" stroke-linejoin="miter" points="938.753,955.277 634.979,775.363"/>
<polyline fill="none" stroke="#000000" stroke-width="1" stroke-linecap="butt" stroke-linejoin="miter" points="1025.64,933.243 1045.89,945.237"/>
<text fill="#000000" x="1057.61" y="963.231" font-size="12" text-anchor="start" dy="0" font-family="Helvetica">-0.05</text>
<polyline fill="none" stroke="#000000" stroke-width="1" stroke-linecap="butt" stroke-linejoin="miter" points="1169.13,896.852 1189.38,908.846"/>
<text fill="#000000" x="1207.5" y="926.84" font-size="12" text-anchor="start" dy="0" font-family="Helvetica">0</text>
<polyline fill="none" stroke="#000000" stroke-width="1" stroke-linecap="butt" stroke-linejoin="miter" points="1312.62,860.46 1332.87,872.455"/>
<text fill="#000000" x="1345.78" y="890.449" font-size="12" text-anchor="start" dy="0" font-family="Helvetica">0.05</text>
<polyline fill="none" stroke="#000000" stroke-width="1" stroke-linecap="butt" stroke-linejoin="miter" points="1413.71,349.014 1433.96,361.008"/>
<text fill="#000000" x="1445.69" y="379.002" font-size="12" text-anchor="start" dy="0" font-family="Helvetica">-0.06</text>
<polyline fill="none" stroke="#000000" stroke-width="1" stroke-linecap="butt" stroke-linejoin="miter" points="1415.01,430.479 1435.26,442.473"/>
<text fill="#000000" x="1446.99" y="460.467" font-size="12" text-anchor="start" dy="0" font-family="Helvetica">-0.04</text>
<polyline fill="none" stroke="#000000" stroke-width="1" stroke-linecap="butt" stroke-linejoin="miter" points="1416.31,511.943 1436.56,523.937"/>
<text fill="#000000" x="1448.29" y="541.932" font-size="12" text-anchor="start" dy="0" font-family="Helvetica">-0.02</text>
<polyline fill="none" stroke="#000000" stroke-width="1" stroke-linecap="butt" stroke-linejoin="miter" points="1417.61,593.407 1437.86,605.402"/>
<text fill="#000000" x="1455.98" y="623.396" font-size="12" text-anchor="start" dy="0" font-family="Helvetica">0</text>
<polyline fill="none" stroke="#000000" stroke-width="1" stroke-linecap="butt" stroke-linejoin="miter" points="1418.91,674.872 1439.16,686.866"/>
<text fill="#000000" x="1452.07" y="704.86" font-size="12" text-anchor="start" dy="0" font-family="Helvetica">0.02</text>
<polyline fill="none" stroke="#000000" stroke-width="1" stroke-linecap="butt" stroke-linejoin="miter" points="1420.21,756.336 1440.46,768.331"/>
<text fill="#000000" x="1453.37" y="786.325" font-size="12" text-anchor="start" dy="0" font-family="Helvetica">0.04</text>
<polyline fill="none" stroke="#000000" stroke-width="1" stroke-linecap="butt" stroke-linejoin="miter" points="914.761,941.067 882.583,949.229"/>
<text fill="#000000" x="825.257" y="963.389" font-size="12" text-anchor="start" dy="0" font-family="Helvetica">-0.04</text>
<polyline fill="none" stroke="#000000" stroke-width="1" stroke-linecap="butt" stroke-linejoin="miter" points="865.346,911.8 833.167,919.961"/>
<text fill="#000000" x="775.841" y="934.122" font-size="12" text-anchor="start" dy="0" font-family="Helvetica">-0.02</text>
<polyline fill="none" stroke="#000000" stroke-width="1" stroke-linecap="butt" stroke-linejoin="miter" points="815.93,882.533 783.751,890.694"/>
<text fill="#000000" x="745.286" y="904.855" font-size="12" text-anchor="start" dy="0" font-family="Helvetica">0</text>
<polyline fill="none" stroke="#000000" stroke-width="1" stroke-linecap="butt" stroke-linejoin="miter" points="766.514,853.266 734.335,861.427"/>
<text fill="#000000" x="680.502" y="875.588" font-size="12" text-anchor="start" dy="0" font-family="Helvetica">0.02</text>
<polyline fill="none" stroke="#000000" stroke-width="1" stroke-linecap="butt" stroke-linejoin="miter" points="717.098,823.999 684.919,832.16"/>
<text fill="#000000" x="631.086" y="846.321" font-size="12" text-anchor="start" dy="0" font-family="Helvetica">0.04</text>
<polyline fill="none" stroke="#000000" stroke-width="1" stroke-linecap="butt" stroke-linejoin="miter" points="667.682,794.732 635.504,802.893"/>
<text fill="#000000" x="581.67" y="817.054" font-size="12" text-anchor="start" dy="0" font-family="Helvetica">0.06</text>
<polyline fill="none" stroke="#000000" stroke-width="1" stroke-linecap="butt" stroke-linejoin="miter" points="930.348,428.049 930.348,428.049"/>
<polyline fill="none" stroke="#000000" stroke-width="1" stroke-linecap="butt" stroke-linejoin="miter" points="1117.65,652.951 1117.65,652.951"/>
<circle fill="#e41a1c" cx="992.57" cy="617.537" r="5"/>
<circle fill="#e41a1c" cx="946.206" cy="695.459" r="5"/>
<circle fill="#e41a1c" cx="1163.06" cy="767.405" r="5"/>
<circle fill="#e41a1c" cx="821.683" cy="571.392" r="5"/>
<circle fill="#4daf4a" cx="990.969" cy="689.659" r="5"/>
<circle fill="#8b2323" cx="939.93" cy="653.852" r="5"/>
<circle fill="#1874cd" cx="1108.69" cy="605.2" r="5"/>
<circle fill="#1874cd" cx="1065.64" cy="523.826" r="5"/>
<circle fill="#4daf4a" cx="1149.31" cy="725.219" r="5"/>
<circle fill="#4daf4a" cx="1100.85" cy="505.099" r="5"/>
<circle fill="#984ea3" cx="1213.99" cy="311.067" r="5"/>
<circle fill="#4daf4a" cx="1006.53" cy="727.335" r="5"/>
<circle fill="#4daf4a" cx="1026.49" cy="604.445" r="5"/>
<circle fill="#4daf4a" cx="1335.45" cy="360.978" r="5"/>
<circle fill="#4daf4a" cx="1131.63" cy="663.383" r="5"/>
<circle fill="#1874cd" cx="1120.74" cy="571.853" r="5"/>
<circle fill="#1874cd" cx="1160.06" cy="604.17" r="5"/>
<circle fill="#1874cd" cx="1140" cy="406.843" r="5"/>
<circle fill="#1874cd" cx="1153.61" cy="614.162" r="5"/>
<circle fill="#1874cd" cx="949.142" cy="685.241" r="5"/>
<circle fill="#1874cd" cx="1146.01" cy="620.903" r="5"/>
<circle fill="#1874cd" cx="991.422" cy="731.284" r="5"/>
<circle fill="#1874cd" cx="1053.93" cy="712.75" r="5"/>
<circle fill="#cd661d" cx="1058.93" cy="668.766" r="5"/>
<circle fill="#cd661d" cx="938.025" cy="649.484" r="5"/>
<circle fill="#cd661d" cx="759.007" cy="490.275" r="5"/>
<circle fill="#cd661d" cx="909.674" cy="619.216" r="5"/>
<circle fill="#cd661d" cx="879.165" cy="456.637" r="5"/>
<circle fill="#cd661d" cx="1042.14" cy="597.403" r="5"/>
<circle fill="#cd661d" cx="950.326" cy="785.714" r="5"/>
<circle fill="#cd661d" cx="956.272" cy="638.034" r="5"/>
<circle fill="#cd661d" cx="883.641" cy="354.627" r="5"/>
<circle fill="#cd661d" cx="939.81" cy="377.224" r="5"/>
<circle fill="#cd661d" cx="933.39" cy="348.639" r="5"/>
<circle fill="#cd661d" cx="891.177" cy="369.715" r="5"/>
<circle fill="#1874cd" cx="1088.56" cy="584.16" r="5"/>
<circle fill="#1874cd" cx="1087.74" cy="581.072" r="5"/>
<circle fill="#8b864e" cx="1078.65" cy="665.756" r="5"/>
<circle fill="#8b864e" cx="1177.82" cy="783.276" r="5"/>
<circle fill="#8b864e" cx="1055.12" cy="554.728" r="5"/>
<circle fill="#8b864e" cx="1135.01" cy="671.538" r="5"/>
<circle fill="#000000" cx="1054.18" cy="545.149" r="5"/>
<circle fill="#000000" cx="1300.32" cy="429.486" r="5"/>
<text fill="#000000" x="1225.26" y="983.197" font-size="12" text-anchor="start" dy="0" font-family="Helvetica">PC1 (26.5%)</text>
<text fill="#000000" x="1494.01" y="615.067" font-size="12" text-anchor="start" dy="0" font-family="Helvetica">PC2 (14.7%)</text>
<text fill="#000000" x="622.313" y="939.112" font-size="12" text-anchor="start" dy="0" font-family="Helvetica">PC3 (13.4%)</text>
<text fill="#000000" x="987.244" y="529.026" font-size="9" text-anchor="start" dy="0" font-family="Helvetica">DNH_108_URM2</text>
<text fill="#000000" x="925.822" y="736.484" font-size="9" text-anchor="start" dy="0" font-family="Helvetica">SK_52_URM2</text>
<polygon fill="#1874cd" fill-opacity="0.298039" shape-rendering="crispEdges" points="1153.61,614.162 991.422,731.284 1065.64,523.826"/>
<text fill="#000000" x="991.247" y="510.299" font-size="9" text-anchor="start" dy="0" font-family="Helvetica">KNM-ER_1808H_URM2</text>
<polygon fill="#1874cd" fill-opacity="0.298039" shape-rendering="crispEdges" points="991.422,731.284 1065.64,523.826 949.142,685.241"/>
<text fill="#000000" x="811.177" y="374.916" font-size="9" text-anchor="start" dy="0" font-family="Helvetica">STW_529_ULM2</text>
<text fill="#000000" x="748.883" y="576.592" font-size="9" text-anchor="start" dy="0" font-family="Helvetica">AL486-1_ULM2</text>
<text fill="#000000" x="1063.21" y="619.362" font-size="9" text-anchor="start" dy="0" font-family="Helvetica">SK_16.1591_ULM2</text>
<polygon fill="#1874cd" fill-opacity="0.298039" shape-rendering="crispEdges" points="1153.61,614.162 1053.93,712.75 991.422,731.284"/>
<text fill="#000000" x="879.125" y="790.914" font-size="9" text-anchor="start" dy="0" font-family="Helvetica">STS_56_ULM2</text>
<text fill="#000000" x="1025.54" y="577.053" font-size="9" text-anchor="start" dy="0" font-family="Helvetica">Prob_SK_48_URM2</text>
<polygon fill="#1874cd" fill-opacity="0.298039" shape-rendering="crispEdges" points="1153.61,614.162 1140,406.843 1065.64,523.826"/>
<polygon fill="#cd661d" fill-opacity="0.298039" shape-rendering="crispEdges" points="759.007,490.275 950.326,785.714 891.177,369.715"/>
<polygon fill="#1874cd" fill-opacity="0.298039" shape-rendering="crispEdges" points="1053.93,712.75 991.422,731.284 949.142,685.241"/>
<polygon fill="#4daf4a" fill-opacity="0.298039" shape-rendering="crispEdges" points="1006.53,727.335 1100.85,505.099 990.969,689.659"/>
<polygon fill="#1874cd" fill-opacity="0.298039" shape-rendering="crispEdges" points="1140,406.843 1065.64,523.826 949.142,685.241"/>
<polygon fill="#4daf4a" fill-opacity="0.298039" shape-rendering="crispEdges" points="1149.31,725.219 1006.53,727.335 1100.85,505.099"/>
<text fill="#000000" x="918.97" y="622.737" font-size="9" text-anchor="start" dy="0" font-family="Helvetica">AL199-1_URM2</text>
<polygon fill="#4daf4a" fill-opacity="0.298039" shape-rendering="crispEdges" points="1026.49,604.445 1100.85,505.099 990.969,689.659"/>
<text fill="#000000" x="883.542" y="690.441" font-size="9" text-anchor="start" dy="0" font-family="Helvetica">SK_47_URM2</text>
<text fill="#000000" x="913.732" y="732.536" font-size="9" text-anchor="start" dy="0" font-family="Helvetica">KNMER1813_ULM2</text>
<polygon fill="#e41a1c" fill-opacity="0.298039" shape-rendering="crispEdges" points="992.57,617.537 821.683,571.392 1163.06,767.405"/>
<polygon fill="#4daf4a" fill-opacity="0.298039" shape-rendering="crispEdges" points="1149.31,725.219 1100.85,505.099 1335.45,360.978"/>
<text fill="#000000" x="807.964" y="461.837" font-size="9" text-anchor="start" dy="0" font-family="Helvetica">STS_37_ULM2</text>
<polygon fill="#4daf4a" fill-opacity="0.298039" shape-rendering="crispEdges" points="1026.49,604.445 1100.85,505.099 1335.45,360.978"/>
<polygon fill="#cd661d" fill-opacity="0.298039" shape-rendering="crispEdges" points="1058.93,668.766 950.326,785.714 891.177,369.715"/>
<polygon fill="#4daf4a" fill-opacity="0.298039" shape-rendering="crispEdges" points="1149.31,725.219 1006.53,727.335 990.969,689.659"/>
<text fill="#000000" x="968.583" y="550.349" font-size="9" text-anchor="start" dy="0" font-family="Helvetica">UW105_681_URM</text>
<text fill="#000000" x="918.169" y="694.859" font-size="9" text-anchor="start" dy="0" font-family="Helvetica">AL666-1_ULM2</text>
<text fill="#000000" x="1071.63" y="668.583" font-size="9" text-anchor="start" dy="0" font-family="Helvetica">OH39_ULM2</text>
<polygon fill="#1874cd" fill-opacity="0.298039" shape-rendering="crispEdges" points="1160.06,604.17 1153.61,614.162 1146.01,620.903"/>
<polygon fill="#cd661d" fill-opacity="0.298039" shape-rendering="crispEdges" points="883.641,354.627 759.007,490.275 891.177,369.715"/>
<polygon fill="#1874cd" fill-opacity="0.298039" shape-rendering="crispEdges" points="1153.61,614.162 1053.93,712.75 1146.01,620.903"/>
<polygon fill="#1874cd" fill-opacity="0.298039" shape-rendering="crispEdges" points="1160.06,604.17 1153.61,614.162 1140,406.843"/>
<polygon fill="#e41a1c" fill-opacity="0.298039" shape-rendering="crispEdges" points="992.57,617.537 821.683,571.392 946.206,695.459"/>
<text fill="#000000" x="1038.91" y="730.419" font-size="9" text-anchor="start" dy="0" font-family="Helvetica">KNM-ER_1590M_ULM2</text>
<polygon fill="#4daf4a" fill-opacity="0.298039" shape-rendering="crispEdges" points="1026.49,604.445 1149.31,725.219 990.969,689.659"/>
<polygon fill="#cd661d" fill-opacity="0.298039" shape-rendering="crispEdges" points="883.641,354.627 933.39,348.639 891.177,369.715"/>
<text fill="#000000" x="959.119" y="559.928" font-size="9" text-anchor="start" dy="0" font-family="Helvetica">UW101_1015_ULM2</text>
<text fill="#000000" x="1041.49" y="610.4" font-size="9" text-anchor="start" dy="0" font-family="Helvetica">DNH_7_URM2</text>
<text fill="#000000" x="1102.79" y="316.268" font-size="9" text-anchor="start" dy="0" font-family="Helvetica">KNM-WT_17400_URM2</text>
<polygon fill="#1874cd" fill-opacity="0.298039" shape-rendering="crispEdges" points="1053.93,712.75 1140,406.843 949.142,685.241"/>
<text fill="#000000" x="1059.26" y="609.37" font-size="9" text-anchor="start" dy="0" font-family="Helvetica">Prob_SK_834_URM2</text>
<text fill="#000000" x="687.007" y="495.476" font-size="9" text-anchor="start" dy="0" font-family="Helvetica">STS_28_URM2</text>
<text fill="#000000" x="966.487" y="609.645" font-size="9" text-anchor="start" dy="0" font-family="Helvetica">OH13_ULM2</text>
<polygon fill="#cd661d" fill-opacity="0.298039" shape-rendering="crispEdges" points="1042.14,597.403 933.39,348.639 891.177,369.715"/>
<polygon fill="#4daf4a" fill-opacity="0.298039" shape-rendering="crispEdges" points="1026.49,604.445 1149.31,725.219 1335.45,360.978"/>
<polygon fill="#e41a1c" fill-opacity="0.298039" shape-rendering="crispEdges" points="821.683,571.392 1163.06,767.405 946.206,695.459"/>
<text fill="#000000" x="987.446" y="670.956" font-size="9" text-anchor="start" dy="0" font-family="Helvetica">UW101_593_URM2</text>
<text fill="#000000" x="1002.94" y="586.272" font-size="9" text-anchor="start" dy="0" font-family="Helvetica">TM_1517C_URM2</text>
<text fill="#000000" x="977.931" y="717.951" font-size="9" text-anchor="start" dy="0" font-family="Helvetica">SKW_33_URM2</text>
<text fill="#000000" x="1005.36" y="589.36" font-size="9" text-anchor="start" dy="0" font-family="Helvetica">TM_1517a_ULM2</text>
<polygon fill="#8b864e" fill-opacity="0.298039" shape-rendering="crispEdges" points="1135.01,671.538 1055.12,554.728 1078.65,665.756"/>
<polygon fill="#1874cd" fill-opacity="0.298039" shape-rendering="crispEdges" points="1160.06,604.17 1146.01,620.903 1140,406.843"/>
<polygon fill="#8b864e" fill-opacity="0.298039" shape-rendering="crispEdges" points="1055.12,554.728 1177.82,783.276 1078.65,665.756"/>
<text fill="#000000" x="1083.86" y="772.605" font-size="9" text-anchor="start" dy="0" font-family="Helvetica">AL417-1d_ULM2</text>
<text fill="#000000" x="1080.41" y="626.104" font-size="9" text-anchor="start" dy="0" font-family="Helvetica">SK_49_URM2</text>
<polygon fill="#1874cd" fill-opacity="0.298039" shape-rendering="crispEdges" points="1053.93,712.75 1146.01,620.903 1140,406.843"/>
<polygon fill="#e41a1c" fill-opacity="0.298039" shape-rendering="crispEdges" points="992.57,617.537 1163.06,767.405 946.206,695.459"/>
<text fill="#000000" x="876.272" y="643.234" font-size="9" text-anchor="start" dy="0" font-family="Helvetica">STW_183_ULM2</text>
<polygon fill="#cd661d" fill-opacity="0.298039" shape-rendering="crispEdges" points="759.007,490.275 950.326,785.714 909.674,619.216"/>
<polygon fill="#cd661d" fill-opacity="0.298039" shape-rendering="crispEdges" points="1042.14,597.403 1058.93,668.766 891.177,369.715"/>
<text fill="#000000" x="1275.45" y="366.178" font-size="9" text-anchor="start" dy="0" font-family="Helvetica">OH16_ULM2</text>
<text fill="#000000" x="881.53" y="659.052" font-size="9" text-anchor="start" dy="0" font-family="Helvetica">Ased_ULM2</text>
<polygon fill="#8b864e" fill-opacity="0.298039" shape-rendering="crispEdges" points="1135.01,671.538 1055.12,554.728 1177.82,783.276"/>
<text fill="#000000" x="1065.6" y="412.043" font-size="9" text-anchor="start" dy="0" font-family="Helvetica">SK13.14_URM2</text>
<text fill="#000000" x="1209.12" y="434.687" font-size="9" text-anchor="start" dy="0" font-family="Helvetica">UW_105_074_URM</text>
<polygon fill="#8b864e" fill-opacity="0.298039" shape-rendering="crispEdges" points="1135.01,671.538 1177.82,783.276 1078.65,665.756"/>
<text fill="#000000" x="1039.01" y="676.738" font-size="9" text-anchor="start" dy="0" font-family="Helvetica">UW101_1277_ULM2</text>
<text fill="#000000" x="853.39" y="353.839" font-size="9" text-anchor="start" dy="0" font-family="Helvetica">STW_280_ULM2</text>
<text fill="#000000" x="802.841" y="359.828" font-size="9" text-anchor="start" dy="0" font-family="Helvetica">STW_188_URM2</text>
<text fill="#000000" x="1086.62" y="788.476" font-size="9" text-anchor="start" dy="0" font-family="Helvetica">UW101_867_URM2</text>
<polygon fill="#cd661d" fill-opacity="0.298039" shape-rendering="crispEdges" points="1058.93,668.766 950.326,785.714 909.674,619.216"/>
<polygon fill="#cd661d" fill-opacity="0.298039" shape-rendering="crispEdges" points="883.641,354.627 759.007,490.275 939.81,377.224"/>
<polygon fill="#cd661d" fill-opacity="0.298039" shape-rendering="crispEdges" points="883.641,354.627 933.39,348.639 939.81,377.224"/>
<polygon fill="#cd661d" fill-opacity="0.298039" shape-rendering="crispEdges" points="1042.14,597.403 933.39,348.639 939.81,377.224"/>
<text fill="#000000" x="866.206" y="700.659" font-size="9" text-anchor="start" dy="0" font-family="Helvetica">AL200-1a_URM2</text>
<text fill="#000000" x="964.537" y="602.603" font-size="9" text-anchor="start" dy="0" font-family="Helvetica">STS_52a_ULM2</text>
<polygon fill="#cd661d" fill-opacity="0.298039" shape-rendering="crispEdges" points="759.007,490.275 939.81,377.224 909.674,619.216"/>
<text fill="#000000" x="993.326" y="673.966" font-size="9" text-anchor="start" dy="0" font-family="Helvetica">STS_8_ULM2</text>
<text fill="#000000" x="866.825" y="654.684" font-size="9" text-anchor="start" dy="0" font-family="Helvetica">STS_22_ULM2</text>
<polygon fill="#cd661d" fill-opacity="0.298039" shape-rendering="crispEdges" points="1042.14,597.403 939.81,377.224 1058.93,668.766"/>
<polygon fill="#cd661d" fill-opacity="0.298039" shape-rendering="crispEdges" points="939.81,377.224 1058.93,668.766 909.674,619.216"/>
<text fill="#000000" x="856.61" y="382.424" font-size="9" text-anchor="start" dy="0" font-family="Helvetica">STW_252I_ULM2</text>
<text fill="#000000" x="837.674" y="624.417" font-size="9" text-anchor="start" dy="0" font-family="Helvetica">STS_30_URM2</text>
</g>
</svg>
