<?xml version="1.0" encoding="UTF-8" standalone="no"?>
<svg xmlns="http://www.w3.org/2000/svg"
     xmlns:xlink="http://www.w3.org/1999/xlink"
     width="2048pt" height="1081pt" viewBox="0 0 2048 1081">
<title>D:/3D_GM/Projects/UW105/Results/Taxonomic_assessment/UW105-074_681/Shape_PCA_3D_dropped_landmarks_clean.svg</title>
<desc>
Creator: GL2PS 1.4.2, (C) 1999-2020 C. Geuzaine
For: Generated by rgl
CreationDate: Tue Jan 27 18:34:52 2026
</desc>
<defs>
</defs>
<g>
<polygon fill="#ffffff" shape-rendering="crispEdges" points="0,1081 2048,1081 2048,0"/>
<polygon fill="#ffffff" shape-rendering="crispEdges" points="0,1081 2048,0 0,0"/>
<polyline fill="none" stroke="#070707" stroke-width="1" stroke-linecap="butt" stroke-linejoin="miter" points="604.528,237.503 1155.47,87.647"/>
<polyline fill="none" stroke="#000000" stroke-width="1" stroke-linecap="butt" stroke-linejoin="miter" points="1155.47,87.647 1216.83,624.568"/>
<polyline fill="none" stroke="#000000" stroke-width="1" stroke-linecap="butt" stroke-linejoin="miter" points="1216.83,624.568 665.888,774.425"/>
<polyline fill="none" stroke="#000000" stroke-width="1" stroke-linecap="butt" stroke-linejoin="miter" points="665.888,774.425 604.528,237.503"/>
<polyline fill="none" stroke="#000000" stroke-width="1" stroke-linecap="butt" stroke-linejoin="miter" points="1155.47,87.647 1382.11,306.575"/>
<polyline fill="none" stroke="#000000" stroke-width="1" stroke-linecap="butt" stroke-linejoin="miter" points="1382.11,306.575 1443.47,843.497"/>
<polyline fill="none" stroke="#000000" stroke-width="1" stroke-linecap="butt" stroke-linejoin="miter" points="1443.47,843.497 1216.83,624.568"/>
<polyline fill="none" stroke="#000000" stroke-width="1" stroke-linecap="butt" stroke-linejoin="miter" points="1216.83,624.568 1155.47,87.647"/>
<polyline fill="none" stroke="#000000" stroke-width="1" stroke-linecap="butt" stroke-linejoin="miter" points="665.888,774.425 1216.83,624.568"/>
<polyline fill="none" stroke="#000000" stroke-width="1" stroke-linecap="butt" stroke-linejoin="miter" points="1216.83,624.568 1443.47,843.497"/>
<polyline fill="none" stroke="#000000" stroke-width="1" stroke-linecap="butt" stroke-linejoin="miter" points="1443.47,843.497 892.525,993.353"/>
<polyline fill="none" stroke="#000000" stroke-width="1" stroke-linecap="butt" stroke-linejoin="miter" points="892.525,993.353 665.888,774.425"/>
<polyline fill="none" stroke="#000000" stroke-width="1" stroke-linecap="butt" stroke-linejoin="miter" points="991.697,966.378 1006.81,980.974"/>
<text fill="#000000" x="1008" y="1001.57" font-size="12" text-anchor="start" dy="0" font-family="Helvetica">-0.05</text>
<polyline fill="none" stroke="#000000" stroke-width="1" stroke-linecap="butt" stroke-linejoin="miter" points="1155.48,921.829 1170.59,936.424"/>
<text fill="#000000" x="1182.22" y="957.019" font-size="12" text-anchor="start" dy="0" font-family="Helvetica">0</text>
<polyline fill="none" stroke="#000000" stroke-width="1" stroke-linecap="butt" stroke-linejoin="miter" points="1319.27,877.279 1334.38,891.874"/>
<text fill="#000000" x="1337.51" y="912.469" font-size="12" text-anchor="start" dy="0" font-family="Helvetica">0.05</text>
<polyline fill="none" stroke="#000000" stroke-width="1" stroke-linecap="butt" stroke-linejoin="miter" points="1387.16,350.75 1402.27,365.345"/>
<text fill="#000000" x="1403.47" y="385.94" font-size="12" text-anchor="start" dy="0" font-family="Helvetica">-0.06</text>
<polyline fill="none" stroke="#000000" stroke-width="1" stroke-linecap="butt" stroke-linejoin="miter" points="1396.64,433.711 1411.75,448.307"/>
<text fill="#000000" x="1412.95" y="468.902" font-size="12" text-anchor="start" dy="0" font-family="Helvetica">-0.04</text>
<polyline fill="none" stroke="#000000" stroke-width="1" stroke-linecap="butt" stroke-linejoin="miter" points="1406.12,516.674 1421.23,531.269"/>
<text fill="#000000" x="1422.43" y="551.864" font-size="12" text-anchor="start" dy="0" font-family="Helvetica">-0.02</text>
<polyline fill="none" stroke="#000000" stroke-width="1" stroke-linecap="butt" stroke-linejoin="miter" points="1415.6,599.636 1430.71,614.231"/>
<text fill="#000000" x="1442.34" y="634.827" font-size="12" text-anchor="start" dy="0" font-family="Helvetica">0</text>
<polyline fill="none" stroke="#000000" stroke-width="1" stroke-linecap="butt" stroke-linejoin="miter" points="1425.08,682.598 1440.19,697.193"/>
<text fill="#000000" x="1443.32" y="717.789" font-size="12" text-anchor="start" dy="0" font-family="Helvetica">0.02</text>
<polyline fill="none" stroke="#000000" stroke-width="1" stroke-linecap="butt" stroke-linejoin="miter" points="1434.57,765.561 1449.67,780.156"/>
<text fill="#000000" x="1452.81" y="800.751" font-size="12" text-anchor="start" dy="0" font-family="Helvetica">0.04</text>
<polyline fill="none" stroke="#000000" stroke-width="1" stroke-linecap="butt" stroke-linejoin="miter" points="874.625,976.062 837.896,986.053"/>
<text fill="#000000" x="776.283" y="1002.04" font-size="12" text-anchor="start" dy="0" font-family="Helvetica">-0.04</text>
<polyline fill="none" stroke="#000000" stroke-width="1" stroke-linecap="butt" stroke-linejoin="miter" points="837.758,940.449 801.028,950.439"/>
<text fill="#000000" x="739.415" y="966.43" font-size="12" text-anchor="start" dy="0" font-family="Helvetica">-0.02</text>
<polyline fill="none" stroke="#000000" stroke-width="1" stroke-linecap="butt" stroke-linejoin="miter" points="800.89,904.835 764.161,914.826"/>
<text fill="#000000" x="721.21" y="930.816" font-size="12" text-anchor="start" dy="0" font-family="Helvetica">0</text>
<polyline fill="none" stroke="#000000" stroke-width="1" stroke-linecap="butt" stroke-linejoin="miter" points="764.022,869.221 727.293,879.212"/>
<text fill="#000000" x="669.136" y="895.202" font-size="12" text-anchor="start" dy="0" font-family="Helvetica">0.02</text>
<polyline fill="none" stroke="#000000" stroke-width="1" stroke-linecap="butt" stroke-linejoin="miter" points="727.155,833.608 690.425,843.598"/>
<text fill="#000000" x="632.268" y="859.589" font-size="12" text-anchor="start" dy="0" font-family="Helvetica">0.04</text>
<polyline fill="none" stroke="#000000" stroke-width="1" stroke-linecap="butt" stroke-linejoin="miter" points="690.287,797.994 653.558,807.985"/>
<text fill="#000000" x="595.4" y="823.975" font-size="12" text-anchor="start" dy="0" font-family="Helvetica">0.06</text>
<polyline fill="none" stroke="#000000" stroke-width="1" stroke-linecap="butt" stroke-linejoin="miter" points="831.166,456.432 831.166,456.432"/>
<polyline fill="none" stroke="#000000" stroke-width="1" stroke-linecap="butt" stroke-linejoin="miter" points="1216.83,624.568 1216.83,624.568"/>
<circle fill="#e41a1c" cx="1001.42" cy="618.337" r="5"/>
<circle fill="#e41a1c" cx="906.7" cy="717.233" r="5"/>
<circle fill="#e41a1c" cx="1156.2" cy="782.979" r="5"/>
<circle fill="#e41a1c" cx="838.901" cy="565.591" r="5"/>
<circle fill="#4daf4a" cx="992.777" cy="696.819" r="5"/>
<circle fill="#8b2323" cx="920.944" cy="666.09" r="5"/>
<circle fill="#1874cd" cx="1106.23" cy="610.126" r="5"/>
<circle fill="#1874cd" cx="1114.64" cy="505.889" r="5"/>
<circle fill="#4daf4a" cx="1152.4" cy="734.917" r="5"/>
<circle fill="#4daf4a" cx="1136.78" cy="491.013" r="5"/>
<circle fill="#984ea3" cx="1209.48" cy="301.611" r="5"/>
<circle fill="#4daf4a" cx="1014.86" cy="734.323" r="5"/>
<circle fill="#4daf4a" cx="1017.69" cy="611.012" r="5"/>
<circle fill="#4daf4a" cx="1323.81" cy="357.553" r="5"/>
<circle fill="#4daf4a" cx="1137.17" cy="668.765" r="5"/>
<circle fill="#1874cd" cx="1142.29" cy="566.577" r="5"/>
<circle fill="#1874cd" cx="1156.21" cy="609.879" r="5"/>
<circle fill="#1874cd" cx="1122.05" cy="406.787" r="5"/>
<circle fill="#1874cd" cx="1181.64" cy="609.095" r="5"/>
<circle fill="#1874cd" cx="957.369" cy="689.609" r="5"/>
<circle fill="#1874cd" cx="1135.9" cy="629.63" r="5"/>
<circle fill="#1874cd" cx="1038.75" cy="724.593" r="5"/>
<circle fill="#1874cd" cx="1046.44" cy="724.866" r="5"/>
<circle fill="#cd661d" cx="1017.08" cy="690.7" r="5"/>
<circle fill="#cd661d" cx="891.936" cy="671.058" r="5"/>
<circle fill="#cd661d" cx="740.621" cy="492.274" r="5"/>
<circle fill="#cd661d" cx="847.347" cy="644.71" r="5"/>
<circle fill="#cd661d" cx="875.699" cy="452.367" r="5"/>
<circle fill="#cd661d" cx="1002.99" cy="614.426" r="5"/>
<circle fill="#cd661d" cx="970.595" cy="791.237" r="5"/>
<circle fill="#cd661d" cx="939.285" cy="648.826" r="5"/>
<circle fill="#cd661d" cx="850.172" cy="355.509" r="5"/>
<circle fill="#cd661d" cx="879.447" cy="389.211" r="5"/>
<circle fill="#cd661d" cx="904.87" cy="347.787" r="5"/>
<circle fill="#cd661d" cx="917.146" cy="350.445" r="5"/>
<circle fill="#1874cd" cx="1078.09" cy="590.646" r="5"/>
<circle fill="#1874cd" cx="1079.03" cy="586.767" r="5"/>
<circle fill="#8b864e" cx="1071.21" cy="675.493" r="5"/>
<circle fill="#8b864e" cx="1159.86" cy="803.731" r="5"/>
<circle fill="#8b864e" cx="1050.23" cy="557.432" r="5"/>
<circle fill="#8b864e" cx="1118.39" cy="685.215" r="5"/>
<circle fill="#000000" cx="1055.5" cy="545.139" r="5"/>
<circle fill="#000000" cx="1287.01" cy="430.098" r="5"/>
<text fill="#000000" x="1196.13" y="1018.6" font-size="12" text-anchor="start" dy="0" font-family="Helvetica">PC1 (26.5%)</text>
<text fill="#000000" x="1473.56" y="629.426" font-size="12" text-anchor="start" dy="0" font-family="Helvetica">PC2 (14.7%)</text>
<text fill="#000000" x="599.979" y="965.646" font-size="12" text-anchor="start" dy="0" font-family="Helvetica">PC3 (13.4%)</text>
<polygon fill="#1874cd" fill-opacity="0.298039" shape-rendering="crispEdges" points="1181.64,609.095 1038.75,724.593 1114.64,505.889"/>
<polygon fill="#1874cd" fill-opacity="0.298039" shape-rendering="crispEdges" points="1038.75,724.593 1114.64,505.889 957.369,689.609"/>
<polygon fill="#cd661d" fill-opacity="0.298039" shape-rendering="crispEdges" points="740.621,492.274 970.595,791.237 917.146,350.445"/>
<polygon fill="#1874cd" fill-opacity="0.298039" shape-rendering="crispEdges" points="1181.64,609.095 1046.44,724.866 1038.75,724.593"/>
<polygon fill="#1874cd" fill-opacity="0.298039" shape-rendering="crispEdges" points="1046.44,724.866 1038.75,724.593 957.369,689.609"/>
<polygon fill="#4daf4a" fill-opacity="0.298039" shape-rendering="crispEdges" points="1014.86,734.323 1136.78,491.013 992.777,696.819"/>
<polygon fill="#1874cd" fill-opacity="0.298039" shape-rendering="crispEdges" points="1181.64,609.095 1122.05,406.787 1114.64,505.889"/>
<polygon fill="#1874cd" fill-opacity="0.298039" shape-rendering="crispEdges" points="1122.05,406.787 1114.64,505.889 957.369,689.609"/>
<polygon fill="#4daf4a" fill-opacity="0.298039" shape-rendering="crispEdges" points="1152.4,734.917 1014.86,734.323 1136.78,491.013"/>
<polygon fill="#4daf4a" fill-opacity="0.298039" shape-rendering="crispEdges" points="1017.69,611.012 1136.78,491.013 992.777,696.819"/>
<polygon fill="#e41a1c" fill-opacity="0.298039" shape-rendering="crispEdges" points="1001.42,618.337 838.901,565.591 1156.2,782.979"/>
<polygon fill="#cd661d" fill-opacity="0.298039" shape-rendering="crispEdges" points="1017.08,690.7 970.595,791.237 917.146,350.445"/>
<polygon fill="#cd661d" fill-opacity="0.298039" shape-rendering="crispEdges" points="850.172,355.509 740.621,492.274 917.146,350.445"/>
<polygon fill="#e41a1c" fill-opacity="0.298039" shape-rendering="crispEdges" points="1001.42,618.337 838.901,565.591 906.7,717.233"/>
<polygon fill="#4daf4a" fill-opacity="0.298039" shape-rendering="crispEdges" points="1152.4,734.917 1014.86,734.323 992.777,696.819"/>
<polygon fill="#4daf4a" fill-opacity="0.298039" shape-rendering="crispEdges" points="1152.4,734.917 1136.78,491.013 1323.81,357.553"/>
<polygon fill="#cd661d" fill-opacity="0.298039" shape-rendering="crispEdges" points="850.172,355.509 904.87,347.787 917.146,350.445"/>
<polygon fill="#1874cd" fill-opacity="0.298039" shape-rendering="crispEdges" points="1181.64,609.095 1046.44,724.866 1135.9,629.63"/>
<polygon fill="#4daf4a" fill-opacity="0.298039" shape-rendering="crispEdges" points="1017.69,611.012 1136.78,491.013 1323.81,357.553"/>
<polygon fill="#4daf4a" fill-opacity="0.298039" shape-rendering="crispEdges" points="1017.69,611.012 1152.4,734.917 992.777,696.819"/>
<polygon fill="#1874cd" fill-opacity="0.298039" shape-rendering="crispEdges" points="1156.21,609.879 1181.64,609.095 1135.9,629.63"/>
<polygon fill="#1874cd" fill-opacity="0.298039" shape-rendering="crispEdges" points="1156.21,609.879 1181.64,609.095 1122.05,406.787"/>
<polygon fill="#e41a1c" fill-opacity="0.298039" shape-rendering="crispEdges" points="838.901,565.591 1156.2,782.979 906.7,717.233"/>
<polygon fill="#1874cd" fill-opacity="0.298039" shape-rendering="crispEdges" points="1046.44,724.866 1122.05,406.787 957.369,689.609"/>
<polygon fill="#cd661d" fill-opacity="0.298039" shape-rendering="crispEdges" points="1002.99,614.426 904.87,347.787 917.146,350.445"/>
<polygon fill="#cd661d" fill-opacity="0.298039" shape-rendering="crispEdges" points="740.621,492.274 970.595,791.237 847.347,644.71"/>
<polygon fill="#e41a1c" fill-opacity="0.298039" shape-rendering="crispEdges" points="1001.42,618.337 1156.2,782.979 906.7,717.233"/>
<polygon fill="#8b864e" fill-opacity="0.298039" shape-rendering="crispEdges" points="1118.39,685.215 1050.23,557.432 1071.21,675.493"/>
<polygon fill="#4daf4a" fill-opacity="0.298039" shape-rendering="crispEdges" points="1017.69,611.012 1152.4,734.917 1323.81,357.553"/>
<polygon fill="#8b864e" fill-opacity="0.298039" shape-rendering="crispEdges" points="1050.23,557.432 1159.86,803.731 1071.21,675.493"/>
<polygon fill="#cd661d" fill-opacity="0.298039" shape-rendering="crispEdges" points="1002.99,614.426 1017.08,690.7 917.146,350.445"/>
<polygon fill="#1874cd" fill-opacity="0.298039" shape-rendering="crispEdges" points="1046.44,724.866 1135.9,629.63 1122.05,406.787"/>
<polygon fill="#1874cd" fill-opacity="0.298039" shape-rendering="crispEdges" points="1156.21,609.879 1135.9,629.63 1122.05,406.787"/>
<polygon fill="#8b864e" fill-opacity="0.298039" shape-rendering="crispEdges" points="1118.39,685.215 1050.23,557.432 1159.86,803.731"/>
<polygon fill="#8b864e" fill-opacity="0.298039" shape-rendering="crispEdges" points="1118.39,685.215 1159.86,803.731 1071.21,675.493"/>
<polygon fill="#cd661d" fill-opacity="0.298039" shape-rendering="crispEdges" points="1017.08,690.7 970.595,791.237 847.347,644.71"/>
<polygon fill="#cd661d" fill-opacity="0.298039" shape-rendering="crispEdges" points="850.172,355.509 740.621,492.274 879.447,389.211"/>
<polygon fill="#cd661d" fill-opacity="0.298039" shape-rendering="crispEdges" points="850.172,355.509 904.87,347.787 879.447,389.211"/>
<polygon fill="#cd661d" fill-opacity="0.298039" shape-rendering="crispEdges" points="740.621,492.274 879.447,389.211 847.347,644.71"/>
<polygon fill="#cd661d" fill-opacity="0.298039" shape-rendering="crispEdges" points="1002.99,614.426 904.87,347.787 879.447,389.211"/>
<polygon fill="#cd661d" fill-opacity="0.298039" shape-rendering="crispEdges" points="1002.99,614.426 879.447,389.211 1017.08,690.7"/>
<polygon fill="#cd661d" fill-opacity="0.298039" shape-rendering="crispEdges" points="879.447,389.211 1017.08,690.7 847.347,644.71"/>
</g>
</svg>
