<?xml version="1.0" encoding="UTF-8" standalone="no"?>
<svg xmlns="http://www.w3.org/2000/svg"
     xmlns:xlink="http://www.w3.org/1999/xlink"
     width="2048pt" height="1081pt" viewBox="0 0 2048 1081">
<title>D:/3D_GM/Projects/UW105/Results/Tooth_type_classifications/UW105_074/3D_PCA_labelled.svg</title>
<desc>
Creator: GL2PS 1.4.2, (C) 1999-2020 C. Geuzaine
For: Generated by rgl
CreationDate: Tue Jan 27 15:43:48 2026
</desc>
<defs>
</defs>
<g>
<polygon fill="#ffffff" shape-rendering="crispEdges" points="0,1081 2048,1081 2048,0"/>
<polygon fill="#ffffff" shape-rendering="crispEdges" points="0,1081 2048,0 0,0"/>
<polyline fill="none" stroke="#000000" stroke-width="1" stroke-linecap="butt" stroke-linejoin="miter" points="569.268,194.543 1051.44,220.626"/>
<polyline fill="none" stroke="#000000" stroke-width="1" stroke-linecap="butt" stroke-linejoin="miter" points="1051.44,220.626 1028.23,880.375"/>
<polyline fill="none" stroke="#000000" stroke-width="1" stroke-linecap="butt" stroke-linejoin="miter" points="1028.23,880.375 546.053,854.292"/>
<polyline fill="none" stroke="#000000" stroke-width="1" stroke-linecap="butt" stroke-linejoin="miter" points="546.053,854.292 569.268,194.543"/>
<polyline fill="none" stroke="#000000" stroke-width="1" stroke-linecap="butt" stroke-linejoin="miter" points="1051.44,220.626 1501.95,226.708"/>
<polyline fill="none" stroke="#000000" stroke-width="1" stroke-linecap="butt" stroke-linejoin="miter" points="1501.95,226.708 1478.73,886.457"/>
<polyline fill="none" stroke="#000000" stroke-width="1" stroke-linecap="butt" stroke-linejoin="miter" points="1478.73,886.457 1028.23,880.375"/>
<polyline fill="none" stroke="#000000" stroke-width="1" stroke-linecap="butt" stroke-linejoin="miter" points="1028.23,880.375 1051.44,220.626"/>
<polyline fill="none" stroke="#000000" stroke-width="1" stroke-linecap="butt" stroke-linejoin="miter" points="1019.77,200.625 1501.95,226.708 1051.44,220.626 569.268,194.543 1019.77,200.625"/>
<polyline fill="none" stroke="#000000" stroke-width="1" stroke-linecap="butt" stroke-linejoin="miter" points="1039.35,201.684 1069.38,202.089"/>
<text fill="#000000" x="1099.27" y="208.495" font-size="12" text-anchor="start" dy="0" font-family="Helvetica">-0.1</text>
<polyline fill="none" stroke="#000000" stroke-width="1" stroke-linecap="butt" stroke-linejoin="miter" points="1127.91,206.475 1157.94,206.88"/>
<text fill="#000000" x="1187.78" y="213.286" font-size="12" text-anchor="start" dy="0" font-family="Helvetica">-0.05</text>
<polyline fill="none" stroke="#000000" stroke-width="1" stroke-linecap="butt" stroke-linejoin="miter" points="1216.47,211.265 1246.5,211.67"/>
<text fill="#000000" x="1276.49" y="218.076" font-size="12" text-anchor="start" dy="0" font-family="Helvetica">0</text>
<polyline fill="none" stroke="#000000" stroke-width="1" stroke-linecap="butt" stroke-linejoin="miter" points="1305.03,216.056 1335.06,216.461"/>
<text fill="#000000" x="1364.93" y="222.867" font-size="12" text-anchor="start" dy="0" font-family="Helvetica">0.05</text>
<polyline fill="none" stroke="#000000" stroke-width="1" stroke-linecap="butt" stroke-linejoin="miter" points="1393.59,220.846 1423.62,221.252"/>
<text fill="#000000" x="1453.54" y="227.657" font-size="12" text-anchor="start" dy="0" font-family="Helvetica">0.1</text>
<polyline fill="none" stroke="#000000" stroke-width="1" stroke-linecap="butt" stroke-linejoin="miter" points="1482.15,225.637 1512.18,226.042"/>
<text fill="#000000" x="1542.05" y="232.448" font-size="12" text-anchor="start" dy="0" font-family="Helvetica">0.15</text>
<polyline fill="none" stroke="#000000" stroke-width="1" stroke-linecap="butt" stroke-linejoin="miter" points="1499.56,294.611 1529.59,295.016"/>
<text fill="#000000" x="1559.48" y="301.422" font-size="12" text-anchor="start" dy="0" font-family="Helvetica">-0.1</text>
<polyline fill="none" stroke="#000000" stroke-width="1" stroke-linecap="butt" stroke-linejoin="miter" points="1495.6,407.135 1525.63,407.541"/>
<text fill="#000000" x="1555.47" y="413.946" font-size="12" text-anchor="start" dy="0" font-family="Helvetica">-0.05</text>
<polyline fill="none" stroke="#000000" stroke-width="1" stroke-linecap="butt" stroke-linejoin="miter" points="1491.64,519.66 1521.67,520.065"/>
<text fill="#000000" x="1551.66" y="526.47" font-size="12" text-anchor="start" dy="0" font-family="Helvetica">0</text>
<polyline fill="none" stroke="#000000" stroke-width="1" stroke-linecap="butt" stroke-linejoin="miter" points="1487.68,632.184 1517.71,632.589"/>
<text fill="#000000" x="1547.58" y="638.995" font-size="12" text-anchor="start" dy="0" font-family="Helvetica">0.05</text>
<polyline fill="none" stroke="#000000" stroke-width="1" stroke-linecap="butt" stroke-linejoin="miter" points="1483.72,744.708 1513.75,745.114"/>
<text fill="#000000" x="1543.67" y="751.519" font-size="12" text-anchor="start" dy="0" font-family="Helvetica">0.1</text>
<polyline fill="none" stroke="#000000" stroke-width="1" stroke-linecap="butt" stroke-linejoin="miter" points="1479.76,857.232 1509.79,857.638"/>
<text fill="#000000" x="1539.66" y="864.043" font-size="12" text-anchor="start" dy="0" font-family="Helvetica">0.15</text>
<polyline fill="none" stroke="#000000" stroke-width="1" stroke-linecap="butt" stroke-linejoin="miter" points="941.584,199.569 909.439,197.831"/>
<text fill="#000000" x="849.273" y="202.092" font-size="12" text-anchor="start" dy="0" font-family="Helvetica">-0.05</text>
<polyline fill="none" stroke="#000000" stroke-width="1" stroke-linecap="butt" stroke-linejoin="miter" points="812.108,197.822 779.963,196.083"/>
<text fill="#000000" x="740.813" y="200.344" font-size="12" text-anchor="start" dy="0" font-family="Helvetica">0</text>
<polyline fill="none" stroke="#000000" stroke-width="1" stroke-linecap="butt" stroke-linejoin="miter" points="682.633,196.074 650.487,194.335"/>
<text fill="#000000" x="594.213" y="198.596" font-size="12" text-anchor="start" dy="0" font-family="Helvetica">0.05</text>
<polyline fill="none" stroke="#000000" stroke-width="1" stroke-linecap="butt" stroke-linejoin="miter" points="1019.77,200.625 1019.77,200.625"/>
<polyline fill="none" stroke="#000000" stroke-width="1" stroke-linecap="butt" stroke-linejoin="miter" points="1028.23,880.375 1028.23,880.375"/>
<circle fill="#4daf4a" cx="893.402" cy="655.235" r="5"/>
<circle fill="#4daf4a" cx="849.446" cy="542.496" r="5"/>
<circle fill="#4daf4a" cx="960.417" cy="513.154" r="5"/>
<circle fill="#4daf4a" cx="867.916" cy="573.726" r="5"/>
<circle fill="#4daf4a" cx="776.238" cy="487.465" r="5"/>
<circle fill="#4daf4a" cx="825.442" cy="484.682" r="5"/>
<circle fill="#4daf4a" cx="861.229" cy="560.582" r="5"/>
<circle fill="#4daf4a" cx="924.884" cy="555.929" r="5"/>
<circle fill="#4daf4a" cx="816.252" cy="511.363" r="5"/>
<circle fill="#4daf4a" cx="792.954" cy="549.881" r="5"/>
<circle fill="#4daf4a" cx="927.495" cy="422.058" r="5"/>
<circle fill="#4daf4a" cx="971.06" cy="469.719" r="5"/>
<circle fill="#4daf4a" cx="862.661" cy="528.695" r="5"/>
<circle fill="#4daf4a" cx="863.322" cy="545.98" r="5"/>
<circle fill="#4daf4a" cx="906.775" cy="559.068" r="5"/>
<circle fill="#4daf4a" cx="849.655" cy="549.582" r="5"/>
<circle fill="#4daf4a" cx="892.486" cy="637.611" r="5"/>
<circle fill="#4daf4a" cx="805.601" cy="480.507" r="5"/>
<circle fill="#4daf4a" cx="875.791" cy="452.667" r="5"/>
<circle fill="#4daf4a" cx="846.749" cy="460.002" r="5"/>
<circle fill="#4daf4a" cx="789.601" cy="475.48" r="5"/>
<circle fill="#4daf4a" cx="834.102" cy="433.374" r="5"/>
<circle fill="#4daf4a" cx="771.711" cy="435.491" r="5"/>
<circle fill="#4daf4a" cx="879.509" cy="503.693" r="5"/>
<circle fill="#4daf4a" cx="826.125" cy="514.783" r="5"/>
<circle fill="#4daf4a" cx="845.05" cy="501.897" r="5"/>
<circle fill="#4daf4a" cx="785.365" cy="619.975" r="5"/>
<circle fill="#4daf4a" cx="838.358" cy="373.282" r="5"/>
<circle fill="#4daf4a" cx="842.485" cy="458.229" r="5"/>
<circle fill="#4daf4a" cx="838.242" cy="395.612" r="5"/>
<circle fill="#4daf4a" cx="999.519" cy="473.493" r="5"/>
<circle fill="#4daf4a" cx="941.555" cy="565.853" r="5"/>
<circle fill="#4daf4a" cx="907.539" cy="551.514" r="5"/>
<circle fill="#4daf4a" cx="940.725" cy="553.838" r="5"/>
<circle fill="#4daf4a" cx="971.093" cy="633.421" r="5"/>
<circle fill="#4daf4a" cx="986.316" cy="613.792" r="5"/>
<circle fill="#4daf4a" cx="891.167" cy="572.744" r="5"/>
<circle fill="#4daf4a" cx="921.526" cy="484.702" r="5"/>
<circle fill="#4daf4a" cx="879.342" cy="591.889" r="5"/>
<circle fill="#4daf4a" cx="889.979" cy="480.153" r="5"/>
<circle fill="#4daf4a" cx="918.031" cy="658.818" r="5"/>
<circle fill="#4daf4a" cx="885.313" cy="434.571" r="5"/>
<circle fill="#4daf4a" cx="857.525" cy="468.184" r="5"/>
<circle fill="#4daf4a" cx="932.665" cy="431.365" r="5"/>
<circle fill="#e41a1c" cx="993.14" cy="487.708" r="5"/>
<circle fill="#e41a1c" cx="974.568" cy="514.546" r="5"/>
<circle fill="#e41a1c" cx="1068.08" cy="439.548" r="5"/>
<circle fill="#e41a1c" cx="1133.35" cy="600.005" r="5"/>
<circle fill="#e41a1c" cx="1039.73" cy="522.337" r="5"/>
<circle fill="#e41a1c" cx="1009.11" cy="513.018" r="5"/>
<circle fill="#e41a1c" cx="1033.91" cy="416.397" r="5"/>
<circle fill="#e41a1c" cx="1026.97" cy="458.262" r="5"/>
<circle fill="#e41a1c" cx="1059.89" cy="399.152" r="5"/>
<circle fill="#e41a1c" cx="1092.13" cy="440.102" r="5"/>
<circle fill="#e41a1c" cx="1038.28" cy="320.578" r="5"/>
<circle fill="#e41a1c" cx="1054.07" cy="524.977" r="5"/>
<circle fill="#e41a1c" cx="1021.68" cy="480.538" r="5"/>
<circle fill="#e41a1c" cx="1074.83" cy="272.086" r="5"/>
<circle fill="#e41a1c" cx="1145.36" cy="429.625" r="5"/>
<circle fill="#e41a1c" cx="1014.78" cy="407.82" r="5"/>
<circle fill="#e41a1c" cx="978.641" cy="399.58" r="5"/>
<circle fill="#e41a1c" cx="990.492" cy="353.75" r="5"/>
<circle fill="#e41a1c" cx="1068.29" cy="438.779" r="5"/>
<circle fill="#e41a1c" cx="945.691" cy="535.976" r="5"/>
<circle fill="#e41a1c" cx="956.488" cy="399.019" r="5"/>
<circle fill="#e41a1c" cx="1079.4" cy="518.262" r="5"/>
<circle fill="#e41a1c" cx="994.651" cy="466.315" r="5"/>
<circle fill="#e41a1c" cx="1102.2" cy="480.309" r="5"/>
<circle fill="#e41a1c" cx="1032.12" cy="531.958" r="5"/>
<circle fill="#e41a1c" cx="1043.72" cy="607.888" r="5"/>
<circle fill="#e41a1c" cx="1022.35" cy="529.052" r="5"/>
<circle fill="#e41a1c" cx="1012.59" cy="524.828" r="5"/>
<circle fill="#e41a1c" cx="1047.26" cy="465.192" r="5"/>
<circle fill="#e41a1c" cx="1133.81" cy="551.292" r="5"/>
<circle fill="#e41a1c" cx="918.281" cy="505.327" r="5"/>
<circle fill="#e41a1c" cx="1003.35" cy="507.575" r="5"/>
<circle fill="#e41a1c" cx="1055.44" cy="458.676" r="5"/>
<circle fill="#e41a1c" cx="1034.9" cy="484.915" r="5"/>
<circle fill="#e41a1c" cx="1030.65" cy="522.706" r="5"/>
<circle fill="#e41a1c" cx="960.265" cy="437.4" r="5"/>
<circle fill="#e41a1c" cx="977.68" cy="430.45" r="5"/>
<circle fill="#e41a1c" cx="924.6" cy="459.101" r="5"/>
<circle fill="#e41a1c" cx="941.85" cy="436.735" r="5"/>
<circle fill="#e41a1c" cx="976.279" cy="485.668" r="5"/>
<circle fill="#e41a1c" cx="967.292" cy="432.618" r="5"/>
<circle fill="#1874cd" cx="1194.06" cy="420.891" r="5"/>
<circle fill="#1874cd" cx="1192.19" cy="465.162" r="5"/>
<circle fill="#1874cd" cx="1217.32" cy="550.618" r="5"/>
<circle fill="#1874cd" cx="1088.08" cy="568.488" r="5"/>
<circle fill="#1874cd" cx="1078.78" cy="656.823" r="5"/>
<circle fill="#1874cd" cx="1063.42" cy="380.97" r="5"/>
<circle fill="#1874cd" cx="1153.68" cy="579.175" r="5"/>
<circle fill="#1874cd" cx="1133.35" cy="567.639" r="5"/>
<circle fill="#1874cd" cx="1151.69" cy="576.468" r="5"/>
<circle fill="#1874cd" cx="1256.85" cy="625.594" r="5"/>
<circle fill="#1874cd" cx="1324.77" cy="549.575" r="5"/>
<circle fill="#1874cd" cx="1180.29" cy="240.507" r="5"/>
<circle fill="#1874cd" cx="1080.06" cy="442.49" r="5"/>
<circle fill="#1874cd" cx="1118.91" cy="487.358" r="5"/>
<circle fill="#1874cd" cx="1098.91" cy="485.683" r="5"/>
<circle fill="#1874cd" cx="1056.67" cy="406.857" r="5"/>
<circle fill="#1874cd" cx="1115.54" cy="488.91" r="5"/>
<circle fill="#1874cd" cx="1120.87" cy="507.192" r="5"/>
<circle fill="#1874cd" cx="974.717" cy="427.773" r="5"/>
<circle fill="#1874cd" cx="1109" cy="461.598" r="5"/>
<circle fill="#1874cd" cx="1112.33" cy="333.441" r="5"/>
<circle fill="#1874cd" cx="1079.4" cy="518.262" r="5"/>
<circle fill="#1874cd" cx="980.256" cy="438.516" r="5"/>
<circle fill="#1874cd" cx="1213.63" cy="614.874" r="5"/>
<circle fill="#1874cd" cx="981.757" cy="611.578" r="5"/>
<circle fill="#1874cd" cx="1078.4" cy="636.958" r="5"/>
<circle fill="#1874cd" cx="1143.76" cy="567.56" r="5"/>
<circle fill="#1874cd" cx="1059.04" cy="840.916" r="5"/>
<circle fill="#1874cd" cx="1032.72" cy="539.57" r="5"/>
<circle fill="#1874cd" cx="1048.15" cy="504.052" r="5"/>
<circle fill="#1874cd" cx="1069.06" cy="663.242" r="5"/>
<circle fill="#1874cd" cx="1262" cy="575.285" r="5"/>
<circle fill="#1874cd" cx="1229.98" cy="485.533" r="5"/>
<circle fill="#1874cd" cx="984.814" cy="624.441" r="5"/>
<circle fill="#1874cd" cx="1017.13" cy="516.011" r="5"/>
<circle fill="#1874cd" cx="1123.84" cy="592.515" r="5"/>
<circle fill="#1874cd" cx="1186.67" cy="561.295" r="5"/>
<circle fill="#4daf4a" cx="892.61" cy="440.253" r="5"/>
<circle fill="#000000" cx="1088.18" cy="264.56" r="5"/>
<text fill="#000000" x="1346.14" y="177.305" font-size="12" text-anchor="start" dy="0" font-family="Helvetica">PC1 (32.5%)</text>
<text fill="#000000" x="1606.22" y="565.943" font-size="12" text-anchor="start" dy="0" font-family="Helvetica">PC2 (17.5%)</text>
<text fill="#000000" x="634.687" y="152.646" font-size="12" text-anchor="start" dy="0" font-family="Helvetica">PC3 (9.4%)</text>
<text fill="#000000" x="965.816" y="386.17" font-size="9" text-anchor="start" dy="0" font-family="Helvetica">KNM-ER_807_URM3</text>
<text fill="#000000" x="1103.47" y="566.495" font-size="9" text-anchor="start" dy="0" font-family="Helvetica">UW105-676_URM</text>
<polygon fill="#1874cd" fill-opacity="0.298039" shape-rendering="crispEdges" points="1186.67,561.295 1063.42,380.97 1324.77,549.575"/>
<polygon fill="#1874cd" fill-opacity="0.298039" shape-rendering="crispEdges" points="1186.67,561.295 1063.42,380.97 1059.04,840.916"/>
<text fill="#000000" x="719.765" y="625.175" font-size="9" text-anchor="start" dy="0" font-family="Helvetica">SK_52_URM1</text>
<text fill="#000000" x="1090.89" y="581.668" font-size="9" text-anchor="start" dy="0" font-family="Helvetica">OH13_URM3</text>
<polygon fill="#1874cd" fill-opacity="0.298039" shape-rendering="crispEdges" points="984.814,624.441 1063.42,380.97 1059.04,840.916"/>
<polygon fill="#1874cd" fill-opacity="0.298039" shape-rendering="crispEdges" points="984.814,624.441 974.717,427.773 1063.42,380.97"/>
<text fill="#000000" x="893.614" y="629.642" font-size="9" text-anchor="start" dy="0" font-family="Helvetica">UW101_594_URM3</text>
<polygon fill="#1874cd" fill-opacity="0.298039" shape-rendering="crispEdges" points="1186.67,561.295 1059.04,840.916 1324.77,549.575"/>
<text fill="#000000" x="1052.08" y="584.375" font-size="9" text-anchor="start" dy="0" font-family="Helvetica">KNM-ER_1813_ULM3</text>
<text fill="#000000" x="1008.8" y="642.158" font-size="9" text-anchor="start" dy="0" font-family="Helvetica">STS_37_ULM3</text>
<text fill="#000000" x="948.568" y="463.462" font-size="9" text-anchor="start" dy="0" font-family="Helvetica">DNH_108_URM2</text>
<polygon fill="#1874cd" fill-opacity="0.298039" shape-rendering="crispEdges" points="981.757,611.578 984.814,624.441 1059.04,840.916"/>
<text fill="#000000" x="1265.57" y="554.775" font-size="9" text-anchor="start" dy="0" font-family="Helvetica">OH16_ULM3</text>
<text fill="#000000" x="989.443" y="846.116" font-size="9" text-anchor="start" dy="0" font-family="Helvetica">STS_53_ULM3</text>
<text fill="#000000" x="1149.63" y="620.074" font-size="9" text-anchor="start" dy="0" font-family="Helvetica">SK_847_UM3</text>
<polygon fill="#1874cd" fill-opacity="0.298039" shape-rendering="crispEdges" points="1180.29,240.507 1063.42,380.97 1324.77,549.575"/>
<polygon fill="#4daf4a" fill-opacity="0.298039" shape-rendering="crispEdges" points="838.242,395.612 771.711,435.491 785.365,619.975"/>
<text fill="#000000" x="761.442" y="400.813" font-size="9" text-anchor="start" dy="0" font-family="Helvetica">SK_838a_URM1</text>
<polygon fill="#1874cd" fill-opacity="0.298039" shape-rendering="crispEdges" points="981.757,611.578 984.814,624.441 974.717,427.773"/>
<text fill="#000000" x="779.45" y="507.098" font-size="9" text-anchor="start" dy="0" font-family="Helvetica">SK_48_URM1</text>
<polygon fill="#1874cd" fill-opacity="0.298039" shape-rendering="crispEdges" points="1256.85,625.594 1059.04,840.916 1324.77,549.575"/>
<polygon fill="#4daf4a" fill-opacity="0.298039" shape-rendering="crispEdges" points="838.242,395.612 999.519,473.493 785.365,619.975"/>
<polygon fill="#1874cd" fill-opacity="0.298039" shape-rendering="crispEdges" points="974.717,427.773 1180.29,240.507 1063.42,380.97"/>
<text fill="#000000" x="910.557" y="616.778" font-size="9" text-anchor="start" dy="0" font-family="Helvetica">STS_28_URM3</text>
<text fill="#000000" x="1003.4" y="466.798" font-size="9" text-anchor="start" dy="0" font-family="Helvetica">Prob_TM1517C_URM3</text>
<polygon fill="#4daf4a" fill-opacity="0.298039" shape-rendering="crispEdges" points="776.238,487.465 771.711,435.491 785.365,619.975"/>
<text fill="#000000" x="1016.87" y="512.392" font-size="9" text-anchor="start" dy="0" font-family="Helvetica">Prob_SK_3977_URM3</text>
<text fill="#000000" x="1000.51" y="490.883" font-size="9" text-anchor="start" dy="0" font-family="Helvetica">Prob_SK3977_URM3</text>
<text fill="#000000" x="768.758" y="378.482" font-size="9" text-anchor="start" dy="0" font-family="Helvetica">SK_102_ULM1</text>
<text fill="#000000" x="921.933" y="521.211" font-size="9" text-anchor="start" dy="0" font-family="Helvetica">UW101_1269_ULM3</text>
<polygon fill="#e41a1c" fill-opacity="0.298039" shape-rendering="crispEdges" points="1092.13,440.102 1079.4,518.262 1026.97,458.262"/>
<polygon fill="#4daf4a" fill-opacity="0.298039" shape-rendering="crispEdges" points="838.242,395.612 771.711,435.491 838.358,373.282"/>
<polygon fill="#4daf4a" fill-opacity="0.298039" shape-rendering="crispEdges" points="776.238,487.465 792.954,549.881 785.365,619.975"/>
<polygon fill="#e41a1c" fill-opacity="0.298039" shape-rendering="crispEdges" points="956.488,399.019 924.6,459.101 1026.97,458.262"/>
<polygon fill="#e41a1c" fill-opacity="0.298039" shape-rendering="crispEdges" points="1079.4,518.262 945.691,535.976 1026.97,458.262"/>
<text fill="#000000" x="865.117" y="432.974" font-size="9" text-anchor="start" dy="0" font-family="Helvetica">Prob_SKX21841_URM3</text>
<polygon fill="#e41a1c" fill-opacity="0.298039" shape-rendering="crispEdges" points="945.691,535.976 924.6,459.101 1026.97,458.262"/>
<text fill="#000000" x="1058.15" y="572.839" font-size="9" text-anchor="start" dy="0" font-family="Helvetica">L398-573_ULM3</text>
<polygon fill="#4daf4a" fill-opacity="0.298039" shape-rendering="crispEdges" points="838.242,395.612 999.519,473.493 838.358,373.282"/>
<text fill="#000000" x="1196.05" y="630.794" font-size="9" text-anchor="start" dy="0" font-family="Helvetica">OH15_URM3</text>
<text fill="#000000" x="1013.8" y="523.462" font-size="9" text-anchor="start" dy="0" font-family="Helvetica">SK_52_URM2</text>
<text fill="#000000" x="1013.8" y="523.462" font-size="9" text-anchor="start" dy="0" font-family="Helvetica">SK_52_URM3</text>
<polygon fill="#e41a1c" fill-opacity="0.298039" shape-rendering="crispEdges" points="956.488,399.019 1074.83,272.086 1026.97,458.262"/>
<polygon fill="#1874cd" fill-opacity="0.298039" shape-rendering="crispEdges" points="1256.85,625.594 1262,575.285 1324.77,549.575"/>
<text fill="#000000" x="833.4" y="464.301" font-size="9" text-anchor="start" dy="0" font-family="Helvetica">UW101_593_URM2</text>
<polygon fill="#1874cd" fill-opacity="0.298039" shape-rendering="crispEdges" points="1256.85,625.594 1262,575.285 1059.04,840.916"/>
<polygon fill="#e41a1c" fill-opacity="0.298039" shape-rendering="crispEdges" points="1092.13,440.102 1074.83,272.086 1026.97,458.262"/>
<text fill="#000000" x="890.888" y="404.219" font-size="9" text-anchor="start" dy="0" font-family="Helvetica">SK_49_URM2</text>
<text fill="#000000" x="978.693" y="443.979" font-size="9" text-anchor="start" dy="0" font-family="Helvetica">SK_16.1591_ULM2</text>
<polygon fill="#1874cd" fill-opacity="0.298039" shape-rendering="crispEdges" points="981.757,611.578 980.256,438.516 1059.04,840.916"/>
<text fill="#000000" x="703.438" y="492.666" font-size="9" text-anchor="start" dy="0" font-family="Helvetica">DNH_39_URM1</text>
<text fill="#000000" x="981.725" y="445.302" font-size="9" text-anchor="start" dy="0" font-family="Helvetica">KNM-ER_1808H_URM2</text>
<text fill="#000000" x="994.658" y="668.442" font-size="9" text-anchor="start" dy="0" font-family="Helvetica">STW183_URM3</text>
<text fill="#000000" x="850.649" y="441.936" font-size="9" text-anchor="start" dy="0" font-family="Helvetica">UW101_867_URM2</text>
<text fill="#000000" x="674.912" y="440.691" font-size="9" text-anchor="start" dy="0" font-family="Helvetica">Prob_SK_832_ULM1</text>
<text fill="#000000" x="994.46" y="447.69" font-size="9" text-anchor="start" dy="0" font-family="Helvetica">Prob_SK16_ULM3</text>
<text fill="#000000" x="1007.58" y="662.023" font-size="9" text-anchor="start" dy="0" font-family="Helvetica">DNH_54_ULM3</text>
<polygon fill="#4daf4a" fill-opacity="0.298039" shape-rendering="crispEdges" points="927.495,422.058 999.519,473.493 838.358,373.282"/>
<text fill="#000000" x="1066.96" y="572.76" font-size="9" text-anchor="start" dy="0" font-family="Helvetica">STS_52a_URM3</text>
<polygon fill="#1874cd" fill-opacity="0.298039" shape-rendering="crispEdges" points="981.757,611.578 980.256,438.516 974.717,427.773"/>
<polygon fill="#4daf4a" fill-opacity="0.298039" shape-rendering="crispEdges" points="999.519,473.493 918.031,658.818 785.365,619.975"/>
<text fill="#000000" x="880.241" y="404.78" font-size="9" text-anchor="start" dy="0" font-family="Helvetica">Prob_SK_834_URM2</text>
<text fill="#000000" x="880.091" y="541.176" font-size="9" text-anchor="start" dy="0" font-family="Helvetica">SK_47_URM2</text>
<text fill="#000000" x="921.977" y="413.02" font-size="9" text-anchor="start" dy="0" font-family="Helvetica">Prob_SK_48_URM2</text>
<text fill="#000000" x="817.095" y="427.258" font-size="9" text-anchor="start" dy="0" font-family="Helvetica">KNM-WT_17400_URM1</text>
<polygon fill="#e41a1c" fill-opacity="0.298039" shape-rendering="crispEdges" points="1092.13,440.102 1079.4,518.262 1145.36,429.625"/>
<text fill="#000000" x="920.34" y="492.908" font-size="9" text-anchor="start" dy="0" font-family="Helvetica">AL199-1_URM2</text>
<text fill="#000000" x="881.079" y="490.868" font-size="9" text-anchor="start" dy="0" font-family="Helvetica">UW101_1015_ULM2</text>
<text fill="#000000" x="1022.11" y="492.558" font-size="9" text-anchor="start" dy="0" font-family="Helvetica">Prob_SK3975_ULM3</text>
<text fill="#000000" x="784.429" y="565.782" font-size="9" text-anchor="start" dy="0" font-family="Helvetica">DNH_108_ULM1</text>
<polygon fill="#4daf4a" fill-opacity="0.298039" shape-rendering="crispEdges" points="789.601,475.48 776.238,487.465 771.711,435.491"/>
<text fill="#000000" x="737.302" y="438.574" font-size="9" text-anchor="start" dy="0" font-family="Helvetica">Prob_SK_89a_ULM1</text>
<text fill="#000000" x="1013.14" y="494.11" font-size="9" text-anchor="start" dy="0" font-family="Helvetica">Prob_SK_3975_ULM3</text>
<polygon fill="#e41a1c" fill-opacity="0.298039" shape-rendering="crispEdges" points="918.281,505.327 945.691,535.976 924.6,459.101"/>
<polygon fill="#4daf4a" fill-opacity="0.298039" shape-rendering="crispEdges" points="893.402,655.235 792.954,549.881 785.365,619.975"/>
<text fill="#000000" x="698.4" y="485.707" font-size="9" text-anchor="start" dy="0" font-family="Helvetica">Prob_DNH_57B_URM1</text>
<text fill="#000000" x="872.092" y="437.818" font-size="9" text-anchor="start" dy="0" font-family="Helvetica">UW101_1277_ULM2</text>
<polygon fill="#e41a1c" fill-opacity="0.298039" shape-rendering="crispEdges" points="956.488,399.019 990.492,353.75 924.6,459.101"/>
<polygon fill="#e41a1c" fill-opacity="0.298039" shape-rendering="crispEdges" points="1079.4,518.262 945.691,535.976 1133.35,600.005"/>
<text fill="#000000" x="949.489" y="404.353" font-size="9" text-anchor="start" dy="0" font-family="Helvetica">KNM-ER_1590M_ULM2</text>
<text fill="#000000" x="879.465" y="442.601" font-size="9" text-anchor="start" dy="0" font-family="Helvetica">TM_1517a_ULM2</text>
<text fill="#000000" x="804.513" y="439.771" font-size="9" text-anchor="start" dy="0" font-family="Helvetica">TM_1517a_ULM1</text>
<polygon fill="#4daf4a" fill-opacity="0.298039" shape-rendering="crispEdges" points="927.495,422.058 932.665,431.365 838.358,373.282"/>
<polygon fill="#4daf4a" fill-opacity="0.298039" shape-rendering="crispEdges" points="789.601,475.48 776.238,487.465 792.954,549.881"/>
<text fill="#000000" x="918.651" y="471.516" font-size="9" text-anchor="start" dy="0" font-family="Helvetica">SKW_33_URM2</text>
<text fill="#000000" x="805.109" y="508.893" font-size="9" text-anchor="start" dy="0" font-family="Helvetica">SK13.14_URM1</text>
<polygon fill="#4daf4a" fill-opacity="0.298039" shape-rendering="crispEdges" points="842.485,458.229 771.711,435.491 838.358,373.282"/>
<polygon fill="#e41a1c" fill-opacity="0.298039" shape-rendering="crispEdges" points="1079.4,518.262 1133.81,551.292 1145.36,429.625"/>
<text fill="#000000" x="991.278" y="444.749" font-size="9" text-anchor="start" dy="0" font-family="Helvetica">AL417-1d_ULM2</text>
<text fill="#000000" x="961.266" y="530.177" font-size="9" text-anchor="start" dy="0" font-family="Helvetica">KNMER1813_ULM2</text>
<text fill="#000000" x="691.354" y="555.081" font-size="9" text-anchor="start" dy="0" font-family="Helvetica">KNM-ER_1813_ULM1</text>
<polygon fill="#e41a1c" fill-opacity="0.298039" shape-rendering="crispEdges" points="1079.4,518.262 1133.81,551.292 1133.35,600.005"/>
<text fill="#000000" x="754.242" y="489.882" font-size="9" text-anchor="start" dy="0" font-family="Helvetica">DNH_70_ULM1</text>
<text fill="#000000" x="909.919" y="478.693" font-size="9" text-anchor="start" dy="0" font-family="Helvetica">SK_14129A_URM1</text>
<text fill="#000000" x="971.124" y="544.77" font-size="9" text-anchor="start" dy="0" font-family="Helvetica">STW6_ULM3</text>
<polygon fill="#e41a1c" fill-opacity="0.298039" shape-rendering="crispEdges" points="1092.13,440.102 1145.36,429.625 1074.83,272.086"/>
<polygon fill="#e41a1c" fill-opacity="0.298039" shape-rendering="crispEdges" points="918.281,505.327 990.492,353.75 924.6,459.101"/>
<text fill="#000000" x="770.191" y="457.867" font-size="9" text-anchor="start" dy="0" font-family="Helvetica">Prob_DNH_60A_ULM1</text>
<text fill="#000000" x="767.925" y="473.384" font-size="9" text-anchor="start" dy="0" font-family="Helvetica">UW101_445_ULM1</text>
<polygon fill="#e41a1c" fill-opacity="0.298039" shape-rendering="crispEdges" points="956.488,399.019 990.492,353.75 1074.83,272.086"/>
<text fill="#000000" x="893.68" y="435.65" font-size="9" text-anchor="start" dy="0" font-family="Helvetica">TM_1517C_URM2</text>
<polygon fill="#1874cd" fill-opacity="0.298039" shape-rendering="crispEdges" points="980.256,438.516 974.717,427.773 1180.29,240.507"/>
<polygon fill="#4daf4a" fill-opacity="0.298039" shape-rendering="crispEdges" points="893.402,655.235 918.031,658.818 785.365,619.975"/>
<text fill="#000000" x="968.527" y="527.537" font-size="9" text-anchor="start" dy="0" font-family="Helvetica">AL666-1_ULM2</text>
<text fill="#000000" x="1064.21" y="556.493" font-size="9" text-anchor="start" dy="0" font-family="Helvetica">STS_56_ULM2</text>
<text fill="#000000" x="1021.44" y="597.715" font-size="9" text-anchor="start" dy="0" font-family="Helvetica">UW101_1398a_URM3</text>
<polygon fill="#4daf4a" fill-opacity="0.298039" shape-rendering="crispEdges" points="927.495,422.058 932.665,431.365 999.519,473.493"/>
<text fill="#000000" x="1015.63" y="277.287" font-size="9" text-anchor="start" dy="0" font-family="Helvetica">OH16_ULM2</text>
<text fill="#000000" x="839.881" y="510.527" font-size="9" text-anchor="start" dy="0" font-family="Helvetica">STW_183_ULM2</text>
<text fill="#000000" x="996.979" y="269.76" font-size="9" text-anchor="start" dy="0" font-family="Helvetica">UW_105_074_URM</text>
<text fill="#000000" x="966.709" y="421.598" font-size="9" text-anchor="start" dy="0" font-family="Helvetica">DNH_7_URM2</text>
<text fill="#000000" x="962.479" y="485.738" font-size="9" text-anchor="start" dy="0" font-family="Helvetica">OH13_ULM2</text>
<text fill="#000000" x="952.245" y="527.906" font-size="9" text-anchor="start" dy="0" font-family="Helvetica">STW_529_ULM2</text>
<text fill="#000000" x="927.881" y="325.778" font-size="9" text-anchor="start" dy="0" font-family="Helvetica">KNM-WT_17400_URM2</text>
<text fill="#000000" x="696.801" y="480.68" font-size="9" text-anchor="start" dy="0" font-family="Helvetica">Prob_SK_47_URM1</text>
<text fill="#000000" x="1189.2" y="580.485" font-size="9" text-anchor="start" dy="0" font-family="Helvetica">STW189_ULM3</text>
<polygon fill="#1874cd" fill-opacity="0.298039" shape-rendering="crispEdges" points="1192.19,465.162 1262,575.285 1324.77,549.575"/>
<polygon fill="#1874cd" fill-opacity="0.298039" shape-rendering="crispEdges" points="1192.19,465.162 1262,575.285 1059.04,840.916"/>
<polygon fill="#e41a1c" fill-opacity="0.298039" shape-rendering="crispEdges" points="1133.81,551.292 1145.36,429.625 1133.35,600.005"/>
<text fill="#000000" x="1146.12" y="555.818" font-size="9" text-anchor="start" dy="0" font-family="Helvetica">AL486-1_ULM3</text>
<text fill="#000000" x="1086.16" y="434.825" font-size="9" text-anchor="start" dy="0" font-family="Helvetica">OH39_ULM2</text>
<polygon fill="#1874cd" fill-opacity="0.298039" shape-rendering="crispEdges" points="1192.19,465.162 1180.29,240.507 1324.77,549.575"/>
<text fill="#000000" x="975.348" y="509.252" font-size="9" text-anchor="start" dy="0" font-family="Helvetica">STW179_ULM3</text>
<text fill="#000000" x="1032.33" y="338.642" font-size="9" text-anchor="start" dy="0" font-family="Helvetica">SK_13.14_URM3</text>
<text fill="#000000" x="1087.49" y="245.707" font-size="9" text-anchor="start" dy="0" font-family="Helvetica">Prob_DNH_3_ULM3</text>
<text fill="#000000" x="827.284" y="561.129" font-size="9" text-anchor="start" dy="0" font-family="Helvetica">KNM-ER_807_URM1</text>
<polygon fill="#4daf4a" fill-opacity="0.298039" shape-rendering="crispEdges" points="789.601,475.48 826.125,514.783 771.711,435.491"/>
<text fill="#000000" x="1062.15" y="605.206" font-size="9" text-anchor="start" dy="0" font-family="Helvetica">AL486-1_ULM2</text>
<text fill="#000000" x="918.26" y="474.919" font-size="9" text-anchor="start" dy="0" font-family="Helvetica">LH6_URM1</text>
<text fill="#000000" x="916.092" y="358.951" font-size="9" text-anchor="start" dy="0" font-family="Helvetica">SK13.14_URM2</text>
<polygon fill="#e41a1c" fill-opacity="0.298039" shape-rendering="crispEdges" points="918.281,505.327 945.691,535.976 1043.72,607.888"/>
<text fill="#000000" x="795.811" y="445.454" font-size="9" text-anchor="start" dy="0" font-family="Helvetica">UW_105_042_URM1</text>
<polygon fill="#4daf4a" fill-opacity="0.298039" shape-rendering="crispEdges" points="789.601,475.48 792.954,549.881 826.125,514.783"/>
<polygon fill="#e41a1c" fill-opacity="0.298039" shape-rendering="crispEdges" points="945.691,535.976 1043.72,607.888 1133.35,600.005"/>
<text fill="#000000" x="811.116" y="578.926" font-size="9" text-anchor="start" dy="0" font-family="Helvetica">Ased_ULM1</text>
<text fill="#000000" x="910.656" y="443.716" font-size="9" text-anchor="start" dy="0" font-family="Helvetica">SK_105_ULM3</text>
<text fill="#000000" x="952.311" y="518.218" font-size="9" text-anchor="start" dy="0" font-family="Helvetica">Ased_ULM2</text>
<polygon fill="#4daf4a" fill-opacity="0.298039" shape-rendering="crispEdges" points="842.485,458.229 826.125,514.783 771.711,435.491"/>
<text fill="#000000" x="790.455" y="554.782" font-size="9" text-anchor="start" dy="0" font-family="Helvetica">OH24_ULM1</text>
<polygon fill="#1874cd" fill-opacity="0.298039" shape-rendering="crispEdges" points="980.256,438.516 1059.04,840.916 1056.67,406.857"/>
<text fill="#000000" x="843.539" y="556.714" font-size="9" text-anchor="start" dy="0" font-family="Helvetica">STS_8_ULM1</text>
<text fill="#000000" x="803.46" y="533.895" font-size="9" text-anchor="start" dy="0" font-family="Helvetica">OH13_ULM1</text>
<text fill="#000000" x="771.046" y="547.696" font-size="9" text-anchor="start" dy="0" font-family="Helvetica">AL333-86_URM1</text>
<polygon fill="#4daf4a" fill-opacity="0.298039" shape-rendering="crispEdges" points="971.093,633.421 999.519,473.493 918.031,658.818"/>
<polygon fill="#4daf4a" fill-opacity="0.298039" shape-rendering="crispEdges" points="932.665,431.365 838.358,373.282 921.526,484.702"/>
<text fill="#000000" x="942.993" y="530.028" font-size="9" text-anchor="start" dy="0" font-family="Helvetica">STS_37_ULM2</text>
<text fill="#000000" x="847.575" y="564.268" font-size="9" text-anchor="start" dy="0" font-family="Helvetica">OH21_ULM1</text>
<text fill="#000000" x="1031.28" y="573.688" font-size="9" text-anchor="start" dy="0" font-family="Helvetica">Ased_ULM3</text>
<text fill="#000000" x="843.064" y="436.565" font-size="9" text-anchor="start" dy="0" font-family="Helvetica">UW101_708_ULM1</text>
<text fill="#000000" x="838.831" y="664.018" font-size="9" text-anchor="start" dy="0" font-family="Helvetica">TAUNG_1_ULM1</text>
<polygon fill="#4daf4a" fill-opacity="0.298039" shape-rendering="crispEdges" points="842.485,458.229 838.358,373.282 921.526,484.702"/>
<text fill="#000000" x="1148.38" y="490.733" font-size="9" text-anchor="start" dy="0" font-family="Helvetica">STW252H_URM3</text>
<text fill="#000000" x="707.452" y="516.563" font-size="9" text-anchor="start" dy="0" font-family="Helvetica">KNM-ER_1590K_ULM1</text>
<text fill="#000000" x="799.342" y="597.089" font-size="9" text-anchor="start" dy="0" font-family="Helvetica">STW_402_URM1</text>
<polygon fill="#4daf4a" fill-opacity="0.298039" shape-rendering="crispEdges" points="893.402,655.235 892.486,637.611 792.954,549.881"/>
<text fill="#000000" x="889.217" y="518.354" font-size="9" text-anchor="start" dy="0" font-family="Helvetica">AL486-1_ULM1</text>
<polygon fill="#4daf4a" fill-opacity="0.298039" shape-rendering="crispEdges" points="892.486,637.611 792.954,549.881 826.125,514.783"/>
<polygon fill="#e41a1c" fill-opacity="0.298039" shape-rendering="crispEdges" points="1145.36,429.625 1074.83,272.086 1055.44,458.676"/>
<text fill="#000000" x="896.168" y="519.747" font-size="9" text-anchor="start" dy="0" font-family="Helvetica">AL200-1a_URM2</text>
<text fill="#000000" x="818.367" y="577.944" font-size="9" text-anchor="start" dy="0" font-family="Helvetica">STW183_ULM1</text>
<text fill="#000000" x="809.979" y="485.353" font-size="9" text-anchor="start" dy="0" font-family="Helvetica">STW_450_URM1</text>
<polygon fill="#e41a1c" fill-opacity="0.298039" shape-rendering="crispEdges" points="990.492,353.75 1074.83,272.086 1055.44,458.676"/>
<polygon fill="#e41a1c" fill-opacity="0.298039" shape-rendering="crispEdges" points="918.281,505.327 990.492,353.75 1055.44,458.676"/>
<polygon fill="#4daf4a" fill-opacity="0.298039" shape-rendering="crispEdges" points="971.093,633.421 986.316,613.792 999.519,473.493"/>
<polygon fill="#e41a1c" fill-opacity="0.298039" shape-rendering="crispEdges" points="1145.36,429.625 1133.35,600.005 1055.44,458.676"/>
<polygon fill="#1874cd" fill-opacity="0.298039" shape-rendering="crispEdges" points="1192.19,465.162 1059.04,840.916 1056.67,406.857"/>
<text fill="#000000" x="972.056" y="470.392" font-size="9" text-anchor="start" dy="0" font-family="Helvetica">STS_52a_ULM2</text>
<polygon fill="#4daf4a" fill-opacity="0.298039" shape-rendering="crispEdges" points="932.665,431.365 999.519,473.493 921.526,484.702"/>
<text fill="#000000" x="1115.66" y="426.091" font-size="9" text-anchor="start" dy="0" font-family="Helvetica">AL200-1a_URM3</text>
<text fill="#000000" x="772.885" y="463.429" font-size="9" text-anchor="start" dy="0" font-family="Helvetica">SK_829_ULM1</text>
<polygon fill="#e41a1c" fill-opacity="0.298039" shape-rendering="crispEdges" points="1003.35,507.575 918.281,505.327 1043.72,607.888"/>
<text fill="#000000" x="877.555" y="571.053" font-size="9" text-anchor="start" dy="0" font-family="Helvetica">STS_1_ULM1</text>
<text fill="#000000" x="755.549" y="465.202" font-size="9" text-anchor="start" dy="0" font-family="Helvetica">Prob_SK829_ULM1</text>
<text fill="#000000" x="1038.2" y="485.509" font-size="9" text-anchor="start" dy="0" font-family="Helvetica">STS_8_ULM2</text>
<polygon fill="#4daf4a" fill-opacity="0.298039" shape-rendering="crispEdges" points="893.402,655.235 971.093,633.421 918.031,658.818"/>
<polygon fill="#1874cd" fill-opacity="0.298039" shape-rendering="crispEdges" points="980.256,438.516 1180.29,240.507 1056.67,406.857"/>
<text fill="#000000" x="816.603" y="660.436" font-size="9" text-anchor="start" dy="0" font-family="Helvetica">AL200-1a_ULM1</text>
<polygon fill="#4daf4a" fill-opacity="0.298039" shape-rendering="crispEdges" points="986.316,613.792 999.519,473.493 921.526,484.702"/>
<text fill="#000000" x="802.522" y="551.181" font-size="9" text-anchor="start" dy="0" font-family="Helvetica">OH16_URM1</text>
<text fill="#000000" x="767.726" y="519.983" font-size="9" text-anchor="start" dy="0" font-family="Helvetica">SK27_ULM1</text>
<polygon fill="#e41a1c" fill-opacity="0.298039" shape-rendering="crispEdges" points="1003.35,507.575 918.281,505.327 1055.44,458.676"/>
<text fill="#000000" x="962.524" y="537.159" font-size="9" text-anchor="start" dy="0" font-family="Helvetica">STS_22_ULM2</text>
<polygon fill="#4daf4a" fill-opacity="0.298039" shape-rendering="crispEdges" points="893.402,655.235 892.486,637.611 971.093,633.421"/>
<text fill="#000000" x="901.493" y="638.622" font-size="9" text-anchor="start" dy="0" font-family="Helvetica">STS_56_ULM1</text>
<polygon fill="#e41a1c" fill-opacity="0.298039" shape-rendering="crispEdges" points="1043.72,607.888 1133.35,600.005 1055.44,458.676"/>
<text fill="#000000" x="838.886" y="642.812" font-size="9" text-anchor="start" dy="0" font-family="Helvetica">OH45_ULM</text>
<polygon fill="#4daf4a" fill-opacity="0.298039" shape-rendering="crispEdges" points="892.486,637.611 971.093,633.421 986.316,613.792"/>
<text fill="#000000" x="972.52" y="613.088" font-size="9" text-anchor="start" dy="0" font-family="Helvetica">STS_28_URM2</text>
<polygon fill="#1874cd" fill-opacity="0.298039" shape-rendering="crispEdges" points="1192.19,465.162 1180.29,240.507 1056.67,406.857"/>
<text fill="#000000" x="923.352" y="512.775" font-size="9" text-anchor="start" dy="0" font-family="Helvetica">STW_188_URM2</text>
<text fill="#000000" x="916.716" y="618.993" font-size="9" text-anchor="start" dy="0" font-family="Helvetica">STS_57_ULM1</text>
<polygon fill="#4daf4a" fill-opacity="0.298039" shape-rendering="crispEdges" points="842.485,458.229 826.125,514.783 921.526,484.702"/>
<text fill="#000000" x="951.149" y="534.252" font-size="9" text-anchor="start" dy="0" font-family="Helvetica">STS_30_URM2</text>
<polygon fill="#4daf4a" fill-opacity="0.298039" shape-rendering="crispEdges" points="892.486,637.611 940.725,553.838 986.316,613.792"/>
<text fill="#000000" x="956.505" y="490.115" font-size="9" text-anchor="start" dy="0" font-family="Helvetica">STW_280_ULM2</text>
<text fill="#000000" x="1113.79" y="470.362" font-size="9" text-anchor="start" dy="0" font-family="Helvetica">AL333x-1_URM3</text>
<polygon fill="#4daf4a" fill-opacity="0.298039" shape-rendering="crispEdges" points="892.486,637.611 826.125,514.783 921.526,484.702"/>
<polygon fill="#e41a1c" fill-opacity="0.298039" shape-rendering="crispEdges" points="1003.35,507.575 1043.72,607.888 1055.44,458.676"/>
<polygon fill="#4daf4a" fill-opacity="0.298039" shape-rendering="crispEdges" points="892.486,637.611 940.725,553.838 921.526,484.702"/>
<text fill="#000000" x="869.525" y="559.038" font-size="9" text-anchor="start" dy="0" font-family="Helvetica">STS_24_URM1</text>
<polygon fill="#4daf4a" fill-opacity="0.298039" shape-rendering="crispEdges" points="940.725,553.838 986.316,613.792 921.526,484.702"/>
<text fill="#000000" x="974.645" y="463.876" font-size="9" text-anchor="start" dy="0" font-family="Helvetica">STW_252I_ULM2</text>
<text fill="#000000" x="843.926" y="489.902" font-size="9" text-anchor="start" dy="0" font-family="Helvetica">STW252J_ULM1</text>
<text fill="#000000" x="952.665" y="412.058" font-size="9" text-anchor="start" dy="0" font-family="Helvetica">Prob_SK_831A_ULM3</text>
</g>
</svg>
