<?xml version="1.0" encoding="UTF-8" standalone="no"?>
<svg xmlns="http://www.w3.org/2000/svg"
     xmlns:xlink="http://www.w3.org/1999/xlink"
     width="2048pt" height="1081pt" viewBox="0 0 2048 1081">
<title>D:/3D_GM/Projects/UW105/Results/Tooth_type_classifications/UW105_074/3D_PCA_clean_robustus.svg</title>
<desc>
Creator: GL2PS 1.4.2, (C) 1999-2020 C. Geuzaine
For: Generated by rgl
CreationDate: Tue Jan 27 15:52:57 2026
</desc>
<defs>
</defs>
<g>
<polygon fill="#ffffff" shape-rendering="crispEdges" points="0,1081 2048,1081 2048,0"/>
<polygon fill="#ffffff" shape-rendering="crispEdges" points="0,1081 2048,0 0,0"/>
<polyline fill="none" stroke="#000000" stroke-width="1" stroke-linecap="butt" stroke-linejoin="miter" points="571.386,200.032 1106.22,218.838"/>
<polyline fill="none" stroke="#000000" stroke-width="1" stroke-linecap="butt" stroke-linejoin="miter" points="1106.22,218.838 1089.74,878.859"/>
<polyline fill="none" stroke="#000000" stroke-width="1" stroke-linecap="butt" stroke-linejoin="miter" points="1089.74,878.859 554.911,860.053"/>
<polyline fill="none" stroke="#000000" stroke-width="1" stroke-linecap="butt" stroke-linejoin="miter" points="554.911,860.053 571.386,200.032"/>
<polyline fill="none" stroke="#000000" stroke-width="1" stroke-linecap="butt" stroke-linejoin="miter" points="1106.22,218.838 1493.09,220.947"/>
<polyline fill="none" stroke="#000000" stroke-width="1" stroke-linecap="butt" stroke-linejoin="miter" points="1493.09,220.947 1476.61,880.968"/>
<polyline fill="none" stroke="#000000" stroke-width="1" stroke-linecap="butt" stroke-linejoin="miter" points="1476.61,880.968 1089.74,878.859"/>
<polyline fill="none" stroke="#000000" stroke-width="1" stroke-linecap="butt" stroke-linejoin="miter" points="1089.74,878.859 1106.22,218.838"/>
<polyline fill="none" stroke="#000000" stroke-width="1" stroke-linecap="butt" stroke-linejoin="miter" points="958.258,202.141 1493.09,220.947 1106.22,218.838 571.386,200.032 958.258,202.141"/>
<polyline fill="none" stroke="#000000" stroke-width="1" stroke-linecap="butt" stroke-linejoin="miter" points="962.437,202.288 988.229,202.429"/>
<text fill="#000000" x="1013.96" y="208.569" font-size="12" text-anchor="start" dy="0" font-family="Helvetica">-0.1</text>
<polyline fill="none" stroke="#000000" stroke-width="1" stroke-linecap="butt" stroke-linejoin="miter" points="1071.69,206.129 1097.48,206.27"/>
<text fill="#000000" x="1123.19" y="212.411" font-size="12" text-anchor="start" dy="0" font-family="Helvetica">-0.05</text>
<polyline fill="none" stroke="#000000" stroke-width="1" stroke-linecap="butt" stroke-linejoin="miter" points="1180.93,209.971 1206.72,210.112"/>
<text fill="#000000" x="1232.5" y="216.252" font-size="12" text-anchor="start" dy="0" font-family="Helvetica">0</text>
<polyline fill="none" stroke="#000000" stroke-width="1" stroke-linecap="butt" stroke-linejoin="miter" points="1290.18,213.813 1315.97,213.953"/>
<text fill="#000000" x="1341.7" y="220.094" font-size="12" text-anchor="start" dy="0" font-family="Helvetica">0.05</text>
<polyline fill="none" stroke="#000000" stroke-width="1" stroke-linecap="butt" stroke-linejoin="miter" points="1399.43,217.654 1425.22,217.794"/>
<text fill="#000000" x="1450.96" y="223.935" font-size="12" text-anchor="start" dy="0" font-family="Helvetica">0.1</text>
<polyline fill="none" stroke="#000000" stroke-width="1" stroke-linecap="butt" stroke-linejoin="miter" points="1491.03,303.486 1516.82,303.627"/>
<text fill="#000000" x="1542.55" y="309.768" font-size="12" text-anchor="start" dy="0" font-family="Helvetica">-0.1</text>
<polyline fill="none" stroke="#000000" stroke-width="1" stroke-linecap="butt" stroke-linejoin="miter" points="1487.54,443.156 1513.33,443.297"/>
<text fill="#000000" x="1539.05" y="449.438" font-size="12" text-anchor="start" dy="0" font-family="Helvetica">-0.05</text>
<polyline fill="none" stroke="#000000" stroke-width="1" stroke-linecap="butt" stroke-linejoin="miter" points="1484.06,582.826 1509.85,582.967"/>
<text fill="#000000" x="1535.62" y="589.107" font-size="12" text-anchor="start" dy="0" font-family="Helvetica">0</text>
<polyline fill="none" stroke="#000000" stroke-width="1" stroke-linecap="butt" stroke-linejoin="miter" points="1480.57,722.496 1506.36,722.637"/>
<text fill="#000000" x="1532.08" y="728.777" font-size="12" text-anchor="start" dy="0" font-family="Helvetica">0.05</text>
<polyline fill="none" stroke="#000000" stroke-width="1" stroke-linecap="butt" stroke-linejoin="miter" points="1477.08,862.166 1502.87,862.307"/>
<text fill="#000000" x="1528.62" y="868.447" font-size="12" text-anchor="start" dy="0" font-family="Helvetica">0.1</text>
<polyline fill="none" stroke="#000000" stroke-width="1" stroke-linecap="butt" stroke-linejoin="miter" points="875.194,201.688 839.539,200.435"/>
<text fill="#000000" x="775.589" y="205.181" font-size="12" text-anchor="start" dy="0" font-family="Helvetica">-0.05</text>
<polyline fill="none" stroke="#000000" stroke-width="1" stroke-linecap="butt" stroke-linejoin="miter" points="761.851,201.07 726.195,199.816"/>
<text fill="#000000" x="683.467" y="204.563" font-size="12" text-anchor="start" dy="0" font-family="Helvetica">0</text>
<polyline fill="none" stroke="#000000" stroke-width="1" stroke-linecap="butt" stroke-linejoin="miter" points="648.508,200.452 612.852,199.199"/>
<text fill="#000000" x="552.833" y="203.945" font-size="12" text-anchor="start" dy="0" font-family="Helvetica">0.05</text>
<polyline fill="none" stroke="#000000" stroke-width="1" stroke-linecap="butt" stroke-linejoin="miter" points="958.258,202.141 958.258,202.141"/>
<polyline fill="none" stroke="#000000" stroke-width="1" stroke-linecap="butt" stroke-linejoin="miter" points="1089.74,878.859 1089.74,878.859"/>
<circle fill="#4daf4a" cx="843.868" cy="730.94" r="5"/>
<circle fill="#4daf4a" cx="826.237" cy="654.021" r="5"/>
<circle fill="#4daf4a" cx="911.118" cy="602.046" r="5"/>
<circle fill="#4daf4a" cx="768.754" cy="585.909" r="5"/>
<circle fill="#4daf4a" cx="841.988" cy="642.542" r="5"/>
<circle fill="#4daf4a" cx="846.738" cy="587.284" r="5"/>
<circle fill="#4daf4a" cx="814.685" cy="617.057" r="5"/>
<circle fill="#4daf4a" cx="890.778" cy="648.065" r="5"/>
<circle fill="#4daf4a" cx="832.621" cy="650.304" r="5"/>
<circle fill="#4daf4a" cx="913.93" cy="689.358" r="5"/>
<circle fill="#4daf4a" cx="925.351" cy="841.935" r="5"/>
<circle fill="#4daf4a" cx="870.664" cy="555.732" r="5"/>
<circle fill="#4daf4a" cx="763.354" cy="586.067" r="5"/>
<circle fill="#4daf4a" cx="871.336" cy="567.601" r="5"/>
<circle fill="#4daf4a" cx="963.791" cy="591.241" r="5"/>
<circle fill="#4daf4a" cx="904.752" cy="602.324" r="5"/>
<circle fill="#e41a1c" cx="1005.75" cy="505.769" r="5"/>
<circle fill="#e41a1c" cx="916.025" cy="569.115" r="5"/>
<circle fill="#e41a1c" cx="923.043" cy="495.829" r="5"/>
<circle fill="#e41a1c" cx="939.162" cy="510.176" r="5"/>
<circle fill="#e41a1c" cx="901.993" cy="423.765" r="5"/>
<circle fill="#e41a1c" cx="1084.15" cy="515.409" r="5"/>
<circle fill="#e41a1c" cx="967.212" cy="665.971" r="5"/>
<circle fill="#e41a1c" cx="954.135" cy="526.023" r="5"/>
<circle fill="#e41a1c" cx="1144.1" cy="610.295" r="5"/>
<circle fill="#e41a1c" cx="954.411" cy="585.871" r="5"/>
<circle fill="#e41a1c" cx="954.903" cy="547.967" r="5"/>
<circle fill="#e41a1c" cx="961.639" cy="532.556" r="5"/>
<circle fill="#1874cd" cx="1106.82" cy="745.256" r="5"/>
<circle fill="#1874cd" cx="938.908" cy="243.214" r="5"/>
<circle fill="#1874cd" cx="1090.06" cy="517.303" r="5"/>
<circle fill="#1874cd" cx="1130.28" cy="566.765" r="5"/>
<circle fill="#1874cd" cx="1073.45" cy="557.22" r="5"/>
<circle fill="#1874cd" cx="998.479" cy="407.407" r="5"/>
<circle fill="#1874cd" cx="1126.68" cy="567.236" r="5"/>
<circle fill="#1874cd" cx="1109.33" cy="583.205" r="5"/>
<circle fill="#1874cd" cx="1010.92" cy="549.427" r="5"/>
<circle fill="#1874cd" cx="1096.96" cy="541.593" r="5"/>
<circle fill="#1874cd" cx="1083.89" cy="362.207" r="5"/>
<circle fill="#1874cd" cx="1144.1" cy="610.295" r="5"/>
<circle fill="#1874cd" cx="1054.45" cy="541.18" r="5"/>
<circle fill="#1874cd" cx="1333" cy="708.557" r="5"/>
<circle fill="#1874cd" cx="1291.6" cy="662.103" r="5"/>
<circle fill="#4daf4a" cx="880.142" cy="564.214" r="5"/>
<circle fill="#000000" cx="931.609" cy="316.693" r="5"/>
<text fill="#000000" x="1293.54" y="174.105" font-size="12" text-anchor="start" dy="0" font-family="Helvetica">PC1 (34.5%)</text>
<text fill="#000000" x="1587.27" y="558.774" font-size="12" text-anchor="start" dy="0" font-family="Helvetica">PC2 (19.3%)</text>
<text fill="#000000" x="590.499" y="158.07" font-size="12" text-anchor="start" dy="0" font-family="Helvetica">PC3 (9.7%)</text>
<polygon fill="#1874cd" fill-opacity="0.298039" shape-rendering="crispEdges" points="1073.45,557.22 938.908,243.214 1291.6,662.103"/>
<polygon fill="#1874cd" fill-opacity="0.298039" shape-rendering="crispEdges" points="1109.33,583.205 1073.45,557.22 1291.6,662.103"/>
<polygon fill="#1874cd" fill-opacity="0.298039" shape-rendering="crispEdges" points="1073.45,557.22 1106.82,745.256 938.908,243.214"/>
<polygon fill="#1874cd" fill-opacity="0.298039" shape-rendering="crispEdges" points="1109.33,583.205 1073.45,557.22 1106.82,745.256"/>
<polygon fill="#1874cd" fill-opacity="0.298039" shape-rendering="crispEdges" points="1109.33,583.205 1106.82,745.256 1291.6,662.103"/>
<polygon fill="#e41a1c" fill-opacity="0.298039" shape-rendering="crispEdges" points="1084.15,515.409 1144.1,610.295 916.025,569.115"/>
<polygon fill="#e41a1c" fill-opacity="0.298039" shape-rendering="crispEdges" points="1144.1,610.295 967.212,665.971 916.025,569.115"/>
<polygon fill="#e41a1c" fill-opacity="0.298039" shape-rendering="crispEdges" points="1084.15,515.409 916.025,569.115 901.993,423.765"/>
<polygon fill="#e41a1c" fill-opacity="0.298039" shape-rendering="crispEdges" points="967.212,665.971 916.025,569.115 901.993,423.765"/>
<polygon fill="#1874cd" fill-opacity="0.298039" shape-rendering="crispEdges" points="1010.92,549.427 1106.82,745.256 938.908,243.214"/>
<polygon fill="#1874cd" fill-opacity="0.298039" shape-rendering="crispEdges" points="1333,708.557 1106.82,745.256 1291.6,662.103"/>
<polygon fill="#1874cd" fill-opacity="0.298039" shape-rendering="crispEdges" points="1083.89,362.207 938.908,243.214 1291.6,662.103"/>
<polygon fill="#4daf4a" fill-opacity="0.298039" shape-rendering="crispEdges" points="871.336,567.601 843.868,730.94 925.351,841.935"/>
<polygon fill="#4daf4a" fill-opacity="0.298039" shape-rendering="crispEdges" points="871.336,567.601 963.791,591.241 925.351,841.935"/>
<polygon fill="#1874cd" fill-opacity="0.298039" shape-rendering="crispEdges" points="1333,708.557 1083.89,362.207 1291.6,662.103"/>
<polygon fill="#4daf4a" fill-opacity="0.298039" shape-rendering="crispEdges" points="871.336,567.601 963.791,591.241 870.664,555.732"/>
<polygon fill="#4daf4a" fill-opacity="0.298039" shape-rendering="crispEdges" points="871.336,567.601 763.354,586.067 843.868,730.94"/>
<polygon fill="#4daf4a" fill-opacity="0.298039" shape-rendering="crispEdges" points="911.118,602.046 963.791,591.241 925.351,841.935"/>
<polygon fill="#4daf4a" fill-opacity="0.298039" shape-rendering="crispEdges" points="871.336,567.601 763.354,586.067 870.664,555.732"/>
<polygon fill="#e41a1c" fill-opacity="0.298039" shape-rendering="crispEdges" points="961.639,532.556 967.212,665.971 901.993,423.765"/>
<polygon fill="#e41a1c" fill-opacity="0.298039" shape-rendering="crispEdges" points="1005.75,505.769 1084.15,515.409 1144.1,610.295"/>
<polygon fill="#e41a1c" fill-opacity="0.298039" shape-rendering="crispEdges" points="1005.75,505.769 1144.1,610.295 967.212,665.971"/>
<polygon fill="#e41a1c" fill-opacity="0.298039" shape-rendering="crispEdges" points="1005.75,505.769 1084.15,515.409 901.993,423.765"/>
<polygon fill="#e41a1c" fill-opacity="0.298039" shape-rendering="crispEdges" points="961.639,532.556 1005.75,505.769 967.212,665.971"/>
<polygon fill="#4daf4a" fill-opacity="0.298039" shape-rendering="crispEdges" points="880.142,564.214 963.791,591.241 870.664,555.732"/>
<polygon fill="#e41a1c" fill-opacity="0.298039" shape-rendering="crispEdges" points="961.639,532.556 1005.75,505.769 901.993,423.765"/>
<polygon fill="#4daf4a" fill-opacity="0.298039" shape-rendering="crispEdges" points="843.868,730.94 925.351,841.935 832.621,650.304"/>
<polygon fill="#1874cd" fill-opacity="0.298039" shape-rendering="crispEdges" points="1333,708.557 1054.45,541.18 1106.82,745.256"/>
<polygon fill="#1874cd" fill-opacity="0.298039" shape-rendering="crispEdges" points="1010.92,549.427 938.908,243.214 998.479,407.407"/>
<polygon fill="#4daf4a" fill-opacity="0.298039" shape-rendering="crispEdges" points="911.118,602.046 880.142,564.214 963.791,591.241"/>
<polygon fill="#4daf4a" fill-opacity="0.298039" shape-rendering="crispEdges" points="880.142,564.214 763.354,586.067 870.664,555.732"/>
<polygon fill="#4daf4a" fill-opacity="0.298039" shape-rendering="crispEdges" points="911.118,602.046 925.351,841.935 832.621,650.304"/>
<polygon fill="#1874cd" fill-opacity="0.298039" shape-rendering="crispEdges" points="1083.89,362.207 938.908,243.214 998.479,407.407"/>
<polygon fill="#4daf4a" fill-opacity="0.298039" shape-rendering="crispEdges" points="763.354,586.067 843.868,730.94 832.621,650.304"/>
<polygon fill="#1874cd" fill-opacity="0.298039" shape-rendering="crispEdges" points="1010.92,549.427 1106.82,745.256 998.479,407.407"/>
<polygon fill="#4daf4a" fill-opacity="0.298039" shape-rendering="crispEdges" points="880.142,564.214 768.754,585.909 763.354,586.067"/>
<polygon fill="#1874cd" fill-opacity="0.298039" shape-rendering="crispEdges" points="1333,708.557 1083.89,362.207 998.479,407.407"/>
<polygon fill="#4daf4a" fill-opacity="0.298039" shape-rendering="crispEdges" points="768.754,585.909 763.354,586.067 832.621,650.304"/>
<polygon fill="#4daf4a" fill-opacity="0.298039" shape-rendering="crispEdges" points="880.142,564.214 768.754,585.909 832.621,650.304"/>
<polygon fill="#4daf4a" fill-opacity="0.298039" shape-rendering="crispEdges" points="911.118,602.046 880.142,564.214 832.621,650.304"/>
<polygon fill="#1874cd" fill-opacity="0.298039" shape-rendering="crispEdges" points="1054.45,541.18 1106.82,745.256 998.479,407.407"/>
<polygon fill="#1874cd" fill-opacity="0.298039" shape-rendering="crispEdges" points="1333,708.557 1054.45,541.18 998.479,407.407"/>
</g>
</svg>
