<?xml version="1.0" encoding="UTF-8" standalone="no"?>
<svg xmlns="http://www.w3.org/2000/svg"
     xmlns:xlink="http://www.w3.org/1999/xlink"
     width="2048pt" height="1081pt" viewBox="0 0 2048 1081">
<title>D:/3D_GM/Projects/UW105/Results/Taxonomic_assessment/UW105-076/3D_PCA_labelled_updated_V2.svg</title>
<desc>
Creator: GL2PS 1.4.2, (C) 1999-2020 C. Geuzaine
For: Generated by rgl
CreationDate: Thu Jan 29 14:20:09 2026
</desc>
<defs>
</defs>
<g>
<polygon fill="#ffffff" shape-rendering="crispEdges" points="0,1081 2048,1081 2048,0"/>
<polygon fill="#ffffff" shape-rendering="crispEdges" points="0,1081 2048,0 0,0"/>
<polyline fill="none" stroke="#000000" stroke-width="1" stroke-linecap="butt" stroke-linejoin="miter" points="635.003,826.479 1024.13,649.16"/>
<polyline fill="none" stroke="#000000" stroke-width="1" stroke-linecap="butt" stroke-linejoin="miter" points="1024.13,649.16 1440.27,780.493"/>
<polyline fill="none" stroke="#000000" stroke-width="1" stroke-linecap="butt" stroke-linejoin="miter" points="1440.27,780.493 1051.15,957.812"/>
<polyline fill="none" stroke="#000000" stroke-width="1" stroke-linecap="butt" stroke-linejoin="miter" points="1051.15,957.812 635.003,826.479"/>
<polyline fill="none" stroke="#000000" stroke-width="1" stroke-linecap="butt" stroke-linejoin="miter" points="607.729,300.507 996.851,123.188"/>
<polyline fill="none" stroke="#000000" stroke-width="1" stroke-linecap="butt" stroke-linejoin="miter" points="996.851,123.188 1024.13,649.16"/>
<polyline fill="none" stroke="#000000" stroke-width="1" stroke-linecap="butt" stroke-linejoin="miter" points="1024.13,649.16 635.003,826.479"/>
<polyline fill="none" stroke="#000000" stroke-width="1" stroke-linecap="butt" stroke-linejoin="miter" points="635.003,826.479 607.729,300.507"/>
<polyline fill="none" stroke="#000000" stroke-width="1" stroke-linecap="butt" stroke-linejoin="miter" points="996.851,123.188 1413,254.521"/>
<polyline fill="none" stroke="#000000" stroke-width="1" stroke-linecap="butt" stroke-linejoin="miter" points="1413,254.521 1440.27,780.493"/>
<polyline fill="none" stroke="#000000" stroke-width="1" stroke-linecap="butt" stroke-linejoin="miter" points="1440.27,780.493 1024.13,649.16"/>
<polyline fill="none" stroke="#000000" stroke-width="1" stroke-linecap="butt" stroke-linejoin="miter" points="1024.13,649.16 996.851,123.188"/>
<polyline fill="none" stroke="#000000" stroke-width="1" stroke-linecap="butt" stroke-linejoin="miter" points="1042.31,137.534 1040.49,102.469"/>
<text fill="#000000" x="1024.27" y="73.4043" font-size="12" text-anchor="start" dy="0" font-family="Helvetica">-0.05</text>
<polyline fill="none" stroke="#000000" stroke-width="1" stroke-linecap="butt" stroke-linejoin="miter" points="1163.68,175.838 1161.86,140.773"/>
<text fill="#000000" x="1156.44" y="111.708" font-size="12" text-anchor="start" dy="0" font-family="Helvetica">0</text>
<polyline fill="none" stroke="#000000" stroke-width="1" stroke-linecap="butt" stroke-linejoin="miter" points="1285.05,214.143 1283.24,179.078"/>
<text fill="#000000" x="1269.02" y="150.013" font-size="12" text-anchor="start" dy="0" font-family="Helvetica">0.05</text>
<polyline fill="none" stroke="#000000" stroke-width="1" stroke-linecap="butt" stroke-linejoin="miter" points="1406.43,252.447 1404.61,217.382"/>
<text fill="#000000" x="1393.99" y="188.317" font-size="12" text-anchor="start" dy="0" font-family="Helvetica">0.1</text>
<polyline fill="none" stroke="#000000" stroke-width="1" stroke-linecap="butt" stroke-linejoin="miter" points="1057.83,954.768 1085.57,963.523"/>
<text fill="#000000" x="1108.77" y="978.279" font-size="12" text-anchor="start" dy="0" font-family="Helvetica">-0.05</text>
<polyline fill="none" stroke="#000000" stroke-width="1" stroke-linecap="butt" stroke-linejoin="miter" points="1190.38,894.364 1218.13,903.119"/>
<text fill="#000000" x="1244.73" y="917.875" font-size="12" text-anchor="start" dy="0" font-family="Helvetica">0</text>
<polyline fill="none" stroke="#000000" stroke-width="1" stroke-linecap="butt" stroke-linejoin="miter" points="1322.94,833.959 1350.68,842.715"/>
<text fill="#000000" x="1374.51" y="857.471" font-size="12" text-anchor="start" dy="0" font-family="Helvetica">0.05</text>
<polyline fill="none" stroke="#000000" stroke-width="1" stroke-linecap="butt" stroke-linejoin="miter" points="1438.78,751.708 1466.52,760.463"/>
<text fill="#000000" x="1489.72" y="775.219" font-size="12" text-anchor="start" dy="0" font-family="Helvetica">-0.05</text>
<polyline fill="none" stroke="#000000" stroke-width="1" stroke-linecap="butt" stroke-linejoin="miter" points="1430.3,588.148 1458.04,596.904"/>
<text fill="#000000" x="1484.65" y="611.659" font-size="12" text-anchor="start" dy="0" font-family="Helvetica">0</text>
<polyline fill="none" stroke="#000000" stroke-width="1" stroke-linecap="butt" stroke-linejoin="miter" points="1421.82,424.589 1449.56,433.344"/>
<text fill="#000000" x="1473.39" y="448.1" font-size="12" text-anchor="start" dy="0" font-family="Helvetica">0.05</text>
<polyline fill="none" stroke="#000000" stroke-width="1" stroke-linecap="butt" stroke-linejoin="miter" points="1413.33,261.029 1441.08,269.785"/>
<text fill="#000000" x="1466.04" y="284.54" font-size="12" text-anchor="start" dy="0" font-family="Helvetica">0.1</text>
<polyline fill="none" stroke="#000000" stroke-width="1" stroke-linecap="butt" stroke-linejoin="miter" points="635.003,826.479 635.003,826.479"/>
<polyline fill="none" stroke="#000000" stroke-width="1" stroke-linecap="butt" stroke-linejoin="miter" points="1413,254.521 1413,254.521"/>
<polyline fill="none" stroke="#cd661d" stroke-width="1" stroke-linecap="butt" stroke-linejoin="miter" points="747.99,657.789 935.727,608.592"/>
<circle fill="#e41a1c" cx="678.594" cy="578.574" r="5"/>
<circle fill="#e41a1c" cx="752.911" cy="640.759" r="5"/>
<circle fill="#4daf4a" cx="1040.99" cy="684.026" r="5"/>
<circle fill="#8b864e" cx="857.903" cy="815.275" r="5"/>
<circle fill="#8b8878" cx="708.164" cy="697.978" r="5"/>
<circle fill="#e41a1c" cx="920.359" cy="510.198" r="5"/>
<circle fill="#e41a1c" cx="1026.15" cy="645.366" r="5"/>
<circle fill="#4daf4a" cx="1057.88" cy="513.356" r="5"/>
<circle fill="#1874cd" cx="1240.82" cy="607.24" r="5"/>
<circle fill="#1874cd" cx="981.586" cy="677.542" r="5"/>
<circle fill="#1874cd" cx="1057.56" cy="662.861" r="5"/>
<circle fill="#1874cd" cx="1131.3" cy="711.386" r="5"/>
<circle fill="#1874cd" cx="1083.83" cy="671.038" r="5"/>
<circle fill="#cd661d" cx="747.99" cy="657.789" r="5"/>
<circle fill="#cd661d" cx="935.727" cy="608.592" r="5"/>
<circle fill="#4daf4a" cx="780.918" cy="649.478" r="5"/>
<circle fill="#000000" cx="825.919" cy="265.265" r="5"/>
<text fill="#000000" x="1187.19" y="42.7739" font-size="12" text-anchor="start" dy="0" font-family="Helvetica">PC1 (39.3%)</text>
<text fill="#000000" x="1322.1" y="945.239" font-size="12" text-anchor="start" dy="0" font-family="Helvetica">PC2 (17.6%)</text>
<text fill="#000000" x="1527.15" y="546.708" font-size="12" text-anchor="start" dy="0" font-family="Helvetica">PC3 (12.3%)</text>
<text fill="#000000" x="967.479" y="518.556" font-size="9" text-anchor="start" dy="0" font-family="Helvetica">Omo222-1973-2744</text>
<text fill="#000000" x="857.327" y="613.792" font-size="9" text-anchor="start" dy="0" font-family="Helvetica">STW104_LLDM1</text>
<text fill="#000000" x="965.354" y="650.566" font-size="9" text-anchor="start" dy="0" font-family="Helvetica">LH3l_LRDM1</text>
<text fill="#000000" x="700.918" y="654.678" font-size="9" text-anchor="start" dy="0" font-family="Helvetica">STW151_LRDM1</text>
<text fill="#000000" x="610.564" y="703.178" font-size="9" text-anchor="start" dy="0" font-family="Helvetica">KNM-ER820_LRDM1</text>
<text fill="#000000" x="861.959" y="515.398" font-size="9" text-anchor="start" dy="0" font-family="Helvetica">LH2_LRDM1</text>
<polygon fill="#e41a1c" fill-opacity="0.298039" shape-rendering="crispEdges" points="920.359,510.198 1026.15,645.366 678.594,578.574"/>
<polygon fill="#e41a1c" fill-opacity="0.298039" shape-rendering="crispEdges" points="920.359,510.198 752.911,640.759 1026.15,645.366"/>
<text fill="#000000" x="729.103" y="820.476" font-size="9" text-anchor="start" dy="0" font-family="Helvetica">Hnal_UW101_1685_LRDM1</text>
<text fill="#000000" x="731.519" y="270.465" font-size="9" text-anchor="start" dy="0" font-family="Helvetica">UW105-076_LRDM1</text>
<text fill="#000000" x="678.39" y="662.989" font-size="9" text-anchor="start" dy="0" font-family="Helvetica">STS24_LLDM1</text>
<polygon fill="#e41a1c" fill-opacity="0.298039" shape-rendering="crispEdges" points="752.911,640.759 1026.15,645.366 678.594,578.574"/>
<text fill="#000000" x="871.986" y="682.742" font-size="9" text-anchor="start" dy="0" font-family="Helvetica">Prob_TM1601a_LRDM1</text>
<polygon fill="#e41a1c" fill-opacity="0.298039" shape-rendering="crispEdges" points="920.359,510.198 752.911,640.759 678.594,578.574"/>
<polygon fill="#1874cd" fill-opacity="0.298039" shape-rendering="crispEdges" points="1083.83,671.038 1240.82,607.24 981.586,677.542"/>
<text fill="#000000" x="1008.63" y="676.238" font-size="9" text-anchor="start" dy="0" font-family="Helvetica">SK3978_LLDM1</text>
<text fill="#000000" x="596.194" y="583.774" font-size="9" text-anchor="start" dy="0" font-family="Helvetica">AL333-43b_LRM1</text>
<text fill="#000000" x="1148.02" y="612.44" font-size="9" text-anchor="start" dy="0" font-family="Helvetica">Prob_SK64_LRDM1</text>
<text fill="#000000" x="670.511" y="645.959" font-size="9" text-anchor="start" dy="0" font-family="Helvetica">AL1030-1_LLDM1</text>
<polygon fill="#1874cd" fill-opacity="0.298039" shape-rendering="crispEdges" points="1083.83,671.038 1131.3,711.386 981.586,677.542"/>
<polygon fill="#1874cd" fill-opacity="0.298039" shape-rendering="crispEdges" points="1083.83,671.038 1240.82,607.24 1131.3,711.386"/>
<polygon fill="#1874cd" fill-opacity="0.298039" shape-rendering="crispEdges" points="1057.56,662.861 1240.82,607.24 981.586,677.542"/>
<polygon fill="#1874cd" fill-opacity="0.298039" shape-rendering="crispEdges" points="1057.56,662.861 1131.3,711.386 981.586,677.542"/>
<polygon fill="#1874cd" fill-opacity="0.298039" shape-rendering="crispEdges" points="1057.56,662.861 1240.82,607.24 1131.3,711.386"/>
<text fill="#000000" x="929.793" y="689.226" font-size="9" text-anchor="start" dy="0" font-family="Helvetica">DNH35_DNH35_LRDM1</text>
<text fill="#000000" x="1065.7" y="716.586" font-size="9" text-anchor="start" dy="0" font-family="Helvetica">SK63_LRDM1</text>
<text fill="#000000" x="991.964" y="668.061" font-size="9" text-anchor="start" dy="0" font-family="Helvetica">SK61_LRDM1</text>
</g>
</svg>
