<?xml version="1.0" encoding="UTF-8" standalone="no"?>
<svg xmlns="http://www.w3.org/2000/svg"
     xmlns:xlink="http://www.w3.org/1999/xlink"
     width="2048pt" height="1081pt" viewBox="0 0 2048 1081">
<title>D:/3D_GM/Projects/UW105/Results/Taxonomic_assessment/UW105_658/3D_PCA_clean_updated.svg</title>
<desc>
Creator: GL2PS 1.4.2, (C) 1999-2020 C. Geuzaine
For: Generated by rgl
CreationDate: Wed Jan 28 12:39:18 2026
</desc>
<defs>
</defs>
<g>
<polygon fill="#ffffff" shape-rendering="crispEdges" points="0,1081 2048,1081 2048,0"/>
<polygon fill="#ffffff" shape-rendering="crispEdges" points="0,1081 2048,0 0,0"/>
<polyline fill="none" stroke="#343434" stroke-width="1" stroke-linecap="butt" stroke-linejoin="miter" points="689.616,200.346 1282.85,124.897"/>
<polyline fill="none" stroke="#555555" stroke-width="1" stroke-linecap="butt" stroke-linejoin="miter" points="1282.85,124.897 1364.78,686.348"/>
<polyline fill="none" stroke="#050505" stroke-width="1" stroke-linecap="butt" stroke-linejoin="miter" points="1364.78,686.348 771.548,761.796"/>
<polyline fill="none" stroke="#030303" stroke-width="1" stroke-linecap="butt" stroke-linejoin="miter" points="771.548,761.796 689.616,200.346"/>
<polyline fill="none" stroke="#000000" stroke-width="1" stroke-linecap="butt" stroke-linejoin="miter" points="689.616,200.346 771.548,761.796 765.155,956.103 683.223,394.652 689.616,200.346"/>
<polyline fill="none" stroke="#000000" stroke-width="1" stroke-linecap="butt" stroke-linejoin="miter" points="771.548,761.796 1364.78,686.348 1358.38,880.654"/>
<polyline fill="none" stroke="#000000" stroke-width="1" stroke-linecap="butt" stroke-linejoin="miter" points="1358.38,880.654 765.155,956.103"/>
<polyline fill="none" stroke="#000000" stroke-width="1" stroke-linecap="butt" stroke-linejoin="miter" points="765.155,956.103 771.548,761.796"/>
<polyline fill="none" stroke="#000000" stroke-width="1" stroke-linecap="butt" stroke-linejoin="miter" points="857.087,944.41 856.661,957.364"/>
<text fill="#000000" x="845.435" y="976.318" font-size="12" text-anchor="start" dy="0" font-family="Helvetica">-0.1</text>
<polyline fill="none" stroke="#000000" stroke-width="1" stroke-linecap="butt" stroke-linejoin="miter" points="973.505,929.604 973.079,942.558"/>
<text fill="#000000" x="958.253" y="961.511" font-size="12" text-anchor="start" dy="0" font-family="Helvetica">-0.05</text>
<polyline fill="none" stroke="#000000" stroke-width="1" stroke-linecap="butt" stroke-linejoin="miter" points="1089.92,914.797 1089.5,927.751"/>
<text fill="#000000" x="1085.47" y="946.705" font-size="12" text-anchor="start" dy="0" font-family="Helvetica">0</text>
<polyline fill="none" stroke="#000000" stroke-width="1" stroke-linecap="butt" stroke-linejoin="miter" points="1206.34,899.991 1205.92,912.945"/>
<text fill="#000000" x="1193.09" y="931.899" font-size="12" text-anchor="start" dy="0" font-family="Helvetica">0.05</text>
<polyline fill="none" stroke="#000000" stroke-width="1" stroke-linecap="butt" stroke-linejoin="miter" points="1322.76,885.185 1322.34,898.139"/>
<text fill="#000000" x="1313.11" y="917.092" font-size="12" text-anchor="start" dy="0" font-family="Helvetica">0.1</text>
<polyline fill="none" stroke="#000000" stroke-width="1" stroke-linecap="butt" stroke-linejoin="miter" points="700.772,514.912 700.346,527.866"/>
<text fill="#000000" x="685.52" y="546.82" font-size="12" text-anchor="start" dy="0" font-family="Helvetica">-0.05</text>
<polyline fill="none" stroke="#000000" stroke-width="1" stroke-linecap="butt" stroke-linejoin="miter" points="721.748,658.651 721.322,671.605"/>
<text fill="#000000" x="717.295" y="690.559" font-size="12" text-anchor="start" dy="0" font-family="Helvetica">0</text>
<polyline fill="none" stroke="#000000" stroke-width="1" stroke-linecap="butt" stroke-linejoin="miter" points="742.724,802.39 742.297,815.344"/>
<text fill="#000000" x="729.471" y="834.297" font-size="12" text-anchor="start" dy="0" font-family="Helvetica">0.05</text>
<polyline fill="none" stroke="#000000" stroke-width="1" stroke-linecap="butt" stroke-linejoin="miter" points="763.699,946.129 763.273,959.083"/>
<text fill="#000000" x="754.047" y="978.037" font-size="12" text-anchor="start" dy="0" font-family="Helvetica">0.1</text>
<polyline fill="none" stroke="#000000" stroke-width="1" stroke-linecap="butt" stroke-linejoin="miter" points="1360.02,830.837 1399.57,825.808"/>
<text fill="#000000" x="1437.29" y="826.777" font-size="12" text-anchor="start" dy="0" font-family="Helvetica">-0.05</text>
<polyline fill="none" stroke="#000000" stroke-width="1" stroke-linecap="butt" stroke-linejoin="miter" points="1362.01,770.377 1401.56,765.348"/>
<text fill="#000000" x="1440.65" y="766.318" font-size="12" text-anchor="start" dy="0" font-family="Helvetica">0</text>
<polyline fill="none" stroke="#000000" stroke-width="1" stroke-linecap="butt" stroke-linejoin="miter" points="1364,709.918 1403.55,704.888"/>
<text fill="#000000" x="1441.52" y="705.858" font-size="12" text-anchor="start" dy="0" font-family="Helvetica">0.05</text>
<polyline fill="none" stroke="#000000" stroke-width="1" stroke-linecap="butt" stroke-linejoin="miter" points="683.223,394.652 683.223,394.652"/>
<polyline fill="none" stroke="#000000" stroke-width="1" stroke-linecap="butt" stroke-linejoin="miter" points="1364.78,686.348 1364.78,686.348"/>
<circle fill="#e41a1c" cx="762.091" cy="591.335" r="5"/>
<circle fill="#e41a1c" cx="829.504" cy="443.586" r="5"/>
<circle fill="#e41a1c" cx="965.843" cy="579.67" r="5"/>
<circle fill="#e41a1c" cx="1033.47" cy="514.62" r="5"/>
<circle fill="#e41a1c" cx="913.472" cy="606.072" r="5"/>
<circle fill="#e41a1c" cx="747.646" cy="358.775" r="5"/>
<circle fill="#e41a1c" cx="1023.5" cy="301.721" r="5"/>
<circle fill="#1874cd" cx="1255.53" cy="507.481" r="5"/>
<circle fill="#1874cd" cx="1316.99" cy="685.811" r="5"/>
<circle fill="#1874cd" cx="1269.49" cy="636.832" r="5"/>
<circle fill="#1874cd" cx="1200.02" cy="574.101" r="5"/>
<circle fill="#4daf4a" cx="973.213" cy="653.392" r="5"/>
<circle fill="#4daf4a" cx="901.743" cy="561.756" r="5"/>
<circle fill="#4daf4a" cx="1062.2" cy="440.761" r="5"/>
<circle fill="#984ea3" cx="1286.37" cy="606.813" r="5"/>
<circle fill="#4daf4a" cx="892.688" cy="316.016" r="5"/>
<circle fill="#4daf4a" cx="1058.63" cy="374.176" r="5"/>
<circle fill="#4daf4a" cx="880.698" cy="804.125" r="5"/>
<circle fill="#4daf4a" cx="1055.1" cy="488.111" r="5"/>
<circle fill="#1874cd" cx="1138.58" cy="504.995" r="5"/>
<circle fill="#1874cd" cx="1073" cy="418.993" r="5"/>
<circle fill="#1874cd" cx="1136.77" cy="501.703" r="5"/>
<circle fill="#1874cd" cx="1272.29" cy="645.433" r="5"/>
<circle fill="#1874cd" cx="1190.21" cy="598.498" r="5"/>
<circle fill="#cd661d" cx="970.534" cy="637.841" r="5"/>
<circle fill="#cd661d" cx="948.803" cy="618.898" r="5"/>
<circle fill="#cd661d" cx="970.875" cy="630.333" r="5"/>
<circle fill="#cd661d" cx="934.031" cy="638.074" r="5"/>
<circle fill="#cd661d" cx="953.005" cy="759.79" r="5"/>
<circle fill="#8b864e" cx="1093.34" cy="392.361" r="5"/>
<circle fill="#8b864e" cx="1088.17" cy="195.955" r="5"/>
<circle fill="#8b864e" cx="1072.8" cy="313.411" r="5"/>
<circle fill="#8b864e" cx="1102.57" cy="420.434" r="5"/>
<circle fill="#8b864e" cx="1125.5" cy="292.742" r="5"/>
<circle fill="#8b864e" cx="1088.17" cy="283.542" r="5"/>
<circle fill="#8b864e" cx="1086.51" cy="307.919" r="5"/>
<circle fill="#000000" cx="1182.04" cy="555.494" r="5"/>
<text fill="#000000" x="1029.13" y="1013.62" font-size="12" text-anchor="start" dy="0" font-family="Helvetica">PC1 (34.1%)</text>
<text fill="#000000" x="646.535" y="738.223" font-size="12" text-anchor="start" dy="0" font-family="Helvetica">PC2 (21.5%)</text>
<text fill="#000000" x="1488.84" y="806.812" font-size="12" text-anchor="start" dy="0" font-family="Helvetica">PC3 (13.3%)</text>
<polygon fill="#cd661d" fill-opacity="0.298039" shape-rendering="crispEdges" points="970.875,630.333 948.803,618.898 970.534,637.841"/>
<polygon fill="#8b864e" fill-opacity="0.298039" shape-rendering="crispEdges" points="1086.51,307.919 1088.17,195.955 1072.8,313.411"/>
<polygon fill="#8b864e" fill-opacity="0.298039" shape-rendering="crispEdges" points="1086.51,307.919 1088.17,195.955 1125.5,292.742"/>
<polygon fill="#cd661d" fill-opacity="0.298039" shape-rendering="crispEdges" points="970.875,630.333 948.803,618.898 953.005,759.79"/>
<polygon fill="#1874cd" fill-opacity="0.298039" shape-rendering="crispEdges" points="1255.53,507.481 1269.49,636.832 1190.21,598.498"/>
<polygon fill="#cd661d" fill-opacity="0.298039" shape-rendering="crispEdges" points="948.803,618.898 970.534,637.841 934.031,638.074"/>
<polygon fill="#4daf4a" fill-opacity="0.298039" shape-rendering="crispEdges" points="973.213,653.392 1055.1,488.111 880.698,804.125"/>
<polygon fill="#1874cd" fill-opacity="0.298039" shape-rendering="crispEdges" points="1269.49,636.832 1190.21,598.498 1316.99,685.811"/>
<polygon fill="#8b864e" fill-opacity="0.298039" shape-rendering="crispEdges" points="1086.51,307.919 1102.57,420.434 1072.8,313.411"/>
<polygon fill="#8b864e" fill-opacity="0.298039" shape-rendering="crispEdges" points="1086.51,307.919 1102.57,420.434 1125.5,292.742"/>
<polygon fill="#4daf4a" fill-opacity="0.298039" shape-rendering="crispEdges" points="1055.1,488.111 892.688,316.016 880.698,804.125"/>
<polygon fill="#cd661d" fill-opacity="0.298039" shape-rendering="crispEdges" points="948.803,618.898 953.005,759.79 934.031,638.074"/>
<polygon fill="#8b864e" fill-opacity="0.298039" shape-rendering="crispEdges" points="1093.34,392.361 1088.17,195.955 1072.8,313.411"/>
<polygon fill="#8b864e" fill-opacity="0.298039" shape-rendering="crispEdges" points="1102.57,420.434 1088.17,195.955 1125.5,292.742"/>
<polygon fill="#4daf4a" fill-opacity="0.298039" shape-rendering="crispEdges" points="1062.2,440.761 1055.1,488.111 892.688,316.016"/>
<polygon fill="#e41a1c" fill-opacity="0.298039" shape-rendering="crispEdges" points="965.843,579.67 1023.5,301.721 762.091,591.335"/>
<polygon fill="#e41a1c" fill-opacity="0.298039" shape-rendering="crispEdges" points="965.843,579.67 1033.47,514.62 1023.5,301.721"/>
<polygon fill="#cd661d" fill-opacity="0.298039" shape-rendering="crispEdges" points="970.875,630.333 953.005,759.79 970.534,637.841"/>
<polygon fill="#1874cd" fill-opacity="0.298039" shape-rendering="crispEdges" points="1255.53,507.481 1269.49,636.832 1316.99,685.811"/>
<polygon fill="#8b864e" fill-opacity="0.298039" shape-rendering="crispEdges" points="1093.34,392.361 1102.57,420.434 1072.8,313.411"/>
<polygon fill="#4daf4a" fill-opacity="0.298039" shape-rendering="crispEdges" points="973.213,653.392 1055.1,488.111 1058.63,374.176"/>
<polygon fill="#8b864e" fill-opacity="0.298039" shape-rendering="crispEdges" points="1093.34,392.361 1102.57,420.434 1088.17,195.955"/>
<polygon fill="#4daf4a" fill-opacity="0.298039" shape-rendering="crispEdges" points="1062.2,440.761 1055.1,488.111 1058.63,374.176"/>
<polygon fill="#e41a1c" fill-opacity="0.298039" shape-rendering="crispEdges" points="747.646,358.775 1023.5,301.721 762.091,591.335"/>
<polygon fill="#4daf4a" fill-opacity="0.298039" shape-rendering="crispEdges" points="973.213,653.392 1058.63,374.176 880.698,804.125"/>
<polygon fill="#cd661d" fill-opacity="0.298039" shape-rendering="crispEdges" points="953.005,759.79 970.534,637.841 934.031,638.074"/>
<polygon fill="#1874cd" fill-opacity="0.298039" shape-rendering="crispEdges" points="1255.53,507.481 1190.21,598.498 1073,418.993"/>
<polygon fill="#e41a1c" fill-opacity="0.298039" shape-rendering="crispEdges" points="913.472,606.072 965.843,579.67 762.091,591.335"/>
<polygon fill="#e41a1c" fill-opacity="0.298039" shape-rendering="crispEdges" points="913.472,606.072 965.843,579.67 1033.47,514.62"/>
<polygon fill="#4daf4a" fill-opacity="0.298039" shape-rendering="crispEdges" points="892.688,316.016 1058.63,374.176 880.698,804.125"/>
<polygon fill="#e41a1c" fill-opacity="0.298039" shape-rendering="crispEdges" points="1033.47,514.62 829.504,443.586 1023.5,301.721"/>
<polygon fill="#4daf4a" fill-opacity="0.298039" shape-rendering="crispEdges" points="1062.2,440.761 892.688,316.016 1058.63,374.176"/>
<polygon fill="#1874cd" fill-opacity="0.298039" shape-rendering="crispEdges" points="1138.58,504.995 1190.21,598.498 1316.99,685.811"/>
<polygon fill="#e41a1c" fill-opacity="0.298039" shape-rendering="crispEdges" points="829.504,443.586 747.646,358.775 1023.5,301.721"/>
<polygon fill="#e41a1c" fill-opacity="0.298039" shape-rendering="crispEdges" points="913.472,606.072 829.504,443.586 762.091,591.335"/>
<polygon fill="#e41a1c" fill-opacity="0.298039" shape-rendering="crispEdges" points="829.504,443.586 747.646,358.775 762.091,591.335"/>
<polygon fill="#1874cd" fill-opacity="0.298039" shape-rendering="crispEdges" points="1138.58,504.995 1190.21,598.498 1073,418.993"/>
<polygon fill="#e41a1c" fill-opacity="0.298039" shape-rendering="crispEdges" points="913.472,606.072 1033.47,514.62 829.504,443.586"/>
<polygon fill="#1874cd" fill-opacity="0.298039" shape-rendering="crispEdges" points="1138.58,504.995 1255.53,507.481 1316.99,685.811"/>
<polygon fill="#1874cd" fill-opacity="0.298039" shape-rendering="crispEdges" points="1136.77,501.703 1255.53,507.481 1073,418.993"/>
<polygon fill="#1874cd" fill-opacity="0.298039" shape-rendering="crispEdges" points="1136.77,501.703 1138.58,504.995 1255.53,507.481"/>
<polygon fill="#1874cd" fill-opacity="0.298039" shape-rendering="crispEdges" points="1136.77,501.703 1138.58,504.995 1073,418.993"/>
</g>
</svg>
