<?xml version="1.0" encoding="UTF-8" standalone="no"?>
<svg xmlns="http://www.w3.org/2000/svg"
     xmlns:xlink="http://www.w3.org/1999/xlink"
     width="1920pt" height="1129pt" viewBox="0 0 1920 1129">
<title>D:/3D_GM/Projects/UW105/Results/Taxonomic_assessment/UW105_658/UW105_658_LP3_shape_PCA_labelled.svg</title>
<desc>
Creator: GL2PS 1.4.2, (C) 1999-2020 C. Geuzaine
For: Generated by rgl
CreationDate: Thu Jan 22 13:44:15 2026
</desc>
<defs>
</defs>
<g>
<polygon fill="#ffffff" shape-rendering="crispEdges" points="0,1129 1920,1129 1920,0"/>
<polygon fill="#ffffff" shape-rendering="crispEdges" points="0,1129 1920,0 0,0"/>
<polyline fill="none" stroke="#010101" stroke-width="1" stroke-linecap="butt" stroke-linejoin="miter" points="641.139,172.105 1235.62,137.203"/>
<polyline fill="none" stroke="#020202" stroke-width="1" stroke-linecap="butt" stroke-linejoin="miter" points="1235.62,137.203 1273.33,641.121"/>
<polyline fill="none" stroke="#000000" stroke-width="1" stroke-linecap="butt" stroke-linejoin="miter" points="1273.33,641.121 678.851,676.023"/>
<polyline fill="none" stroke="#000000" stroke-width="1" stroke-linecap="butt" stroke-linejoin="miter" points="678.851,676.023 641.139,172.105"/>
<polyline fill="none" stroke="#000000" stroke-width="1" stroke-linecap="butt" stroke-linejoin="miter" points="641.139,172.105 678.851,676.023 684.377,991.797 646.665,487.879 641.139,172.105"/>
<polyline fill="none" stroke="#000000" stroke-width="1" stroke-linecap="butt" stroke-linejoin="miter" points="678.851,676.023 1273.33,641.121"/>
<polyline fill="none" stroke="#000000" stroke-width="1" stroke-linecap="butt" stroke-linejoin="miter" points="1273.33,641.121 1278.86,956.895"/>
<polyline fill="none" stroke="#000000" stroke-width="1" stroke-linecap="butt" stroke-linejoin="miter" points="1278.86,956.895 684.377,991.797"/>
<polyline fill="none" stroke="#000000" stroke-width="1" stroke-linecap="butt" stroke-linejoin="miter" points="684.377,991.797 678.851,676.023"/>
<polyline fill="none" stroke="#000000" stroke-width="1" stroke-linecap="butt" stroke-linejoin="miter" points="776.503,986.388 776.872,1007.44"/>
<text fill="#000000" x="766.44" y="1034.49" font-size="12" text-anchor="start" dy="0" font-family="Helvetica">-0.1</text>
<polyline fill="none" stroke="#000000" stroke-width="1" stroke-linecap="butt" stroke-linejoin="miter" points="893.168,979.539 893.537,1000.59"/>
<text fill="#000000" x="879.505" y="1027.64" font-size="12" text-anchor="start" dy="0" font-family="Helvetica">-0.05</text>
<polyline fill="none" stroke="#000000" stroke-width="1" stroke-linecap="butt" stroke-linejoin="miter" points="1009.83,972.689 1010.2,993.741"/>
<text fill="#000000" x="1006.97" y="1020.79" font-size="12" text-anchor="start" dy="0" font-family="Helvetica">0</text>
<polyline fill="none" stroke="#000000" stroke-width="1" stroke-linecap="butt" stroke-linejoin="miter" points="1126.5,965.84 1126.87,986.892"/>
<text fill="#000000" x="1114.84" y="1013.94" font-size="12" text-anchor="start" dy="0" font-family="Helvetica">0.05</text>
<polyline fill="none" stroke="#000000" stroke-width="1" stroke-linecap="butt" stroke-linejoin="miter" points="1243.16,958.991 1243.53,980.042"/>
<text fill="#000000" x="1235.1" y="1007.09" font-size="12" text-anchor="start" dy="0" font-family="Helvetica">0.1</text>
<polyline fill="none" stroke="#000000" stroke-width="1" stroke-linecap="butt" stroke-linejoin="miter" points="654.743,595.816 655.111,616.867"/>
<text fill="#000000" x="641.08" y="643.919" font-size="12" text-anchor="start" dy="0" font-family="Helvetica">-0.05</text>
<polyline fill="none" stroke="#000000" stroke-width="1" stroke-linecap="butt" stroke-linejoin="miter" points="664.397,724.826 664.766,745.877"/>
<text fill="#000000" x="661.534" y="772.929" font-size="12" text-anchor="start" dy="0" font-family="Helvetica">0</text>
<polyline fill="none" stroke="#000000" stroke-width="1" stroke-linecap="butt" stroke-linejoin="miter" points="674.052,853.835 674.421,874.887"/>
<text fill="#000000" x="662.389" y="901.938" font-size="12" text-anchor="start" dy="0" font-family="Helvetica">0.05</text>
<polyline fill="none" stroke="#000000" stroke-width="1" stroke-linecap="butt" stroke-linejoin="miter" points="683.707,982.845 684.075,1003.9"/>
<text fill="#000000" x="675.644" y="1030.95" font-size="12" text-anchor="start" dy="0" font-family="Helvetica">0.1</text>
<polyline fill="none" stroke="#000000" stroke-width="1" stroke-linecap="butt" stroke-linejoin="miter" points="1277.44,875.936 1317.08,873.609"/>
<text fill="#000000" x="1355.86" y="877.282" font-size="12" text-anchor="start" dy="0" font-family="Helvetica">-0.05</text>
<polyline fill="none" stroke="#000000" stroke-width="1" stroke-linecap="butt" stroke-linejoin="miter" points="1275.72,777.681 1315.36,775.354"/>
<text fill="#000000" x="1354.78" y="779.027" font-size="12" text-anchor="start" dy="0" font-family="Helvetica">0</text>
<polyline fill="none" stroke="#000000" stroke-width="1" stroke-linecap="butt" stroke-linejoin="miter" points="1274.01,679.425 1313.64,677.099"/>
<text fill="#000000" x="1352.54" y="680.772" font-size="12" text-anchor="start" dy="0" font-family="Helvetica">0.05</text>
<polyline fill="none" stroke="#000000" stroke-width="1" stroke-linecap="butt" stroke-linejoin="miter" points="646.665,487.879 646.665,487.879"/>
<polyline fill="none" stroke="#000000" stroke-width="1" stroke-linecap="butt" stroke-linejoin="miter" points="1273.33,641.121 1273.33,641.121"/>
<circle fill="#e41a1c" cx="694.066" cy="584.288" r="5"/>
<circle fill="#e41a1c" cx="781.75" cy="506.068" r="5"/>
<circle fill="#e41a1c" cx="897.862" cy="588.793" r="5"/>
<circle fill="#e41a1c" cx="969.29" cy="530.746" r="5"/>
<circle fill="#e41a1c" cx="850.254" cy="643.484" r="5"/>
<circle fill="#e41a1c" cx="702.208" cy="400.114" r="5"/>
<circle fill="#e41a1c" cx="969.089" cy="304.459" r="5"/>
<circle fill="#1874cd" cx="1192.01" cy="546.186" r="5"/>
<circle fill="#1874cd" cx="1243.69" cy="732.25" r="5"/>
<circle fill="#1874cd" cx="1188.31" cy="622.08" r="5"/>
<circle fill="#1874cd" cx="1130.29" cy="594.613" r="5"/>
<circle fill="#4daf4a" cx="898.328" cy="648.8" r="5"/>
<circle fill="#4daf4a" cx="834.583" cy="563.701" r="5"/>
<circle fill="#4daf4a" cx="1000.61" cy="451.088" r="5"/>
<circle fill="#984ea3" cx="1214.73" cy="635.31" r="5"/>
<circle fill="#4daf4a" cx="843.844" cy="340.185" r="5"/>
<circle fill="#4daf4a" cx="1011.3" cy="439.827" r="5"/>
<circle fill="#4daf4a" cx="795.535" cy="781.62" r="5"/>
<circle fill="#4daf4a" cx="986.777" cy="476.285" r="5"/>
<circle fill="#1874cd" cx="1088.53" cy="603.377" r="5"/>
<circle fill="#1874cd" cx="1023.25" cy="486.677" r="5"/>
<circle fill="#1874cd" cx="1086.75" cy="599.025" r="5"/>
<circle fill="#1874cd" cx="1200.33" cy="682.584" r="5"/>
<circle fill="#1874cd" cx="1112.23" cy="581.631" r="5"/>
<circle fill="#e41a1c" cx="898.439" cy="643.124" r="5"/>
<circle fill="#e41a1c" cx="867.271" cy="566.223" r="5"/>
<circle fill="#e41a1c" cx="892.329" cy="599.096" r="5"/>
<circle fill="#e41a1c" cx="862.683" cy="643.914" r="5"/>
<circle fill="#e41a1c" cx="878.32" cy="786.486" r="5"/>
<circle fill="#8b864e" cx="1038.19" cy="425.275" r="5"/>
<circle fill="#8b864e" cx="1039.99" cy="206.024" r="5"/>
<circle fill="#8b864e" cx="1015.55" cy="309.285" r="5"/>
<circle fill="#8b864e" cx="1046.07" cy="455.562" r="5"/>
<circle fill="#8b864e" cx="1069.59" cy="294.564" r="5"/>
<circle fill="#8b864e" cx="1036.11" cy="299.477" r="5"/>
<circle fill="#8b864e" cx="1027.66" cy="294.99" r="5"/>
<circle fill="#000000" cx="1120.74" cy="613.438" r="5"/>
<text fill="#000000" x="949.207" y="1098.15" font-size="12" text-anchor="start" dy="0" font-family="Helvetica">PC1 (34.1%)</text>
<text fill="#000000" x="590.962" y="832.371" font-size="12" text-anchor="start" dy="0" font-family="Helvetica">PC2 (21.5%)</text>
<text fill="#000000" x="1400.74" y="829.295" font-size="12" text-anchor="start" dy="0" font-family="Helvetica">PC3 (13.3%)</text>
<text fill="#000000" x="812.071" y="570.623" font-size="8" text-anchor="start" dy="0" font-family="Helvetica">STS52b_LRP3</text>
<text fill="#000000" x="1137.11" y="626.48" font-size="8" text-anchor="start" dy="0" font-family="Helvetica">DNH51_LRP3</text>
<text fill="#000000" x="845.129" y="603.496" font-size="8" text-anchor="start" dy="0" font-family="Helvetica">STW7_LLP3</text>
<text fill="#000000" x="1063.43" y="586.031" font-size="8" text-anchor="start" dy="0" font-family="Helvetica">SKW5_LRP3</text>
<polygon fill="#e41a1c" fill-opacity="0.298039" shape-rendering="crispEdges" points="892.329,599.096 969.29,530.746 867.271,566.223"/>
<text fill="#000000" x="749.135" y="786.02" font-size="8" text-anchor="start" dy="0" font-family="Helvetica">OH16_LRP3</text>
<polygon fill="#e41a1c" fill-opacity="0.298039" shape-rendering="crispEdges" points="892.329,599.096 867.271,566.223 878.32,786.486"/>
<text fill="#000000" x="888.377" y="480.685" font-size="8" text-anchor="start" dy="0" font-family="Helvetica">Omo75i-1970-1255_LRP3</text>
<text fill="#000000" x="951.661" y="299.39" font-size="8" text-anchor="start" dy="0" font-family="Helvetica">UW101_1565_LLP3</text>
<polygon fill="#1874cd" fill-opacity="0.298039" shape-rendering="crispEdges" points="1192.01,546.186 1188.31,622.08 1112.23,581.631"/>
<polygon fill="#1874cd" fill-opacity="0.298039" shape-rendering="crispEdges" points="1188.31,622.08 1112.23,581.631 1243.69,732.25"/>
<polygon fill="#4daf4a" fill-opacity="0.298039" shape-rendering="crispEdges" points="898.328,648.8 986.777,476.285 795.535,781.62"/>
<polygon fill="#e41a1c" fill-opacity="0.298039" shape-rendering="crispEdges" points="969.29,530.746 867.271,566.223 969.089,304.459"/>
<polygon fill="#e41a1c" fill-opacity="0.298039" shape-rendering="crispEdges" points="867.271,566.223 878.32,786.486 694.066,584.288"/>
<text fill="#000000" x="823.127" y="653.2" font-size="8" text-anchor="start" dy="0" font-family="Helvetica">KNM-ER_992_LRP3</text>
<text fill="#000000" x="943.546" y="313.685" font-size="8" text-anchor="start" dy="0" font-family="Helvetica">UW101_377_LRP3</text>
<polygon fill="#8b864e" fill-opacity="0.298039" shape-rendering="crispEdges" points="1027.66,294.99 1039.99,206.024 1015.55,309.285"/>
<text fill="#000000" x="998.388" y="298.964" font-size="8" text-anchor="start" dy="0" font-family="Helvetica">UW101_889_LLP3</text>
<polygon fill="#8b864e" fill-opacity="0.298039" shape-rendering="crispEdges" points="1027.66,294.99 1039.99,206.024 1069.59,294.564"/>
<polygon fill="#4daf4a" fill-opacity="0.298039" shape-rendering="crispEdges" points="986.777,476.285 843.844,340.185 795.535,781.62"/>
<polygon fill="#e41a1c" fill-opacity="0.298039" shape-rendering="crispEdges" points="892.329,599.096 969.29,530.746 878.32,786.486"/>
<polygon fill="#1874cd" fill-opacity="0.298039" shape-rendering="crispEdges" points="1192.01,546.186 1188.31,622.08 1243.69,732.25"/>
<polygon fill="#8b864e" fill-opacity="0.298039" shape-rendering="crispEdges" points="1027.66,294.99 1046.07,455.562 1015.55,309.285"/>
<polygon fill="#8b864e" fill-opacity="0.298039" shape-rendering="crispEdges" points="1027.66,294.99 1046.07,455.562 1069.59,294.564"/>
<text fill="#000000" x="848.039" y="647.524" font-size="8" text-anchor="start" dy="0" font-family="Helvetica">STS51_LRP3</text>
<polygon fill="#e41a1c" fill-opacity="0.298039" shape-rendering="crispEdges" points="702.208,400.114 867.271,566.223 969.089,304.459"/>
<text fill="#000000" x="911.489" y="308.859" font-size="8" text-anchor="start" dy="0" font-family="Helvetica">AL655-1_LLP3</text>
<polygon fill="#e41a1c" fill-opacity="0.298039" shape-rendering="crispEdges" points="702.208,400.114 867.271,566.223 694.066,584.288"/>
<text fill="#000000" x="1079.09" y="599.013" font-size="8" text-anchor="start" dy="0" font-family="Helvetica">DNH68_LRP3</text>
<text fill="#000000" x="630.866" y="588.688" font-size="8" text-anchor="start" dy="0" font-family="Helvetica">AL128-23_LRP3</text>
<text fill="#000000" x="755.383" y="568.101" font-size="8" text-anchor="start" dy="0" font-family="Helvetica">KNM-ER_1507_LLP3</text>
<text fill="#000000" x="805.083" y="648.314" font-size="8" text-anchor="start" dy="0" font-family="Helvetica">STW213_LRP3</text>
<text fill="#000000" x="920.608" y="455.488" font-size="8" text-anchor="start" dy="0" font-family="Helvetica">KNM-ER_1802_LRP3</text>
<text fill="#000000" x="1128.33" y="639.709" font-size="8" text-anchor="start" dy="0" font-family="Helvetica">KNM-WT_16005_LLP3</text>
<polygon fill="#4daf4a" fill-opacity="0.298039" shape-rendering="crispEdges" points="1000.61,451.088 986.777,476.285 843.844,340.185"/>
<text fill="#000000" x="835.462" y="593.193" font-size="8" text-anchor="start" dy="0" font-family="Helvetica">AL333-10_LLP3</text>
<text fill="#000000" x="967.99" y="210.424" font-size="8" text-anchor="start" dy="0" font-family="Helvetica">UW101_298_LRP3</text>
<polygon fill="#8b864e" fill-opacity="0.298039" shape-rendering="crispEdges" points="1038.19,425.275 1039.99,206.024 1015.55,309.285"/>
<polygon fill="#4daf4a" fill-opacity="0.298039" shape-rendering="crispEdges" points="898.328,648.8 1011.3,439.827 795.535,781.62"/>
<polygon fill="#8b864e" fill-opacity="0.298039" shape-rendering="crispEdges" points="1046.07,455.562 1039.99,206.024 1069.59,294.564"/>
<text fill="#000000" x="898.89" y="535.146" font-size="8" text-anchor="start" dy="0" font-family="Helvetica">AL333w-60_LLP3</text>
<polygon fill="#4daf4a" fill-opacity="0.298039" shape-rendering="crispEdges" points="898.328,648.8 986.777,476.285 1011.3,439.827"/>
<text fill="#000000" x="959.308" y="303.876" font-size="8" text-anchor="start" dy="0" font-family="Helvetica">UW101_1261_LRP3</text>
<text fill="#000000" x="1149.93" y="686.984" font-size="8" text-anchor="start" dy="0" font-family="Helvetica">SK857_LRP3</text>
<polygon fill="#8b864e" fill-opacity="0.298039" shape-rendering="crispEdges" points="1038.19,425.275 1046.07,455.562 1015.55,309.285"/>
<polygon fill="#1874cd" fill-opacity="0.298039" shape-rendering="crispEdges" points="1192.01,546.186 1112.23,581.631 1023.25,486.677"/>
<polygon fill="#4daf4a" fill-opacity="0.298039" shape-rendering="crispEdges" points="1000.61,451.088 986.777,476.285 1011.3,439.827"/>
<text fill="#000000" x="1146.41" y="550.585" font-size="8" text-anchor="start" dy="0" font-family="Helvetica">DNH8_LLP3</text>
<text fill="#000000" x="1192.49" y="736.65" font-size="8" text-anchor="start" dy="0" font-family="Helvetica">DNH46_LRP3</text>
<polygon fill="#8b864e" fill-opacity="0.298039" shape-rendering="crispEdges" points="1038.19,425.275 1046.07,455.562 1039.99,206.024"/>
<text fill="#000000" x="820.72" y="790.886" font-size="8" text-anchor="start" dy="0" font-family="Helvetica">STW404_LRP3</text>
<polygon fill="#4daf4a" fill-opacity="0.298039" shape-rendering="crispEdges" points="843.844,340.185 1011.3,439.827 795.535,781.62"/>
<polygon fill="#1874cd" fill-opacity="0.298039" shape-rendering="crispEdges" points="1088.53,603.377 1112.23,581.631 1243.69,732.25"/>
<text fill="#000000" x="966.995" y="429.675" font-size="8" text-anchor="start" dy="0" font-family="Helvetica">UW101_144_LLP3</text>
<text fill="#000000" x="974.075" y="459.962" font-size="8" text-anchor="start" dy="0" font-family="Helvetica">UW101_506_LRP3</text>
<polygon fill="#e41a1c" fill-opacity="0.298039" shape-rendering="crispEdges" points="969.29,530.746 781.75,506.068 969.089,304.459"/>
<text fill="#000000" x="802.244" y="344.584" font-size="8" text-anchor="start" dy="0" font-family="Helvetica">OH7_LRP3</text>
<polygon fill="#e41a1c" fill-opacity="0.298039" shape-rendering="crispEdges" points="781.75,506.068 878.32,786.486 694.066,584.288"/>
<polygon fill="#4daf4a" fill-opacity="0.298039" shape-rendering="crispEdges" points="1000.61,451.088 843.844,340.185 1011.3,439.827"/>
<polygon fill="#e41a1c" fill-opacity="0.298039" shape-rendering="crispEdges" points="969.29,530.746 781.75,506.068 878.32,786.486"/>
<polygon fill="#1874cd" fill-opacity="0.298039" shape-rendering="crispEdges" points="1088.53,603.377 1112.23,581.631 1023.25,486.677"/>
<text fill="#000000" x="783.854" y="647.884" font-size="8" text-anchor="start" dy="0" font-family="Helvetica">AL333w-1_LRP3</text>
<polygon fill="#1874cd" fill-opacity="0.298039" shape-rendering="crispEdges" points="1088.53,603.377 1192.01,546.186 1243.69,732.25"/>
<text fill="#000000" x="1043.94" y="617.837" font-size="8" text-anchor="start" dy="0" font-family="Helvetica">UW_105_658_LRP3</text>
<polygon fill="#e41a1c" fill-opacity="0.298039" shape-rendering="crispEdges" points="702.208,400.114 781.75,506.068 969.089,304.459"/>
<polygon fill="#e41a1c" fill-opacity="0.298039" shape-rendering="crispEdges" points="702.208,400.114 781.75,506.068 694.066,584.288"/>
<polygon fill="#1874cd" fill-opacity="0.298039" shape-rendering="crispEdges" points="1086.75,599.025 1192.01,546.186 1023.25,486.677"/>
<text fill="#000000" x="639.808" y="404.514" font-size="8" text-anchor="start" dy="0" font-family="Helvetica">AL417-1a_LLP3</text>
<text fill="#000000" x="964.896" y="444.227" font-size="8" text-anchor="start" dy="0" font-family="Helvetica">OH13_LRP3</text>
<text fill="#000000" x="968.845" y="491.077" font-size="8" text-anchor="start" dy="0" font-family="Helvetica">SK96_2_LLP3</text>
<polygon fill="#1874cd" fill-opacity="0.298039" shape-rendering="crispEdges" points="1086.75,599.025 1088.53,603.377 1192.01,546.186"/>
<text fill="#000000" x="723.351" y="510.468" font-size="8" text-anchor="start" dy="0" font-family="Helvetica">AL266-1_LRP3</text>
<polygon fill="#1874cd" fill-opacity="0.298039" shape-rendering="crispEdges" points="1086.75,599.025 1088.53,603.377 1023.25,486.677"/>
<text fill="#000000" x="1036.35" y="603.425" font-size="8" text-anchor="start" dy="0" font-family="Helvetica">SK100_LRP3</text>
<text fill="#000000" x="1047.73" y="607.777" font-size="8" text-anchor="start" dy="0" font-family="Helvetica">SK6_LRP3</text>
</g>
</svg>
