<?xml version="1.0" encoding="UTF-8" standalone="no"?>
<svg xmlns="http://www.w3.org/2000/svg"
     xmlns:xlink="http://www.w3.org/1999/xlink"
     width="1740pt" height="970pt" viewBox="0 0 1740 970">
<title>D:/3D_GM/Projects/UW105/Results/Taxonomic_assessment/UW105_658/UW105_658_LP3_shape_PCA_clean.svg</title>
<desc>
Creator: GL2PS 1.4.2, (C) 1999-2020 C. Geuzaine
For: Generated by rgl
CreationDate: Thu Jan 22 13:44:35 2026
</desc>
<defs>
</defs>
<g>
<polygon fill="#ffffff" shape-rendering="crispEdges" points="0,970 1740,970 1740,0"/>
<polygon fill="#ffffff" shape-rendering="crispEdges" points="0,970 1740,0 0,0"/>
<polyline fill="none" stroke="#010101" stroke-width="1" stroke-linecap="butt" stroke-linejoin="miter" points="596.045,147.867 1106.81,117.88"/>
<polyline fill="none" stroke="#020202" stroke-width="1" stroke-linecap="butt" stroke-linejoin="miter" points="1106.81,117.88 1139.21,550.83"/>
<polyline fill="none" stroke="#000000" stroke-width="1" stroke-linecap="butt" stroke-linejoin="miter" points="1139.21,550.83 628.445,580.817"/>
<polyline fill="none" stroke="#000000" stroke-width="1" stroke-linecap="butt" stroke-linejoin="miter" points="628.445,580.817 596.045,147.867"/>
<polyline fill="none" stroke="#000000" stroke-width="1" stroke-linecap="butt" stroke-linejoin="miter" points="596.045,147.867 628.445,580.817 633.193,852.12 600.793,419.17 596.045,147.867"/>
<polyline fill="none" stroke="#000000" stroke-width="1" stroke-linecap="butt" stroke-linejoin="miter" points="628.445,580.817 1139.21,550.83"/>
<polyline fill="none" stroke="#000000" stroke-width="1" stroke-linecap="butt" stroke-linejoin="miter" points="1139.21,550.83 1143.96,822.133"/>
<polyline fill="none" stroke="#000000" stroke-width="1" stroke-linecap="butt" stroke-linejoin="miter" points="1143.96,822.133 633.193,852.12"/>
<polyline fill="none" stroke="#000000" stroke-width="1" stroke-linecap="butt" stroke-linejoin="miter" points="633.193,852.12 628.445,580.817"/>
<polyline fill="none" stroke="#000000" stroke-width="1" stroke-linecap="butt" stroke-linejoin="miter" points="712.346,847.473 712.663,865.56"/>
<text fill="#000000" x="702.179" y="889.646" font-size="12" text-anchor="start" dy="0" font-family="Helvetica">-0.1</text>
<polyline fill="none" stroke="#000000" stroke-width="1" stroke-linecap="butt" stroke-linejoin="miter" points="812.581,841.588 812.897,859.675"/>
<text fill="#000000" x="798.814" y="883.761" font-size="12" text-anchor="start" dy="0" font-family="Helvetica">-0.05</text>
<polyline fill="none" stroke="#000000" stroke-width="1" stroke-linecap="butt" stroke-linejoin="miter" points="912.815,835.703 913.132,853.79"/>
<text fill="#000000" x="909.848" y="877.876" font-size="12" text-anchor="start" dy="0" font-family="Helvetica">0</text>
<polyline fill="none" stroke="#000000" stroke-width="1" stroke-linecap="butt" stroke-linejoin="miter" points="1013.05,829.818 1013.37,847.905"/>
<text fill="#000000" x="1001.28" y="871.992" font-size="12" text-anchor="start" dy="0" font-family="Helvetica">0.05</text>
<polyline fill="none" stroke="#000000" stroke-width="1" stroke-linecap="butt" stroke-linejoin="miter" points="1113.29,823.934 1113.6,842.02"/>
<text fill="#000000" x="1105.12" y="866.107" font-size="12" text-anchor="start" dy="0" font-family="Helvetica">0.1</text>
<polyline fill="none" stroke="#000000" stroke-width="1" stroke-linecap="butt" stroke-linejoin="miter" points="607.733,511.905 608.049,529.992"/>
<text fill="#000000" x="593.966" y="554.079" font-size="12" text-anchor="start" dy="0" font-family="Helvetica">-0.05</text>
<polyline fill="none" stroke="#000000" stroke-width="1" stroke-linecap="butt" stroke-linejoin="miter" points="616.028,622.747 616.345,640.833"/>
<text fill="#000000" x="613.061" y="664.92" font-size="12" text-anchor="start" dy="0" font-family="Helvetica">0</text>
<polyline fill="none" stroke="#000000" stroke-width="1" stroke-linecap="butt" stroke-linejoin="miter" points="624.323,733.587 624.64,751.674"/>
<text fill="#000000" x="612.556" y="775.761" font-size="12" text-anchor="start" dy="0" font-family="Helvetica">0.05</text>
<polyline fill="none" stroke="#000000" stroke-width="1" stroke-linecap="butt" stroke-linejoin="miter" points="632.618,844.429 632.935,862.516"/>
<text fill="#000000" x="624.451" y="886.603" font-size="12" text-anchor="start" dy="0" font-family="Helvetica">0.1</text>
<polyline fill="none" stroke="#000000" stroke-width="1" stroke-linecap="butt" stroke-linejoin="miter" points="1142.74,752.576 1176.79,750.576"/>
<text fill="#000000" x="1209.99" y="754.577" font-size="12" text-anchor="start" dy="0" font-family="Helvetica">-0.05</text>
<polyline fill="none" stroke="#000000" stroke-width="1" stroke-linecap="butt" stroke-linejoin="miter" points="1141.26,668.158 1175.31,666.159"/>
<text fill="#000000" x="1209.15" y="670.16" font-size="12" text-anchor="start" dy="0" font-family="Helvetica">0</text>
<polyline fill="none" stroke="#000000" stroke-width="1" stroke-linecap="butt" stroke-linejoin="miter" points="1139.78,583.74 1173.83,581.741"/>
<text fill="#000000" x="1207.16" y="585.742" font-size="12" text-anchor="start" dy="0" font-family="Helvetica">0.05</text>
<polyline fill="none" stroke="#000000" stroke-width="1" stroke-linecap="butt" stroke-linejoin="miter" points="600.793,419.17 600.793,419.17"/>
<polyline fill="none" stroke="#000000" stroke-width="1" stroke-linecap="butt" stroke-linejoin="miter" points="1139.21,550.83 1139.21,550.83"/>
<circle fill="#e41a1c" cx="641.519" cy="502.001" r="5"/>
<circle fill="#e41a1c" cx="716.854" cy="434.797" r="5"/>
<circle fill="#e41a1c" cx="816.613" cy="505.872" r="5"/>
<circle fill="#e41a1c" cx="877.981" cy="456" r="5"/>
<circle fill="#e41a1c" cx="775.71" cy="552.86" r="5"/>
<circle fill="#e41a1c" cx="648.514" cy="343.765" r="5"/>
<circle fill="#e41a1c" cx="877.809" cy="261.582" r="5"/>
<circle fill="#1874cd" cx="1069.34" cy="469.265" r="5"/>
<circle fill="#1874cd" cx="1113.73" cy="629.125" r="5"/>
<circle fill="#1874cd" cx="1066.16" cy="534.471" r="5"/>
<circle fill="#1874cd" cx="1016.31" cy="510.873" r="5"/>
<circle fill="#4daf4a" cx="817.013" cy="557.428" r="5"/>
<circle fill="#4daf4a" cx="762.246" cy="484.314" r="5"/>
<circle fill="#4daf4a" cx="904.889" cy="387.56" r="5"/>
<circle fill="#984ea3" cx="1088.85" cy="545.837" r="5"/>
<circle fill="#4daf4a" cx="770.203" cy="292.275" r="5"/>
<circle fill="#4daf4a" cx="914.072" cy="377.885" r="5"/>
<circle fill="#4daf4a" cx="728.697" cy="671.542" r="5"/>
<circle fill="#4daf4a" cx="893.006" cy="409.208" r="5"/>
<circle fill="#1874cd" cx="980.428" cy="518.402" r="5"/>
<circle fill="#1874cd" cx="924.338" cy="418.137" r="5"/>
<circle fill="#1874cd" cx="978.898" cy="514.663" r="5"/>
<circle fill="#1874cd" cx="1076.49" cy="586.454" r="5"/>
<circle fill="#1874cd" cx="1000.79" cy="499.719" r="5"/>
<circle fill="#e41a1c" cx="817.109" cy="552.551" r="5"/>
<circle fill="#e41a1c" cx="790.331" cy="486.48" r="5"/>
<circle fill="#e41a1c" cx="811.859" cy="514.724" r="5"/>
<circle fill="#e41a1c" cx="786.389" cy="553.23" r="5"/>
<circle fill="#e41a1c" cx="799.824" cy="675.723" r="5"/>
<circle fill="#8b864e" cx="937.183" cy="365.383" r="5"/>
<circle fill="#8b864e" cx="938.725" cy="177.009" r="5"/>
<circle fill="#8b864e" cx="917.724" cy="265.728" r="5"/>
<circle fill="#8b864e" cx="943.953" cy="391.404" r="5"/>
<circle fill="#8b864e" cx="964.154" cy="253.08" r="5"/>
<circle fill="#8b864e" cx="935.389" cy="257.3" r="5"/>
<circle fill="#8b864e" cx="928.132" cy="253.446" r="5"/>
<circle fill="#000000" cx="1008.1" cy="527.045" r="5"/>
<text fill="#000000" x="855.601" y="944.337" font-size="12" text-anchor="start" dy="0" font-family="Helvetica">PC1 (34.1%)</text>
<text fill="#000000" x="547.809" y="715.991" font-size="12" text-anchor="start" dy="0" font-family="Helvetica">PC2 (21.5%)</text>
<text fill="#000000" x="1243.54" y="713.348" font-size="12" text-anchor="start" dy="0" font-family="Helvetica">PC3 (13.3%)</text>
<polygon fill="#e41a1c" fill-opacity="0.298039" shape-rendering="crispEdges" points="811.859,514.724 877.981,456 790.331,486.48"/>
<polygon fill="#e41a1c" fill-opacity="0.298039" shape-rendering="crispEdges" points="811.859,514.724 790.331,486.48 799.824,675.723"/>
<polygon fill="#1874cd" fill-opacity="0.298039" shape-rendering="crispEdges" points="1069.34,469.265 1066.16,534.471 1000.79,499.719"/>
<polygon fill="#1874cd" fill-opacity="0.298039" shape-rendering="crispEdges" points="1066.16,534.471 1000.79,499.719 1113.73,629.125"/>
<polygon fill="#4daf4a" fill-opacity="0.298039" shape-rendering="crispEdges" points="817.013,557.428 893.006,409.208 728.697,671.542"/>
<polygon fill="#e41a1c" fill-opacity="0.298039" shape-rendering="crispEdges" points="877.981,456 790.331,486.48 877.809,261.582"/>
<polygon fill="#e41a1c" fill-opacity="0.298039" shape-rendering="crispEdges" points="790.331,486.48 799.824,675.723 641.519,502.001"/>
<polygon fill="#8b864e" fill-opacity="0.298039" shape-rendering="crispEdges" points="928.132,253.446 938.725,177.009 917.724,265.728"/>
<polygon fill="#8b864e" fill-opacity="0.298039" shape-rendering="crispEdges" points="928.132,253.446 938.725,177.009 964.154,253.08"/>
<polygon fill="#4daf4a" fill-opacity="0.298039" shape-rendering="crispEdges" points="893.006,409.208 770.203,292.275 728.697,671.542"/>
<polygon fill="#e41a1c" fill-opacity="0.298039" shape-rendering="crispEdges" points="811.859,514.724 877.981,456 799.824,675.723"/>
<polygon fill="#1874cd" fill-opacity="0.298039" shape-rendering="crispEdges" points="1069.34,469.265 1066.16,534.471 1113.73,629.125"/>
<polygon fill="#8b864e" fill-opacity="0.298039" shape-rendering="crispEdges" points="928.132,253.446 943.953,391.404 917.724,265.728"/>
<polygon fill="#8b864e" fill-opacity="0.298039" shape-rendering="crispEdges" points="928.132,253.446 943.953,391.404 964.154,253.08"/>
<polygon fill="#e41a1c" fill-opacity="0.298039" shape-rendering="crispEdges" points="648.514,343.765 790.331,486.48 877.809,261.582"/>
<polygon fill="#e41a1c" fill-opacity="0.298039" shape-rendering="crispEdges" points="648.514,343.765 790.331,486.48 641.519,502.001"/>
<polygon fill="#4daf4a" fill-opacity="0.298039" shape-rendering="crispEdges" points="904.889,387.56 893.006,409.208 770.203,292.275"/>
<polygon fill="#8b864e" fill-opacity="0.298039" shape-rendering="crispEdges" points="937.183,365.383 938.725,177.009 917.724,265.728"/>
<polygon fill="#4daf4a" fill-opacity="0.298039" shape-rendering="crispEdges" points="817.013,557.428 914.072,377.885 728.697,671.542"/>
<polygon fill="#8b864e" fill-opacity="0.298039" shape-rendering="crispEdges" points="943.953,391.404 938.725,177.009 964.154,253.08"/>
<polygon fill="#4daf4a" fill-opacity="0.298039" shape-rendering="crispEdges" points="817.013,557.428 893.006,409.208 914.072,377.885"/>
<polygon fill="#8b864e" fill-opacity="0.298039" shape-rendering="crispEdges" points="937.183,365.383 943.953,391.404 917.724,265.728"/>
<polygon fill="#1874cd" fill-opacity="0.298039" shape-rendering="crispEdges" points="1069.34,469.265 1000.79,499.719 924.338,418.137"/>
<polygon fill="#4daf4a" fill-opacity="0.298039" shape-rendering="crispEdges" points="904.889,387.56 893.006,409.208 914.072,377.885"/>
<polygon fill="#8b864e" fill-opacity="0.298039" shape-rendering="crispEdges" points="937.183,365.383 943.953,391.404 938.725,177.009"/>
<polygon fill="#4daf4a" fill-opacity="0.298039" shape-rendering="crispEdges" points="770.203,292.275 914.072,377.885 728.697,671.542"/>
<polygon fill="#1874cd" fill-opacity="0.298039" shape-rendering="crispEdges" points="980.428,518.402 1000.79,499.719 1113.73,629.125"/>
<polygon fill="#e41a1c" fill-opacity="0.298039" shape-rendering="crispEdges" points="877.981,456 716.854,434.797 877.809,261.582"/>
<polygon fill="#e41a1c" fill-opacity="0.298039" shape-rendering="crispEdges" points="716.854,434.797 799.824,675.723 641.519,502.001"/>
<polygon fill="#4daf4a" fill-opacity="0.298039" shape-rendering="crispEdges" points="904.889,387.56 770.203,292.275 914.072,377.885"/>
<polygon fill="#e41a1c" fill-opacity="0.298039" shape-rendering="crispEdges" points="877.981,456 716.854,434.797 799.824,675.723"/>
<polygon fill="#1874cd" fill-opacity="0.298039" shape-rendering="crispEdges" points="980.428,518.402 1000.79,499.719 924.338,418.137"/>
<polygon fill="#1874cd" fill-opacity="0.298039" shape-rendering="crispEdges" points="980.428,518.402 1069.34,469.265 1113.73,629.125"/>
<polygon fill="#e41a1c" fill-opacity="0.298039" shape-rendering="crispEdges" points="648.514,343.765 716.854,434.797 877.809,261.582"/>
<polygon fill="#e41a1c" fill-opacity="0.298039" shape-rendering="crispEdges" points="648.514,343.765 716.854,434.797 641.519,502.001"/>
<polygon fill="#1874cd" fill-opacity="0.298039" shape-rendering="crispEdges" points="978.898,514.663 1069.34,469.265 924.338,418.137"/>
<polygon fill="#1874cd" fill-opacity="0.298039" shape-rendering="crispEdges" points="978.898,514.663 980.428,518.402 1069.34,469.265"/>
<polygon fill="#1874cd" fill-opacity="0.298039" shape-rendering="crispEdges" points="978.898,514.663 980.428,518.402 924.338,418.137"/>
</g>
</svg>
