<?xml version="1.0" encoding="UTF-8" standalone="no"?>
<svg xmlns="http://www.w3.org/2000/svg"
     xmlns:xlink="http://www.w3.org/1999/xlink"
     width="2048pt" height="1081pt" viewBox="0 0 2048 1081">
<title>D:/3D_GM/Projects/UW105/Results/Tooth_type_classifications/UW105_676_and_042/Shape_PCA_only_paranthropus_labelled.svg</title>
<desc>
Creator: GL2PS 1.4.2, (C) 1999-2020 C. Geuzaine
For: Generated by rgl
CreationDate: Tue Jan 27 11:56:24 2026
</desc>
<defs>
</defs>
<g>
<polygon fill="#ffffff" shape-rendering="crispEdges" points="0,1081 2048,1081 2048,0"/>
<polygon fill="#ffffff" shape-rendering="crispEdges" points="0,1081 2048,0 0,0"/>
<polyline fill="none" stroke="#000000" stroke-width="1" stroke-linecap="butt" stroke-linejoin="miter" points="528.137,928.724 990.325,795.426 1551.84,864.585 1089.65,997.883 528.137,928.724"/>
<polyline fill="none" stroke="#000000" stroke-width="1" stroke-linecap="butt" stroke-linejoin="miter" points="496.163,216.415 958.351,83.1172"/>
<polyline fill="none" stroke="#000000" stroke-width="1" stroke-linecap="butt" stroke-linejoin="miter" points="958.351,83.1172 990.325,795.426"/>
<polyline fill="none" stroke="#000000" stroke-width="1" stroke-linecap="butt" stroke-linejoin="miter" points="990.325,795.426 528.137,928.724"/>
<polyline fill="none" stroke="#000000" stroke-width="1" stroke-linecap="butt" stroke-linejoin="miter" points="528.137,928.724 496.163,216.415"/>
<polyline fill="none" stroke="#000000" stroke-width="1" stroke-linecap="butt" stroke-linejoin="miter" points="958.351,83.1172 1519.86,152.276"/>
<polyline fill="none" stroke="#000000" stroke-width="1" stroke-linecap="butt" stroke-linejoin="miter" points="1519.86,152.276 1551.84,864.585"/>
<polyline fill="none" stroke="#000000" stroke-width="1" stroke-linecap="butt" stroke-linejoin="miter" points="1551.84,864.585 990.325,795.426"/>
<polyline fill="none" stroke="#000000" stroke-width="1" stroke-linecap="butt" stroke-linejoin="miter" points="990.325,795.426 958.351,83.1172"/>
<polyline fill="none" stroke="#000000" stroke-width="1" stroke-linecap="butt" stroke-linejoin="miter" points="1091.39,99.5029 1089.26,52.0156"/>
<text fill="#000000" x="1072.73" y="10.5283" font-size="12" text-anchor="start" dy="0" font-family="Helvetica">-0.05</text>
<polyline fill="none" stroke="#000000" stroke-width="1" stroke-linecap="butt" stroke-linejoin="miter" points="1234.02,117.069 1231.88,69.582"/>
<text fill="#000000" x="1226.15" y="28.0947" font-size="12" text-anchor="start" dy="0" font-family="Helvetica">0</text>
<polyline fill="none" stroke="#000000" stroke-width="1" stroke-linecap="butt" stroke-linejoin="miter" points="1376.64,134.636 1374.51,87.1489"/>
<text fill="#000000" x="1359.98" y="45.6616" font-size="12" text-anchor="start" dy="0" font-family="Helvetica">0.05</text>
<polyline fill="none" stroke="#000000" stroke-width="1" stroke-linecap="butt" stroke-linejoin="miter" points="1519.27,152.203 1517.14,104.715"/>
<text fill="#000000" x="1506.2" y="63.228" font-size="12" text-anchor="start" dy="0" font-family="Helvetica">0.1</text>
<polyline fill="none" stroke="#000000" stroke-width="1" stroke-linecap="butt" stroke-linejoin="miter" points="1165.69,975.954 1203.12,980.564"/>
<text fill="#000000" x="1238.78" y="991.175" font-size="12" text-anchor="start" dy="0" font-family="Helvetica">-0.05</text>
<polyline fill="none" stroke="#000000" stroke-width="1" stroke-linecap="butt" stroke-linejoin="miter" points="1301.91,936.667 1339.34,941.277"/>
<text fill="#000000" x="1376.33" y="951.888" font-size="12" text-anchor="start" dy="0" font-family="Helvetica">0</text>
<polyline fill="none" stroke="#000000" stroke-width="1" stroke-linecap="butt" stroke-linejoin="miter" points="1438.13,897.379 1475.56,901.99"/>
<text fill="#000000" x="1511.47" y="912.601" font-size="12" text-anchor="start" dy="0" font-family="Helvetica">0.05</text>
<polyline fill="none" stroke="#000000" stroke-width="1" stroke-linecap="butt" stroke-linejoin="miter" points="1550.75,840.47 1588.19,845.081"/>
<text fill="#000000" x="1624.29" y="855.691" font-size="12" text-anchor="start" dy="0" font-family="Helvetica">-0.1</text>
<polyline fill="none" stroke="#000000" stroke-width="1" stroke-linecap="butt" stroke-linejoin="miter" points="1541.92,643.607 1579.35,648.218"/>
<text fill="#000000" x="1615.01" y="658.828" font-size="12" text-anchor="start" dy="0" font-family="Helvetica">-0.05</text>
<polyline fill="none" stroke="#000000" stroke-width="1" stroke-linecap="butt" stroke-linejoin="miter" points="1533.08,446.744 1570.52,451.354"/>
<text fill="#000000" x="1607.51" y="461.965" font-size="12" text-anchor="start" dy="0" font-family="Helvetica">0</text>
<polyline fill="none" stroke="#000000" stroke-width="1" stroke-linecap="butt" stroke-linejoin="miter" points="1524.24,249.881 1561.68,254.492"/>
<text fill="#000000" x="1597.59" y="265.102" font-size="12" text-anchor="start" dy="0" font-family="Helvetica">0.05</text>
<polyline fill="none" stroke="#000000" stroke-width="1" stroke-linecap="butt" stroke-linejoin="miter" points="528.137,928.724 528.137,928.724"/>
<polyline fill="none" stroke="#000000" stroke-width="1" stroke-linecap="butt" stroke-linejoin="miter" points="1519.86,152.276 1519.86,152.276"/>
<circle fill="#4daf4a" cx="1112.3" cy="390.58" r="5"/>
<circle fill="#4daf4a" cx="969.003" cy="544.889" r="5"/>
<circle fill="#4daf4a" cx="1220.22" cy="378.133" r="5"/>
<circle fill="#4daf4a" cx="1132.99" cy="441.432" r="5"/>
<circle fill="#4daf4a" cx="1230.18" cy="381.857" r="5"/>
<circle fill="#4daf4a" cx="1265.59" cy="546.791" r="5"/>
<circle fill="#4daf4a" cx="1201.77" cy="532.175" r="5"/>
<circle fill="#4daf4a" cx="1204.45" cy="480.123" r="5"/>
<circle fill="#4daf4a" cx="1187.06" cy="333.75" r="5"/>
<circle fill="#4daf4a" cx="1245.86" cy="612.012" r="5"/>
<circle fill="#4daf4a" cx="1193.61" cy="437.213" r="5"/>
<circle fill="#4daf4a" cx="1216.64" cy="228.33" r="5"/>
<circle fill="#4daf4a" cx="1092.44" cy="551.18" r="5"/>
<circle fill="#4daf4a" cx="1243.17" cy="354.252" r="5"/>
<circle fill="#4daf4a" cx="1137.13" cy="422.528" r="5"/>
<circle fill="#4daf4a" cx="969.773" cy="487.259" r="5"/>
<circle fill="#4daf4a" cx="1085.24" cy="622.281" r="5"/>
<circle fill="#e41a1c" cx="980.95" cy="450.38" r="5"/>
<circle fill="#e41a1c" cx="860.567" cy="230.606" r="5"/>
<circle fill="#e41a1c" cx="894.039" cy="530.656" r="5"/>
<circle fill="#e41a1c" cx="974.996" cy="458.175" r="5"/>
<circle fill="#e41a1c" cx="903.069" cy="481.343" r="5"/>
<circle fill="#e41a1c" cx="1012.61" cy="426.173" r="5"/>
<circle fill="#e41a1c" cx="946.589" cy="451.966" r="5"/>
<circle fill="#e41a1c" cx="1040.36" cy="461.148" r="5"/>
<circle fill="#e41a1c" cx="921.817" cy="426.22" r="5"/>
<circle fill="#e41a1c" cx="933.165" cy="552.585" r="5"/>
<circle fill="#e41a1c" cx="988.024" cy="470.621" r="5"/>
<circle fill="#e41a1c" cx="902.639" cy="547.835" r="5"/>
<circle fill="#e41a1c" cx="896.402" cy="557.689" r="5"/>
<circle fill="#1874cd" cx="779.918" cy="506.876" r="5"/>
<circle fill="#1874cd" cx="827.05" cy="464.107" r="5"/>
<circle fill="#1874cd" cx="906.72" cy="455.087" r="5"/>
<circle fill="#1874cd" cx="853.283" cy="402.937" r="5"/>
<circle fill="#1874cd" cx="748.31" cy="444.289" r="5"/>
<circle fill="#1874cd" cx="1086.89" cy="765.069" r="5"/>
<circle fill="#1874cd" cx="860.805" cy="397.983" r="5"/>
<circle fill="#1874cd" cx="733.223" cy="449.071" r="5"/>
<circle fill="#1874cd" cx="951.572" cy="612.853" r="5"/>
<circle fill="#1874cd" cx="732.506" cy="571.713" r="5"/>
<circle fill="#1874cd" cx="888.396" cy="371.327" r="5"/>
<circle fill="#1874cd" cx="933.165" cy="552.585" r="5"/>
<circle fill="#1874cd" cx="997.689" cy="866.606" r="5"/>
<circle fill="#1874cd" cx="775.275" cy="478.075" r="5"/>
<circle fill="#000000" cx="689.837" cy="397.133" r="5"/>
<circle fill="#000000" cx="1148.61" cy="720.572" r="5"/>
<text fill="#000000" x="1441.41" y="1003.16" font-size="12" text-anchor="start" dy="0" font-family="Helvetica">PC2 (14%)</text>
<text fill="#000000" x="1683.6" y="523.986" font-size="12" text-anchor="start" dy="0" font-family="Helvetica">PC3 (9.8%)</text>
<text fill="#000000" x="804.439" y="535.056" font-size="8" text-anchor="start" dy="0" font-family="Helvetica">KNM-WT_17400_URM2</text>
<text fill="#000000" x="1155.78" y="386.257" font-size="8" text-anchor="start" dy="0" font-family="Helvetica">Prob_SK829_ULM1</text>
<text fill="#000000" x="723.275" y="482.475" font-size="8" text-anchor="start" dy="0" font-family="Helvetica">SK_847_UM3</text>
<polygon fill="#e41a1c" fill-opacity="0.298039" shape-rendering="crispEdges" points="1012.61,426.173 860.567,230.606 894.039,530.656"/>
<text fill="#000000" x="797.367" y="235.006" font-size="8" text-anchor="start" dy="0" font-family="Helvetica">DNH_108_URM2</text>
<text fill="#000000" x="1186.37" y="358.652" font-size="8" text-anchor="start" dy="0" font-family="Helvetica">SK_829_ULM1</text>
<text fill="#000000" x="823.596" y="375.727" font-size="8" text-anchor="start" dy="0" font-family="Helvetica">SK_13.14_URM3</text>
<text fill="#000000" x="751.85" y="468.507" font-size="8" text-anchor="start" dy="0" font-family="Helvetica">Prob_DNH_3_ULM3</text>
<polygon fill="#4daf4a" fill-opacity="0.298039" shape-rendering="crispEdges" points="1243.17,354.252 1112.3,390.58 1230.18,381.857"/>
<polygon fill="#e41a1c" fill-opacity="0.298039" shape-rendering="crispEdges" points="896.402,557.689 860.567,230.606 894.039,530.656"/>
<polygon fill="#4daf4a" fill-opacity="0.298039" shape-rendering="crispEdges" points="1112.3,390.58 1230.18,381.857 969.003,544.889"/>
<text fill="#000000" x="879.403" y="549.289" font-size="8" text-anchor="start" dy="0" font-family="Helvetica">KNM-WT_17400_URM1</text>
<text fill="#000000" x="869.017" y="430.62" font-size="8" text-anchor="start" dy="0" font-family="Helvetica">SK_49_URM2</text>
<polygon fill="#1874cd" fill-opacity="0.298039" shape-rendering="crispEdges" points="888.396,371.327 1086.89,765.069 775.275,478.075"/>
<text fill="#000000" x="823.069" y="485.743" font-size="8" text-anchor="start" dy="0" font-family="Helvetica">Prob_SK_834_URM2</text>
<text fill="#000000" x="927.35" y="454.78" font-size="8" text-anchor="start" dy="0" font-family="Helvetica">DNH_7_URM2</text>
<text fill="#000000" x="1049.9" y="394.98" font-size="8" text-anchor="start" dy="0" font-family="Helvetica">DNH_108_ULM1</text>
<text fill="#000000" x="952.609" y="430.573" font-size="8" text-anchor="start" dy="0" font-family="Helvetica">SK13.14_URM2</text>
<polygon fill="#1874cd" fill-opacity="0.298039" shape-rendering="crispEdges" points="1086.89,765.069 997.689,866.606 775.275,478.075"/>
<polygon fill="#4daf4a" fill-opacity="0.298039" shape-rendering="crispEdges" points="1243.17,354.252 1245.86,612.012 1230.18,381.857"/>
<text fill="#000000" x="1046.59" y="445.832" font-size="8" text-anchor="start" dy="0" font-family="Helvetica">Prob_DNH_60A_ULM1</text>
<polygon fill="#4daf4a" fill-opacity="0.298039" shape-rendering="crispEdges" points="1245.86,612.012 1230.18,381.857 969.003,544.889"/>
<polygon fill="#1874cd" fill-opacity="0.298039" shape-rendering="crispEdges" points="888.396,371.327 733.223,449.071 775.275,478.075"/>
<text fill="#000000" x="722.318" y="511.276" font-size="8" text-anchor="start" dy="0" font-family="Helvetica">DNH_54_ULM3</text>
<polygon fill="#e41a1c" fill-opacity="0.298039" shape-rendering="crispEdges" points="1012.61,426.173 1040.36,461.148 894.039,530.656"/>
<text fill="#000000" x="1001.29" y="769.469" font-size="8" text-anchor="start" dy="0" font-family="Helvetica">Prob_SK_831A_ULM3</text>
<polygon fill="#4daf4a" fill-opacity="0.298039" shape-rendering="crispEdges" points="1112.3,390.58 969.773,487.259 969.003,544.889"/>
<polygon fill="#e41a1c" fill-opacity="0.298039" shape-rendering="crispEdges" points="896.402,557.689 933.165,552.585 894.039,530.656"/>
<polygon fill="#e41a1c" fill-opacity="0.298039" shape-rendering="crispEdges" points="1012.61,426.173 860.567,230.606 1040.36,461.148"/>
<text fill="#000000" x="940.89" y="871.006" font-size="8" text-anchor="start" dy="0" font-family="Helvetica">SK_105_ULM3</text>
<polygon fill="#4daf4a" fill-opacity="0.298039" shape-rendering="crispEdges" points="1243.17,354.252 1112.3,390.58 1216.64,228.33"/>
<text fill="#000000" x="836.239" y="552.235" font-size="8" text-anchor="start" dy="0" font-family="Helvetica">TM_1517a_ULM2</text>
<text fill="#000000" x="828.402" y="562.089" font-size="8" text-anchor="start" dy="0" font-family="Helvetica">TM_1517C_URM2</text>
<polygon fill="#1874cd" fill-opacity="0.298039" shape-rendering="crispEdges" points="997.689,866.606 732.506,571.713 775.275,478.075"/>
<polygon fill="#1874cd" fill-opacity="0.298039" shape-rendering="crispEdges" points="888.396,371.327 1086.89,765.069 860.805,397.983"/>
<polygon fill="#e41a1c" fill-opacity="0.298039" shape-rendering="crispEdges" points="896.402,557.689 860.567,230.606 933.165,552.585"/>
<text fill="#000000" x="1035.64" y="555.58" font-size="8" text-anchor="start" dy="0" font-family="Helvetica">SK_102_ULM1</text>
<polygon fill="#e41a1c" fill-opacity="0.298039" shape-rendering="crispEdges" points="933.165,552.585 1040.36,461.148 894.039,530.656"/>
<polygon fill="#1874cd" fill-opacity="0.298039" shape-rendering="crispEdges" points="1086.89,765.069 997.689,866.606 951.572,612.853"/>
<polygon fill="#4daf4a" fill-opacity="0.298039" shape-rendering="crispEdges" points="1085.24,622.281 1245.86,612.012 969.003,544.889"/>
<polygon fill="#1874cd" fill-opacity="0.298039" shape-rendering="crispEdges" points="733.223,449.071 732.506,571.713 775.275,478.075"/>
<polygon fill="#e41a1c" fill-opacity="0.298039" shape-rendering="crispEdges" points="946.589,451.966 860.567,230.606 1040.36,461.148"/>
<polygon fill="#e41a1c" fill-opacity="0.298039" shape-rendering="crispEdges" points="946.589,451.966 860.567,230.606 933.165,552.585"/>
<polygon fill="#4daf4a" fill-opacity="0.298039" shape-rendering="crispEdges" points="1243.17,354.252 1245.86,612.012 1265.59,546.791"/>
<text fill="#000000" x="837.12" y="459.487" font-size="8" text-anchor="start" dy="0" font-family="Helvetica">Prob_SK16_ULM3</text>
<polygon fill="#4daf4a" fill-opacity="0.298039" shape-rendering="crispEdges" points="1085.24,622.281 969.773,487.259 969.003,544.889"/>
<polygon fill="#1874cd" fill-opacity="0.298039" shape-rendering="crispEdges" points="888.396,371.327 733.223,449.071 860.805,397.983"/>
<text fill="#000000" x="899.796" y="462.575" font-size="8" text-anchor="start" dy="0" font-family="Helvetica">Prob_SK_48_URM2</text>
<text fill="#000000" x="1074.73" y="426.928" font-size="8" text-anchor="start" dy="0" font-family="Helvetica">SK_838a_URM1</text>
<polygon fill="#4daf4a" fill-opacity="0.298039" shape-rendering="crispEdges" points="1112.3,390.58 969.773,487.259 1216.64,228.33"/>
<text fill="#000000" x="1125.25" y="484.522" font-size="8" text-anchor="start" dy="0" font-family="Helvetica">Prob_SK_832_ULM1</text>
<polygon fill="#4daf4a" fill-opacity="0.298039" shape-rendering="crispEdges" points="1243.17,354.252 1216.64,228.33 1265.59,546.791"/>
<text fill="#000000" x="1198.66" y="616.412" font-size="8" text-anchor="start" dy="0" font-family="Helvetica">SK27_ULM1</text>
<polygon fill="#1874cd" fill-opacity="0.298039" shape-rendering="crispEdges" points="933.165,552.585 1086.89,765.069 951.572,612.853"/>
<polygon fill="#1874cd" fill-opacity="0.298039" shape-rendering="crispEdges" points="933.165,552.585 1086.89,765.069 860.805,397.983"/>
<polygon fill="#1874cd" fill-opacity="0.298039" shape-rendering="crispEdges" points="997.689,866.606 732.506,571.713 951.572,612.853"/>
<text fill="#000000" x="1122.57" y="536.575" font-size="8" text-anchor="start" dy="0" font-family="Helvetica">Prob_SK_89a_ULM1</text>
<text fill="#000000" x="927.225" y="475.021" font-size="8" text-anchor="start" dy="0" font-family="Helvetica">SKW_33_URM2</text>
<text fill="#000000" x="896.173" y="491.659" font-size="8" text-anchor="start" dy="0" font-family="Helvetica">SK_14129A_URM1</text>
<text fill="#000000" x="1127.06" y="338.15" font-size="8" text-anchor="start" dy="0" font-family="Helvetica">SK13.14_URM1</text>
<text fill="#000000" x="621.837" y="401.533" font-size="8" text-anchor="start" dy="0" font-family="Helvetica">UW105-676_URM</text>
<text fill="#000000" x="648.423" y="453.471" font-size="8" text-anchor="start" dy="0" font-family="Helvetica">Prob_SK_3977_URM3</text>
<text fill="#000000" x="872.989" y="456.366" font-size="8" text-anchor="start" dy="0" font-family="Helvetica">SK_16.1591_ULM2</text>
<polygon fill="#4daf4a" fill-opacity="0.298039" shape-rendering="crispEdges" points="1085.24,622.281 1245.86,612.012 1265.59,546.791"/>
<polygon fill="#1874cd" fill-opacity="0.298039" shape-rendering="crispEdges" points="748.31,444.289 733.223,449.071 732.506,571.713"/>
<polygon fill="#e41a1c" fill-opacity="0.298039" shape-rendering="crispEdges" points="946.589,451.966 933.165,552.585 1040.36,461.148"/>
<text fill="#000000" x="861.172" y="617.253" font-size="8" text-anchor="start" dy="0" font-family="Helvetica">Prob_SKX21841_URM3</text>
<polygon fill="#1874cd" fill-opacity="0.298039" shape-rendering="crispEdges" points="748.31,444.289 733.223,449.071 860.805,397.983"/>
<text fill="#000000" x="1018.84" y="626.681" font-size="8" text-anchor="start" dy="0" font-family="Helvetica">TM_1517a_ULM1</text>
<text fill="#000000" x="668.31" y="448.689" font-size="8" text-anchor="start" dy="0" font-family="Helvetica">Prob_SK3977_URM3</text>
<text fill="#000000" x="1133.82" y="382.533" font-size="8" text-anchor="start" dy="0" font-family="Helvetica">Prob_DNH_57B_URM1</text>
<text fill="#000000" x="987.564" y="465.548" font-size="8" text-anchor="start" dy="0" font-family="Helvetica">SK_47_URM2</text>
<polygon fill="#1874cd" fill-opacity="0.298039" shape-rendering="crispEdges" points="933.165,552.585 732.506,571.713 951.572,612.853"/>
<text fill="#000000" x="880.365" y="556.985" font-size="8" text-anchor="start" dy="0" font-family="Helvetica">SK_52_URM2</text>
<text fill="#000000" x="880.365" y="556.985" font-size="8" text-anchor="start" dy="0" font-family="Helvetica">SK_52_URM3</text>
<polygon fill="#4daf4a" fill-opacity="0.298039" shape-rendering="crispEdges" points="1085.24,622.281 1193.61,437.213 969.773,487.259"/>
<polygon fill="#1874cd" fill-opacity="0.298039" shape-rendering="crispEdges" points="853.283,402.937 748.31,444.289 732.506,571.713"/>
<text fill="#000000" x="646.906" y="576.113" font-size="8" text-anchor="start" dy="0" font-family="Helvetica">Prob_TM1517C_URM3</text>
<polygon fill="#1874cd" fill-opacity="0.298039" shape-rendering="crispEdges" points="853.283,402.937 748.31,444.289 860.805,397.983"/>
<polygon fill="#1874cd" fill-opacity="0.298039" shape-rendering="crispEdges" points="853.283,402.937 933.165,552.585 732.506,571.713"/>
<polygon fill="#4daf4a" fill-opacity="0.298039" shape-rendering="crispEdges" points="1193.61,437.213 969.773,487.259 1216.64,228.33"/>
<text fill="#000000" x="1163.84" y="232.73" font-size="8" text-anchor="start" dy="0" font-family="Helvetica">SK_52_URM1</text>
<polygon fill="#1874cd" fill-opacity="0.298039" shape-rendering="crispEdges" points="853.283,402.937 933.165,552.585 860.805,397.983"/>
<text fill="#000000" x="776.805" y="402.383" font-size="8" text-anchor="start" dy="0" font-family="Helvetica">Prob_SK_3975_ULM3</text>
<text fill="#000000" x="774.083" y="407.337" font-size="8" text-anchor="start" dy="0" font-family="Helvetica">Prob_SK3975_ULM3</text>
<polygon fill="#4daf4a" fill-opacity="0.298039" shape-rendering="crispEdges" points="1085.24,622.281 1193.61,437.213 1265.59,546.791"/>
<text fill="#000000" x="1069.41" y="724.972" font-size="8" text-anchor="start" dy="0" font-family="Helvetica">UW_105_042_URM1</text>
<polygon fill="#4daf4a" fill-opacity="0.298039" shape-rendering="crispEdges" points="1193.61,437.213 1216.64,228.33 1265.59,546.791"/>
<text fill="#000000" x="1190.39" y="551.191" font-size="8" text-anchor="start" dy="0" font-family="Helvetica">Prob_SK_47_URM1</text>
<text fill="#000000" x="1140.81" y="441.613" font-size="8" text-anchor="start" dy="0" font-family="Helvetica">SK_48_URM1</text>
</g>
</svg>
