<?xml version="1.0" encoding="UTF-8" standalone="no"?>
<svg xmlns="http://www.w3.org/2000/svg"
     xmlns:xlink="http://www.w3.org/1999/xlink"
     width="2048pt" height="1081pt" viewBox="0 0 2048 1081">
<title>D:/3D_GM/Projects/UW105/Results/Taxonomic_assessment/UW105_006/3D_PCA_labeled_updated.svg</title>
<desc>
Creator: GL2PS 1.4.2, (C) 1999-2020 C. Geuzaine
For: Generated by rgl
CreationDate: Wed Jan 28 16:03:22 2026
</desc>
<defs>
</defs>
<g>
<polygon fill="#ffffff" shape-rendering="crispEdges" points="0,1081 2048,1081 2048,0"/>
<polygon fill="#ffffff" shape-rendering="crispEdges" points="0,1081 2048,0 0,0"/>
<polyline fill="none" stroke="#000000" stroke-width="1" stroke-linecap="butt" stroke-linejoin="miter" points="1038.52,94.4434 1411.28,388.375"/>
<polyline fill="none" stroke="#000000" stroke-width="1" stroke-linecap="butt" stroke-linejoin="miter" points="1411.28,388.375 1055.48,653.223"/>
<polyline fill="none" stroke="#000000" stroke-width="1" stroke-linecap="butt" stroke-linejoin="miter" points="1055.48,653.223 682.728,359.292"/>
<polyline fill="none" stroke="#000000" stroke-width="1" stroke-linecap="butt" stroke-linejoin="miter" points="682.728,359.292 1038.52,94.4434"/>
<polyline fill="none" stroke="#000000" stroke-width="1" stroke-linecap="butt" stroke-linejoin="miter" points="636.724,692.625 682.728,359.292"/>
<polyline fill="none" stroke="#000000" stroke-width="1" stroke-linecap="butt" stroke-linejoin="miter" points="682.728,359.292 1055.48,653.223"/>
<polyline fill="none" stroke="#000000" stroke-width="1" stroke-linecap="butt" stroke-linejoin="miter" points="1055.48,653.223 1009.48,986.557"/>
<polyline fill="none" stroke="#000000" stroke-width="1" stroke-linecap="butt" stroke-linejoin="miter" points="1009.48,986.557 636.724,692.625"/>
<polyline fill="none" stroke="#000000" stroke-width="1" stroke-linecap="butt" stroke-linejoin="miter" points="1365.27,721.708 1009.48,986.557"/>
<polyline fill="none" stroke="#000000" stroke-width="1" stroke-linecap="butt" stroke-linejoin="miter" points="1009.48,986.557 1055.48,653.223"/>
<polyline fill="none" stroke="#000000" stroke-width="1" stroke-linecap="butt" stroke-linejoin="miter" points="1055.48,653.223 1411.28,388.375"/>
<polyline fill="none" stroke="#000000" stroke-width="1" stroke-linecap="butt" stroke-linejoin="miter" points="1411.28,388.375 1365.27,721.708"/>
<polyline fill="none" stroke="#000000" stroke-width="1" stroke-linecap="butt" stroke-linejoin="miter" points="1343.61,737.834 1340.54,760.056"/>
<text fill="#000000" x="1326.68" y="788.278" font-size="12" text-anchor="start" dy="0" font-family="Helvetica">-0.1</text>
<polyline fill="none" stroke="#000000" stroke-width="1" stroke-linecap="butt" stroke-linejoin="miter" points="1284.94,781.509 1281.87,803.731"/>
<text fill="#000000" x="1264.4" y="831.954" font-size="12" text-anchor="start" dy="0" font-family="Helvetica">-0.05</text>
<polyline fill="none" stroke="#000000" stroke-width="1" stroke-linecap="butt" stroke-linejoin="miter" points="1226.26,825.185 1223.2,847.407"/>
<text fill="#000000" x="1216.53" y="875.629" font-size="12" text-anchor="start" dy="0" font-family="Helvetica">0</text>
<polyline fill="none" stroke="#000000" stroke-width="1" stroke-linecap="butt" stroke-linejoin="miter" points="1167.59,868.86 1164.53,891.083"/>
<text fill="#000000" x="1149.06" y="919.305" font-size="12" text-anchor="start" dy="0" font-family="Helvetica">0.05</text>
<polyline fill="none" stroke="#000000" stroke-width="1" stroke-linecap="butt" stroke-linejoin="miter" points="1108.92,912.536 1105.85,934.758"/>
<text fill="#000000" x="1093.99" y="962.98" font-size="12" text-anchor="start" dy="0" font-family="Helvetica">0.1</text>
<polyline fill="none" stroke="#000000" stroke-width="1" stroke-linecap="butt" stroke-linejoin="miter" points="1050.25,956.211 1047.18,978.434"/>
<text fill="#000000" x="1031.71" y="1006.66" font-size="12" text-anchor="start" dy="0" font-family="Helvetica">0.15</text>
<polyline fill="none" stroke="#000000" stroke-width="1" stroke-linecap="butt" stroke-linejoin="miter" points="697.351,740.431 694.284,762.653"/>
<text fill="#000000" x="676.817" y="790.875" font-size="12" text-anchor="start" dy="0" font-family="Helvetica">-0.05</text>
<polyline fill="none" stroke="#000000" stroke-width="1" stroke-linecap="butt" stroke-linejoin="miter" points="809.167,828.602 806.1,850.824"/>
<text fill="#000000" x="799.433" y="879.046" font-size="12" text-anchor="start" dy="0" font-family="Helvetica">0</text>
<polyline fill="none" stroke="#000000" stroke-width="1" stroke-linecap="butt" stroke-linejoin="miter" points="920.984,916.773 917.917,938.996"/>
<text fill="#000000" x="902.45" y="967.218" font-size="12" text-anchor="start" dy="0" font-family="Helvetica">0.05</text>
<polyline fill="none" stroke="#000000" stroke-width="1" stroke-linecap="butt" stroke-linejoin="miter" points="1405.8,428.047 1429.52,410.39"/>
<text fill="#000000" x="1442.52" y="398.734" font-size="12" text-anchor="start" dy="0" font-family="Helvetica">-0.05</text>
<polyline fill="none" stroke="#000000" stroke-width="1" stroke-linecap="butt" stroke-linejoin="miter" points="1393.22,519.216 1416.94,501.56"/>
<text fill="#000000" x="1437.98" y="489.903" font-size="12" text-anchor="start" dy="0" font-family="Helvetica">0</text>
<polyline fill="none" stroke="#000000" stroke-width="1" stroke-linecap="butt" stroke-linejoin="miter" points="1380.64,610.385 1404.36,592.729"/>
<text fill="#000000" x="1418.84" y="581.072" font-size="12" text-anchor="start" dy="0" font-family="Helvetica">0.05</text>
<polyline fill="none" stroke="#000000" stroke-width="1" stroke-linecap="butt" stroke-linejoin="miter" points="1368.05,701.555 1391.77,683.898"/>
<text fill="#000000" x="1408.94" y="672.242" font-size="12" text-anchor="start" dy="0" font-family="Helvetica">0.1</text>
<polyline fill="none" stroke="#000000" stroke-width="1" stroke-linecap="butt" stroke-linejoin="miter" points="1038.52,94.4434 1038.52,94.4434"/>
<polyline fill="none" stroke="#000000" stroke-width="1" stroke-linecap="butt" stroke-linejoin="miter" points="1009.48,986.557 1009.48,986.557"/>
<circle fill="#e41a1c" cx="1153.01" cy="410.928" r="5"/>
<circle fill="#e41a1c" cx="1103.1" cy="513.869" r="5"/>
<circle fill="#1874cd" cx="1098.37" cy="434.658" r="5"/>
<circle fill="#1874cd" cx="952.224" cy="219.969" r="5"/>
<circle fill="#4daf4a" cx="1243.16" cy="494.452" r="5"/>
<circle fill="#e41a1c" cx="1127.28" cy="435.308" r="5"/>
<circle fill="#8b2323" cx="1337.51" cy="491.285" r="5"/>
<circle fill="#cd661d" cx="913.96" cy="550.386" r="5"/>
<circle fill="#4daf4a" cx="1199.3" cy="537.458" r="5"/>
<circle fill="#4daf4a" cx="1207.81" cy="562.038" r="5"/>
<circle fill="#1874cd" cx="966.065" cy="387.913" r="5"/>
<circle fill="#1874cd" cx="1047.45" cy="308.855" r="5"/>
<circle fill="#1874cd" cx="954.869" cy="266.672" r="5"/>
<circle fill="#1874cd" cx="1029.71" cy="411.207" r="5"/>
<circle fill="#1874cd" cx="1105.16" cy="455.083" r="5"/>
<circle fill="#1874cd" cx="911.813" cy="333.987" r="5"/>
<circle fill="#1874cd" cx="916.991" cy="377.202" r="5"/>
<circle fill="#cd661d" cx="1017.69" cy="408.878" r="5"/>
<circle fill="#cd661d" cx="909.449" cy="329.21" r="5"/>
<circle fill="#cd661d" cx="1276.48" cy="557.163" r="5"/>
<circle fill="#cd661d" cx="932.583" cy="556.844" r="5"/>
<circle fill="#cd661d" cx="1181.17" cy="555.81" r="5"/>
<circle fill="#8b864e" cx="921.938" cy="555.875" r="5"/>
<circle fill="#8b864e" cx="902.321" cy="648.385" r="5"/>
<circle fill="#8b864e" cx="1027.95" cy="630.567" r="5"/>
<circle fill="#8b864e" cx="925.336" cy="752.843" r="5"/>
<circle fill="#000000" cx="1092.49" cy="361.094" r="5"/>
<text fill="#000000" x="1163.56" y="968.617" font-size="12" text-anchor="start" dy="0" font-family="Helvetica">PC1 (46.7%)</text>
<text fill="#000000" x="755.916" y="952.137" font-size="12" text-anchor="start" dy="0" font-family="Helvetica">PC2 (20%)</text>
<text fill="#000000" x="1471.6" y="510.01" font-size="12" text-anchor="start" dy="0" font-family="Helvetica">PC3 (16.4%)</text>
<text fill="#000000" x="858.982" y="562.044" font-size="9" text-anchor="start" dy="0" font-family="Helvetica">STW183a_URI1</text>
<text fill="#000000" x="1076.88" y="440.508" font-size="9" text-anchor="start" dy="0" font-family="Helvetica">LH3b_ULI1</text>
<polygon fill="#cd661d" fill-opacity="0.298039" shape-rendering="crispEdges" points="1017.69,408.878 932.583,556.844 1276.48,557.163"/>
<text fill="#000000" x="952.887" y="414.078" font-size="9" text-anchor="start" dy="0" font-family="Helvetica">STS24a_URI1</text>
<polygon fill="#cd661d" fill-opacity="0.298039" shape-rendering="crispEdges" points="1017.69,408.878 909.449,329.21 932.583,556.844"/>
<polygon fill="#cd661d" fill-opacity="0.298039" shape-rendering="crispEdges" points="1181.17,555.81 932.583,556.844 1276.48,557.163"/>
<polygon fill="#cd661d" fill-opacity="0.298039" shape-rendering="crispEdges" points="1181.17,555.81 913.96,550.386 932.583,556.844"/>
<text fill="#000000" x="1025.96" y="460.283" font-size="9" text-anchor="start" dy="0" font-family="Helvetica">Prob_SK68_ULI1</text>
<text fill="#000000" x="1161.28" y="562.363" font-size="9" text-anchor="start" dy="0" font-family="Helvetica">STW75_STW78.79_ULI1</text>
<polygon fill="#cd661d" fill-opacity="0.298039" shape-rendering="crispEdges" points="1017.69,408.878 909.449,329.21 1276.48,557.163"/>
<polygon fill="#cd661d" fill-opacity="0.298039" shape-rendering="crispEdges" points="913.96,550.386 909.449,329.21 932.583,556.844"/>
<text fill="#000000" x="944.746" y="635.768" font-size="9" text-anchor="start" dy="0" font-family="Helvetica">UW101_931_ULI1</text>
<text fill="#000000" x="1144.9" y="542.659" font-size="9" text-anchor="start" dy="0" font-family="Helvetica">OH16_URI1</text>
<text fill="#000000" x="1009.29" y="366.294" font-size="9" text-anchor="start" dy="0" font-family="Helvetica">UW_105_006_UI1</text>
<text fill="#000000" x="1114.77" y="561.01" font-size="9" text-anchor="start" dy="0" font-family="Helvetica">STW252_ULI1</text>
<text fill="#000000" x="1287.91" y="496.485" font-size="9" text-anchor="start" dy="0" font-family="Helvetica">MH1_URI1</text>
<polygon fill="#cd661d" fill-opacity="0.298039" shape-rendering="crispEdges" points="1181.17,555.81 913.96,550.386 1276.48,557.163"/>
<polygon fill="#8b864e" fill-opacity="0.298039" shape-rendering="crispEdges" points="1027.95,630.567 902.321,648.385 921.938,555.875"/>
<text fill="#000000" x="819.121" y="653.585" font-size="9" text-anchor="start" dy="0" font-family="Helvetica">UW101_591_ULI1</text>
<polygon fill="#1874cd" fill-opacity="0.298039" shape-rendering="crispEdges" points="1047.45,308.855 952.224,219.969 1105.16,455.083"/>
<polygon fill="#1874cd" fill-opacity="0.298039" shape-rendering="crispEdges" points="952.224,219.969 1105.16,455.083 911.813,333.987"/>
<polygon fill="#cd661d" fill-opacity="0.298039" shape-rendering="crispEdges" points="913.96,550.386 909.449,329.21 1276.48,557.163"/>
<text fill="#000000" x="846.249" y="334.411" font-size="9" text-anchor="start" dy="0" font-family="Helvetica">STS52a_ULI1</text>
<polygon fill="#8b864e" fill-opacity="0.298039" shape-rendering="crispEdges" points="925.336,752.843 1027.95,630.567 902.321,648.385"/>
<text fill="#000000" x="885.824" y="225.169" font-size="9" text-anchor="start" dy="0" font-family="Helvetica">DNH108_URI1</text>
<polygon fill="#e41a1c" fill-opacity="0.298039" shape-rendering="crispEdges" points="1153.01,410.928 1103.1,513.869 1127.28,435.308"/>
<text fill="#000000" x="972.248" y="314.055" font-size="9" text-anchor="start" dy="0" font-family="Helvetica">Prob_SK2_URI1</text>
<polygon fill="#8b864e" fill-opacity="0.298039" shape-rendering="crispEdges" points="925.336,752.843 1027.95,630.567 921.938,555.875"/>
<polygon fill="#1874cd" fill-opacity="0.298039" shape-rendering="crispEdges" points="916.991,377.202 1105.16,455.083 911.813,333.987"/>
<text fill="#000000" x="837.138" y="561.075" font-size="9" text-anchor="start" dy="0" font-family="Helvetica">UW101_038_URI1</text>
<polygon fill="#1874cd" fill-opacity="0.298039" shape-rendering="crispEdges" points="1047.45,308.855 1105.16,455.083 1098.37,434.658"/>
<text fill="#000000" x="821.413" y="339.188" font-size="9" text-anchor="start" dy="0" font-family="Helvetica">Prob_SKX240_ULI1</text>
<polygon fill="#8b864e" fill-opacity="0.298039" shape-rendering="crispEdges" points="925.336,752.843 902.321,648.385 921.938,555.875"/>
<polygon fill="#4daf4a" fill-opacity="0.298039" shape-rendering="crispEdges" points="1243.16,494.452 1199.3,537.458 1207.81,562.038"/>
<text fill="#000000" x="950.511" y="416.407" font-size="9" text-anchor="start" dy="0" font-family="Helvetica">Prob_SK40_ULI1</text>
<text fill="#000000" x="854.76" y="555.586" font-size="9" text-anchor="start" dy="0" font-family="Helvetica">MLD43_ULI1</text>
<text fill="#000000" x="1082.61" y="416.128" font-size="9" text-anchor="start" dy="0" font-family="Helvetica">AL200-1a_ULI1</text>
<polygon fill="#1874cd" fill-opacity="0.298039" shape-rendering="crispEdges" points="916.991,377.202 952.224,219.969 911.813,333.987"/>
<polygon fill="#1874cd" fill-opacity="0.298039" shape-rendering="crispEdges" points="916.991,377.202 1105.16,455.083 1098.37,434.658"/>
<polygon fill="#1874cd" fill-opacity="0.298039" shape-rendering="crispEdges" points="1047.45,308.855 952.224,219.969 1098.37,434.658"/>
<polygon fill="#1874cd" fill-opacity="0.298039" shape-rendering="crispEdges" points="954.869,266.672 916.991,377.202 952.224,219.969"/>
<text fill="#000000" x="879.669" y="271.872" font-size="9" text-anchor="start" dy="0" font-family="Helvetica">Prob_SK3_URI1</text>
<polygon fill="#1874cd" fill-opacity="0.298039" shape-rendering="crispEdges" points="954.869,266.672 952.224,219.969 1098.37,434.658"/>
<text fill="#000000" x="1153.41" y="567.238" font-size="9" text-anchor="start" dy="0" font-family="Helvetica">OH39_URI1</text>
<text fill="#000000" x="875.665" y="393.113" font-size="9" text-anchor="start" dy="0" font-family="Helvetica">Prob_KB5389_ULI1</text>
<text fill="#000000" x="834.937" y="758.043" font-size="9" text-anchor="start" dy="0" font-family="Helvetica">UW101_1558_URI1</text>
<polygon fill="#1874cd" fill-opacity="0.298039" shape-rendering="crispEdges" points="954.869,266.672 916.991,377.202 1098.37,434.658"/>
<text fill="#000000" x="864.991" y="382.402" font-size="9" text-anchor="start" dy="0" font-family="Helvetica">SK65_ULI1</text>
<text fill="#000000" x="1133.56" y="499.652" font-size="9" text-anchor="start" dy="0" font-family="Helvetica">KNM-WT_15000A_ULI1</text>
<text fill="#000000" x="1039.17" y="439.858" font-size="9" text-anchor="start" dy="0" font-family="Helvetica">DNH93_ULI1</text>
<text fill="#000000" x="1038.3" y="519.069" font-size="9" text-anchor="start" dy="0" font-family="Helvetica">AL486-1_ULI1</text>
</g>
</svg>
