<?xml version="1.0" encoding="UTF-8" standalone="no"?>
<svg xmlns="http://www.w3.org/2000/svg"
     xmlns:xlink="http://www.w3.org/1999/xlink"
     width="2048pt" height="1081pt" viewBox="0 0 2048 1081">
<title>D:/3D_GM/Projects/UW105/Results/Taxonomic_assessment/UW105_006/UW105_006_shape_PCA_labelled.svg</title>
<desc>
Creator: GL2PS 1.4.2, (C) 1999-2020 C. Geuzaine
For: Generated by rgl
CreationDate: Fri Jan 23 11:02:16 2026
</desc>
<defs>
</defs>
<g>
<polygon fill="#ffffff" shape-rendering="crispEdges" points="0,1081 2048,1081 2048,0"/>
<polygon fill="#ffffff" shape-rendering="crispEdges" points="0,1081 2048,0 0,0"/>
<polyline fill="none" stroke="#000000" stroke-width="1" stroke-linecap="butt" stroke-linejoin="miter" points="1390.25,904.934 846.092,928.701"/>
<polyline fill="none" stroke="#000000" stroke-width="1" stroke-linecap="butt" stroke-linejoin="miter" points="846.092,928.701 602.197,745.884"/>
<polyline fill="none" stroke="#000000" stroke-width="1" stroke-linecap="butt" stroke-linejoin="miter" points="602.197,745.884 1146.35,722.117 1390.25,904.934"/>
<polyline fill="none" stroke="#000000" stroke-width="1" stroke-linecap="butt" stroke-linejoin="miter" points="1201.91,152.299 1146.35,722.117"/>
<polyline fill="none" stroke="#000000" stroke-width="1" stroke-linecap="butt" stroke-linejoin="miter" points="1146.35,722.117 602.197,745.884"/>
<polyline fill="none" stroke="#000000" stroke-width="1" stroke-linecap="butt" stroke-linejoin="miter" points="602.197,745.884 657.75,176.066"/>
<polyline fill="none" stroke="#0a0a0a" stroke-width="1" stroke-linecap="butt" stroke-linejoin="miter" points="657.75,176.066 1201.91,152.299"/>
<polyline fill="none" stroke="#000000" stroke-width="1" stroke-linecap="butt" stroke-linejoin="miter" points="1390.25,904.934 1146.35,722.117"/>
<polyline fill="none" stroke="#000000" stroke-width="1" stroke-linecap="butt" stroke-linejoin="miter" points="1146.35,722.117 1201.91,152.299"/>
<polyline fill="none" stroke="#000000" stroke-width="1" stroke-linecap="butt" stroke-linejoin="miter" points="1201.91,152.299 1445.8,335.116"/>
<polyline fill="none" stroke="#000000" stroke-width="1" stroke-linecap="butt" stroke-linejoin="miter" points="1445.8,335.116 1390.25,904.934"/>
<polyline fill="none" stroke="#000000" stroke-width="1" stroke-linecap="butt" stroke-linejoin="miter" points="1430.95,323.985 1434.66,285.997"/>
<text fill="#000000" x="1427.56" y="254.009" font-size="12" text-anchor="start" dy="0" font-family="Helvetica">-0.1</text>
<polyline fill="none" stroke="#000000" stroke-width="1" stroke-linecap="butt" stroke-linejoin="miter" points="1390.73,293.837 1394.44,255.849"/>
<text fill="#000000" x="1383.74" y="223.861" font-size="12" text-anchor="start" dy="0" font-family="Helvetica">-0.05</text>
<polyline fill="none" stroke="#000000" stroke-width="1" stroke-linecap="butt" stroke-linejoin="miter" points="1350.51,263.689 1354.22,225.701"/>
<text fill="#000000" x="1354.32" y="193.713" font-size="12" text-anchor="start" dy="0" font-family="Helvetica">0</text>
<polyline fill="none" stroke="#000000" stroke-width="1" stroke-linecap="butt" stroke-linejoin="miter" points="1310.29,233.542 1314,195.553"/>
<text fill="#000000" x="1305.3" y="163.565" font-size="12" text-anchor="start" dy="0" font-family="Helvetica">0.05</text>
<polyline fill="none" stroke="#000000" stroke-width="1" stroke-linecap="butt" stroke-linejoin="miter" points="1270.07,203.394 1273.78,165.405"/>
<text fill="#000000" x="1268.68" y="133.417" font-size="12" text-anchor="start" dy="0" font-family="Helvetica">0.1</text>
<polyline fill="none" stroke="#000000" stroke-width="1" stroke-linecap="butt" stroke-linejoin="miter" points="1229.85,173.246 1233.56,135.258"/>
<text fill="#000000" x="1224.86" y="103.27" font-size="12" text-anchor="start" dy="0" font-family="Helvetica">0.15</text>
<polyline fill="none" stroke="#000000" stroke-width="1" stroke-linecap="butt" stroke-linejoin="miter" points="1301.75,908.799 1318.01,920.987"/>
<text fill="#000000" x="1323.47" y="939.175" font-size="12" text-anchor="start" dy="0" font-family="Helvetica">-0.05</text>
<polyline fill="none" stroke="#000000" stroke-width="1" stroke-linecap="butt" stroke-linejoin="miter" points="1138.52,915.929 1154.77,928.117"/>
<text fill="#000000" x="1168.34" y="946.305" font-size="12" text-anchor="start" dy="0" font-family="Helvetica">0</text>
<polyline fill="none" stroke="#000000" stroke-width="1" stroke-linecap="butt" stroke-linejoin="miter" points="975.283,923.059 991.543,935.246"/>
<text fill="#000000" x="998.508" y="953.434" font-size="12" text-anchor="start" dy="0" font-family="Helvetica">0.05</text>
<polyline fill="none" stroke="#000000" stroke-width="1" stroke-linecap="butt" stroke-linejoin="miter" points="1396.86,837.116 1413.12,849.304"/>
<text fill="#000000" x="1418.59" y="867.492" font-size="12" text-anchor="start" dy="0" font-family="Helvetica">-0.05</text>
<polyline fill="none" stroke="#000000" stroke-width="1" stroke-linecap="butt" stroke-linejoin="miter" points="1412.06,681.267 1428.32,693.454"/>
<text fill="#000000" x="1441.88" y="711.642" font-size="12" text-anchor="start" dy="0" font-family="Helvetica">0</text>
<polyline fill="none" stroke="#000000" stroke-width="1" stroke-linecap="butt" stroke-linejoin="miter" points="1427.25,525.417 1443.51,537.604"/>
<text fill="#000000" x="1450.47" y="555.792" font-size="12" text-anchor="start" dy="0" font-family="Helvetica">0.05</text>
<polyline fill="none" stroke="#000000" stroke-width="1" stroke-linecap="butt" stroke-linejoin="miter" points="1442.44,369.567 1458.7,381.755"/>
<text fill="#000000" x="1468.37" y="399.943" font-size="12" text-anchor="start" dy="0" font-family="Helvetica">0.1</text>
<polyline fill="none" stroke="#000000" stroke-width="1" stroke-linecap="butt" stroke-linejoin="miter" points="1390.25,904.934 1390.25,904.934"/>
<polyline fill="none" stroke="#000000" stroke-width="1" stroke-linecap="butt" stroke-linejoin="miter" points="657.75,176.066 657.75,176.066"/>
<circle fill="#e41a1c" cx="1101.83" cy="668.793" r="5"/>
<circle fill="#e41a1c" cx="1157.11" cy="459.255" r="5"/>
<circle fill="#1874cd" cx="1196.39" cy="547.523" r="5"/>
<circle fill="#1874cd" cx="1308.31" cy="785.499" r="5"/>
<circle fill="#4daf4a" cx="1057.51" cy="575.993" r="5"/>
<circle fill="#e41a1c" cx="899.631" cy="814.709" r="5"/>
<circle fill="#e41a1c" cx="868.93" cy="749.275" r="5"/>
<circle fill="#e41a1c" cx="1099.83" cy="459.366" r="5"/>
<circle fill="#4daf4a" cx="884.717" cy="666.656" r="5"/>
<circle fill="#4daf4a" cx="989.261" cy="533.256" r="5"/>
<circle fill="#1874cd" cx="1243.22" cy="581.763" r="5"/>
<circle fill="#1874cd" cx="1202.04" cy="740.339" r="5"/>
<circle fill="#1874cd" cx="1323.88" cy="698.356" r="5"/>
<circle fill="#1874cd" cx="1155.52" cy="623.104" r="5"/>
<circle fill="#1874cd" cx="974.034" cy="716.985" r="5"/>
<circle fill="#1874cd" cx="1252.05" cy="659.496" r="5"/>
<circle fill="#1874cd" cx="1291.63" cy="555.966" r="5"/>
<circle fill="#e41a1c" cx="996.444" cy="771.274" r="5"/>
<circle fill="#e41a1c" cx="1229.93" cy="687.08" r="5"/>
<circle fill="#e41a1c" cx="820.817" cy="691.661" r="5"/>
<circle fill="#e41a1c" cx="822.926" cy="699.765" r="5"/>
<circle fill="#e41a1c" cx="888.02" cy="635.496" r="5"/>
<circle fill="#8b864e" cx="1070.13" cy="477.486" r="5"/>
<circle fill="#8b864e" cx="971.124" cy="423.26" r="5"/>
<circle fill="#8b864e" cx="888.209" cy="522.777" r="5"/>
<circle fill="#8b864e" cx="986.884" cy="245.152" r="5"/>
<circle fill="#000000" cx="1075.45" cy="772.238" r="5"/>
<text fill="#000000" x="1338.55" y="96.1719" font-size="12" text-anchor="start" dy="0" font-family="Helvetica">PC1 (46.7%)</text>
<text fill="#000000" x="1148.31" y="1009.56" font-size="12" text-anchor="start" dy="0" font-family="Helvetica">PC2 (20%)</text>
<text fill="#000000" x="1482.94" y="673.192" font-size="12" text-anchor="start" dy="0" font-family="Helvetica">PC3 (16.4%)</text>
<text fill="#000000" x="762.926" y="704.165" font-size="8" text-anchor="start" dy="0" font-family="Helvetica">STW183a_URI1</text>
<polygon fill="#e41a1c" fill-opacity="0.298039" shape-rendering="crispEdges" points="996.444,771.274 1229.93,687.08 822.926,699.765"/>
<polygon fill="#e41a1c" fill-opacity="0.298039" shape-rendering="crispEdges" points="1099.83,459.366 1229.93,687.08 822.926,699.765"/>
<text fill="#000000" x="902.324" y="427.66" font-size="8" text-anchor="start" dy="0" font-family="Helvetica">UW101_591_ULI1</text>
<polygon fill="#e41a1c" fill-opacity="0.298039" shape-rendering="crispEdges" points="996.444,771.274 899.631,814.709 822.926,699.765"/>
<text fill="#000000" x="1177.93" y="691.479" font-size="8" text-anchor="start" dy="0" font-family="Helvetica">STS52a_ULI1</text>
<text fill="#000000" x="943.644" y="775.674" font-size="8" text-anchor="start" dy="0" font-family="Helvetica">STS24a_URI1</text>
<polygon fill="#8b864e" fill-opacity="0.298039" shape-rendering="crispEdges" points="888.209,522.777 971.124,423.26 1070.13,477.486"/>
<text fill="#000000" x="1176.85" y="663.896" font-size="8" text-anchor="start" dy="0" font-family="Helvetica">Prob_SKX240_ULI1</text>
<text fill="#000000" x="1000.53" y="481.886" font-size="8" text-anchor="start" dy="0" font-family="Helvetica">UW101_038_URI1</text>
<polygon fill="#8b864e" fill-opacity="0.298039" shape-rendering="crispEdges" points="986.884,245.152 971.124,423.26 1070.13,477.486"/>
<text fill="#000000" x="1051.83" y="463.766" font-size="8" text-anchor="start" dy="0" font-family="Helvetica">MLD43_ULI1</text>
<polygon fill="#e41a1c" fill-opacity="0.298039" shape-rendering="crispEdges" points="996.444,771.274 899.631,814.709 1229.93,687.08"/>
<polygon fill="#e41a1c" fill-opacity="0.298039" shape-rendering="crispEdges" points="888.02,635.496 1099.83,459.366 822.926,699.765"/>
<polygon fill="#8b864e" fill-opacity="0.298039" shape-rendering="crispEdges" points="986.884,245.152 888.209,522.777 971.124,423.26"/>
<polygon fill="#1874cd" fill-opacity="0.298039" shape-rendering="crispEdges" points="1291.63,555.966 1308.31,785.499 1252.05,659.496"/>
<text fill="#000000" x="1254.71" y="789.899" font-size="8" text-anchor="start" dy="0" font-family="Helvetica">DNH108_URI1</text>
<polygon fill="#8b864e" fill-opacity="0.298039" shape-rendering="crispEdges" points="986.884,245.152 888.209,522.777 1070.13,477.486"/>
<text fill="#000000" x="819.41" y="527.177" font-size="8" text-anchor="start" dy="0" font-family="Helvetica">UW101_931_ULI1</text>
<polygon fill="#1874cd" fill-opacity="0.298039" shape-rendering="crispEdges" points="1308.31,785.499 974.034,716.985 1252.05,659.496"/>
<text fill="#000000" x="912.484" y="249.552" font-size="8" text-anchor="start" dy="0" font-family="Helvetica">UW101_1558_URI1</text>
<polygon fill="#1874cd" fill-opacity="0.298039" shape-rendering="crispEdges" points="1323.88,698.356 1291.63,555.966 1308.31,785.499"/>
<polygon fill="#1874cd" fill-opacity="0.298039" shape-rendering="crispEdges" points="1291.63,555.966 974.034,716.985 1252.05,659.496"/>
<polygon fill="#e41a1c" fill-opacity="0.298039" shape-rendering="crispEdges" points="820.817,691.661 899.631,814.709 822.926,699.765"/>
<text fill="#000000" x="1249.23" y="560.366" font-size="8" text-anchor="start" dy="0" font-family="Helvetica">SK65_ULI1</text>
<text fill="#000000" x="858.031" y="819.109" font-size="8" text-anchor="start" dy="0" font-family="Helvetica">LH3b_ULI1</text>
<text fill="#000000" x="1263.08" y="702.756" font-size="8" text-anchor="start" dy="0" font-family="Helvetica">Prob_SK3_URI1</text>
<polygon fill="#1874cd" fill-opacity="0.298039" shape-rendering="crispEdges" points="1202.04,740.339 1308.31,785.499 974.034,716.985"/>
<polygon fill="#e41a1c" fill-opacity="0.298039" shape-rendering="crispEdges" points="1099.83,459.366 1157.11,459.255 1229.93,687.08"/>
<text fill="#000000" x="1168.82" y="586.163" font-size="8" text-anchor="start" dy="0" font-family="Helvetica">Prob_KB5389_ULI1</text>
<polygon fill="#e41a1c" fill-opacity="0.298039" shape-rendering="crispEdges" points="888.02,635.496 820.817,691.661 822.926,699.765"/>
<text fill="#000000" x="909.234" y="721.385" font-size="8" text-anchor="start" dy="0" font-family="Helvetica">Prob_SK68_ULI1</text>
<text fill="#000000" x="1006.65" y="776.638" font-size="8" text-anchor="start" dy="0" font-family="Helvetica">UW_105_006_UI1</text>
<polygon fill="#1874cd" fill-opacity="0.298039" shape-rendering="crispEdges" points="1323.88,698.356 1308.31,785.499 1196.39,547.523"/>
<text fill="#000000" x="1090.72" y="627.504" font-size="8" text-anchor="start" dy="0" font-family="Helvetica">Prob_SK40_ULI1</text>
<text fill="#000000" x="1141.24" y="744.739" font-size="8" text-anchor="start" dy="0" font-family="Helvetica">Prob_SK2_URI1</text>
<polygon fill="#1874cd" fill-opacity="0.298039" shape-rendering="crispEdges" points="1323.88,698.356 1291.63,555.966 1196.39,547.523"/>
<polygon fill="#e41a1c" fill-opacity="0.298039" shape-rendering="crispEdges" points="899.631,814.709 1229.93,687.08 868.93,749.275"/>
<polygon fill="#1874cd" fill-opacity="0.298039" shape-rendering="crispEdges" points="1202.04,740.339 1308.31,785.499 1196.39,547.523"/>
<polygon fill="#1874cd" fill-opacity="0.298039" shape-rendering="crispEdges" points="1291.63,555.966 974.034,716.985 1196.39,547.523"/>
<polygon fill="#e41a1c" fill-opacity="0.298039" shape-rendering="crispEdges" points="888.02,635.496 1099.83,459.366 820.817,691.661"/>
<polygon fill="#1874cd" fill-opacity="0.298039" shape-rendering="crispEdges" points="1202.04,740.339 974.034,716.985 1196.39,547.523"/>
<polygon fill="#e41a1c" fill-opacity="0.298039" shape-rendering="crispEdges" points="1101.83,668.793 1157.11,459.255 1229.93,687.08"/>
<polygon fill="#e41a1c" fill-opacity="0.298039" shape-rendering="crispEdges" points="1099.83,459.366 820.817,691.661 1157.11,459.255"/>
<polygon fill="#e41a1c" fill-opacity="0.298039" shape-rendering="crispEdges" points="1101.83,668.793 1229.93,687.08 868.93,749.275"/>
<text fill="#000000" x="833.62" y="639.896" font-size="8" text-anchor="start" dy="0" font-family="Helvetica">STW252_ULI1</text>
<text fill="#000000" x="840.717" y="671.056" font-size="8" text-anchor="start" dy="0" font-family="Helvetica">OH16_URI1</text>
<polygon fill="#e41a1c" fill-opacity="0.298039" shape-rendering="crispEdges" points="820.817,691.661 899.631,814.709 868.93,749.275"/>
<text fill="#000000" x="1041.83" y="673.193" font-size="8" text-anchor="start" dy="0" font-family="Helvetica">AL200-1a_ULI1</text>
<text fill="#000000" x="1148.39" y="551.923" font-size="8" text-anchor="start" dy="0" font-family="Helvetica">DNH93_ULI1</text>
<text fill="#000000" x="726.417" y="696.061" font-size="8" text-anchor="start" dy="0" font-family="Helvetica">STW75_STW78.79_ULI1</text>
<text fill="#000000" x="1101.91" y="463.655" font-size="8" text-anchor="start" dy="0" font-family="Helvetica">AL486-1_ULI1</text>
<polygon fill="#e41a1c" fill-opacity="0.298039" shape-rendering="crispEdges" points="1101.83,668.793 1157.11,459.255 868.93,749.275"/>
<polygon fill="#4daf4a" fill-opacity="0.298039" shape-rendering="crispEdges" points="1057.51,575.993 884.717,666.656 989.261,533.256"/>
<polygon fill="#e41a1c" fill-opacity="0.298039" shape-rendering="crispEdges" points="820.817,691.661 1157.11,459.255 868.93,749.275"/>
<text fill="#000000" x="945.261" y="537.656" font-size="8" text-anchor="start" dy="0" font-family="Helvetica">OH39_URI1</text>
<text fill="#000000" x="829.729" y="753.675" font-size="8" text-anchor="start" dy="0" font-family="Helvetica">MH1_URI1</text>
<text fill="#000000" x="967.112" y="580.393" font-size="8" text-anchor="start" dy="0" font-family="Helvetica">KNM-WT_15000A_ULI1</text>
</g>
</svg>
