<?xml version="1.0" encoding="UTF-8" standalone="no"?>
<svg xmlns="http://www.w3.org/2000/svg"
     xmlns:xlink="http://www.w3.org/1999/xlink"
     width="1920pt" height="1129pt" viewBox="0 0 1920 1129">
<title>D:/3D_GM/Projects/UW105/Results/Taxonomic_assessment/UW105_006/UW105_006_shape_PCA_clean.svg</title>
<desc>
Creator: GL2PS 1.4.2, (C) 1999-2020 C. Geuzaine
For: Generated by rgl
CreationDate: Fri Jan 23 11:02:36 2026
</desc>
<defs>
</defs>
<g>
<polygon fill="#ffffff" shape-rendering="crispEdges" points="0,1129 1920,1129 1920,0"/>
<polygon fill="#ffffff" shape-rendering="crispEdges" points="0,1129 1920,0 0,0"/>
<polyline fill="none" stroke="#000000" stroke-width="1" stroke-linecap="butt" stroke-linejoin="miter" points="1342.51,945.116 774.192,969.938"/>
<polyline fill="none" stroke="#000000" stroke-width="1" stroke-linecap="butt" stroke-linejoin="miter" points="774.192,969.938 519.467,779.003"/>
<polyline fill="none" stroke="#000000" stroke-width="1" stroke-linecap="butt" stroke-linejoin="miter" points="519.467,779.003 1087.79,754.181 1342.51,945.116"/>
<polyline fill="none" stroke="#000000" stroke-width="1" stroke-linecap="butt" stroke-linejoin="miter" points="1145.81,159.062 1087.79,754.181"/>
<polyline fill="none" stroke="#000000" stroke-width="1" stroke-linecap="butt" stroke-linejoin="miter" points="1087.79,754.181 519.467,779.003"/>
<polyline fill="none" stroke="#000000" stroke-width="1" stroke-linecap="butt" stroke-linejoin="miter" points="519.467,779.003 577.487,183.884"/>
<polyline fill="none" stroke="#0a0a0a" stroke-width="1" stroke-linecap="butt" stroke-linejoin="miter" points="577.487,183.884 1145.81,159.062"/>
<polyline fill="none" stroke="#000000" stroke-width="1" stroke-linecap="butt" stroke-linejoin="miter" points="1342.51,945.116 1087.79,754.181"/>
<polyline fill="none" stroke="#000000" stroke-width="1" stroke-linecap="butt" stroke-linejoin="miter" points="1087.79,754.181 1145.81,159.062"/>
<polyline fill="none" stroke="#000000" stroke-width="1" stroke-linecap="butt" stroke-linejoin="miter" points="1145.81,159.062 1400.53,349.997"/>
<polyline fill="none" stroke="#000000" stroke-width="1" stroke-linecap="butt" stroke-linejoin="miter" points="1400.53,349.997 1342.51,945.116"/>
<polyline fill="none" stroke="#000000" stroke-width="1" stroke-linecap="butt" stroke-linejoin="miter" points="1385.02,338.371 1388.89,298.696"/>
<text fill="#000000" x="1381.96" y="265.022" font-size="12" text-anchor="start" dy="0" font-family="Helvetica">-0.1</text>
<polyline fill="none" stroke="#000000" stroke-width="1" stroke-linecap="butt" stroke-linejoin="miter" points="1343.02,306.884 1346.89,267.21"/>
<text fill="#000000" x="1336.35" y="233.535" font-size="12" text-anchor="start" dy="0" font-family="Helvetica">-0.05</text>
<polyline fill="none" stroke="#000000" stroke-width="1" stroke-linecap="butt" stroke-linejoin="miter" points="1301.01,275.398 1304.88,235.723"/>
<text fill="#000000" x="1305.15" y="202.049" font-size="12" text-anchor="start" dy="0" font-family="Helvetica">0</text>
<polyline fill="none" stroke="#000000" stroke-width="1" stroke-linecap="butt" stroke-linejoin="miter" points="1259,243.911 1262.87,204.237"/>
<text fill="#000000" x="1254.34" y="170.562" font-size="12" text-anchor="start" dy="0" font-family="Helvetica">0.05</text>
<polyline fill="none" stroke="#000000" stroke-width="1" stroke-linecap="butt" stroke-linejoin="miter" points="1217,212.425 1220.87,172.75"/>
<text fill="#000000" x="1215.94" y="139.076" font-size="12" text-anchor="start" dy="0" font-family="Helvetica">0.1</text>
<polyline fill="none" stroke="#000000" stroke-width="1" stroke-linecap="butt" stroke-linejoin="miter" points="1174.99,180.938 1178.86,141.264"/>
<text fill="#000000" x="1170.33" y="107.589" font-size="12" text-anchor="start" dy="0" font-family="Helvetica">0.15</text>
<polyline fill="none" stroke="#000000" stroke-width="1" stroke-linecap="butt" stroke-linejoin="miter" points="1250.08,949.153 1267.06,961.882"/>
<text fill="#000000" x="1273.25" y="980.611" font-size="12" text-anchor="start" dy="0" font-family="Helvetica">-0.05</text>
<polyline fill="none" stroke="#000000" stroke-width="1" stroke-linecap="butt" stroke-linejoin="miter" points="1079.6,956.599 1096.58,969.328"/>
<text fill="#000000" x="1110.87" y="988.057" font-size="12" text-anchor="start" dy="0" font-family="Helvetica">0</text>
<polyline fill="none" stroke="#000000" stroke-width="1" stroke-linecap="butt" stroke-linejoin="miter" points="909.12,964.045 926.102,976.774"/>
<text fill="#000000" x="933.789" y="995.503" font-size="12" text-anchor="start" dy="0" font-family="Helvetica">0.05</text>
<polyline fill="none" stroke="#000000" stroke-width="1" stroke-linecap="butt" stroke-linejoin="miter" points="1349.42,874.287 1366.4,887.016"/>
<text fill="#000000" x="1372.59" y="905.745" font-size="12" text-anchor="start" dy="0" font-family="Helvetica">-0.05</text>
<polyline fill="none" stroke="#000000" stroke-width="1" stroke-linecap="butt" stroke-linejoin="miter" points="1365.29,711.517 1382.27,724.246"/>
<text fill="#000000" x="1396.55" y="742.975" font-size="12" text-anchor="start" dy="0" font-family="Helvetica">0</text>
<polyline fill="none" stroke="#000000" stroke-width="1" stroke-linecap="butt" stroke-linejoin="miter" points="1381.16,548.747 1398.14,561.476"/>
<text fill="#000000" x="1405.82" y="580.205" font-size="12" text-anchor="start" dy="0" font-family="Helvetica">0.05</text>
<polyline fill="none" stroke="#000000" stroke-width="1" stroke-linecap="butt" stroke-linejoin="miter" points="1397.02,385.977 1414.01,398.706"/>
<text fill="#000000" x="1424.39" y="417.435" font-size="12" text-anchor="start" dy="0" font-family="Helvetica">0.1</text>
<polyline fill="none" stroke="#000000" stroke-width="1" stroke-linecap="butt" stroke-linejoin="miter" points="1342.51,945.116 1342.51,945.116"/>
<polyline fill="none" stroke="#000000" stroke-width="1" stroke-linecap="butt" stroke-linejoin="miter" points="577.487,183.884 577.487,183.884"/>
<circle fill="#e41a1c" cx="1041.29" cy="698.49" r="5"/>
<circle fill="#e41a1c" cx="1099.02" cy="479.648" r="5"/>
<circle fill="#1874cd" cx="1140.04" cy="571.835" r="5"/>
<circle fill="#1874cd" cx="1256.94" cy="820.378" r="5"/>
<circle fill="#4daf4a" cx="995" cy="601.569" r="5"/>
<circle fill="#e41a1c" cx="830.108" cy="850.885" r="5"/>
<circle fill="#e41a1c" cx="798.044" cy="782.545" r="5"/>
<circle fill="#e41a1c" cx="1039.19" cy="479.763" r="5"/>
<circle fill="#4daf4a" cx="814.533" cy="696.257" r="5"/>
<circle fill="#4daf4a" cx="923.719" cy="556.935" r="5"/>
<circle fill="#1874cd" cx="1188.95" cy="607.595" r="5"/>
<circle fill="#1874cd" cx="1145.94" cy="773.213" r="5"/>
<circle fill="#1874cd" cx="1273.19" cy="729.366" r="5"/>
<circle fill="#1874cd" cx="1097.36" cy="650.772" r="5"/>
<circle fill="#1874cd" cx="907.815" cy="748.822" r="5"/>
<circle fill="#1874cd" cx="1198.18" cy="688.78" r="5"/>
<circle fill="#1874cd" cx="1239.51" cy="580.653" r="5"/>
<circle fill="#e41a1c" cx="931.22" cy="805.521" r="5"/>
<circle fill="#e41a1c" cx="1175.07" cy="717.588" r="5"/>
<circle fill="#e41a1c" cx="747.795" cy="722.373" r="5"/>
<circle fill="#e41a1c" cx="749.998" cy="730.836" r="5"/>
<circle fill="#e41a1c" cx="817.982" cy="663.714" r="5"/>
<circle fill="#8b864e" cx="1008.18" cy="498.688" r="5"/>
<circle fill="#8b864e" cx="904.775" cy="442.054" r="5"/>
<circle fill="#8b864e" cx="818.18" cy="545.99" r="5"/>
<circle fill="#8b864e" cx="921.236" cy="256.038" r="5"/>
<circle fill="#000000" cx="1013.73" cy="806.528" r="5"/>
<text fill="#000000" x="1290.13" y="100.176" font-size="12" text-anchor="start" dy="0" font-family="Helvetica">PC1 (46.7%)</text>
<text fill="#000000" x="1091.21" y="1054.12" font-size="12" text-anchor="start" dy="0" font-family="Helvetica">PC2 (20%)</text>
<text fill="#000000" x="1440.94" y="702.817" font-size="12" text-anchor="start" dy="0" font-family="Helvetica">PC3 (16.4%)</text>
<polygon fill="#e41a1c" fill-opacity="0.298039" shape-rendering="crispEdges" points="931.22,805.521 1175.07,717.588 749.998,730.836"/>
<polygon fill="#e41a1c" fill-opacity="0.298039" shape-rendering="crispEdges" points="1039.19,479.763 1175.07,717.588 749.998,730.836"/>
<polygon fill="#e41a1c" fill-opacity="0.298039" shape-rendering="crispEdges" points="931.22,805.521 830.108,850.885 749.998,730.836"/>
<polygon fill="#8b864e" fill-opacity="0.298039" shape-rendering="crispEdges" points="818.18,545.99 904.775,442.054 1008.18,498.688"/>
<polygon fill="#8b864e" fill-opacity="0.298039" shape-rendering="crispEdges" points="921.236,256.038 904.775,442.054 1008.18,498.688"/>
<polygon fill="#e41a1c" fill-opacity="0.298039" shape-rendering="crispEdges" points="931.22,805.521 830.108,850.885 1175.07,717.588"/>
<polygon fill="#e41a1c" fill-opacity="0.298039" shape-rendering="crispEdges" points="817.982,663.714 1039.19,479.763 749.998,730.836"/>
<polygon fill="#8b864e" fill-opacity="0.298039" shape-rendering="crispEdges" points="921.236,256.038 818.18,545.99 904.775,442.054"/>
<polygon fill="#1874cd" fill-opacity="0.298039" shape-rendering="crispEdges" points="1239.51,580.653 1256.94,820.378 1198.18,688.78"/>
<polygon fill="#8b864e" fill-opacity="0.298039" shape-rendering="crispEdges" points="921.236,256.038 818.18,545.99 1008.18,498.688"/>
<polygon fill="#1874cd" fill-opacity="0.298039" shape-rendering="crispEdges" points="1256.94,820.378 907.815,748.822 1198.18,688.78"/>
<polygon fill="#1874cd" fill-opacity="0.298039" shape-rendering="crispEdges" points="1273.19,729.366 1239.51,580.653 1256.94,820.378"/>
<polygon fill="#1874cd" fill-opacity="0.298039" shape-rendering="crispEdges" points="1239.51,580.653 907.815,748.822 1198.18,688.78"/>
<polygon fill="#e41a1c" fill-opacity="0.298039" shape-rendering="crispEdges" points="747.795,722.373 830.108,850.885 749.998,730.836"/>
<polygon fill="#1874cd" fill-opacity="0.298039" shape-rendering="crispEdges" points="1145.94,773.213 1256.94,820.378 907.815,748.822"/>
<polygon fill="#e41a1c" fill-opacity="0.298039" shape-rendering="crispEdges" points="1039.19,479.763 1099.02,479.648 1175.07,717.588"/>
<polygon fill="#e41a1c" fill-opacity="0.298039" shape-rendering="crispEdges" points="817.982,663.714 747.795,722.373 749.998,730.836"/>
<polygon fill="#1874cd" fill-opacity="0.298039" shape-rendering="crispEdges" points="1273.19,729.366 1256.94,820.378 1140.04,571.835"/>
<polygon fill="#1874cd" fill-opacity="0.298039" shape-rendering="crispEdges" points="1273.19,729.366 1239.51,580.653 1140.04,571.835"/>
<polygon fill="#e41a1c" fill-opacity="0.298039" shape-rendering="crispEdges" points="830.108,850.885 1175.07,717.588 798.044,782.545"/>
<polygon fill="#1874cd" fill-opacity="0.298039" shape-rendering="crispEdges" points="1145.94,773.213 1256.94,820.378 1140.04,571.835"/>
<polygon fill="#1874cd" fill-opacity="0.298039" shape-rendering="crispEdges" points="1239.51,580.653 907.815,748.822 1140.04,571.835"/>
<polygon fill="#e41a1c" fill-opacity="0.298039" shape-rendering="crispEdges" points="817.982,663.714 1039.19,479.763 747.795,722.373"/>
<polygon fill="#1874cd" fill-opacity="0.298039" shape-rendering="crispEdges" points="1145.94,773.213 907.815,748.822 1140.04,571.835"/>
<polygon fill="#e41a1c" fill-opacity="0.298039" shape-rendering="crispEdges" points="1041.29,698.49 1099.02,479.648 1175.07,717.588"/>
<polygon fill="#e41a1c" fill-opacity="0.298039" shape-rendering="crispEdges" points="1039.19,479.763 747.795,722.373 1099.02,479.648"/>
<polygon fill="#e41a1c" fill-opacity="0.298039" shape-rendering="crispEdges" points="1041.29,698.49 1175.07,717.588 798.044,782.545"/>
<polygon fill="#e41a1c" fill-opacity="0.298039" shape-rendering="crispEdges" points="747.795,722.373 830.108,850.885 798.044,782.545"/>
<polygon fill="#e41a1c" fill-opacity="0.298039" shape-rendering="crispEdges" points="1041.29,698.49 1099.02,479.648 798.044,782.545"/>
<polygon fill="#4daf4a" fill-opacity="0.298039" shape-rendering="crispEdges" points="995,601.569 814.533,696.257 923.719,556.935"/>
<polygon fill="#e41a1c" fill-opacity="0.298039" shape-rendering="crispEdges" points="747.795,722.373 1099.02,479.648 798.044,782.545"/>
</g>
</svg>
