<?xml version="1.0" encoding="UTF-8" standalone="no"?>
<svg xmlns="http://www.w3.org/2000/svg"
     xmlns:xlink="http://www.w3.org/1999/xlink"
     width="2048pt" height="1081pt" viewBox="0 0 2048 1081">
<title>D:/3D_GM/Projects/UW105/Results/Tooth_type_classifications/UW105_249_76/3D_PCA_clean.svg</title>
<desc>
Creator: GL2PS 1.4.2, (C) 1999-2020 C. Geuzaine
For: Generated by rgl
CreationDate: Wed Jan 28 08:46:03 2026
</desc>
<defs>
</defs>
<g>
<polygon fill="#ffffff" shape-rendering="crispEdges" points="0,1081 2048,1081 2048,0"/>
<polygon fill="#ffffff" shape-rendering="crispEdges" points="0,1081 2048,0 0,0"/>
<polyline fill="none" stroke="#000000" stroke-width="1" stroke-linecap="butt" stroke-linejoin="miter" points="763.237,898.487 693.953,787.767 1288.83,770.854 1358.11,881.574 763.237,898.487"/>
<polyline fill="none" stroke="#000000" stroke-width="1" stroke-linecap="butt" stroke-linejoin="miter" points="1354.05,293.233 1358.11,881.574 1288.83,770.854 1284.76,182.513 1354.05,293.233"/>
<polyline fill="none" stroke="#dbdbdb" stroke-width="1" stroke-linecap="butt" stroke-linejoin="miter" points="689.891,199.426 1284.76,182.513"/>
<polyline fill="none" stroke="#535353" stroke-width="1" stroke-linecap="butt" stroke-linejoin="miter" points="1284.76,182.513 1288.83,770.854"/>
<polyline fill="none" stroke="#131313" stroke-width="1" stroke-linecap="butt" stroke-linejoin="miter" points="1288.83,770.854 693.953,787.767"/>
<polyline fill="none" stroke="#2d2d2d" stroke-width="1" stroke-linecap="butt" stroke-linejoin="miter" points="693.953,787.767 689.891,199.426"/>
<polyline fill="none" stroke="#000000" stroke-width="1" stroke-linecap="butt" stroke-linejoin="miter" points="710.656,198.835 710.386,159.613"/>
<text fill="#000000" x="695.715" y="126.39" font-size="12" text-anchor="start" dy="0" font-family="Helvetica">-0.15</text>
<polyline fill="none" stroke="#000000" stroke-width="1" stroke-linecap="butt" stroke-linejoin="miter" points="824.864,195.588 824.594,156.366"/>
<text fill="#000000" x="813.523" y="123.143" font-size="12" text-anchor="start" dy="0" font-family="Helvetica">-0.1</text>
<polyline fill="none" stroke="#000000" stroke-width="1" stroke-linecap="butt" stroke-linejoin="miter" points="939.072,192.341 938.802,153.119"/>
<text fill="#000000" x="924.131" y="119.896" font-size="12" text-anchor="start" dy="0" font-family="Helvetica">-0.05</text>
<polyline fill="none" stroke="#000000" stroke-width="1" stroke-linecap="butt" stroke-linejoin="miter" points="1053.28,189.094 1053.01,149.872"/>
<text fill="#000000" x="1049.14" y="116.649" font-size="12" text-anchor="start" dy="0" font-family="Helvetica">0</text>
<polyline fill="none" stroke="#000000" stroke-width="1" stroke-linecap="butt" stroke-linejoin="miter" points="1167.49,185.847 1167.22,146.625"/>
<text fill="#000000" x="1154.55" y="113.402" font-size="12" text-anchor="start" dy="0" font-family="Helvetica">0.05</text>
<polyline fill="none" stroke="#000000" stroke-width="1" stroke-linecap="butt" stroke-linejoin="miter" points="1281.7,182.6 1281.43,143.377"/>
<text fill="#000000" x="1272.35" y="110.155" font-size="12" text-anchor="start" dy="0" font-family="Helvetica">0.1</text>
<polyline fill="none" stroke="#000000" stroke-width="1" stroke-linecap="butt" stroke-linejoin="miter" points="1341.33,272.911 1341.06,233.688"/>
<text fill="#000000" x="1326.39" y="200.465" font-size="12" text-anchor="start" dy="0" font-family="Helvetica">-0.05</text>
<polyline fill="none" stroke="#000000" stroke-width="1" stroke-linecap="butt" stroke-linejoin="miter" points="1321.2,240.741 1320.93,201.518"/>
<text fill="#000000" x="1317.06" y="168.295" font-size="12" text-anchor="start" dy="0" font-family="Helvetica">0</text>
<polyline fill="none" stroke="#000000" stroke-width="1" stroke-linecap="butt" stroke-linejoin="miter" points="1301.07,208.57 1300.8,169.348"/>
<text fill="#000000" x="1288.13" y="136.125" font-size="12" text-anchor="start" dy="0" font-family="Helvetica">0.05</text>
<polyline fill="none" stroke="#000000" stroke-width="1" stroke-linecap="butt" stroke-linejoin="miter" points="693.436,712.805 653.777,713.933"/>
<text fill="#000000" x="585.729" y="721.061" font-size="12" text-anchor="start" dy="0" font-family="Helvetica">-0.06</text>
<polyline fill="none" stroke="#000000" stroke-width="1" stroke-linecap="butt" stroke-linejoin="miter" points="692.844,627.204 653.186,628.331"/>
<text fill="#000000" x="585.137" y="635.458" font-size="12" text-anchor="start" dy="0" font-family="Helvetica">-0.04</text>
<polyline fill="none" stroke="#000000" stroke-width="1" stroke-linecap="butt" stroke-linejoin="miter" points="692.253,541.602 652.595,542.729"/>
<text fill="#000000" x="584.546" y="549.856" font-size="12" text-anchor="start" dy="0" font-family="Helvetica">-0.02</text>
<polyline fill="none" stroke="#000000" stroke-width="1" stroke-linecap="butt" stroke-linejoin="miter" points="691.662,456 652.004,457.127"/>
<text fill="#000000" x="605.248" y="464.255" font-size="12" text-anchor="start" dy="0" font-family="Helvetica">0</text>
<polyline fill="none" stroke="#000000" stroke-width="1" stroke-linecap="butt" stroke-linejoin="miter" points="691.071,370.398 651.413,371.525"/>
<text fill="#000000" x="587.308" y="378.653" font-size="12" text-anchor="start" dy="0" font-family="Helvetica">0.02</text>
<polyline fill="none" stroke="#000000" stroke-width="1" stroke-linecap="butt" stroke-linejoin="miter" points="690.48,284.796 650.822,285.923"/>
<text fill="#000000" x="586.716" y="293.051" font-size="12" text-anchor="start" dy="0" font-family="Helvetica">0.04</text>
<polyline fill="none" stroke="#000000" stroke-width="1" stroke-linecap="butt" stroke-linejoin="miter" points="763.237,898.487 763.237,898.487"/>
<polyline fill="none" stroke="#000000" stroke-width="1" stroke-linecap="butt" stroke-linejoin="miter" points="1284.76,182.513 1284.76,182.513"/>
<circle fill="#4daf4a" cx="1013.36" cy="672.184" r="5"/>
<circle fill="#4daf4a" cx="988.423" cy="585.151" r="5"/>
<circle fill="#4daf4a" cx="1035.22" cy="506.517" r="5"/>
<circle fill="#4daf4a" cx="991.164" cy="283.051" r="5"/>
<circle fill="#4daf4a" cx="983.489" cy="465.303" r="5"/>
<circle fill="#4daf4a" cx="823.609" cy="475.298" r="5"/>
<circle fill="#4daf4a" cx="853.097" cy="418.216" r="5"/>
<circle fill="#4daf4a" cx="753.734" cy="474.701" r="5"/>
<circle fill="#4daf4a" cx="931.293" cy="460.416" r="5"/>
<circle fill="#4daf4a" cx="987.03" cy="489.723" r="5"/>
<circle fill="#4daf4a" cx="1121.09" cy="524.67" r="5"/>
<circle fill="#4daf4a" cx="1057.07" cy="439.985" r="5"/>
<circle fill="#4daf4a" cx="961.181" cy="452.423" r="5"/>
<circle fill="#4daf4a" cx="988.451" cy="527.408" r="5"/>
<circle fill="#4daf4a" cx="843.116" cy="462.932" r="5"/>
<circle fill="#4daf4a" cx="912.713" cy="474.602" r="5"/>
<circle fill="#000000" cx="880.58" cy="831.733" r="5"/>
<circle fill="#e41a1c" cx="1288.32" cy="526.281" r="5"/>
<circle fill="#e41a1c" cx="1215.88" cy="498.631" r="5"/>
<circle fill="#e41a1c" cx="1182.44" cy="430.842" r="5"/>
<circle fill="#e41a1c" cx="1234.53" cy="750.703" r="5"/>
<circle fill="#e41a1c" cx="1196.69" cy="373.585" r="5"/>
<circle fill="#e41a1c" cx="1190.7" cy="539.445" r="5"/>
<circle fill="#e41a1c" cx="1300.15" cy="397.692" r="5"/>
<circle fill="#e41a1c" cx="1203.55" cy="641.41" r="5"/>
<circle fill="#e41a1c" cx="1280.01" cy="460.306" r="5"/>
<circle fill="#e41a1c" cx="1279.25" cy="518.245" r="5"/>
<circle fill="#e41a1c" cx="1219.66" cy="503.516" r="5"/>
<circle fill="#e41a1c" cx="1235.5" cy="298.816" r="5"/>
<circle fill="#e41a1c" cx="1231.11" cy="456.97" r="5"/>
<circle fill="#e41a1c" cx="1249.83" cy="487.816" r="5"/>
<circle fill="#e41a1c" cx="1215.67" cy="672.355" r="5"/>
<circle fill="#e41a1c" cx="1277.76" cy="434.61" r="5"/>
<circle fill="#000000" cx="1184.94" cy="596.918" r="5"/>
<text fill="#000000" x="950.424" y="32.6973" font-size="12" text-anchor="start" dy="0" font-family="Helvetica">PC1 (50%)</text>
<text fill="#000000" x="1321.58" y="85.8545" font-size="12" text-anchor="start" dy="0" font-family="Helvetica">PC2 (16.4%)</text>
<text fill="#000000" x="495.87" y="496.725" font-size="12" text-anchor="start" dy="0" font-family="Helvetica">PC3 (6.6%)</text>
<polygon fill="#4daf4a" fill-opacity="0.298039" shape-rendering="crispEdges" points="1057.07,439.985 931.293,460.416 1121.09,524.67"/>
<polygon fill="#4daf4a" fill-opacity="0.298039" shape-rendering="crispEdges" points="1057.07,439.985 931.293,460.416 991.164,283.051"/>
<polygon fill="#e41a1c" fill-opacity="0.298039" shape-rendering="crispEdges" points="1190.7,539.445 1235.5,298.816 1203.55,641.41"/>
<polygon fill="#4daf4a" fill-opacity="0.298039" shape-rendering="crispEdges" points="853.097,418.216 931.293,460.416 753.734,474.701"/>
<polygon fill="#4daf4a" fill-opacity="0.298039" shape-rendering="crispEdges" points="1057.07,439.985 991.164,283.051 1121.09,524.67"/>
<polygon fill="#e41a1c" fill-opacity="0.298039" shape-rendering="crispEdges" points="1280.01,460.306 1235.5,298.816 1203.55,641.41"/>
<polygon fill="#e41a1c" fill-opacity="0.298039" shape-rendering="crispEdges" points="1280.01,460.306 1234.53,750.703 1203.55,641.41"/>
<polygon fill="#4daf4a" fill-opacity="0.298039" shape-rendering="crispEdges" points="931.293,460.416 1013.36,672.184 1121.09,524.67"/>
<polygon fill="#4daf4a" fill-opacity="0.298039" shape-rendering="crispEdges" points="853.097,418.216 931.293,460.416 991.164,283.051"/>
<polygon fill="#e41a1c" fill-opacity="0.298039" shape-rendering="crispEdges" points="1190.7,539.445 1215.67,672.355 1203.55,641.41"/>
<polygon fill="#e41a1c" fill-opacity="0.298039" shape-rendering="crispEdges" points="1280.01,460.306 1235.5,298.816 1300.15,397.692"/>
<polygon fill="#e41a1c" fill-opacity="0.298039" shape-rendering="crispEdges" points="1234.53,750.703 1215.67,672.355 1203.55,641.41"/>
<polygon fill="#e41a1c" fill-opacity="0.298039" shape-rendering="crispEdges" points="1190.7,539.445 1235.5,298.816 1182.44,430.842"/>
<polygon fill="#e41a1c" fill-opacity="0.298039" shape-rendering="crispEdges" points="1288.32,526.281 1280.01,460.306 1234.53,750.703"/>
<polygon fill="#e41a1c" fill-opacity="0.298039" shape-rendering="crispEdges" points="1288.32,526.281 1280.01,460.306 1300.15,397.692"/>
<polygon fill="#4daf4a" fill-opacity="0.298039" shape-rendering="crispEdges" points="931.293,460.416 1013.36,672.184 753.734,474.701"/>
<polygon fill="#4daf4a" fill-opacity="0.298039" shape-rendering="crispEdges" points="853.097,418.216 991.164,283.051 753.734,474.701"/>
<polygon fill="#e41a1c" fill-opacity="0.298039" shape-rendering="crispEdges" points="1277.76,434.61 1235.5,298.816 1300.15,397.692"/>
<polygon fill="#e41a1c" fill-opacity="0.298039" shape-rendering="crispEdges" points="1190.7,539.445 1215.67,672.355 1182.44,430.842"/>
<polygon fill="#e41a1c" fill-opacity="0.298039" shape-rendering="crispEdges" points="1288.32,526.281 1234.53,750.703 1215.67,672.355"/>
<polygon fill="#e41a1c" fill-opacity="0.298039" shape-rendering="crispEdges" points="1196.69,373.585 1235.5,298.816 1182.44,430.842"/>
<polygon fill="#e41a1c" fill-opacity="0.298039" shape-rendering="crispEdges" points="1288.32,526.281 1277.76,434.61 1300.15,397.692"/>
<polygon fill="#4daf4a" fill-opacity="0.298039" shape-rendering="crispEdges" points="983.489,465.303 991.164,283.051 1121.09,524.67"/>
<polygon fill="#e41a1c" fill-opacity="0.298039" shape-rendering="crispEdges" points="1196.69,373.585 1277.76,434.61 1235.5,298.816"/>
<polygon fill="#4daf4a" fill-opacity="0.298039" shape-rendering="crispEdges" points="983.489,465.303 1013.36,672.184 1121.09,524.67"/>
<polygon fill="#e41a1c" fill-opacity="0.298039" shape-rendering="crispEdges" points="1288.32,526.281 1277.76,434.61 1215.67,672.355"/>
<polygon fill="#4daf4a" fill-opacity="0.298039" shape-rendering="crispEdges" points="983.489,465.303 991.164,283.051 753.734,474.701"/>
<polygon fill="#e41a1c" fill-opacity="0.298039" shape-rendering="crispEdges" points="1196.69,373.585 1215.67,672.355 1182.44,430.842"/>
<polygon fill="#e41a1c" fill-opacity="0.298039" shape-rendering="crispEdges" points="1196.69,373.585 1277.76,434.61 1215.67,672.355"/>
<polygon fill="#4daf4a" fill-opacity="0.298039" shape-rendering="crispEdges" points="983.489,465.303 1013.36,672.184 753.734,474.701"/>
</g>
</svg>
