<?xml version="1.0" encoding="UTF-8" standalone="no"?>
<svg xmlns="http://www.w3.org/2000/svg"
     xmlns:xlink="http://www.w3.org/1999/xlink"
     width="2048pt" height="1081pt" viewBox="0 0 2048 1081">
<title>D:/3D_GM/Projects/UW105/Results/Tooth_type_classifications/UW105_249_76/3D_PCA_clean_only_robustus.svg</title>
<desc>
Creator: GL2PS 1.4.2, (C) 1999-2020 C. Geuzaine
For: Generated by rgl
CreationDate: Wed Jan 28 08:53:38 2026
</desc>
<defs>
</defs>
<g>
<polygon fill="#ffffff" shape-rendering="crispEdges" points="0,1081 2048,1081 2048,0"/>
<polygon fill="#ffffff" shape-rendering="crispEdges" points="0,1081 2048,0 0,0"/>
<polyline fill="none" stroke="#000000" stroke-width="1" stroke-linecap="butt" stroke-linejoin="miter" points="716.952,454.871 676.942,267.515"/>
<polyline fill="none" stroke="#000000" stroke-width="1" stroke-linecap="butt" stroke-linejoin="miter" points="676.942,267.515 1203.45,134.02"/>
<polyline fill="none" stroke="#000000" stroke-width="1" stroke-linecap="butt" stroke-linejoin="miter" points="1203.45,134.02 1243.46,321.376"/>
<polyline fill="none" stroke="#000000" stroke-width="1" stroke-linecap="butt" stroke-linejoin="miter" points="1243.46,321.376 716.952,454.871"/>
<polyline fill="none" stroke="#000000" stroke-width="1" stroke-linecap="butt" stroke-linejoin="miter" points="1371.06,813.485 1243.46,321.376 1203.45,134.02 1331.05,626.129 1371.06,813.485"/>
<polyline fill="none" stroke="#020202" stroke-width="1" stroke-linecap="butt" stroke-linejoin="miter" points="716.952,454.871 1243.46,321.376"/>
<polyline fill="none" stroke="#020202" stroke-width="1" stroke-linecap="butt" stroke-linejoin="miter" points="1243.46,321.376 1371.06,813.485"/>
<polyline fill="none" stroke="#2e2e2e" stroke-width="1" stroke-linecap="butt" stroke-linejoin="miter" points="1371.06,813.485 844.546,946.98"/>
<polyline fill="none" stroke="#353535" stroke-width="1" stroke-linecap="butt" stroke-linejoin="miter" points="844.546,946.98 716.952,454.871"/>
<polyline fill="none" stroke="#000000" stroke-width="1" stroke-linecap="butt" stroke-linejoin="miter" points="935.304,923.969 943.811,956.776"/>
<text fill="#000000" x="941.517" y="995.583" font-size="12" text-anchor="start" dy="0" font-family="Helvetica">-0.1</text>
<polyline fill="none" stroke="#000000" stroke-width="1" stroke-linecap="butt" stroke-linejoin="miter" points="1053.73,893.942 1062.24,926.75"/>
<text fill="#000000" x="1056.34" y="965.557" font-size="12" text-anchor="start" dy="0" font-family="Helvetica">-0.05</text>
<polyline fill="none" stroke="#000000" stroke-width="1" stroke-linecap="butt" stroke-linejoin="miter" points="1172.15,863.916 1180.66,896.724"/>
<text fill="#000000" x="1185.57" y="935.531" font-size="12" text-anchor="start" dy="0" font-family="Helvetica">0</text>
<polyline fill="none" stroke="#000000" stroke-width="1" stroke-linecap="butt" stroke-linejoin="miter" points="1290.58,833.89 1299.09,866.697"/>
<text fill="#000000" x="1295.19" y="905.504" font-size="12" text-anchor="start" dy="0" font-family="Helvetica">0.05</text>
<polyline fill="none" stroke="#000000" stroke-width="1" stroke-linecap="butt" stroke-linejoin="miter" points="1370.83,812.419 1379.34,845.226"/>
<text fill="#000000" x="1377.04" y="884.034" font-size="12" text-anchor="start" dy="0" font-family="Helvetica">-0.1</text>
<polyline fill="none" stroke="#000000" stroke-width="1" stroke-linecap="butt" stroke-linejoin="miter" points="1359.29,758.359 1367.79,791.167"/>
<text fill="#000000" x="1361.9" y="829.974" font-size="12" text-anchor="start" dy="0" font-family="Helvetica">-0.05</text>
<polyline fill="none" stroke="#000000" stroke-width="1" stroke-linecap="butt" stroke-linejoin="miter" points="1347.74,704.299 1356.25,737.106"/>
<text fill="#000000" x="1361.15" y="775.914" font-size="12" text-anchor="start" dy="0" font-family="Helvetica">0</text>
<polyline fill="none" stroke="#000000" stroke-width="1" stroke-linecap="butt" stroke-linejoin="miter" points="1336.2,650.239 1344.7,683.046"/>
<text fill="#000000" x="1340.81" y="721.854" font-size="12" text-anchor="start" dy="0" font-family="Helvetica">0.05</text>
<polyline fill="none" stroke="#000000" stroke-width="1" stroke-linecap="butt" stroke-linejoin="miter" points="722.645,476.827 687.543,485.727"/>
<text fill="#000000" x="627.294" y="500.626" font-size="12" text-anchor="start" dy="0" font-family="Helvetica">-0.06</text>
<polyline fill="none" stroke="#000000" stroke-width="1" stroke-linecap="butt" stroke-linejoin="miter" points="746.073,567.188 710.972,576.087"/>
<text fill="#000000" x="650.723" y="590.987" font-size="12" text-anchor="start" dy="0" font-family="Helvetica">-0.04</text>
<polyline fill="none" stroke="#000000" stroke-width="1" stroke-linecap="butt" stroke-linejoin="miter" points="769.502,657.547 734.401,666.447"/>
<text fill="#000000" x="674.151" y="681.347" font-size="12" text-anchor="start" dy="0" font-family="Helvetica">-0.02</text>
<polyline fill="none" stroke="#000000" stroke-width="1" stroke-linecap="butt" stroke-linejoin="miter" points="792.931,747.907 757.83,756.807"/>
<text fill="#000000" x="716.442" y="771.707" font-size="12" text-anchor="start" dy="0" font-family="Helvetica">0</text>
<polyline fill="none" stroke="#000000" stroke-width="1" stroke-linecap="butt" stroke-linejoin="miter" points="816.359,838.267 781.258,847.167"/>
<text fill="#000000" x="724.501" y="862.067" font-size="12" text-anchor="start" dy="0" font-family="Helvetica">0.02</text>
<polyline fill="none" stroke="#000000" stroke-width="1" stroke-linecap="butt" stroke-linejoin="miter" points="839.788,928.627 804.687,937.527"/>
<text fill="#000000" x="747.931" y="952.427" font-size="12" text-anchor="start" dy="0" font-family="Helvetica">0.04</text>
<polyline fill="none" stroke="#000000" stroke-width="1" stroke-linecap="butt" stroke-linejoin="miter" points="716.952,454.871 716.952,454.871"/>
<polyline fill="none" stroke="#000000" stroke-width="1" stroke-linecap="butt" stroke-linejoin="miter" points="1331.05,626.129 1331.05,626.129"/>
<circle fill="#4daf4a" cx="901.881" cy="603.398" r="5"/>
<circle fill="#4daf4a" cx="881.541" cy="323.732" r="5"/>
<circle fill="#4daf4a" cx="1093.59" cy="620.25" r="5"/>
<circle fill="#4daf4a" cx="1029.53" cy="571.423" r="5"/>
<circle fill="#4daf4a" cx="895.458" cy="508.072" r="5"/>
<circle fill="#000000" cx="843.178" cy="817.536" r="5"/>
<circle fill="#e41a1c" cx="1257.6" cy="433.609" r="5"/>
<circle fill="#e41a1c" cx="1197.98" cy="726.652" r="5"/>
<circle fill="#e41a1c" cx="1241.26" cy="521.489" r="5"/>
<circle fill="#e41a1c" cx="1248.83" cy="561.107" r="5"/>
<circle fill="#e41a1c" cx="1188.52" cy="589.691" r="5"/>
<circle fill="#e41a1c" cx="1230.81" cy="518.488" r="5"/>
<circle fill="#e41a1c" cx="1205.9" cy="567.793" r="5"/>
<circle fill="#000000" cx="1145.05" cy="415.962" r="5"/>
<text fill="#000000" x="1108.09" y="1029.95" font-size="12" text-anchor="start" dy="0" font-family="Helvetica">PC1 (52.6%)</text>
<text fill="#000000" x="1383.78" y="848.136" font-size="12" text-anchor="start" dy="0" font-family="Helvetica">PC2 (17.1%)</text>
<text fill="#000000" x="610.213" y="755.015" font-size="12" text-anchor="start" dy="0" font-family="Helvetica">PC3 (7.6%)</text>
<polygon fill="#e41a1c" fill-opacity="0.298039" shape-rendering="crispEdges" points="1248.83,561.107 1188.52,589.691 1257.6,433.609"/>
<polygon fill="#e41a1c" fill-opacity="0.298039" shape-rendering="crispEdges" points="1188.52,589.691 1230.81,518.488 1257.6,433.609"/>
<polygon fill="#e41a1c" fill-opacity="0.298039" shape-rendering="crispEdges" points="1248.83,561.107 1230.81,518.488 1257.6,433.609"/>
<polygon fill="#e41a1c" fill-opacity="0.298039" shape-rendering="crispEdges" points="1248.83,561.107 1188.52,589.691 1197.98,726.652"/>
<polygon fill="#4daf4a" fill-opacity="0.298039" shape-rendering="crispEdges" points="895.458,508.072 881.541,323.732 1093.59,620.25"/>
<polygon fill="#e41a1c" fill-opacity="0.298039" shape-rendering="crispEdges" points="1188.52,589.691 1230.81,518.488 1197.98,726.652"/>
<polygon fill="#e41a1c" fill-opacity="0.298039" shape-rendering="crispEdges" points="1248.83,561.107 1230.81,518.488 1197.98,726.652"/>
<polygon fill="#4daf4a" fill-opacity="0.298039" shape-rendering="crispEdges" points="1029.53,571.423 881.541,323.732 1093.59,620.25"/>
<polygon fill="#4daf4a" fill-opacity="0.298039" shape-rendering="crispEdges" points="895.458,508.072 881.541,323.732 901.881,603.398"/>
<polygon fill="#4daf4a" fill-opacity="0.298039" shape-rendering="crispEdges" points="1029.53,571.423 881.541,323.732 901.881,603.398"/>
<polygon fill="#4daf4a" fill-opacity="0.298039" shape-rendering="crispEdges" points="895.458,508.072 1093.59,620.25 901.881,603.398"/>
<polygon fill="#4daf4a" fill-opacity="0.298039" shape-rendering="crispEdges" points="1029.53,571.423 1093.59,620.25 901.881,603.398"/>
</g>
</svg>
